<svg width="1280" height="720" viewBox="0 0 1280 720" fill="none" xmlns="http://www.w3.org/2000/svg">
    <g opacity="0.2">
        <mask id="mask0"  maskUnits="userSpaceOnUse" x="-75" y="-22" width="1355" height="763">
            <rect x="-75" y="-22" width="1355" height="762.188" fill="white"/>
        </mask>
        <g mask="url(#mask0)">
            <g opacity="0.6">
                <path d="M194.886 586.537L907.017 1828.52C915.362 1843.35 931.125 1852.62 945.961 1851.69L2368.37 1852.62C2403.6 1852.62 2424.93 1815.54 2408.24 1783.1L1708.16 542.975C1699.82 528.145 1684.06 518.877 1669.22 519.804L233.83 518.877C196.74 517.95 175.413 555.024 194.886 586.537Z" stroke="var(--icons)" stroke-miterlimit="10" stroke-linecap="round"/>
                <path d="M252.375 487.364L965.433 1730.27C973.779 1745.1 989.542 1754.37 1004.38 1753.44L2425.86 1754.37C2461.09 1754.37 2482.42 1717.3 2465.73 1684.86L1763.8 443.802C1755.45 428.972 1739.69 419.704 1724.85 420.631L291.32 418.777C255.157 416.923 232.903 455.851 252.375 487.364Z" stroke="var(--icons)" stroke-miterlimit="10" stroke-linecap="round" stroke-dasharray="12 12"/>
                <path d="M192.104 542.975L252.375 440.094" stroke="var(--icons)" stroke-miterlimit="10" stroke-linecap="round"/>
                <path d="M314.502 272.334L1026.63 1514.32C1034.98 1529.15 1050.74 1538.41 1065.58 1537.49L2487.98 1538.41C2523.22 1538.41 2544.55 1501.34 2527.86 1468.9L1826.85 228.772C1818.51 213.942 1802.74 204.674 1787.91 205.601L352.519 204.674C316.356 203.747 295.029 241.748 314.502 272.334Z" stroke="var(--icons)" stroke-miterlimit="10" stroke-linecap="round" stroke-dasharray="12.18 12.18"/>
                <path d="M371.991 173.161L1085.05 1416.07C1093.39 1430.9 1109.16 1440.17 1123.99 1439.24L2545.47 1440.17C2580.71 1440.17 2602.04 1403.09 2585.35 1370.65L1883.41 129.599C1875.07 114.769 1859.31 105.501 1844.47 106.428L410.936 104.574C374.773 102.72 352.519 141.648 371.991 173.161Z" stroke="var(--icons)" stroke-miterlimit="10" stroke-linecap="round"/>
                <path d="M311.72 228.772L371.991 125.891" stroke="var(--icons)" stroke-miterlimit="10" stroke-linecap="round"/>
                <path d="M229.194 8.18106L941.325 1250.16C949.67 1264.99 965.433 1274.26 980.269 1273.33L2402.68 1274.26C2437.91 1274.26 2459.24 1237.19 2442.55 1204.75L1741.54 -35.381C1733.2 -50.2107 1717.44 -59.4792 1702.6 -58.5523L268.139 -59.4792C231.976 -60.406 209.722 -23.3319 229.194 8.18106Z" stroke="var(--icons)" stroke-miterlimit="10" stroke-linecap="round"/>
                <path d="M286.684 -90.9919L999.742 1151.92C1008.09 1166.75 1023.85 1176.02 1038.69 1175.09L2460.17 1176.02C2495.4 1176.02 2516.73 1138.94 2500.04 1106.5L1799.96 -135.481C1791.62 -150.31 1775.85 -159.579 1761.02 -158.652L327.483 -160.506C290.393 -161.433 267.211 -122.505 286.684 -90.9919Z" stroke="var(--icons)" stroke-miterlimit="10" stroke-linecap="round"/>
                <path d="M443.39 -147.53L1155.52 1094.45C1163.87 1109.28 1179.63 1118.55 1194.47 1117.62L2616.87 1118.55C2652.11 1118.55 2673.43 1081.48 2656.74 1049.04L1956.67 -192.018C1948.32 -206.848 1932.56 -216.117 1917.72 -215.19H482.334C445.244 -217.043 423.917 -179.042 443.39 -147.53Z" stroke="var(--icons)" stroke-miterlimit="10" stroke-linecap="round"/>
                <path d="M500.879 -247.629L1213.94 995.279C1222.28 1010.11 1238.05 1019.38 1252.88 1018.45L2674.36 1019.38C2709.6 1019.38 2730.92 982.303 2714.23 949.863L2014.16 -291.191C2005.81 -306.021 1990.05 -315.29 1975.21 -314.363L540.751 -316.216C504.588 -318.07 481.407 -278.216 500.879 -247.629Z" stroke="var(--icons)" stroke-miterlimit="10" stroke-linecap="round"/>
                <path d="M287.611 -518.27L999.742 723.711C1008.09 738.541 1023.85 747.81 1038.69 746.883L2461.09 747.81C2496.33 747.81 2517.66 710.735 2500.97 678.296L1801.82 -561.833C1793.47 -576.662 1777.71 -585.931 1762.87 -585.004L327.483 -585.931C290.393 -586.858 268.139 -549.783 287.611 -518.27Z" stroke="var(--icons)" stroke-miterlimit="10" stroke-linecap="round" stroke-dasharray="12.18 12.18"/>
                <path d="M1021 742L1455 -4" stroke="var(--icons)" stroke-miterlimit="10" stroke-linecap="round"/>
                <path d="M594.532 -620.224L1306.66 621.757C1315.01 636.587 1330.77 645.855 1345.61 644.929L2768.01 645.856C2803.25 645.856 2824.58 608.781 2807.89 576.342L2107.81 -663.787C2099.46 -678.616 2083.7 -687.885 2068.87 -686.958L633.477 -687.885C596.387 -689.738 575.06 -651.737 594.532 -620.224Z" stroke="var(--icons)" stroke-miterlimit="10" stroke-linecap="round"/>
                <path d="M652.022 -720.324L1365.08 522.584C1373.43 537.414 1389.19 546.682 1404.02 545.756L2825.5 546.682C2860.74 546.682 2882.07 509.608 2865.38 477.168L2164.37 -763.886C2156.03 -778.716 2140.26 -787.985 2125.43 -787.058L691.894 -788.911C654.804 -790.765 632.55 -750.91 652.022 -720.324Z" stroke="var(--icons)" stroke-miterlimit="10" stroke-linecap="round" stroke-dasharray="12.18 12.18"/>
                <path d="M807.801 -776.862L1519.93 465.12C1528.28 479.95 1544.04 489.218 1558.88 488.291L2981.28 489.218C3016.52 489.218 3037.85 452.144 3021.16 419.704L2322.01 -820.424C2313.66 -835.254 2297.9 -844.522 2283.06 -843.595H847.673C810.582 -845.449 788.328 -807.448 807.801 -776.862Z" stroke="var(--icons)" stroke-miterlimit="10" stroke-linecap="round" stroke-dasharray="12.18 12.18"/>
                <path d="M865.29 -876.035L1579.28 366.873C1587.62 381.703 1603.38 390.971 1618.22 390.045L3039.7 390.971C3074.94 390.971 3096.26 353.897 3079.57 321.458L2378.57 -920.524C2370.22 -935.354 2354.46 -944.622 2339.62 -943.696L906.09 -945.549C868.999 -946.476 846.745 -907.548 865.29 -876.035Z" stroke="var(--icons)" stroke-miterlimit="10" stroke-linecap="round"/>
                <path d="M1114.72 -878.816L1826.85 363.166C1835.2 377.996 1850.96 387.264 1865.8 386.337L3288.2 387.264C3323.44 387.264 3344.77 350.19 3328.08 317.75L2628 -922.378C2619.65 -937.208 2603.89 -946.476 2589.05 -945.549L1153.67 -946.476C1116.58 -947.403 1095.25 -910.329 1114.72 -878.816Z" stroke="var(--icons)" stroke-miterlimit="10" stroke-linecap="round"/>
                <path d="M1172.21 -977.989L1885.27 264.919C1893.61 279.749 1909.38 289.017 1924.21 288.091L3345.69 289.017C3380.93 289.017 3402.26 251.943 3385.57 219.504L2684.56 -1022.48C2676.22 -1037.31 2660.45 -1046.58 2645.62 -1045.65L1212.08 -1047.5C1174.99 -1049.36 1152.74 -1009.5 1172.21 -977.989Z" stroke="var(--icons)" stroke-miterlimit="10" stroke-linecap="round" stroke-dasharray="12.18 12.18"/>
            </g>
        </g>
    </g>
</svg>
