<svg xmlns="http://www.w3.org/2000/svg" xmlns:xlink="http://www.w3.org/1999/xlink" width="1889.764" height="566.929" viewBox="0 0 500 150" xmlns:v="https://vecta.io/nano"><g fill="#073649"><use xlink:href="#B"/><use xlink:href="#C"/><use xlink:href="#D"/><use xlink:href="#E"/><use xlink:href="#F"/></g><use xlink:href="#G" fill="#ffb820"/><g fill="#ffb820"><use xlink:href="#H" fill="#073649"/><use xlink:href="#I"/></g><g fill="#999"><use xlink:href="#B"/><use xlink:href="#C"/><use xlink:href="#D"/><use xlink:href="#E"/><use xlink:href="#F"/></g><use xlink:href="#G" fill="#ffb820"/><g fill="#ffb820"><use xlink:href="#H" fill="#b3b3b3"/><use xlink:href="#I"/></g><defs ><path id="B" d="M47.405 60.377h-6.879V39.316h6.879c4.233 0 7.302.952 9.313 2.646s3.069 4.127 3.069 7.302-.952 5.821-2.857 7.937-5.08 3.175-9.525 3.175zM82.33 98.159L67.196 73.5c-.741-1.164-1.587-2.117-2.54-2.963s-2.011-1.482-3.069-2.117c4.657-1.799 8.149-4.445 10.583-8.043s3.704-7.726 3.704-12.382c0-2.963-.529-5.821-1.587-8.361s-2.752-4.657-4.974-6.562c-2.328-1.905-5.292-3.387-8.89-4.445s-7.937-1.587-13.017-1.587H24.122v71.12h16.404V71.807h4.339c1.27 0 2.222.212 2.857.635s1.27 1.164 1.905 2.011l11.853 20.532c1.058 2.117 3.069 3.175 5.927 3.175z"/><path id="C" d="M110.164 46.724c-3.916 0-7.408.635-10.583 1.799-3.175 1.27-5.927 2.963-8.255 5.186-2.328 2.328-4.022 5.08-5.292 8.255s-1.905 6.773-1.905 10.795.635 7.726 1.905 10.901 2.963 5.927 5.292 8.255 5.08 4.022 8.255 5.186c3.175 1.27 6.667 1.799 10.583 1.799 3.81 0 7.302-.529 10.477-1.799 3.175-1.164 5.821-2.857 8.149-5.186 2.222-2.328 3.916-5.08 5.186-8.255s1.905-6.879 1.905-10.901-.635-7.62-1.905-10.795-2.963-5.927-5.186-8.255c-2.328-2.222-4.974-3.916-8.149-5.186-3.175-1.164-6.667-1.799-10.477-1.799zm0 40.852c-3.598 0-6.244-1.164-7.937-3.598s-2.434-6.138-2.434-11.112c0-5.08.741-8.784 2.434-11.218s4.339-3.704 7.937-3.704c3.492 0 6.032 1.27 7.726 3.704 1.588 2.434 2.434 6.138 2.434 11.218 0 4.974-.847 8.678-2.434 11.112-1.693 2.434-4.233 3.598-7.726 3.598z"/><path id="D" d="M191.655 47.571h-12.277c-.847 0-1.693.317-2.434.741s-1.27 1.058-1.587 1.799l-7.514 21.696-1.164 3.175c-.317 1.058-.741 2.117-1.164 3.175-.212-1.058-.529-2.117-.847-3.175l-.952-2.963-8.255-21.907c-.423-.741-.847-1.376-1.482-1.799s-1.482-.741-2.646-.741h-13.335l20.108 46.143-9.842 20.532H159.8c1.376 0 2.328-.212 2.963-.635s1.164-1.164 1.693-2.222z"/><path id="E" d="M222.347 77.522v7.091c-1.588 1.482-3.069 2.646-4.445 3.387-1.482.741-3.175 1.058-5.08 1.058-3.81 0-5.715-1.587-5.715-4.762 0-.847.212-1.587.635-2.434.423-.741 1.27-1.376 2.434-2.011 1.164-.529 2.752-1.058 4.657-1.482s4.445-.635 7.514-.847zM195.042 54.45l2.752 4.868c.317.741.847 1.376 1.588 1.799.741.529 1.693.741 2.752.741 1.164 0 2.222-.106 3.069-.529l2.54-1.376c.847-.423 1.905-.847 3.069-1.27s2.646-.635 4.445-.635c2.222 0 3.916.741 5.186 2.011 1.27 1.376 1.905 3.492 1.905 6.456v2.117c-5.821.212-10.583.741-14.393 1.799s-6.879 2.328-9.102 3.81c-2.328 1.587-3.916 3.281-4.762 5.186-.952 1.905-1.376 3.81-1.376 5.503 0 4.657 1.27 8.149 4.022 10.477s6.456 3.492 11.218 3.492c3.387 0 6.35-.529 8.678-1.587s4.868-2.752 7.408-4.974l.952 2.752c.529 1.376 1.164 2.222 1.905 2.54.635.423 1.799.529 3.281.529h6.985V66.515c0-2.857-.529-5.503-1.376-7.937a19.68 19.68 0 0 0-4.022-6.35c-1.799-1.693-3.916-3.069-6.35-4.127a23.34 23.34 0 0 0-8.255-1.482c-4.339 0-8.361.635-12.065 1.905-3.81 1.27-7.091 3.281-10.054 5.927z"/><path id="F" d="M260.658 52.968l-.952-2.963c-.635-1.587-1.905-2.434-3.81-2.434h-9.313v50.588h15.24V61.964c1.27-1.058 2.646-2.011 4.127-2.752s2.963-1.164 4.657-1.164c2.222 0 3.916.741 5.08 2.117 1.058 1.482 1.693 3.387 1.693 5.927v32.067h15.24V66.092c0-2.752-.423-5.292-1.164-7.62s-1.799-4.445-3.281-6.138-3.387-3.069-5.503-4.127c-2.117-.952-4.551-1.482-7.302-1.482-3.387 0-6.244.635-8.467 1.799s-4.339 2.646-6.244 4.445z"/><path id="G" d="M333.894 66.727h-18.732c.847-6.35 4.127-9.525 9.842-9.525 1.587 0 2.963.317 4.127.847 1.058.529 2.011 1.27 2.752 2.117.635.952 1.164 2.011 1.482 3.069.317 1.164.529 2.328.529 3.492zm-19.05 8.784h29.21c1.376 0 2.328-.317 2.752-1.058s.741-2.222.741-4.551c0-3.598-.635-6.879-1.693-9.737-1.164-2.857-2.752-5.292-4.762-7.302-2.011-1.905-4.445-3.492-7.197-4.551s-5.821-1.587-9.102-1.587c-3.916 0-7.408.741-10.477 2.011-3.175 1.376-5.821 3.175-7.937 5.397-2.117 2.328-3.81 4.974-4.974 7.937-1.164 3.069-1.693 6.244-1.693 9.631 0 4.445.635 8.467 2.011 11.853 1.27 3.387 3.175 6.244 5.503 8.467 2.328 2.328 4.974 4.022 8.149 5.186 3.069 1.164 6.456 1.693 10.054 1.693a50.86 50.86 0 0 0 5.503-.317 27.72 27.72 0 0 0 5.715-1.27c1.905-.635 3.704-1.482 5.503-2.646 1.799-1.058 3.492-2.54 5.08-4.445l-4.445-5.397c-.741-.847-1.693-1.376-2.752-1.376-.847 0-1.693.212-2.54.635s-1.799.952-2.752 1.482c-1.058.529-2.117.952-3.387 1.376s-2.858.635-4.551.635c-3.387 0-6.138-.952-8.149-2.857-2.117-1.905-3.387-4.974-3.81-9.207z"/><path id="H" d="M447.857 39.694c-1.806.039-3.219.367-4.238.982l-.692.453-38.518 44.433a.06.06 0 0 0-.019.009c.094-.199.04-.107-.019.009-.056.027-.108.06-.011.022-.051.099-.088.179.02-.007.037-.026.037-.03.031-.031l35.001 37.645c1.19 1.329 3.397 1.959 6.622 1.889l30.377-.66-41.144-40.516L476.3 39.077z"/><path id="I" d="M347.807 28.885l40.968 40.696-41.228 44.665 28.446-.494c1.806-.031 3.22-.353 4.242-.963l.694-.45 38.74-44.297c.261-.108-.175.12 0 0h0c.251-.428-.249.512 0 0h0l-.029.033-34.839-37.8c-1.185-1.334-3.389-1.973-6.614-1.917z"/></defs></svg>
