<?xml version="1.0" encoding="iso-8859-1"?>
<!-- Generator: Adobe Illustrator 17.1.0, SVG Export Plug-In . SVG Version: 6.00 Build 0)  -->
<!DOCTYPE svg PUBLIC "-//W3C//DTD SVG 1.1//EN" "http://www.w3.org/Graphics/SVG/1.1/DTD/svg11.dtd">
<svg version="1.1" xmlns="http://www.w3.org/2000/svg" xmlns:xlink="http://www.w3.org/1999/xlink" x="0px" y="0px"
	 viewBox="0 0 898.156 697.808" style="enable-background:new 0 0 898.156 697.808;" xml:space="preserve">
<g id="graph-4">
	<polygon style="fill:#3BAFDA;" points="639.952,628.363 639.952,474.189 770.539,474.189 770.539,628.363 639.952,628.363 	"/>
	<polygon style="fill:#FFCE54;" points="458.749,628.363 458.749,365.531 589.226,365.531 589.226,628.363 458.749,628.363 	"/>
	<polygon style="fill:#48CFAD;" points="277.522,628.363 277.522,226.54 407.989,226.54 407.989,628.363 277.522,628.363 	"/>
	<polygon style="fill:#FC6E51;" points="96.242,628.363 96.242,85.072 226.796,85.072 226.796,628.363 96.242,628.363 	"/>
	<polygon style="fill:#D1D3D4;" points="0,697.808 0,663.734 865.329,663.734 865.329,42.306 898.156,42.306 898.156,663.734 
		898.156,697.808 865.329,697.808 0,697.808 	"/>
	<polygon style="fill:#3BAFDA;" points="97.283,32.28 97.283,0.256 239.451,0.256 239.64,0 240.221,0.256 240.459,0.256 
		240.459,0.427 705.331,305.02 716.842,262.8 787.653,379.194 653.001,358.443 686.612,331.902 229.341,32.28 97.283,32.28 	"/>
</g>
<g id="Layer_1">
</g>
</svg>
