<?xml version="1.0" encoding="iso-8859-1"?>
<!-- Generator: Adobe Illustrator 17.1.0, SVG Export Plug-In . SVG Version: 6.00 Build 0)  -->
<!DOCTYPE svg PUBLIC "-//W3C//DTD SVG 1.1//EN" "http://www.w3.org/Graphics/SVG/1.1/DTD/svg11.dtd">
<svg version="1.1" xmlns="http://www.w3.org/2000/svg" xmlns:xlink="http://www.w3.org/1999/xlink" x="0px" y="0px"
	 viewBox="0 0 813.621 796.801" style="enable-background:new 0 0 813.621 796.801;" xml:space="preserve">
<g id="graph-16">
	<g>
		<rect y="792.855" style="fill:#D1D3D4;" width="809.506" height="3.945"/>
		<rect x="1.179" y="682.642" style="fill:#D1D3D4;" width="808.568" height="3.946"/>
		<rect x="1.179" y="548.211" style="fill:#D1D3D4;" width="808.568" height="3.946"/>
		<rect x="1.179" y="413.814" style="fill:#D1D3D4;" width="808.568" height="3.945"/>
		<rect x="1.179" y="279.434" style="fill:#D1D3D4;" width="808.568" height="3.946"/>
		<rect x="1.179" y="145.037" style="fill:#D1D3D4;" width="808.568" height="3.946"/>
		<rect x="0.598" y="0" style="fill:#D1D3D4;" width="3.98" height="795.912"/>
		<rect x="134.995" y="10.111" style="fill:#D1D3D4;" width="3.945" height="785.801"/>
		<rect x="269.392" y="10.111" style="fill:#D1D3D4;" width="3.946" height="785.801"/>
		<rect x="403.771" y="10.111" style="fill:#D1D3D4;" width="3.997" height="785.801"/>
		<rect x="538.168" y="10.111" style="fill:#D1D3D4;" width="3.945" height="785.801"/>
		<rect x="672.565" y="10.111" style="fill:#D1D3D4;" width="3.945" height="785.801"/>
	</g>
	<g>
		<polygon style="fill:#FC6E51;" points="163.756,382.439 5.619,795.912 245.173,795.912 271.544,657.996 		"/>
		<polygon style="fill:#3BAFDA;" points="403.276,24.629 245.173,795.912 493.762,795.912 535.553,645.085 		"/>
		<polygon style="fill:#FFCE54;" points="648.245,238.29 493.762,795.912 813.621,795.912 		"/>
	</g>
</g>
<g id="Layer_1">
</g>
</svg>
