<?xml version="1.0" encoding="iso-8859-1"?>
<!-- Generator: Adobe Illustrator 17.1.0, SVG Export Plug-In . SVG Version: 6.00 Build 0)  -->
<!DOCTYPE svg PUBLIC "-//W3C//DTD SVG 1.1//EN" "http://www.w3.org/Graphics/SVG/1.1/DTD/svg11.dtd">
<svg version="1.1" xmlns="http://www.w3.org/2000/svg" xmlns:xlink="http://www.w3.org/1999/xlink" x="0px" y="0px"
	 viewBox="0 0 832.755 796.799" style="enable-background:new 0 0 832.755 796.799;" xml:space="preserve">
<g id="graph-33">
	<path style="fill:#D1D3D4;" d="M809.754,149v-3.946H676.536V10.128h-3.963v134.926H542.122V10.128h-3.928v134.926H407.75V10.128
		h-3.962v134.926H273.353V10.128h-3.946v134.926H138.957V10.128h-3.946v134.926H4.576V0H0.615v792.854H0v3.944h809.481v-3.944
		H676.536V686.587h133.219v-3.945H676.536V552.173h133.219v-3.945H676.536V417.777h133.219v-3.946H676.536V283.396h133.219v-3.945
		H676.536V149H809.754z M538.194,149v130.452H407.75V149H538.194z M273.353,548.227V417.777h130.435v130.451H273.353z
		 M403.788,552.173v130.469H273.353V552.173H403.788z M269.408,548.227H138.957V417.777h130.451V548.227z M273.353,413.831V283.396
		h130.435v130.434H273.353z M269.408,413.831H138.957V283.396h130.451V413.831z M135.011,413.831H4.576V283.396h130.435V413.831z
		 M135.011,417.777v130.451H4.576V417.777H135.011z M135.011,552.173v130.469H4.576V552.173H135.011z M138.957,552.173h130.451
		v130.469H138.957V552.173z M269.408,686.587v106.268H138.957V686.587H269.408z M273.353,686.587h130.435v106.268H273.353V686.587z
		 M407.75,686.587h130.444v106.268H407.75V686.587z M407.75,682.642V552.173h130.444v130.469H407.75z M407.75,548.227V417.777
		h130.444v130.451H407.75z M407.75,413.831V283.396h130.444v130.434H407.75z M403.788,149v130.452H273.353V149H403.788z
		 M269.408,149v130.452H138.957V149H269.408z M135.011,149v130.452H4.576V149H135.011z M4.576,686.587h130.435v106.268H4.576
		V686.587z M672.573,792.854H542.122V686.587h130.451V792.854z M672.573,682.642H542.122V552.173h130.451V682.642z M672.573,548.227
		H542.122V417.777h130.451V548.227z M672.573,413.831H542.122V283.396h130.451V413.831z M672.573,279.452H542.122V149h130.451
		V279.452z"/>
	<path style="fill:#3BAFDA;" d="M831.651,358.358l-29.275-31.102l0,0l-7.309-10.982c-1.811-1.827-5.5-3.654-5.5-3.654
		c-5.467,0-5.467,1.827-7.311,3.654l-20.153,21.947l-45.704-54.893c-3.655,0-5.5-1.828-5.5-1.828c-3.655,0-5.499,1.828-7.31,1.828
		l-31.119,42.1l-64.047-67.718c0,0,0-1.828,0-3.656h-3.654l0,0h-1.845l0,0l0,0c0,0-5.5,0-5.5,1.828c0,0,0,0-1.811,1.828
		l-18.309,20.136l-64.047-71.375c-1.811-1.828-1.811-3.655-5.467-3.655l0,0l0,0h-1.844l0,0c0,0-3.654,1.827-5.498,3.655
		l-18.275,21.964l-65.884-73.184c0,0,0,0-3.654,0c0,0,0,0,0-1.828c-1.828-1.828-7.328-1.828-9.155,1.828L284.541,292.5
		l-16.465-21.965c-3.655,0-3.655-1.827-3.655-1.827h-1.828c0,0,0,0-3.671,0l0,0l0,0c-1.827,0-1.827,1.827-1.827,1.827
		l-117.113,139.06l-31.102-43.928c-3.655-1.828-5.516-1.828-5.516-1.828c-5.483,0-7.311,0-10.982,3.655L6.387,535.846
		c0,3.673,0,9.154,5.5,10.981c1.827,1.827,7.311,0,9.138-3.654l80.511-159.196l27.464,40.273c1.828,3.655,5.482,3.655,7.31,3.655
		c3.672,0,5.499,0,7.326-1.828l118.957-139.059l18.292,21.947l0,0l0,0l0,0c0,0,0,0,1.828,0v1.827l0,0l0,0h1.828l0,0l0,0l0,0
		c3.654,0,3.654,0,3.654,0l0,0l0,0l0,0l1.827-1.827l0,0l0,0l0,0l0,0l118.957-139.077l67.695,75.012l5.5,1.828
		c3.654,0,5.498-1.828,5.498-1.828l20.119-21.963L571.84,292.5c3.654,1.827,3.654,3.654,3.654,3.654s0,0,1.811,0l0,0l0,0h1.844l0,0
		l0,0l0,0l0,0c3.655,0,3.655-1.827,3.655-1.827l20.12-21.964l65.892,71.357l5.465,1.827l0,0l0,0c3.656,0,5.5-1.827,5.5-1.827
		l31.118-43.911l45.739,54.876c1.811,1.827,5.465,1.827,5.465,1.827c5.499,0,5.499-1.827,5.499-1.827l20.154-23.774l27.43,32.928
		l0,0l3.654,5.483c1.844,1.844,7.31,1.844,9.154,0C833.495,365.667,833.495,362.013,831.651,358.358z"/>
	<path style="fill:#FC6E51;" d="M831.651,535.846l-31.086-34.773c-3.654,0-3.654,0-3.654,0l-67.737-76.823c0,0,0,0-3.654-1.844
		l-1.81-1.828c0,0,0,0-3.654,0l0,0l-1.846,1.828c-1.81,1.844-1.81,1.844-1.81,1.844l-18.31,21.947l-67.701-73.202
		c-1.845,0-3.655-1.827-3.655-1.827c-3.655,0-5.535,1.827-9.19,1.827l-27.43,42.101L472.985,279.673l0,0
		c0,0-3.655-1.827-3.655-3.655l0,0h-1.81l0,0l0,0c0,0,0,0-3.655,0l0,0c0,1.828-1.845,1.828-1.845,1.828s0,1.827-1.845,1.827
		l-16.43,20.137l-47.609-53.082l0,0l0,0l0,0v-1.828l0,0l0,0c-3.655,0-3.655,0-3.655,0l0,0l0,0h-1.827l0,0l0,0l0,0h-3.654l0,0l0,0
		l0,0c-1.828,0-1.828,0-1.828,0l0,0l0,0v1.828l0,0l0,0l0,0L268.076,385.805L249.75,363.84c0-1.827,0-1.827-3.656-1.827l-1.827-1.828
		l0,0l0,0l0,0c-1.827,0-1.827,0-1.827,0l0,0l0,0c-3.655,0-3.655,1.828-3.655,1.828l-1.827,1.827L121.689,501.072l-31.136-42.066
		c0-3.655-1.827-3.655-5.481-3.655c0,0-5.483,0-5.483,3.655l-71.374,76.84c-1.828,1.844-1.828,7.327,0,9.154
		c3.672,3.654,7.326,3.654,10.982,0l65.874-69.53l29.291,40.24c0,1.844,0,1.844,0,1.844c3.655,3.671,9.154,3.671,12.81,0
		l117.095-137.232l18.326,20.119c0,0,0,0,0,1.828l0,0l0,0h1.828l0,0l0,0l0,0c0,0,0,0,3.655,0l0,0l0,0l0,0h1.827l0,0l0,0h1.827l0,0
		l0,0l0,0c0,0,0,0,0-1.828l0,0l118.923-139.059l45.746,54.893v1.827l5.5,1.828c0,0,0,0,1.846,0l0,0l5.465-1.828v-1.827l18.31-20.119
		l117.094,137.249c0,3.655,5.5,3.655,11,0v-1.827l31.119-42.118l64.013,71.374c0,0,3.689,3.655,7.344,1.828c0,0,1.846,0,5.5-1.828
		l20.119-21.947l21.93,27.446h3.69L818.84,545c1.844,3.654,7.31,3.654,9.154,0C833.495,543.173,833.495,537.689,831.651,535.846z"/>
</g>
<g id="Layer_1">
</g>
</svg>
