<?xml version="1.0" encoding="iso-8859-1"?>
<!-- Generator: Adobe Illustrator 17.1.0, SVG Export Plug-In . SVG Version: 6.00 Build 0)  -->
<!DOCTYPE svg PUBLIC "-//W3C//DTD SVG 1.1//EN" "http://www.w3.org/Graphics/SVG/1.1/DTD/svg11.dtd">
<svg version="1.1" xmlns="http://www.w3.org/2000/svg" xmlns:xlink="http://www.w3.org/1999/xlink" x="0px" y="0px"
	 viewBox="0 0 826.364 826.363" style="enable-background:new 0 0 826.364 826.363;" xml:space="preserve">
<g id="graph-14">
	<path style="fill:#FFCE54;" d="M395.266,227.633V0c-97.3,4.167-189.784,42.475-261.568,108.35l160.972,160.939
		C322.526,246.3,357.23,231.236,395.266,227.633z"/>
	<path style="fill:#FC6E51;" d="M598.731,395.266h227.633c-4.168-97.317-42.477-189.785-108.334-261.552L557.077,294.668
		C580.098,322.525,595.077,357.229,598.731,395.266z"/>
	<path style="fill:#FC6E51;" d="M531.731,269.289L692.702,108.35C620.883,42.475,528.414,4.167,431.098,0v227.633
		C469.133,231.236,503.838,246.3,531.731,269.289z"/>
	<path style="fill:#FFCE54;" d="M269.289,294.668L108.334,133.714C42.442,205.48,4.168,297.948,0,395.266h227.65
		C231.254,357.229,246.3,322.525,269.289,294.668z"/>
	<path style="fill:#48CFAD;" d="M227.65,431.098H0c4.168,97.368,42.442,189.803,108.334,261.57l160.955-160.905
		C246.3,503.839,231.288,469.134,227.65,431.098z"/>
	<path style="fill:#48CFAD;" d="M294.669,557.092L133.697,718.047c71.784,65.857,164.268,104.167,261.568,108.316V598.747
		C357.23,595.144,322.526,580.081,294.669,557.092z"/>
	<path style="fill:#3BAFDA;" d="M557.077,531.763L718.03,692.668c65.857-71.768,104.166-164.202,108.334-261.57H598.731
		C595.077,469.134,580.063,503.839,557.077,531.763z"/>
	<path style="fill:#3BAFDA;" d="M431.098,598.747v227.616c97.316-4.149,189.785-42.459,261.603-108.316L531.731,557.092
		C503.838,580.081,469.133,595.144,431.098,598.747z"/>
</g>
<g id="Layer_1">
</g>
</svg>
