<?xml version="1.0" encoding="iso-8859-1"?>
<!-- Generator: Adobe Illustrator 17.1.0, SVG Export Plug-In . SVG Version: 6.00 Build 0)  -->
<!DOCTYPE svg PUBLIC "-//W3C//DTD SVG 1.1//EN" "http://www.w3.org/Graphics/SVG/1.1/DTD/svg11.dtd">
<svg version="1.1" xmlns="http://www.w3.org/2000/svg" xmlns:xlink="http://www.w3.org/1999/xlink" x="0px" y="0px"
	 viewBox="0 0 826.15 826.364" style="enable-background:new 0 0 826.15 826.364;" xml:space="preserve">
<g id="graph-2">
	<g>
		<path style="fill:#FC6E51;" d="M728.39,400.954h97.761c-1.229-41.794-8.608-82.032-21.384-119.829l-90.827,36.72
			C722.342,344.251,727.261,372.106,728.39,400.954z"/>
		<path style="fill:#48CFAD;" d="M97.795,425.394H0c1.452,50.384,11.904,98.478,29.837,142.747l90.743-36.668
			C107.172,498.493,99.23,462.764,97.795,425.394z"/>
		<path style="fill:#48CFAD;" d="M710.217,519.465l90.554,37.353c15.269-41.109,24.047-85.328,25.38-131.425H728.39
			C727.09,458.254,720.839,489.885,710.217,519.465z"/>
		<path style="fill:#FC6E51;" d="M705.604,294.891l90.726-36.686c-17.183-42.373-41.161-81.229-70.605-115.267l-69.343,69.393
			C676.741,236.959,693.411,264.78,705.604,294.891z"/>
		<path style="fill:#FC6E51;" d="M639.985,194.157l69.24-69.29c-34.876-35.781-76.174-65.295-122.049-86.626l-37.062,90.64
			C583.863,145.208,614.197,167.446,639.985,194.157z"/>
		<path style="fill:#48CFAD;" d="M541.131,701.499l36.175,91.064c47.139-20.408,89.7-49.375,125.772-84.918l-70.674-67.873
			C605.998,665.323,575.152,686.348,541.131,701.499z"/>
		<path style="fill:#48CFAD;" d="M701.027,542.114c-13.151,29.291-30.641,56.225-51.716,79.982l70.708,67.924
			c29.376-32.57,53.63-69.889,71.562-110.606L701.027,542.114z"/>
		<path style="fill:#48CFAD;" d="M130.656,553.745l-91.032,36.807c21.229,44.594,50.195,84.713,85.174,118.77l69.239-69.24
			C168.317,615.196,146.796,586.059,130.656,553.745z"/>
		<path style="fill:#FC6E51;" d="M527.673,119.196l36.993-90.588C522.549,11.989,477.015,2.05,429.373,0.188v97.779
			C463.899,99.727,496.895,107.139,527.673,119.196z"/>
		<path style="fill:#48CFAD;" d="M311.714,711.967l-37.131,90.725c40.888,14.551,84.73,22.783,130.366,23.672v-97.83
			C372.414,727.731,341.107,721.958,311.714,711.967z"/>
		<path style="fill:#48CFAD;" d="M212.278,656.426l-69.445,69.426c32.349,27.977,69.001,51.137,108.983,68.061l37.062-90.654
			C261.057,691.284,235.301,675.485,212.278,656.426z"/>
		<path style="fill:#48CFAD;" d="M429.373,728.329v97.812c43.851-1.707,85.933-10.145,125.251-24.457l-36.14-91.102
			C490.371,720.592,460.483,726.741,429.373,728.329z"/>
		<path style="fill:#48CFAD;" d="M285.907,124.423l-36.122-91.066c-47.054,20.255-89.513,49-125.636,84.286l70.658,67.908
			C221.228,160.204,251.988,139.401,285.907,124.423z"/>
		<path style="fill:#48CFAD;" d="M177.829,203.073l-70.725-67.891c-28.591,31.495-52.297,67.429-70.196,106.609l90.537,37.334
			C140.511,251.339,157.556,225.753,177.829,203.073z"/>
		<path style="fill:#48CFAD;" d="M117.881,301.637l-90.452-37.301C10.965,306.915,1.4,352.893,0,400.954h97.795
			C99.128,366.111,106.114,332.705,117.881,301.637z"/>
		<path style="fill:#48CFAD;" d="M404.95,97.762V0c-46.439,0.872-91.015,9.359-132.45,24.338l36.105,91.084
			C338.887,104.748,371.286,98.616,404.95,97.762z"/>
	</g>
	<g>
		<path style="fill:#FFCE54;" d="M614.845,405.343h62.613c-0.819-26.728-5.533-52.484-13.698-76.669l-58.172,23.501
			C610.985,369.049,614.162,386.897,614.845,405.343z"/>
		<path style="fill:#3BAFDA;" d="M211.288,421.004h-62.595c0.956,32.247,7.634,63.024,19.111,91.375l58.069-23.502
			C217.3,467.766,212.21,444.932,211.288,421.004z"/>
		<path style="fill:#3BAFDA;" d="M603.266,481.192l57.933,23.928c9.77-26.318,15.372-54.636,16.26-84.116h-62.613
			C614.06,442.028,610.028,462.268,603.266,481.192z"/>
		<path style="fill:#FFCE54;" d="M600.295,337.47l58.068-23.467c-10.998-27.123-26.336-51.989-45.19-73.783L568.8,284.644
			C581.815,300.408,592.472,318.205,600.295,337.47z"/>
		<path style="fill:#FFCE54;" d="M558.279,272.995l44.337-44.32c-22.34-22.92-48.743-41.81-78.119-55.456l-23.74,58.001
			C522.378,241.672,541.781,255.916,558.279,272.995z"/>
		<path style="fill:#3BAFDA;" d="M495.052,597.708l23.125,58.273c30.162-13.066,57.421-31.58,80.513-54.346l-45.227-43.432
			C536.555,574.547,516.811,588.006,495.052,597.708z"/>
		<path style="fill:#3BAFDA;" d="M597.355,495.692c-8.436,18.771-19.641,36.004-33.065,51.187l45.227,43.482
			c18.821-20.854,34.328-44.713,45.771-70.793L597.355,495.692z"/>
		<path style="fill:#3BAFDA;" d="M232.329,503.139l-58.274,23.568c13.595,28.523,32.125,54.211,54.517,76.021l44.321-44.34
			C256.428,542.471,242.645,523.823,232.329,503.139z"/>
		<path style="fill:#FFCE54;" d="M486.409,225.037l23.672-57.984c-26.951-10.64-56.089-16.994-86.584-18.189v62.578
			C445.59,212.569,466.7,217.317,486.409,225.037z"/>
		<path style="fill:#3BAFDA;" d="M348.196,604.401l-23.758,58.07c26.183,9.309,54.228,14.568,83.399,15.133v-62.596
			C387.05,614.477,367.017,610.789,348.196,604.401z"/>
		<path style="fill:#3BAFDA;" d="M284.558,568.86l-44.44,44.422c20.699,17.918,44.149,32.725,69.733,43.57l23.741-58.018
			C315.762,591.167,299.28,581.038,284.558,568.86z"/>
		<path style="fill:#3BAFDA;" d="M423.497,614.887v62.58c28.07-1.076,54.987-6.49,80.162-15.645l-23.126-58.293
			C462.532,609.918,443.403,613.864,423.497,614.887z"/>
		<path style="fill:#3BAFDA;" d="M331.696,228.367l-23.142-58.273c-30.127,12.963-57.301,31.358-80.392,53.936l45.209,43.45
			C290.279,251.287,309.989,237.966,331.696,228.367z"/>
		<path style="fill:#3BAFDA;" d="M262.509,278.717l-45.243-43.449c-18.327,20.136-33.493,43.142-44.936,68.232l57.934,23.893
			C238.632,309.596,249.511,293.234,262.509,278.717z"/>
		<path style="fill:#3BAFDA;" d="M224.165,341.791l-57.916-23.86c-10.538,27.242-16.67,56.67-17.557,87.412h62.595
			C212.124,383.055,216.616,361.688,224.165,341.791z"/>
		<path style="fill:#3BAFDA;" d="M407.836,211.306v-62.562c-29.684,0.546-58.223,5.994-84.731,15.575l23.092,58.292
			C365.6,215.796,386.316,211.868,407.836,211.306z"/>
	</g>
</g>
<g id="Layer_1">
</g>
</svg>
