<?xml version="1.0" encoding="iso-8859-1"?>
<!-- Generator: Adobe Illustrator 17.1.0, SVG Export Plug-In . SVG Version: 6.00 Build 0)  -->
<!DOCTYPE svg PUBLIC "-//W3C//DTD SVG 1.1//EN" "http://www.w3.org/Graphics/SVG/1.1/DTD/svg11.dtd">
<svg version="1.1" xmlns="http://www.w3.org/2000/svg" xmlns:xlink="http://www.w3.org/1999/xlink" x="0px" y="0px"
	 viewBox="0 0 826.364 822.008" style="enable-background:new 0 0 826.364 822.008;" xml:space="preserve">
<g id="graph-27">
	<path style="fill:#3BAFDA;" d="M60.546,0H0v822.008h4.424l0,0h821.94v-60.615H60.546V0z"/>
	<rect x="152.654" y="300.339" style="fill:#FC6E51;" width="111.203" height="54.158"/>
	<rect x="152.654" y="383.002" style="fill:#FC6E51;" width="111.203" height="54.176"/>
	<rect x="152.654" y="465.631" style="fill:#FC6E51;" width="111.203" height="54.211"/>
	<rect x="152.654" y="548.331" style="fill:#FC6E51;" width="111.203" height="54.123"/>
	<rect x="152.654" y="630.909" style="fill:#FC6E51;" width="111.203" height="54.176"/>
	<rect x="315.096" y="135.045" style="fill:#48CFAD;" width="111.185" height="54.193"/>
	<rect x="315.096" y="217.71" style="fill:#48CFAD;" width="111.185" height="54.107"/>
	<rect x="315.096" y="300.339" style="fill:#48CFAD;" width="111.185" height="54.158"/>
	<rect x="315.096" y="383.002" style="fill:#48CFAD;" width="111.185" height="54.176"/>
	<rect x="315.096" y="465.631" style="fill:#48CFAD;" width="111.185" height="54.211"/>
	<rect x="315.096" y="548.331" style="fill:#48CFAD;" width="111.185" height="54.123"/>
	<rect x="315.096" y="630.909" style="fill:#48CFAD;" width="111.185" height="54.176"/>
	<rect x="477.553" y="383.002" style="fill:#FFCE54;" width="111.185" height="54.176"/>
	<rect x="477.553" y="465.631" style="fill:#FFCE54;" width="111.185" height="54.211"/>
	<rect x="477.553" y="548.331" style="fill:#FFCE54;" width="111.185" height="54.123"/>
	<rect x="477.553" y="630.909" style="fill:#FFCE54;" width="111.185" height="54.176"/>
	<rect x="639.977" y="548.331" style="fill:#3BAFDA;" width="111.221" height="54.123"/>
	<rect x="639.977" y="630.909" style="fill:#3BAFDA;" width="111.221" height="54.176"/>
</g>
<g id="Layer_1">
</g>
</svg>
