<?xml version="1.0" encoding="iso-8859-1"?>
<!-- Generator: Adobe Illustrator 17.1.0, SVG Export Plug-In . SVG Version: 6.00 Build 0)  -->
<!DOCTYPE svg PUBLIC "-//W3C//DTD SVG 1.1//EN" "http://www.w3.org/Graphics/SVG/1.1/DTD/svg11.dtd">
<svg version="1.1" xmlns="http://www.w3.org/2000/svg" xmlns:xlink="http://www.w3.org/1999/xlink" x="0px" y="0px"
	 viewBox="0 0 918.189 669.27" style="enable-background:new 0 0 918.189 669.27;" xml:space="preserve">
<g id="graph-6">
	<path style="fill:#3BAFDA;" d="M354.36,467.699c6.815-4.852,15.183-7.822,24.149-7.822c17.644,0,32.639,10.793,38.907,26.046
		h123.902c6.968-13.288,20.837-22.459,36.892-22.459c16.191,0,29.924,9.171,37.027,22.459H830.71
		c7.515-11.222,20.393-18.77,35.047-18.77c23.159,0,42.016,18.854,42.016,42.049c0,23.262-18.856,42.032-42.016,42.032
		c-20.052,0-36.722-14.006-40.957-32.794H617.972c-5.432,16.808-21.077,29.035-39.762,29.035c-18.685,0-34.227-12.227-39.692-29.035
		H417.246c-6.456,15.014-21.383,25.535-38.736,25.535c-23.142,0-41.929-18.789-41.929-42.05c0-1.98,0.291-3.859,0.53-5.841
		L141.108,354.531c-6.166,3.587-13.39,5.91-21.195,5.91c-23.143,0-42.049-18.855-42.049-42.032
		c0-23.262,18.907-42.032,42.049-42.032c23.279,0,42.032,18.77,42.032,42.032c0,3.228-0.427,6.371-1.145,9.428L354.36,467.699
		L354.36,467.699z M366.316,226.25c6.918-4.852,15.167-7.822,24.235-7.822c17.541,0,32.639,10.776,38.923,26.062H553.24
		c7.105-13.305,20.905-22.477,36.994-22.477c8.743,0,16.875,2.698,23.568,7.293l199.589-127.754l-0.103-0.972
		c0-23.264,18.787-42.05,41.946-42.05c23.297,0,42.051,18.786,42.051,42.05c0,23.176-18.754,42.049-42.051,42.049
		c-10.69,0-20.289-4.151-27.771-10.795L631.566,257.232c0.374,2.254,0.717,4.491,0.717,6.849c0,23.245-18.787,42.015-42.049,42.015
		c-18.651,0-34.297-12.314-39.795-29.086H429.184c-6.353,14.979-21.263,25.5-38.633,25.5c-23.159,0-42.032-18.855-42.032-42.049
		c0-1.965,0.359-3.844,0.649-5.757L130.058,96.362c-4.372,1.605-9.154,2.596-14.09,2.596c-23.245,0-42.049-18.839-42.049-42.032
		c0-23.193,18.804-42.032,42.049-42.032c23.16,0,42.032,18.839,42.032,42.032c0,5.756-1.144,11.323-3.296,16.345L366.316,226.25
		L366.316,226.25z M909.48,669.27H33.15H0v-34.587V5.363h33.15v629.319h876.33V669.27L909.48,669.27z"/>
	<path style="fill:#FFCE54;" d="M791.769,99.812c0,33.083,26.815,59.897,59.881,59.897c33.03,0,59.879-26.814,59.879-59.897
		c0-33.082-26.849-59.863-59.879-59.863C818.584,39.948,791.769,66.73,791.769,99.812z"/>
	<path style="fill:#FFCE54;" d="M525.606,266.147c0,33.082,26.815,59.881,59.879,59.881c33.065,0,59.914-26.799,59.914-59.881
		c0-33.065-26.849-59.897-59.914-59.897C552.421,206.25,525.606,233.081,525.606,266.147z"/>
	<path style="fill:#FFCE54;" d="M325.992,246.182c0,33.082,26.832,59.896,59.897,59.896c33.065,0,59.897-26.814,59.897-59.896
		c0-33.066-26.832-59.881-59.897-59.881C352.824,186.301,325.992,213.116,325.992,246.182z"/>
	<path style="fill:#FFCE54;" d="M53.202,59.881c0,33.082,26.815,59.896,59.862,59.896c33.1,0,59.897-26.814,59.897-59.896
		C172.961,26.815,146.164,0,113.064,0C80.017,0,53.202,26.815,53.202,59.881z"/>
	<path style="fill:#48CFAD;" d="M66.506,326.027c0,33.065,26.832,59.878,59.897,59.878c33.066,0,59.862-26.812,59.862-59.878
		c0-33.066-26.796-59.881-59.862-59.881C93.338,266.147,66.506,292.961,66.506,326.027z"/>
	<path style="fill:#FC6E51;" d="M319.331,505.684c0,33.066,26.815,59.88,59.897,59.88c33.065,0,59.896-26.813,59.896-59.88
		c0-33.065-26.832-59.88-59.896-59.88C346.146,445.804,319.331,472.618,319.331,505.684z"/>
	<path style="fill:#FC6E51;" d="M525.606,499.04c0,33.064,26.815,59.879,59.879,59.879c33.065,0,59.914-26.815,59.914-59.879
		c0-33.082-26.849-59.881-59.914-59.881C552.421,439.159,525.606,465.958,525.606,499.04z"/>
	<path style="fill:#48CFAD;" d="M798.43,499.04c0,33.064,26.78,59.879,59.848,59.879c33.098,0,59.912-26.815,59.912-59.879
		c0-33.082-26.814-59.881-59.912-59.881C825.21,439.159,798.43,465.958,798.43,499.04z"/>
</g>
<g id="Layer_1">
</g>
</svg>
