<?xml version="1.0" encoding="iso-8859-1"?>
<!-- Generator: Adobe Illustrator 17.1.0, SVG Export Plug-In . SVG Version: 6.00 Build 0)  -->
<!DOCTYPE svg PUBLIC "-//W3C//DTD SVG 1.1//EN" "http://www.w3.org/Graphics/SVG/1.1/DTD/svg11.dtd">
<svg version="1.1" xmlns="http://www.w3.org/2000/svg" xmlns:xlink="http://www.w3.org/1999/xlink" x="0px" y="0px"
	 viewBox="0 0 790.873 826.375" style="enable-background:new 0 0 790.873 826.375;" xml:space="preserve">
<g id="graph-17">
	<path style="fill:#48CFAD;" d="M757.33,593.162c64.014-145.669,36.412-321.875-82.869-441.157
		C598.425,76.002,499.297,37.232,399.648,35.696L394.404,0l-96.498,108.693l123.645,76.395l-4.85-33.032
		c64.252,5.312,126.968,32.502,176.087,81.622c82.356,82.356,103.125,203.004,62.306,304.677l72.928-40.257L757.33,593.162z"/>
	<path style="fill:#FC6E51;" d="M354.234,36.549C196.079,53.953,57.276,165.959,13.638,328.896
		C-14.201,432.737,1.837,537.979,50.291,625.066l-28.283,22.341l142.355,29.257l4.372-145.26l-26.183,20.7
		c-27.515-58.275-35.337-126.199-17.353-193.304c30.145-112.518,124.252-190.827,232.688-206.318l-71.306-43.022L354.234,36.549z"/>
	<path style="fill:#FFCE54;" d="M73.758,663.922c94.158,128.283,260.545,192.467,423.489,148.811
		c103.808-27.822,186.949-94.345,238.119-179.81l33.509,13.269l-45.841-137.88l-127.992,68.863l31.018,12.314
		c-36.687,52.964-91.613,93.716-158.702,111.7c-112.525,30.144-227.384-12.212-295.035-98.395l-1.588,83.278L73.758,663.922z"/>
</g>
<g id="Layer_1">
</g>
</svg>
