<?xml version="1.0" encoding="iso-8859-1"?>
<!-- Generator: Adobe Illustrator 17.1.0, SVG Export Plug-In . SVG Version: 6.00 Build 0)  -->
<!DOCTYPE svg PUBLIC "-//W3C//DTD SVG 1.1//EN" "http://www.w3.org/Graphics/SVG/1.1/DTD/svg11.dtd">
<svg version="1.1" xmlns="http://www.w3.org/2000/svg" xmlns:xlink="http://www.w3.org/1999/xlink" x="0px" y="0px"
	 viewBox="0 0 826.355 826.363" style="enable-background:new 0 0 826.355 826.363;" xml:space="preserve">
<g id="graph-28">
	<path style="fill:#48CFAD;" d="M395.249,227.633V0c-97.3,4.184-189.768,42.493-261.569,108.35l160.956,160.955
		C322.508,246.3,357.23,231.253,395.249,227.633z"/>
	<path style="fill:#3BAFDA;" d="M598.723,395.283h227.633c-4.168-97.335-42.493-189.803-108.316-261.569l-160.99,160.954
		C580.071,322.542,595.067,357.23,598.723,395.283z"/>
	<path style="fill:#3BAFDA;" d="M531.703,269.306L692.658,108.35C620.857,42.493,528.39,4.184,431.072,0v227.633
		C469.125,231.253,503.83,246.3,531.703,269.306z"/>
	<path style="fill:#48CFAD;" d="M269.289,294.668L108.317,133.714C42.425,205.48,4.15,297.948,0,395.283h227.632
		C231.253,357.23,246.3,322.542,269.289,294.668z"/>
	<path style="fill:#FC6E51;" d="M227.632,431.114H0c4.15,97.353,42.425,189.786,108.317,261.57l160.972-160.922
		C246.3,503.855,231.271,469.15,227.632,431.114z"/>
	<path style="fill:#FC6E51;" d="M294.635,557.108L133.679,718.047c71.801,65.857,164.269,104.166,261.569,108.316v-227.6
		C357.23,595.128,322.508,580.063,294.635,557.108z"/>
	<path style="fill:#FFCE54;" d="M557.049,531.763l160.99,160.922c65.823-71.784,104.148-164.217,108.316-261.57H598.723
		C595.067,469.15,580.071,503.855,557.049,531.763z"/>
	<path style="fill:#FFCE54;" d="M431.072,598.764v227.6c97.317-4.15,189.785-42.459,261.586-108.316L531.703,557.108
		C503.83,580.063,469.125,595.128,431.072,598.764z"/>
</g>
<g id="Layer_1">
</g>
</svg>
