<?xml version="1.0" encoding="iso-8859-1"?>
<!-- Generator: Adobe Illustrator 17.1.0, SVG Export Plug-In . SVG Version: 6.00 Build 0)  -->
<!DOCTYPE svg PUBLIC "-//W3C//DTD SVG 1.1//EN" "http://www.w3.org/Graphics/SVG/1.1/DTD/svg11.dtd">
<svg version="1.1" xmlns="http://www.w3.org/2000/svg" xmlns:xlink="http://www.w3.org/1999/xlink" x="0px" y="0px"
	 viewBox="0 0 836.381 826.434" style="enable-background:new 0 0 836.381 826.434;" xml:space="preserve">
<g id="graph-20">
	<g>
		<rect x="1.503" y="103.502" style="fill:#D1D3D4;" width="826.338" height="2.698"/>
		<rect x="1.503" y="0" style="fill:#D1D3D4;" width="826.338" height="2.683"/>
		<rect x="1.503" y="207.053" style="fill:#D1D3D4;" width="826.338" height="2.699"/>
		<rect x="1.503" y="307.019" style="fill:#D1D3D4;" width="826.373" height="2.681"/>
		<rect x="1.503" y="410.518" style="fill:#D1D3D4;" width="826.338" height="2.699"/>
		<rect x="1.503" y="515.828" style="fill:#D1D3D4;" width="826.373" height="2.701"/>
		<rect x="1.503" y="619.382" style="fill:#D1D3D4;" width="826.373" height="2.681"/>
		<rect x="1.503" y="719.33" style="fill:#D1D3D4;" width="826.373" height="2.697"/>
	</g>
	<polygon style="fill:#FFCE54;" points="827.876,731.062 827.876,527.562 777.083,624.83 601.132,321.723 444.855,528.451 
		337.726,195.73 232.347,468.093 94.842,426.709 1.503,373.337 1.503,734.614 	"/>
	<polygon style="fill:#FC6E51;" points="827.876,822.88 827.876,619.382 777.083,716.648 601.132,413.541 444.855,620.269 
		337.726,452.807 232.347,559.911 94.842,518.529 1.503,410.057 1.503,826.434 	"/>
	<polygon style="fill:#48CFAD;" points="787.841,392.995 607.894,181.981 484.617,342.252 320.391,98.976 196.02,312.176 0,279.35 
		3.023,261.229 186.54,291.987 319.264,64.475 485.572,310.878 607.178,152.826 782.24,358.085 819.37,266.83 836.381,273.748 
		787.841,392.995 	"/>
</g>
<g id="Layer_1">
</g>
</svg>
