<?xml version="1.0" encoding="iso-8859-1"?>
<!-- Generator: Adobe Illustrator 17.1.0, SVG Export Plug-In . SVG Version: 6.00 Build 0)  -->
<!DOCTYPE svg PUBLIC "-//W3C//DTD SVG 1.1//EN" "http://www.w3.org/Graphics/SVG/1.1/DTD/svg11.dtd">
<svg version="1.1" xmlns="http://www.w3.org/2000/svg" xmlns:xlink="http://www.w3.org/1999/xlink" x="0px" y="0px"
	 viewBox="0 0 919.606 697.808" style="enable-background:new 0 0 919.606 697.808;" xml:space="preserve">
<g id="graph-8">
	<polygon style="fill:#3BAFDA;" points="128.965,626.622 128.965,572.037 262.559,482.404 262.559,626.622 128.965,626.622 	"/>
	<polygon style="fill:#48CFAD;" points="314.497,626.622 314.497,460.783 448.092,357.607 448.092,626.622 314.497,626.622 	"/>
	<polygon style="fill:#FFCE54;" points="500.039,626.622 500.039,318.375 633.7,215.216 633.7,626.622 500.039,626.622 	"/>
	<polygon style="fill:#FC6E51;" points="685.657,626.622 685.657,173.628 819.248,70.384 819.248,626.622 685.657,626.622 	"/>
	<polygon style="fill:#D1D3D4;" points="0,697.808 0,662.847 885.995,662.847 885.995,26.695 919.606,26.695 919.606,662.847 
		919.606,697.808 885.995,697.808 0,697.808 	"/>
	<polygon style="fill:#3BAFDA;" points="124.695,500.747 124.695,456.974 673.87,54.654 634.623,26.695 771.461,0 703.725,121.963 
		691.256,83.552 124.695,500.747 	"/>
</g>
<g id="Layer_1">
</g>
</svg>
