<?xml version="1.0" encoding="iso-8859-1"?>
<!-- Generator: Adobe Illustrator 17.1.0, SVG Export Plug-In . SVG Version: 6.00 Build 0)  -->
<!DOCTYPE svg PUBLIC "-//W3C//DTD SVG 1.1//EN" "http://www.w3.org/Graphics/SVG/1.1/DTD/svg11.dtd">
<svg version="1.1" xmlns="http://www.w3.org/2000/svg" xmlns:xlink="http://www.w3.org/1999/xlink" x="0px" y="0px"
	 viewBox="0 0 689.959 918.182" style="enable-background:new 0 0 689.959 918.182;" xml:space="preserve">
<g id="graph-32">
	<g>
		<g>
			<rect x="0" y="800.575" style="fill:#FFCE54;" width="87.685" height="64.507"/>
			<rect x="150.536" y="691.506" style="fill:#FFCE54;" width="87.703" height="173.576"/>
			<rect x="301.09" y="739.157" style="fill:#FFCE54;" width="87.693" height="125.925"/>
			<rect x="451.67" y="606.11" style="fill:#FFCE54;" width="87.719" height="258.972"/>
			<rect x="602.24" y="644.077" style="fill:#FFCE54;" width="87.719" height="221.005"/>
		</g>
		<g>
			<rect x="0" y="849.865" style="fill:#FC6E51;" width="87.685" height="15.217"/>
			<rect x="150.536" y="824.194" style="fill:#FC6E51;" width="87.703" height="40.888"/>
			<rect x="301.09" y="835.433" style="fill:#FC6E51;" width="87.693" height="29.649"/>
			<rect x="451.67" y="804.093" style="fill:#FC6E51;" width="87.719" height="60.989"/>
			<rect x="602.24" y="813.026" style="fill:#FC6E51;" width="87.719" height="52.056"/>
		</g>
		<rect x="0" y="774.308" style="fill:#3BAFDA;" width="87.685" height="26.268"/>
		<rect x="150.536" y="609.781" style="fill:#3BAFDA;" width="87.703" height="81.725"/>
		<rect x="301.09" y="722.402" style="fill:#3BAFDA;" width="87.693" height="16.755"/>
		<rect x="451.67" y="567.271" style="fill:#3BAFDA;" width="87.719" height="38.84"/>
		<rect x="602.24" y="543.735" style="fill:#3BAFDA;" width="87.719" height="100.342"/>
		<rect y="894.306" style="fill:#D1D3D4;" width="689.959" height="23.876"/>
	</g>
	<g>
		<path style="fill:#FFCE54;" d="M344.95,236.564L196.07,420.407C94.551,338.204,78.854,189.256,161.074,87.736
			C207.292,30.64,271.508,0,344.95,0V236.564z"/>
		<path style="fill:#FC6E51;" d="M344.95,236.564L324.336,472.26c-48.83-4.27-90.179-20.974-128.266-51.852L344.95,236.564z"/>
		<path style="fill:#3BAFDA;" d="M344.95,236.564l210.801-107.393c59.3,116.429,13.014,258.888-103.433,318.221
			c-41.16,20.974-81.912,28.881-127.983,24.868L344.95,236.564z"/>
		<path style="fill:#48CFAD;" d="M344.95,236.564V0c92.509,0,168.786,46.798,210.801,129.171L344.95,236.564z"/>
	</g>
</g>
<g id="Layer_1">
</g>
</svg>
