<?xml version="1.0" encoding="iso-8859-1"?>
<!-- Generator: Adobe Illustrator 17.1.0, SVG Export Plug-In . SVG Version: 6.00 Build 0)  -->
<!DOCTYPE svg PUBLIC "-//W3C//DTD SVG 1.1//EN" "http://www.w3.org/Graphics/SVG/1.1/DTD/svg11.dtd">
<svg version="1.1" xmlns="http://www.w3.org/2000/svg" xmlns:xlink="http://www.w3.org/1999/xlink" x="0px" y="0px"
	 viewBox="0 0 826.372 783.016" style="enable-background:new 0 0 826.372 783.016;" xml:space="preserve">
<g id="graph-11">
	<path style="fill:#3BAFDA;" d="M826.365,217.777c0.341,15.832-10.762,22.562-24.663,14.944l-44.44-24.372L576.375,540.063H406.606
		L250.724,728.379H0V664.28h220.579l155.882-188.316h161.878l162.766-298.461l-44.8-24.577
		c-13.902-7.634-14.192-20.597-0.631-28.846L797.5,38.068c13.544-8.231,24.919-1.997,25.244,13.869L826.365,217.777z"/>
	<g>
		<path style="fill:#FFCE54;" d="M767.594,0h-92.997c-8.557,0-15.49,6.934-15.49,15.508v81.52L783.135,21.81v-6.302
			C783.135,6.934,776.167,0,767.594,0z"/>
		<path style="fill:#FFCE54;" d="M659.107,432.993v334.531c0,8.557,6.934,15.491,15.49,15.491h92.997
			c8.573,0,15.541-6.935,15.541-15.491V246.88l-17.352-9.496L659.107,432.993z"/>
	</g>
	<path style="fill:#48CFAD;" d="M438.05,390.244h-92.998c-8.557,0-15.491,6.951-15.491,15.508v93.354l36.857-44.507h87.14v-48.847
		C453.558,397.195,446.624,390.244,438.05,390.244z"/>
	<path style="fill:#48CFAD;" d="M329.561,666.604v100.92c0,8.557,6.934,15.491,15.491,15.491h92.998
		c8.573,0,15.508-6.935,15.508-15.491V561.412H416.65L329.561,666.604z"/>
	<path style="fill:#FC6E51;" d="M612.856,294.72c-2.716-2.322-6.165-3.775-10.008-3.775h-92.997
		c-8.574,0-15.542,6.935-15.542,15.509v148.146h31.358L612.856,294.72z"/>
	<path style="fill:#FC6E51;" d="M589.081,561.412h-94.772v206.112c0,8.557,6.968,15.491,15.542,15.491h92.997
		c8.538,0,15.489-6.935,15.489-15.491V507.748L589.081,561.412z"/>
	<path style="fill:#FC6E51;" d="M108.538,588.876H15.491C6.934,588.876,0,595.81,0,604.384v38.531h124.03v-38.531
		C124.03,595.81,117.078,588.876,108.538,588.876z"/>
	<path style="fill:#FC6E51;" d="M0,767.524c0,8.557,6.934,15.491,15.491,15.491h93.047c8.539,0,15.492-6.935,15.492-15.491v-17.797
		H0V767.524z"/>
	<path style="fill:#FFCE54;" d="M164.781,749.727v17.797c0,8.557,6.951,15.491,15.491,15.491h92.997
		c8.59,0,15.524-6.935,15.524-15.491v-51.648l-28.01,33.852H164.781z"/>
	<path style="fill:#FFCE54;" d="M273.268,547.783h-92.997c-8.54,0-15.491,6.968-15.491,15.508v79.624h45.755l74.345-89.821
		C282.064,549.849,277.931,547.783,273.268,547.783z"/>
</g>
<g id="Layer_1">
</g>
</svg>
