<?xml version="1.0" encoding="iso-8859-1"?>
<!-- Generator: Adobe Illustrator 17.1.0, SVG Export Plug-In . SVG Version: 6.00 Build 0)  -->
<!DOCTYPE svg PUBLIC "-//W3C//DTD SVG 1.1//EN" "http://www.w3.org/Graphics/SVG/1.1/DTD/svg11.dtd">
<svg version="1.1" xmlns="http://www.w3.org/2000/svg" xmlns:xlink="http://www.w3.org/1999/xlink" x="0px" y="0px"
	 viewBox="0 0 918.182 632.326" style="enable-background:new 0 0 918.182 632.326;" xml:space="preserve">
<g id="graph-24">
	<path style="fill:#D1D3D4;" d="M918.182,622.728l-14.738-9.651v6.679h-6.524v-85.874h17.711v-5.056h-17.711v-93.749h17.711v-5.055
		h-17.711v-93.73h17.711v-5.056h-17.711v-93.765h17.711v-5.056h-17.711v-91.203h17.711v-5.056h-17.711v-93.73h17.711v-5.089h-17.711
		V9.478h-5.09v27.858h-99.641V9.478h-5.056v27.858H682.438V9.478h-5.09v27.858H570.961V9.496h-5.056v27.84h-97.984V9.478h-5.055
		v27.858H351.389V9.478h-5.055v27.858H241.639V9.478h-5.091v27.858H125.071V9.478h-5.056v27.858H12.775v5.089h107.24v93.73H12.775
		v5.056h107.24v91.203H12.775v5.056h107.24v93.765H12.775v5.056h107.24v93.73H12.775v5.055h107.24v93.749H12.775v5.056h107.24
		v85.857H11.922V14.774h7.344L9.615,0L0,14.774h7.651v609.27h112.364v0.187h5.056v-0.187h111.477v0.222h5.091v-0.222h104.695v0.204
		h5.055v-0.204h111.477v0.204h5.055v-0.204h97.984v0.204h5.056v-0.204h106.387v0.204h5.09v-0.204h104.695v0.204h5.056v-0.204h99.641
		v0.204h5.09v-0.204h6.524v8.282L918.182,622.728z M891.829,528.826h-99.641v-93.749h99.641V528.826z M565.905,331.236h-97.984
		v-93.765h97.984V331.236z M570.961,237.471h106.387v93.765H570.961V237.471z M462.866,331.236H351.389v-93.765h111.477V331.236z
		 M462.866,336.292v93.73H351.389v-93.73H462.866z M467.921,336.292h97.984v93.73h-97.984V336.292z M570.961,336.292h106.387v93.73
		H570.961V336.292z M682.438,336.292h104.695v93.73H682.438V336.292z M682.438,331.236v-93.765h104.695v93.765H682.438z
		 M682.438,232.415v-91.203h104.695v91.203H682.438z M677.348,232.415H570.961v-91.203h106.387V232.415z M565.905,232.415h-97.984
		v-91.203h97.984V232.415z M462.866,232.415H351.389v-91.203h111.477V232.415z M346.334,232.415H241.639v-91.203h104.695V232.415z
		 M346.334,237.471v93.765H241.639v-93.765H346.334z M346.334,336.292v93.73H241.639v-93.73H346.334z M346.334,435.077v93.749
		H241.639v-93.749H346.334z M351.389,435.077h111.477v93.749H351.389V435.077z M467.921,435.077h97.984v93.749h-97.984V435.077z
		 M570.961,435.077h106.387v93.749H570.961V435.077z M682.438,435.077h104.695v93.749H682.438V435.077z M891.829,430.022h-99.641
		v-93.73h99.641V430.022z M891.829,331.236h-99.641v-93.765h99.641V331.236z M891.829,232.415h-99.641v-91.203h99.641V232.415z
		 M891.829,42.425v93.73h-99.641v-93.73H891.829z M787.133,42.425v93.73H682.438v-93.73H787.133z M677.348,42.425v93.73H570.961
		v-93.73H677.348z M565.905,42.425v93.73h-97.984v-93.73H565.905z M462.866,42.425v93.73H351.389v-93.73H462.866z M346.334,42.425
		v93.73H241.639v-93.73H346.334z M125.071,42.425h111.477v93.73H125.071V42.425z M125.071,141.212h111.477v91.203H125.071V141.212z
		 M125.071,237.471h111.477v93.765H125.071V237.471z M125.071,336.292h111.477v93.73H125.071V336.292z M125.071,435.077h111.477
		v93.749H125.071V435.077z M125.071,619.739v-85.857h111.477v85.857H125.071z M241.639,619.739v-85.857h104.695v85.857H241.639z
		 M351.389,619.739v-85.857h111.477v85.857H351.389z M467.921,619.739v-85.857h97.984v85.874L467.921,619.739z M570.961,619.756
		v-85.874h106.387v85.874H570.961z M682.438,619.756v-85.874h104.695v85.874H682.438z M792.188,619.756v-85.874h99.641v85.874
		H792.188z"/>
	<g>
		<polygon style="fill:#FC6E51;" points="11.922,599.415 11.922,254.293 122.561,311.714 239.093,114.124 348.845,213.765 
			463.685,117.523 566.726,212.073 678.202,117.506 789.643,212.073 894.373,211.646 894.373,603.89 		"/>
		<polygon style="fill:#E9573F;" points="235.729,119.829 124.252,308.845 124.252,599.978 235.729,600.559 		"/>
		<polygon style="fill:#E9573F;" points="678.202,117.506 570.107,209.222 570.107,602.233 678.202,602.796 		"/>
		<polygon style="fill:#E9573F;" points="791.368,212.073 791.368,603.377 894.373,603.89 894.373,211.646 		"/>
		<polygon style="fill:#E9573F;" points="461.994,118.94 348.845,213.765 348.845,601.104 461.994,601.704 		"/>
	</g>
	<g>
		<polygon style="fill:#48CFAD;" points="11.922,619.739 12.775,331.236 122.953,358.665 239.52,231.988 347.153,334.601 
			464.983,135.729 568.843,333.353 679.038,268.726 786.706,332.056 894.373,231.988 894.373,618.339 		"/>
		<polygon style="fill:#37BC9B;" points="238.239,233.388 122.953,358.665 122.953,619.585 238.239,619.38 		"/>
		<polygon style="fill:#37BC9B;" points="463.685,137.881 350.962,328.179 350.962,619.209 463.685,619.022 		"/>
		<polygon style="fill:#37BC9B;" points="679.038,268.726 570.107,332.602 570.107,618.851 679.038,618.68 		"/>
		<polygon style="fill:#37BC9B;" points="791.762,327.359 791.762,618.509 894.373,618.339 894.373,231.988 		"/>
	</g>
	<g>
		<polygon style="fill:#FFCE54;" points="11.922,619.739 11.922,430.876 121.707,473.934 240.783,332.056 349.698,432.123 
			464.983,334.601 568.416,433.422 680.284,429.612 791.762,480.27 894.373,332.056 894.373,618.339 		"/>
		<polygon style="fill:#F6BB42;" points="240.783,332.056 122.561,472.925 122.561,619.585 240.783,619.38 		"/>
		<polygon style="fill:#F6BB42;" points="681.583,430.193 680.284,429.612 570.107,433.353 570.107,618.851 681.583,618.663 		"/>
		<polygon style="fill:#F6BB42;" points="793.043,478.425 793.043,618.509 894.373,618.339 894.373,332.056 		"/>
		<polygon style="fill:#F6BB42;" points="463.685,335.676 350.536,431.406 350.536,619.209 463.685,619.022 		"/>
	</g>
</g>
<g id="Layer_1">
</g>
</svg>
