<?xml version="1.0" encoding="iso-8859-1"?>
<!-- Generator: Adobe Illustrator 17.1.0, SVG Export Plug-In . SVG Version: 6.00 Build 0)  -->
<!DOCTYPE svg PUBLIC "-//W3C//DTD SVG 1.1//EN" "http://www.w3.org/Graphics/SVG/1.1/DTD/svg11.dtd">
<svg version="1.1" xmlns="http://www.w3.org/2000/svg" xmlns:xlink="http://www.w3.org/1999/xlink" x="0px" y="0px"
	 viewBox="0 0 731.232 826.363" style="enable-background:new 0 0 731.232 826.363;" xml:space="preserve">
<g id="graph-26">
	<g>
		<path style="fill:#3BAFDA;" d="M679.31,229.801c-28.624,0-51.854-5.294-51.854-11.869v591.097c0,9.6,23.229,17.335,51.854,17.335
			c28.676,0,51.922-7.735,51.922-17.335V217.932C731.232,224.507,707.986,229.801,679.31,229.801z"/>
		<path style="fill:#89CFE9;" d="M679.31,206.044c-28.624,0-51.854,5.312-51.854,11.888c0,6.575,23.229,11.869,51.854,11.869
			c28.676,0,51.922-5.294,51.922-11.869C731.232,211.356,707.986,206.044,679.31,206.044z"/>
		<path style="opacity:0.6;fill:#3BAFDA;" d="M627.457,11.904v206.027c0,6.575,23.229,11.869,51.854,11.869
			c28.676,0,51.922-5.294,51.922-11.869V11.904H627.457z"/>
		<path style="fill:#B1DFF0;" d="M731.232,11.904C731.232,5.329,707.986,0,679.31,0c-28.624,0-51.854,5.329-51.854,11.904
			c0,6.558,23.229,11.87,51.854,11.87C707.986,23.774,731.232,18.462,731.232,11.904z"/>
	</g>
	<g>
		<path style="fill:#FFCE54;" d="M476.051,229.801c-28.676,0-51.905-5.294-51.905-11.869v591.097c0,9.6,23.23,17.335,51.905,17.335
			c28.659,0,51.903-7.735,51.903-17.335V217.932C527.954,224.507,504.71,229.801,476.051,229.801z"/>
		<path style="fill:#FFE298;" d="M476.051,206.044c-28.676,0-51.905,5.312-51.905,11.888c0,6.575,23.23,11.869,51.905,11.869
			c28.659,0,51.903-5.294,51.903-11.869C527.954,211.356,504.71,206.044,476.051,206.044z"/>
		<path style="opacity:0.6;fill:#FFCE54;" d="M424.145,11.904v206.027c0,6.575,23.23,11.869,51.905,11.869
			c28.659,0,51.903-5.294,51.903-11.869V11.904H424.145z"/>
		<path style="fill:#FFEBBB;" d="M527.954,11.904C527.954,5.329,504.71,0,476.051,0c-28.676,0-51.905,5.329-51.905,11.904
			c0,6.558,23.23,11.87,51.905,11.87C504.71,23.774,527.954,18.462,527.954,11.904z"/>
	</g>
	<g>
		<path style="fill:#FC6E51;" d="M263.978,229.801c-28.677,0-51.922-5.294-51.922-11.869v591.097c0,9.6,23.245,17.335,51.922,17.335
			c28.658,0,51.904-7.735,51.904-17.335V217.932C315.882,224.507,292.636,229.801,263.978,229.801z"/>
		<path style="fill:#FDA897;" d="M263.978,206.044c-28.677,0-51.922,5.312-51.922,11.888c0,6.575,23.245,11.869,51.922,11.869
			c28.658,0,51.904-5.294,51.904-11.869C315.882,211.356,292.636,206.044,263.978,206.044z"/>
		<path style="opacity:0.6;fill:#FC6E51;" d="M212.056,11.904v206.027c0,6.575,23.245,11.869,51.922,11.869
			c28.658,0,51.904-5.294,51.904-11.869V11.904H212.056z"/>
		<path style="fill:#FEC5B9;" d="M315.882,11.904C315.882,5.329,292.636,0,263.978,0c-28.677,0-51.922,5.329-51.922,11.904
			c0,6.558,23.245,11.87,51.922,11.87C292.636,23.774,315.882,18.462,315.882,11.904z"/>
	</g>
	<g>
		<path style="fill:#48CFAD;" d="M51.903,229.801C23.244,229.801,0,224.507,0,217.932v591.097c0,9.6,23.244,17.335,51.903,17.335
			s51.853-7.735,51.853-17.335V217.932C103.757,224.507,80.562,229.801,51.903,229.801z"/>
		<path style="fill:#87D7C3;" d="M51.903,206.044C23.244,206.044,0,211.356,0,217.932c0,6.575,23.244,11.869,51.903,11.869
			s51.853-5.294,51.853-11.869C103.757,211.356,80.562,206.044,51.903,206.044z"/>
		<path style="opacity:0.6;fill:#48CFAD;" d="M0,11.904v206.027c0,6.575,23.244,11.869,51.903,11.869s51.853-5.294,51.853-11.869
			V11.904H0z"/>
		<path style="fill:#AFE4D7;" d="M103.757,11.904C103.757,5.329,80.562,0,51.903,0S0,5.329,0,11.904
			c0,6.558,23.244,11.87,51.903,11.87S103.757,18.462,103.757,11.904z"/>
	</g>
</g>
<g id="Layer_1">
</g>
</svg>
