<?xml version="1.0" encoding="iso-8859-1"?>
<!-- Generator: Adobe Illustrator 17.1.0, SVG Export Plug-In . SVG Version: 6.00 Build 0)  -->
<!DOCTYPE svg PUBLIC "-//W3C//DTD SVG 1.1//EN" "http://www.w3.org/Graphics/SVG/1.1/DTD/svg11.dtd">
<svg version="1.1" xmlns="http://www.w3.org/2000/svg" xmlns:xlink="http://www.w3.org/1999/xlink" x="0px" y="0px"
	 viewBox="0 0 787.449 826.364" style="enable-background:new 0 0 787.449 826.364;" xml:space="preserve">
<g id="graph-18">
	<path style="fill:#48CFAD;" d="M0.426,418.528c0,1.178,0.035,2.254,0.035,3.399h385.24V33.237
		C172.944,33.237,0.426,205.754,0.426,418.528z"/>
	<path style="fill:#FC6E51;" d="M418.4,0v388.639l313.438-227.495C661.951,63.586,547.587,0,418.4,0z"/>
	<path style="fill:#FFCE54;" d="M385.274,436.922H0c1.179,139.623,76.634,261.5,188.76,328.109L385.274,436.922z"/>
	<path style="fill:#3BAFDA;" d="M402.165,826.364c212.783,0,385.283-172.518,385.283-385.291
		c0-83.637-26.611-160.989-71.871-224.166L402.165,444.42l-196.48,328.11C263.209,806.741,330.398,826.364,402.165,826.364z"/>
</g>
<g id="Layer_1">
</g>
</svg>
