<?xml version="1.0" encoding="iso-8859-1"?>
<!-- Generator: Adobe Illustrator 17.1.0, SVG Export Plug-In . SVG Version: 6.00 Build 0)  -->
<!DOCTYPE svg PUBLIC "-//W3C//DTD SVG 1.1//EN" "http://www.w3.org/Graphics/SVG/1.1/DTD/svg11.dtd">
<svg version="1.1" xmlns="http://www.w3.org/2000/svg" xmlns:xlink="http://www.w3.org/1999/xlink" x="0px" y="0px"
	 viewBox="0 0 826.355 664.076" style="enable-background:new 0 0 826.355 664.076;" xml:space="preserve">
<g id="graph-23">
	<polygon style="fill:#D1D3D4;" points="826.355,613.265 826.355,664.076 50.829,664.076 0,664.076 0,613.265 0,74.79 50.829,74.79 
		50.829,613.265 	"/>
	<path style="fill:#FC6E51;" d="M202.151,327.563c0-19.402-15.867-35.286-35.303-35.286h-44.116
		c-19.402,0-35.252,15.884-35.252,35.286v252.363h114.671V327.563z"/>
	<path style="fill:#FFCE54;" d="M305.225,221.655c-19.402,0-35.286,15.866-35.286,35.303v322.969h114.653V256.958
		c0-19.436-15.85-35.303-35.286-35.303H305.225z"/>
	<path style="fill:#48CFAD;" d="M487.674,292.277c-19.401,0-35.285,15.884-35.285,35.286v252.363H567.06V327.563
		c0-19.402-15.851-35.286-35.252-35.286H487.674z"/>
	<path style="fill:#3BAFDA;" d="M714.249,151.015h-44.135c-19.4,0-35.284,15.884-35.284,35.303v393.609h114.703V186.317
		C749.533,166.898,733.649,151.015,714.249,151.015z"/>
	<path style="fill:#3BAFDA;" d="M162.937,247.223l168.436-135.404L486.171,250.16c3.383,3.006,7.583,4.492,11.784,4.492
		c4.44,0,8.848-1.64,12.264-4.953L697.715,68.658l37.678,37.678h9.77V0H638.825v9.752l33.919,33.938L497.478,212.911L343.738,75.507
		c-6.455-5.755-16.089-6.011-22.835-0.598L140.819,219.708c-7.617,6.114-8.83,17.217-2.732,24.833
		C144.218,252.125,155.337,253.337,162.937,247.223z"/>
</g>
<g id="Layer_1">
</g>
</svg>
