<?xml version="1.0" encoding="iso-8859-1"?>
<!-- Generator: Adobe Illustrator 17.1.0, SVG Export Plug-In . SVG Version: 6.00 Build 0)  -->
<!DOCTYPE svg PUBLIC "-//W3C//DTD SVG 1.1//EN" "http://www.w3.org/Graphics/SVG/1.1/DTD/svg11.dtd">
<svg version="1.1" xmlns="http://www.w3.org/2000/svg" xmlns:xlink="http://www.w3.org/1999/xlink" x="0px" y="0px"
	 viewBox="0 0 817.107 805.254" style="enable-background:new 0 0 817.107 805.254;" xml:space="preserve">
<g id="graph-22">
	<path style="fill:#FFCE54;" d="M548.688,164.918h-97.011c-21.45,0-38.804,17.386-38.804,38.821v562.728
		c0,21.417,17.353,38.787,38.804,38.787h97.011c21.437,0,38.821-17.37,38.821-38.787V203.739
		C587.51,182.304,570.125,164.918,548.688,164.918z"/>
	<path style="fill:#3BAFDA;" d="M315.847,320.169H218.82c-21.435,0-38.804,17.387-38.804,38.787v145.412
		c70.504,18.225,122.698,82.084,122.698,158.309c0,61.213-33.681,114.483-83.45,142.578h96.583c21.417,0,38.821-17.37,38.821-38.787
		V358.955C354.668,337.555,337.265,320.169,315.847,320.169z"/>
	<path style="fill:#48CFAD;" d="M130.195,653.881V525.223C57.541,529.799,0,590.004,0,663.803c0,26.935,7.772,51.989,21.042,73.305
		l109.153-79.009V653.881z"/>
	<path style="fill:#FFCE54;" d="M180.016,531.234c-9.957-3.075-20.324-5.192-31.084-5.962v128.608h31.084h97.523
		C273.422,595.794,233.662,547.802,180.016,531.234z"/>
	<g>
		<path style="fill:#FC6E51;" d="M778.32,0h-97.027c-21.418,0-38.821,17.37-38.821,38.804v727.68
			c0,21.4,17.403,38.771,38.821,38.771h97.027c21.434,0,38.787-17.37,38.787-38.771V38.804C817.107,17.37,799.754,0,778.32,0z"/>
		<path style="fill:#FC6E51;" d="M148.932,672.616v0.018h-6.849l-110.196,79.76c25.5,30.812,63.997,50.435,107.104,50.435
			c18.241,0,35.645-3.535,51.58-9.924c48.591-19.452,83.569-65.584,87.019-120.271l-97.574-0.018H148.932z"/>
	</g>
</g>
<g id="Layer_1">
</g>
</svg>
