<?xml version="1.0" encoding="iso-8859-1"?>
<!-- Generator: Adobe Illustrator 17.1.0, SVG Export Plug-In . SVG Version: 6.00 Build 0)  -->
<!DOCTYPE svg PUBLIC "-//W3C//DTD SVG 1.1//EN" "http://www.w3.org/Graphics/SVG/1.1/DTD/svg11.dtd">
<svg version="1.1" xmlns="http://www.w3.org/2000/svg" xmlns:xlink="http://www.w3.org/1999/xlink" x="0px" y="0px"
	 viewBox="0 0 792.906 793.316" style="enable-background:new 0 0 792.906 793.316;" xml:space="preserve">
<g id="graph-25">
	<path style="fill:#3BAFDA;" d="M115.739,116.174C190.665,41.264,290.289,0,396.249,0c100.434,0,195.088,37.131,268.495,104.782
		l-394.488,394.48c-0.018,0.018-0.018,0.018-0.035,0.035L104.655,664.863C-38.35,509.441-34.935,266.882,115.739,116.174z"/>
	<g>
		<path style="fill:#FC6E51;" d="M621.567,723.103L170.87,723.07c-15.047-10.435-29.479-21.914-43.159-34.535l8.591-8.574
			l537.494-0.033C657.468,695.929,639.978,710.345,621.567,723.103z"/>
		<path style="fill:#FC6E51;" d="M169.367,646.894l43.142-43.141l522.156-0.07c-9.188,14.979-19.402,29.412-30.641,43.178
			L169.367,646.894z"/>
		<path style="fill:#FC6E51;" d="M688.108,128.163c17.625,19.112,33.168,39.693,46.524,61.434l-107.942-0.017L688.108,128.163z"/>
		<path style="fill:#FC6E51;" d="M593.625,222.629l159.181,0.018c6.865,14.021,12.877,28.436,18.035,43.192l-220.392-0.034
			L593.625,222.629z"/>
		<path style="fill:#FC6E51;" d="M517.384,298.854l263.397,0.034c3.585,14.159,6.317,28.573,8.333,43.159l-314.873-0.017
			L517.384,298.854z"/>
		<path style="fill:#FC6E51;" d="M441.176,375.061l351.116,0.035c0.376,7.156,0.614,14.346,0.614,21.571
			c0,7.207-0.238,14.398-0.614,21.554H398.025L441.176,375.061z"/>
		<path style="fill:#FC6E51;" d="M364.977,451.269h424.137c-2.016,14.604-4.748,29.018-8.3,43.176H321.817L364.977,451.269z"/>
		<path style="fill:#FC6E51;" d="M288.752,527.494h482.089c-5.124,14.74-11.17,29.119-18.002,43.143l-507.264,0.033L288.752,527.494
			z"/>
		<path style="fill:#FC6E51;" d="M396.249,793.316c-59.061-0.018-116.139-12.861-168.095-37.184l336.128,0.053
			C512.362,780.472,455.283,793.316,396.249,793.316z"/>
	</g>
</g>
<g id="Layer_1">
</g>
</svg>
