<?xml version="1.0" encoding="iso-8859-1"?>
<!-- Generator: Adobe Illustrator 17.1.0, SVG Export Plug-In . SVG Version: 6.00 Build 0)  -->
<!DOCTYPE svg PUBLIC "-//W3C//DTD SVG 1.1//EN" "http://www.w3.org/Graphics/SVG/1.1/DTD/svg11.dtd">
<svg version="1.1" xmlns="http://www.w3.org/2000/svg" xmlns:xlink="http://www.w3.org/1999/xlink" x="0px" y="0px"
	 viewBox="0 0 881.461 860.965" style="enable-background:new 0 0 881.461 860.965;" xml:space="preserve">
<g id="graph-21">
	<g>
		<rect x="51.58" y="732.137" style="fill:#D1D3D4;" width="715.042" height="5.022"/>
		<rect x="51.58" y="669.285" style="fill:#D1D3D4;" width="715.042" height="5.022"/>
		<rect x="51.58" y="606.417" style="fill:#D1D3D4;" width="715.042" height="5.022"/>
		<rect x="51.58" y="543.582" style="fill:#D1D3D4;" width="715.042" height="5.005"/>
		<rect x="51.58" y="480.713" style="fill:#D1D3D4;" width="715.042" height="5.021"/>
		<rect x="51.58" y="417.879" style="fill:#D1D3D4;" width="715.042" height="5.004"/>
		<rect x="51.58" y="355.01" style="fill:#D1D3D4;" width="715.042" height="5.038"/>
		<rect x="51.58" y="292.157" style="fill:#D1D3D4;" width="715.042" height="5.039"/>
		<rect x="51.58" y="229.322" style="fill:#D1D3D4;" width="715.042" height="5.022"/>
		<rect x="51.58" y="166.471" style="fill:#D1D3D4;" width="715.042" height="5.005"/>
		<rect x="51.58" y="103.602" style="fill:#D1D3D4;" width="715.042" height="5.022"/>
		<rect x="752.292" y="92.467" style="fill:#D1D3D4;" width="5.004" height="718.679"/>
		<rect x="689.44" y="92.467" style="fill:#D1D3D4;" width="5.021" height="718.679"/>
		<rect x="626.571" y="92.467" style="fill:#D1D3D4;" width="5.004" height="718.679"/>
		<rect x="563.737" y="92.467" style="fill:#D1D3D4;" width="5.021" height="718.679"/>
		<rect x="500.866" y="92.467" style="fill:#D1D3D4;" width="5.022" height="718.679"/>
		<rect x="438.015" y="92.467" style="fill:#D1D3D4;" width="5.021" height="718.679"/>
		<rect x="375.163" y="92.467" style="fill:#D1D3D4;" width="5.022" height="718.679"/>
		<rect x="312.329" y="92.467" style="fill:#D1D3D4;" width="5.004" height="718.679"/>
		<rect x="249.46" y="92.467" style="fill:#D1D3D4;" width="5.022" height="718.679"/>
		<rect x="186.608" y="92.467" style="fill:#D1D3D4;" width="5.005" height="718.679"/>
		<rect x="123.74" y="92.467" style="fill:#D1D3D4;" width="5.038" height="718.679"/>
		<rect x="43.689" y="7.907" style="fill:#3BAFDA;" width="5.022" height="853.058"/>
		<rect x="0" y="812.034" style="fill:#3BAFDA;" width="848.79" height="5.021"/>
	</g>
	<polygon style="fill:#3BAFDA;" points="46.2,0 55.627,16.311 65.055,32.672 46.2,32.672 27.344,32.672 36.772,16.311 	"/>
	<polygon style="fill:#3BAFDA;" points="881.461,814.528 865.116,823.972 848.79,833.399 848.79,814.528 848.79,795.672 
		865.116,805.1 	"/>
	<g>
		<path style="fill:#48CFAD;" d="M163.585,630.207c-8.573,0-15.542,6.97-15.542,15.576c0,8.592,6.969,15.543,15.542,15.543
			c8.608,0,15.577-6.951,15.577-15.543C179.162,637.177,172.193,630.207,163.585,630.207z"/>
		<path style="fill:#48CFAD;" d="M285.839,685.972c-8.591,0-15.543,6.984-15.543,15.576c0,8.557,6.952,15.543,15.543,15.543
			c8.625,0,15.576-6.986,15.576-15.543C301.416,692.956,294.464,685.972,285.839,685.972z"/>
		<path style="fill:#48CFAD;" d="M423.669,573.282c-8.592,0-15.543,6.952-15.543,15.526c0,8.625,6.951,15.593,15.543,15.593
			c8.59,0,15.541-6.968,15.541-15.593C439.21,580.234,432.259,573.282,423.669,573.282z"/>
		<path style="fill:#48CFAD;" d="M466.264,671.796c-8.59,0-15.574,6.951-15.574,15.56c0,8.573,6.984,15.558,15.574,15.558
			c8.592,0,15.576-6.984,15.576-15.558C481.84,678.747,474.856,671.796,466.264,671.796z"/>
		<path style="fill:#48CFAD;" d="M541.463,622.522c-8.59,0-15.541,6.968-15.541,15.541c0,8.608,6.951,15.56,15.541,15.56
			c8.609,0,15.561-6.951,15.561-15.56C557.024,629.49,550.073,622.522,541.463,622.522z"/>
		<path style="fill:#48CFAD;" d="M604.555,631.045c-8.592,0-15.543,6.951-15.543,15.541c0,8.609,6.951,15.577,15.543,15.577
			c8.607,0,15.559-6.968,15.559-15.577C620.114,637.996,613.163,631.045,604.555,631.045z"/>
		<path style="fill:#48CFAD;" d="M659.022,569.559c-8.592,0-15.559,6.951-15.559,15.543c0,8.573,6.967,15.576,15.559,15.576
			c8.574,0,15.541-7.003,15.541-15.576C674.563,576.51,667.596,569.559,659.022,569.559z"/>
		<path style="fill:#48CFAD;" d="M724.229,569.559c-8.607,0-15.576,6.951-15.576,15.543c0,8.573,6.969,15.576,15.576,15.576
			c8.592,0,15.543-7.003,15.543-15.576C739.772,576.51,732.821,569.559,724.229,569.559z"/>
	</g>
	<path style="fill:#FFCE54;" d="M840.643,176.668l-18.652,2.852l8.25,10.281l-140.17,117.437c-2.426-1.57-5.293-2.493-8.369-2.493
		c-1.793,0-3.518,0.376-5.123,0.939l-57.744-76.464c0.869-1.947,1.365-4.064,1.365-6.353c0-8.573-6.969-15.524-15.541-15.524
		c-8.625,0-15.576,6.951-15.576,15.524c0,0.734,0.119,1.452,0.221,2.152l-57.318,45.55c-2.289-1.314-4.902-2.117-7.736-2.117
		c-5.67,0-10.555,3.057-13.287,7.549l-86.644-18.821c-1.861-6.542-7.805-11.323-14.926-11.323c-8.574,0-15.543,6.951-15.543,15.524
		c0,0.239,0.069,0.393,0.069,0.598l-80.819,47.686c-2.682-2.135-5.978-3.434-9.65-3.434c-1.605,0-3.125,0.308-4.595,0.77
		l-65.293-80.017c0.238-1.144,0.427-2.323,0.427-3.552c0-8.574-6.968-15.543-15.577-15.543c-7.395,0-13.561,5.176-15.131,12.127
		L65.977,266.487v13.134l139.71-47.274c2.818,4.013,7.48,6.643,12.723,6.643c2.665,0,5.124-0.717,7.294-1.879l63.723,78.052
		c-0.957,2.016-1.538,4.254-1.538,6.645c0,8.574,6.969,15.56,15.56,15.56c8.573,0,15.577-6.985,15.577-15.56
		c0-0.394-0.103-0.751-0.12-1.094l80.461-47.514c2.715,2.322,6.199,3.773,10.026,3.773c5.619,0,10.486-2.971,13.235-7.429
		l86.78,18.907c1.93,6.404,7.805,11.118,14.842,11.118c8.59,0,15.541-6.968,15.541-15.56c0-1.195-0.152-2.322-0.375-3.433
		l56.465-44.867c2.477,1.725,5.5,2.716,8.779,2.716c1.725,0,3.346-0.324,4.867-0.837l57.863,76.635
		c-0.801,1.879-1.246,3.928-1.246,6.097c0,8.592,6.967,15.543,15.559,15.543c8.574,0,15.543-6.951,15.543-15.543
		c0-0.939-0.104-1.775-0.24-2.647l140.99-118.137l7.551,9.428l6.881-17.558l6.865-17.557L840.643,176.668z"/>
	<path style="fill:#FC6E51;" d="M844.383,368.263l-18.857-0.905l6.184,12.024l-104.148,55.046
		c-2.852-3.262-6.986-5.379-11.684-5.379c-5.516,0-10.299,2.868-13.082,7.189l-77.01-24.15c-2.033-6.267-7.822-10.828-14.74-10.828
		c-8.59,0-15.559,6.969-15.559,15.575c0,0.479,0.102,0.957,0.137,1.453l-46.541,37.933c-2.836-2.818-6.713-4.56-11.018-4.56
		c-3.295,0-6.318,1.024-8.828,2.749l-43.434-46.489c0.084-0.684,0.205-1.333,0.205-2.033c0-8.607-6.986-15.559-15.559-15.559
		c-8.25,0-14.945,6.456-15.475,14.586l-90.417,55.303c-2.596-1.982-5.807-3.194-9.326-3.194c-5.857,0-10.879,3.262-13.527,7.993
		L233.15,450.859c-2.648-4.783-7.686-8.028-13.528-8.028c-8.59,0-15.559,6.985-15.559,15.594c0,0.956,0.12,1.913,0.29,2.852
		l-45.311,39.83c-2.152-1.146-4.578-1.862-7.208-1.862c-3.399,0-6.49,1.11-9.052,2.973l-76.856-50.898v14.945l70.537,46.693
		c-0.068,0.598-0.188,1.213-0.188,1.862c0,8.591,6.969,15.543,15.56,15.543c8.591,0,15.576-6.952,15.576-15.543
		c0-1.384-0.238-2.698-0.581-3.962l44.663-39.232c2.374,1.453,5.141,2.341,8.129,2.341c6.798,0,12.503-4.372,14.638-10.418
		l106.25,13.901c2.049,6.184,7.839,10.675,14.722,10.675c8.591,0,15.542-6.968,15.542-15.541c0-0.513-0.085-0.958-0.153-1.47
		l88.761-54.278c2.818,2.836,6.731,4.612,11.068,4.612c3.158,0,6.096-0.956,8.539-2.579l43.654,46.763
		c-0.053,0.513-0.152,1.042-0.152,1.571c0,8.592,6.967,15.56,15.574,15.56c8.08,0,14.639-6.2,15.389-14.073l48.387-39.368
		c2.578,1.896,5.738,3.058,9.205,3.058c5.688,0,10.641-3.125,13.34-7.703l76.531,24.03c1.828,6.61,7.787,11.46,14.961,11.46
		c7.926,0,14.381-5.943,15.373-13.595l106.162-56.122l5.365,10.453l10.213-15.867l10.195-15.815L844.383,368.263z"/>
	<polygon style="fill:#48CFAD;" points="811.573,505.563 792.854,507.972 800.813,518.372 721.958,579.039 655.743,579.039 
		603.292,641.463 538.749,628.466 468.348,681.463 427.05,574.837 283.875,696.271 162.834,637.279 65.927,702.146 65.927,717.091 
		66.882,716.477 163.807,651.626 285.737,711.045 421.756,595.674 462.661,701.343 541.772,641.753 608.075,655.126 
		661.547,591.507 726.176,591.507 808.364,528.296 815.741,537.946 823.034,520.559 830.276,503.139 	"/>
</g>
<g id="Layer_1">
</g>
</svg>
