<?xml version="1.0" encoding="iso-8859-1"?>
<!-- Generator: Adobe Illustrator 17.1.0, SVG Export Plug-In . SVG Version: 6.00 Build 0)  -->
<!DOCTYPE svg PUBLIC "-//W3C//DTD SVG 1.1//EN" "http://www.w3.org/Graphics/SVG/1.1/DTD/svg11.dtd">
<svg version="1.1" xmlns="http://www.w3.org/2000/svg" xmlns:xlink="http://www.w3.org/1999/xlink" x="0px" y="0px"
	 viewBox="0 0 828.67 796.781" style="enable-background:new 0 0 828.67 796.781;" xml:space="preserve">
<g id="graph-10">
	<g>
		<g>
			<g>
				<rect x="3.596" y="792.837" style="fill:#D1D3D4;" width="809.497" height="3.944"/>
			</g>
			<g>
				<rect x="4.758" y="682.624" style="fill:#D1D3D4;" width="808.575" height="3.945"/>
			</g>
			<g>
				<rect x="4.758" y="548.21" style="fill:#D1D3D4;" width="808.575" height="3.945"/>
			</g>
			<g>
				<rect x="4.758" y="413.831" style="fill:#D1D3D4;" width="808.575" height="3.946"/>
			</g>
			<g>
				<rect x="4.758" y="279.434" style="fill:#D1D3D4;" width="808.575" height="3.945"/>
			</g>
			<g>
				<rect x="4.758" y="145.037" style="fill:#D1D3D4;" width="808.575" height="3.946"/>
			</g>
		</g>
		<g>
			<g>
				<rect x="4.194" y="0" style="fill:#D1D3D4;" width="3.961" height="795.894"/>
			</g>
			<g>
				<rect x="138.591" y="10.11" style="fill:#D1D3D4;" width="3.946" height="785.784"/>
			</g>
			<g>
				<rect x="272.987" y="10.11" style="fill:#D1D3D4;" width="3.946" height="785.784"/>
			</g>
			<g>
				<rect x="407.368" y="10.11" style="fill:#D1D3D4;" width="3.979" height="785.784"/>
			</g>
			<g>
				<rect x="541.773" y="10.11" style="fill:#D1D3D4;" width="3.928" height="785.784"/>
			</g>
			<g>
				<rect x="676.151" y="10.11" style="fill:#D1D3D4;" width="3.963" height="785.784"/>
			</g>
		</g>
	</g>
	<g>
		<path style="fill:#FC6E51;" d="M820.198,281.38l-8.061-8.249c-0.443-0.444-1.024-0.683-1.64-0.683h-0.035
			c-0.579,0-1.195,0.239-1.605,0.683L680.389,406.059L543.275,274.976c-0.547-0.547-1.367-0.785-2.118-0.581
			c-0.785,0.205-1.4,0.751-1.641,1.503L407.623,667.201l-127.65-256.735c-0.324-0.648-0.922-1.11-1.657-1.246
			c-0.734-0.154-1.503,0.103-1.998,0.648l-135.234,133.73L9.608,413.984c-0.888-0.889-2.34-0.889-3.245,0.017l-4.236,4.304
			c-0.443,0.427-0.665,1.024-0.665,1.64c0,0.597,0.238,1.178,0.683,1.605l137.334,135.405c0.888,0.871,2.323,0.871,3.229,0
			L275.601,425.53l131.408,264.421c0.41,0.785,1.195,1.28,2.066,1.28c0.051,0,0.12,0,0.17,0c0.923-0.067,1.708-0.682,1.999-1.57
			l134.149-397.947l133.661,127.753c0.924,0.888,2.392,0.87,3.245-0.052l128.198-132.723l4.167,4.235
			c0.581,0.615,1.435,0.855,2.255,0.615c0.82-0.222,1.435-0.888,1.64-1.691c0.443-2.118,1.16-4.065,2.049-5.824
			C821.052,283.14,820.882,282.064,820.198,281.38z"/>
		<path style="fill:#48CFAD;" d="M823.614,673.265c0.069-0.974-0.479-1.862-1.367-2.253c-0.852-0.359-1.912-0.19-2.596,0.493
			l-1.775,1.896L681.651,130.23c-0.205-0.991-1.127-1.708-2.117-1.742c-1.435,0.084-1.947,0.615-2.256,1.588L540.748,539.62
			L411.756,407.682c-0.888-0.923-2.339-0.923-3.228-0.051l-132.962,129.99l-133.97-269.46c-0.393-0.803-1.178-1.281-2.049-1.281
			h-0.017c-0.872,0.017-1.674,0.512-2.05,1.298L1.086,549.833c-0.273,0.547-0.307,1.179-0.119,1.76
			c0.222,0.562,0.615,1.058,1.195,1.296l5.449,2.648c1.058,0.529,2.477,0.086,3.04-1.058l128.983-266.352L271.16,552.634
			c0.324,0.667,0.922,1.127,1.639,1.229c0.837,0.205,1.486-0.103,2.015-0.615l135.167-132.176l132.713,135.729
			c0.581,0.599,1.4,0.871,2.153,0.649c0.784-0.171,1.434-0.751,1.673-1.503l131.784-395.385l132.911,530.106
			c0.204,0.819,0.819,1.468,1.639,1.673c0.205,0.035,0.376,0.068,0.581,0.068c0.614,0,1.229-0.238,1.675-0.717l8.435-8.813
			c0.512-0.546,0.752-1.332,0.581-2.083C823.614,678.354,823.409,675.81,823.614,673.265z"/>
		<path style="fill:#48CFAD;" d="M153.194,276.069c0,7.498-6.098,13.595-13.613,13.595c-7.497,0-13.595-6.098-13.595-13.595
			c0-7.515,6.098-13.596,13.595-13.596C147.096,262.474,153.194,268.555,153.194,276.069z"/>
		<path style="fill:#48CFAD;" d="M287.675,546.553c0,7.516-6.08,13.597-13.595,13.597c-7.515,0-13.595-6.081-13.595-13.597
			c0-7.514,6.08-13.611,13.595-13.611C281.596,532.941,287.675,539.039,287.675,546.553z"/>
		<path style="fill:#48CFAD;" d="M423.678,413.574c0,7.498-6.098,13.595-13.612,13.595c-7.498,0-13.596-6.097-13.596-13.595
			c0-7.515,6.098-13.611,13.596-13.611C417.58,399.963,423.678,406.059,423.678,413.574z"/>
		<path style="fill:#48CFAD;" d="M556.665,549.559c0,7.516-6.081,13.613-13.595,13.613c-7.515,0-13.63-6.098-13.63-13.613
			c0-7.497,6.115-13.595,13.63-13.595C550.584,535.964,556.665,542.061,556.665,549.559z"/>
		<path style="fill:#48CFAD;" d="M691.147,135.524c0,7.515-6.079,13.611-13.595,13.611c-7.515,0-13.595-6.097-13.595-13.611
			c0-7.516,6.08-13.596,13.595-13.596C685.067,121.929,691.147,128.009,691.147,135.524z"/>
		<path style="fill:#48CFAD;" d="M828.67,684.059c0,7.532-6.113,13.595-13.595,13.595c-7.516,0-13.629-6.062-13.629-13.595
			c0-7.497,6.113-13.595,13.629-13.595C822.557,670.464,828.67,676.561,828.67,684.059z"/>
		<path style="fill:#FC6E51;" d="M824.127,279.075c0,7.515-6.115,13.595-13.629,13.595c-7.482,0-13.561-6.08-13.561-13.595
			c0-7.497,6.079-13.595,13.561-13.595C818.012,265.48,824.127,271.578,824.127,279.075z"/>
		<path style="fill:#FC6E51;" d="M694.153,413.574c0,7.498-6.08,13.595-13.595,13.595c-7.516,0-13.595-6.097-13.595-13.595
			c0-7.515,6.079-13.611,13.595-13.611C688.073,399.963,694.153,406.059,694.153,413.574z"/>
		<path style="fill:#FC6E51;" d="M556.665,282.081c0,7.515-6.081,13.613-13.595,13.613c-7.515,0-13.63-6.098-13.63-13.613
			c0-7.48,6.115-13.578,13.63-13.578C550.584,268.503,556.665,274.601,556.665,282.081z"/>
		<path style="fill:#FC6E51;" d="M422.158,681.053c0,7.498-6.081,13.595-13.595,13.595c-7.498,0-13.596-6.097-13.596-13.595
			c0-7.497,6.098-13.595,13.596-13.595C416.077,667.458,422.158,673.556,422.158,681.053z"/>
		<path style="fill:#FC6E51;" d="M290.698,415.077c0,7.498-6.096,13.595-13.595,13.595c-7.515,0-13.611-6.097-13.611-13.595
			c0-7.515,6.096-13.595,13.611-13.595C284.602,401.482,290.698,407.562,290.698,415.077z"/>
		<path style="fill:#FC6E51;" d="M151.673,551.079c0,7.498-6.08,13.596-13.595,13.596c-7.515,0-13.596-6.098-13.596-13.596
			c0-7.514,6.081-13.612,13.596-13.612C145.593,537.467,151.673,543.565,151.673,551.079z"/>
	</g>
	<path style="fill:#FFCE54;" d="M817.192,396.768c-0.341-0.684-0.99-1.145-1.741-1.281c-0.684-0.119-1.47,0.137-1.981,0.667
		L544.438,675.126l-134.082-134.02c-0.426-0.445-1.024-0.685-1.639-0.685c-0.734-0.084-1.195,0.24-1.639,0.7L278.607,673.486
		L141.272,404.762c-0.41-0.751-1.196-1.23-2.049-1.23h-0.018c-0.871,0.017-1.657,0.478-2.05,1.281L0.249,679.79
		c-0.273,0.545-0.325,1.193-0.137,1.758c0.222,0.581,0.614,1.076,1.162,1.332l7.156,3.554c1.144,0.598,2.511,0.103,3.092-1.043
		l127.821-256.769l134.602,263.362c0.341,0.648,0.973,1.11,1.708,1.229c0.136,0.034,0.239,0.034,0.341,0.034
		c0.614,0,1.229-0.256,1.657-0.716l131.152-135.149L542.9,691.455c0.443,0.426,1.332,0.887,1.639,0.682
		c0.65,0,1.196-0.256,1.641-0.716l266.266-276.105c0.375,0.257,0.786,0.376,1.23,0.376c0.889,0.051,1.742-0.564,2.118-1.4
		c1.128-2.63,2.698-4.936,4.681-6.9c0.717-0.683,0.922-1.725,0.479-2.63L817.192,396.768z"/>
	<path style="fill:#FFCE54;" d="M152.254,414.668c0,7.156-5.79,12.963-12.963,12.963c-7.157,0-12.963-5.807-12.963-12.963
		c0-7.173,5.807-12.963,12.963-12.963C146.465,401.704,152.254,407.494,152.254,414.668z"/>
	<path style="fill:#FFCE54;" d="M287.009,684.161c0,7.139-5.806,12.963-12.98,12.963c-7.157,0-12.963-5.824-12.963-12.963
		c0-7.173,5.807-12.98,12.963-12.98C281.203,671.181,287.009,676.988,287.009,684.161z"/>
	<path style="fill:#FFCE54;" d="M423.729,548.398c0,7.173-5.808,12.979-12.962,12.979c-7.173,0-12.981-5.807-12.981-12.979
		c0-7.156,5.808-12.964,12.981-12.964C417.921,535.435,423.729,541.242,423.729,548.398z"/>
	<path style="fill:#FFCE54;" d="M557.485,684.161c0,7.139-5.807,12.963-12.98,12.963c-7.173,0-12.98-5.824-12.98-12.963
		c0-7.173,5.808-12.98,12.98-12.98C551.679,671.181,557.485,676.988,557.485,684.161z"/>
	<path style="fill:#FFCE54;" d="M827.952,400.697c0,7.156-5.807,12.963-12.979,12.963c-7.173,0-12.98-5.808-12.98-12.963
		c0-7.174,5.808-12.98,12.98-12.98C822.146,387.717,827.952,393.523,827.952,400.697z"/>
</g>
<g id="Layer_1">
</g>
</svg>
