<?xml version="1.0" encoding="iso-8859-1"?>
<!-- Generator: Adobe Illustrator 17.1.0, SVG Export Plug-In . SVG Version: 6.00 Build 0)  -->
<!DOCTYPE svg PUBLIC "-//W3C//DTD SVG 1.1//EN" "http://www.w3.org/Graphics/SVG/1.1/DTD/svg11.dtd">
<svg version="1.1" xmlns="http://www.w3.org/2000/svg" xmlns:xlink="http://www.w3.org/1999/xlink" x="0px" y="0px"
	 viewBox="0 0 826.364 779.824" style="enable-background:new 0 0 826.364 779.824;" xml:space="preserve">
<g id="graph-7">
	<path style="fill:#48CFAD;" d="M174.909,406.64c-0.068-2.065-0.12-4.099-0.12-6.148c0-108.931,88.334-197.249,197.249-197.249
		c15.354,0,30.299,1.845,44.644,5.159l69.975-161.895c-36.139-11.682-74.619-18.053-114.619-18.053
		C166.557,28.454,0,195.011,0,400.492c0,1.367,0,2.75,0.017,4.116L174.909,406.64z"/>
	<path style="fill:#3BAFDA;" d="M568.963,0l-69.957,161.895c87.395,20.239,152.568,98.514,152.568,192.074
		c0,4.492-0.238,8.932-0.496,13.355h174.961c0.17-4.44,0.324-8.864,0.324-13.355C826.364,188.488,718.321,48.352,568.963,0z"/>
	<path style="fill:#FC6E51;" d="M175.319,421.175H0.342C6.336,591.455,126.797,732.531,287.12,769.986l39.556-170.279
		C243.807,580.236,181.161,508.484,175.319,421.175z"/>
	<path style="fill:#FFCE54;" d="M585.17,421.175c-6.865,102.68-92.297,183.842-196.736,183.842c-15.61,0-30.794-1.846-45.362-5.311
		l-39.538,170.279c27.275,6.354,55.678,9.838,84.901,9.838c201.006,0,364.66-159.402,371.697-358.648H585.17z"/>
</g>
<g id="Layer_1">
</g>
</svg>
