<?xml version="1.0" encoding="iso-8859-1"?>
<!-- Generator: Adobe Illustrator 17.1.0, SVG Export Plug-In . SVG Version: 6.00 Build 0)  -->
<!DOCTYPE svg PUBLIC "-//W3C//DTD SVG 1.1//EN" "http://www.w3.org/Graphics/SVG/1.1/DTD/svg11.dtd">
<svg version="1.1" xmlns="http://www.w3.org/2000/svg" xmlns:xlink="http://www.w3.org/1999/xlink" x="0px" y="0px"
	 viewBox="0 0 840.787 826.363" style="enable-background:new 0 0 840.787 826.363;" xml:space="preserve">
<g id="graph-12">
	<path style="fill:#FC6E51;" d="M413.198,221.671c103.288,0,187.762,82.203,191.383,184.593h14.552l-53.492,53.493l-53.492-53.493
		h14.141C522.703,347,473.377,299.877,413.198,299.877c-62.458,0-113.303,50.812-113.303,113.304
		c0,62.477,50.845,113.287,113.303,113.287v78.207c-105.584,0-191.51-85.893-191.51-191.494
		C221.689,307.564,307.614,221.671,413.198,221.671z"/>
	<path style="fill:#FFCE54;" d="M413.198,110.827c164.5,0,298.708,132.039,302.295,295.693h14.348l-53.493,53.493l-53.492-53.493
		h14.415c-3.553-120.546-102.681-217.487-224.072-217.487c-123.585,0-224.165,100.546-224.165,224.148
		c0,123.586,100.58,224.131,224.165,224.131v78.223c-166.693,0-302.354-135.643-302.354-302.353
		C110.844,246.454,246.505,110.827,413.198,110.827z"/>
	<path style="fill:#48CFAD;" d="M121.023,121.006C199.059,42.954,302.815,0,413.198,0c110.358,0,214.133,42.954,292.185,121.006
		c76.447,76.448,119.248,177.625,120.956,285.515h14.448l-53.492,53.493l-53.493-53.493h14.314
		C744.562,224.882,595.7,78.206,413.198,78.206c-184.712,0-334.992,150.28-334.992,334.975
		c0,184.678,150.28,334.959,334.992,334.959v78.223c-110.383,0-214.14-42.971-292.175-121.023C42.988,627.304,0,523.531,0,413.181
		C0,302.815,42.988,199.059,121.023,121.006z"/>
</g>
<g id="Layer_1">
</g>
</svg>
