<?xml version="1.0" encoding="iso-8859-1"?>
<!-- Generator: Adobe Illustrator 17.1.0, SVG Export Plug-In . SVG Version: 6.00 Build 0)  -->
<!DOCTYPE svg PUBLIC "-//W3C//DTD SVG 1.1//EN" "http://www.w3.org/Graphics/SVG/1.1/DTD/svg11.dtd">
<svg version="1.1" xmlns="http://www.w3.org/2000/svg" xmlns:xlink="http://www.w3.org/1999/xlink" x="0px" y="0px"
	 viewBox="0 0 743.137 826.363" style="enable-background:new 0 0 743.137 826.363;" xml:space="preserve">
<g id="graph-13">
	<rect x="737.244" y="0" style="fill:#D1D3D4;" width="4.082" height="822.23"/>
	<rect x="655.315" y="0" style="fill:#D1D3D4;" width="4.116" height="822.23"/>
	<rect x="573.403" y="0" style="fill:#D1D3D4;" width="4.081" height="822.23"/>
	<rect x="491.49" y="0" style="fill:#D1D3D4;" width="4.1" height="822.23"/>
	<rect x="409.577" y="0" style="fill:#D1D3D4;" width="4.1" height="822.23"/>
	<rect x="327.667" y="0" style="fill:#D1D3D4;" width="4.099" height="822.23"/>
	<rect x="245.737" y="0" style="fill:#D1D3D4;" width="4.099" height="822.23"/>
	<rect x="163.841" y="0" style="fill:#D1D3D4;" width="4.1" height="822.23"/>
	<rect x="81.93" y="0" style="fill:#D1D3D4;" width="4.081" height="822.23"/>
	<rect x="0" y="0" style="fill:#D1D3D4;" width="4.099" height="822.23"/>
	<rect x="0" y="822.23" style="fill:#D1D3D4;" width="742.129" height="4.133"/>
	<rect x="0" y="740.027" style="fill:#D1D3D4;" width="738.337" height="4.083"/>
	<rect x="0" y="657.79" style="fill:#D1D3D4;" width="738.337" height="4.116"/>
	<rect x="0" y="575.572" style="fill:#D1D3D4;" width="738.337" height="4.099"/>
	<rect x="0" y="493.335" style="fill:#D1D3D4;" width="738.337" height="4.133"/>
	<rect x="0" y="411.132" style="fill:#D1D3D4;" width="738.337" height="4.083"/>
	<rect x="0" y="328.895" style="fill:#D1D3D4;" width="738.337" height="4.116"/>
	<rect y="246.676" style="fill:#D1D3D4;" width="743.137" height="4.1"/>
	<rect y="164.439" style="fill:#D1D3D4;" width="736.953" height="4.133"/>
	<rect y="82.236" style="fill:#D1D3D4;" width="740.045" height="4.083"/>
	<rect x="0" y="0" style="fill:#D1D3D4;" width="741.326" height="4.082"/>
	<rect x="679.893" y="12.331" style="fill:#FFCE54;" width="32.774" height="809.899"/>
	<rect x="550.807" y="189.118" style="fill:#FFCE54;" width="32.759" height="633.112"/>
	<rect x="385.001" y="78.103" style="fill:#FFCE54;" width="32.775" height="744.127"/>
	<rect x="255.933" y="106.882" style="fill:#FFCE54;" width="32.758" height="715.349"/>
	<rect x="90.093" y="394.668" style="fill:#FFCE54;" width="32.775" height="427.562"/>
	<rect x="647.134" y="460.439" style="fill:#3BAFDA;" width="32.759" height="361.791"/>
	<rect x="499.671" y="620.763" style="fill:#48CFAD;" width="32.775" height="201.468"/>
	<rect x="352.243" y="624.896" style="fill:#FC6E51;" width="32.758" height="197.334"/>
	<rect x="223.157" y="12.331" style="fill:#3BAFDA;" width="32.775" height="809.899"/>
	<rect x="57.335" y="629.013" style="fill:#FC6E51;" width="32.758" height="193.218"/>
	<rect x="0" y="0" style="fill:#D1D3D4;" width="4.099" height="822.23"/>
	<rect x="0" y="822.23" style="fill:#D1D3D4;" width="738.337" height="4.133"/>
</g>
<g id="Layer_1">
</g>
</svg>
