<?xml version="1.0" encoding="iso-8859-1"?>
<!-- Generator: Adobe Illustrator 17.1.0, SVG Export Plug-In . SVG Version: 6.00 Build 0)  -->
<!DOCTYPE svg PUBLIC "-//W3C//DTD SVG 1.1//EN" "http://www.w3.org/Graphics/SVG/1.1/DTD/svg11.dtd">
<svg version="1.1" xmlns="http://www.w3.org/2000/svg" xmlns:xlink="http://www.w3.org/1999/xlink" x="0px" y="0px"
	 viewBox="0 0 826.364 771.455" style="enable-background:new 0 0 826.364 771.455;" xml:space="preserve">
<g id="graph-34">
	<rect y="318.495" style="fill:#FC6E51;" width="129.427" height="452.96"/>
	<polygon style="fill:#48CFAD;" points="594.034,318.512 594.034,771.455 464.625,771.455 464.625,318.495 	"/>
	<polygon style="fill:#4FC1E9;" points="826.364,216.822 826.364,771.455 696.956,771.455 696.956,216.805 	"/>
	<rect x="232.33" y="463.327" style="fill:#FFCE54;" width="129.392" height="308.128"/>
	<polygon style="fill:#3BAFDA;" points="825.219,29.735 715.196,0 751.78,116.892 	"/>
	<g>
		<path style="fill:#3BAFDA;" d="M64.697,148.812c-11.135,0-20.188,9.052-20.188,20.188c0,11.17,9.052,20.205,20.188,20.205
			c11.153,0,20.222-9.035,20.222-20.205C84.918,157.864,75.85,148.812,64.697,148.812z"/>
		<path style="fill:#3BAFDA;" d="M64.697,104.321C29.017,104.321,0,133.338,0,169c0,35.695,29.017,64.696,64.697,64.696
			c35.695,0,64.73-29.001,64.73-64.696C129.427,133.338,100.392,104.321,64.697,104.321z M64.697,206.78
			c-20.837,0-37.762-16.944-37.762-37.78c0-20.819,16.925-37.762,37.762-37.762c20.819,0,37.796,16.942,37.796,37.762
			C102.493,189.836,85.516,206.78,64.697,206.78z"/>
		<path style="fill:#3BAFDA;" d="M297.009,326.282c-11.136,0-20.171,9.053-20.171,20.205c0,11.153,9.035,20.188,20.171,20.188
			c11.153,0,20.205-9.035,20.205-20.188C317.214,335.335,308.162,326.282,297.009,326.282z"/>
		<path style="fill:#3BAFDA;" d="M297.009,281.758c-35.679,0-64.679,29.018-64.679,64.713c0,35.679,29,64.696,64.679,64.696
			c35.679,0,64.713-29.018,64.713-64.696C361.722,310.775,332.688,281.758,297.009,281.758z M297.009,384.233
			c-20.819,0-37.762-16.927-37.762-37.763c0-20.819,16.943-37.744,37.762-37.744c20.82,0,37.78,16.925,37.78,37.744
			C334.788,367.307,317.829,384.233,297.009,384.233z"/>
		<path style="fill:#3BAFDA;" d="M529.321,100.888c-11.117,0-20.188,9.035-20.188,20.188c0,11.187,9.07,20.204,20.188,20.204
			c11.172,0,20.223-9.018,20.223-20.204C549.543,109.923,540.493,100.888,529.321,100.888z"/>
		<path style="fill:#3BAFDA;" d="M529.321,56.38c-35.68,0-64.695,29.018-64.695,64.679c0,35.695,29.016,64.73,64.695,64.73
			c35.678,0,64.713-29.035,64.713-64.73C594.034,85.397,564.998,56.38,529.321,56.38z M529.321,158.854
			c-20.82,0-37.762-16.941-37.762-37.796c0-20.82,16.941-37.745,37.762-37.745c20.838,0,37.797,16.925,37.797,37.745
			C567.118,141.913,550.159,158.854,529.321,158.854z"/>
	</g>
	<g>
		<path style="fill:#3BAFDA;" d="M107.156,229.46l119.64,93.988c3.962-12.092,10.999-22.784,20.136-31.204l-115.798-90.981
			C125.618,212.586,117.352,222.27,107.156,229.46z"/>
		<path style="fill:#3BAFDA;" d="M468.024,162.356L339.383,285.941c10.23,7.19,18.514,16.875,24.03,28.198l132.383-127.24
			C484.608,181.178,474.993,172.706,468.024,162.356z"/>
		<path style="fill:#3BAFDA;" d="M767.389,68.437l-11.477-35.149L594.411,85.995c5.67,10.452,8.881,22.391,8.881,35.063
			c0,0.324-0.033,0.649-0.051,0.957L767.389,68.437z"/>
	</g>
</g>
<g id="Layer_1">
</g>
</svg>
