<?xml version="1.0" encoding="iso-8859-1"?>
<!-- Generator: Adobe Illustrator 17.1.0, SVG Export Plug-In . SVG Version: 6.00 Build 0)  -->
<!DOCTYPE svg PUBLIC "-//W3C//DTD SVG 1.1//EN" "http://www.w3.org/Graphics/SVG/1.1/DTD/svg11.dtd">
<svg version="1.1" xmlns="http://www.w3.org/2000/svg" xmlns:xlink="http://www.w3.org/1999/xlink" x="0px" y="0px"
	 viewBox="0 0 826.364 787.986" style="enable-background:new 0 0 826.364 787.986;" xml:space="preserve">
<g id="graph-36">
	<g>
		<g>
			<path style="fill:#3BAFDA;" d="M21.024,745.988c11.596,0,20.991,9.395,20.991,20.974c0,11.63-9.394,21.024-20.991,21.024
				C9.427,787.986,0,778.592,0,766.962C0,755.383,9.427,745.988,21.024,745.988z"/>
		</g>
		<g>
			<path style="fill:#3BAFDA;" d="M21.024,692.685c11.596,0,20.991,9.428,20.991,21.024c0,11.581-9.394,21.007-20.991,21.007
				C9.427,734.716,0,725.29,0,713.709C0,702.112,9.427,692.685,21.024,692.685z"/>
		</g>
		<g>
			<path style="fill:#3BAFDA;" d="M21.024,639.396c11.596,0,20.991,9.429,20.991,21.008s-9.394,21.024-20.991,21.024
				C9.427,681.429,0,671.983,0,660.404S9.427,639.396,21.024,639.396z"/>
		</g>
		<g>
			<path style="fill:#3BAFDA;" d="M21.024,586.128c11.596,0,20.991,9.393,20.991,21.024c0,11.579-9.394,20.973-20.991,20.973
				C9.427,628.125,0,618.732,0,607.152C0,595.521,9.427,586.128,21.024,586.128z"/>
		</g>
		<g>
			<path style="fill:#3BAFDA;" d="M21.024,532.822c11.596,0,20.991,9.444,20.991,21.024c0,11.581-9.394,21.024-20.991,21.024
				C9.427,574.871,0,565.428,0,553.847C0,542.267,9.427,532.822,21.024,532.822z"/>
		</g>
		<g>
			<path style="fill:#3BAFDA;" d="M21.024,479.569c11.596,0,20.991,9.393,20.991,20.973c0,11.632-9.394,21.024-20.991,21.024
				C9.427,521.566,0,512.174,0,500.542C0,488.963,9.427,479.569,21.024,479.569z"/>
		</g>
		<g>
			<path style="fill:#3BAFDA;" d="M21.024,426.265c11.596,0,20.991,9.411,20.991,21.024c0,11.58-9.394,20.974-20.991,20.974
				C9.427,468.263,0,458.869,0,447.289C0,435.676,9.427,426.265,21.024,426.265z"/>
		</g>
		<g>
			<path style="fill:#3BAFDA;" d="M21.024,372.978c11.596,0,20.991,9.393,20.991,21.007c0,11.597-9.394,21.024-20.991,21.024
				C9.427,415.009,0,405.582,0,393.985C0,382.371,9.427,372.978,21.024,372.978z"/>
		</g>
		<g>
			<path style="fill:#3BAFDA;" d="M21.024,319.708c11.596,0,20.991,9.393,20.991,20.99c0,11.614-9.394,21.007-20.991,21.007
				C9.427,361.705,0,352.312,0,340.698C0,329.101,9.427,319.708,21.024,319.708z"/>
		</g>
		<g>
			<path style="fill:#3BAFDA;" d="M21.024,266.42c11.596,0,20.991,9.427,20.991,21.007c0,11.596-9.394,21.024-20.991,21.024
				C9.427,308.452,0,299.024,0,287.428C0,275.848,9.427,266.42,21.024,266.42z"/>
		</g>
		<g>
			<path style="fill:#3BAFDA;" d="M21.024,213.115c11.596,0,20.991,9.427,20.991,21.025c0,11.579-9.394,21.007-20.991,21.007
				C9.427,255.148,0,245.72,0,234.141C0,222.542,9.427,213.115,21.024,213.115z"/>
		</g>
		<g>
			<path style="fill:#3BAFDA;" d="M21.024,159.862c11.596,0,20.991,9.393,20.991,20.973c0,11.614-9.394,21.025-20.991,21.025
				C9.427,201.861,0,192.449,0,180.835C0,169.255,9.427,159.862,21.024,159.862z"/>
		</g>
		<g>
			<path style="fill:#3BAFDA;" d="M21.024,106.558c11.596,0,20.991,9.393,20.991,21.024c0,11.58-9.394,21.007-20.991,21.007
				C9.427,148.59,0,139.162,0,127.583C0,115.951,9.427,106.558,21.024,106.558z"/>
		</g>
		<g>
			<path style="fill:#3BAFDA;" d="M21.024,53.254c11.596,0,20.991,9.444,20.991,21.024c0,11.579-9.394,21.024-20.991,21.024
				C9.427,95.303,0,85.858,0,74.278C0,62.698,9.427,53.254,21.024,53.254z"/>
		</g>
		<g>
			<path style="fill:#3BAFDA;" d="M21.024,0c11.596,0,20.991,9.394,20.991,20.974c0,11.63-9.394,21.025-20.991,21.025
				C9.427,41.999,0,32.604,0,20.974C0,9.394,9.427,0,21.024,0z"/>
		</g>
		<g>
			<path style="fill:#3BAFDA;" d="M73.304,745.988c11.596,0,21.008,9.395,21.008,20.974c0,11.63-9.412,21.024-21.008,21.024
				c-11.614,0-21.008-9.395-21.008-21.024C52.296,755.383,61.69,745.988,73.304,745.988z"/>
		</g>
		<g>
			<path style="fill:#3BAFDA;" d="M73.304,692.685c11.596,0,21.008,9.428,21.008,21.024c0,11.581-9.412,21.007-21.008,21.007
				c-11.614,0-21.008-9.426-21.008-21.007C52.296,702.112,61.69,692.685,73.304,692.685z"/>
		</g>
		<g>
			<path style="fill:#3BAFDA;" d="M73.304,639.396c11.596,0,21.008,9.429,21.008,21.008s-9.412,21.024-21.008,21.024
				c-11.614,0-21.008-9.445-21.008-21.024S61.69,639.396,73.304,639.396z"/>
		</g>
		<g>
			<path style="fill:#3BAFDA;" d="M73.304,586.128c11.596,0,21.008,9.393,21.008,21.024c0,11.579-9.412,20.973-21.008,20.973
				c-11.614,0-21.008-9.393-21.008-20.973C52.296,595.521,61.69,586.128,73.304,586.128z"/>
		</g>
		<g>
			<path style="fill:#3BAFDA;" d="M73.304,532.822c11.596,0,21.008,9.444,21.008,21.024c0,11.581-9.412,21.024-21.008,21.024
				c-11.614,0-21.008-9.443-21.008-21.024C52.296,542.267,61.69,532.822,73.304,532.822z"/>
		</g>
		<g>
			<path style="fill:#3BAFDA;" d="M73.304,479.569c11.596,0,21.008,9.393,21.008,20.973c0,11.632-9.412,21.024-21.008,21.024
				c-11.614,0-21.008-9.393-21.008-21.024C52.296,488.963,61.69,479.569,73.304,479.569z"/>
		</g>
		<g>
			<path style="fill:#3BAFDA;" d="M73.304,426.265c11.596,0,21.008,9.411,21.008,21.024c0,11.58-9.412,20.974-21.008,20.974
				c-11.614,0-21.008-9.393-21.008-20.974C52.296,435.676,61.69,426.265,73.304,426.265z"/>
		</g>
		<g>
			<path style="fill:#3BAFDA;" d="M73.304,372.978c11.596,0,21.008,9.393,21.008,21.007c0,11.597-9.412,21.024-21.008,21.024
				c-11.614,0-21.008-9.427-21.008-21.024C52.296,382.371,61.69,372.978,73.304,372.978z"/>
		</g>
		<g>
			<path style="fill:#3BAFDA;" d="M73.304,319.708c11.596,0,21.008,9.393,21.008,20.99c0,11.614-9.412,21.007-21.008,21.007
				c-11.614,0-21.008-9.394-21.008-21.007C52.296,329.101,61.69,319.708,73.304,319.708z"/>
		</g>
		<g>
			<path style="fill:#3BAFDA;" d="M73.304,266.42c11.596,0,21.008,9.427,21.008,21.007c0,11.596-9.412,21.024-21.008,21.024
				c-11.614,0-21.008-9.428-21.008-21.024C52.296,275.848,61.69,266.42,73.304,266.42z"/>
		</g>
		<g>
			<path style="fill:#3BAFDA;" d="M73.304,213.115c11.596,0,21.008,9.427,21.008,21.025c0,11.579-9.412,21.007-21.008,21.007
				c-11.614,0-21.008-9.428-21.008-21.007C52.296,222.542,61.69,213.115,73.304,213.115z"/>
		</g>
		<g>
			<path style="fill:#3BAFDA;" d="M73.304,159.862c11.596,0,21.008,9.393,21.008,20.973c0,11.614-9.412,21.025-21.008,21.025
				c-11.614,0-21.008-9.412-21.008-21.025C52.296,169.255,61.69,159.862,73.304,159.862z"/>
		</g>
		<g>
			<path style="fill:#3BAFDA;" d="M125.584,745.988c11.613,0,21.024,9.395,21.024,20.974c0,11.63-9.411,21.024-21.024,21.024
				c-11.597,0-20.991-9.395-20.991-21.024C104.593,755.383,113.987,745.988,125.584,745.988z"/>
		</g>
		<g>
			<path style="fill:#3BAFDA;" d="M125.584,692.685c11.613,0,21.024,9.428,21.024,21.024c0,11.581-9.411,21.007-21.024,21.007
				c-11.597,0-20.991-9.426-20.991-21.007C104.593,702.112,113.987,692.685,125.584,692.685z"/>
		</g>
		<g>
			<path style="fill:#3BAFDA;" d="M125.584,639.396c11.613,0,21.024,9.429,21.024,21.008s-9.411,21.024-21.024,21.024
				c-11.597,0-20.991-9.445-20.991-21.024S113.987,639.396,125.584,639.396z"/>
		</g>
		<g>
			<path style="fill:#3BAFDA;" d="M125.584,586.128c11.613,0,21.024,9.393,21.024,21.024c0,11.579-9.411,20.973-21.024,20.973
				c-11.597,0-20.991-9.393-20.991-20.973C104.593,595.521,113.987,586.128,125.584,586.128z"/>
		</g>
		<g>
			<path style="fill:#3BAFDA;" d="M125.584,532.822c11.613,0,21.024,9.444,21.024,21.024c0,11.581-9.411,21.024-21.024,21.024
				c-11.597,0-20.991-9.443-20.991-21.024C104.593,542.267,113.987,532.822,125.584,532.822z"/>
		</g>
		<g>
			<path style="fill:#3BAFDA;" d="M125.584,479.569c11.613,0,21.024,9.393,21.024,20.973c0,11.632-9.411,21.024-21.024,21.024
				c-11.597,0-20.991-9.393-20.991-21.024C104.593,488.963,113.987,479.569,125.584,479.569z"/>
		</g>
		<g>
			<path style="fill:#3BAFDA;" d="M125.584,426.265c11.613,0,21.024,9.411,21.024,21.024c0,11.58-9.411,20.974-21.024,20.974
				c-11.597,0-20.991-9.393-20.991-20.974C104.593,435.676,113.987,426.265,125.584,426.265z"/>
		</g>
		<g>
			<path style="fill:#3BAFDA;" d="M125.584,372.978c11.613,0,21.024,9.393,21.024,21.007c0,11.597-9.411,21.024-21.024,21.024
				c-11.597,0-20.991-9.427-20.991-21.024C104.593,382.371,113.987,372.978,125.584,372.978z"/>
		</g>
		<g>
			<path style="fill:#3BAFDA;" d="M125.584,319.708c11.613,0,21.024,9.393,21.024,20.99c0,11.614-9.411,21.007-21.024,21.007
				c-11.597,0-20.991-9.394-20.991-21.007C104.593,329.101,113.987,319.708,125.584,319.708z"/>
		</g>
		<g>
			<path style="fill:#3BAFDA;" d="M177.88,745.988c11.614,0,21.008,9.395,21.008,20.974c0,11.63-9.394,21.024-21.008,21.024
				c-11.596,0-20.991-9.395-20.991-21.024C156.89,755.383,166.284,745.988,177.88,745.988z"/>
		</g>
		<g>
			<path style="fill:#3BAFDA;" d="M177.88,692.685c11.614,0,21.008,9.428,21.008,21.024c0,11.581-9.394,21.007-21.008,21.007
				c-11.596,0-20.991-9.426-20.991-21.007C156.89,702.112,166.284,692.685,177.88,692.685z"/>
		</g>
		<g>
			<path style="fill:#3BAFDA;" d="M177.88,639.396c11.614,0,21.008,9.429,21.008,21.008s-9.394,21.024-21.008,21.024
				c-11.596,0-20.991-9.445-20.991-21.024S166.284,639.396,177.88,639.396z"/>
		</g>
		<g>
			<path style="fill:#3BAFDA;" d="M177.88,586.128c11.614,0,21.008,9.393,21.008,21.024c0,11.579-9.394,20.973-21.008,20.973
				c-11.596,0-20.991-9.393-20.991-20.973C156.89,595.521,166.284,586.128,177.88,586.128z"/>
		</g>
		<g>
			<path style="fill:#3BAFDA;" d="M177.88,532.822c11.614,0,21.008,9.444,21.008,21.024c0,11.581-9.394,21.024-21.008,21.024
				c-11.596,0-20.991-9.443-20.991-21.024C156.89,542.267,166.284,532.822,177.88,532.822z"/>
		</g>
		<g>
			<path style="fill:#3BAFDA;" d="M177.88,479.569c11.614,0,21.008,9.393,21.008,20.973c0,11.632-9.394,21.024-21.008,21.024
				c-11.596,0-20.991-9.393-20.991-21.024C156.89,488.963,166.284,479.569,177.88,479.569z"/>
		</g>
		<g>
			<path style="fill:#3BAFDA;" d="M177.88,426.265c11.614,0,21.008,9.411,21.008,21.024c0,11.58-9.394,20.974-21.008,20.974
				c-11.596,0-20.991-9.393-20.991-20.974C156.89,435.676,166.284,426.265,177.88,426.265z"/>
		</g>
		<g>
			<path style="fill:#3BAFDA;" d="M177.88,372.978c11.614,0,21.008,9.393,21.008,21.007c0,11.597-9.394,21.024-21.008,21.024
				c-11.596,0-20.991-9.427-20.991-21.024C156.89,382.371,166.284,372.978,177.88,372.978z"/>
		</g>
		<g>
			<path style="fill:#3BAFDA;" d="M177.88,319.708c11.614,0,21.008,9.393,21.008,20.99c0,11.614-9.394,21.007-21.008,21.007
				c-11.596,0-20.991-9.394-20.991-21.007C156.89,329.101,166.284,319.708,177.88,319.708z"/>
		</g>
		<g>
			<path style="fill:#3BAFDA;" d="M177.88,266.42c11.614,0,21.008,9.427,21.008,21.007c0,11.596-9.394,21.024-21.008,21.024
				c-11.596,0-20.991-9.428-20.991-21.024C156.89,275.848,166.284,266.42,177.88,266.42z"/>
		</g>
		<g>
			<path style="fill:#3BAFDA;" d="M177.88,213.115c11.614,0,21.008,9.427,21.008,21.025c0,11.579-9.394,21.007-21.008,21.007
				c-11.596,0-20.991-9.428-20.991-21.007C156.89,222.542,166.284,213.115,177.88,213.115z"/>
		</g>
		<g>
			<path style="fill:#3BAFDA;" d="M230.177,745.988c11.597,0,21.024,9.395,21.024,20.974c0,11.63-9.428,21.024-21.024,21.024
				s-21.024-9.395-21.024-21.024C209.153,755.383,218.581,745.988,230.177,745.988z"/>
		</g>
		<g>
			<path style="fill:#3BAFDA;" d="M230.177,692.685c11.597,0,21.024,9.428,21.024,21.024c0,11.581-9.428,21.007-21.024,21.007
				s-21.024-9.426-21.024-21.007C209.153,702.112,218.581,692.685,230.177,692.685z"/>
		</g>
		<g>
			<path style="fill:#3BAFDA;" d="M230.177,639.396c11.597,0,21.024,9.429,21.024,21.008s-9.428,21.024-21.024,21.024
				s-21.024-9.445-21.024-21.024S218.581,639.396,230.177,639.396z"/>
		</g>
		<g>
			<path style="fill:#3BAFDA;" d="M230.177,586.128c11.597,0,21.024,9.393,21.024,21.024c0,11.579-9.428,20.973-21.024,20.973
				s-21.024-9.393-21.024-20.973C209.153,595.521,218.581,586.128,230.177,586.128z"/>
		</g>
		<g>
			<path style="fill:#3BAFDA;" d="M230.177,532.822c11.597,0,21.024,9.444,21.024,21.024c0,11.581-9.428,21.024-21.024,21.024
				s-21.024-9.443-21.024-21.024C209.153,542.267,218.581,532.822,230.177,532.822z"/>
		</g>
		<g>
			<path style="fill:#3BAFDA;" d="M230.177,479.569c11.597,0,21.024,9.393,21.024,20.973c0,11.632-9.428,21.024-21.024,21.024
				s-21.024-9.393-21.024-21.024C209.153,488.963,218.581,479.569,230.177,479.569z"/>
		</g>
		<g>
			<path style="fill:#3BAFDA;" d="M230.177,426.265c11.597,0,21.024,9.411,21.024,21.024c0,11.58-9.428,20.974-21.024,20.974
				s-21.024-9.393-21.024-20.974C209.153,435.676,218.581,426.265,230.177,426.265z"/>
		</g>
		<g>
			<path style="fill:#3BAFDA;" d="M230.177,372.978c11.597,0,21.024,9.393,21.024,21.007c0,11.597-9.428,21.024-21.024,21.024
				s-21.024-9.427-21.024-21.024C209.153,382.371,218.581,372.978,230.177,372.978z"/>
		</g>
		<g>
			<path style="fill:#3BAFDA;" d="M230.177,319.708c11.597,0,21.024,9.393,21.024,20.99c0,11.614-9.428,21.007-21.024,21.007
				s-21.024-9.394-21.024-21.007C209.153,329.101,218.581,319.708,230.177,319.708z"/>
		</g>
		<g>
			<path style="fill:#3BAFDA;" d="M230.177,266.42c11.597,0,21.024,9.427,21.024,21.007c0,11.596-9.428,21.024-21.024,21.024
				s-21.024-9.428-21.024-21.024C209.153,275.848,218.581,266.42,230.177,266.42z"/>
		</g>
		<g>
			<path style="fill:#3BAFDA;" d="M230.177,213.115c11.597,0,21.024,9.427,21.024,21.025c0,11.579-9.428,21.007-21.024,21.007
				s-21.024-9.428-21.024-21.007C209.153,222.542,218.581,213.115,230.177,213.115z"/>
		</g>
		<g>
			<path style="fill:#3BAFDA;" d="M230.177,159.862c11.597,0,21.024,9.393,21.024,20.973c0,11.614-9.428,21.025-21.024,21.025
				s-21.024-9.412-21.024-21.025C209.153,169.255,218.581,159.862,230.177,159.862z"/>
		</g>
		<g>
			<path style="fill:#3BAFDA;" d="M282.474,745.988c11.597,0,20.991,9.395,20.991,20.974c0,11.63-9.393,21.024-20.991,21.024
				c-11.596,0-21.008-9.395-21.008-21.024C261.466,755.383,270.877,745.988,282.474,745.988z"/>
		</g>
		<g>
			<path style="fill:#3BAFDA;" d="M282.474,692.685c11.597,0,20.991,9.428,20.991,21.024c0,11.581-9.393,21.007-20.991,21.007
				c-11.596,0-21.008-9.426-21.008-21.007C261.466,702.112,270.877,692.685,282.474,692.685z"/>
		</g>
		<g>
			<path style="fill:#3BAFDA;" d="M282.474,639.396c11.597,0,20.991,9.429,20.991,21.008s-9.393,21.024-20.991,21.024
				c-11.596,0-21.008-9.445-21.008-21.024S270.877,639.396,282.474,639.396z"/>
		</g>
		<g>
			<path style="fill:#3BAFDA;" d="M282.474,586.128c11.597,0,20.991,9.393,20.991,21.024c0,11.579-9.393,20.973-20.991,20.973
				c-11.596,0-21.008-9.393-21.008-20.973C261.466,595.521,270.877,586.128,282.474,586.128z"/>
		</g>
		<g>
			<path style="fill:#3BAFDA;" d="M282.474,532.822c11.597,0,20.991,9.444,20.991,21.024c0,11.581-9.393,21.024-20.991,21.024
				c-11.596,0-21.008-9.443-21.008-21.024C261.466,542.267,270.877,532.822,282.474,532.822z"/>
		</g>
		<g>
			<path style="fill:#3BAFDA;" d="M282.474,479.569c11.597,0,20.991,9.393,20.991,20.973c0,11.632-9.393,21.024-20.991,21.024
				c-11.596,0-21.008-9.393-21.008-21.024C261.466,488.963,270.877,479.569,282.474,479.569z"/>
		</g>
		<g>
			<path style="fill:#3BAFDA;" d="M282.474,426.265c11.597,0,20.991,9.411,20.991,21.024c0,11.58-9.393,20.974-20.991,20.974
				c-11.596,0-21.008-9.393-21.008-20.974C261.466,435.676,270.877,426.265,282.474,426.265z"/>
		</g>
		<g>
			<path style="fill:#3BAFDA;" d="M282.474,372.978c11.597,0,20.991,9.393,20.991,21.007c0,11.597-9.393,21.024-20.991,21.024
				c-11.596,0-21.008-9.427-21.008-21.024C261.466,382.371,270.877,372.978,282.474,372.978z"/>
		</g>
		<g>
			<path style="fill:#3BAFDA;" d="M334.77,745.988c11.581,0,20.991,9.395,20.991,20.974c0,11.63-9.41,21.024-20.991,21.024
				c-11.63,0-21.024-9.395-21.024-21.024C313.746,755.383,323.14,745.988,334.77,745.988z"/>
		</g>
		<g>
			<path style="fill:#3BAFDA;" d="M334.77,692.685c11.581,0,20.991,9.428,20.991,21.024c0,11.581-9.41,21.007-20.991,21.007
				c-11.63,0-21.024-9.426-21.024-21.007C313.746,702.112,323.14,692.685,334.77,692.685z"/>
		</g>
		<g>
			<path style="fill:#3BAFDA;" d="M334.77,639.396c11.581,0,20.991,9.429,20.991,21.008s-9.41,21.024-20.991,21.024
				c-11.63,0-21.024-9.445-21.024-21.024S323.14,639.396,334.77,639.396z"/>
		</g>
		<g>
			<path style="fill:#3BAFDA;" d="M334.77,586.128c11.581,0,20.991,9.393,20.991,21.024c0,11.579-9.41,20.973-20.991,20.973
				c-11.63,0-21.024-9.393-21.024-20.973C313.746,595.521,323.14,586.128,334.77,586.128z"/>
		</g>
		<g>
			<path style="fill:#3BAFDA;" d="M334.77,532.822c11.581,0,20.991,9.444,20.991,21.024c0,11.581-9.41,21.024-20.991,21.024
				c-11.63,0-21.024-9.443-21.024-21.024C313.746,542.267,323.14,532.822,334.77,532.822z"/>
		</g>
		<g>
			<path style="fill:#3BAFDA;" d="M387.033,745.988c11.615,0,21.024,9.395,21.024,20.974c0,11.63-9.41,21.024-21.024,21.024
				c-11.597,0-20.991-9.395-20.991-21.024C366.042,755.383,375.436,745.988,387.033,745.988z"/>
		</g>
		<g>
			<path style="fill:#3BAFDA;" d="M387.033,692.685c11.615,0,21.024,9.428,21.024,21.024c0,11.581-9.41,21.007-21.024,21.007
				c-11.597,0-20.991-9.426-20.991-21.007C366.042,702.112,375.436,692.685,387.033,692.685z"/>
		</g>
		<g>
			<path style="fill:#3BAFDA;" d="M387.033,639.396c11.615,0,21.024,9.429,21.024,21.008s-9.41,21.024-21.024,21.024
				c-11.597,0-20.991-9.445-20.991-21.024S375.436,639.396,387.033,639.396z"/>
		</g>
		<g>
			<path style="fill:#3BAFDA;" d="M387.033,586.128c11.615,0,21.024,9.393,21.024,21.024c0,11.579-9.41,20.973-21.024,20.973
				c-11.597,0-20.991-9.393-20.991-20.973C366.042,595.521,375.436,586.128,387.033,586.128z"/>
		</g>
		<g>
			<path style="fill:#3BAFDA;" d="M387.033,532.822c11.615,0,21.024,9.444,21.024,21.024c0,11.581-9.41,21.024-21.024,21.024
				c-11.597,0-20.991-9.443-20.991-21.024C366.042,542.267,375.436,532.822,387.033,532.822z"/>
		</g>
		<g>
			<path style="fill:#3BAFDA;" d="M387.033,479.569c11.615,0,21.024,9.393,21.024,20.973c0,11.632-9.41,21.024-21.024,21.024
				c-11.597,0-20.991-9.393-20.991-21.024C366.042,488.963,375.436,479.569,387.033,479.569z"/>
		</g>
		<g>
			<path style="fill:#3BAFDA;" d="M387.033,426.265c11.615,0,21.024,9.411,21.024,21.024c0,11.58-9.41,20.974-21.024,20.974
				c-11.597,0-20.991-9.393-20.991-20.974C366.042,435.676,375.436,426.265,387.033,426.265z"/>
		</g>
		<g>
			<path style="fill:#3BAFDA;" d="M387.033,372.978c11.615,0,21.024,9.393,21.024,21.007c0,11.597-9.41,21.024-21.024,21.024
				c-11.597,0-20.991-9.427-20.991-21.024C366.042,382.371,375.436,372.978,387.033,372.978z"/>
		</g>
		<g>
			<path style="fill:#3BAFDA;" d="M387.033,319.708c11.615,0,21.024,9.393,21.024,20.99c0,11.614-9.41,21.007-21.024,21.007
				c-11.597,0-20.991-9.394-20.991-21.007C366.042,329.101,375.436,319.708,387.033,319.708z"/>
		</g>
		<g>
			<path style="fill:#3BAFDA;" d="M387.033,266.42c11.615,0,21.024,9.427,21.024,21.007c0,11.596-9.41,21.024-21.024,21.024
				c-11.597,0-20.991-9.428-20.991-21.024C366.042,275.848,375.436,266.42,387.033,266.42z"/>
		</g>
		<g>
			<path style="fill:#3BAFDA;" d="M387.033,213.115c11.615,0,21.024,9.427,21.024,21.025c0,11.579-9.41,21.007-21.024,21.007
				c-11.597,0-20.991-9.428-20.991-21.007C366.042,222.542,375.436,213.115,387.033,213.115z"/>
		</g>
		<g>
			<path style="fill:#3BAFDA;" d="M387.033,159.862c11.615,0,21.024,9.393,21.024,20.973c0,11.614-9.41,21.025-21.024,21.025
				c-11.597,0-20.991-9.412-20.991-21.025C366.042,169.255,375.436,159.862,387.033,159.862z"/>
		</g>
		<g>
			<path style="fill:#3BAFDA;" d="M387.033,106.558c11.615,0,21.024,9.393,21.024,21.024c0,11.58-9.41,21.007-21.024,21.007
				c-11.597,0-20.991-9.428-20.991-21.007C366.042,115.951,375.436,106.558,387.033,106.558z"/>
		</g>
		<g>
			<path style="fill:#3BAFDA;" d="M387.033,53.254c11.615,0,21.024,9.444,21.024,21.024c0,11.579-9.41,21.024-21.024,21.024
				c-11.597,0-20.991-9.445-20.991-21.024C366.042,62.698,375.436,53.254,387.033,53.254z"/>
		</g>
		<g>
			<path style="fill:#3BAFDA;" d="M439.331,745.988c11.613,0,21.023,9.395,21.023,20.974c0,11.63-9.41,21.024-21.023,21.024
				c-11.598,0-21.008-9.395-21.008-21.024C418.323,755.383,427.733,745.988,439.331,745.988z"/>
		</g>
		<g>
			<path style="fill:#3BAFDA;" d="M439.331,692.685c11.613,0,21.023,9.428,21.023,21.024c0,11.581-9.41,21.007-21.023,21.007
				c-11.598,0-21.008-9.426-21.008-21.007C418.323,702.112,427.733,692.685,439.331,692.685z"/>
		</g>
		<g>
			<path style="fill:#3BAFDA;" d="M439.331,639.396c11.613,0,21.023,9.429,21.023,21.008s-9.41,21.024-21.023,21.024
				c-11.598,0-21.008-9.445-21.008-21.024S427.733,639.396,439.331,639.396z"/>
		</g>
		<g>
			<path style="fill:#3BAFDA;" d="M439.331,586.128c11.613,0,21.023,9.393,21.023,21.024c0,11.579-9.41,20.973-21.023,20.973
				c-11.598,0-21.008-9.393-21.008-20.973C418.323,595.521,427.733,586.128,439.331,586.128z"/>
		</g>
		<g>
			<path style="fill:#3BAFDA;" d="M439.331,532.822c11.613,0,21.023,9.444,21.023,21.024c0,11.581-9.41,21.024-21.023,21.024
				c-11.598,0-21.008-9.443-21.008-21.024C418.323,542.267,427.733,532.822,439.331,532.822z"/>
		</g>
		<g>
			<path style="fill:#3BAFDA;" d="M439.331,479.569c11.613,0,21.023,9.393,21.023,20.973c0,11.632-9.41,21.024-21.023,21.024
				c-11.598,0-21.008-9.393-21.008-21.024C418.323,488.963,427.733,479.569,439.331,479.569z"/>
		</g>
		<g>
			<path style="fill:#3BAFDA;" d="M439.331,426.265c11.613,0,21.023,9.411,21.023,21.024c0,11.58-9.41,20.974-21.023,20.974
				c-11.598,0-21.008-9.393-21.008-20.974C418.323,435.676,427.733,426.265,439.331,426.265z"/>
		</g>
		<g>
			<path style="fill:#3BAFDA;" d="M439.331,372.978c11.613,0,21.023,9.393,21.023,21.007c0,11.597-9.41,21.024-21.023,21.024
				c-11.598,0-21.008-9.427-21.008-21.024C418.323,382.371,427.733,372.978,439.331,372.978z"/>
		</g>
		<g>
			<path style="fill:#3BAFDA;" d="M439.331,319.708c11.613,0,21.023,9.393,21.023,20.99c0,11.614-9.41,21.007-21.023,21.007
				c-11.598,0-21.008-9.394-21.008-21.007C418.323,329.101,427.733,319.708,439.331,319.708z"/>
		</g>
		<g>
			<path style="fill:#3BAFDA;" d="M439.331,266.42c11.613,0,21.023,9.427,21.023,21.007c0,11.596-9.41,21.024-21.023,21.024
				c-11.598,0-21.008-9.428-21.008-21.024C418.323,275.848,427.733,266.42,439.331,266.42z"/>
		</g>
		<g>
			<path style="fill:#3BAFDA;" d="M439.331,213.115c11.613,0,21.023,9.427,21.023,21.025c0,11.579-9.41,21.007-21.023,21.007
				c-11.598,0-21.008-9.428-21.008-21.007C418.323,222.542,427.733,213.115,439.331,213.115z"/>
		</g>
		<g>
			<path style="fill:#3BAFDA;" d="M439.331,159.862c11.613,0,21.023,9.393,21.023,20.973c0,11.614-9.41,21.025-21.023,21.025
				c-11.598,0-21.008-9.412-21.008-21.025C418.323,169.255,427.733,159.862,439.331,159.862z"/>
		</g>
		<g>
			<path style="fill:#3BAFDA;" d="M491.625,745.988c11.598,0,21.027,9.395,21.027,20.974c0,11.63-9.43,21.024-21.027,21.024
				c-11.596,0-21.023-9.395-21.023-21.024C470.602,755.383,480.03,745.988,491.625,745.988z"/>
		</g>
		<g>
			<path style="fill:#3BAFDA;" d="M491.625,692.685c11.598,0,21.027,9.428,21.027,21.024c0,11.581-9.43,21.007-21.027,21.007
				c-11.596,0-21.023-9.426-21.023-21.007C470.602,702.112,480.03,692.685,491.625,692.685z"/>
		</g>
		<g>
			<path style="fill:#3BAFDA;" d="M491.625,639.396c11.598,0,21.027,9.429,21.027,21.008s-9.43,21.024-21.027,21.024
				c-11.596,0-21.023-9.445-21.023-21.024S480.03,639.396,491.625,639.396z"/>
		</g>
		<g>
			<path style="fill:#3BAFDA;" d="M491.625,586.128c11.598,0,21.027,9.393,21.027,21.024c0,11.579-9.43,20.973-21.027,20.973
				c-11.596,0-21.023-9.393-21.023-20.973C470.602,595.521,480.03,586.128,491.625,586.128z"/>
		</g>
		<g>
			<path style="fill:#3BAFDA;" d="M491.625,532.822c11.598,0,21.027,9.444,21.027,21.024c0,11.581-9.43,21.024-21.027,21.024
				c-11.596,0-21.023-9.443-21.023-21.024C470.602,542.267,480.03,532.822,491.625,532.822z"/>
		</g>
		<g>
			<path style="fill:#3BAFDA;" d="M491.625,479.569c11.598,0,21.027,9.393,21.027,20.973c0,11.632-9.43,21.024-21.027,21.024
				c-11.596,0-21.023-9.393-21.023-21.024C470.602,488.963,480.03,479.569,491.625,479.569z"/>
		</g>
		<g>
			<path style="fill:#3BAFDA;" d="M491.625,426.265c11.598,0,21.027,9.411,21.027,21.024c0,11.58-9.43,20.974-21.027,20.974
				c-11.596,0-21.023-9.393-21.023-20.974C470.602,435.676,480.03,426.265,491.625,426.265z"/>
		</g>
		<g>
			<path style="fill:#3BAFDA;" d="M491.625,372.978c11.598,0,21.027,9.393,21.027,21.007c0,11.597-9.43,21.024-21.027,21.024
				c-11.596,0-21.023-9.427-21.023-21.024C470.602,382.371,480.03,372.978,491.625,372.978z"/>
		</g>
		<g>
			<path style="fill:#3BAFDA;" d="M491.625,319.708c11.598,0,21.027,9.393,21.027,20.99c0,11.614-9.43,21.007-21.027,21.007
				c-11.596,0-21.023-9.394-21.023-21.007C470.602,329.101,480.03,319.708,491.625,319.708z"/>
		</g>
		<g>
			<path style="fill:#3BAFDA;" d="M491.625,266.42c11.598,0,21.027,9.427,21.027,21.007c0,11.596-9.43,21.024-21.027,21.024
				c-11.596,0-21.023-9.428-21.023-21.024C470.602,275.848,480.03,266.42,491.625,266.42z"/>
		</g>
		<g>
			<path style="fill:#3BAFDA;" d="M543.924,745.988c11.596,0,20.99,9.395,20.99,20.974c0,11.63-9.394,21.024-20.99,21.024
				c-11.615,0-21.025-9.395-21.025-21.024C522.899,755.383,532.309,745.988,543.924,745.988z"/>
		</g>
		<g>
			<path style="fill:#3BAFDA;" d="M543.924,692.685c11.596,0,20.99,9.428,20.99,21.024c0,11.581-9.394,21.007-20.99,21.007
				c-11.615,0-21.025-9.426-21.025-21.007C522.899,702.112,532.309,692.685,543.924,692.685z"/>
		</g>
		<g>
			<path style="fill:#3BAFDA;" d="M543.924,639.396c11.596,0,20.99,9.429,20.99,21.008s-9.394,21.024-20.99,21.024
				c-11.615,0-21.025-9.445-21.025-21.024S532.309,639.396,543.924,639.396z"/>
		</g>
		<g>
			<path style="fill:#3BAFDA;" d="M543.924,586.128c11.596,0,20.99,9.393,20.99,21.024c0,11.579-9.394,20.973-20.99,20.973
				c-11.615,0-21.025-9.393-21.025-20.973C522.899,595.521,532.309,586.128,543.924,586.128z"/>
		</g>
		<g>
			<path style="fill:#3BAFDA;" d="M543.924,532.822c11.596,0,20.99,9.444,20.99,21.024c0,11.581-9.394,21.024-20.99,21.024
				c-11.615,0-21.025-9.443-21.025-21.024C522.899,542.267,532.309,532.822,543.924,532.822z"/>
		</g>
		<g>
			<path style="fill:#3BAFDA;" d="M543.924,479.569c11.596,0,20.99,9.393,20.99,20.973c0,11.632-9.394,21.024-20.99,21.024
				c-11.615,0-21.025-9.393-21.025-21.024C522.899,488.963,532.309,479.569,543.924,479.569z"/>
		</g>
		<g>
			<path style="fill:#3BAFDA;" d="M543.924,426.265c11.596,0,20.99,9.411,20.99,21.024c0,11.58-9.394,20.974-20.99,20.974
				c-11.615,0-21.025-9.393-21.025-20.974C522.899,435.676,532.309,426.265,543.924,426.265z"/>
		</g>
		<g>
			<path style="fill:#3BAFDA;" d="M543.924,372.978c11.596,0,20.99,9.393,20.99,21.007c0,11.597-9.394,21.024-20.99,21.024
				c-11.615,0-21.025-9.427-21.025-21.024C522.899,382.371,532.309,372.978,543.924,372.978z"/>
		</g>
		<g>
			<path style="fill:#3BAFDA;" d="M543.924,319.708c11.596,0,20.99,9.393,20.99,20.99c0,11.614-9.394,21.007-20.99,21.007
				c-11.615,0-21.025-9.394-21.025-21.007C522.899,329.101,532.309,319.708,543.924,319.708z"/>
		</g>
		<g>
			<path style="fill:#3BAFDA;" d="M543.924,266.42c11.596,0,20.99,9.427,20.99,21.007c0,11.596-9.394,21.024-20.99,21.024
				c-11.615,0-21.025-9.428-21.025-21.024C522.899,275.848,532.309,266.42,543.924,266.42z"/>
		</g>
		<g>
			<path style="fill:#3BAFDA;" d="M543.924,213.115c11.596,0,20.99,9.427,20.99,21.025c0,11.579-9.394,21.007-20.99,21.007
				c-11.615,0-21.025-9.428-21.025-21.007C522.899,222.542,532.309,213.115,543.924,213.115z"/>
		</g>
		<g>
			<path style="fill:#3BAFDA;" d="M596.221,745.988c11.58,0,20.99,9.395,20.99,20.974c0,11.63-9.41,21.024-20.99,21.024
				c-11.631,0-21.025-9.395-21.025-21.024C575.196,755.383,584.59,745.988,596.221,745.988z"/>
		</g>
		<g>
			<path style="fill:#3BAFDA;" d="M596.221,692.685c11.58,0,20.99,9.428,20.99,21.024c0,11.581-9.41,21.007-20.99,21.007
				c-11.631,0-21.025-9.426-21.025-21.007C575.196,702.112,584.59,692.685,596.221,692.685z"/>
		</g>
		<g>
			<path style="fill:#3BAFDA;" d="M596.221,639.396c11.58,0,20.99,9.429,20.99,21.008s-9.41,21.024-20.99,21.024
				c-11.631,0-21.025-9.445-21.025-21.024S584.59,639.396,596.221,639.396z"/>
		</g>
		<g>
			<path style="fill:#3BAFDA;" d="M596.221,586.128c11.58,0,20.99,9.393,20.99,21.024c0,11.579-9.41,20.973-20.99,20.973
				c-11.631,0-21.025-9.393-21.025-20.973C575.196,595.521,584.59,586.128,596.221,586.128z"/>
		</g>
		<g>
			<path style="fill:#3BAFDA;" d="M596.221,532.822c11.58,0,20.99,9.444,20.99,21.024c0,11.581-9.41,21.024-20.99,21.024
				c-11.631,0-21.025-9.443-21.025-21.024C575.196,542.267,584.59,532.822,596.221,532.822z"/>
		</g>
		<g>
			<path style="fill:#3BAFDA;" d="M596.221,479.569c11.58,0,20.99,9.393,20.99,20.973c0,11.632-9.41,21.024-20.99,21.024
				c-11.631,0-21.025-9.393-21.025-21.024C575.196,488.963,584.59,479.569,596.221,479.569z"/>
		</g>
		<g>
			<path style="fill:#3BAFDA;" d="M596.221,426.265c11.58,0,20.99,9.411,20.99,21.024c0,11.58-9.41,20.974-20.99,20.974
				c-11.631,0-21.025-9.393-21.025-20.974C575.196,435.676,584.59,426.265,596.221,426.265z"/>
		</g>
		<g>
			<path style="fill:#3BAFDA;" d="M596.221,372.978c11.58,0,20.99,9.393,20.99,21.007c0,11.597-9.41,21.024-20.99,21.024
				c-11.631,0-21.025-9.427-21.025-21.024C575.196,382.371,584.59,372.978,596.221,372.978z"/>
		</g>
		<g>
			<path style="fill:#3BAFDA;" d="M596.221,319.708c11.58,0,20.99,9.393,20.99,20.99c0,11.614-9.41,21.007-20.99,21.007
				c-11.631,0-21.025-9.394-21.025-21.007C575.196,329.101,584.59,319.708,596.221,319.708z"/>
		</g>
		<g>
			<path style="fill:#3BAFDA;" d="M596.221,266.42c11.58,0,20.99,9.427,20.99,21.007c0,11.596-9.41,21.024-20.99,21.024
				c-11.631,0-21.025-9.428-21.025-21.024C575.196,275.848,584.59,266.42,596.221,266.42z"/>
		</g>
		<g>
			<path style="fill:#3BAFDA;" d="M596.221,213.115c11.58,0,20.99,9.427,20.99,21.025c0,11.579-9.41,21.007-20.99,21.007
				c-11.631,0-21.025-9.428-21.025-21.007C575.196,222.542,584.59,213.115,596.221,213.115z"/>
		</g>
		<g>
			<path style="fill:#3BAFDA;" d="M596.221,159.862c11.58,0,20.99,9.393,20.99,20.973c0,11.614-9.41,21.025-20.99,21.025
				c-11.631,0-21.025-9.412-21.025-21.025C575.196,169.255,584.59,159.862,596.221,159.862z"/>
		</g>
		<g>
			<path style="fill:#3BAFDA;" d="M596.221,106.558c11.58,0,20.99,9.393,20.99,21.024c0,11.58-9.41,21.007-20.99,21.007
				c-11.631,0-21.025-9.428-21.025-21.007C575.196,115.951,584.59,106.558,596.221,106.558z"/>
		</g>
		<g>
			<path style="fill:#3BAFDA;" d="M648.483,745.988c11.613,0,21.025,9.395,21.025,20.974c0,11.63-9.412,21.024-21.025,21.024
				c-11.598,0-20.99-9.395-20.99-21.024C627.493,755.383,636.885,745.988,648.483,745.988z"/>
		</g>
		<g>
			<path style="fill:#3BAFDA;" d="M648.483,692.685c11.613,0,21.025,9.428,21.025,21.024c0,11.581-9.412,21.007-21.025,21.007
				c-11.598,0-20.99-9.426-20.99-21.007C627.493,702.112,636.885,692.685,648.483,692.685z"/>
		</g>
		<g>
			<path style="fill:#3BAFDA;" d="M648.483,639.396c11.613,0,21.025,9.429,21.025,21.008s-9.412,21.024-21.025,21.024
				c-11.598,0-20.99-9.445-20.99-21.024S636.885,639.396,648.483,639.396z"/>
		</g>
		<g>
			<path style="fill:#3BAFDA;" d="M648.483,586.128c11.613,0,21.025,9.393,21.025,21.024c0,11.579-9.412,20.973-21.025,20.973
				c-11.598,0-20.99-9.393-20.99-20.973C627.493,595.521,636.885,586.128,648.483,586.128z"/>
		</g>
		<g>
			<path style="fill:#3BAFDA;" d="M648.483,532.822c11.613,0,21.025,9.444,21.025,21.024c0,11.581-9.412,21.024-21.025,21.024
				c-11.598,0-20.99-9.443-20.99-21.024C627.493,542.267,636.885,532.822,648.483,532.822z"/>
		</g>
		<g>
			<path style="fill:#3BAFDA;" d="M648.483,479.569c11.613,0,21.025,9.393,21.025,20.973c0,11.632-9.412,21.024-21.025,21.024
				c-11.598,0-20.99-9.393-20.99-21.024C627.493,488.963,636.885,479.569,648.483,479.569z"/>
		</g>
		<g>
			<path style="fill:#3BAFDA;" d="M648.483,426.265c11.613,0,21.025,9.411,21.025,21.024c0,11.58-9.412,20.974-21.025,20.974
				c-11.598,0-20.99-9.393-20.99-20.974C627.493,435.676,636.885,426.265,648.483,426.265z"/>
		</g>
		<g>
			<path style="fill:#3BAFDA;" d="M648.483,372.978c11.613,0,21.025,9.393,21.025,21.007c0,11.597-9.412,21.024-21.025,21.024
				c-11.598,0-20.99-9.427-20.99-21.024C627.493,382.371,636.885,372.978,648.483,372.978z"/>
		</g>
		<g>
			<path style="fill:#3BAFDA;" d="M648.483,319.708c11.613,0,21.025,9.393,21.025,20.99c0,11.614-9.412,21.007-21.025,21.007
				c-11.598,0-20.99-9.394-20.99-21.007C627.493,329.101,636.885,319.708,648.483,319.708z"/>
		</g>
		<g>
			<path style="fill:#3BAFDA;" d="M700.78,745.988c11.613,0,21.006,9.395,21.006,20.974c0,11.63-9.393,21.024-21.006,21.024
				c-11.598,0-20.99-9.395-20.99-21.024C679.789,755.383,689.182,745.988,700.78,745.988z"/>
		</g>
		<g>
			<path style="fill:#3BAFDA;" d="M700.78,692.685c11.613,0,21.006,9.428,21.006,21.024c0,11.581-9.393,21.007-21.006,21.007
				c-11.598,0-20.99-9.426-20.99-21.007C679.789,702.112,689.182,692.685,700.78,692.685z"/>
		</g>
		<g>
			<path style="fill:#3BAFDA;" d="M700.78,639.396c11.613,0,21.006,9.429,21.006,21.008s-9.393,21.024-21.006,21.024
				c-11.598,0-20.99-9.445-20.99-21.024S689.182,639.396,700.78,639.396z"/>
		</g>
		<g>
			<path style="fill:#3BAFDA;" d="M700.78,586.128c11.613,0,21.006,9.393,21.006,21.024c0,11.579-9.393,20.973-21.006,20.973
				c-11.598,0-20.99-9.393-20.99-20.973C679.789,595.521,689.182,586.128,700.78,586.128z"/>
		</g>
		<g>
			<path style="fill:#3BAFDA;" d="M700.78,532.822c11.613,0,21.006,9.444,21.006,21.024c0,11.581-9.393,21.024-21.006,21.024
				c-11.598,0-20.99-9.443-20.99-21.024C679.789,542.267,689.182,532.822,700.78,532.822z"/>
		</g>
		<g>
			<path style="fill:#3BAFDA;" d="M700.78,479.569c11.613,0,21.006,9.393,21.006,20.973c0,11.632-9.393,21.024-21.006,21.024
				c-11.598,0-20.99-9.393-20.99-21.024C679.789,488.963,689.182,479.569,700.78,479.569z"/>
		</g>
		<g>
			<path style="fill:#3BAFDA;" d="M700.78,426.265c11.613,0,21.006,9.411,21.006,21.024c0,11.58-9.393,20.974-21.006,20.974
				c-11.598,0-20.99-9.393-20.99-20.974C679.789,435.676,689.182,426.265,700.78,426.265z"/>
		</g>
		<g>
			<path style="fill:#3BAFDA;" d="M700.78,372.978c11.613,0,21.006,9.393,21.006,21.007c0,11.597-9.393,21.024-21.006,21.024
				c-11.598,0-20.99-9.427-20.99-21.024C679.789,382.371,689.182,372.978,700.78,372.978z"/>
		</g>
		<g>
			<path style="fill:#3BAFDA;" d="M753.077,745.988c11.58,0,21.006,9.395,21.006,20.974c0,11.63-9.426,21.024-21.006,21.024
				c-11.598,0-21.023-9.395-21.023-21.024C732.053,755.383,741.479,745.988,753.077,745.988z"/>
		</g>
		<g>
			<path style="fill:#3BAFDA;" d="M753.077,692.685c11.58,0,21.006,9.428,21.006,21.024c0,11.581-9.426,21.007-21.006,21.007
				c-11.598,0-21.023-9.426-21.023-21.007C732.053,702.112,741.479,692.685,753.077,692.685z"/>
		</g>
		<g>
			<path style="fill:#3BAFDA;" d="M753.077,639.396c11.58,0,21.006,9.429,21.006,21.008s-9.426,21.024-21.006,21.024
				c-11.598,0-21.023-9.445-21.023-21.024S741.479,639.396,753.077,639.396z"/>
		</g>
		<g>
			<path style="fill:#3BAFDA;" d="M753.077,586.128c11.58,0,21.006,9.393,21.006,21.024c0,11.579-9.426,20.973-21.006,20.973
				c-11.598,0-21.023-9.393-21.023-20.973C732.053,595.521,741.479,586.128,753.077,586.128z"/>
		</g>
		<g>
			<path style="fill:#3BAFDA;" d="M753.077,532.822c11.58,0,21.006,9.444,21.006,21.024c0,11.581-9.426,21.024-21.006,21.024
				c-11.598,0-21.023-9.443-21.023-21.024C732.053,542.267,741.479,532.822,753.077,532.822z"/>
		</g>
		<g>
			<path style="fill:#3BAFDA;" d="M753.077,479.569c11.58,0,21.006,9.393,21.006,20.973c0,11.632-9.426,21.024-21.006,21.024
				c-11.598,0-21.023-9.393-21.023-21.024C732.053,488.963,741.479,479.569,753.077,479.569z"/>
		</g>
		<g>
			<path style="fill:#3BAFDA;" d="M753.077,426.265c11.58,0,21.006,9.411,21.006,21.024c0,11.58-9.426,20.974-21.006,20.974
				c-11.598,0-21.023-9.393-21.023-20.974C732.053,435.676,741.479,426.265,753.077,426.265z"/>
		</g>
		<g>
			<path style="fill:#3BAFDA;" d="M753.077,372.978c11.58,0,21.006,9.393,21.006,21.007c0,11.597-9.426,21.024-21.006,21.024
				c-11.598,0-21.023-9.427-21.023-21.024C732.053,382.371,741.479,372.978,753.077,372.978z"/>
		</g>
		<g>
			<path style="fill:#3BAFDA;" d="M753.077,319.708c11.58,0,21.006,9.393,21.006,20.99c0,11.614-9.426,21.007-21.006,21.007
				c-11.598,0-21.023-9.394-21.023-21.007C732.053,329.101,741.479,319.708,753.077,319.708z"/>
		</g>
		<g>
			<path style="fill:#3BAFDA;" d="M753.077,266.42c11.58,0,21.006,9.427,21.006,21.007c0,11.596-9.426,21.024-21.006,21.024
				c-11.598,0-21.023-9.428-21.023-21.024C732.053,275.848,741.479,266.42,753.077,266.42z"/>
		</g>
		<g>
			<path style="fill:#3BAFDA;" d="M805.373,745.988c11.596,0,20.99,9.395,20.99,20.974c0,11.63-9.395,21.024-20.99,21.024
				c-11.615,0-21.025-9.395-21.025-21.024C784.348,755.383,793.758,745.988,805.373,745.988z"/>
		</g>
		<g>
			<path style="fill:#3BAFDA;" d="M805.373,692.685c11.596,0,20.99,9.428,20.99,21.024c0,11.581-9.395,21.007-20.99,21.007
				c-11.615,0-21.025-9.426-21.025-21.007C784.348,702.112,793.758,692.685,805.373,692.685z"/>
		</g>
		<g>
			<path style="fill:#3BAFDA;" d="M805.373,639.396c11.596,0,20.99,9.429,20.99,21.008s-9.395,21.024-20.99,21.024
				c-11.615,0-21.025-9.445-21.025-21.024S793.758,639.396,805.373,639.396z"/>
		</g>
		<g>
			<path style="fill:#3BAFDA;" d="M805.373,586.128c11.596,0,20.99,9.393,20.99,21.024c0,11.579-9.395,20.973-20.99,20.973
				c-11.615,0-21.025-9.393-21.025-20.973C784.348,595.521,793.758,586.128,805.373,586.128z"/>
		</g>
		<g>
			<path style="fill:#3BAFDA;" d="M805.373,532.822c11.596,0,20.99,9.444,20.99,21.024c0,11.581-9.395,21.024-20.99,21.024
				c-11.615,0-21.025-9.443-21.025-21.024C784.348,542.267,793.758,532.822,805.373,532.822z"/>
		</g>
		<g>
			<path style="fill:#3BAFDA;" d="M805.373,479.569c11.596,0,20.99,9.393,20.99,20.973c0,11.632-9.395,21.024-20.99,21.024
				c-11.615,0-21.025-9.393-21.025-21.024C784.348,488.963,793.758,479.569,805.373,479.569z"/>
		</g>
		<g>
			<path style="fill:#3BAFDA;" d="M805.373,426.265c11.596,0,20.99,9.411,20.99,21.024c0,11.58-9.395,20.974-20.99,20.974
				c-11.615,0-21.025-9.393-21.025-20.974C784.348,435.676,793.758,426.265,805.373,426.265z"/>
		</g>
		<g>
			<path style="fill:#3BAFDA;" d="M805.373,372.978c11.596,0,20.99,9.393,20.99,21.007c0,11.597-9.395,21.024-20.99,21.024
				c-11.615,0-21.025-9.427-21.025-21.024C784.348,382.371,793.758,372.978,805.373,372.978z"/>
		</g>
		<g>
			<path style="fill:#3BAFDA;" d="M805.373,319.708c11.596,0,20.99,9.393,20.99,20.99c0,11.614-9.395,21.007-20.99,21.007
				c-11.615,0-21.025-9.394-21.025-21.007C784.348,329.101,793.758,319.708,805.373,319.708z"/>
		</g>
		<g>
			<path style="fill:#3BAFDA;" d="M805.373,266.42c11.596,0,20.99,9.427,20.99,21.007c0,11.596-9.395,21.024-20.99,21.024
				c-11.615,0-21.025-9.428-21.025-21.024C784.348,275.848,793.758,266.42,805.373,266.42z"/>
		</g>
		<g>
			<path style="fill:#3BAFDA;" d="M805.373,213.115c11.596,0,20.99,9.427,20.99,21.025c0,11.579-9.395,21.007-20.99,21.007
				c-11.615,0-21.025-9.428-21.025-21.007C784.348,222.542,793.758,213.115,805.373,213.115z"/>
		</g>
		<g>
			<path style="fill:#3BAFDA;" d="M805.373,159.862c11.596,0,20.99,9.393,20.99,20.973c0,11.614-9.395,21.025-20.99,21.025
				c-11.615,0-21.025-9.412-21.025-21.025C784.348,169.255,793.758,159.862,805.373,159.862z"/>
		</g>
	</g>
	<g>
		<g>
			<path style="fill:#FFCE54;" d="M73.304,106.558c11.596,0,21.008,9.393,21.008,21.024c0,11.58-9.412,21.007-21.008,21.007
				c-11.614,0-21.008-9.428-21.008-21.007C52.296,115.951,61.69,106.558,73.304,106.558z"/>
		</g>
		<g>
			<path style="fill:#FFCE54;" d="M73.304,53.254c11.596,0,21.008,9.444,21.008,21.024c0,11.579-9.412,21.024-21.008,21.024
				c-11.614,0-21.008-9.445-21.008-21.024C52.296,62.698,61.69,53.254,73.304,53.254z"/>
		</g>
		<g>
			<path style="fill:#FFCE54;" d="M73.304,0C84.9,0,94.312,9.394,94.312,20.974c0,11.63-9.412,21.025-21.008,21.025
				c-11.614,0-21.008-9.395-21.008-21.025C52.296,9.394,61.69,0,73.304,0z"/>
		</g>
		<g>
			<path style="fill:#FFCE54;" d="M125.584,266.42c11.613,0,21.024,9.427,21.024,21.007c0,11.596-9.411,21.024-21.024,21.024
				c-11.597,0-20.991-9.428-20.991-21.024C104.593,275.848,113.987,266.42,125.584,266.42z"/>
		</g>
		<g>
			<path style="fill:#FFCE54;" d="M125.584,213.115c11.613,0,21.024,9.427,21.024,21.025c0,11.579-9.411,21.007-21.024,21.007
				c-11.597,0-20.991-9.428-20.991-21.007C104.593,222.542,113.987,213.115,125.584,213.115z"/>
		</g>
		<g>
			<path style="fill:#FFCE54;" d="M125.584,159.862c11.613,0,21.024,9.393,21.024,20.973c0,11.614-9.411,21.025-21.024,21.025
				c-11.597,0-20.991-9.412-20.991-21.025C104.593,169.255,113.987,159.862,125.584,159.862z"/>
		</g>
		<g>
			<path style="fill:#FFCE54;" d="M125.584,106.558c11.613,0,21.024,9.393,21.024,21.024c0,11.58-9.411,21.007-21.024,21.007
				c-11.597,0-20.991-9.428-20.991-21.007C104.593,115.951,113.987,106.558,125.584,106.558z"/>
		</g>
		<g>
			<path style="fill:#FFCE54;" d="M125.584,53.254c11.613,0,21.024,9.444,21.024,21.024c0,11.579-9.411,21.024-21.024,21.024
				c-11.597,0-20.991-9.445-20.991-21.024C104.593,62.698,113.987,53.254,125.584,53.254z"/>
		</g>
		<g>
			<path style="fill:#FFCE54;" d="M125.584,0c11.613,0,21.024,9.394,21.024,20.974c0,11.63-9.411,21.025-21.024,21.025
				c-11.597,0-20.991-9.395-20.991-21.025C104.593,9.394,113.987,0,125.584,0z"/>
		</g>
		<g>
			<path style="fill:#FFCE54;" d="M177.88,159.862c11.614,0,21.008,9.393,21.008,20.973c0,11.614-9.394,21.025-21.008,21.025
				c-11.596,0-20.991-9.412-20.991-21.025C156.89,169.255,166.284,159.862,177.88,159.862z"/>
		</g>
		<g>
			<path style="fill:#FFCE54;" d="M177.88,106.558c11.614,0,21.008,9.393,21.008,21.024c0,11.58-9.394,21.007-21.008,21.007
				c-11.596,0-20.991-9.428-20.991-21.007C156.89,115.951,166.284,106.558,177.88,106.558z"/>
		</g>
		<g>
			<path style="fill:#FFCE54;" d="M177.88,53.254c11.614,0,21.008,9.444,21.008,21.024c0,11.579-9.394,21.024-21.008,21.024
				c-11.596,0-20.991-9.445-20.991-21.024C156.89,62.698,166.284,53.254,177.88,53.254z"/>
		</g>
		<g>
			<path style="fill:#FFCE54;" d="M177.88,0c11.614,0,21.008,9.394,21.008,20.974c0,11.63-9.394,21.025-21.008,21.025
				c-11.596,0-20.991-9.395-20.991-21.025C156.89,9.394,166.284,0,177.88,0z"/>
		</g>
		<g>
			<path style="fill:#FFCE54;" d="M230.177,106.558c11.597,0,21.024,9.393,21.024,21.024c0,11.58-9.428,21.007-21.024,21.007
				s-21.024-9.428-21.024-21.007C209.153,115.951,218.581,106.558,230.177,106.558z"/>
		</g>
		<g>
			<path style="fill:#FFCE54;" d="M230.177,53.254c11.597,0,21.024,9.444,21.024,21.024c0,11.579-9.428,21.024-21.024,21.024
				s-21.024-9.445-21.024-21.024C209.153,62.698,218.581,53.254,230.177,53.254z"/>
		</g>
		<g>
			<path style="fill:#FFCE54;" d="M230.177,0c11.597,0,21.024,9.394,21.024,20.974c0,11.63-9.428,21.025-21.024,21.025
				s-21.024-9.395-21.024-21.025C209.153,9.394,218.581,0,230.177,0z"/>
		</g>
		<g>
			<path style="fill:#FFCE54;" d="M282.474,319.708c11.597,0,20.991,9.393,20.991,20.99c0,11.614-9.393,21.007-20.991,21.007
				c-11.596,0-21.008-9.394-21.008-21.007C261.466,329.101,270.877,319.708,282.474,319.708z"/>
		</g>
		<g>
			<path style="fill:#FFCE54;" d="M282.474,266.42c11.597,0,20.991,9.427,20.991,21.007c0,11.596-9.393,21.024-20.991,21.024
				c-11.596,0-21.008-9.428-21.008-21.024C261.466,275.848,270.877,266.42,282.474,266.42z"/>
		</g>
		<g>
			<path style="fill:#FFCE54;" d="M282.474,213.115c11.597,0,20.991,9.427,20.991,21.025c0,11.579-9.393,21.007-20.991,21.007
				c-11.596,0-21.008-9.428-21.008-21.007C261.466,222.542,270.877,213.115,282.474,213.115z"/>
		</g>
		<g>
			<path style="fill:#FFCE54;" d="M282.474,159.862c11.597,0,20.991,9.393,20.991,20.973c0,11.614-9.393,21.025-20.991,21.025
				c-11.596,0-21.008-9.412-21.008-21.025C261.466,169.255,270.877,159.862,282.474,159.862z"/>
		</g>
		<g>
			<path style="fill:#FFCE54;" d="M282.474,106.558c11.597,0,20.991,9.393,20.991,21.024c0,11.58-9.393,21.007-20.991,21.007
				c-11.596,0-21.008-9.428-21.008-21.007C261.466,115.951,270.877,106.558,282.474,106.558z"/>
		</g>
		<g>
			<path style="fill:#FFCE54;" d="M282.474,53.254c11.597,0,20.991,9.444,20.991,21.024c0,11.579-9.393,21.024-20.991,21.024
				c-11.596,0-21.008-9.445-21.008-21.024C261.466,62.698,270.877,53.254,282.474,53.254z"/>
		</g>
		<g>
			<path style="fill:#FFCE54;" d="M282.474,0c11.597,0,20.991,9.394,20.991,20.974c0,11.63-9.393,21.025-20.991,21.025
				c-11.596,0-21.008-9.395-21.008-21.025C261.466,9.394,270.877,0,282.474,0z"/>
		</g>
		<g>
			<path style="fill:#FFCE54;" d="M334.77,479.569c11.581,0,20.991,9.393,20.991,20.973c0,11.632-9.41,21.024-20.991,21.024
				c-11.63,0-21.024-9.393-21.024-21.024C313.746,488.963,323.14,479.569,334.77,479.569z"/>
		</g>
		<g>
			<path style="fill:#FFCE54;" d="M334.77,426.265c11.581,0,20.991,9.411,20.991,21.024c0,11.58-9.41,20.974-20.991,20.974
				c-11.63,0-21.024-9.393-21.024-20.974C313.746,435.676,323.14,426.265,334.77,426.265z"/>
		</g>
		<g>
			<path style="fill:#FFCE54;" d="M334.77,372.978c11.581,0,20.991,9.393,20.991,21.007c0,11.597-9.41,21.024-20.991,21.024
				c-11.63,0-21.024-9.427-21.024-21.024C313.746,382.371,323.14,372.978,334.77,372.978z"/>
		</g>
		<g>
			<path style="fill:#FFCE54;" d="M334.77,319.708c11.581,0,20.991,9.393,20.991,20.99c0,11.614-9.41,21.007-20.991,21.007
				c-11.63,0-21.024-9.394-21.024-21.007C313.746,329.101,323.14,319.708,334.77,319.708z"/>
		</g>
		<g>
			<path style="fill:#FFCE54;" d="M334.77,266.42c11.581,0,20.991,9.427,20.991,21.007c0,11.596-9.41,21.024-20.991,21.024
				c-11.63,0-21.024-9.428-21.024-21.024C313.746,275.848,323.14,266.42,334.77,266.42z"/>
		</g>
		<g>
			<path style="fill:#FFCE54;" d="M334.77,213.115c11.581,0,20.991,9.427,20.991,21.025c0,11.579-9.41,21.007-20.991,21.007
				c-11.63,0-21.024-9.428-21.024-21.007C313.746,222.542,323.14,213.115,334.77,213.115z"/>
		</g>
		<g>
			<path style="fill:#FFCE54;" d="M334.77,159.862c11.581,0,20.991,9.393,20.991,20.973c0,11.614-9.41,21.025-20.991,21.025
				c-11.63,0-21.024-9.412-21.024-21.025C313.746,169.255,323.14,159.862,334.77,159.862z"/>
		</g>
		<g>
			<path style="fill:#FFCE54;" d="M334.77,106.558c11.581,0,20.991,9.393,20.991,21.024c0,11.58-9.41,21.007-20.991,21.007
				c-11.63,0-21.024-9.428-21.024-21.007C313.746,115.951,323.14,106.558,334.77,106.558z"/>
		</g>
		<g>
			<path style="fill:#FFCE54;" d="M334.77,53.254c11.581,0,20.991,9.444,20.991,21.024c0,11.579-9.41,21.024-20.991,21.024
				c-11.63,0-21.024-9.445-21.024-21.024C313.746,62.698,323.14,53.254,334.77,53.254z"/>
		</g>
		<g>
			<path style="fill:#FFCE54;" d="M334.77,0c11.581,0,20.991,9.394,20.991,20.974c0,11.63-9.41,21.025-20.991,21.025
				c-11.63,0-21.024-9.395-21.024-21.025C313.746,9.394,323.14,0,334.77,0z"/>
		</g>
		<g>
			<path style="fill:#FFCE54;" d="M387.033,0c11.615,0,21.024,9.394,21.024,20.974c0,11.63-9.41,21.025-21.024,21.025
				c-11.597,0-20.991-9.395-20.991-21.025C366.042,9.394,375.436,0,387.033,0z"/>
		</g>
		<g>
			<path style="fill:#FFCE54;" d="M439.331,106.558c11.613,0,21.023,9.393,21.023,21.024c0,11.58-9.41,21.007-21.023,21.007
				c-11.598,0-21.008-9.428-21.008-21.007C418.323,115.951,427.733,106.558,439.331,106.558z"/>
		</g>
		<g>
			<path style="fill:#FFCE54;" d="M439.331,53.254c11.613,0,21.023,9.444,21.023,21.024c0,11.579-9.41,21.024-21.023,21.024
				c-11.598,0-21.008-9.445-21.008-21.024C418.323,62.698,427.733,53.254,439.331,53.254z"/>
		</g>
		<g>
			<path style="fill:#FFCE54;" d="M439.331,0c11.613,0,21.023,9.394,21.023,20.974c0,11.63-9.41,21.025-21.023,21.025
				c-11.598,0-21.008-9.395-21.008-21.025C418.323,9.394,427.733,0,439.331,0z"/>
		</g>
		<g>
			<path style="fill:#FFCE54;" d="M491.625,213.115c11.598,0,21.027,9.427,21.027,21.025c0,11.579-9.43,21.007-21.027,21.007
				c-11.596,0-21.023-9.428-21.023-21.007C470.602,222.542,480.03,213.115,491.625,213.115z"/>
		</g>
		<g>
			<path style="fill:#FFCE54;" d="M491.625,159.862c11.598,0,21.027,9.393,21.027,20.973c0,11.614-9.43,21.025-21.027,21.025
				c-11.596,0-21.023-9.412-21.023-21.025C470.602,169.255,480.03,159.862,491.625,159.862z"/>
		</g>
		<g>
			<path style="fill:#FFCE54;" d="M491.625,106.558c11.598,0,21.027,9.393,21.027,21.024c0,11.58-9.43,21.007-21.027,21.007
				c-11.596,0-21.023-9.428-21.023-21.007C470.602,115.951,480.03,106.558,491.625,106.558z"/>
		</g>
		<g>
			<path style="fill:#FFCE54;" d="M491.625,53.254c11.598,0,21.027,9.444,21.027,21.024c0,11.579-9.43,21.024-21.027,21.024
				c-11.596,0-21.023-9.445-21.023-21.024C470.602,62.698,480.03,53.254,491.625,53.254z"/>
		</g>
		<g>
			<path style="fill:#FFCE54;" d="M491.625,0c11.598,0,21.027,9.394,21.027,20.974c0,11.63-9.43,21.025-21.027,21.025
				c-11.596,0-21.023-9.395-21.023-21.025C470.602,9.394,480.03,0,491.625,0z"/>
		</g>
		<g>
			<path style="fill:#FFCE54;" d="M543.924,159.862c11.596,0,20.99,9.393,20.99,20.973c0,11.614-9.394,21.025-20.99,21.025
				c-11.615,0-21.025-9.412-21.025-21.025C522.899,169.255,532.309,159.862,543.924,159.862z"/>
		</g>
		<g>
			<path style="fill:#FFCE54;" d="M543.924,106.558c11.596,0,20.99,9.393,20.99,21.024c0,11.58-9.394,21.007-20.99,21.007
				c-11.615,0-21.025-9.428-21.025-21.007C522.899,115.951,532.309,106.558,543.924,106.558z"/>
		</g>
		<g>
			<path style="fill:#FFCE54;" d="M543.924,53.254c11.596,0,20.99,9.444,20.99,21.024c0,11.579-9.394,21.024-20.99,21.024
				c-11.615,0-21.025-9.445-21.025-21.024C522.899,62.698,532.309,53.254,543.924,53.254z"/>
		</g>
		<g>
			<path style="fill:#FFCE54;" d="M543.924,0c11.596,0,20.99,9.394,20.99,20.974c0,11.63-9.394,21.025-20.99,21.025
				c-11.615,0-21.025-9.395-21.025-21.025C522.899,9.394,532.309,0,543.924,0z"/>
		</g>
		<g>
			<path style="fill:#FFCE54;" d="M596.221,53.254c11.58,0,20.99,9.444,20.99,21.024c0,11.579-9.41,21.024-20.99,21.024
				c-11.631,0-21.025-9.445-21.025-21.024C575.196,62.698,584.59,53.254,596.221,53.254z"/>
		</g>
		<g>
			<path style="fill:#FFCE54;" d="M596.221,0c11.58,0,20.99,9.394,20.99,20.974c0,11.63-9.41,21.025-20.99,21.025
				c-11.631,0-21.025-9.395-21.025-21.025C575.196,9.394,584.59,0,596.221,0z"/>
		</g>
		<g>
			<path style="fill:#FFCE54;" d="M648.483,266.42c11.613,0,21.025,9.427,21.025,21.007c0,11.596-9.412,21.024-21.025,21.024
				c-11.598,0-20.99-9.428-20.99-21.024C627.493,275.848,636.885,266.42,648.483,266.42z"/>
		</g>
		<g>
			<path style="fill:#FFCE54;" d="M648.483,213.115c11.613,0,21.025,9.427,21.025,21.025c0,11.579-9.412,21.007-21.025,21.007
				c-11.598,0-20.99-9.428-20.99-21.007C627.493,222.542,636.885,213.115,648.483,213.115z"/>
		</g>
		<g>
			<path style="fill:#FFCE54;" d="M648.483,159.862c11.613,0,21.025,9.393,21.025,20.973c0,11.614-9.412,21.025-21.025,21.025
				c-11.598,0-20.99-9.412-20.99-21.025C627.493,169.255,636.885,159.862,648.483,159.862z"/>
		</g>
		<g>
			<path style="fill:#FFCE54;" d="M648.483,106.558c11.613,0,21.025,9.393,21.025,21.024c0,11.58-9.412,21.007-21.025,21.007
				c-11.598,0-20.99-9.428-20.99-21.007C627.493,115.951,636.885,106.558,648.483,106.558z"/>
		</g>
		<g>
			<path style="fill:#FFCE54;" d="M648.483,53.254c11.613,0,21.025,9.444,21.025,21.024c0,11.579-9.412,21.024-21.025,21.024
				c-11.598,0-20.99-9.445-20.99-21.024C627.493,62.698,636.885,53.254,648.483,53.254z"/>
		</g>
		<g>
			<path style="fill:#FFCE54;" d="M648.483,0c11.613,0,21.025,9.394,21.025,20.974c0,11.63-9.412,21.025-21.025,21.025
				c-11.598,0-20.99-9.395-20.99-21.025C627.493,9.394,636.885,0,648.483,0z"/>
		</g>
		<g>
			<path style="fill:#FFCE54;" d="M700.78,319.708c11.613,0,21.006,9.393,21.006,20.99c0,11.614-9.393,21.007-21.006,21.007
				c-11.598,0-20.99-9.394-20.99-21.007C679.789,329.101,689.182,319.708,700.78,319.708z"/>
		</g>
		<g>
			<path style="fill:#FFCE54;" d="M700.78,266.42c11.613,0,21.006,9.427,21.006,21.007c0,11.596-9.393,21.024-21.006,21.024
				c-11.598,0-20.99-9.428-20.99-21.024C679.789,275.848,689.182,266.42,700.78,266.42z"/>
		</g>
		<g>
			<path style="fill:#FFCE54;" d="M700.78,213.115c11.613,0,21.006,9.427,21.006,21.025c0,11.579-9.393,21.007-21.006,21.007
				c-11.598,0-20.99-9.428-20.99-21.007C679.789,222.542,689.182,213.115,700.78,213.115z"/>
		</g>
		<g>
			<path style="fill:#FFCE54;" d="M700.78,159.862c11.613,0,21.006,9.393,21.006,20.973c0,11.614-9.393,21.025-21.006,21.025
				c-11.598,0-20.99-9.412-20.99-21.025C679.789,169.255,689.182,159.862,700.78,159.862z"/>
		</g>
		<g>
			<path style="fill:#FFCE54;" d="M700.78,106.558c11.613,0,21.006,9.393,21.006,21.024c0,11.58-9.393,21.007-21.006,21.007
				c-11.598,0-20.99-9.428-20.99-21.007C679.789,115.951,689.182,106.558,700.78,106.558z"/>
		</g>
		<g>
			<path style="fill:#FFCE54;" d="M700.78,53.254c11.613,0,21.006,9.444,21.006,21.024c0,11.579-9.393,21.024-21.006,21.024
				c-11.598,0-20.99-9.445-20.99-21.024C679.789,62.698,689.182,53.254,700.78,53.254z"/>
		</g>
		<g>
			<path style="fill:#FFCE54;" d="M700.78,0c11.613,0,21.006,9.394,21.006,20.974c0,11.63-9.393,21.025-21.006,21.025
				c-11.598,0-20.99-9.395-20.99-21.025C679.789,9.394,689.182,0,700.78,0z"/>
		</g>
		<g>
			<path style="fill:#FFCE54;" d="M753.077,213.115c11.58,0,21.006,9.427,21.006,21.025c0,11.579-9.426,21.007-21.006,21.007
				c-11.598,0-21.023-9.428-21.023-21.007C732.053,222.542,741.479,213.115,753.077,213.115z"/>
		</g>
		<g>
			<path style="fill:#FFCE54;" d="M753.077,159.862c11.58,0,21.006,9.393,21.006,20.973c0,11.614-9.426,21.025-21.006,21.025
				c-11.598,0-21.023-9.412-21.023-21.025C732.053,169.255,741.479,159.862,753.077,159.862z"/>
		</g>
		<g>
			<path style="fill:#FFCE54;" d="M753.077,106.558c11.58,0,21.006,9.393,21.006,21.024c0,11.58-9.426,21.007-21.006,21.007
				c-11.598,0-21.023-9.428-21.023-21.007C732.053,115.951,741.479,106.558,753.077,106.558z"/>
		</g>
		<g>
			<path style="fill:#FFCE54;" d="M753.077,53.254c11.58,0,21.006,9.444,21.006,21.024c0,11.579-9.426,21.024-21.006,21.024
				c-11.598,0-21.023-9.445-21.023-21.024C732.053,62.698,741.479,53.254,753.077,53.254z"/>
		</g>
		<g>
			<path style="fill:#FFCE54;" d="M753.077,0c11.58,0,21.006,9.394,21.006,20.974c0,11.63-9.426,21.025-21.006,21.025
				c-11.598,0-21.023-9.395-21.023-21.025C732.053,9.394,741.479,0,753.077,0z"/>
		</g>
		<g>
			<path style="fill:#FFCE54;" d="M805.373,106.558c11.596,0,20.99,9.393,20.99,21.024c0,11.58-9.395,21.007-20.99,21.007
				c-11.615,0-21.025-9.428-21.025-21.007C784.348,115.951,793.758,106.558,805.373,106.558z"/>
		</g>
		<g>
			<path style="fill:#FFCE54;" d="M805.373,53.254c11.596,0,20.99,9.444,20.99,21.024c0,11.579-9.395,21.024-20.99,21.024
				c-11.615,0-21.025-9.445-21.025-21.024C784.348,62.698,793.758,53.254,805.373,53.254z"/>
		</g>
		<g>
			<path style="fill:#FFCE54;" d="M805.373,0c11.596,0,20.99,9.394,20.99,20.974c0,11.63-9.395,21.025-20.99,21.025
				c-11.615,0-21.025-9.395-21.025-21.025C784.348,9.394,793.758,0,805.373,0z"/>
		</g>
	</g>
</g>
<g id="Layer_1">
</g>
</svg>
