<?xml version="1.0" encoding="iso-8859-1"?>
<!-- Generator: Adobe Illustrator 17.1.0, SVG Export Plug-In . SVG Version: 6.00 Build 0)  -->
<!DOCTYPE svg PUBLIC "-//W3C//DTD SVG 1.1//EN" "http://www.w3.org/Graphics/SVG/1.1/DTD/svg11.dtd">
<svg version="1.1" xmlns="http://www.w3.org/2000/svg" xmlns:xlink="http://www.w3.org/1999/xlink" x="0px" y="0px"
	 viewBox="0 0 826.373 699.174" style="enable-background:new 0 0 826.373 699.174;" xml:space="preserve">
<g id="graph-30">
	<path style="fill:#D1D3D4;" d="M17.284,699.174c-4.543,0-9.017-1.861-12.178-5.072l0,0C1.862,690.908,0,686.398,0,681.908l0,0
		V17.302h0.035C0.035,7.805,7.772,0,17.284,0l0,0c9.564,0,17.284,7.805,17.284,17.302l0,0V664.59h774.521
		c9.564,0,17.284,7.752,17.284,17.318l0,0c0,9.479-7.72,17.266-17.284,17.266l0,0H17.284L17.284,699.174z"/>
	<path style="fill:#FC6E51;" d="M219.742,585.733c0,18.395-15.029,33.425-33.424,33.425H122.51
		c-18.411,0-33.458-15.03-33.458-33.425v-70.657c0-18.411,15.047-33.457,33.458-33.457h63.809c18.395,0,33.424,15.046,33.424,33.457
		V585.733z"/>
	<path style="fill:#48CFAD;" d="M385.872,585.733c0,18.395-15.047,33.425-33.441,33.425h-63.808
		c-18.395,0-33.459-15.03-33.459-33.425V363.771c0-18.411,15.064-33.458,33.459-33.458h63.808c18.395,0,33.441,15.047,33.441,33.458
		V585.733z"/>
	<path style="fill:#FFCE54;" d="M726.664,583.89c0,19.419-15.884,35.269-35.286,35.269h-60.119
		c-19.402,0-35.286-15.85-35.286-35.269V294.976c0-19.386,15.884-35.252,35.286-35.252h60.119c19.402,0,35.286,15.866,35.286,35.252
		V583.89z"/>
	<path style="fill:#48CFAD;" d="M551.977,585.733c0,18.395-15.064,33.425-33.476,33.425h-63.809
		c-18.378,0-33.433-15.03-33.433-33.425V432.516c0-18.395,15.055-33.44,33.433-33.44h63.809c18.411,0,33.476,15.046,33.476,33.44
		V585.733z"/>
	<path style="fill:#3BAFDA;" d="M699.884,52.654L572.712,66.559l41.946,41.912L476.691,277.043L333.575,144.729
		c-9.785-9.018-24.936-9.154-34.807-0.205L88.403,334.479c-10.591,9.531-11.41,25.859-1.862,36.448
		c5.106,5.637,12.127,8.488,19.163,8.488c6.183,0,12.365-2.204,17.302-6.627h-0.035l192.893-174.157l145.935,134.893
		c5.227,4.85,12.263,7.31,19.333,6.779c7.037-0.443,13.697-3.928,18.14-9.376L651.275,145.14l34.773,34.774L699.884,52.654z"/>
</g>
<g id="Layer_1">
</g>
</svg>
