<?xml version="1.0" encoding="iso-8859-1"?>
<!-- Generator: Adobe Illustrator 17.1.0, SVG Export Plug-In . SVG Version: 6.00 Build 0)  -->
<!DOCTYPE svg PUBLIC "-//W3C//DTD SVG 1.1//EN" "http://www.w3.org/Graphics/SVG/1.1/DTD/svg11.dtd">
<svg version="1.1" xmlns="http://www.w3.org/2000/svg" xmlns:xlink="http://www.w3.org/1999/xlink" x="0px" y="0px"
	 viewBox="0 0 1010 686.707" style="enable-background:new 0 0 1010 686.707;" xml:space="preserve">
<g id="graph-1">
	<rect x="49.991" y="211.8" style="fill:#3BAFDA;" width="32.553" height="469.424"/>
	<rect x="98.598" y="30.828" style="fill:#48CFAD;" width="32.451" height="650.396"/>
	<rect x="147.068" y="273.559" style="fill:#FFCE54;" width="32.57" height="407.664"/>
	<rect x="195.558" y="139.178" style="fill:#FC6E51;" width="32.535" height="542.045"/>
	<rect x="293.165" y="547.783" style="fill:#3BAFDA;" width="32.485" height="133.44"/>
	<rect x="341.705" y="377.691" style="fill:#48CFAD;" width="32.501" height="303.533"/>
	<rect x="390.176" y="434.036" style="fill:#FFCE54;" width="32.553" height="247.188"/>
	<rect x="438.698" y="233.473" style="fill:#FC6E51;" width="32.519" height="447.75"/>
	<rect x="536.29" y="521.499" style="fill:#3BAFDA;" width="32.502" height="159.725"/>
	<rect x="584.828" y="550.123" style="fill:#48CFAD;" width="32.468" height="131.101"/>
	<rect x="633.282" y="308.605" style="fill:#FFCE54;" width="32.554" height="372.619"/>
	<rect x="681.855" y="422.216" style="fill:#FC6E51;" width="32.435" height="259.008"/>
	<rect x="779.379" y="83.363" style="fill:#3BAFDA;" width="32.57" height="597.86"/>
	<rect x="827.918" y="271.185" style="fill:#48CFAD;" width="32.552" height="410.039"/>
	<rect x="876.458" y="452.447" style="fill:#FFCE54;" width="32.468" height="228.776"/>
	<rect x="924.996" y="176.104" style="fill:#FC6E51;" width="32.468" height="505.12"/>
	<polygon style="fill:#D1D3D4;" points="0,0 0,5.602 13.288,5.602 13.288,97.284 0,97.284 0,102.987 13.288,102.987 13.288,194.652 
		0,194.652 0,200.237 13.288,200.237 13.288,291.919 0,291.919 0,297.623 13.288,297.623 13.288,389.288 0,389.288 0,394.872 
		13.288,394.872 13.288,486.588 0,486.588 0,492.242 13.288,492.242 13.288,583.94 0,583.94 0,589.56 13.288,589.56 13.288,686.707 
		1010,686.707 1010,681.224 18.89,681.224 18.89,0 	"/>
</g>
<g id="Layer_1">
</g>
</svg>
