<svg width="32" height="32" version="1.1" viewBox="0 0 32 32" xmlns="http://www.w3.org/2000/svg">
<defs>
<clipPath id="clipPath1045">
<path d="m15.684 13.684v6.1289c0.02123-0.02495 0.02407-0.03604 0.05273-0.06641 0.07576-0.08027 0.21765-0.03454 0.32617-0.05469 0.18677-0.03468 0.37421-0.07241 0.56055-0.10938 0.20108-0.03571 0.40017-0.06431 0.59961-0.09961 0.07506-0.05798 0.16728-0.14884 0.21094-0.08398 0.01158 0.01721 0.01232 0.03193 0.01563 0.04687 0.0072-0.0012 0.01433-0.0027 0.02148-0.0039 0.02243-0.06092 0.04695-0.11584 0.08984-0.0918 0.02543 0.01426 0.04226 0.04357 0.0625 0.06836 0.3762-0.06442 0.75169-0.13707 1.1328-0.1875 0.33662-0.72636 0.62385-1.1135 0.70508-0.15039 0.08385-0.05167 0.1709-0.0958 0.26367-0.12695 0.05153-0.03238 0.10277-0.06529 0.1543-0.09766 0.1936-0.14466 0.35926-0.26427 0.53711-0.39453v-4.7773zm3.7773 5.3965c-0.04392 0.02706-0.08815 0.0541-0.13086 0.08398 0.02409-0.0025 0.04817-0.0054 0.07227-0.0078 0.02003-0.01261 0.04052-0.02451 0.06055-0.03711-9.58e-4 -0.01266-8.78e-4 -0.02687-2e-3 -0.03906zm-0.13086 0.08398c-0.11312 0.01154-0.22694 0.01781-0.33984 0.03125-0.07907 0.0094-0.15579 0.02476-0.23438 0.03516-0.03874 0.08358-0.07598 0.16776-0.11523 0.25586 0.0598-0.02859 0.1473-0.08691 0.19922-0.10742 0.02584-0.01582 0.03413-0.01666 0.06445-0.03516-2.57e-4 0.0046 2.36e-4 0.0053 0 0.0098 0.0318-0.01003 0.09112-0.04243 0.11133-0.04297 0.02673-6.82e-4 0.04351 0.01175 0.05469 0.03125h2e-3c0.08659-0.05806 0.17214-0.1178 0.25781-0.17774zm-3.4648 1.0586c-0.01181 0.0052-0.02195 0.01197-0.0332 0.01758 0.01635-0.0021 0.03248-0.0057 0.04883-0.0078-0.0052-0.0033-0.01041-0.0064-0.01563-0.0098zm4.5508 1.3223c-0.02258 0.04546-0.0312 0.09664-0.05664 0.14062-0.04345 0.15652-0.10005 0.30869-0.15039 0.46289h0.20703zm-2.4219 0.05078c-0.0182 0.0032-0.04332 0.0047-0.0625 0.0078-0.0086 0.0071-0.01506 0.01319-0.03125 0.02734-0.02867-0.0063-0.06063-0.0062-0.0918-0.0078-0.0085 0.0012-0.01466 0.0027-0.02344 0.0039-0.05456 0.05296-0.11852 0.21444-0.13672 0.14844-0.0035-0.01275 0.0038-0.0262 2e-3 -0.03906-7e-3 0.0071-0.01699 0.0167-0.02344 0.02344-0.01746 0.02927-0.03515 0.05858-0.05273 0.08789 0.15124-0.02681 0.30106-0.05421 0.45703-0.07813 0.01489-0.02804 0.02209-0.04275 0.0332-0.06445-0.02829-0.03631-0.05112-0.07203-0.07031-0.10938zm0.61523 0.04687c-0.04201 0.01343-0.07433 0.02921-0.12305 0.04102-0.07586 0.11184-0.1673 0.24329-0.24219 0.19141-0.05656-0.03918-0.09522-0.07932-0.13281-0.11914-9e-3 0.0014-0.01631 0.0025-0.02539 0.0039-0.03192 0.02454-0.04284 0.03193-0.08008 0.06055-0.0049 0.0091-0.0047 0.01024-0.0098 0.01953-0.0024 0.0043-0.01072-2.29e-4 -0.01563 0 0.01248-0.0096 0.01351-0.0104 0.02539-0.01953 0.0074-0.01377 0.0086-0.01608 0.01563-0.0293-0.13968 0.1229-0.28018 0.24624-0.42773 0.35742h0.75391c0.09983-0.13674 0.2192-0.31437 0.25586-0.33984 0.05002-0.03477 0.1097-0.04454 0.17188-0.05078-0.02937-0.01414-0.0572-0.02129-0.08984-0.06055-0.09526 0.07225-0.09462 0.02064-0.07617-0.05469zm-0.52344 0.11719c0.0062-0.0048 0.0095-7e-3 0.01562-0.01172-0.0039-0.0043-0.0099-0.0093-0.01367-0.01367-0.01283 0.01139-0.02622 0.02199-0.03906 0.0332 0.0127-2e-3 0.02452-0.0058 0.03711-0.0078zm-1.8164 0.07422c-0.04703 0.02069-0.16129 0.10011-0.13476 0.05859 0.0119-0.01861 0.02332-0.03791 0.03516-0.05664-0.02157 0.01189-0.03046 0.01809-0.05078 0.0293-0.04265 0.07843-0.08452 0.15722-0.14258 0.22461zm2.459 0.17188c0.02378 0.04032 0.08628 0.07709 0.07031 0.12109-0.0029 8e-3 -0.01029 0.01369-0.01367 0.02148h0.04687c-0.0058-0.0764 0.01217-0.09206-0.10352-0.14258zm-2.1328 0.04102c-0.03642 0.03303-0.07147 0.06786-0.10742 0.10156h0.13477c0.0028-0.0037 0.0086-0.0062 0.01172-0.0098-0.01431 0.0014-0.02894 0.0014-0.04297 0.0039 0.0017-0.03193 0.0034-0.06374 0.0039-0.0957zm-0.64258 0.06445c-0.01855 0.01787-0.04589 0.02434-0.06836 0.03711h0.02539z" fill="#f00"/>
</clipPath>
</defs>
<g fill-rule="evenodd">
<circle cx="16" cy="16" r="16" fill="#ff914d" fill-rule="nonzero"/>
<g fill="#fff">
<path d="m16 27.258c-6.218 0-11.258-5.04-11.258-11.258s5.04-11.258 11.258-11.258 11.258 5.04 11.258 11.258-5.04 11.258-11.258 11.258zm0-0.662c5.852 0 10.596-4.744 10.596-10.596s-4.744-10.596-10.596-10.596-10.596 4.744-10.596 10.596 4.744 10.596 10.596 10.596z"/>
<g fill="#fff">
<g transform="translate(-1.0386 -1.0708)" aria-label="ریال">
<path d="m21.094 21.637v-1.1455h0.83636q0.62424 0 1.0788-0.15151 0.4606-0.14546 0.75757-0.45454 0.30303-0.30909 0.44242-0.78788 0.14545-0.47879 0.14545-1.1394v-3.7818h1.1455v3.7818q0 0.86666-0.2303 1.5454-0.22424 0.68485-0.67273 1.1576t-1.1212 0.72121q-0.66666 0.25454-1.5455 0.25454z"/>
<path transform="translate(2.645 .33756)" d="m19.907 13.683c0.0081 0.02424 0.02424 0.08889 0.04848 0.19394 0.02424 0.10505 0.0505 0.23636 0.07879 0.39394 0.03232 0.15354 0.06666 0.32525 0.10303 0.51515 0.03637 0.18586 0.06869 0.37576 0.09697 0.5697 0.02828 0.1899 0.05252 0.37374 0.07273 0.55151 0.0202 0.17778 0.0303 0.33333 0.0303 0.46667 0 0.38788-0.06465 0.72323-0.19394 1.0061-0.12525 0.27879-0.29091 0.51111-0.49697 0.69697-0.20202 0.18182-0.4303 0.31717-0.68485 0.40606-0.25454 0.08889-0.51111 0.13333-0.7697 0.13333h-2.5091v-1.1455h2.5091c0.06061 0 0.14546-0.0081 0.25454-0.02424 0.11313-0.0202 0.22424-0.06666 0.33333-0.13939 0.11313-0.07273 0.2101-0.18182 0.29091-0.32727 0.08485-0.14546 0.12727-0.34747 0.12727-0.60606 0-0.08889-0.0081-0.2-0.02424-0.33333-0.01212-0.13737-0.0303-0.28283-0.05455-0.43636-0.0202-0.15758-0.04444-0.31717-0.07273-0.47879-0.02828-0.16566-0.05656-0.32121-0.08485-0.46667-0.02828-0.14545-0.05454-0.27475-0.07879-0.38788-0.02424-0.11313-0.04444-0.19798-0.06061-0.25454z" clip-path="url(#clipPath1045)"/>
<path d="m18.592 18.954c-0.42424-0.0041-0.77576-0.03235-1.0545-0.08485-0.27475-0.05657-0.50909-0.13535-0.70303-0.23636-0.1899-0.10505-0.34343-0.23434-0.4606-0.38788-0.11313-0.15758-0.20202-0.33939-0.26667-0.54545-0.06465-0.2101-0.10707-0.44444-0.12727-0.70303-0.0202-0.25858-0.0303-0.54545-0.0303-0.8606v-5.8303h1.1455v5.8303c0 0.35151 0.0101 0.63636 0.0303 0.85454 0.02424 0.21818 0.08283 0.38788 0.17576 0.50909 0.09697 0.11717 0.2404 0.19798 0.4303 0.24242 0.19394 0.04041 0.48081 0.06263 0.8606 0.06667z"/>
<path d="m11.267 22.304q-0.81212 0-1.4788-0.35758-0.6606-0.35151-1.0727-0.99394-0.16364-0.2606-0.31515-0.68485-0.15151-0.42424-0.17576-1.0242-0.00606-0.09091-0.00606-0.18788 0-0.52727 0.14545-1.2424 0.15151-0.71515 0.61818-1.6848l1.0303 0.49091q-0.28485 0.58182-0.44848 1.1151-0.15758 0.53333-0.19394 1.0061-0.012121 0.16364-0.012121 0.32121 0 0.29091 0.060606 0.62424 0.060606 0.33333 0.26061 0.65454 0.25454 0.38788 0.66667 0.6 0.41818 0.21818 0.92121 0.21818h0.43636q0.69091 0 1.1273-0.14545 0.44242-0.14545 0.68485-0.41818 0.24848-0.26667 0.33939-0.64242 0.09091-0.37576 0.09091-0.84242v-8.806h1.1273v8.806q0 3.1818-3.3697 3.1939z"/>
</g>
<circle cx="18.497" cy="19.914" r=".65247" stroke-width="1.1203"/>
<circle cx="16.919" cy="19.914" r=".65247" stroke-width="1.1203"/>
</g>
</g>
</g>
</svg>
