<svg width="32" height="32" version="1.1" viewBox="0 0 32 32" xmlns="http://www.w3.org/2000/svg"><g transform="matrix(.34329 0 0 .35715 -.28335 -1.1993)" fill="#8e44ad"><polygon points="95 75.618 95 60.528 38.318 93.253 64.938 93.254"/><path d="m35.445 24.929v67.555l58.504-33.777zm14.414 24.967 15.262 8.811-15.262 8.8096z"/><polygon points="36.496 23.109 93.179 55.835 79.87 32.781 49.564 15.564"/><polygon points="33.342 27.033 20.031 50.086 20.274 84.938 33.342 92.484"/><polygon points="77.792 29.183 64.839 6.7458 51.675 14.345"/><polygon points="17.954 53.684 5 76.12 18.163 83.72"/><polygon points="69.091 93.254 95 93.254 95 78.055"/><polygon points="61.12 58.707 51.858 53.36 51.858 64.054"/></g></svg>
