<?xml version="1.0"?>
<svg xmlns="http://www.w3.org/2000/svg" xmlns:xlink="http://www.w3.org/1999/xlink" xmlns:svgjs="http://svgjs.com/svgjs" version="1.1" width="512" height="512" x="0" y="0" viewBox="0 0 511.99997 511" style="enable-background:new 0 0 512 512" xml:space="preserve" class=""><g><path xmlns="http://www.w3.org/2000/svg" d="m256 152.980469c-8.277344 0-15 6.726562-15 15v90c0 8.277343 6.722656 15 15 15s15-6.722657 15-15v-90c0-8.273438-6.722656-15-15-15zm0 0" fill="#ffc107" data-original="#000000" style="" class=""/><path xmlns="http://www.w3.org/2000/svg" d="m256 362.980469c-8.277344 0-15 6.726562-15 15 0 8.277343 6.722656 15 15 15s15-6.722657 15-15c0-8.273438-6.722656-15-15-15zm0 0" fill="#ffc107" data-original="#000000" style="" class=""/><path xmlns="http://www.w3.org/2000/svg" d="m501.609375 370.21875-181.113281-333.003906c-29.058594-48.921875-99.894532-48.984375-128.992188 0-.105468.175781-.191406.351562-.292968.527344l-180.5625 331.949218c-29.707032 49.988282 6.257812 113.289063 64.480468 113.289063h361.6875c58.621094 0 93.871094-63.847657 64.792969-112.761719zm-245.609375 52.761719c-24.8125 0-45-20.183594-45-45 0-24.8125 20.1875-45 45-45s45 20.1875 45 45c0 24.816406-20.1875 45-45 45zm45-165c0 24.816406-20.1875 45-45 45s-45-20.183594-45-45v-90c0-24.8125 20.1875-45 45-45s45 20.1875 45 45zm0 0" fill="#ffc107" data-original="#000000" style="" class=""/></g></svg>
