<?xml version="1.0" encoding="UTF-8" standalone="no"?>
<svg
   xmlns:dc="http://purl.org/dc/elements/1.1/"
   xmlns:cc="http://creativecommons.org/ns#"
   xmlns:rdf="http://www.w3.org/1999/02/22-rdf-syntax-ns#"
   xmlns:svg="http://www.w3.org/2000/svg"
   xmlns="http://www.w3.org/2000/svg"
   xmlns:sodipodi="http://sodipodi.sourceforge.net/DTD/sodipodi-0.dtd"
   xmlns:inkscape="http://www.inkscape.org/namespaces/inkscape"
   version="1.1"
   id="svg28"
   xml:space="preserve"
   width="756"
   height="605.33331"
   viewBox="0 0 756 605.33331"
   sodipodi:docname="Afzal.svg"
   inkscape:version="1.0.1 (3bc2e813f5, 2020-09-07)"><sodipodi:namedview
     pagecolor="#ffffff"
     bordercolor="#666666"
     borderopacity="1"
     objecttolerance="10"
     gridtolerance="10"
     guidetolerance="10"
     inkscape:pageopacity="0"
     inkscape:pageshadow="2"
     inkscape:window-width="1848"
     inkscape:window-height="1009"
     id="namedview412"
     showgrid="false"
     inkscape:zoom="0.86772068"
     inkscape:cx="378"
     inkscape:cy="302.66666"
     inkscape:window-x="72"
     inkscape:window-y="34"
     inkscape:window-maximized="1"
     inkscape:current-layer="svg28" /><metadata
     id="metadata34"><rdf:RDF><cc:Work
         rdf:about=""><dc:format>image/svg+xml</dc:format><dc:type
           rdf:resource="http://purl.org/dc/dcmitype/StillImage" /><dc:title></dc:title></cc:Work></rdf:RDF></metadata><defs
     id="defs32"><clipPath
       clipPathUnits="userSpaceOnUse"
       id="clipPath44"><path
         d="M 0,454 H 567 V 0 H 0 Z"
         id="path42" /></clipPath></defs><g
     id="g36"
     transform="matrix(2.864743,0,0,-2.864743,-400.68209,921.83909)"><g
       id="g38"><g
         id="g40"
         clip-path="url(#clipPath44)"><g
           id="g46"
           transform="translate(269.8115,243.1557)"><path
             d="M 0,0 C 9.989,15.347 21.651,25.863 34.573,32.74 24.71,49.436 13.038,59.698 0.244,65.968 -12.868,61.062 -24.311,48.642 -34.817,32.007 -20.326,25.411 -8.952,14.415 0,0 m -7.985,-2.688 c -8.227,10.91 -18.078,18.574 -28.586,24.922 -4.541,-8.795 -7.351,-19.627 -6.353,-34.939 12.99,2.835 24.555,6.205 34.939,10.017 m 16.292,0 C 18.691,-6.5 30.256,-9.87 43.246,-12.705 44.244,2.607 41.434,13.439 36.893,22.234 26.385,15.886 16.534,8.222 8.307,-2.688 M -50.698,26.387 -60.96,30.785 C -92.005,-19.164 -52.719,-81.255 1.1,-79.162 57.758,-77.713 89.685,-18.163 61.448,31.03 L 51.187,26.387 c 6.271,-17.591 7.329,-37.137 3.176,-58.638 -17.917,7.574 -35.835,13.926 -54.485,19.057 -18.243,-4.642 -36.486,-12.216 -54.73,-18.324 -3.807,20.523 -3.115,39.988 4.154,57.905 M 0.288,78.918 c 0.094,0 0.186,-0.003 0.279,-0.003 14.717,-5.646 28.977,-19.3 43.71,-40.035 l 22.178,9.021 C 78.556,33.298 85.821,14.617 85.821,-5.74 c 0,-46.747 -38.302,-84.657 -85.533,-84.657 -47.23,0 -85.533,37.91 -85.533,84.657 0,20.256 7.196,38.851 19.189,53.423 l 22.112,-8.559 c 12.264,20.894 26.962,32.867 43.04,39.779 0.397,0.005 0.794,0.015 1.192,0.015"
             style="fill:#b04198;fill-opacity:1;fill-rule:evenodd;stroke:none"
             id="path48" /></g><g
           id="g50"
           transform="translate(270.5448,220.9216)"><path
             d="m 0,0 c 12.482,0 22.6,-10.118 22.6,-22.6 0,-12.482 -10.118,-22.6 -22.6,-22.6 -12.482,0 -22.6,10.118 -22.6,22.6 C -22.6,-10.118 -12.482,0 0,0"
             style="fill:#b04198;fill-opacity:1;fill-rule:evenodd;stroke:none"
             id="path52" /></g><g
           id="g54"
           transform="translate(325.1724,123.0756)"><path
             d="m 0,0 c 0,0.892 -0.536,1.34 -1.608,1.34 -1.044,0 -2.392,-0.808 -4.04,-2.424 0.36,-0.016 0.708,-0.024 1.052,-0.024 1.416,0 2.568,0.132 3.46,0.396 C -0.38,-0.488 0,-0.248 0,0 M 8.964,3.544 C 8.964,3.796 8.78,4.032 8.412,4.252 8.084,4.456 7.784,4.556 7.512,4.556 7.244,4.556 7.008,4.488 6.796,4.356 6.552,4.208 6.432,4.004 6.432,3.744 c 0,-0.292 0.432,-0.436 1.3,-0.436 0.824,0 1.232,0.08 1.232,0.236 m 8.948,-3.388 c 0,-0.684 -0.104,-1.556 -0.316,-2.612 -0.22,-1.108 -0.46,-1.948 -0.728,-2.516 -0.328,-0.688 -0.636,-1.032 -0.924,-1.032 -0.312,0 -0.584,0.416 -0.808,1.252 -0.32,1.18 -1,5.244 -2.04,12.196 l 3.54,3.852 c 0.22,0.244 0.368,0.364 0.444,0.364 0.064,0 0.116,-0.108 0.164,-0.328 C 17.588,9.776 17.8,7.924 17.876,5.768 17.9,5.112 17.912,3.24 17.912,0.156 M 9.244,11.164 7.628,12.716 c -0.14,0.132 -0.276,0.132 -0.408,0 L 5.752,11.224 C 5.608,11.076 5.6,10.944 5.724,10.82 L 7.34,9.272 C 7.448,9.16 7.556,9.156 7.66,9.26 l 1.56,1.592 c 0.128,0.112 0.136,0.216 0.024,0.312 M -1.16,9.056 -2.776,10.604 c -0.136,0.124 -0.264,0.124 -0.388,0 L -4.64,9.104 C -4.792,8.952 -4.804,8.82 -4.68,8.704 l 1.596,-1.56 c 0.12,-0.112 0.236,-0.112 0.348,-0.004 l 1.564,1.588 c 0.116,0.116 0.12,0.228 0.012,0.328 M 4.172,-5.956 H 3.48 3.128 c -1.14,0 -2.036,0.688 -2.684,2.064 -0.992,-1.328 -2.672,-1.992 -5.04,-1.992 -0.732,0 -1.496,0.12 -2.284,0.364 -0.896,0.272 -1.544,0.632 -1.932,1.076 -0.632,-1.008 -1.368,-1.512 -2.204,-1.512 h -0.248 -0.76 -87.604 -0.571 -0.2 c -0.54,0 -1.068,0.28 -1.584,0.844 0,-1.4 -0.316,-2.648 -0.948,-3.752 -1.017,-1.772 -2.696,-2.66 -5.044,-2.66 -1.88,0 -3.376,0.408 -4.477,1.22 -1.26,0.912 -1.887,2.28 -1.887,4.1 0,0.908 0.176,1.972 0.528,3.188 0.412,1.44 0.887,2.156 1.416,2.156 0.484,0 0.728,-0.424 0.728,-1.276 0,-0.188 -0.029,-0.468 -0.088,-0.836 -0.06,-0.368 -0.089,-0.644 -0.089,-0.832 0,-1.692 1.453,-2.536 4.36,-2.536 2.196,0 3.297,0.78 3.297,2.344 0,0.12 -0.009,0.232 -0.025,0.34 l -0.903,12.716 c -0.008,0.14 0.032,0.24 0.127,0.304 l 3.568,2.296 c 0.117,0.08 0.185,0.104 0.208,0.072 0.017,-0.024 0.024,-0.112 0.024,-0.268 V 0.628 c 0,-0.836 0.389,-1.256 1.161,-1.256 h 0.399 87.604 0.76 0.108 c 0.5,0 0.876,0.236 1.124,0.704 0.056,0.104 0.208,0.544 0.456,1.328 0.148,0.468 0.352,0.704 0.612,0.704 0.304,0 0.584,-0.432 0.836,-1.296 0.256,-0.864 0.564,-1.296 0.932,-1.296 0.064,0 0.48,0.464 1.256,1.396 0.936,1.124 1.788,1.984 2.552,2.588 1.188,0.928 2.308,1.392 3.364,1.392 0.9,0 1.632,-0.312 2.204,-0.932 C 2.748,3.34 3.036,2.576 3.036,1.668 3.036,0.912 2.884,0.236 2.576,-0.36 2.672,-0.54 2.88,-0.628 3.2,-0.628 h 0.28 0.692 0.784 c 2.58,0 4.064,0.144 4.448,0.436 0.164,0.124 0.244,0.264 0.244,0.424 C 9.648,0.444 9.54,0.548 9.32,0.548 9.252,0.548 9.18,0.532 9.112,0.504 8.844,0.388 8.232,0.332 7.276,0.332 c -2.004,0 -3.004,0.808 -3.004,2.424 0,1.084 0.268,2.156 0.808,3.216 0.64,1.264 1.444,1.896 2.42,1.896 1.436,0 2.54,-0.876 3.312,-2.628 0.584,-1.328 0.876,-2.764 0.876,-4.312 0,-4.588 -2.236,-6.884 -6.708,-6.884 z"
             style="fill:#000002;fill-opacity:1;fill-rule:evenodd;stroke:none"
             id="path56" /></g><g
           id="g58"
           transform="translate(211.2225,129.9766)"><path
             d="m 0,0 c 0,0.124 -0.092,0.242 -0.274,0.354 -0.168,0.104 -0.318,0.156 -0.45,0.156 -0.358,0 -0.536,-0.134 -0.536,-0.4 0,-0.146 0.22,-0.22 0.66,-0.22 0.4,0 0.6,0.038 0.6,0.11 M 4.692,5.452 C 4.746,5.408 4.744,5.36 4.684,5.308 L 3.988,4.62 C 3.938,4.57 3.888,4.572 3.84,4.622 L 3.172,5.27 2.534,4.62 C 2.486,4.572 2.436,4.572 2.388,4.624 L 1.686,5.3 C 1.628,5.354 1.634,5.416 1.704,5.486 L 2.342,6.138 C 2.404,6.2 2.466,6.2 2.53,6.138 L 3.18,5.51 3.8,6.138 c 0.06,0.058 0.12,0.058 0.182,0 z M -3.9,0.934 c 0,-0.668 -0.096,-1.296 -0.288,-1.88 -0.258,-0.79 -0.634,-1.184 -1.13,-1.184 -0.49,0 -0.868,0.22 -1.138,0.66 -0.2,-0.44 -0.47,-0.66 -0.814,-0.66 -0.244,0 -0.5,0.076 -0.768,0.228 0,-2.152 -1.186,-3.228 -3.554,-3.228 -0.972,0 -1.738,0.186 -2.298,0.558 -0.668,0.442 -1.002,1.126 -1.002,2.052 0,0.454 0.092,0.984 0.276,1.59 0.218,0.718 0.462,1.078 0.732,1.078 0.164,0 0.27,-0.072 0.316,-0.218 0.024,-0.074 0.036,-0.214 0.036,-0.422 0,-0.098 -0.024,-0.254 -0.068,-0.466 -0.046,-0.21 -0.068,-0.37 -0.068,-0.476 0,-0.776 0.774,-1.164 2.324,-1.164 0.46,0 0.894,0.052 1.304,0.158 0.614,0.158 0.92,0.404 0.92,0.74 0,0.282 -0.394,0.74 -1.178,1.376 l 0.914,1.784 c 0.036,0.068 0.066,0.1 0.094,0.1 0.026,0 0.072,-0.032 0.134,-0.1 0.384,-0.4 0.636,-0.648 0.756,-0.746 0.29,-0.232 0.572,-0.348 0.85,-0.348 0.254,0 0.422,0.114 0.504,0.34 l 0.124,0.61 c 0.086,0.246 0.22,0.37 0.404,0.37 0.16,0 0.28,-0.124 0.362,-0.374 l 0.13,-0.578 c 0.106,-0.222 0.308,-0.332 0.608,-0.332 0.364,0 0.546,0.13 0.546,0.392 0,0.14 -0.096,0.44 -0.288,0.902 l 0.766,0.83 C -4.312,2.616 -4.252,2.61 -4.212,2.508 -4.004,2 -3.9,1.476 -3.9,0.934 m 5.736,-3.1 H 1.504 1.21 C 1.108,-3.47 0.76,-4.44 0.166,-5.074 0.08,-5.168 -0.038,-5.214 -0.186,-5.214 h -2.748 c -0.324,0 -0.486,0.132 -0.486,0.398 0,0.144 0.07,0.25 0.21,0.316 0.504,0.238 1.112,0.58 1.824,1.024 0.96,0.602 1.448,1.022 1.464,1.26 -0.79,0 -1.306,0.046 -1.548,0.14 -0.524,0.202 -0.786,0.68 -0.786,1.428 0,0.68 0.114,1.318 0.34,1.914 0.312,0.824 0.774,1.236 1.384,1.236 0.852,0 1.41,-0.668 1.676,-2.004 h 0.36 0.332 0.99 c 0.23,0 0.346,0.064 0.346,0.194 0,0.066 -0.034,0.142 -0.1,0.228 C 2.83,1.232 2.518,1.56 2.136,1.9 2.08,1.954 2.08,2.024 2.136,2.11 l 1.092,1.584 c 0.06,0.086 0.102,0.128 0.13,0.128 0.034,0 0.084,-0.038 0.146,-0.116 0.61,-0.752 0.916,-1.682 0.916,-2.792 0,-1.088 -0.154,-1.854 -0.464,-2.3 -0.36,-0.52 -1.024,-0.78 -1.994,-0.78 z"
             style="fill:#000002;fill-opacity:1;fill-rule:evenodd;stroke:none"
             id="path60" /></g><g
           id="g62"
           transform="translate(317.5929,138.832)"><path
             d="m 0,0 c 0,0.271 -0.074,0.561 -0.221,0.875 -0.178,0.375 -0.386,0.564 -0.622,0.564 -0.128,0 -0.232,-0.05 -0.316,-0.15 -0.085,-0.099 -0.128,-0.214 -0.128,-0.344 0,-0.321 0.07,-0.635 0.21,-0.938 0.178,-0.388 0.418,-0.583 0.722,-0.583 C -0.119,-0.576 0,-0.383 0,0 m -5.802,-0.167 c 0,0.135 -0.1,0.262 -0.297,0.384 -0.182,0.112 -0.345,0.169 -0.488,0.169 -0.387,0 -0.58,-0.145 -0.58,-0.434 0,-0.158 0.238,-0.238 0.715,-0.238 0.433,0 0.65,0.041 0.65,0.119 m -44.713,0.479 -0.356,1.293 c -0.589,-0.439 -0.882,-0.747 -0.882,-0.924 0,-0.2 0.412,-0.323 1.238,-0.369 m 2.346,-2.825 h -0.29 c -0.93,0 -1.528,0.5 -1.79,1.504 -0.182,-0.427 -0.379,-0.642 -0.589,-0.642 -0.395,0 -0.848,0.104 -1.359,0.312 -0.682,0.275 -1.022,0.633 -1.022,1.075 0,0.477 0.173,0.962 0.52,1.454 0.03,0.041 0.55,0.502 1.562,1.384 l -0.122,0.546 1.48,1.493 c 0.059,0.058 0.109,0.089 0.145,0.089 0.048,0 0.081,-0.054 0.102,-0.165 l 0.603,-3.274 c 0.11,-0.594 0.344,-0.89 0.7,-0.89 h 0.06 0.358 23.935 V 0.347 h 0.071 c 0.316,0 0.54,0.128 0.665,0.385 0.065,0.222 0.126,0.445 0.184,0.668 0.111,0.286 0.256,0.429 0.438,0.429 0.212,0 0.351,-0.128 0.42,-0.386 0.024,-0.095 0.085,-0.334 0.178,-0.711 0.102,-0.257 0.295,-0.385 0.583,-0.385 0.247,0 0.416,0.126 0.509,0.379 0.028,0.132 0.089,0.366 0.178,0.704 0.067,0.254 0.206,0.379 0.418,0.379 0.208,0 0.34,-0.125 0.401,-0.379 0.028,-0.132 0.08,-0.366 0.151,-0.704 0.089,-0.253 0.256,-0.379 0.501,-0.379 0.251,0 0.42,0.123 0.509,0.372 0.041,0.226 0.093,0.462 0.152,0.705 0.058,0.245 0.203,0.366 0.431,0.366 0.19,0 0.323,-0.124 0.394,-0.373 0.022,-0.089 0.08,-0.323 0.178,-0.698 0.106,-0.249 0.294,-0.372 0.565,-0.372 h 0.481 V 0.334 h 0.091 c 0.291,0 0.499,0.119 0.62,0.359 0.065,0.208 0.126,0.419 0.184,0.629 0.111,0.268 0.249,0.403 0.414,0.403 0.197,0 0.329,-0.12 0.392,-0.36 l 0.184,-0.672 c 0.12,-0.24 0.343,-0.359 0.674,-0.359 0.245,0 0.41,0.121 0.494,0.362 0.026,0.123 0.074,0.344 0.145,0.667 0.061,0.241 0.2,0.362 0.418,0.362 0.195,0 0.323,-0.126 0.382,-0.379 l 0.164,-0.698 c 0.12,-0.253 0.34,-0.379 0.668,-0.379 0.392,0 0.589,0.141 0.589,0.424 0,0.174 -0.035,0.347 -0.106,0.521 -0.039,0.097 -0.104,0.249 -0.195,0.457 l 0.821,0.899 c 0.089,0.097 0.154,0.091 0.195,-0.02 0.226,-0.561 0.338,-1.131 0.338,-1.707 0,-0.748 -0.112,-1.434 -0.336,-2.056 -0.314,-0.867 -0.771,-1.3 -1.371,-1.3 -0.509,0 -0.93,0.277 -1.265,0.832 -0.245,-0.555 -0.588,-0.832 -1.027,-0.832 -0.616,0 -1.028,0.286 -1.24,0.858 -0.258,-0.572 -0.635,-0.858 -1.129,-0.858 h -0.104 -0.392 -0.095 c -0.42,0 -0.819,0.277 -1.2,0.832 -0.406,-0.555 -0.776,-0.832 -1.112,-0.832 -0.219,0 -0.438,0.091 -0.652,0.275 -0.195,0.162 -0.345,0.357 -0.444,0.583 -0.386,-0.572 -0.739,-0.858 -1.062,-0.858 -0.481,0 -0.858,0.286 -1.129,0.858 -0.381,-0.572 -0.793,-0.858 -1.237,-0.858 h -0.084 -0.412 -23.523 z m 49.17,1.997 c 0,-0.554 -0.178,-1.027 -0.533,-1.421 -0.364,-0.409 -0.821,-0.615 -1.371,-0.615 -0.694,0 -1.259,0.334 -1.695,1.003 -0.292,-0.644 -0.682,-0.964 -1.168,-0.964 h -0.047 -0.36 -0.319 c -0.11,-1.413 -0.487,-2.464 -1.131,-3.151 -0.093,-0.101 -0.22,-0.151 -0.381,-0.151 h -2.977 c -0.351,0 -0.526,0.143 -0.526,0.431 0,0.156 0.075,0.271 0.227,0.342 0.546,0.258 1.205,0.629 1.976,1.11 1.04,0.652 1.569,1.107 1.586,1.365 -0.856,0 -1.415,0.049 -1.677,0.151 -0.568,0.219 -0.851,0.737 -0.851,1.547 0,0.737 0.123,1.428 0.368,2.074 0.338,0.892 0.839,1.339 1.499,1.339 0.923,0 1.528,-0.724 1.816,-2.171 h 0.39 0.21 0.025 c 0.515,0.005 0.784,0.172 0.805,0.5 0.026,0.447 0.149,0.835 0.375,1.168 0.338,0.509 0.843,0.763 1.51,0.763 0.806,0 1.408,-0.423 1.812,-1.27 0.292,-0.613 0.437,-1.296 0.437,-2.05"
             style="fill:#000002;fill-opacity:1;fill-rule:evenodd;stroke:none"
             id="path64" /></g><g
           id="g66"
           transform="translate(251.9172,143.2889)"><path
             d="m 0,0 -0.775,0.739 c -0.063,0.063 -0.126,0.063 -0.191,0 l -0.672,-0.683 -0.71,0.683 c -0.066,0.063 -0.128,0.063 -0.191,0 L -3.237,0.03 C -3.306,-0.039 -3.311,-0.102 -3.252,-0.16 L -2.5,-0.899 c 0.056,-0.057 0.11,-0.057 0.167,-0.004 l 0.686,0.695 0.726,-0.693 c 0.054,-0.055 0.111,-0.055 0.165,0 l 0.743,0.754 C 0.046,-0.093 0.05,-0.045 0,0 m -4.221,-8.812 c 0.059,-0.056 0.054,-0.117 -0.013,-0.184 l -0.851,-0.847 c -0.059,-0.059 -0.119,-0.059 -0.182,0 l -0.865,0.836 c -0.071,0.067 -0.065,0.145 0.018,0.23 l 0.797,0.795 c 0.076,0.08 0.15,0.085 0.225,0.013 z m -3.078,1.842 h -0.334 c -1.588,0 -2.381,0.83 -2.381,2.491 0,0.709 -0.027,1.639 -0.078,2.791 -0.055,1.218 -0.111,2.022 -0.169,2.416 -0.031,0.195 0.004,0.336 0.101,0.42 l 1.844,1.303 c 0.128,0.088 0.215,0.134 0.26,0.134 0.054,0 0.083,-0.05 0.083,-0.152 V -3.17 c 0,-0.558 0.225,-0.865 0.674,-0.919 v 0.005 h 0.4 c 0.451,0 0.767,0.137 0.945,0.407 0.043,0.063 0.128,0.312 0.254,0.745 0.08,0.271 0.227,0.408 0.437,0.408 0.204,0 0.336,-0.137 0.395,-0.408 0.093,-0.415 0.162,-0.665 0.21,-0.745 0.16,-0.27 0.459,-0.407 0.899,-0.407 h 0.121 0.369 0.032 c 0.451,0 0.767,0.134 0.945,0.403 0.043,0.065 0.127,0.31 0.253,0.741 0.081,0.269 0.228,0.403 0.438,0.403 0.204,0 0.336,-0.134 0.394,-0.403 0.093,-0.414 0.163,-0.661 0.21,-0.741 0.161,-0.269 0.46,-0.403 0.899,-0.403 h 0.122 0.368 0.089 c 0.232,0 0.397,0.048 0.494,0.141 -0.297,0.283 -0.444,0.528 -0.444,0.737 0,0.742 0.28,1.423 0.838,2.043 0.575,0.634 1.229,0.953 1.962,0.953 0.519,0 0.99,-0.193 1.41,-0.579 0.355,-0.331 0.607,-0.723 0.754,-1.178 0.03,-0.094 0.045,-0.187 0.045,-0.28 0,-0.253 -0.071,-0.381 -0.216,-0.381 -0.169,0 -0.438,0.045 -0.811,0.136 -0.372,0.091 -0.654,0.137 -0.849,0.137 -0.386,0 -0.763,-0.056 -1.135,-0.171 -0.449,-0.137 -0.672,-0.317 -0.672,-0.546 0,-0.236 0.243,-0.407 0.728,-0.514 0.297,-0.063 0.622,-0.095 0.977,-0.095 0.559,0 1.218,0.063 1.978,0.188 0.174,0.031 0.26,0.007 0.26,-0.069 0,-0.032 -0.017,-0.117 -0.049,-0.253 L 5.445,-5.014 C 5.241,-5.815 5.107,-6.223 5.038,-6.231 4.827,-6.259 4.483,-6.277 4.004,-6.281 3.517,-6.285 3.168,-6.27 2.955,-6.233 2.728,-6.435 2.327,-6.613 1.751,-6.764 1.24,-6.901 0.815,-6.97 0.481,-6.97 H 0.392 0.024 -0.098 c -0.608,0 -1.078,0.282 -1.414,0.845 -0.33,-0.563 -0.83,-0.845 -1.504,-0.845 h -0.253 -0.369 -0.121 c -0.609,0 -1.079,0.286 -1.415,0.858 -0.329,-0.572 -0.83,-0.858 -1.504,-0.858 h -0.269 z m -3.756,0.537 c 0,-1.579 -0.413,-2.808 -1.243,-3.687 -0.098,-0.102 -0.228,-0.152 -0.388,-0.152 h -2.977 c -0.351,0 -0.526,0.143 -0.526,0.431 0,0.156 0.073,0.271 0.221,0.342 0.559,0.267 1.248,0.683 2.067,1.244 1.066,0.728 1.599,1.246 1.599,1.556 0,0.253 -0.475,0.823 -1.424,1.711 l 1.014,2.093 c 0.061,0.12 0.139,0.135 0.236,0.046 0.516,-0.466 0.876,-0.938 1.079,-1.421 0.228,-0.546 0.342,-1.268 0.342,-2.163 m -5.687,0.221 c 0,-2.671 -1.631,-4.008 -4.895,-4.008 -2.517,0 -3.776,1.075 -3.776,3.224 0,0.433 0.091,1.012 0.273,1.74 0.227,0.918 0.494,1.378 0.793,1.378 0.351,0 0.527,-0.21 0.527,-0.631 0,-0.13 -0.022,-0.329 -0.067,-0.593 -0.046,-0.265 -0.07,-0.464 -0.07,-0.594 0,-1.179 1.018,-1.768 3.057,-1.768 1.049,0 2.024,0.156 2.923,0.47 0.156,0.054 0.234,0.121 0.234,0.197 0,0.089 -0.11,0.143 -0.329,0.165 l -2.111,0.214 c -0.87,0.176 -1.306,0.566 -1.306,1.177 0,0.68 0.242,1.469 0.73,2.366 0.605,1.118 1.328,1.677 2.169,1.677 0.539,0 0.996,-0.264 1.378,-0.793 0.314,-0.429 0.47,-0.817 0.47,-1.159 0,-0.418 -0.065,-0.626 -0.197,-0.626 -0.05,0 -0.282,0.065 -0.696,0.197 -0.411,0.132 -0.743,0.197 -0.992,0.197 -0.435,0 -0.804,-0.111 -1.105,-0.329 -0.245,-0.178 -0.368,-0.339 -0.368,-0.484 0,-0.097 0.29,-0.184 0.871,-0.26 0.884,-0.112 1.382,-0.184 1.497,-0.208 0.661,-0.145 0.99,-0.661 0.99,-1.549 M 9.141,-3.66 C 9.141,-4.03 9.085,-4.502 8.97,-5.074 8.851,-5.674 8.721,-6.129 8.576,-6.437 8.398,-6.81 8.231,-6.996 8.075,-6.996 c -0.169,0 -0.316,0.225 -0.437,0.678 -0.174,0.639 -0.542,2.841 -1.105,6.606 L 8.45,2.375 c 0.12,0.132 0.2,0.197 0.241,0.197 0.034,0 0.063,-0.058 0.088,-0.178 C 8.966,1.551 9.081,0.548 9.122,-0.62 9.135,-0.975 9.141,-1.989 9.141,-3.66"
             style="fill:#000002;fill-opacity:1;fill-rule:evenodd;stroke:none"
             id="path68" /></g></g></g></g></svg>
