<?xml version="1.0" encoding="UTF-8" standalone="no"?>
<svg
   xmlns:dc="http://purl.org/dc/elements/1.1/"
   xmlns:cc="http://creativecommons.org/ns#"
   xmlns:rdf="http://www.w3.org/1999/02/22-rdf-syntax-ns#"
   xmlns:svg="http://www.w3.org/2000/svg"
   xmlns="http://www.w3.org/2000/svg"
   xmlns:sodipodi="http://sodipodi.sourceforge.net/DTD/sodipodi-0.dtd"
   xmlns:inkscape="http://www.inkscape.org/namespaces/inkscape"
   version="1.1"
   id="svg190"
   xml:space="preserve"
   width="816"
   height="1056"
   viewBox="0 0 816 1056"
   sodipodi:docname="ansar.svg"
   inkscape:version="1.0.1 (3bc2e813f5, 2020-09-07)"><sodipodi:namedview
     pagecolor="#ffffff"
     bordercolor="#666666"
     borderopacity="1"
     objecttolerance="10"
     gridtolerance="10"
     guidetolerance="10"
     inkscape:pageopacity="0"
     inkscape:pageshadow="2"
     inkscape:window-width="1848"
     inkscape:window-height="1009"
     id="namedview706"
     showgrid="false"
     inkscape:zoom="0.66245342"
     inkscape:cx="408"
     inkscape:cy="528"
     inkscape:window-x="72"
     inkscape:window-y="34"
     inkscape:window-maximized="1"
     inkscape:current-layer="svg190" /><metadata
     id="metadata196"><rdf:RDF><cc:Work
         rdf:about=""><dc:format>image/svg+xml</dc:format><dc:type
           rdf:resource="http://purl.org/dc/dcmitype/StillImage" /><dc:title /></cc:Work></rdf:RDF></metadata><defs
     id="defs194"><clipPath
       clipPathUnits="userSpaceOnUse"
       id="clipPath218"><path
         d="M 0,792 H 612 V 0 H 0 Z"
         id="path216" /></clipPath></defs><g
     id="g198"
     transform="matrix(2.6988052,0,0,-2.6988052,-417.83466,1596.7264)"><path
       d="m 204.924,346.077 h 201.822 v 59.188 H 204.924 Z"
       style="fill:#ebb600;fill-opacity:1;fill-rule:evenodd;stroke:none"
       id="path200" /><path
       d="m 205.224,488.526 h 201.822 v 59.188 H 205.224 Z"
       style="fill:#ebb600;fill-opacity:1;fill-rule:evenodd;stroke:none"
       id="path202" /><g
       id="g204"
       transform="translate(163.1616,447.124)"><path
         d="M 0,0 142.985,142.434 184.757,100.501 41.772,-41.933 Z"
         style="fill:#a70e08;fill-opacity:1;fill-rule:evenodd;stroke:none"
         id="path206" /></g><g
       id="g208"
       transform="translate(264.0818,346.0776)"><path
         d="M 0,0 142.985,142.434 184.757,100.501 41.772,-41.933 Z"
         style="fill:#a70e08;fill-opacity:1;fill-rule:evenodd;stroke:none"
         id="path210" /></g><g
       id="g212"><g
         id="g214"
         clip-path="url(#clipPath218)"><g
           id="g220"
           transform="translate(423.8402,220.8254)"><path
             d="m 0,0 h -1.776 c -8.796,0 -13.188,4.596 -13.188,13.776 0,3.924 -0.144,9.06 -0.42,15.432 -0.3,6.732 -0.624,11.184 -0.948,13.368 -0.168,1.068 0.024,1.848 0.564,2.316 l 10.236,7.2 c 0.696,0.492 1.176,0.744 1.44,0.744 0.3,0 0.456,-0.276 0.456,-0.84 V 21.024 c 0,-3.135 1.271,-4.838 3.803,-5.1 h 7.777 c 1.38,0 2.076,0.384 2.076,1.164 0,0.396 -0.204,0.852 -0.6,1.368 -1.452,1.872 -3.324,3.828 -5.628,5.868 -0.348,0.324 -0.348,0.756 0,1.272 l 6.54,9.492 c 0.36,0.516 0.612,0.768 0.78,0.768 0.204,0 0.504,-0.24 0.876,-0.708 3.66,-4.5 5.484,-10.068 5.484,-16.728 C 17.472,11.904 16.548,7.308 14.7,4.644 12.54,1.524 8.556,-0.036 2.748,-0.036 H 0 Z m -24.792,47.172 -4.848,4.644 c -0.42,0.396 -0.816,0.396 -1.2,0 l -4.392,-4.464 c -0.468,-0.468 -0.504,-0.888 -0.108,-1.26 l 4.776,-4.62 c 0.348,-0.324 0.696,-0.324 1.02,0.012 l 4.752,4.668 c 0.36,0.36 0.36,0.696 0,1.02 M -38.22,-0.036 h -0.648 c -2.232,0 -4.68,0.864 -7.356,2.604 -2.292,1.5 -4.26,3.264 -5.904,5.304 -1.824,-3.684 -4.884,-6.204 -9.168,-7.56 -2.952,-0.936 -6.924,-1.404 -11.928,-1.404 h -2.316 -1.44 -0.744 c -6.912,0 -12.06,0.936 -15.468,2.82 -4.524,2.508 -6.78,6.924 -6.78,13.236 0,2.736 0.432,5.412 1.296,8.016 0.984,2.964 2.148,4.44 3.48,4.44 1.344,0 1.992,-1.2 1.98,-3.588 -0.024,-2.808 0.648,-4.824 2.028,-6.048 2.328,-2.064 6.996,-3.096 14.028,-3.096 8.112,0 13.476,0.396 16.104,1.2 0.612,0.18 0.912,0.456 0.912,0.804 0,0.276 -0.18,0.648 -0.564,1.092 -1.728,2.088 -5.472,6.132 -11.208,12.132 l 1.932,11.316 c 0.096,0.54 0.348,0.888 0.768,1.02 l 27.216,9 c 0.264,0.096 0.42,0.132 0.492,0.108 0.096,-0.024 0.12,-0.276 0.072,-0.768 L -42.6,38.976 c -0.048,-0.444 -0.084,-0.708 -0.132,-0.804 -0.096,-0.168 -0.348,-0.324 -0.744,-0.456 l -15.996,-5.448 c 6.54,-7.5 10.08,-11.508 10.62,-12.024 3.024,-2.88 6.036,-4.32 9.036,-4.32 h 1.596 2.052 5.892 c 1.38,0 2.076,0.384 2.076,1.164 0,0.396 -0.204,0.852 -0.6,1.368 -1.452,1.872 -3.324,3.828 -5.628,5.868 -0.348,0.336 -0.348,0.756 0,1.272 l 6.54,9.492 c 0.36,0.516 0.612,0.768 0.78,0.768 0.204,0 0.504,-0.228 0.876,-0.696 3.66,-4.5 5.484,-10.08 5.484,-16.74 0,-6.516 -0.924,-11.112 -2.772,-13.776 -2.16,-3.12 -6.144,-4.68 -11.952,-4.68 h -0.696 z m 53.124,-10.272 c 0.372,-0.276 0.372,-0.6 0,-0.984 l -4.74,-4.704 c -0.336,-0.324 -0.672,-0.324 -1.02,0 l -4.788,4.644 c -0.396,0.372 -0.372,0.804 0.084,1.284 l 4.452,4.404 c 0.372,0.384 0.768,0.384 1.176,0.012 z"
             style="fill:#1a1a18;fill-opacity:1;fill-rule:evenodd;stroke:none"
             id="path222" /></g><g
           id="g224"
           transform="translate(282.744,267.9973)"><path
             d="M 0,0 C 0.36,-0.324 0.36,-0.66 0,-1.02 L -4.752,-5.688 C -5.076,-6.024 -5.424,-6.024 -5.772,-5.7 l -4.776,4.62 c -0.396,0.372 -0.36,0.792 0.108,1.26 l 4.392,4.464 c 0.384,0.396 0.78,0.396 1.2,0 z"
             style="fill:#1a1a18;fill-opacity:1;fill-rule:evenodd;stroke:none"
             id="path226" /></g><g
           id="g228"
           transform="translate(258.84,238.6094)"><path
             d="m 0,0 c 0,2.7 -1.608,4.044 -4.812,4.044 -3.144,0 -7.188,-2.436 -12.132,-7.308 1.08,-0.048 2.124,-0.072 3.156,-0.072 4.248,0 7.704,0.396 10.38,1.2 C -1.14,-1.464 0,-0.744 0,0 M 10.476,-17.82 H 9.384 c -3.42,0 -6.108,2.052 -8.052,6.156 -2.976,-3.984 -8.016,-5.976 -15.12,-5.976 -2.196,0 -4.488,0.36 -6.852,1.092 -2.688,0.816 -4.632,1.896 -5.796,3.228 -1.896,-3 -4.104,-4.5 -6.612,-4.5 h -3.024 v 0.036 h -1.74 c -8.796,0 -13.188,4.596 -13.188,13.776 0,3.924 -0.144,9.06 -0.42,15.432 -0.3,6.732 -0.624,11.184 -0.948,13.368 -0.168,1.068 0.024,1.848 0.564,2.316 l 10.236,7.2 c 0.696,0.492 1.176,0.744 1.44,0.744 0.3,0 0.456,-0.276 0.456,-0.84 V 3.24 c 0,-3.135 1.271,-4.838 3.803,-5.1 h 2.401 c 1.5,0 2.628,0.708 3.372,2.112 0.168,0.3 0.624,1.632 1.368,3.972 0.444,1.404 1.056,2.112 1.836,2.112 0.912,0 1.752,-1.296 2.508,-3.888 0.768,-2.592 1.692,-3.888 2.796,-3.888 0.192,0 1.44,1.392 3.768,4.188 2.808,3.372 5.364,5.964 7.656,7.764 3.564,2.796 6.924,4.188 10.092,4.188 2.7,0 4.896,-0.936 6.612,-2.796 C 8.244,10.044 9.108,7.752 9.108,5.028 9.108,2.76 8.652,0.732 7.728,-1.056 8.016,-1.596 8.64,-1.86 9.6,-1.86 h 0.876 2.04 5.904 c 1.38,0 2.076,0.384 2.076,1.164 0,0.396 -0.204,0.852 -0.6,1.368 -1.452,1.872 -3.324,3.828 -5.628,5.868 -0.348,0.336 -0.348,0.756 0,1.272 l 6.54,9.492 c 0.36,0.516 0.612,0.768 0.78,0.768 0.204,0 0.504,-0.228 0.876,-0.696 3.66,-4.5 5.484,-10.08 5.484,-16.74 0,-6.516 -0.924,-11.112 -2.772,-13.776 -2.16,-3.12 -6.144,-4.68 -11.952,-4.68 h -0.708 z"
             style="fill:#1a1a18;fill-opacity:1;fill-rule:evenodd;stroke:none"
             id="path230" /></g><g
           id="g232"
           transform="translate(202.1159,223.7054)"><path
             d="m 0,0 c 0,-8.736 -2.292,-15.552 -6.888,-20.424 -0.54,-0.564 -1.26,-0.84 -2.148,-0.84 h -16.488 c -1.944,0 -2.916,0.792 -2.916,2.388 0,0.864 0.408,1.5 1.236,1.896 3.084,1.476 6.912,3.78 11.46,6.888 5.904,4.032 8.856,6.912 8.856,8.616 0,1.404 -2.64,4.572 -7.908,9.492 L -9.18,19.62 c 0.336,0.648 0.768,0.732 1.308,0.24 2.856,-2.58 4.848,-5.208 5.976,-7.872 C -0.636,8.964 0,4.968 0,0"
             style="fill:#1a1a18;fill-opacity:1;fill-rule:evenodd;stroke:none"
             id="path234" /></g><g
           id="g236"
           transform="translate(305.5439,239.1015)"><path
             d="m 0,0 c 0,-2.064 -0.312,-4.68 -0.948,-7.836 -0.66,-3.336 -1.38,-5.856 -2.184,-7.56 -0.984,-2.064 -1.908,-3.096 -2.772,-3.096 -0.936,0 -1.752,1.248 -2.424,3.756 -0.96,3.54 -3,15.744 -6.12,36.6 l 10.62,11.568 c 0.648,0.732 1.104,1.092 1.332,1.092 0.192,0 0.348,-0.324 0.492,-0.984 1.032,-4.668 1.668,-10.236 1.896,-16.704 C -0.036,14.868 0,9.264 0,0"
             style="fill:#1a1a18;fill-opacity:1;fill-rule:evenodd;stroke:none"
             id="path238" /></g></g></g></g></svg>
