<?xml version="1.0" encoding="UTF-8" standalone="no"?>
<svg
   xmlns:dc="http://purl.org/dc/elements/1.1/"
   xmlns:cc="http://creativecommons.org/ns#"
   xmlns:rdf="http://www.w3.org/1999/02/22-rdf-syntax-ns#"
   xmlns:svg="http://www.w3.org/2000/svg"
   xmlns="http://www.w3.org/2000/svg"
   xmlns:sodipodi="http://sodipodi.sourceforge.net/DTD/sodipodi-0.dtd"
   xmlns:inkscape="http://www.inkscape.org/namespaces/inkscape"
   version="1.1"
   id="svg284"
   xml:space="preserve"
   width="793.70135"
   height="1122.52"
   viewBox="0 0 793.70135 1122.52"
   sodipodi:docname="day.svg"
   inkscape:version="1.0.1 (3bc2e813f5, 2020-09-07)"><sodipodi:namedview
     pagecolor="#ffffff"
     bordercolor="#666666"
     borderopacity="1"
     objecttolerance="10"
     gridtolerance="10"
     guidetolerance="10"
     inkscape:pageopacity="0"
     inkscape:pageshadow="2"
     inkscape:window-width="1848"
     inkscape:window-height="1009"
     id="namedview732"
     showgrid="false"
     inkscape:zoom="0.57848045"
     inkscape:cx="361.41301"
     inkscape:cy="561.26001"
     inkscape:window-x="72"
     inkscape:window-y="34"
     inkscape:window-maximized="1"
     inkscape:current-layer="svg284" /><metadata
     id="metadata290"><rdf:RDF><cc:Work
         rdf:about=""><dc:format>image/svg+xml</dc:format><dc:type
           rdf:resource="http://purl.org/dc/dcmitype/StillImage" /><dc:title /></cc:Work></rdf:RDF></metadata><defs
     id="defs288"><clipPath
       clipPathUnits="userSpaceOnUse"
       id="clipPath300"><path
         d="M 0,841.89 H 595.276 V 0 H 0 Z"
         id="path298" /></clipPath></defs><g
     id="g292"
     transform="matrix(3.4985339,0,0,-3.4985339,-644.44467,1978.7715)"><g
       id="g294"><g
         id="g296"
         clip-path="url(#clipPath300)"><g
           id="g302"
           transform="translate(363.2969,384.8627)"><path
             d="m 0,0 c 7.884,-6.952 18.301,-14.83 29.297,-14.886 h 0.095 0.096 c 4.09,0.021 7.864,1.382 10.905,3.667 0.743,0.558 1.442,1.171 2.092,1.834 3.242,3.307 5.241,7.837 5.241,12.833 0,1.916 -0.294,3.764 -0.839,5.5 -1.162,3.698 -3.464,6.89 -6.494,9.167 -3.04,2.285 -6.815,3.646 -10.905,3.667 h -0.096 -0.095 -3.572 l 10e-4,-3.667 V 8.948 7.67 c 4.352,-0.014 7.884,-3.588 7.884,-7.889 0,-4.349 -3.535,-7.834 -7.853,-7.888 H 25.74 25.726 v 10e-4 h 0.011 c -0.028,0.009 -0.063,0.004 -0.092,0.004 v -0.005 c -0.481,0 -0.963,0.029 -1.441,0.071 C 17.7,-6.795 9.894,-0.102 4.661,4.386 L 4.513,4.513 Z"
             style="fill:#008aa0;fill-opacity:1;fill-rule:evenodd;stroke:none"
             id="path304" /></g><g
           id="g306"
           transform="translate(321.2867,394.2471)"><path
             d="m 0,0 c 2.168,3.786 6.028,5.991 10.366,5.991 6.6,0 13.068,-3.477 18.266,-7.256 l 3.465,5.012 -0.024,0.016 -1.315,0.894 c -0.249,0.169 -0.478,0.29 -0.643,0.406 -0.089,0.063 -0.18,0.126 -0.269,0.188 -1.855,1.289 -3.751,2.467 -5.699,3.479 -4.317,2.242 -8.96,3.655 -13.858,3.668 -3.962,0 -7.834,-1.288 -11.001,-3.668 -3.03,-2.276 -5.331,-5.469 -6.493,-9.166 -0.546,-1.736 -0.84,-3.584 -0.84,-5.501 0,-4.995 2,-9.526 5.242,-12.833 0.649,-0.662 1.348,-1.276 2.091,-1.834 3.176,-2.386 7.031,-3.658 11.001,-3.667 4.537,0 8.846,1.451 12.758,3.667 0.991,0.562 1.969,1.176 2.933,1.834 1.31,0.894 2.597,1.87 3.866,2.907 7.844,6.412 14.189,14.415 21.934,20.926 1.631,1.371 3.271,2.612 4.929,3.667 3.556,2.262 7.198,3.667 11.027,3.667 v 14.301 c -0.045,0 -0.09,0 -0.135,0 C 59.159,26.667 53.031,23.749 48.18,19.376 46.871,18.197 45.655,16.911 44.513,15.549 43.665,14.537 42.856,13.483 42.079,12.397 34.598,1.939 25.75,-17.487 10.204,-17.487 c -4.093,0 -8.09,1.904 -10.207,5.498 C -2.187,-8.281 -2.129,-3.718 0,0"
             style="fill:#008aa0;fill-opacity:1;fill-rule:evenodd;stroke:none"
             id="path308" /></g><g
           id="g310"
           transform="translate(223.7439,376.0039)"><path
             d="M 0,0 V -5.622 H -2.921 V 0 l -3.808,6.596 -3.482,6.033 h 3.372 L -0.381,1.443 C -0.096,0.948 0,0.566 0,0 M 7.291,12.629 3.808,6.597 1.18,2.044 -0.506,4.963 3.919,12.629 Z m -22.244,-10e-4 c -0.963,0.022 -1.604,-0.722 -2.077,-1.459 l -8.191,-16.791 h 3.372 l 6.896,14.548 5.21,-11.628 h -8.845 l -1.384,-2.92 h 11.133 c 0.876,0.042 1.839,0.225 2.303,1.07 0.5,0.822 0.176,1.749 -0.226,2.528 l -6.114,13.193 c -0.473,0.737 -1.114,1.481 -2.077,1.459 m -21.526,-13.87 h -2.92 v 10.95 0.731 0.73 c 0,0.802 0.657,1.46 1.46,1.46 h 0.73 0.73 2.92 c 5.039,0 9.125,-4.087 9.125,-9.126 0,-5.038 -4.086,-9.125 -9.125,-9.125 h -5.84 v 2.92 h 5.84 c 3.426,0 6.205,2.779 6.205,6.205 0,3.427 -2.779,6.205 -6.205,6.205 h -2.92 z"
             style="fill:#626261;fill-opacity:1;fill-rule:evenodd;stroke:none"
             id="path312" /></g><g
           id="g314"
           transform="translate(242.2513,374.6396)"><path
             d="m 0,0 h -2.92 v 10.951 0.73 0.73 c 0,0.802 0.657,1.46 1.46,1.46 H -0.73 0 2.92 c 2.822,0 5.111,-2.289 5.111,-5.111 C 8.031,7.737 7.729,6.784 7.211,5.985 8.996,5.082 10.22,3.232 10.22,1.095 10.22,-1.928 7.769,-4.38 4.745,-4.38 H -2.92 v 2.92 h 7.665 c 1.411,0 2.556,1.144 2.556,2.555 0,1.411 -1.145,2.556 -2.556,2.556 H 2.92 1.46 v 2.92 h 1.46 c 1.21,0 2.19,0.98 2.19,2.189 0,1.21 -0.98,2.191 -2.19,2.191 H 0 Z M 43.465,13.871 V -0.52 L 35.156,13.871 H 31.784 L 41.057,-2.19 c 0.748,-1.296 1.488,-2.19 3.138,-2.19 1.46,0 2.19,1.826 2.19,2.92 V 13.871 Z M 34.704,5.561 V -4.38 h -2.92 V 10.619 Z M 53.38,5.778 51.872,-4.38 Z M 51.872,-4.38 h -2.919 v 18.251 h 2.919 z M 20.961,13.87 c -0.964,0.022 -1.603,-0.722 -2.078,-1.459 L 10.693,-4.38 h 3.371 l 6.897,14.548 5.21,-11.628 h -8.845 l -1.385,-2.92 h 11.134 c 0.876,0.042 1.839,0.225 2.302,1.07 0.501,0.822 0.177,1.749 -0.225,2.528 l -6.114,13.193 c -0.474,0.737 -1.114,1.481 -2.077,1.459 M 61.473,-4.38 53.38,3.713 c -0.568,0.567 -0.568,1.497 0,2.065 l 8.093,8.093 h 4.13 L 56.478,4.745 65.603,-4.38 Z"
             style="fill:#626261;fill-opacity:1;fill-rule:evenodd;stroke:none"
             id="path316" /></g><g
           id="g318"
           transform="translate(197.6689,411.9962)"><path
             d="m 0,0 h 3.976 v 1.494 c 0,1.921 1.557,3.479 3.478,3.479 V 4.969 H 11.43 V 8.945 H 7.454 V 8.948 C 3.338,8.948 0,5.611 0,1.494 Z m -5.963,-15.902 c -4.116,0 -7.454,3.338 -7.454,7.454 h 0.004 V 0 h 3.975 v -8.448 h -0.003 c 0,-1.921 1.557,-3.478 3.478,-3.478 H 0 4.292 9.939 c 1.646,0 2.981,1.335 2.981,2.981 0,1.647 -1.335,2.982 -2.981,2.982 H 0 v 3.975 h 9.939 c 3.841,0 6.956,-3.115 6.956,-6.957 0,-3.841 -3.115,-6.957 -6.956,-6.957 H 4.292 0 Z"
             style="fill:#626261;fill-opacity:1;fill-rule:evenodd;stroke:none"
             id="path320" /></g><g
           id="g322"
           transform="translate(307.4908,407.0271)"><path
             d="m 0,0 h -3.975 v -3.478 c 0,-1.921 -1.558,-3.479 -3.479,-3.479 h -10.435 v -3.975 h 10.435 c 4.116,0 7.454,3.337 7.454,7.454 z m -13.914,-4.969 h -3.975 v 18.883 h 3.975 z m 5.163,-7.951 c 1.508,0 2.733,-1.224 2.733,-2.733 0,-1.509 -1.225,-2.733 -2.733,-2.733 -1.509,0 -2.733,1.224 -2.733,2.733 0,1.509 1.224,2.733 2.733,2.733"
             style="fill:#626261;fill-opacity:1;fill-rule:evenodd;stroke:none"
             id="path324" /></g><g
           id="g326"
           transform="translate(236.9274,407.0271)"><path
             d="m 0,0 h 3.975 v -3.478 c 0,-1.921 1.558,-3.479 3.479,-3.479 h 21.879 l 3.975,-3.975 H 7.454 C 3.338,-10.932 0,-7.595 0,-3.478 Z m 49.693,0 h -3.976 v -3.479 c 0,-1.92 -1.557,-3.478 -3.478,-3.478 H 37.766 L 29.319,1.491 41.742,13.914 H 36.12 L 25.102,2.896 c -0.773,-0.773 -0.773,-2.038 0,-2.811 L 36.12,-10.932 h 1.646 3.976 0.497 c 4.116,0 7.454,3.337 7.454,7.453 z m -9.95,4.224 c 1.509,0 2.733,-1.224 2.733,-2.733 0,-1.509 -1.224,-2.733 -2.733,-2.733 -1.509,0 -2.733,1.224 -2.733,2.733 0,1.509 1.224,2.733 2.733,2.733"
             style="fill:#626261;fill-opacity:1;fill-rule:evenodd;stroke:none"
             id="path328" /></g><g
           id="g330"
           transform="translate(214.2589,396.0947)"><path
             d="m 0,0 h 14.717 0.995 0.994 c 1.092,0 1.987,0.894 1.987,1.987 V 2.981 3.975 H 14.717 2.295 Z m 14.718,7.454 c 0,4.664 -3.783,8.447 -8.447,8.447 H 2.295 v 3.976 h 3.976 c 6.859,0 12.422,-5.564 12.422,-12.423 V 5.963 h -3.975 z"
             style="fill:#626261;fill-opacity:1;fill-rule:evenodd;stroke:none"
             id="path332" /></g></g></g></g></svg>
