<?xml version="1.0" encoding="UTF-8" standalone="no"?>
<svg
   xmlns:dc="http://purl.org/dc/elements/1.1/"
   xmlns:cc="http://creativecommons.org/ns#"
   xmlns:rdf="http://www.w3.org/1999/02/22-rdf-syntax-ns#"
   xmlns:svg="http://www.w3.org/2000/svg"
   xmlns="http://www.w3.org/2000/svg"
   xmlns:sodipodi="http://sodipodi.sourceforge.net/DTD/sodipodi-0.dtd"
   xmlns:inkscape="http://www.inkscape.org/namespaces/inkscape"
   version="1.1"
   id="svg378"
   xml:space="preserve"
   width="1122.52"
   height="793.70135"
   viewBox="0 0 1122.52 793.70135"
   sodipodi:docname="eghtesad-novin.svg"
   inkscape:version="1.0.1 (3bc2e813f5, 2020-09-07)"><sodipodi:namedview
     pagecolor="#ffffff"
     bordercolor="#666666"
     borderopacity="1"
     objecttolerance="10"
     gridtolerance="10"
     guidetolerance="10"
     inkscape:pageopacity="0"
     inkscape:pageshadow="2"
     inkscape:window-width="1848"
     inkscape:window-height="1009"
     id="namedview778"
     showgrid="false"
     inkscape:zoom="0.82106903"
     inkscape:cx="561.26001"
     inkscape:cy="396.85068"
     inkscape:window-x="72"
     inkscape:window-y="34"
     inkscape:window-maximized="1"
     inkscape:current-layer="svg378" /><metadata
     id="metadata384"><rdf:RDF><cc:Work
         rdf:about=""><dc:format>image/svg+xml</dc:format><dc:type
           rdf:resource="http://purl.org/dc/dcmitype/StillImage" /><dc:title /></cc:Work></rdf:RDF></metadata><defs
     id="defs382"><clipPath
       clipPathUnits="userSpaceOnUse"
       id="clipPath398"><path
         d="M 0,595.276 H 841.89 V 0 H 0 Z"
         id="path396" /></clipPath></defs><g
     id="g386"
     transform="matrix(2.1419722,0,0,-2.1419722,-340.39245,1034.383)"><g
       id="g388"
       transform="translate(509.4788,315.9264)"><path
         d="M 0,0 -4.924,-4.924 -9.849,0 -4.924,4.937 Z"
         style="fill:#1a1a18;fill-opacity:1;fill-rule:evenodd;stroke:none"
         id="path390" /></g><g
       id="g392"><g
         id="g394"
         clip-path="url(#clipPath398)"><g
           id="g400"
           transform="translate(502.1969,327.2102)"><path
             d="m 0,0 h -2.109 -2.172 -1.305 v 0.083 c -1.835,0.242 -3.442,1.007 -4.819,2.305 -2.24,2.128 -3.366,5.382 -3.366,9.749 0,2.982 -0.185,7.461 -0.544,13.45 -0.409,6.718 -0.817,11.147 -1.201,13.275 -0.123,0.693 -0.073,1.163 0.149,1.374 l 5.926,4.862 c 0.718,0.582 1.139,0.866 1.263,0.866 0,0 0.012,-0.012 0.037,-0.037 0.136,-0.025 0.21,-0.359 0.21,-1.014 V 14.426 c 0,-3.137 1.608,-4.843 4.822,-5.109 h 1.544 c 3.477,0 5.222,0.655 5.222,1.954 0,1.139 -1.349,3.192 -4.058,6.162 -0.31,0.334 -0.31,0.73 0,1.163 l 4.243,5.902 C 4.201,25.005 4.56,25.067 4.919,24.683 6.007,23.52 6.911,21.875 7.641,19.759 8.321,17.767 8.655,15.911 8.655,14.167 8.655,10.591 7.962,7.56 6.589,5.073 5.064,2.333 2.863,0.701 0,0.181 Z"
             style="fill:#1a1a18;fill-opacity:1;fill-rule:evenodd;stroke:none"
             id="path402" /></g><g
           id="g404"
           transform="translate(482.7404,362.8556)"><path
             d="m 0,0 -4.875,-4.924 -4.936,4.912 4.924,4.924 z"
             style="fill:#1a1a18;fill-opacity:1;fill-rule:evenodd;stroke:none"
             id="path406" /></g><g
           id="g408"
           transform="translate(483.0004,341.377)"><path
             d="m 0,0 c 0,-3.576 -0.693,-6.607 -2.066,-9.094 -1.881,-3.378 -4.789,-5.073 -8.698,-5.073 h -3.199 -0.278 -5.302 c -2.339,0 -4.826,1.102 -7.436,3.304 -1.522,1.274 -4.17,4.033 -7.931,8.265 -0.173,-3.873 -1.844,-6.991 -4.998,-9.367 -1.238,-0.915 -4.269,-1.645 -9.107,-2.202 -3.984,-0.457 -7.857,-0.692 -11.593,-0.692 -6.743,0 -11.581,0.631 -14.501,1.88 -4.54,1.967 -6.817,5.79 -6.817,11.494 0,2.4 0.631,4.739 1.881,7.04 1.138,2.054 2.078,3.081 2.833,3.081 0.915,0 1.373,-0.507 1.373,-1.522 0,-0.421 -0.185,-1.175 -0.556,-2.276 -0.384,-1.089 -0.57,-1.943 -0.57,-2.549 0,-3.873 1.869,-6.298 5.617,-7.288 1.745,-0.457 5.964,-0.692 12.658,-0.692 8.092,0 13.597,0.321 16.493,0.977 2.177,0.482 3.266,1.349 3.266,2.573 0,1.572 -1.497,3.984 -4.467,7.251 -2.722,2.994 -5.258,5.221 -7.572,6.669 l 1.782,9.353 c 10.121,4.046 19.301,7.399 27.541,10.084 l -1.88,-8.265 c -4.281,-1.348 -11.111,-3.687 -20.489,-6.991 3.724,-3.55 7.732,-7.596 12.038,-12.149 3.291,-3.477 5.556,-5.692 6.818,-6.632 1.781,-1.349 3.65,-2.029 5.58,-2.029 h 5.339 0.278 3.743 c 3.477,0 5.221,0.656 5.221,1.955 0,1.138 -1.348,3.192 -4.058,6.161 -0.309,0.347 -0.309,0.73 0,1.163 l 4.244,5.902 c 0.359,0.507 0.718,0.569 1.076,0.186 C -2.648,9.353 -1.745,7.708 -1.014,5.592 -0.334,3.6 0,1.744 0,0"
             style="fill:#1a1a18;fill-opacity:1;fill-rule:evenodd;stroke:none"
             id="path410" /></g><g
           id="g412"
           transform="translate(395.6542,335.401)"><path
             d="m 0,0 c 0,-1.72 -0.915,-4.516 -2.759,-8.414 -0.482,-1.014 -0.817,-1.521 -1.014,-1.521 -0.31,0 -0.557,1.126 -0.755,3.377 l -3.452,38.281 6.669,5.543 c 0.445,0.359 0.754,0.545 0.952,0.545 0.235,0 0.359,-0.26 0.359,-0.768 z"
             style="fill:#1a1a18;fill-opacity:1;fill-rule:evenodd;stroke:none"
             id="path414" /></g><g
           id="g416"
           transform="translate(301.8305,327.2102)"><path
             d="m 0,0 v 0.423 c 2.181,0.68 3.983,2.182 5.401,4.501 1.349,-1.955 3.168,-3.291 5.432,-4.021 1.67,-0.532 3.947,-0.792 6.854,-0.792 3.811,0 6.805,0.211 8.958,0.619 3.205,0.606 5.902,1.794 8.079,3.588 0.899,-2.115 2.377,-3.451 4.424,-4.012 V 0 h 2.455 3.274 1.304 v 0.064 c 3.443,0.347 6.102,2.106 7.975,5.269 0.94,-1.596 2.277,-2.883 4.009,-3.861 1.051,-0.597 2.129,-1.014 3.236,-1.248 V 0 h 2.146 3.439 0.972 c 5.729,0 9.948,0.903 12.657,2.722 3.168,2.128 4.751,6.26 4.751,12.397 0,3.725 -0.519,7.115 -1.558,10.183 -1.671,4.937 -4.393,7.399 -8.154,7.399 -2.759,0 -5.036,-1.745 -6.817,-5.221 -1.473,-2.871 -2.215,-5.779 -2.215,-8.698 0,-3.551 2.4,-5.333 7.213,-5.333 1.262,0 3.427,0.149 6.496,0.433 0.965,0.099 1.447,-0.186 1.447,-0.829 0,-1.064 -0.432,-1.819 -1.299,-2.252 C 78.512,9.812 74.664,9.317 68.911,9.317 H 66.986 63.25 c -2.895,0 -4.9,0.791 -6.013,2.363 -0.557,0.792 -1.015,2.251 -1.374,4.38 -0.272,1.571 -0.841,2.363 -1.707,2.363 -0.891,0 -1.485,-0.792 -1.782,-2.363 -0.383,-2.129 -0.927,-3.588 -1.621,-4.38 -1.36,-1.572 -3.798,-2.363 -7.324,-2.363 h -4.281 -0.081 c 1.336,2.338 2.004,4.763 2.004,7.25 0,2.413 -0.903,4.367 -2.684,5.864 -1.671,1.423 -3.737,2.141 -6.199,2.141 -3.143,0 -6.879,-1.955 -11.21,-5.865 -2.845,-2.561 -5.679,-5.691 -8.512,-9.39 -2.004,0 -3.439,0.742 -4.318,2.214 -0.284,0.507 -0.705,1.856 -1.262,4.058 -0.359,1.473 -0.977,2.203 -1.856,2.203 -0.742,0 -1.274,-0.73 -1.584,-2.203 C 3.026,13.635 2.519,12.274 1.912,11.531 0.878,10.208 -0.876,9.475 -3.35,9.34 c -3.054,0.33 -4.581,2.028 -4.581,5.086 v 30.487 c 0,0.655 -0.074,0.989 -0.21,1.014 -0.025,0.025 -0.037,0.037 -0.037,0.037 -0.124,0 -0.545,-0.284 -1.263,-0.866 l -5.926,-4.862 c -0.222,-0.211 -0.272,-0.681 -0.148,-1.374 0.383,-2.128 0.792,-6.557 1.2,-13.275 0.359,-5.989 0.544,-10.468 0.544,-13.45 0,-4.367 1.126,-7.621 3.366,-9.749 1.377,-1.298 2.984,-2.063 4.819,-2.305 V 0 h 1.305 1.38 z m 35.232,12.546 c 0,1.485 -0.804,2.66 -2.401,3.501 -1.299,0.705 -2.759,1.052 -4.379,1.052 -3.119,0 -6.979,-2.623 -11.606,-7.881 1.992,-0.149 3.86,-0.223 5.63,-0.223 4.169,0 7.473,0.445 9.885,1.336 1.918,0.705 2.871,1.435 2.871,2.215 m 26.137,16.084 -4.466,-4.417 -4.405,4.43 4.417,4.417 z m -9.898,0 -4.466,-4.417 -4.405,4.43 4.417,4.417 z m 28.414,-8.079 c -0.68,1.645 -1.707,2.92 -3.117,3.811 -1.04,0.655 -1.98,0.977 -2.821,0.977 -0.768,0 -1.473,-0.26 -2.079,-0.779 -0.619,-0.52 -0.928,-1.151 -0.928,-1.906 0,-1.695 1.646,-2.536 4.924,-2.536 1.213,0 2.549,0.148 4.021,0.433 m 4.356,21.095 -4.43,-4.442 -4.454,4.442 4.454,4.467 z m -9.898,0 -4.43,-4.442 -4.454,4.442 4.454,4.467 z"
             style="fill:#1a1a18;fill-opacity:1;fill-rule:evenodd;stroke:none"
             id="path418" /></g><g
           id="g420"
           transform="translate(287.0385,340.3746)"><path
             d="m 0,0 c 0,-8.772 -5.481,-13.164 -16.456,-13.164 -6.285,0 -9.427,2.932 -9.427,8.809 0,0.557 0.037,1.138 0.111,1.732 0.383,3.217 1.25,4.825 2.61,4.825 0.767,0 1.201,-0.557 1.3,-1.67 0.123,-1.522 0.433,-2.561 0.94,-3.142 0.965,-1.114 2.932,-1.671 5.877,-1.671 1.856,0 3.86,0.186 6.013,0.545 3.167,0.532 4.751,1.323 4.751,2.388 0,1.917 -1.695,4.28 -5.073,7.101 -3.068,2.562 -5.58,4.108 -7.534,4.64 l 2.165,8.129 c 0.148,0.557 0.309,0.829 0.47,0.829 0.148,0 0.421,-0.124 0.804,-0.359 3.526,-2.252 6.52,-4.937 8.995,-8.054 C -1.485,7.176 0,3.526 0,0"
             style="fill:#1a1a18;fill-opacity:1;fill-rule:evenodd;stroke:none"
             id="path422" /></g><g
           id="g424"
           transform="translate(206.1743,327.2102)"><path
             d="m 0,0 v 0.074 c 3.227,0.358 5.677,2.027 7.331,4.999 1.374,2.487 2.067,5.518 2.067,9.094 0,1.744 -0.334,3.6 -1.015,5.592 C 7.653,21.875 6.75,23.52 5.661,24.683 5.302,25.067 4.944,25.005 4.585,24.498 L 0.341,18.596 c -0.309,-0.433 -0.309,-0.829 0,-1.163 2.71,-2.97 4.058,-5.023 4.058,-6.162 0,-1.299 -1.744,-1.954 -5.221,-1.954 h -4.021 -0.378 c -1.955,0 -3.7,0.68 -5.221,2.029 -0.916,0.816 -2.166,2.363 -3.737,4.639 -0.359,0.532 -0.668,0.532 -0.94,0 l -3.588,-7.324 c 1.422,-1.25 3.031,-3.118 4.825,-5.58 2.103,-2.895 3.155,-5.024 3.155,-6.385 0,-2.165 -1.794,-3.934 -5.37,-5.283 -3.118,-1.187 -6.582,-1.781 -10.405,-1.781 -3.885,0 -6.83,0.495 -8.809,1.484 -2.735,1.374 -4.096,3.786 -4.096,7.214 0,1.138 0.372,2.783 1.102,4.949 0.742,2.165 1.113,3.452 1.113,3.86 0,1.348 -0.482,2.029 -1.448,2.029 -1.385,0 -2.746,-2.14 -4.095,-6.409 -1.163,-3.65 -1.745,-6.434 -1.745,-8.339 0,-3.774 1.102,-6.892 3.304,-9.354 2.722,-3.068 6.879,-4.602 12.472,-4.602 6.223,0 11.197,1.212 14.896,3.625 4.392,2.87 6.595,7.287 6.595,13.226 0,1.138 -0.087,2.326 -0.26,3.551 0.7,-0.411 1.579,-0.674 2.63,-0.792 V 0 h 1.391 2.085 z m -21.85,21.479 -4.875,-4.949 -4.924,4.936 4.937,4.888 z m 37.743,-32.342 -4.417,4.405 -4.454,-4.43 4.442,-4.442 z m -9.898,0 -4.417,-4.467 -4.454,4.442 4.454,4.43 z M 43.181,0 h -2.183 -3.476 -0.713 c 0,-6.112 -2.078,-11.531 -6.235,-16.233 -1.336,-1.497 -2.178,-2.252 -2.537,-2.252 -6.087,0 -10.912,0.619 -14.463,1.844 -0.681,0.247 -0.705,0.47 -0.074,0.693 4.182,1.497 8.376,3.897 12.583,7.238 4.466,3.514 6.706,6.458 6.706,8.821 h -2.438 -2.388 c -3.217,-0.049 -5.58,0.31 -7.102,1.089 -2.004,1.015 -3.006,2.92 -3.006,5.729 0,2.536 0.804,5.444 2.425,8.735 1.955,3.984 4.281,5.976 6.953,5.976 2.735,0 4.999,-1.436 6.78,-4.318 1.398,-2.24 2.339,-4.912 2.796,-8.005 h 0.713 4.021 c 3.476,0 5.221,0.655 5.221,1.954 0,1.139 -1.349,3.192 -4.058,6.162 -0.309,0.346 -0.309,0.73 0,1.163 l 4.244,5.902 c 0.358,0.507 0.717,0.569 1.076,0.185 1.089,-1.163 1.992,-2.808 2.722,-4.924 0.681,-1.992 1.015,-3.848 1.015,-5.592 0,-3.576 -0.693,-6.607 -2.067,-9.094 C 48.184,2.357 46.008,0.729 43.181,0.196 Z M 31.44,9.205 c -0.656,1.646 -1.683,2.92 -3.081,3.811 -1.064,0.68 -2.004,1.015 -2.821,1.015 -0.754,0 -1.448,-0.26 -2.066,-0.792 -0.631,-0.532 -0.94,-1.163 -0.94,-1.893 0,-1.695 1.348,-2.537 4.058,-2.537 1.25,0 2.87,0.136 4.85,0.396 m 20.063,26.44 -4.875,-4.924 -4.937,4.912 4.925,4.925 z"
             style="fill:#1a1a18;fill-opacity:1;fill-rule:evenodd;stroke:none"
             id="path426" /></g><g
           id="g428"
           transform="translate(463.2248,316.4358)"><path
             d="m 0,0 -0.83,-1.239 -1.22,0.824 0.861,1.251 z M 3.728,-4.961 H 2.604 C 2.483,-6.648 2.025,-7.906 1.235,-8.735 c -0.842,-0.87 -2.093,-1.307 -3.756,-1.307 -0.879,0 -1.594,0.238 -2.152,0.715 -0.591,0.505 -0.889,1.186 -0.889,2.053 0,0.926 0.415,1.858 1.242,2.803 0.05,0.055 0.099,0.083 0.146,0.089 0.049,0 0.074,-0.018 0.074,-0.062 0,-0.043 -0.022,-0.09 -0.065,-0.145 -0.489,-0.635 -0.734,-1.313 -0.734,-2.031 0,-0.647 0.341,-1.152 1.025,-1.515 0.557,-0.297 1.189,-0.446 1.895,-0.446 0.647,0 1.294,0.094 1.936,0.282 0.783,0.229 1.325,0.557 1.622,0.988 0.176,0.254 0.263,0.883 0.263,1.889 0,0.356 -0.062,0.632 -0.182,0.824 -0.071,0.12 -0.217,0.331 -0.437,0.625 -0.05,0.068 -0.05,0.146 0,0.236 l 0.536,1.043 c 0.086,0.17 0.179,0.17 0.281,0 0.316,-0.536 0.679,-0.805 1.09,-0.805 h 0.598 z m -14.391,-3.003 -0.836,-1.242 -1.217,0.827 0.861,1.244 z m -0.145,5.387 c 0,0.768 -0.164,1.422 -0.49,1.961 -0.095,0.158 -0.201,0.139 -0.309,-0.056 l -0.616,-1.068 c 0.532,-0.635 0.799,-1.075 0.799,-1.323 0,-0.133 -0.261,-0.247 -0.781,-0.337 -0.387,-0.065 -0.709,-0.099 -0.963,-0.099 h -0.607 v -1.462 h 0.589 c 0.746,0 1.316,0.192 1.715,0.573 0.158,0.149 0.31,0.434 0.455,0.852 0.14,0.393 0.208,0.712 0.208,0.959 m -2.374,-2.384 h -0.771 c -0.74,0 -1.224,0.456 -1.453,1.369 -0.061,0.244 -0.167,1.235 -0.318,2.976 -0.192,2.263 -0.353,3.802 -0.48,4.62 -0.013,0.071 0.226,0.445 0.715,1.124 0.068,0.089 0.124,0.136 0.164,0.136 0.05,0 0.08,-0.074 0.09,-0.226 l 0.455,-6.651 c 0.049,-0.706 0.111,-1.152 0.189,-1.332 0.164,-0.369 0.508,-0.554 1.028,-0.554 h 0.381 z m -4.526,8.011 -0.833,-1.242 -1.22,0.824 0.864,1.251 z m -0.164,-5.627 c 0,0.772 -0.165,1.422 -0.49,1.961 -0.096,0.158 -0.201,0.139 -0.309,-0.053 l -0.617,-1.071 c 0.533,-0.635 0.8,-1.075 0.8,-1.323 0,-0.133 -0.261,-0.244 -0.781,-0.337 -0.387,-0.065 -0.709,-0.099 -0.963,-0.099 h -0.607 v -1.462 h 0.588 c 0.747,0 1.317,0.192 1.716,0.573 0.158,0.149 0.31,0.434 0.455,0.852 0.14,0.393 0.208,0.712 0.208,0.959 m -13.925,3.013 c 0,0.267 -0.241,0.505 -0.724,0.713 -0.486,0.207 -0.728,0.316 -0.728,0.322 0,0.176 0.316,0.347 0.945,0.517 0.17,0.065 0.253,0.285 0.253,0.653 0,0.322 -0.08,0.459 -0.244,0.418 -0.622,-0.241 -1.109,-0.635 -1.452,-1.179 -0.254,-0.406 -0.381,-0.765 -0.381,-1.081 0,-0.235 0.254,-0.446 0.762,-0.626 0.476,-0.17 0.706,-0.285 0.681,-0.343 -0.133,-0.304 -0.57,-0.456 -1.307,-0.456 -0.266,0 -0.551,0.028 -0.852,0.084 -0.018,-0.013 -0.037,-0.022 -0.055,-0.028 0.012,-0.031 0.04,-0.068 0.08,-0.108 0.424,-0.394 0.923,-0.592 1.499,-0.592 0.375,0 0.721,0.189 1.044,0.564 0.318,0.375 0.479,0.756 0.479,1.142 m 11.551,-5.397 h -0.638 c -0.483,0 -1.18,0.427 -2.094,1.279 -1.433,1.344 -2.248,2.084 -2.44,2.224 0.096,-0.261 0.143,-0.524 0.143,-0.79 0,-0.836 -0.412,-1.483 -1.233,-1.942 -0.501,-0.278 -1.285,-0.523 -2.35,-0.733 -1.44,-0.285 -3.01,-0.428 -4.707,-0.428 -1.266,0 -2.229,0.133 -2.895,0.4 -1.015,0.405 -1.523,1.142 -1.523,2.214 0,0.798 0.294,1.569 0.879,2.313 0.062,0.077 0.118,0.117 0.174,0.117 0.102,0 0.12,-0.092 0.052,-0.282 -0.248,-0.709 -0.372,-1.179 -0.372,-1.415 0,-0.74 0.583,-1.263 1.744,-1.569 0.712,-0.19 1.576,-0.282 2.592,-0.282 1.573,0 2.963,0.108 4.174,0.325 1.808,0.328 2.712,0.836 2.712,1.526 0,0.394 -0.458,0.877 -1.378,1.453 -1.223,0.762 -1.91,1.216 -2.059,1.369 -0.303,0.303 -0.455,0.832 -0.455,1.588 0,0.362 0.074,0.622 0.226,0.78 0.944,0.966 2.378,1.988 4.301,3.056 1.719,0.957 3.205,1.626 4.456,2.007 -0.235,-0.709 -0.48,-1.248 -0.734,-1.623 -3.075,-1.186 -5.505,-2.52 -7.295,-4 -0.171,-0.139 -0.254,-0.254 -0.254,-0.347 0,-0.121 0.121,-0.241 0.362,-0.362 l 1.514,-0.771 c 0.88,-0.452 1.573,-0.858 2.087,-1.217 0.75,-0.521 1.744,-1.335 2.976,-2.45 0.728,-0.653 1.263,-0.978 1.616,-0.978 h 0.419 z m -26.022,7.658 -0.833,-1.242 -1.217,0.824 0.861,1.251 z m 2.967,-4.382 -0.381,-1.207 h -1.053 c -1.363,0 -2.415,-0.14 -3.168,-0.418 -0.368,-0.139 -1.164,-0.511 -2.384,-1.115 -0.722,-0.356 -1.381,-0.536 -1.988,-0.536 h -0.734 v 1.462 h 0.799 c 0.446,0 1.077,0.13 1.895,0.39 1.102,0.35 1.743,0.548 1.923,0.588 0.102,0.025 0.155,0.053 0.155,0.084 0,0.028 -0.053,0.062 -0.155,0.099 -0.427,0.152 -0.892,0.31 -1.387,0.48 -0.459,0.158 -0.842,0.235 -1.152,0.235 -0.533,0 -0.969,-0.068 -1.307,-0.207 -0.115,-0.05 -0.195,-0.053 -0.245,-0.009 -0.049,0.04 -0.046,0.136 0.01,0.281 0.362,0.991 1.028,1.487 1.994,1.487 0.322,0 0.796,-0.13 1.424,-0.39 0.951,-0.394 1.583,-0.638 1.898,-0.734 0.852,-0.26 1.725,-0.391 2.62,-0.391 h 1.161 c 0.056,0 0.084,-0.018 0.084,-0.055 0,-0.01 -0.003,-0.025 -0.009,-0.044 m -11.305,-0.359 c 0,-0.241 -0.514,-0.529 -1.542,-0.867 -1.118,-0.368 -2.195,-0.563 -3.236,-0.588 0.387,0.511 0.858,0.972 1.415,1.381 0.725,0.536 1.387,0.805 1.985,0.805 0.242,0 0.517,-0.062 0.824,-0.189 0.368,-0.158 0.554,-0.337 0.554,-0.542 m 2.189,-2.917 v 1.462 h -0.554 c -0.356,0 -0.917,-0.115 -1.678,-0.344 -0.821,-0.251 -1.394,-0.39 -1.716,-0.418 1.905,0.802 2.858,1.768 2.858,2.892 0,1.047 -0.514,1.57 -1.542,1.57 -1.003,0 -2.05,-0.498 -3.14,-1.495 -0.91,-0.871 -1.538,-1.481 -1.876,-1.824 -0.26,-0.254 -0.644,-0.381 -1.152,-0.381 -0.418,0 -0.709,0.031 -0.87,0.09 -0.241,0.092 -0.406,0.278 -0.489,0.563 -0.013,0.04 -0.028,0.164 -0.047,0.372 -0.012,0.145 -0.056,0.216 -0.127,0.216 -0.037,0 -0.136,-0.108 -0.3,-0.325 -0.464,-0.61 -0.982,-0.916 -1.551,-0.916 h -0.607 v -1.462 h 0.427 c 0.579,0 1.071,0.341 1.477,1.025 0.213,-0.464 0.511,-0.762 0.898,-0.889 0.272,-0.089 0.793,-0.136 1.561,-0.136 C -60.948,-5.342 -61,-5.645 -61,-5.868 c 0,-0.235 0.059,-0.353 0.173,-0.353 0.09,0 0.192,0.133 0.301,0.399 0.223,0.548 0.34,0.836 0.353,0.861 z m -13.785,1.477 c -0.049,0.251 -0.151,0.465 -0.309,0.644 -0.18,0.214 -0.387,0.319 -0.616,0.319 -0.254,0 -0.381,-0.157 -0.381,-0.47 0,-0.369 0.306,-0.555 0.917,-0.555 0.139,0 0.269,0.022 0.389,0.062 m 1.589,-1.477 h -0.988 c -0.068,-0.857 -0.489,-1.777 -1.263,-2.755 -0.901,-1.143 -1.883,-1.716 -2.948,-1.716 -0.412,0 -0.96,0.272 -1.65,0.814 -0.357,0.279 -0.536,0.471 -0.536,0.573 0,0.053 0.052,0.081 0.155,0.081 0.164,0 0.43,-0.05 0.808,-0.152 0.375,-0.102 0.656,-0.155 0.851,-0.155 0.731,0 1.564,0.356 2.496,1.072 0.979,0.749 1.468,1.474 1.468,2.176 -0.672,0 -1.168,0.056 -1.486,0.171 -0.462,0.164 -0.691,0.47 -0.691,0.916 0,0.545 0.186,1.14 0.555,1.787 0.393,0.696 0.802,1.043 1.222,1.043 0.381,0 0.682,-0.318 0.898,-0.959 0.165,-0.487 0.248,-0.964 0.248,-1.434 h 0.861 z m -9.254,2.917 c 0,-0.241 -0.514,-0.529 -1.542,-0.867 -1.118,-0.368 -2.196,-0.563 -3.236,-0.588 0.387,0.511 0.857,0.972 1.415,1.381 0.724,0.536 1.387,0.805 1.985,0.805 0.241,0 0.517,-0.062 0.823,-0.189 0.369,-0.158 0.555,-0.337 0.555,-0.542 m 1.099,0.675 c 0,1.047 -0.514,1.57 -1.542,1.57 -1.004,0 -2.05,-0.498 -3.14,-1.495 -0.91,-0.871 -1.539,-1.481 -1.877,-1.824 -0.26,-0.254 -0.643,-0.381 -1.152,-0.381 -0.417,0 -0.708,0.031 -0.869,0.09 -0.242,0.092 -0.406,0.278 -0.49,0.563 -0.012,0.04 -0.028,0.164 -0.046,0.372 -0.013,0.145 -0.056,0.216 -0.127,0.216 -0.037,0 -0.136,-0.108 -0.301,-0.325 -0.464,-0.61 -0.981,-0.916 -1.551,-0.916 h -0.607 v -1.462 h 0.427 c 0.561,0 1.056,0.341 1.478,1.025 0.213,-0.464 0.51,-0.762 0.897,-0.889 0.273,-0.089 0.793,-0.136 1.561,-0.136 -0.102,-0.381 -0.155,-0.684 -0.155,-0.907 0,-0.235 0.059,-0.353 0.174,-0.353 0.089,0 0.192,0.139 0.3,0.418 0.204,0.527 0.322,0.817 0.353,0.88 1.471,0.052 2.787,0.288 3.954,0.696 1.809,0.638 2.713,1.589 2.713,2.858 m -11.103,-3.592 h -1.651 c -0.405,0 -0.805,-0.086 -1.198,-0.263 -0.35,-0.158 -0.526,-0.288 -0.526,-0.39 0,-0.09 0.223,-0.18 0.672,-0.263 0.953,-0.177 1.48,-0.282 1.579,-0.319 0.452,-0.155 0.678,-0.428 0.678,-0.815 0,-0.514 -0.108,-0.919 -0.325,-1.217 -0.52,-0.703 -1.375,-1.238 -2.558,-1.616 -0.988,-0.307 -2.006,-0.461 -3.059,-0.461 -1.009,0 -1.83,0.22 -2.465,0.662 -0.734,0.508 -1.099,1.245 -1.099,2.214 0,1.27 0.34,2.363 1.025,3.277 0.102,0.139 0.182,0.207 0.235,0.207 0.037,0 0.056,-0.031 0.056,-0.09 0,-0.087 -0.034,-0.195 -0.1,-0.328 -0.349,-0.712 -0.526,-1.381 -0.526,-2.007 0,-0.863 0.384,-1.508 1.152,-1.932 0.623,-0.344 1.4,-0.517 2.332,-0.517 1.093,0 2.158,0.161 3.192,0.48 0.932,0.291 1.397,0.548 1.397,0.774 0,0.108 -0.186,0.195 -0.564,0.263 -0.223,0.035 -0.619,0.099 -1.186,0.189 -0.963,0.158 -1.443,0.489 -1.443,0.991 0,0.551 0.322,1.112 0.97,1.688 0.709,0.622 1.502,0.935 2.378,0.935 h 1.034 z m -19.237,-1.917 -0.833,-1.241 -1.217,0.826 0.861,1.248 z m 3.967,5.193 c 0.006,0.019 0.009,0.034 0.009,0.044 0,0.037 -0.028,0.055 -0.084,0.055 h -1.161 c -0.895,0 -1.768,0.131 -2.62,0.391 -0.315,0.096 -0.947,0.34 -1.898,0.734 -0.628,0.26 -1.102,0.39 -1.424,0.39 -0.966,0 -1.632,-0.496 -1.994,-1.487 -0.056,-0.145 -0.059,-0.241 -0.01,-0.281 0.05,-0.044 0.13,-0.041 0.245,0.009 0.338,0.139 0.774,0.207 1.307,0.207 0.31,0 0.693,-0.077 1.152,-0.235 0.495,-0.17 0.96,-0.328 1.387,-0.48 0.102,-0.037 0.155,-0.071 0.155,-0.099 0,-0.031 -0.053,-0.059 -0.155,-0.084 -0.18,-0.04 -0.821,-0.238 -1.923,-0.588 -0.818,-0.26 -1.449,-0.39 -1.895,-0.39 h -0.799 v -1.462 h 0.734 c 0.607,0 1.266,0.18 1.988,0.536 1.22,0.604 2.016,0.976 2.384,1.115 0.753,0.278 1.805,0.418 3.168,0.418 h 1.053 z m -12.738,-2.087 c 0.024,0.242 -0.025,0.561 -0.152,0.954 -0.146,0.449 -0.325,0.672 -0.536,0.672 -0.189,0 -0.43,-0.232 -0.728,-0.7 0.298,-0.229 0.769,-0.539 1.416,-0.926 m 3.62,-1.189 h -0.508 c -0.672,0 -1.344,0.242 -2.022,0.725 -0.031,-0.406 -0.075,-0.675 -0.137,-0.815 -0.09,-0.207 -0.244,-0.309 -0.461,-0.309 -0.406,0 -1.022,0.288 -1.842,0.86 -0.589,0.412 -0.92,0.62 -0.998,0.62 0.313,0 0.155,-0.183 -0.476,-0.542 -0.632,-0.359 -1.059,-0.539 -1.276,-0.539 h -0.499 v 1.462 h 0.663 c 0.827,0 1.468,0.353 1.923,1.062 0.489,0.762 0.935,1.143 1.334,1.143 0.282,0 0.623,-0.193 1.016,-0.573 l 1.106,-1.059 c 0.483,-0.381 0.988,-0.573 1.508,-0.573 h 0.669 z m -10.051,-1.762 c 0,-0.17 -0.102,-0.309 -0.31,-0.418 -0.167,-0.089 -0.346,-0.136 -0.532,-0.136 -0.328,0 -0.613,0.208 -0.855,0.626 -0.192,0.328 -0.312,0.684 -0.362,1.065 0.362,-0.025 0.771,-0.134 1.223,-0.328 0.557,-0.242 0.836,-0.511 0.836,-0.809 m -0.145,4.902 c 0,-0.322 -0.623,-0.693 -1.868,-1.118 0.502,1.193 0.939,1.787 1.314,1.787 0.157,0 0.29,-0.071 0.396,-0.211 0.105,-0.142 0.158,-0.297 0.158,-0.458 m 2.585,-3.14 v 1.462 h -0.789 c -0.319,0 -0.79,-0.087 -1.406,-0.264 -0.617,-0.176 -1.078,-0.263 -1.378,-0.263 0.508,0.415 0.836,0.734 0.988,0.951 0.405,0.588 0.606,1.347 0.606,2.276 0,0.811 -0.167,1.217 -0.507,1.217 -0.483,0 -1.031,-0.486 -1.641,-1.459 -0.437,-0.696 -0.784,-1.393 -1.044,-2.096 -0.483,-0.241 -1.047,-0.362 -1.688,-0.362 h -0.479 v -1.462 h 0.452 c 0.266,0 0.634,0.034 1.099,0.099 v -0.554 h 0.437 c 0.04,-0.768 0.213,-1.474 0.517,-2.121 0.38,-0.818 0.86,-1.226 1.44,-1.226 0.467,0 0.851,0.266 1.151,0.796 0.267,0.464 0.4,0.969 0.4,1.514 0,0.486 -0.155,0.901 -0.462,1.238 0.521,0.177 1.056,0.261 1.605,0.254 z m -8.316,1.477 c -0.05,0.251 -0.152,0.465 -0.31,0.644 -0.179,0.214 -0.387,0.319 -0.616,0.319 -0.254,0 -0.381,-0.157 -0.381,-0.47 0,-0.369 0.307,-0.555 0.917,-0.555 0.139,0 0.269,0.022 0.39,0.062 m 1.588,-1.477 h -0.988 c -0.068,-0.857 -0.489,-1.777 -1.263,-2.755 -0.901,-1.143 -1.882,-1.716 -2.948,-1.716 -0.411,0 -0.96,0.272 -1.65,0.814 -0.356,0.279 -0.536,0.471 -0.536,0.573 0,0.053 0.053,0.081 0.155,0.081 0.164,0 0.43,-0.05 0.808,-0.152 0.375,-0.102 0.657,-0.155 0.852,-0.155 0.73,0 1.564,0.356 2.496,1.072 0.978,0.749 1.467,1.474 1.467,2.176 -0.672,0 -1.167,0.056 -1.486,0.171 -0.461,0.164 -0.691,0.47 -0.691,0.916 0,0.545 0.186,1.14 0.555,1.787 0.393,0.696 0.802,1.043 1.223,1.043 0.381,0 0.681,-0.318 0.898,-0.959 0.164,-0.487 0.248,-0.964 0.248,-1.434 h 0.86 z m -8.167,1.369 c 0,-1.282 -0.437,-2.428 -1.307,-3.437 -0.827,-0.963 -1.62,-1.443 -2.375,-1.443 -0.365,0 -0.774,0.09 -1.226,0.266 -0.452,0.18 -0.815,0.393 -1.081,0.641 -0.053,0.05 -0.08,0.102 -0.08,0.164 0,0.096 0.049,0.146 0.145,0.146 0.025,0 0.05,-0.007 0.081,-0.019 0.374,-0.152 0.764,-0.229 1.17,-0.229 0.712,0 1.564,0.427 2.549,1.279 0.95,0.824 1.424,1.486 1.424,1.988 0,0.557 -0.434,1.285 -1.297,2.189 l 0.563,1.288 c 0.068,0.152 0.152,0.18 0.254,0.09 0.786,-0.709 1.18,-1.681 1.18,-2.923 m -6.843,4.202 c 0,-0.14 -0.043,-0.369 -0.127,-0.691 -0.086,-0.318 -0.142,-0.479 -0.173,-0.479 -0.019,0 -0.164,0.052 -0.437,0.154 -0.269,0.102 -0.483,0.155 -0.634,0.155 -0.617,0 -1.261,-0.26 -1.93,-0.78 -0.634,-0.496 -0.953,-0.932 -0.953,-1.307 0,-0.446 0.331,-0.734 0.997,-0.861 0.347,-0.055 0.969,-0.155 1.87,-0.3 0.666,-0.109 0.997,-0.328 0.997,-0.663 0,-0.907 -0.247,-1.61 -0.743,-2.112 -0.353,-0.353 -1.025,-0.74 -2.025,-1.161 -1.316,-0.557 -2.549,-0.836 -3.691,-0.836 -0.939,0 -1.697,0.204 -2.279,0.616 -0.654,0.474 -0.979,1.161 -0.979,2.069 0,1.371 0.44,2.675 1.316,3.911 0.084,0.12 0.158,0.179 0.217,0.179 0.044,0 0.065,-0.031 0.065,-0.09 0,-0.049 -0.012,-0.096 -0.037,-0.145 -0.579,-1.192 -0.87,-2.109 -0.87,-2.75 0,-0.73 0.313,-1.31 0.935,-1.731 0.533,-0.362 1.158,-0.545 1.876,-0.545 1.44,0 2.791,0.279 4.048,0.836 0.925,0.409 1.387,0.703 1.387,0.88 0,0.071 -0.663,0.192 -1.985,0.362 -0.647,0.084 -1.102,0.232 -1.362,0.446 -0.307,0.254 -0.462,0.687 -0.462,1.304 0,0.764 0.465,1.653 1.397,2.669 0.932,1.015 1.771,1.523 2.52,1.523 0.189,0 0.393,-0.049 0.617,-0.145 0.296,-0.127 0.445,-0.297 0.445,-0.508 m -15.359,-2.877 c 0.006,-0.08 0.009,-0.17 0.009,-0.272 0,-0.926 -0.174,-1.725 -0.527,-2.397 -0.034,-0.065 -0.089,-0.096 -0.161,-0.09 -0.074,0.006 -0.108,0.059 -0.102,0.155 0.068,0.762 0.013,1.985 -0.161,3.666 -0.056,0.483 -0.151,1.353 -0.291,2.614 -0.084,0.789 -0.13,1.548 -0.136,2.266 0,0.115 0.102,0.357 0.31,0.728 0.318,0.567 0.532,0.851 0.644,0.851 0.077,0 0.105,-0.136 0.08,-0.408 -0.025,-0.273 -0.037,-0.601 -0.037,-0.988 0,-0.981 0.124,-3.022 0.372,-6.125 m -3.056,0.282 c 0,0.542 -0.139,0.954 -0.418,1.232 -0.145,0.146 -0.244,0.134 -0.3,-0.037 -0.152,-0.47 -0.266,-0.892 -0.344,-1.26 0.211,-0.174 0.316,-0.344 0.316,-0.508 0,-0.179 -0.198,-0.235 -0.597,-0.161 -0.248,0.046 -0.49,0.173 -0.725,0.381 -0.146,0.127 -0.236,0.35 -0.273,0.669 -0.031,0.266 -0.096,0.399 -0.201,0.399 -0.052,0 -0.155,-0.173 -0.306,-0.523 -0.189,-0.436 -0.384,-0.762 -0.592,-0.979 -0.331,-0.349 -0.752,-0.526 -1.26,-0.526 -0.585,0 -0.88,0.232 -0.88,0.697 0,0.055 0.004,0.133 0.013,0.241 0.009,0.106 0.015,0.186 0.015,0.239 0,0.114 -0.037,0.173 -0.108,0.173 -0.105,0 -0.22,-0.133 -0.347,-0.399 -0.164,-0.341 -0.347,-0.589 -0.554,-0.753 -0.344,-0.266 -0.815,-0.399 -1.415,-0.399 h -0.716 v -1.462 h 0.555 c 0.792,0 1.415,0.341 1.867,1.025 0.17,-0.303 0.337,-0.508 0.499,-0.616 0.225,-0.152 0.557,-0.226 1,-0.226 0.585,0 1.232,0.461 1.941,1.387 0.44,-0.495 0.935,-0.743 1.487,-0.743 0.436,0 0.78,0.254 1.034,0.762 0.204,0.409 0.309,0.873 0.309,1.387 m -8.09,-2.976 h -0.663 c -0.932,0 -1.529,0.697 -1.786,2.087 -0.075,0.381 -0.257,1.617 -0.545,3.71 -0.489,-3.338 -1.48,-5.447 -2.967,-6.323 -0.189,-0.109 -0.734,-0.229 -1.635,-0.362 -0.839,-0.121 -1.421,-0.177 -1.74,-0.164 -0.285,0.012 -0.427,0.055 -0.427,0.126 0,0.069 0.114,0.137 0.347,0.208 1.13,0.365 2.226,0.935 3.291,1.715 0.963,0.703 1.443,1.22 1.443,1.552 0,0.436 -0.427,1.152 -1.285,2.149 -0.855,1 -1.489,1.498 -1.901,1.498 -0.034,0 -0.152,-0.08 -0.353,-0.244 l -0.297,-0.245 c -0.183,0 -0.567,0.17 -1.155,0.517 -0.648,0.381 -0.97,0.694 -0.97,0.942 0,1.26 0.174,1.889 0.517,1.889 0.539,0 1.341,-0.4 2.403,-1.199 1.998,-1.499 3.184,-2.979 3.564,-4.437 0.493,1.712 0.725,3.703 0.7,5.97 0.189,0.232 0.403,0.508 0.644,0.836 0.062,0.077 0.106,0.121 0.137,0.127 0.037,0 0.058,-0.065 0.071,-0.198 l 0.31,-3.921 c 0.182,-1.718 0.427,-3.006 0.733,-3.864 0.22,-0.604 0.561,-0.907 1.028,-0.907 h 0.536 z m -12.503,2.431 c 0,-0.177 -0.071,-0.232 -0.217,-0.173 -0.774,0.309 -1.161,0.554 -1.161,0.737 0,0.114 0.059,0.226 0.177,0.334 0.117,0.108 0.235,0.164 0.35,0.164 0.198,0 0.39,-0.127 0.576,-0.378 0.182,-0.25 0.275,-0.477 0.275,-0.684 m 1.025,-0.626 c 0,0.703 -0.108,1.332 -0.325,1.886 -0.158,0.406 -0.304,0.654 -0.437,0.747 -0.201,0.133 -0.449,0.198 -0.743,0.198 -0.374,0 -0.706,-0.183 -0.991,-0.545 -0.108,-0.139 -0.284,-0.446 -0.532,-0.923 -0.359,-0.69 -0.573,-1.081 -0.644,-1.17 -0.285,-0.357 -0.651,-0.536 -1.1,-0.536 h -0.761 v -1.462 h 0.526 c 0.483,0 0.845,0.164 1.087,0.49 0.17,0.303 0.288,0.51 0.356,0.625 0.146,0.254 0.285,0.381 0.424,0.381 0.037,0 0.36,-0.143 0.966,-0.424 0.61,-0.285 1.019,-0.428 1.23,-0.428 0.151,0 0.346,0.155 0.585,0.462 0.238,0.309 0.359,0.541 0.359,0.699 m -4.925,-1.805 h -1.651 c -0.406,0 -0.805,-0.086 -1.198,-0.263 -0.35,-0.158 -0.526,-0.288 -0.526,-0.39 0,-0.09 0.222,-0.18 0.671,-0.263 0.954,-0.177 1.481,-0.282 1.579,-0.319 0.453,-0.155 0.679,-0.428 0.679,-0.815 0,-0.514 -0.109,-0.919 -0.325,-1.217 -0.521,-0.703 -1.375,-1.238 -2.558,-1.616 -0.988,-0.307 -2.007,-0.461 -3.059,-0.461 -1.01,0 -1.83,0.22 -2.465,0.662 -0.734,0.508 -1.1,1.245 -1.1,2.214 0,1.27 0.341,2.363 1.025,3.277 0.103,0.139 0.183,0.207 0.236,0.207 0.037,0 0.056,-0.031 0.056,-0.09 0,-0.087 -0.035,-0.195 -0.1,-0.328 -0.35,-0.712 -0.526,-1.381 -0.526,-2.007 0,-0.863 0.384,-1.508 1.152,-1.932 0.622,-0.344 1.4,-0.517 2.332,-0.517 1.093,0 2.158,0.161 3.192,0.48 0.932,0.291 1.397,0.548 1.397,0.774 0,0.108 -0.186,0.195 -0.564,0.263 -0.223,0.035 -0.619,0.099 -1.186,0.189 -0.963,0.158 -1.443,0.489 -1.443,0.991 0,0.551 0.322,1.112 0.969,1.688 0.709,0.622 1.502,0.935 2.378,0.935 h 1.035 z m -15.205,2.694 c 0.006,-0.08 0.009,-0.17 0.009,-0.272 0,-0.926 -0.173,-1.725 -0.527,-2.397 -0.034,-0.065 -0.089,-0.096 -0.161,-0.09 -0.074,0.006 -0.108,0.059 -0.102,0.155 0.068,0.762 0.013,1.985 -0.161,3.666 -0.056,0.483 -0.151,1.353 -0.291,2.614 -0.083,0.789 -0.13,1.548 -0.136,2.266 0,0.115 0.102,0.357 0.31,0.728 0.319,0.567 0.532,0.851 0.644,0.851 0.077,0 0.105,-0.136 0.08,-0.408 -0.024,-0.273 -0.037,-0.601 -0.037,-0.988 0,-0.981 0.124,-3.022 0.372,-6.125 m -3.065,-5.623 -1.208,0.821 -0.551,-0.861 -1.09,0.74 -0.743,-1.174 1.171,-0.805 0.588,0.914 1.115,-0.734 z m -1.189,5.313 c 0,0.768 -0.164,1.422 -0.49,1.961 -0.095,0.158 -0.201,0.139 -0.309,-0.056 l -0.616,-1.068 c 0.532,-0.635 0.799,-1.075 0.799,-1.323 0,-0.133 -0.26,-0.247 -0.781,-0.337 -0.387,-0.065 -0.709,-0.099 -0.963,-0.099 h -0.607 v -1.462 h 0.589 c 0.746,0 1.316,0.192 1.715,0.573 0.158,0.149 0.31,0.434 0.456,0.852 0.139,0.393 0.207,0.712 0.207,0.959 m -2.365,-2.384 h -0.499 c -0.312,0 -0.498,-0.173 -0.554,-0.517 -0.136,-0.876 -0.523,-1.74 -1.161,-2.595 -0.756,-1.016 -1.582,-1.523 -2.483,-1.523 -0.474,0 -1.087,0.226 -1.843,0.681 -0.17,0.102 -0.254,0.192 -0.254,0.269 0,0.081 0.075,0.121 0.226,0.121 0.038,0 0.093,-0.006 0.165,-0.018 0.349,-0.059 0.668,-0.09 0.953,-0.09 0.52,0 0.972,0.117 1.36,0.353 0.322,0.195 0.731,0.564 1.232,1.108 0.232,0.248 0.458,0.545 0.681,0.898 0.291,0.452 0.437,0.79 0.437,1.016 0,0.204 -0.279,0.61 -0.836,1.214 l 0.573,1.297 c 0.049,0.115 0.114,0.118 0.198,0.01 0.399,-0.508 0.768,-0.762 1.108,-0.762 h 0.697 z m -7.554,2.694 c 0.006,-0.08 0.009,-0.17 0.009,-0.272 0,-0.926 -0.173,-1.725 -0.526,-2.397 -0.035,-0.065 -0.09,-0.096 -0.161,-0.09 -0.075,0.006 -0.109,0.059 -0.103,0.155 0.068,0.762 0.013,1.985 -0.161,3.666 -0.055,0.483 -0.151,1.353 -0.291,2.614 -0.083,0.789 -0.13,1.548 -0.136,2.266 0,0.115 0.102,0.357 0.31,0.728 0.319,0.567 0.532,0.851 0.644,0.851 0.077,0 0.105,-0.136 0.08,-0.408 -0.024,-0.273 -0.037,-0.601 -0.037,-0.988 0,-0.981 0.124,-3.022 0.372,-6.125 m -6.381,5.354 -0.83,-1.242 -1.22,0.824 0.861,1.251 z m 3.322,-5.617 c 0,-1.229 -0.365,-2.208 -1.099,-2.939 -0.731,-0.734 -1.709,-1.099 -2.938,-1.099 -2.081,0 -3.122,0.892 -3.122,2.675 0,1.019 0.307,1.927 0.917,2.725 0.108,0.143 0.195,0.217 0.263,0.217 0.037,0 0.052,-0.024 0.052,-0.074 0,-0.065 -0.03,-0.158 -0.098,-0.279 -0.344,-0.613 -0.518,-1.204 -0.518,-1.78 0,-0.657 0.248,-1.168 0.743,-1.524 0.437,-0.319 0.998,-0.48 1.679,-0.48 1.096,0 2.016,0.233 2.759,0.7 0.545,0.337 0.817,0.61 0.817,0.815 0,0.557 -0.176,1.254 -0.526,2.086 -0.285,0.685 -0.604,1.295 -0.963,1.834 l 0.474,0.997 c 0.065,0.139 0.12,0.207 0.164,0.207 0.028,0 0.08,-0.046 0.152,-0.142 0.83,-1.103 1.244,-2.415 1.244,-3.939"
             style="fill:#dc042d;fill-opacity:1;fill-rule:evenodd;stroke:none"
             id="path430" /></g><g
           id="g432"
           transform="translate(496.4516,319.4858)"><path
             d="m 0,0 -0.833,-1.242 -1.22,0.824 0.864,1.251 z m -0.164,-5.626 c 0,-0.248 -0.068,-0.567 -0.207,-0.96 -0.146,-0.418 -0.298,-0.703 -0.456,-0.852 -0.399,-0.381 -0.969,-0.573 -1.715,-0.573 h -0.589 v 1.462 h 0.607 c 0.254,0 0.576,0.034 0.963,0.099 0.521,0.093 0.781,0.204 0.781,0.337 0,0.248 -0.267,0.688 -0.799,1.323 l 0.616,1.071 c 0.108,0.192 0.214,0.211 0.31,0.053 0.325,-0.539 0.489,-1.189 0.489,-1.96 m -8.92,5.908 -0.83,-1.242 -1.22,0.824 0.861,1.251 z m 6.45,-8.293 v 1.462 h -1.48 c -0.517,0 -0.861,0.018 -1.025,0.055 -0.356,0.078 -0.533,0.261 -0.533,0.552 h 1.533 l 0.381,1.207 c 0.006,0.019 0.009,0.034 0.009,0.044 0,0.037 -0.028,0.056 -0.083,0.056 h -1.161 c -0.895,0 -1.769,0.13 -2.62,0.39 -0.316,0.096 -0.948,0.34 -1.898,0.734 -0.629,0.26 -1.103,0.39 -1.425,0.39 -0.966,0 -1.632,-0.496 -1.994,-1.487 -0.056,-0.145 -0.059,-0.241 -0.009,-0.281 0.049,-0.044 0.13,-0.041 0.244,0.009 0.338,0.139 0.744,0.207 1.217,0.207 0.307,0 0.706,-0.077 1.196,-0.235 0.69,-0.223 1.167,-0.378 1.433,-0.461 0.121,-0.037 0.183,-0.071 0.183,-0.103 0,-0.027 -0.062,-0.055 -0.183,-0.08 -0.173,-0.037 -0.814,-0.235 -1.923,-0.598 -0.811,-0.266 -1.443,-0.399 -1.895,-0.399 h -0.799 v -1.462 h 0.734 c 0.418,0 0.932,0.146 1.542,0.437 1.162,0.548 1.802,0.848 1.923,0.898 0.908,0.356 1.895,0.591 2.96,0.706 -0.132,-0.369 -0.201,-0.675 -0.201,-0.917 0,-0.749 0.601,-1.124 1.806,-1.124 z m -10.239,0 h -0.672 c -0.254,0 -0.492,0.121 -0.719,0.363 -0.192,0.207 -0.328,0.446 -0.405,0.718 -0.304,-0.684 -0.7,-1.025 -1.189,-1.025 -0.552,0 -0.985,0.384 -1.298,1.152 -0.532,-0.768 -1.096,-1.152 -1.687,-1.152 -0.598,0 -1.01,0.328 -1.236,0.988 -0.514,-0.697 -1.102,-1.044 -1.768,-1.044 h -0.626 v 1.462 h 0.837 c 0.839,0 1.436,0.365 1.796,1.096 0.126,0.26 0.226,0.39 0.297,0.39 0.108,0 0.164,-0.09 0.164,-0.272 v -0.01 c -0.006,-0.034 -0.009,-0.083 -0.009,-0.142 v -0.155 c 0,-0.501 0.266,-0.752 0.799,-0.752 0.452,0 0.82,0.114 1.096,0.344 0.164,0.132 0.322,0.346 0.473,0.644 0.121,0.229 0.221,0.343 0.298,0.343 0.093,0 0.139,-0.118 0.145,-0.353 0.013,-0.309 0.053,-0.526 0.118,-0.653 0.127,-0.235 0.378,-0.353 0.756,-0.353 0.306,0 0.548,0.118 0.724,0.353 0.096,0.127 0.201,0.344 0.316,0.653 0.093,0.235 0.177,0.353 0.257,0.353 0.096,0 0.158,-0.13 0.189,-0.39 0.037,-0.338 0.093,-0.573 0.173,-0.706 0.152,-0.26 0.412,-0.39 0.79,-0.39 h 0.381 z m -9.546,5.995 -0.721,-1.099 -1.112,0.734 -0.588,-0.907 -1.174,0.802 0.743,1.17 1.09,-0.734 0.551,0.861 z m 0.533,-5.995 v 1.462 h -0.4 c -0.696,0 -1.102,0.254 -1.223,0.762 -0.074,0.306 -0.155,0.461 -0.248,0.461 -0.052,0 -0.139,-0.105 -0.263,-0.316 -0.149,-0.266 -0.306,-0.464 -0.471,-0.591 -0.272,-0.211 -0.637,-0.316 -1.096,-0.316 h -0.699 v -1.462 h 0.427 c 0.762,0 1.341,0.307 1.74,0.917 0.297,-0.61 0.864,-0.917 1.697,-0.917 z m -4.232,-2.929 -0.716,-1.099 -1.117,0.734 -0.589,-0.914 -1.17,0.805 0.743,1.174 1.09,-0.74 0.551,0.861 z m 0.427,2.929 h -0.536 c -0.833,0 -1.399,0.307 -1.697,0.917 -0.399,-0.61 -0.978,-0.917 -1.74,-0.917 h -0.427 v 1.462 h 0.7 c 0.458,0 0.823,0.105 1.096,0.316 0.164,0.127 0.322,0.325 0.471,0.591 0.124,0.211 0.21,0.316 0.263,0.316 0.093,0 0.173,-0.155 0.247,-0.461 0.121,-0.508 0.527,-0.762 1.224,-0.762 h 0.399 z"
             style="fill:#dc042d;fill-opacity:1;fill-rule:evenodd;stroke:none"
             id="path434" /></g><g
           id="g436"
           transform="translate(333.1735,252.7002)"><path
             d="M 0,0 H 9.558 V -11.371 L 19.583,0 H 32.288 L 21.017,-11.35 32.792,-30.09 H 21.017 l -6.519,12.379 -4.94,-5.03 V -30.09 H 0 Z m -34.165,0 h 8.931 l 11.646,-16.646 V 0 h 9.011 v -30.09 h -9.011 l -11.588,16.519 V -30.09 h -8.989 z m -14.834,-18.615 h -6.82 l 3.399,10.817 z m 2.003,-6.508 1.519,-4.967 h 10.004 L -47.104,0 h -10.422 l -11.625,-30.09 h 9.767 l 1.498,4.967 z m -40.431,1.499 h 4.876 c 1.649,0 2.809,0.28 3.478,0.848 0.678,0.567 1.016,1.331 1.016,2.29 0,0.89 -0.332,1.605 -1.001,2.144 -0.67,0.54 -1.837,0.813 -3.515,0.813 h -4.854 z m 0,11.819 h 4.155 c 1.491,0 2.528,0.252 3.119,0.75 0.583,0.504 0.872,1.226 0.872,2.164 0,0.876 -0.289,1.563 -0.872,2.053 -0.591,0.497 -1.606,0.743 -3.054,0.743 h -4.22 z M -97.071,0 h 17.897 c 2.982,0 5.273,-0.722 6.864,-2.158 1.599,-1.436 2.399,-3.216 2.399,-5.332 0,-1.779 -0.569,-3.306 -1.707,-4.581 -0.764,-0.848 -1.873,-1.521 -3.335,-2.011 2.219,-0.518 3.853,-1.415 4.905,-2.676 1.044,-1.268 1.57,-2.859 1.57,-4.771 0,-1.563 -0.374,-2.964 -1.117,-4.211 -0.749,-1.247 -1.764,-2.227 -3.06,-2.956 -0.8,-0.448 -2.01,-0.778 -3.63,-0.981 -2.154,-0.273 -3.58,-0.413 -4.286,-0.413 h -16.5 z m -46.745,0 h 8.931 l 11.647,-16.646 V 0 h 9.01 v -30.09 h -9.01 l -11.589,16.519 V -30.09 h -8.989 z m -29.476,0 h 25.612 v -6.424 h -16.033 v -4.786 h 14.873 v -6.137 h -14.873 v -5.927 h 16.501 v -6.816 h -26.08 z"
             style="fill:#dc042d;fill-opacity:1;fill-rule:evenodd;stroke:none"
             id="path438" /></g><g
           id="g440"
           transform="translate(505.978,241.2867)"><path
             d="m 0,0 v 10.926 h -4.081 v 1.463 H 5.737 V 10.926 H 1.638 V 0 Z m -15.253,3.98 1.546,0.136 c 0.073,-0.62 0.243,-1.128 0.511,-1.526 0.268,-0.398 0.684,-0.718 1.246,-0.963 0.563,-0.245 1.197,-0.366 1.901,-0.366 0.626,0 1.177,0.092 1.656,0.277 0.478,0.187 0.836,0.441 1.07,0.764 0.233,0.326 0.352,0.677 0.352,1.061 0,0.39 -0.113,0.727 -0.341,1.019 -0.225,0.291 -0.597,0.533 -1.113,0.729 -0.335,0.13 -1.067,0.332 -2.207,0.606 -1.136,0.274 -1.935,0.531 -2.391,0.773 -0.591,0.309 -1.033,0.695 -1.324,1.154 -0.288,0.458 -0.433,0.972 -0.433,1.543 0,0.623 0.176,1.208 0.531,1.751 0.355,0.545 0.874,0.957 1.555,1.24 0.684,0.28 1.439,0.421 2.273,0.421 0.92,0 1.727,-0.147 2.431,-0.444 0.701,-0.294 1.241,-0.73 1.619,-1.304 0.375,-0.574 0.579,-1.226 0.608,-1.953 L -7.335,8.78 c -0.086,0.782 -0.372,1.376 -0.859,1.774 -0.488,0.401 -1.206,0.6 -2.158,0.6 -0.992,0 -1.713,-0.182 -2.169,-0.545 -0.453,-0.364 -0.681,-0.802 -0.681,-1.312 0,-0.448 0.162,-0.814 0.482,-1.099 0.317,-0.289 1.139,-0.583 2.472,-0.883 1.333,-0.303 2.247,-0.565 2.743,-0.79 0.721,-0.335 1.255,-0.756 1.598,-1.264 0.343,-0.51 0.513,-1.099 0.513,-1.762 0,-0.661 -0.187,-1.281 -0.565,-1.863 -0.378,-0.583 -0.92,-1.036 -1.627,-1.362 -0.707,-0.323 -1.503,-0.485 -2.385,-0.485 -1.122,0 -2.063,0.162 -2.818,0.491 -0.759,0.326 -1.353,0.816 -1.786,1.474 -0.43,0.655 -0.657,1.399 -0.678,2.226 m -10.276,2.94 h 3.524 c 0.747,0 1.336,0.078 1.757,0.233 0.424,0.156 0.744,0.404 0.963,0.745 0.219,0.34 0.329,0.709 0.329,1.11 0,0.586 -0.21,1.067 -0.637,1.445 -0.424,0.378 -1.097,0.565 -2.017,0.565 h -3.919 z M -27.168,0 v 12.389 h 5.492 c 1.105,0 1.944,-0.113 2.518,-0.335 0.574,-0.222 1.033,-0.615 1.379,-1.177 0.343,-0.565 0.513,-1.188 0.513,-1.869 0,-0.88 -0.282,-1.618 -0.854,-2.221 -0.568,-0.603 -1.448,-0.986 -2.636,-1.151 0.436,-0.208 0.764,-0.412 0.989,-0.617 0.479,-0.438 0.932,-0.99 1.362,-1.647 L -16.25,0 h -2.063 l -1.638,2.579 c -0.479,0.741 -0.874,1.312 -1.186,1.704 -0.308,0.396 -0.585,0.673 -0.83,0.828 -0.246,0.159 -0.494,0.268 -0.747,0.332 -0.188,0.037 -0.491,0.058 -0.915,0.058 h -1.9 V 0 Z m -4.555,12.389 h 1.638 V 0 h -1.638 z M -42.49,0 v 12.389 h 8.359 v -1.463 h -6.718 V 7.09 h 5.813 V 5.627 h -5.813 V 0 Z m -16.992,3.98 1.546,0.136 c 0.072,-0.62 0.242,-1.128 0.511,-1.526 0.268,-0.398 0.683,-0.718 1.246,-0.963 0.562,-0.245 1.197,-0.366 1.901,-0.366 0.626,0 1.177,0.092 1.655,0.277 0.479,0.187 0.837,0.441 1.07,0.764 0.234,0.326 0.352,0.677 0.352,1.061 0,0.39 -0.112,0.727 -0.34,1.019 -0.225,0.291 -0.597,0.533 -1.113,0.729 -0.335,0.13 -1.068,0.332 -2.207,0.606 -1.137,0.274 -1.935,0.531 -2.391,0.773 -0.592,0.309 -1.033,0.695 -1.324,1.154 -0.289,0.458 -0.433,0.972 -0.433,1.543 0,0.623 0.176,1.208 0.531,1.751 0.355,0.545 0.874,0.957 1.555,1.24 0.683,0.28 1.439,0.421 2.272,0.421 0.921,0 1.728,-0.147 2.432,-0.444 0.701,-0.294 1.24,-0.73 1.618,-1.304 0.375,-0.574 0.58,-1.226 0.609,-1.953 L -51.564,8.78 c -0.087,0.782 -0.372,1.376 -0.86,1.774 -0.487,0.401 -1.206,0.6 -2.157,0.6 -0.993,0 -1.714,-0.182 -2.169,-0.545 -0.453,-0.364 -0.681,-0.802 -0.681,-1.312 0,-0.448 0.161,-0.814 0.482,-1.099 0.317,-0.289 1.139,-0.583 2.472,-0.883 1.332,-0.303 2.247,-0.565 2.743,-0.79 0.721,-0.335 1.254,-0.756 1.598,-1.264 0.343,-0.51 0.513,-1.099 0.513,-1.762 0,-0.661 -0.187,-1.281 -0.565,-1.863 -0.378,-0.583 -0.92,-1.036 -1.627,-1.362 -0.707,-0.323 -1.503,-0.485 -2.385,-0.485 -1.123,0 -2.063,0.162 -2.819,0.491 -0.758,0.326 -1.352,0.816 -1.785,1.474 -0.43,0.655 -0.658,1.399 -0.678,2.226 m -3.576,6.77 v 1.765 h 1.632 v -1.396 c 0,-0.752 -0.089,-1.298 -0.262,-1.629 -0.243,-0.456 -0.621,-0.799 -1.134,-1.03 l -0.372,0.6 c 0.306,0.124 0.531,0.317 0.681,0.585 0.15,0.269 0.233,0.635 0.251,1.105 z M -75.285,0 v 12.389 h 1.681 l 6.507,-9.727 v 9.727 h 1.572 V 0 h -1.681 l -6.507,9.735 V 0 Z m -9.314,5.088 h 4.203 l -1.295,3.43 c -0.393,1.041 -0.687,1.898 -0.877,2.57 -0.159,-0.797 -0.381,-1.584 -0.669,-2.368 z M -88.173,0 l 4.76,12.389 h 1.765 L -76.577,0 h -1.87 l -1.445,3.753 h -5.18 L -86.431,0 Z m -9.472,6.92 h 3.525 c 0.747,0 1.335,0.078 1.757,0.233 0.424,0.156 0.744,0.404 0.963,0.745 0.219,0.34 0.328,0.709 0.328,1.11 0,0.586 -0.21,1.067 -0.637,1.445 -0.424,0.378 -1.096,0.565 -2.016,0.565 h -3.92 z M -99.283,0 v 12.389 h 5.492 c 1.104,0 1.944,-0.113 2.518,-0.335 0.574,-0.222 1.032,-0.615 1.378,-1.177 0.344,-0.565 0.514,-1.188 0.514,-1.869 0,-0.88 -0.283,-1.618 -0.854,-2.221 -0.568,-0.603 -1.448,-0.986 -2.636,-1.151 0.435,-0.208 0.764,-0.412 0.989,-0.617 0.479,-0.438 0.932,-0.99 1.362,-1.647 L -88.366,0 h -2.062 l -1.638,2.579 c -0.479,0.741 -0.874,1.312 -1.186,1.704 -0.309,0.396 -0.585,0.673 -0.831,0.828 -0.245,0.159 -0.493,0.268 -0.747,0.332 -0.187,0.037 -0.49,0.058 -0.914,0.058 h -1.901 V 0 Z m -4.555,12.389 h 1.639 V 0 h -1.639 z m -4.851,-10.656 h 1.733 V 0 h -1.733 z M -119.76,6.92 h 3.525 c 0.747,0 1.335,0.078 1.757,0.233 0.424,0.156 0.744,0.404 0.963,0.745 0.219,0.34 0.329,0.709 0.329,1.11 0,0.586 -0.211,1.067 -0.638,1.445 -0.423,0.378 -1.096,0.565 -2.016,0.565 h -3.92 z M -121.398,0 v 12.389 h 5.492 c 1.105,0 1.944,-0.113 2.518,-0.335 0.574,-0.222 1.033,-0.615 1.379,-1.177 0.343,-0.565 0.513,-1.188 0.513,-1.869 0,-0.88 -0.283,-1.618 -0.854,-2.221 -0.568,-0.603 -1.448,-0.986 -2.636,-1.151 0.435,-0.208 0.764,-0.412 0.989,-0.617 0.479,-0.438 0.932,-0.99 1.362,-1.647 L -110.481,0 h -2.062 l -1.638,2.579 c -0.479,0.741 -0.874,1.312 -1.186,1.704 -0.308,0.396 -0.585,0.673 -0.831,0.828 -0.245,0.159 -0.493,0.268 -0.746,0.332 -0.188,0.037 -0.491,0.058 -0.915,0.058 h -1.901 V 0 Z m -4.598,1.733 h 1.733 V 0 h -1.733 z m -4.765,10.656 h 1.638 V 0 h -1.638 z"
             style="fill:#dc042d;fill-opacity:1;fill-rule:evenodd;stroke:none"
             id="path442" /></g><g
           id="g444"
           transform="translate(501.7842,221.9528)"><path
             d="M 0,0 V 12.389 H 1.641 V 6.245 l 6.153,6.144 h 2.22 L 4.817,7.37 10.242,0 H 8.079 L 3.669,6.271 1.641,4.292 V 0 Z m -13.799,0 v 12.389 h 1.681 l 6.507,-9.727 v 9.727 h 1.572 V 0 H -5.72 l -6.507,9.735 V 0 Z m -10.667,5.088 h 4.203 l -1.296,3.43 c -0.392,1.041 -0.686,1.898 -0.877,2.57 -0.158,-0.797 -0.38,-1.584 -0.669,-2.368 z M -28.04,0 l 4.759,12.389 h 1.765 L -16.445,0 h -1.869 l -1.445,3.753 h -5.18 L -26.298,0 Z m -9.963,1.462 h 3.084 c 0.53,0 0.902,0.02 1.116,0.058 0.377,0.069 0.692,0.182 0.946,0.34 0.253,0.156 0.461,0.387 0.626,0.687 0.161,0.303 0.245,0.649 0.245,1.044 0,0.462 -0.118,0.863 -0.355,1.206 -0.236,0.34 -0.565,0.579 -0.986,0.718 -0.419,0.135 -1.024,0.205 -1.812,0.205 h -2.864 z m 0,5.72 h 2.68 c 0.724,0 1.246,0.049 1.563,0.144 0.415,0.124 0.73,0.329 0.94,0.617 0.211,0.289 0.318,0.65 0.318,1.082 0,0.41 -0.098,0.773 -0.295,1.085 -0.199,0.314 -0.482,0.527 -0.845,0.643 -0.366,0.115 -0.995,0.173 -1.886,0.173 h -2.475 z M -39.644,0 v 12.389 h 4.649 c 0.947,0 1.705,-0.127 2.276,-0.375 0.574,-0.251 1.021,-0.638 1.344,-1.16 0.323,-0.519 0.488,-1.064 0.488,-1.635 0,-0.528 -0.144,-1.028 -0.433,-1.495 -0.285,-0.467 -0.721,-0.845 -1.301,-1.133 0.75,-0.219 1.324,-0.594 1.728,-1.122 0.404,-0.531 0.606,-1.157 0.606,-1.878 0,-0.58 -0.124,-1.119 -0.369,-1.618 C -30.902,1.474 -31.204,1.09 -31.565,0.819 -31.926,0.548 -32.378,0.346 -32.921,0.208 -33.463,0.069 -34.129,0 -34.919,0 Z m -18.955,0 v 12.389 h 8.956 V 10.926 H -56.96 V 7.133 h 6.853 V 5.68 H -56.96 V 1.462 h 7.606 V 0 Z m -8.806,0 v 10.926 h -4.081 v 1.463 h 9.818 v -1.463 h -4.099 V 0 Z m -12.553,5.088 h 4.202 l -1.295,3.43 c -0.392,1.041 -0.686,1.898 -0.877,2.57 -0.158,-0.797 -0.381,-1.584 -0.669,-2.368 z M -83.532,0 l 4.759,12.389 h 1.765 L -71.937,0 h -1.869 l -1.445,3.753 h -5.18 L -81.79,0 Z m -6.712,0 -4.8,12.389 h 1.777 l 3.219,-9 c 0.259,-0.721 0.475,-1.399 0.649,-2.028 0.193,0.675 0.415,1.35 0.669,2.028 l 3.346,9 h 1.673 L -88.563,0 Z m -9.422,12.389 h 1.638 V 0 h -1.638 z M -112.132,6.92 h 3.525 c 0.746,0 1.335,0.078 1.756,0.233 0.424,0.156 0.744,0.404 0.963,0.745 0.22,0.34 0.329,0.709 0.329,1.11 0,0.586 -0.21,1.067 -0.637,1.445 -0.424,0.378 -1.096,0.565 -2.016,0.565 h -3.92 z M -113.77,0 v 12.389 h 5.491 c 1.105,0 1.944,-0.113 2.518,-0.335 0.574,-0.222 1.033,-0.615 1.379,-1.177 0.343,-0.565 0.514,-1.188 0.514,-1.869 0,-0.88 -0.283,-1.618 -0.854,-2.221 -0.568,-0.603 -1.448,-0.986 -2.637,-1.151 0.436,-0.208 0.765,-0.412 0.99,-0.617 0.478,-0.438 0.931,-0.99 1.361,-1.647 L -102.853,0 h -2.062 l -1.639,2.579 c -0.479,0.741 -0.874,1.312 -1.185,1.704 -0.309,0.395 -0.586,0.673 -0.831,0.828 -0.245,0.159 -0.493,0.268 -0.747,0.332 -0.188,0.037 -0.49,0.058 -0.914,0.058 h -1.901 V 0 Z m -11.285,6.498 h 3.205 c 1.058,0 1.811,0.197 2.255,0.592 0.445,0.395 0.667,0.949 0.667,1.664 0,0.519 -0.13,0.963 -0.392,1.333 -0.263,0.369 -0.606,0.611 -1.036,0.729 -0.277,0.073 -0.785,0.11 -1.529,0.11 h -3.17 z M -126.693,0 v 12.389 h 4.673 c 0.822,0 1.451,-0.041 1.883,-0.119 0.609,-0.101 1.119,-0.294 1.532,-0.58 0.409,-0.282 0.741,-0.683 0.992,-1.194 0.251,-0.513 0.375,-1.076 0.375,-1.69 0,-1.053 -0.335,-1.947 -1.004,-2.677 -0.672,-0.727 -1.883,-1.093 -3.634,-1.093 h -3.179 V 0 Z"
             style="fill:#dc042d;fill-opacity:1;fill-rule:evenodd;stroke:none"
             id="path446" /></g><g
           id="g448"
           transform="translate(559.588,316.7308)"><path
             d="M 0,0 C 14.183,0 25.685,11.502 25.685,25.685 25.685,39.867 14.183,51.369 0,51.369 -14.182,51.369 -25.685,39.867 -25.685,25.685 -25.685,11.502 -14.182,0 0,0"
             style="fill:#5b2281;fill-opacity:1;fill-rule:evenodd;stroke:none"
             id="path450" /></g><g
           id="g452"
           transform="translate(656.3234,225.6279)"><path
             d="M 0,0 C 14.183,0 25.685,11.502 25.685,25.684 25.685,39.867 14.183,51.369 0,51.369 -14.183,51.369 -25.685,39.867 -25.685,25.684 -25.685,11.502 -14.183,0 0,0"
             style="fill:#5b2281;fill-opacity:1;fill-rule:evenodd;stroke:none"
             id="path454" /></g><g
           id="g456"
           transform="translate(607.8319,226.4457)"><path
             d="M 0,0 H 1.569 L 72.396,140.045 H 29.732 Z"
             style="fill:#5b2281;fill-opacity:1;fill-rule:evenodd;stroke:none"
             id="path458" /></g><g
           id="g460"
           transform="translate(581.9323,226.4457)"><path
             d="M 0,0 H 21.595 L 51.327,140.045 H 29.9 Z"
             style="fill:#5b2281;fill-opacity:1;fill-rule:evenodd;stroke:none"
             id="path462" /></g><g
           id="g464"
           transform="translate(535.46,226.4457)"><path
             d="m 0,0 h 42.168 l 29.899,140.045 h -1.24 z"
             style="fill:#5b2281;fill-opacity:1;fill-rule:evenodd;stroke:none"
             id="path466" /></g></g></g></g></svg>
