<?xml version="1.0" encoding="UTF-8" standalone="no"?>
<svg
   xmlns:dc="http://purl.org/dc/elements/1.1/"
   xmlns:cc="http://creativecommons.org/ns#"
   xmlns:rdf="http://www.w3.org/1999/02/22-rdf-syntax-ns#"
   xmlns:svg="http://www.w3.org/2000/svg"
   xmlns="http://www.w3.org/2000/svg"
   xmlns:sodipodi="http://sodipodi.sourceforge.net/DTD/sodipodi-0.dtd"
   xmlns:inkscape="http://www.inkscape.org/namespaces/inkscape"
   version="1.1"
   id="svg512"
   xml:space="preserve"
   width="816"
   height="1056"
   viewBox="0 0 816 1056"
   sodipodi:docname="gardeshgari.svg"
   inkscape:version="1.0.1 (3bc2e813f5, 2020-09-07)"><sodipodi:namedview
     pagecolor="#ffffff"
     bordercolor="#666666"
     borderopacity="1"
     objecttolerance="10"
     gridtolerance="10"
     guidetolerance="10"
     inkscape:pageopacity="0"
     inkscape:pageshadow="2"
     inkscape:window-width="1848"
     inkscape:window-height="1009"
     id="namedview796"
     showgrid="false"
     inkscape:zoom="0.66245342"
     inkscape:cx="408"
     inkscape:cy="528"
     inkscape:window-x="72"
     inkscape:window-y="34"
     inkscape:window-maximized="1"
     inkscape:current-layer="svg512" /><metadata
     id="metadata518"><rdf:RDF><cc:Work
         rdf:about=""><dc:format>image/svg+xml</dc:format><dc:type
           rdf:resource="http://purl.org/dc/dcmitype/StillImage" /><dc:title /></cc:Work></rdf:RDF></metadata><defs
     id="defs516"><clipPath
       clipPathUnits="userSpaceOnUse"
       id="clipPath532"><path
         d="M 0,792 H 612 V 0 H 0 Z"
         id="path530" /></clipPath></defs><g
     id="g520"
     transform="matrix(1.8864706,0,0,-1.8864706,-186.23876,1270.7378)"><g
       id="g522"
       transform="translate(205.3336,572.0709)"><path
         d="m 0,0 h 140.574 l 73.608,-127.495 -20.254,-35.082 -37.291,64.588 H -1.81 l -72.279,-125.19 -26.857,46.516 65.192,112.914 h 166.688 l -9.901,17.15 H -25.974 Z"
         style="fill:#a30e06;fill-opacity:1;fill-rule:evenodd;stroke:none"
         id="path524" /></g><g
       id="g526"><g
         id="g528"
         clip-path="url(#clipPath532)"><g
           id="g534"
           transform="translate(312.1129,333.7784)"><path
             d="M 0,0 C 30.569,0 55.501,24.932 55.501,55.501 55.501,86.07 30.569,111.002 0,111.002 -30.569,111.002 -55.501,86.07 -55.501,55.501 -55.501,24.932 -30.569,0 0,0"
             style="fill:#1ab4b8;fill-opacity:1;fill-rule:evenodd;stroke:none"
             id="path536" /></g><g
           id="g538"
           transform="translate(209.0102,204.3651)"><path
             d="M 0,0 -70.287,121.74 3.323,249.235 H 43.832 L 6.542,184.646 85.766,47.427 230.323,47.426 203.468,0.91 73.085,0.911 -10.259,145.267 -20.161,128.117 53.343,0.805 Z"
             style="fill:#a30e06;fill-opacity:1;fill-rule:evenodd;stroke:none"
             id="path540" /></g><g
           id="g542"
           transform="translate(525.6143,391.4022)"><path
             d="m 0,0 -70.287,-121.74 h -147.218 l -20.255,35.082 74.581,0.001 79.223,137.219 -72.278,125.191 h 53.713 l 65.19,-112.915 -83.344,-144.356 h 19.803 l 73.504,127.312 z"
             style="fill:#a30e06;fill-opacity:1;fill-rule:evenodd;stroke:none"
             id="path544" /></g></g></g></g></svg>
