<?xml version="1.0" encoding="UTF-8" standalone="no"?>
<svg
   xmlns:dc="http://purl.org/dc/elements/1.1/"
   xmlns:cc="http://creativecommons.org/ns#"
   xmlns:rdf="http://www.w3.org/1999/02/22-rdf-syntax-ns#"
   xmlns:svg="http://www.w3.org/2000/svg"
   xmlns="http://www.w3.org/2000/svg"
   xmlns:sodipodi="http://sodipodi.sourceforge.net/DTD/sodipodi-0.dtd"
   xmlns:inkscape="http://www.inkscape.org/namespaces/inkscape"
   version="1.1"
   id="svg248"
   xml:space="preserve"
   width="1422.6667"
   height="853.33331"
   viewBox="0 0 1422.6667 853.33331"
   sodipodi:docname="ghavamin.svg"
   inkscape:version="1.0.1 (3bc2e813f5, 2020-09-07)"><sodipodi:namedview
     pagecolor="#ffffff"
     bordercolor="#666666"
     borderopacity="1"
     objecttolerance="10"
     gridtolerance="10"
     guidetolerance="10"
     inkscape:pageopacity="0"
     inkscape:pageshadow="2"
     inkscape:window-width="1848"
     inkscape:window-height="1009"
     id="namedview806"
     showgrid="false"
     inkscape:zoom="0.76508705"
     inkscape:cx="711.33337"
     inkscape:cy="426.66666"
     inkscape:window-x="72"
     inkscape:window-y="34"
     inkscape:window-maximized="1"
     inkscape:current-layer="svg248" /><metadata
     id="metadata254"><rdf:RDF><cc:Work
         rdf:about=""><dc:format>image/svg+xml</dc:format><dc:type
           rdf:resource="http://purl.org/dc/dcmitype/StillImage" /><dc:title /></cc:Work></rdf:RDF></metadata><defs
     id="defs252" /><g
     id="g256"
     transform="matrix(1.4245675,0,0,-1.4245675,-48.64443,884.36619)"><g
       id="g258"
       transform="scale(0.1)"><path
         d="m 5607.7,5921.8 c 51.1,42.7 91.2,97.5 144.9,137.2 -6.9,-62.7 -33.3,-122 -66.1,-175.3 -53.2,-85.4 -136.6,-144.3 -213.2,-206.9 -286.8,-221.7 -593,-416.7 -898.9,-610.6 -520,-325.1 -1048.2,-636.7 -1568.3,-961.6 -88.7,-56.6 -178.9,-111.4 -261.7,-176.6 -130.2,-99.6 -251.2,-210.6 -365,-328.4 -28.3,-27.3 -54,-60.7 -92.4,-74.1 -1.7,17.4 1.9,34.3 9.2,50 95.1,201.4 251.9,365.3 420.4,507.5 96.5,81.8 196.5,159.7 303.8,227 290.6,185.3 588.7,358.3 885.2,533.9 441,260.1 886,514.3 1314.1,795.4 133.1,88.8 266.6,178 388,282.5 M 4850.2,4859.3 c 21.2,18.9 22.7,-16.7 18.9,-29.9 -15,-162.6 -29.2,-325.3 -42.3,-488.1 -8.1,-90.1 -15,-188.9 34.4,-269.4 22.7,-60.3 106.1,-69.8 156.4,-40.4 36.9,19.8 37,70.3 72,91.5 10.9,-40.3 3.1,-82.1 0.1,-122.9 -10.9,-94.8 -33,-192.1 -87.7,-272 -25.8,-37.5 -65.1,-72.1 -113.1,-72.1 -42.9,-1.4 -83.4,22.6 -106.4,58 -36.1,54.8 -47.7,121.2 -55.9,185.2 -18.3,176.2 -10.3,353.9 5.7,530 6.4,98.5 9.6,202.6 59.8,290.6 24.6,44.2 40.7,92.2 58.1,139.5 m -475.2,-244 c 15.2,20.2 43.3,7.7 62.9,2 56.1,-23.7 102.3,-71.7 125.3,-128 22.9,-61.9 -16.2,-123.6 -49.4,-173.6 -23.4,-30.5 -45,-69.1 -84.1,-80.5 -49.2,19 -89.2,55.1 -134.8,80.9 -18.8,13.6 -50,26.2 -45.1,54.4 9,45 32,85.7 52.4,126.4 22.3,40.6 43.2,82.6 72.8,118.4 m -273.6,-507.4 c 12.5,18.6 33,45.8 58.7,34.3 28.2,-20.8 14.7,-60.7 3.7,-87.5 -20.7,-50.9 -38.6,-115.9 -3.8,-164.8 32.7,-42.6 102.7,-34.9 133.5,6.1 28.7,30.6 15.3,83.4 50.2,109.4 23.1,11.7 43.7,-12.4 54.4,-30.2 34.7,-59.2 21.9,-130.3 9.9,-194.2 -19.7,-99.3 -65.8,-199.5 -150.5,-259.4 -66.1,-48.2 -154.5,-59.4 -231.9,-35.1 -104.2,-212 -237.9,-410 -401.7,-580.4 -167.2,-175 -364.7,-320.3 -579.3,-432 -446.7,-232.5 -954.7,-320.3 -1454.3,-331 -180.2,-2.9 -360.9,0.9 -540.1,21.4 -161.7,19.8 -325.2,46.4 -476.098,110.2 -71.5,32.2 -145,76.3 -180.602,149.3 -27.898,55.2 -15.602,118.7 -9.801,177.4 4.903,27.1 5.903,58.7 26.602,79 24.801,13.9 49.898,-6.3 69.898,-19.3 114.5,-87.4 255.903,-128.1 394.301,-159.2 228.1,-51.6 462.9,-54.9 695.2,-68.3 186.9,-12.8 374.5,4.5 559.3,32.7 302.9,48.1 601,131.8 880.8,258.2 251,114.2 489.1,265.8 677,469.7 153.2,165.1 268.1,367.2 322,586.5 27.9,109.6 33.8,227.8 92.6,327.2 m 729.7,-639 c 52,6.5 98.6,-29.1 132.5,-65.1 38.8,-39.3 67,-98.5 44.1,-153.3 -23.7,-60.6 -60.7,-117.6 -109.5,-160.8 -28.4,-24.2 -58.6,9.7 -83.7,22.7 -38.2,31 -90.2,47.2 -119,87.8 0.3,49 29.5,92.4 49.6,135.7 26,45.7 47,96.7 86,133 m -372.4,-597.1 c 9.9,18.6 36.1,52.2 55.5,24.8 41.3,-73.1 -19.2,-157.8 10.8,-233.2 11.3,-23.9 44.2,-25.8 64.4,-12.7 41.3,25.2 58.5,73.1 76.2,115.5 10.5,27.1 47.1,18.6 65.1,4.3 38.4,-31.1 56.7,-82 59.9,-130.2 -6,-102.6 -60.7,-197.3 -130.6,-270.3 -42,-46.2 -107.9,-72.9 -169.8,-56.3 -92.1,21.2 -155.3,111.2 -159.6,203.3 -55.5,-68.9 -111.1,-148 -197.9,-179 -30.6,-11.7 -77.3,-1.1 -90.6,-39.6 -39.9,-107.2 -87.7,-211.8 -148,-309.2 C 3727.5,1716.3 3487.7,1494.4 3221.9,1319.7 2914.5,1118.8 2570.7,976.301 2215,886.801 1978.1,828 1734.9,792.102 1490.6,788.398 c -201.8,-3.097 -405.3,14.801 -600.1,69.403 -131,37.398 -258.898,91.898 -368.301,174.299 -80.301,59.3 -141,147.5 -157.801,246.9 -3.097,27.8 -6.898,61.8 15.403,83 25.097,17.2 56.097,2 80.199,-9.6 182.301,-92.4 378.102,-156.7 578.1,-198.3 452.4,-99.6 926.1,-66.3 1372.7,46.9 358.8,93.7 709.6,242.4 999.4,477.6 145.9,116.1 299.6,230.4 402.7,388.8 36,57.9 74.2,114.5 107.7,173.9 24.8,46.4 49.7,95.3 52.3,148.7 -1.3,39.3 -20.1,80.8 -1.2,118.6 14.8,28.3 49.9,34.3 78.9,35 43.4,1.1 86,-8.9 129.2,-12.1 52.6,-3.7 99.6,28.9 132.1,67.5 67.6,79.8 100.1,180.9 146.8,272.8 M 5497,2814.1 c 13,16.9 24.3,36.6 43.3,47.7 45.6,-4.5 82.8,-35.5 114.8,-65.9 33.7,-32.7 65,-78.7 51,-128 -17.3,-65.1 -60.9,-119.5 -105.5,-168.4 -17.1,-16.1 -41.5,-41.8 -66.3,-24.4 -51.5,32.5 -90.9,81.1 -143.8,112.1 -36.1,-60.6 -69.5,-128.3 -129.3,-169.1 -28.7,-18 -55.6,9.9 -77,26.3 -37.8,33.3 -82.9,58 -117.1,95.4 26.2,61.5 61.5,118.6 95.9,175.9 19.5,32 39.3,64.3 65.9,91.2 72.9,-18.9 129.6,-74.1 177.6,-129.5 28.1,46.9 59.5,91.7 90.5,136.7 m -140.4,-610.8 c 19,20.6 43,43.7 73.6,40.5 76.1,-1.4 137.6,-60.6 167.2,-126.8 39.7,-90 40.5,-192.6 24.3,-288.2 -32.4,-177.2 -142.2,-328.7 -267.7,-453.1 -44.1,-45.9 -104.1,-83.1 -122.7,-147.5 -37.7,-100.9 -85.3,-200.9 -159.5,-280.302 -35.5,-39.398 -84.1,-62.796 -132,-83.398 -80.7,-33.301 -164.1,-61.898 -250.3,-76.602 -19.5,-4.699 -37.7,3.704 -46.1,21.801 7.6,10.602 13.8,23.102 25.9,29.5 130.2,76.301 254,164.301 366.3,265.301 33.1,32.1 68.4,64 90.2,105.2 2.6,21.1 -19.6,22.3 -32.4,13.2 -62.5,-30.2 -144.3,-25.5 -195.8,23.8 -35,29.8 -46.9,78.9 -39.5,123 10.3,72.1 38.5,140 67,206.4 21.3,45.8 43.5,93 80.5,128.4 39.4,36.3 100.9,17.6 140.8,-8.6 73.5,-53.7 95.1,-148.7 110.6,-233.2 79,56.9 148.9,127 203.9,207.5 21.1,28.4 25.5,74 -2.5,99.3 -26.2,19.6 -60.6,8.8 -88.9,0.5 -37.5,-12.5 -81.7,-19.8 -116.9,2.7 -28.7,18 -60.3,41.9 -65.4,77.7 3.8,57.3 29.8,109.9 53.3,161.3 33.1,66.9 67.4,134.4 116.1,191.6 M 4578,2040.5 c 10.8,19.2 16.5,46.4 41.1,52.3 -1.3,-45.1 -15.6,-88.4 -19.9,-133.2 C 4569.7,1730 4553,1498.9 4525.9,1269 4507.1,1130.2 4466,991.699 4387.4,874.5 4380,862.898 4370,853.102 4358.6,845.301 4387.2,979 4401,1115.2 4412.1,1251.4 c 14.1,150.1 25.8,300.5 40.6,450.5 20.9,119.3 75.2,229.3 125.3,338.6 M 2104.2,1875 c 21,17.3 50.8,-0.2 72.9,-8 57.6,-32.5 110.6,-88.2 117.7,-156.7 -2.7,-58.3 -36.7,-108.8 -69.6,-154.8 -18.9,-23.4 -37.6,-50.8 -66.8,-61.7 -33.1,6.1 -58.8,31.6 -87.2,48.1 -30.9,23.4 -70.1,37.3 -94,68.7 -6,30.8 13.4,60.5 24.2,88.6 30.3,60.6 59.2,123.5 102.8,175.8 m 1742.5,-862.5 c 42.7,62 78,131.5 132.4,183.8 43.1,-0.7 78.8,-29.8 109.4,-57.2 35.3,-32.9 71.7,-77.8 61.1,-129.6 -14.6,-67.602 -60,-123.398 -105.3,-173.602 -18.2,-18.5 -45.6,-46.097 -72.4,-25.199 -49.1,33.199 -88.6,79.102 -139.4,110.301 -28.2,-48.699 -56.4,-98 -94.6,-139.699 -15.7,-16.903 -34.4,-33.403 -58,-37.403 -24.8,8.204 -44.2,26.403 -64.3,42.204 -35.4,29.398 -74.8,53.699 -107.8,85.898 24.7,64.602 62.6,122.898 97.8,182 19.3,29.8 36.3,62.4 63.3,86.1 18.5,-0.1 35.9,-7.7 51.6,-17 48.2,-28.8 92.6,-65.2 126.2,-110.6"
         style="fill:#010101;fill-opacity:1;fill-rule:nonzero;stroke:none"
         id="path260" /><path
         d="m 5926.4,5403 c 32.9,30.9 80.5,36.3 123.7,36.6 796.6,-0.2 1593.2,0 2389.8,-0.1 60.3,0.1 122.3,-5.6 177.7,-31.4 59,-27.2 106.6,-72.8 151.6,-118.6 146.9,-149.9 294.8,-298.8 442.6,-447.7 22.3,-23 48.9,-43.4 63.7,-72.6 4.8,-32.5 -39.7,-31.6 -61.6,-35.4 -138,-3.2 -276.2,-0.3 -414.2,-1.2 -656.5,0.4 -1313,-1 -1969.4,0.6 -31.8,-0.1 -66,-13.3 -81,-43 -24.1,-46 -22.5,-99.6 -23.4,-150.1 0.2,-480 0,-960.1 0.1,-1440.2 0.7,-340.5 178.7,-672 454.4,-869.7 154.5,-111.7 340.2,-179.5 530.5,-192.5 209.8,-12.3 425.8,21.1 613.5,118.7 205.5,105.6 367.2,289 456.8,500.8 33.7,61.1 65.9,123.4 85.6,190.6 -48.4,-309.2 -199.3,-608.4 -441.6,-810.5 -129.8,-109.3 -283.3,-188.7 -445,-238.9 -190.7,-59.7 -391.6,-80.5 -590.8,-78.7 -192.7,2.4 -386.3,27.7 -569.2,89.8 -176.6,59.2 -341.3,155.2 -476.1,284 -221.4,210.7 -354,499.9 -414.1,796.5 -25.8,125 -39,252.5 -41,380.1 0.1,670.1 0,1340.3 0.1,2010.4 1.1,42.6 5.1,90.9 37.3,122.5 m 2344.2,-998.2 c 220.9,58.9 452.1,71.2 679.5,55 295.4,-21.8 593.4,-113.4 825,-303.4 234,-188.9 385.8,-463.8 461.2,-751.9 43.8,-167.8 67.8,-341.4 65.1,-514.9 0.1,-663.1 -0.2,-1326.1 0.1,-1989.202 0.2,-40.796 -5.3,-86.097 -35.4,-116.597 -33,-32 -82,-37.199 -125.8,-38.199 -750.1,0.097 -1500.2,0 -2250.4,0 -84.9,2 -171,-6.403 -254.7,11.796 -70.1,15.102 -130.7,57.903 -180.7,107.704 -172.7,173.798 -344.3,348.698 -517.2,522.198 -10.8,12.8 -33.6,34.6 -15.4,50.1 29.1,17.7 65.3,14.7 98.1,16.2 756.7,-1.1 1513.3,0.9 2270,-0.7 43.5,0.8 92.3,-8.3 130.7,17.5 40.1,33.7 42.4,91.4 44.1,139.8 0.1,500.1 0.2,1000.2 -0.1,1500.3 -8.1,364.6 -220.9,714 -534.3,898 -156.5,92.7 -338,142.1 -519.8,142.4 -200.9,1.6 -405.3,-40.3 -580.3,-141.5 -189.5,-108.3 -337,-283.9 -421.6,-484.1 -34.2,-62.7 -67.8,-126.4 -86.8,-195.6 50.5,310.8 198.1,612.7 442,816.9 146.1,123.8 322.2,209.1 506.7,258.2"
         style="fill:#095f3c;fill-opacity:1;fill-rule:nonzero;stroke:none"
         id="path262" /><path
         d="m 7681.8,3788.2 c 168.9,101.8 375.9,136.9 569.2,99 181.8,-34.8 349.8,-135.1 467.5,-277.8 174.7,-206.9 232.1,-504.3 148.3,-761.6 -19.7,-67.2 -51.9,-129.5 -85.6,-190.6 -61.6,-83.3 -129.5,-163.7 -215.5,-222.9 -164.7,-118.7 -375.1,-170.7 -576.1,-143.4 -192.2,24.4 -373.5,121.9 -501,267.6 -184.2,205.4 -248.5,507.9 -166.7,771.2 19,69.2 52.6,132.9 86.8,195.6 73.1,104 162.2,198.7 273.1,262.9"
         style="fill:#e4e418;fill-opacity:1;fill-rule:nonzero;stroke:none"
         id="path264" /></g></g></svg>
