<?xml version="1.0" encoding="UTF-8" standalone="no"?>
<svg
   xmlns:dc="http://purl.org/dc/elements/1.1/"
   xmlns:cc="http://creativecommons.org/ns#"
   xmlns:rdf="http://www.w3.org/1999/02/22-rdf-syntax-ns#"
   xmlns:svg="http://www.w3.org/2000/svg"
   xmlns="http://www.w3.org/2000/svg"
   xmlns:sodipodi="http://sodipodi.sourceforge.net/DTD/sodipodi-0.dtd"
   xmlns:inkscape="http://www.inkscape.org/namespaces/inkscape"
   version="1.1"
   id="svg704"
   xml:space="preserve"
   width="1122.52"
   height="793.70135"
   viewBox="0 0 1122.52 793.70135"
   sodipodi:docname="hekmat.svg"
   inkscape:version="1.0.1 (3bc2e813f5, 2020-09-07)"><sodipodi:namedview
     pagecolor="#ffffff"
     bordercolor="#666666"
     borderopacity="1"
     objecttolerance="10"
     gridtolerance="10"
     guidetolerance="10"
     inkscape:pageopacity="0"
     inkscape:pageshadow="2"
     inkscape:window-width="1848"
     inkscape:window-height="1009"
     id="namedview860"
     showgrid="false"
     inkscape:zoom="0.87705101"
     inkscape:cx="561.26001"
     inkscape:cy="396.85068"
     inkscape:window-x="72"
     inkscape:window-y="34"
     inkscape:window-maximized="1"
     inkscape:current-layer="svg704" /><metadata
     id="metadata710"><rdf:RDF><cc:Work
         rdf:about=""><dc:format>image/svg+xml</dc:format><dc:type
           rdf:resource="http://purl.org/dc/dcmitype/StillImage" /><dc:title /></cc:Work></rdf:RDF></metadata><defs
     id="defs708"><clipPath
       clipPathUnits="userSpaceOnUse"
       id="clipPath720"><path
         d="M 0,595.276 H 841.89 V 0 H 0 Z"
         id="path718" /></clipPath></defs><g
     id="g712"
     transform="matrix(1.4560763,0,0,-1.4560763,-51.668008,830.23424)"><g
       id="g714"><g
         id="g716"
         clip-path="url(#clipPath720)"><g
           id="g722"
           transform="translate(57.4526,305.3931)"><path
             d="m 0,0 c 11.531,0 20.935,9.404 20.935,20.935 0,11.531 -9.404,20.936 -20.935,20.936 -11.531,0 -20.936,-9.405 -20.936,-20.936 C -20.936,9.404 -11.531,0 0,0"
             style="fill:#1f488c;fill-opacity:1;fill-rule:evenodd;stroke:none"
             id="path724" /></g><g
           id="g726"
           transform="translate(156.1759,305.009)"><path
             d="m 0,0 c 11.531,0 20.936,9.404 20.936,20.935 0,11.531 -9.405,20.936 -20.936,20.936 -11.531,0 -20.936,-9.405 -20.936,-20.936 C -20.936,9.404 -11.531,0 0,0"
             style="fill:#1f488c;fill-opacity:1;fill-rule:evenodd;stroke:none"
             id="path728" /></g><g
           id="g730"
           transform="translate(107.0062,277.3511)"><path
             d="m 0,0 c 11.531,0 20.935,9.405 20.935,20.935 0,11.531 -9.404,20.936 -20.935,20.936 -11.531,0 -20.936,-9.405 -20.936,-20.936 C -20.936,9.405 -11.531,0 0,0"
             style="fill:#1f488c;fill-opacity:1;fill-rule:evenodd;stroke:none"
             id="path732" /></g><g
           id="g734"
           transform="translate(107.0062,333.0507)"><path
             d="M 0,0 C 15.551,0 28.234,12.683 28.234,28.234 28.234,43.785 15.551,56.468 0,56.468 -15.551,56.468 -28.234,43.785 -28.234,28.234 -28.234,12.683 -15.551,0 0,0"
             style="fill:#1f488c;fill-opacity:1;fill-rule:evenodd;stroke:none"
             id="path736" /></g><g
           id="g738"
           transform="translate(64.7512,263.5223)"><path
             d="m 0,0 c 7.511,0 13.637,6.126 13.637,13.637 0,7.511 -6.126,13.636 -13.637,13.636 -7.511,0 -13.637,-6.125 -13.637,-13.636 C -13.637,6.126 -7.511,0 0,0"
             style="fill:#1f488c;fill-opacity:1;fill-rule:evenodd;stroke:none"
             id="path740" /></g><g
           id="g742"
           transform="translate(149.4536,263.5223)"><path
             d="m 0,0 c 7.511,0 13.637,6.126 13.637,13.637 0,7.511 -6.126,13.636 -13.637,13.636 -7.511,0 -13.637,-6.125 -13.637,-13.636 C -13.637,6.126 -7.511,0 0,0"
             style="fill:#1f488c;fill-opacity:1;fill-rule:evenodd;stroke:none"
             id="path744" /></g><g
           id="g746"
           transform="translate(106.8143,235.0962)"><path
             d="m 0,0 c 7.511,0 13.637,6.126 13.637,13.637 0,7.511 -6.126,13.636 -13.637,13.636 -7.511,0 -13.637,-6.125 -13.637,-13.636 C -13.637,6.126 -7.511,0 0,0"
             style="fill:#1f488c;fill-opacity:1;fill-rule:evenodd;stroke:none"
             id="path748" /></g><g
           id="g750"
           transform="translate(72.0499,220.4992)"><path
             d="m 0,0 c 3.914,0 7.106,3.192 7.106,7.106 0,3.914 -3.192,7.107 -7.106,7.107 -3.914,0 -7.107,-3.193 -7.107,-7.107 C -7.107,3.192 -3.914,0 0,0"
             style="fill:#1f488c;fill-opacity:1;fill-rule:evenodd;stroke:none"
             id="path752" /></g><g
           id="g754"
           transform="translate(142.539,220.4992)"><path
             d="m 0,0 c 3.914,0 7.106,3.192 7.106,7.106 0,3.914 -3.192,7.107 -7.106,7.107 -3.914,0 -7.106,-3.193 -7.106,-7.107 C -7.106,3.192 -3.914,0 0,0"
             style="fill:#1f488c;fill-opacity:1;fill-rule:evenodd;stroke:none"
             id="path756" /></g><g
           id="g758"
           transform="translate(107.1984,206.4779)"><path
             d="m 0,0 c 3.914,0 7.106,3.193 7.106,7.107 0,3.914 -3.192,7.106 -7.106,7.106 -3.914,0 -7.107,-3.192 -7.107,-7.106 C -7.107,3.193 -3.914,0 0,0"
             style="fill:#1f488c;fill-opacity:1;fill-rule:evenodd;stroke:none"
             id="path760" /></g><g
           id="g762"
           transform="translate(785.1359,294.639)"><path
             d="m 0,0 h -1.292 c -10.188,0 -15.275,5.323 -15.275,15.956 0,4.545 -0.167,10.493 -0.486,17.873 -0.348,7.798 -0.723,12.954 -1.098,15.483 -0.195,1.237 0.027,2.141 0.653,2.683 l 11.855,8.339 c 0.807,0.57 1.362,0.862 1.668,0.862 0.348,0 0.528,-0.32 0.528,-0.973 V 24.351 c 0,-3.631 1.471,-5.603 4.402,-5.907 h 8.246 c 1.598,0 2.404,0.444 2.404,1.348 0,0.459 -0.236,0.987 -0.694,1.584 -1.682,2.168 -3.851,4.434 -6.519,6.796 -0.403,0.376 -0.403,0.876 0,1.474 l 7.575,10.994 c 0.417,0.597 0.709,0.889 0.903,0.889 0.237,0 0.584,-0.278 1.015,-0.82 4.239,-5.212 6.352,-11.661 6.352,-19.375 0,-7.546 -1.071,-12.87 -3.211,-15.955 C 14.524,1.765 9.91,-0.042 3.183,-0.042 H 0 Z m -27.185,54.636 -5.615,5.378 c -0.487,0.459 -0.945,0.459 -1.39,0 l -5.087,-5.17 c -0.542,-0.542 -0.584,-1.028 -0.125,-1.459 l 5.531,-5.351 c 0.404,-0.376 0.807,-0.376 1.182,0.014 l 5.504,5.406 c 0.417,0.417 0.417,0.806 0,1.182 M -42.738,-0.042 c -2.581,0.004 -5.412,1.005 -8.506,3.016 -2.654,1.738 -4.934,3.781 -6.838,6.144 -2.112,-4.267 -5.656,-7.186 -10.619,-8.756 -3.418,-1.084 -8.019,-1.627 -13.815,-1.627 h -2.682 -1.668 -0.861 c -8.006,0 -13.969,1.085 -17.916,3.267 -5.24,2.904 -7.852,8.019 -7.852,15.33 0,3.169 0.5,6.268 1.5,9.284 1.14,3.433 2.488,5.142 4.031,5.142 1.557,0 2.307,-1.39 2.294,-4.155 -0.028,-3.252 0.75,-5.587 2.348,-7.005 2.697,-2.391 8.103,-3.586 16.248,-3.586 9.395,0 15.608,0.459 18.652,1.39 0.709,0.208 1.056,0.528 1.056,0.931 0,0.32 -0.208,0.751 -0.653,1.265 -2.002,2.418 -6.338,7.102 -12.982,14.051 l 2.238,13.107 c 0.111,0.625 0.403,1.028 0.89,1.181 l 31.522,10.424 c 0.305,0.111 0.486,0.153 0.57,0.125 0.111,-0.028 0.138,-0.319 0.083,-0.889 l -1.348,-13.454 c -0.056,-0.515 -0.098,-0.82 -0.153,-0.932 -0.111,-0.194 -0.403,-0.375 -0.862,-0.528 l -18.527,-6.31 c 7.575,-8.686 11.675,-13.328 12.301,-13.926 3.502,-3.336 6.99,-5.003 10.465,-5.003 h 1.084 3.141 6.06 c 1.599,0 2.404,0.444 2.404,1.348 0,0.459 -0.236,0.987 -0.694,1.584 -1.682,2.168 -3.85,4.434 -6.519,6.796 -0.403,0.39 -0.403,0.876 0,1.474 l 7.575,10.994 c 0.417,0.597 0.709,0.889 0.903,0.889 0.237,0 0.584,-0.264 1.015,-0.806 4.239,-5.212 6.352,-11.675 6.352,-19.389 0,-7.546 -1.071,-12.87 -3.211,-15.955 -2.502,-3.614 -7.116,-5.421 -13.843,-5.421 h -0.042 -3.127 z m 60,-11.897 c 0.431,-0.319 0.431,-0.695 0,-1.139 l -5.49,-5.449 c -0.389,-0.375 -0.778,-0.375 -1.181,0 l -5.546,5.379 c -0.458,0.431 -0.43,0.931 0.098,1.487 l 5.156,5.101 c 0.431,0.445 0.889,0.445 1.362,0.014 z"
             style="fill:#1f488c;fill-opacity:1;fill-rule:evenodd;stroke:none"
             id="path764" /></g><g
           id="g766"
           transform="translate(551.2924,310.678)"><path
             d="m 0,0 c 0,-2.474 -0.764,-3.711 -2.279,-3.711 -1.96,0 -3.503,1.251 -4.642,3.753 -0.904,1.946 -1.348,3.961 -1.348,6.018 0,0.848 0.277,1.584 0.819,2.224 0.543,0.639 1.223,0.959 2.03,0.959 1.528,0 2.849,-1.21 3.989,-3.628 C -0.473,3.614 0,1.737 0,0 m 13.148,-16.081 h 1.835 c 5.059,0 8.951,0.529 11.688,1.585 3.586,1.39 6.269,3.905 8.062,7.575 1.904,-2.363 4.183,-4.406 6.838,-6.144 3.071,-1.997 5.884,-2.997 8.45,-3.015 v -0.001 h 0.069 3.169 4.212 c 4.725,0 9.02,0.876 12.87,2.641 1.821,0.848 4.281,2.516 7.366,5.017 3.099,2.488 5.532,4.156 7.297,5.004 2.571,1.223 6.06,1.793 10.465,1.709 l 4.643,10.953 c 0.291,0.708 0.445,1.223 0.445,1.542 0,0.487 -0.431,0.834 -1.265,1.029 -4.295,0.945 -7.353,1.751 -9.201,2.39 -2.196,0.793 -5.935,2.836 -11.202,6.158 -4.101,2.571 -7.52,3.863 -10.258,3.863 -3.905,0 -7.491,-2.251 -10.757,-6.754 -2.599,-3.614 -3.906,-6.408 -3.906,-8.395 0,-1.779 0.779,-2.683 2.321,-2.683 0.362,0 1.39,0.57 3.114,1.71 1.723,1.14 3.155,1.709 4.294,1.709 1.307,0 3.364,-0.583 6.157,-1.751 L 77.957,4.684 C 73.941,3.169 67.728,2.405 59.347,2.405 h -6.088 -3.238 -1.028 c -3.433,0 -6.908,1.667 -10.424,5.003 -0.904,0.848 -5.004,5.49 -12.301,13.926 l 18.485,6.297 c 0.459,0.166 0.751,0.333 0.862,0.528 0.056,0.111 0.098,0.417 0.153,0.931 l 1.39,13.454 c 0.056,0.584 0.028,0.875 -0.083,0.903 -0.112,0.028 -0.32,-0.014 -0.612,-0.125 L 14.941,32.898 C 14.454,32.745 14.163,32.342 14.052,31.717 L 11.814,18.61 C 19.111,11.063 23.308,6.63 24.392,5.295 c 0.459,-0.569 0.695,-1 0.695,-1.306 0,-0.403 -0.347,-0.709 -1.015,-0.89 C 22.46,2.641 19.5,2.405 15.191,2.405 H 13.148 9.896 c -1.793,0 -3.419,1.348 -4.851,4.03 -2.363,4.392 -3.808,6.908 -4.322,7.533 -2.196,2.683 -5.101,4.031 -8.715,4.031 -4.28,0 -7.519,-1.626 -9.687,-4.892 -1.445,-2.141 -2.238,-4.629 -2.404,-7.492 -0.139,-2.14 -1.918,-3.21 -5.324,-3.21 h -0.68 c -1.488,0 -2.516,0.347 -3.086,1.056 0.347,0.542 0.751,1.473 1.195,2.793 0.445,1.321 0.682,2.266 0.682,2.864 0,1.793 -0.723,2.696 -2.169,2.696 -0.514,0 -1.779,-1.07 -3.78,-3.225 -2.474,-2.626 -5.365,-4.642 -8.673,-6.018 -5.129,-2.154 -11.758,-3.224 -19.875,-3.224 -7.63,0 -12.731,1.334 -15.302,3.989 -1.418,1.473 -2.224,3.947 -2.405,7.449 -0.139,2.669 -1.056,4.003 -2.78,4.003 -1.542,0 -2.793,-1.765 -3.738,-5.295 -0.792,-2.905 -1.182,-5.74 -1.182,-8.52 0,-6.977 1.904,-12.036 5.699,-15.177 3.475,-2.849 8.784,-4.281 15.928,-4.281 12.967,0 22.724,3.155 29.27,9.451 2.184,-4.501 5.363,-6.845 9.548,-7.034 v -0.013 h 0.556 2.057 0.626 v 0.029 c 2.824,0.259 5.117,2.293 6.866,6.115 2.793,-4.295 6.407,-6.436 10.868,-6.436 4.253,0 7.394,2.196 9.396,6.602 0.472,-1.459 1.376,-2.849 2.738,-4.155 1.204,-1.16 2.391,-1.854 3.544,-2.076 v -0.079 h 0.806 z m -62.154,40.306 c 0.361,-0.291 0.361,-0.611 -0.028,-0.945 l -4.823,-4.795 c -0.347,-0.333 -0.695,-0.333 -1.042,0.014 l -4.573,4.42 -4.503,-4.434 c -0.306,-0.375 -0.653,-0.361 -1.056,0.014 l -4.865,4.712 c -0.375,0.375 -0.333,0.806 0.125,1.265 l 4.434,4.517 c 0.417,0.403 0.834,0.403 1.265,0 l 4.6,-4.351 4.239,4.351 c 0.431,0.43 0.862,0.43 1.307,0 z"
             style="fill:#1f488c;fill-opacity:1;fill-rule:evenodd;stroke:none"
             id="path768" /></g><g
           id="g770"
           transform="translate(456.2572,315.8067)"><path
             d="m 0,0 c 0,-2.391 -0.361,-5.421 -1.098,-9.076 -0.764,-3.864 -1.598,-6.782 -2.53,-8.756 -1.139,-2.391 -2.209,-3.586 -3.21,-3.586 -1.084,0 -2.029,1.446 -2.808,4.35 -1.112,4.101 -3.474,18.235 -7.088,42.391 l 12.301,13.398 c 0.75,0.848 1.278,1.265 1.542,1.265 0.222,0 0.403,-0.375 0.57,-1.139 C -1.126,33.44 -0.389,26.991 -0.125,19.5 -0.042,17.22 0,10.73 0,0"
             style="fill:#1f488c;fill-opacity:1;fill-rule:evenodd;stroke:none"
             id="path772" /></g><g
           id="g774"
           transform="translate(435.507,282.6306)"><path
             d="m 0,0 c 0.375,-0.306 0.361,-0.639 -0.042,-1.028 l -4.85,-4.754 c -0.348,-0.347 -0.709,-0.347 -1.057,0 l -4.558,4.434 -4.476,-4.434 c -0.361,-0.347 -0.709,-0.347 -1.056,0 l -4.851,4.712 c -0.403,0.375 -0.361,0.806 0.139,1.293 l 4.462,4.53 c 0.403,0.403 0.806,0.403 1.223,0 l 4.572,-4.392 4.295,4.406 c 0.417,0.403 0.848,0.403 1.279,0 z"
             style="fill:#1f488c;fill-opacity:1;fill-rule:evenodd;stroke:none"
             id="path776" /></g><g
           id="g778"
           transform="translate(415.3541,294.5557)"><path
             d="M 0,0 H -2.238 C -2.469,0 -2.696,0.014 -2.917,0.042 H -3.141 V 0.075 C -3.899,0.204 -4.598,0.502 -5.24,0.973 v -3.572 c 0,-2.988 -0.834,-6.324 -2.488,-10.021 -1.431,-3.225 -3.016,-5.768 -4.725,-7.616 -0.598,-0.654 -1.418,-0.973 -2.474,-0.973 h -19.111 c -2.251,0 -3.377,0.917 -3.377,2.766 0,1 0.472,1.737 1.432,2.196 3.571,1.709 8.005,4.377 13.273,7.977 6.838,4.67 10.257,8.006 10.257,9.98 0,1.626 -3.058,5.295 -9.16,10.993 l 6.505,13.44 c 0.417,0.806 0.918,0.904 1.515,0.278 2.571,-2.682 4.364,-4.42 5.365,-5.212 2.279,-1.792 4.531,-2.682 6.768,-2.682 H 0 6.06 c 1.598,0 2.404,0.445 2.404,1.348 0,0.459 -0.236,0.987 -0.695,1.584 -1.682,2.169 -3.85,4.434 -6.518,6.797 -0.403,0.375 -0.403,0.875 0,1.473 l 7.574,10.994 c 0.417,0.598 0.709,0.889 0.904,0.889 0.236,0 0.584,-0.277 1.015,-0.82 4.238,-5.211 6.351,-11.661 6.351,-19.374 0,-7.547 -1.07,-12.87 -3.21,-15.956 C 11.383,1.848 6.769,0.042 0.042,0.042 H 0 Z"
             style="fill:#1f488c;fill-opacity:1;fill-rule:evenodd;stroke:none"
             id="path780" /></g><g
           id="g782"
           transform="translate(375.2289,315.8067)"><path
             d="m 0,0 c 0,-2.391 -0.361,-5.421 -1.098,-9.076 -0.764,-3.864 -1.598,-6.782 -2.53,-8.756 -1.139,-2.391 -2.209,-3.586 -3.21,-3.586 -1.084,0 -2.029,1.446 -2.807,4.35 -1.112,4.101 -3.475,18.235 -7.089,42.391 l 12.301,13.398 c 0.75,0.848 1.278,1.265 1.542,1.265 0.222,0 0.403,-0.375 0.57,-1.139 C -1.126,33.44 -0.389,26.991 -0.125,19.5 -0.042,17.22 0,10.73 0,0"
             style="fill:#1f488c;fill-opacity:1;fill-rule:evenodd;stroke:none"
             id="path784" /></g><g
           id="g786"
           transform="translate(349.5861,349.2746)"><path
             d="m 0,0 c 0.417,-0.375 0.417,-0.764 0,-1.182 l -5.504,-5.406 c -0.375,-0.389 -0.778,-0.389 -1.181,-0.014 l -5.532,5.351 c -0.458,0.431 -0.417,0.917 0.125,1.459 l 5.087,5.171 c 0.445,0.458 0.904,0.458 1.39,0 z"
             style="fill:#1f488c;fill-opacity:1;fill-rule:evenodd;stroke:none"
             id="path788" /></g><g
           id="g790"
           transform="translate(334.5897,282.6306)"><path
             d="m 0,0 c 0.375,-0.306 0.361,-0.639 -0.042,-1.028 l -4.85,-4.754 c -0.348,-0.347 -0.695,-0.347 -1.057,0 l -4.559,4.434 -4.475,-4.434 c -0.361,-0.347 -0.709,-0.347 -1.056,0 l -4.851,4.712 c -0.403,0.375 -0.361,0.806 0.139,1.293 l 4.462,4.53 c 0.403,0.403 0.806,0.403 1.223,0 l 4.572,-4.392 4.295,4.406 c 0.417,0.403 0.848,0.403 1.279,0 z"
             style="fill:#1f488c;fill-opacity:1;fill-rule:evenodd;stroke:none"
             id="path792" /></g><g
           id="g794"
           transform="translate(311.3371,294.639)"><path
             d="m 0,0 h -1.32 c -10.188,0 -15.275,5.323 -15.275,15.956 0,4.545 -0.167,10.493 -0.486,17.873 -0.348,7.798 -0.723,12.954 -1.098,15.483 -0.195,1.237 0.028,2.141 0.653,2.683 l 11.855,8.339 c 0.807,0.57 1.363,0.862 1.668,0.862 0.348,0 0.528,-0.32 0.528,-0.973 V 24.351 c 0,-3.631 1.471,-5.603 4.402,-5.907 h 1.644 c 2.891,0 4.92,0.875 6.06,2.612 0.278,0.403 0.82,1.988 1.626,4.754 0.515,1.737 1.46,2.613 2.808,2.613 1.306,0 2.154,-0.876 2.529,-2.613 0.598,-2.655 1.043,-4.239 1.348,-4.754 1.027,-1.734 2.941,-2.609 5.754,-2.612 h 0.014 3.141 6.046 c 1.599,0 2.405,0.444 2.405,1.348 0,0.459 -0.236,0.987 -0.695,1.584 -1.682,2.168 -3.85,4.434 -6.519,6.796 -0.403,0.39 -0.403,0.876 0,1.474 l 7.575,10.994 c 0.417,0.597 0.709,0.889 0.904,0.889 0.236,0 0.583,-0.264 1.014,-0.806 4.239,-5.212 6.352,-11.675 6.352,-19.389 0,-7.546 -1.07,-12.87 -3.211,-15.955 C 37.221,1.765 32.606,-0.042 25.879,-0.042 H 25.851 22.71 22.696 C 18.798,-0.037 15.786,1.769 13.635,5.379 11.522,1.765 8.311,-0.042 3.989,-0.042 H 0 Z"
             style="fill:#1f488c;fill-opacity:1;fill-rule:evenodd;stroke:none"
             id="path796" /></g><g
           id="g798"
           transform="translate(267.6124,325.9942)"><path
             d="m 0,0 c 0.195,-0.195 0.292,-0.375 0.292,-0.542 0,-0.195 -0.111,-0.403 -0.32,-0.611 L -5.49,-6.602 c -0.389,-0.389 -0.778,-0.389 -1.195,-0.014 l -5.532,5.393 c -0.458,0.431 -0.417,0.917 0.125,1.459 l 5.129,5.171 c 0.444,0.431 0.889,0.431 1.348,0 z"
             style="fill:#1f488c;fill-opacity:1;fill-rule:evenodd;stroke:none"
             id="path800" /></g><g
           id="g802"
           transform="translate(288.794,299.9205)"><path
             d="m 0,0 c 0,-10.229 -2.794,-17.401 -8.395,-21.501 -4.016,-2.961 -9.84,-4.434 -17.456,-4.434 -6.63,0 -11.939,1.348 -15.928,4.031 -4.67,3.127 -7.005,7.825 -7.005,14.093 0,3.753 0.542,7.589 1.626,11.522 1.39,5.031 3.155,7.533 5.295,7.533 1.738,0 2.613,-1.473 2.613,-4.434 0,-0.736 -0.167,-1.848 -0.472,-3.363 -0.32,-1.501 -0.473,-2.641 -0.473,-3.391 0,-5.574 5.351,-8.354 16.039,-8.354 10.966,0 16.456,2.016 16.456,6.033 0,0.889 -1.195,2.779 -3.586,5.656 -2.279,2.738 -4.058,4.531 -5.337,5.379 l 6.769,13.231 c 0.43,0.862 0.778,1.307 1.014,1.307 0.223,0 0.709,-0.403 1.474,-1.181 1.626,-1.724 3.168,-4.434 4.642,-8.145 C -0.903,9.326 0,4.67 0,0"
             style="fill:#1f488c;fill-opacity:1;fill-rule:evenodd;stroke:none"
             id="path804" /></g><g
           id="g806"
           transform="translate(655.56,225.8473)"><path
             d="M 0,0 V -19.795 H -4.921 V -0.94 c 0,2.163 -1.5,3.245 -4.499,3.245 -1.465,-0.193 -2.507,-0.683 -3.152,-1.494 -0.633,-0.824 -1.007,-1.481 -1.136,-1.983 v -18.623 h -6.609 V 5.937 h 6.609 V 3.851 c 0.093,0.064 0.398,0.283 0.937,0.682 0.527,0.386 1.289,0.747 2.261,1.069 0.984,0.322 2.109,0.489 3.41,0.489 2.437,0 4.229,-0.618 5.378,-1.841 C -0.574,3.026 0,1.61 0,0 m -32.889,-15.777 c 2.145,0.644 3.223,1.675 3.223,3.091 v 5.873 c -0.012,-0.039 -0.094,-0.219 -0.247,-0.541 -0.14,-0.322 -0.48,-0.631 -1.007,-0.953 -0.527,-0.309 -1.324,-0.541 -2.402,-0.683 -1.828,-0.27 -3.234,-0.721 -4.195,-1.339 -0.961,-0.631 -1.441,-1.687 -1.441,-3.194 0.153,-1.751 1.418,-2.627 3.82,-2.627 0.715,0 1.464,0.129 2.249,0.373 m 3.223,-4.018 v 2.705 c -0.188,-0.477 -0.797,-1.056 -1.84,-1.739 -1.054,-0.695 -2.824,-1.043 -5.331,-1.043 -2.144,0.09 -3.925,0.696 -5.343,1.816 -1.417,1.12 -2.144,2.885 -2.179,5.293 0,2.589 0.843,4.533 2.531,5.834 1.687,1.301 4.218,2.087 7.592,2.357 1.558,0.142 2.753,0.579 3.597,1.314 0.844,0.734 1.265,1.558 1.265,2.472 0,0.94 -0.386,1.739 -1.159,2.396 -0.774,0.669 -1.816,1.004 -3.129,1.004 -2.718,0 -4.827,-0.553 -6.327,-1.648 -1.511,-1.108 -2.495,-2.022 -2.964,-2.769 l 0.984,5.113 c 0,0.09 0.352,0.36 1.066,0.811 0.715,0.464 1.711,0.889 3,1.275 1.277,0.399 2.812,0.605 4.581,0.618 3.62,0 6.233,-0.67 7.838,-2.022 1.617,-1.352 2.426,-3.129 2.426,-5.319 V -19.795 Z M -49.69,16.291 c 1.16,0 2.074,-0.399 2.73,-1.21 0.656,-0.799 0.984,-1.765 0.984,-2.885 0,-1.146 -0.328,-2.125 -0.996,-2.936 -0.668,-0.825 -1.605,-1.224 -2.788,-1.224 -1.149,0 -2.051,0.412 -2.731,1.236 -0.679,0.812 -1.007,1.765 -1.007,2.847 0,1.107 0.328,2.086 1.007,2.923 0.68,0.837 1.606,1.249 2.801,1.249 M -53.006,5.937 h 6.538 v -25.732 h -6.538 z M -55.958,0 v -19.795 h -4.921 V -0.94 c 0,2.163 -1.5,3.245 -4.5,3.245 -1.464,-0.193 -2.507,-0.683 -3.151,-1.494 -0.633,-0.824 -1.008,-1.481 -1.137,-1.983 v -18.623 h -6.608 V 5.937 h 6.608 V 3.851 c 0.094,0.064 0.399,0.283 0.937,0.682 0.528,0.386 1.289,0.747 2.262,1.069 0.984,0.322 2.109,0.489 3.409,0.489 2.437,0 4.23,-0.618 5.378,-1.841 1.148,-1.224 1.723,-2.64 1.723,-4.25 m -32.889,-15.777 c 2.144,0.644 3.222,1.675 3.222,3.091 v 5.873 c -0.012,-0.039 -0.094,-0.219 -0.246,-0.541 -0.141,-0.322 -0.48,-0.631 -1.008,-0.953 -0.527,-0.309 -1.324,-0.541 -2.402,-0.683 -1.827,-0.27 -3.233,-0.721 -4.194,-1.339 -0.961,-0.631 -1.441,-1.687 -1.441,-3.194 0.152,-1.751 1.417,-2.627 3.819,-2.627 0.715,0 1.465,0.129 2.25,0.373 m 3.222,-4.018 v 2.705 c -0.187,-0.477 -0.797,-1.056 -1.839,-1.739 -1.055,-0.695 -2.824,-1.043 -5.332,-1.043 -2.144,0.09 -3.924,0.696 -5.342,1.816 -1.418,1.12 -2.144,2.885 -2.18,5.293 0,2.589 0.844,4.533 2.531,5.834 1.687,1.301 4.218,2.087 7.592,2.357 1.559,0.142 2.754,0.579 3.598,1.314 0.843,0.734 1.265,1.558 1.265,2.472 0,0.94 -0.387,1.739 -1.16,2.396 -0.773,0.669 -1.816,1.004 -3.128,1.004 -2.719,0 -4.828,-0.553 -6.327,-1.648 -1.512,-1.108 -2.496,-2.022 -2.965,-2.769 l 0.985,5.113 c 0,0.09 0.351,0.36 1.066,0.811 0.715,0.464 1.71,0.889 2.999,1.275 1.277,0.399 2.812,0.605 4.581,0.618 3.621,0 6.234,-0.67 7.839,-2.022 1.617,-1.352 2.425,-3.129 2.425,-5.319 v -18.468 z m -31.904,0 V 5.937 h 6.608 V 2.769 c 0.023,0.025 0.152,0.206 0.398,0.541 0.247,0.335 0.621,0.682 1.113,1.043 0.492,0.36 1.16,0.708 2.004,1.043 0.902,0.412 2.05,0.618 3.445,0.618 1.078,0 1.757,-0.051 2.027,-0.154 l 0.574,-3.709 c -0.809,0.206 -1.559,0.322 -2.25,0.322 -1.523,0 -2.788,-0.322 -3.796,-0.953 -1.125,-0.619 -2.004,-1.456 -2.601,-2.525 -0.609,-1.069 -0.914,-2.047 -0.914,-2.949 v -15.841 z m -3.375,0 h -7.452 v 36.009 h 7.452 z m -30.885,22.486 v -14.926 c 0,-1.481 0.399,-2.537 1.207,-3.168 0.563,-0.502 1.652,-0.747 3.234,-0.747 v -3.645 c -0.129,-0.012 -0.375,-0.025 -0.738,-0.038 -0.363,-0.026 -0.773,-0.039 -1.23,-0.039 -3.011,0 -5.214,0.567 -6.608,1.7 -1.653,1.236 -2.473,3.323 -2.473,6.259 V 2.691 h -4.428 v 3.246 h 4.428 v 10.277 h 6.608 V 5.937 h 4.441 V 2.691 Z m -22.402,-18.468 c 2.144,0.644 3.222,1.675 3.222,3.091 v 5.873 c -0.011,-0.039 -0.093,-0.219 -0.246,-0.541 -0.14,-0.322 -0.48,-0.631 -1.007,-0.953 -0.528,-0.309 -1.324,-0.541 -2.402,-0.683 -1.828,-0.27 -3.234,-0.721 -4.195,-1.339 -0.961,-0.631 -1.441,-1.687 -1.441,-3.194 0.152,-1.751 1.418,-2.627 3.819,-2.627 0.715,0 1.465,0.129 2.25,0.373 m 3.222,-4.018 v 2.705 c -0.187,-0.477 -0.796,-1.056 -1.839,-1.739 -1.055,-0.695 -2.824,-1.043 -5.331,-1.043 -2.145,0.09 -3.925,0.696 -5.343,1.816 -1.418,1.12 -2.144,2.885 -2.179,5.293 0,2.589 0.843,4.533 2.53,5.834 1.688,1.301 4.218,2.087 7.593,2.357 1.558,0.142 2.753,0.579 3.597,1.314 0.843,0.734 1.265,1.558 1.265,2.472 0,0.94 -0.386,1.739 -1.16,2.396 -0.773,0.669 -1.816,1.004 -3.128,1.004 -2.718,0 -4.827,-0.553 -6.327,-1.648 -1.512,-1.108 -2.495,-2.022 -2.964,-2.769 l 0.984,5.113 c 0,0.09 0.351,0.36 1.066,0.811 0.715,0.464 1.711,0.889 3,1.275 1.277,0.399 2.811,0.605 4.581,0.618 3.62,0 6.233,-0.67 7.838,-2.022 1.617,-1.352 2.426,-3.129 2.426,-5.319 v -18.468 z m -49.139,0 V 5.937 h 6.608 V 3.838 c 1.359,1.506 3.445,2.253 6.268,2.253 1.992,0 3.386,-0.399 4.195,-1.185 0.808,-0.798 1.277,-1.455 1.417,-1.983 0.012,0.026 0.235,0.309 0.692,0.85 0.445,0.541 1.113,1.031 2.003,1.481 0.879,0.438 1.992,0.696 3.363,0.76 2.496,0 4.382,-0.631 5.636,-1.88 1.253,-1.262 1.874,-2.898 1.874,-4.907 v -19.022 h -5.061 v 18.391 c 0,2.318 -1.266,3.477 -3.797,3.477 -1.323,-0.103 -2.273,-0.631 -2.835,-1.584 -0.562,-0.966 -0.902,-1.751 -1.019,-2.356 v -17.928 h -5.062 v 18.391 c 0,0.992 -0.304,1.829 -0.925,2.486 -0.621,0.656 -1.582,0.991 -2.883,0.991 -1.394,-0.154 -2.378,-0.734 -2.917,-1.725 -0.551,-1.005 -0.867,-1.816 -0.949,-2.447 v -17.696 z m -24.687,0 v 36.009 h 6.538 V -4.199 l 10.627,10.136 h 5.483 l -9.982,-9.183 11.247,-16.549 h -7.182 l -8.424,12.287 -1.769,-1.778 v -10.509 z m -12.08,22.641 c -3.198,-0.116 -4.792,-2.666 -4.792,-7.65 h 10.194 c 0,5.1 -1.805,7.65 -5.402,7.65 m -4.792,-11.063 c 0.106,-1.352 0.527,-3.065 1.266,-5.138 0.749,-2.074 2.108,-3.156 4.077,-3.259 2.402,0 4.276,0.335 5.636,1.005 1.37,0.67 2.249,1.236 2.659,1.687 l -0.996,-4.469 c 0,-0.27 -0.679,-0.618 -2.038,-1.043 -1.36,-0.438 -3.094,-0.657 -5.203,-0.657 -0.831,0 -1.488,0.026 -1.956,0.064 -3.41,0.271 -5.906,1.353 -7.487,3.233 -1.582,1.88 -2.39,4.907 -2.426,9.054 0,4.752 0.903,8.242 2.695,10.457 1.805,2.215 4.441,3.336 7.921,3.374 4.183,0 7.006,-1.21 8.494,-3.618 1.277,-2.01 1.91,-4.714 1.91,-8.127 0,-0.644 -0.012,-1.185 -0.047,-1.623 -0.035,-0.45 -0.07,-0.759 -0.094,-0.94 z m -16.661,4.959 h -11.037 v -16.537 h -7.452 v 36.009 h 7.452 V 1.223 h 11.037 v 14.991 h 7.381 v -36.009 h -7.381 z m -60.469,-16.537 v 36.009 h 6.538 V -4.199 l 10.626,10.136 h 5.484 l -9.983,-9.183 11.248,-16.549 h -7.182 l -8.424,12.287 -1.769,-1.778 V -19.795 Z M -342.02,0 v -19.795 h -4.92 V -0.94 c 0,2.163 -1.5,3.245 -4.5,3.245 -1.464,-0.193 -2.507,-0.683 -3.151,-1.494 -0.633,-0.824 -1.008,-1.481 -1.137,-1.983 v -18.623 h -6.608 V 5.937 h 6.608 V 3.851 c 0.094,0.064 0.398,0.283 0.938,0.682 0.527,0.386 1.288,0.747 2.261,1.069 0.984,0.322 2.109,0.489 3.409,0.489 2.437,0 4.23,-0.618 5.378,-1.841 1.148,-1.224 1.722,-2.64 1.722,-4.25 m -32.888,-15.777 c 2.144,0.644 3.222,1.675 3.222,3.091 v 5.873 c -0.012,-0.039 -0.094,-0.219 -0.246,-0.541 -0.141,-0.322 -0.48,-0.631 -1.008,-0.953 -0.527,-0.309 -1.324,-0.541 -2.402,-0.683 -1.827,-0.27 -3.233,-0.721 -4.194,-1.339 -0.961,-0.631 -1.441,-1.687 -1.441,-3.194 0.152,-1.751 1.418,-2.627 3.819,-2.627 0.715,0 1.465,0.129 2.25,0.373 m 3.222,-4.018 v 2.705 c -0.187,-0.477 -0.797,-1.056 -1.839,-1.739 -1.055,-0.695 -2.824,-1.043 -5.331,-1.043 -2.145,0.09 -3.925,0.696 -5.343,1.816 -1.418,1.12 -2.144,2.885 -2.179,5.293 0,2.589 0.843,4.533 2.53,5.834 1.687,1.301 4.218,2.087 7.593,2.357 1.558,0.142 2.753,0.579 3.597,1.314 0.843,0.734 1.265,1.558 1.265,2.472 0,0.94 -0.387,1.739 -1.16,2.396 -0.773,0.669 -1.816,1.004 -3.128,1.004 -2.719,0 -4.827,-0.553 -6.327,-1.648 -1.512,-1.108 -2.496,-2.022 -2.964,-2.769 l 0.984,5.113 c 0,0.09 0.351,0.36 1.066,0.811 0.715,0.464 1.711,0.889 2.999,1.275 1.277,0.399 2.812,0.605 4.581,0.618 3.621,0 6.234,-0.67 7.839,-2.022 1.617,-1.352 2.425,-3.129 2.425,-5.319 v -18.468 z m -23.14,27.045 c -0.234,2.975 -1.851,4.469 -4.839,4.469 h -6.761 V 1.223 h 6.539 c 3.374,0 5.061,2.009 5.061,6.027 m -4.499,-22.55 c 3.468,0 5.202,2.073 5.202,6.233 0,1.868 -0.516,3.297 -1.535,4.302 -1.019,1.004 -2.32,1.507 -3.867,1.507 h -6.901 V -15.3 Z m 0.492,31.514 c 6.374,0 9.561,-2.859 9.561,-8.577 0,-3.413 -0.867,-5.667 -2.613,-6.761 -1.746,-1.108 -3.199,-1.662 -4.347,-1.662 5.425,-0.579 8.143,-3.464 8.143,-8.654 -0.058,-4.006 -1.043,-6.736 -2.964,-8.191 -1.91,-1.443 -4.441,-2.164 -7.569,-2.164 h -15.255 v 36.009 z"
             style="fill:#1f488c;fill-opacity:1;fill-rule:evenodd;stroke:none"
             id="path808" /></g></g></g></g></svg>
