<?xml version="1.0" encoding="UTF-8" standalone="no"?>
<svg
   xmlns:dc="http://purl.org/dc/elements/1.1/"
   xmlns:cc="http://creativecommons.org/ns#"
   xmlns:rdf="http://www.w3.org/1999/02/22-rdf-syntax-ns#"
   xmlns:svg="http://www.w3.org/2000/svg"
   xmlns="http://www.w3.org/2000/svg"
   version="1.1"
   id="svg854"
   xml:space="preserve"
   width="793.33331"
   height="1122.6667"
   viewBox="0 0 793.33331 1122.6667"><metadata
     id="metadata860"><rdf:RDF><cc:Work
         rdf:about=""><dc:format>image/svg+xml</dc:format><dc:type
           rdf:resource="http://purl.org/dc/dcmitype/StillImage" /><dc:title></dc:title></cc:Work></rdf:RDF></metadata><defs
     id="defs858"><clipPath
       clipPathUnits="userSpaceOnUse"
       id="clipPath870"><path
         d="M 0,842 H 595 V 0 H 0 Z"
         id="path868" /></clipPath></defs><g
     id="g862"
     transform="matrix(1.3333333,0,0,-1.3333333,0,1122.6667)"><g
       id="g864"><g
         id="g866"
         clip-path="url(#clipPath870)"><g
           id="g872"
           transform="translate(82.7858,568.2342)"><path
             d="m 0,0 -0.175,-74.991 9.972,-35.376 c 4.711,-14.266 14.216,-33.97 22.576,-46.416 11.301,-16.824 16.707,-23.599 31.049,-37.943 10.694,-10.695 25.452,-22.227 38.549,-30.442 5.128,-3.216 9.306,-5.187 14.767,-8.23 9.241,-5.147 21.748,-10.196 32.282,-13.713 17.103,-5.709 30.098,-6.595 36.42,-8.574 0.167,-0.052 0.499,-0.146 0.716,-0.283 5.618,0 6.117,-1 11.516,-1 L 70.11,-14.624 l 99.599,0.244 c 8.925,-14.663 21.042,-40.239 30.515,-57.539 10.323,-18.853 20.404,-38.25 30.389,-57.606 5.92,-11.474 59.27,-113.297 61.53,-115.44 1.651,0.788 9.647,3.8 11.499,3.995 -3.104,8.047 -10.315,20.608 -14.777,28.707 -5.102,9.262 -10.231,18.763 -14.845,28.152 -9.525,19.383 -20.252,37.869 -29.999,56.973 -14.705,28.824 -31.493,57.867 -45.038,84.998 -4.455,8.925 -10.407,18.778 -14.175,27.761 l 127.332,-0.098 c 2.974,-3.64 8.371,-14.731 10.49,-19.013 7.891,-15.944 69.106,-132.41 72.5,-136.16 0.318,3.287 11.768,19.481 13.817,22.849 16.203,26.635 23.157,54.661 27.623,85.363 6.083,41.817 -4.977,88.159 -23.105,124.767 -20.627,41.655 -62.766,82.381 -105.745,100.229 -19.537,8.113 -37.335,13.885 -58.972,17.018 -4.812,0.697 -13.325,0.616 -16.598,2.13 l -27.996,0.036 c -2.293,-1.113 -17.108,-2.091 -21.004,-2.758 -22.857,-3.915 -34.073,-7.504 -55.565,-16.426 C 102.466,153.131 88.923,141.021 69.022,125.133 61.268,118.943 52.413,108.138 45.944,100.217 38.047,90.55 32.464,82.053 26.124,71.043 17.565,56.177 9.364,37.506 4.964,20.212 L 0.94,2.203 C 0.863,1.954 0.74,1.66 0.663,1.441 Z"
             style="fill:#f3c92f;fill-opacity:1;fill-rule:evenodd;stroke:none"
             id="path874" /></g><g
           id="g876"
           transform="translate(8.9697,237.2757)"><path
             d="M 0,0 -0.415,588.12 586.734,588.188 586.379,0 H 424.952 l -47.494,89.989 c -3.104,8.046 -10.315,20.607 -14.777,28.706 -5.102,9.263 -10.23,18.764 -14.845,28.153 -9.525,19.382 -20.252,37.868 -29.999,56.972 -14.705,28.825 -31.493,57.867 -45.038,84.999 -4.455,8.925 -10.407,18.778 -14.174,27.76 l 127.331,-0.097 c 2.974,-3.64 8.371,-14.731 10.49,-19.014 7.891,-15.944 69.106,-132.409 72.5,-136.16 3.096,-6.992 41.328,-80.364 43.995,-82.318 -2.676,11.485 -1,156.256 -1,180.977 0,13.989 2.099,33.759 0.853,44.849 -1.849,16.47 -0.853,114.088 -0.853,135.129 0,14.608 -0.702,56.231 0.159,69.059 0.277,4.117 1.681,4.767 -3.194,4.74 l -126.374,-0.595 c -0.06,0.003 -2.051,0.122 -2.127,0.127 -10.162,0.644 -17.837,-0.213 -24.226,-0.044 l -35.207,0.256 c -4.336,-0.022 -6.574,1.063 -15.006,0.176 l -27.996,0.036 -114.098,0.05 c -2.945,0.009 -4.105,-0.375 -6.294,-0.428 -7.973,-0.194 -78.798,-0.501 -83.58,0.613 L 73.816,330.958 73.641,255.968 73.996,74.991 h 185.976 c 3.749,-5.599 6.427,-11.853 9.666,-18.332 L 296.968,0 Z m 271.488,73.991 c 3.237,-6.972 6.376,-11.772 9.815,-18.665 L 305.545,9.577 C 307.344,6.579 309.177,3.388 309.966,0 h 100.988 l -22.335,42.658 c -3.872,7.81 -7.398,13.743 -11.324,21.671 -2.105,4.252 -3.622,6.249 -5.685,10.313 -2.084,4.107 -3.66,7.579 -5.651,11.352 -2.26,2.143 -55.61,103.965 -61.529,115.439 -9.986,19.357 -20.067,38.753 -30.39,57.607 -9.473,17.3 -21.59,42.876 -30.515,57.539 l -99.599,-0.244 z"
             style="fill:#2e3092;fill-opacity:1;fill-rule:evenodd;stroke:none"
             id="path878" /></g><g
           id="g880"
           transform="translate(8.9697,237.2757)"><path
             d="M 0,0 -0.415,588.12 586.734,588.188 586.379,0 c 1.767,1.794 0.835,-0.034 1.478,3.047 l 0.074,585.879 H -1.995 L -2.07,3.962 C -1.416,0.209 -2.453,1.937 0,0"
             style="fill:#7c72b3;fill-opacity:1;fill-rule:evenodd;stroke:none"
             id="path882" /></g><g
           id="g884"
           transform="translate(335.9336,73.2963)"><path
             d="m 0,0 c 8.296,0 15.991,5.191 18.446,11.55 3.04,7.874 0.568,27.936 2.93,39.064 0.642,3.025 2.69,6.762 4.032,9.967 l 4.993,10.005 c 4.631,8.357 39.459,33.769 53.838,48.149 4.131,4.13 10.424,11.352 14.749,14.248 -0.178,-7.965 -6.219,-13.135 -9.573,-17.424 L 76.842,103.135 c -1.945,-1.556 -2.748,-2.732 -4.611,-4.388 -1.932,-1.718 -2.496,-1.823 -4.462,-3.536 L 28.996,64.992 c 0,-6.413 -0.874,-8.672 -1.032,-13.966 C 27.82,46.218 28.329,40.773 27.944,36.048 27.259,27.617 25.91,17.836 23.403,10.593 21.185,4.186 16.309,-4.312 12.017,-8.018 c -4.432,-3.828 -12.797,-7.98 -21.016,-7.98 -22.404,0 -13.208,17.588 -12.998,26.996 h 3 C -18.997,-0.744 -15.756,0 0,0 m 4.999,-34.996 c 1.136,4.253 3.731,4.748 6.992,7.007 23.468,16.259 24.884,36.317 43.984,49.004 11.616,7.715 8.661,2.706 21.945,5.052 4.126,0.728 4.78,3.667 7.026,5.972 3.712,3.811 0.098,0.558 4.718,2.281 4.901,1.828 2.039,2.126 5.35,4.649 l 10.692,6.306 c 3.06,2.201 10.206,16.466 13.279,18.717 7.55,-5.056 5.883,-11.2 2,-16.998 h -8.999 C 107.719,38.929 101.352,34.141 93.67,29.314 90.21,27.14 90.321,26.439 86.682,24.304 82.432,21.812 82.993,22.383 80.116,18.871 68.427,4.595 66.066,14.848 55.007,8.985 47.316,4.907 39.198,-7.847 32.867,-15.869 28.261,-21.706 14.239,-34.79 4.999,-34.996 m -145.981,12.999 c 12.681,0 24.016,8.137 27.164,17.83 2.832,8.719 -0.485,32.676 8.831,35.163 l -1.835,-25.162 c -2.192,-12.908 -8.244,-26.086 -17.393,-34.6 -3.538,-3.292 -11.362,-8.23 -17.767,-8.23 -36.465,0 -15.764,47.464 -8.999,51.994 -0.14,-6.283 -18.487,-36.995 9.999,-36.995 M -320.96,-5 c 22.144,0 9.361,22.541 19.664,50.328 1.601,4.318 0.642,4.68 4.333,5.666 -1.355,-5.816 -1.999,-13.785 -1.999,-20.998 0,-8.643 -1.192,-12.323 5.999,-13.998 4.623,4.385 1.845,4.955 5.999,7.999 1.444,-3.122 -2.818,-29.823 -15.998,-20.997 -0.786,-3.374 -3.002,-7.353 -4.767,-10.231 -7.297,-11.893 -18.23,-5.95 -18.23,-0.768 0,3.792 1.57,3.535 2.914,7.084 0.867,2.289 0.851,3.625 1.279,6.721 0.751,5.435 0.491,9.734 0.795,16.203 0.205,4.369 4.234,22.218 8.01,24.985 0,-10.976 -0.858,-18.908 -1.829,-28.166 -2.135,-20.336 -3.96,-14.344 -6.17,-23.828 m 510.936,55.994 c 5.62,1.5 32.413,24.879 38.995,29.996 8.352,6.491 30.998,25.999 31.996,37.995 -5.189,-3.475 -12.077,-11.99 -17.235,-16.76 L 215.664,78.299 C 208.046,71.86 190.745,60.237 189.976,50.994 M 213.973,3.999 c 0,-9.88 -1.303,-17.997 8.999,-17.997 5.97,0 11.876,17.452 9.999,21.997 -3.891,-1.571 -0.484,0.482 -2.743,-3.256 -5.04,-8.342 -9.169,-1.997 -9.94,3.636 -0.805,5.876 3.684,30.213 3.684,40.615 -6.299,-4.616 -9.999,-32.691 -9.999,-44.995 m -430.946,5 c 0,6.496 5.366,13.839 8.999,16.997 12.104,-2.819 7.226,-16.517 3.607,-25.603 -4.026,-10.111 -13.054,-14.391 -23.604,-14.391 5.916,8.834 12.382,4.606 19.997,18.997 -4.622,0 -8.999,-0.617 -8.999,4 m 40.995,-4 c -6.801,-12.852 -14.895,-11.378 -19.997,-18.997 18.735,0 26.996,13.926 26.996,31.996 0,5.166 -2.648,6.226 -5.999,7.998 -5.176,-2.738 -6.971,-5.92 -9.199,-11.883 -2.718,-7.274 -1.451,-9.114 8.199,-9.114 m -100.987,5 c 0,4.276 3.688,12.659 9.999,15.997 3.35,-1.772 5.999,-2.832 5.999,-7.998 0,-17.315 -7.491,-31.996 -26.997,-31.996 5.485,8.191 12.803,5.4 19.998,18.997 -6.446,0 -8.999,-0.463 -8.999,5 m 187.976,-23.997 c 2.177,8.153 12.709,4.14 21.998,22.997 7.993,16.227 11.22,10.406 16.581,16.431 1.853,2.084 2.833,6.369 4.47,4.732 1.945,-1.946 -3.771,-13.453 -5.77,-15.448 -4.93,-4.921 -8.483,-1.858 -12.336,-9.66 -6.638,-13.444 -3.931,-19.052 -24.943,-19.052 m -175.977,0 c 20.447,0 18.319,6.003 24.954,19.04 5.111,10.044 18.04,5.563 18.04,25.954 -4.271,-2.86 -2.159,-3.269 -4.912,-6.087 -5.643,-5.774 -7.666,1.208 -16.417,-16.579 -5.06,-10.286 -6.431,-9.943 -16.495,-16.5 -2.918,-1.902 -4.199,-2.191 -5.17,-5.828 M 64.992,70.991 c -3.3,0.881 -1.16,0.177 -3.786,2.214 -2.238,1.737 -1.563,1.383 -4.213,2.785 -2.339,-3.493 -5.876,-8.467 -6,-13.998 5.041,-1.346 1.959,-2.654 7,-3.999 3.591,2.404 3.002,3.224 4.999,6.999 2.188,-1.465 4.035,-3.293 6,-5 9.611,6.437 9.018,15.664 -1.001,17.998 -1.011,-3.788 -1.956,-2.521 -2.999,-6.999 M -55.993,-32.996 c -6.02,1.608 -1.367,3.829 -8.999,3.999 -1.17,-5.024 -3.708,-5.458 -4.999,-10.998 2.339,-3.493 3.268,-4.025 6.999,-5.999 3.082,2.063 4.029,2.835 4.999,6.999 3.886,-1.038 3.729,-2.809 6.999,-5 7.531,7.143 8.67,12.193 0,17.998 -2.444,-1.637 -4.135,-3.764 -4.999,-6.999 m 12.998,21.997 c 11.209,2.993 9.999,44.231 9.999,51.994 -9.76,-7.151 -7.538,-28.923 -7.991,-38.003 -0.249,-4.989 -1.9,-9.14 -2.008,-13.991 m -54.993,0 c 9.678,6.481 8.462,34.147 9.065,46.105 0.157,3.116 1.233,4.955 -0.354,5.255 -3.039,0.577 -7.704,-16.297 -7.754,-22.321 -0.043,-5.301 0.219,-10.798 0.079,-16.076 -0.137,-5.136 -2.554,-9.679 -1.036,-12.963 M -140.982,1.999 -132.983,-4 c 12.097,8.101 5.758,19.352 -2,19.998 -1.27,-5.453 -4.729,-8.545 -5.999,-13.999 m -105.987,41.995 c 0,-3.022 5.32,-5.375 7.999,-5.999 5.7,8.512 6.591,10.166 1.985,14.983 -1.543,1.614 -2.484,2.347 -4.985,3.015 -1.357,-2.565 -4.999,-8.731 -4.999,-11.999 m 464.942,-83.989 c 0,-3.551 5.083,-5.912 8.998,-5.999 0.558,2.086 10.038,13.517 -2.999,16.997 -1.906,-1.396 -5.999,-8.007 -5.999,-10.998 M 94.988,83.989 c 0.169,0.632 9.146,13.936 -3.999,16.998 L 84.644,88.159 c 4.313,-2.27 4.187,-3.055 7.344,-5.169 2.647,0.701 0.823,-0.08 3,0.999 -0.613,-2.629 -0.909,-2.938 -2,-4.999 -3.27,2.19 -3.113,3.962 -6.999,4.999 -2.683,-1.965 -6.075,-9.032 -6.999,-12.998 3.229,-0.862 4.808,-3.095 6.999,-4.999 3.176,2.126 4.998,3.7 5.999,7.999 3.271,-2.191 3.114,-3.962 7,-5 9.428,6.314 5.556,21.397 -4,14.998 M 197.975,30.996 c 2.304,4.8 2.597,9.051 6.999,11.998 13.485,-3.6 2.454,-15.826 1,-17.997 z m -428.946,29.996 c 0,-1.918 5.093,-4.49 6.999,-4.999 6.884,4.609 8.782,14.719 -1,16.998 -3.037,-2.034 -5.999,-7.061 -5.999,-11.999 m -58.993,-7.999 c 0.977,-3.657 1.055,-2.095 3,-4.999 -2.549,-1.707 -3.122,-1.714 -3.999,-5 l 16.998,11.999 c -6.807,-0.152 -7.376,-3.944 -10.999,1 5.808,2.787 1.908,-1.355 6.999,1 -2.523,9.449 -8.65,-1.757 -11.999,-4 M 1,24.997 C 1,21.753 3.851,22.391 0.607,20.458 -0.644,19.713 -2.722,20.09 -4.999,18.997 -2.862,16.08 -4.359,17.776 -1,15.998 c 3.885,2.055 6.622,2.534 4,7.999 4.141,1.987 4.542,-0.492 4.999,4.999 C 3.516,28.896 1,26.699 1,24.997 M 178.977,12.998 c 0,-7.694 -1.256,-15.137 0.569,-21.428 1.102,-3.799 1.581,-2.806 3.431,-5.568 7.988,0 8.472,0.377 11.525,6.472 2.432,4.854 3.473,8.629 3.473,15.525 h -2 c -0.948,-4.07 -1.03,-4.058 -2.999,-6.999 -5.694,0.127 -7.303,2.193 -7.928,7.072 -1.205,9.396 3.931,33.35 5.928,41.921 -3.627,-0.968 -5.21,-5.223 -7.617,-11.379 -3.531,-9.024 -1.992,-24.275 -26.505,-33.488 -12.719,-4.78 -42.295,-8.707 -53.079,-5.338 -11.111,3.471 -3.07,8.417 -9.787,10.211 -0.276,-12.382 -11.3,-34.993 40.587,-24.589 10.597,2.125 18.681,4.795 26.232,9.763 13.328,8.769 13.83,14.645 18.17,17.825"
             style="fill:#2e3092;fill-opacity:1;fill-rule:evenodd;stroke:none"
             id="path886" /></g></g></g></g></svg>
