<?xml version="1.0" encoding="UTF-8" standalone="no"?>
<svg
   xmlns:dc="http://purl.org/dc/elements/1.1/"
   xmlns:cc="http://creativecommons.org/ns#"
   xmlns:rdf="http://www.w3.org/1999/02/22-rdf-syntax-ns#"
   xmlns:svg="http://www.w3.org/2000/svg"
   xmlns="http://www.w3.org/2000/svg"
   xmlns:sodipodi="http://sodipodi.sourceforge.net/DTD/sodipodi-0.dtd"
   xmlns:inkscape="http://www.inkscape.org/namespaces/inkscape"
   version="1.1"
   id="svg932"
   xml:space="preserve"
   width="793.33331"
   height="1122.6667"
   viewBox="0 0 793.33331 1122.6667"
   sodipodi:docname="iran-zamin.svg"
   inkscape:version="1.0.1 (3bc2e813f5, 2020-09-07)"><sodipodi:namedview
     pagecolor="#ffffff"
     bordercolor="#666666"
     borderopacity="1"
     objecttolerance="10"
     gridtolerance="10"
     guidetolerance="10"
     inkscape:pageopacity="0"
     inkscape:pageshadow="2"
     inkscape:window-width="1848"
     inkscape:window-height="1009"
     id="namedview932"
     showgrid="false"
     inkscape:zoom="0.71424799"
     inkscape:cx="396.66666"
     inkscape:cy="569.98617"
     inkscape:window-x="72"
     inkscape:window-y="34"
     inkscape:window-maximized="1"
     inkscape:current-layer="svg932" /><metadata
     id="metadata938"><rdf:RDF><cc:Work
         rdf:about=""><dc:format>image/svg+xml</dc:format><dc:type
           rdf:resource="http://purl.org/dc/dcmitype/StillImage" /><dc:title /></cc:Work></rdf:RDF></metadata><defs
     id="defs936"><clipPath
       clipPathUnits="userSpaceOnUse"
       id="clipPath948"><path
         d="M 0,842 H 595 V 0 H 0 Z"
         id="path946" /></clipPath></defs><g
     id="g940"
     transform="matrix(1.9895306,0,0,-1.9895306,-195.30939,1398.9174)"><g
       id="g942"><g
         id="g944"
         clip-path="url(#clipPath948)"><g
           id="g950"
           transform="translate(176.9672,591.4295)"><path
             d="M 0,0 C -58.491,-137.488 49.102,-241.535 166.814,-191.053 20.072,-314.988 -125.61,-126.814 0,0"
             style="fill:#4c2f92;fill-opacity:1;fill-rule:evenodd;stroke:none"
             id="path952" /></g><g
           id="g954"
           transform="translate(175.7568,355.1289)"><path
             d="M 0,0 C 138.442,-56.195 240.684,53.115 188.25,169.97 314.61,25.312 128.887,-123.482 0,0"
             style="fill:#4c2f92;fill-opacity:1;fill-rule:evenodd;stroke:none"
             id="path956" /></g><g
           id="g958"
           transform="translate(408.9217,354.6879)"><path
             d="M 0,0 C 57.601,137.863 -50.662,241.213 -168.045,189.971 -22.107,314.851 124.788,127.623 0,0"
             style="fill:#4c2f92;fill-opacity:1;fill-rule:evenodd;stroke:none"
             id="path960" /></g><g
           id="g962"
           transform="translate(419.9848,578.6374)"><path
             d="M 0,0 C -132.492,69.065 -244.636,-30.061 -203.515,-151.36 -315.593,4.625 -116.601,135.144 0,0"
             style="fill:#4c2f92;fill-opacity:1;fill-rule:evenodd;stroke:none"
             id="path964" /></g><g
           id="g966"
           transform="translate(292.5655,411.4636)"><path
             d="m 0,0 c 33.721,0 61.224,27.503 61.224,61.224 0,33.721 -27.503,61.224 -61.224,61.224 -33.721,0 -61.224,-27.503 -61.224,-61.224 C -61.224,27.503 -33.721,0 0,0"
             style="fill:#d0108c;fill-opacity:1;fill-rule:evenodd;stroke:none"
             id="path968" /></g><g
           id="g970"
           transform="translate(453.5062,265.2973)"><path
             d="m 0,0 v -1.8 c 0,-3.279 0.88,-5.559 2.64,-6.839 1.039,-0.72 2.279,-1.079 3.719,-1.079 1.12,0 2.119,1.239 2.999,3.719 0.16,0.56 0.34,1.2 0.54,1.92 0.2,0.719 0.46,1.079 0.78,1.079 0.4,0 0.6,-0.4 0.6,-1.199 0,-0.32 -0.06,-0.8 -0.18,-1.44 -0.12,-0.64 -0.22,-1.16 -0.3,-1.56 -1.04,-4.719 -2.36,-8.378 -3.959,-10.978 -1.6,-2.6 -3.24,-3.899 -4.919,-3.899 -2.64,0 -4.46,1.2 -5.459,3.599 -1,2.4 -1.5,5.439 -1.5,9.118 z"
             style="fill:#4c2f92;fill-opacity:1;fill-rule:evenodd;stroke:none"
             id="path972" /></g><g
           id="g974"
           transform="translate(461.3837,223.7709)"><path
             d="m 0,0 c 0.16,-0.8 0.1,-1.66 -0.18,-2.579 -0.28,-0.92 -0.72,-1.96 -1.32,-3.12 -0.6,-1.16 -1.42,-2.22 -2.46,-3.179 -0.639,-0.64 -1.159,-0.96 -1.559,-0.96 -0.24,0 -0.78,0.36 -1.62,1.08 -0.84,0.72 -1.6,1.339 -2.279,1.859 -0.681,0.52 -1.26,1.02 -1.74,1.5 -0.48,0.48 -0.72,0.88 -0.72,1.2 0.48,1.039 0.84,1.839 1.08,2.399 0.8,1.76 1.399,3.04 1.799,3.839 0.72,1.2 1.44,2.44 2.16,3.72 0.16,0.24 0.4,0.6 0.72,1.08 0.24,-0.24 0.48,-0.44 0.72,-0.6 0.24,-0.16 0.56,-0.36 0.96,-0.6 1.679,-1.36 2.799,-2.4 3.359,-3.12 C -0.52,1.799 -0.16,0.96 0,0"
             style="fill:#4c2f92;fill-opacity:1;fill-rule:evenodd;stroke:none"
             id="path976" /></g><g
           id="g978"
           transform="translate(453.5853,265.2973)"><path
             d="m 0,0 c -0.64,-2.08 -1.28,-4.119 -1.92,-6.119 -0.879,-2.16 -1.919,-3.24 -3.119,-3.24 0,0.961 0.44,5.14 1.32,12.538 0.879,7.399 1.599,13.058 2.159,16.977 0.08,0.32 0.72,1.96 1.92,4.919 1.2,2.96 2.159,5.199 2.879,6.719 0.16,0.08 0.32,0.16 0.48,0.24 0.08,-0.24 0.04,-0.88 -0.12,-1.92 L 3.12,26.995 1.08,12.357 C 0.68,9.398 0.4,6.839 0.24,4.679 0.08,2.52 0,0.96 0,0"
             style="fill:#4c2f92;fill-opacity:1;fill-rule:evenodd;stroke:none"
             id="path980" /></g><g
           id="g982"
           transform="translate(430.4109,265.2973)"><path
             d="m 0,0 v -1.8 c 0,-3.279 0.88,-5.559 2.64,-6.839 1.039,-0.72 2.279,-1.079 3.719,-1.079 1.119,0 2.119,1.239 2.999,3.719 0.16,0.56 0.34,1.2 0.54,1.92 0.2,0.719 0.46,1.079 0.78,1.079 0.4,0 0.6,-0.4 0.6,-1.199 0,-0.32 -0.06,-0.8 -0.18,-1.44 -0.12,-0.64 -0.22,-1.16 -0.3,-1.56 -1.04,-4.719 -2.36,-8.378 -3.959,-10.978 -1.6,-2.6 -3.24,-3.899 -4.919,-3.899 -2.64,0 -4.46,1.2 -5.459,3.599 -1,2.4 -1.5,5.439 -1.5,9.118 z"
             style="fill:#4c2f92;fill-opacity:1;fill-rule:evenodd;stroke:none"
             id="path984" /></g><g
           id="g986"
           transform="translate(447.1506,289.5355)"><path
             d="m 0,0 c 0.16,-0.8 0.1,-1.66 -0.18,-2.579 -0.28,-0.92 -0.72,-1.96 -1.32,-3.12 -0.6,-1.159 -1.42,-2.219 -2.459,-3.179 -0.64,-0.64 -1.16,-0.96 -1.56,-0.96 -0.24,0 -0.78,0.36 -1.62,1.08 -0.84,0.72 -1.6,1.34 -2.279,1.86 -0.68,0.519 -1.26,1.019 -1.74,1.499 -0.48,0.48 -0.72,0.88 -0.72,1.2 0.48,1.04 0.84,1.84 1.08,2.399 0.8,1.76 1.4,3.04 1.799,3.84 0.72,1.2 1.44,2.439 2.16,3.719 0.16,0.24 0.4,0.6 0.72,1.08 0.24,-0.24 0.48,-0.44 0.72,-0.6 0.24,-0.16 0.56,-0.36 0.96,-0.6 C -2.759,4.279 -1.64,3.24 -1.08,2.52 -0.52,1.8 -0.16,0.96 0,0"
             style="fill:#4c2f92;fill-opacity:1;fill-rule:evenodd;stroke:none"
             id="path988" /></g><g
           id="g990"
           transform="translate(430.1113,265.2973)"><path
             d="m 0,0 c -0.24,-0.96 -0.48,-1.96 -0.72,-3 -0.24,-1.039 -0.62,-2.139 -1.14,-3.299 -0.52,-1.16 -1.1,-2.02 -1.74,-2.58 -0.639,-0.56 -1.119,-0.719 -1.439,-0.48 0,1.84 0.14,3.94 0.42,6.3 0.28,2.359 0.46,3.899 0.54,4.619 l 0.119,1.319 c 0,0.24 -0.039,0.4 -0.119,0.48 -0.08,0.08 -0.241,0 -0.48,-0.24 C -4.879,2.72 -5.399,2 -6.119,0.96 c -1.52,-2.08 -2.64,-3.6 -3.36,-4.559 -2.399,-3.04 -5.398,-5.88 -8.998,-8.519 -3.599,-2.639 -7.438,-4.719 -11.518,-6.239 -4.079,-1.52 -8.698,-2.82 -13.857,-3.899 -5.159,-1.08 -10.538,-1.62 -16.137,-1.62 h -1.8 c -3.439,0 -6.239,0.2 -8.398,0.6 -3.439,0.64 -5.779,1.7 -7.019,3.179 -1.24,1.48 -1.86,3.74 -1.86,6.779 0,2.56 0.18,5.199 0.54,7.919 0.36,2.719 0.86,4.079 1.5,4.079 0.24,0 0.42,-0.78 0.54,-2.34 0.12,-1.559 0.7,-2.939 1.739,-4.139 2.16,-2.399 7.399,-3.599 15.718,-3.599 4.559,0 8.198,0.12 10.918,0.36 13.117,1.12 23.835,4.279 32.154,9.478 3.919,2.32 6.998,5.079 9.238,8.279 1.68,2.479 3,5.439 3.959,8.878 l 1.68,6.839 c 0.16,0.72 1.04,2.759 2.64,6.119 1.039,2.159 1.719,3.539 2.039,4.139 0.32,0.6 0.72,1.14 1.2,1.62 v -1.8 c -0.4,-1.76 -0.68,-3.12 -0.84,-4.079 L 1.44,15.837 C 0.96,12.397 0.6,9.258 0.36,6.419 0.12,3.579 0,1.44 0,0"
             style="fill:#4c2f92;fill-opacity:1;fill-rule:evenodd;stroke:none"
             id="path992" /></g><g
           id="g994"
           transform="translate(439.526,308.4293)"><path
             d="m 0,0 c 1.759,1.92 5.519,5.199 11.278,9.839 5.119,4.079 10.238,8.198 15.357,12.357 3.679,3.04 7.198,6.119 10.558,9.238 2.399,2.24 5.559,5.28 9.478,9.119 5.999,5.759 8.999,8.718 8.999,8.878 0,-0.4 -0.08,-0.76 -0.241,-1.08 -0.239,-1.12 -0.999,-2.799 -2.279,-5.039 -1.28,-2.239 -2.36,-3.919 -3.24,-5.039 -1.279,-1.68 -2.659,-3.339 -4.139,-4.979 -1.479,-1.64 -2.659,-2.899 -3.539,-3.779 -1.2,-1.2 -3.24,-3.08 -6.119,-5.639 -2.16,-1.92 -5.399,-4.719 -9.718,-8.399 C 23.355,12.918 20.636,10.718 18.236,8.879 15.037,6.399 11.837,3.959 8.638,1.56 L 0.36,-4.919 c -1.2,-0.96 -2.34,-1.86 -3.419,-2.699 -1.08,-0.84 -1.7,-1.14 -1.86,-0.9 0.639,1.76 1.359,3.359 2.159,4.799 C -1.96,-2.28 -1.04,-1.04 0,0"
             style="fill:#4c2f92;fill-opacity:1;fill-rule:evenodd;stroke:none"
             id="path996" /></g><g
           id="g998"
           transform="translate(335.7179,288.3328)"><path
             d="M 0,0 C 0.24,0.48 0.6,1.08 1.08,1.8 1.16,1.96 1.36,2.2 1.68,2.52 1.92,2.12 2.039,1.8 2.039,1.56 L 1.44,-2.519 0.72,-9.238 -0.6,-19.916 c -0.32,-2.4 -0.7,-4.38 -1.14,-5.939 -0.44,-1.56 -1.02,-3.219 -1.739,-4.979 l -2.76,-5.759 c -1.2,-2.08 -2.059,-3.46 -2.579,-4.139 -0.521,-0.681 -0.98,-1.02 -1.38,-1.02 l -0.36,0.839 c 0.64,2.16 1.24,4.26 1.799,6.299 0.56,2.04 0.96,3.62 1.2,4.74 0.8,3.679 1.36,6.938 1.68,9.778 0.32,2.839 0.6,5.379 0.84,7.618 l 1.32,3.719 z"
             style="fill:#4c2f92;fill-opacity:1;fill-rule:evenodd;stroke:none"
             id="path1000" /></g><g
           id="g1002"
           transform="translate(322.579,279.5743)"><path
             d="m 0,0 c -1.92,-6.958 -4.119,-11.037 -6.599,-12.237 l -4.559,-2.28 c -0.4,-0.16 -0.94,-0.5 -1.619,-1.02 -0.68,-0.52 -1.18,-0.98 -1.5,-1.38 -0.72,-0.959 -1.48,-2.359 -2.28,-4.199 -1.36,-3.519 -2.399,-6.039 -3.119,-7.558 -1.28,-2.72 -3.2,-4.64 -5.759,-5.76 -0.96,-0.399 -2.56,-0.819 -4.799,-1.259 -2.24,-0.44 -3.88,-0.66 -4.92,-0.66 -0.959,-0.08 -1.599,0.16 -1.919,0.72 -0.08,0.32 0.32,0.82 1.2,1.499 0.88,0.68 1.959,1.46 3.239,2.34 0.16,0.16 1.56,1.08 4.199,2.76 1.68,1.119 2.64,1.759 2.88,1.919 2.24,1.76 3.799,3.16 4.679,4.199 0.32,0.4 1.26,2.36 2.82,5.88 1.559,3.519 2.759,5.838 3.599,6.958 0.84,1.12 2.139,2.24 3.899,3.36 0.32,0.16 1.48,0.759 3.479,1.799 1.44,0.72 2.44,1.32 3,1.8 0.559,0.48 1.28,1.499 2.159,3.059 0.88,1.56 1.48,2.3 1.8,2.22 C 0.28,2.08 0.32,1.36 0,0"
             style="fill:#4c2f92;fill-opacity:1;fill-rule:evenodd;stroke:none"
             id="path1004" /></g><g
           id="g1006"
           transform="translate(318.9115,221.2038)"><path
             d="m 0,0 c 0.16,-0.8 0.1,-1.66 -0.18,-2.579 -0.28,-0.92 -0.72,-1.96 -1.32,-3.12 -0.6,-1.16 -1.42,-2.22 -2.459,-3.18 -0.64,-0.639 -1.16,-0.959 -1.56,-0.959 -0.24,0 -0.78,0.36 -1.62,1.08 -0.84,0.719 -1.6,1.339 -2.279,1.859 -0.68,0.52 -1.26,1.02 -1.74,1.5 -0.48,0.48 -0.72,0.88 -0.72,1.2 0.48,1.039 0.84,1.839 1.08,2.399 0.8,1.76 1.4,3.04 1.799,3.84 0.72,1.2 1.44,2.439 2.16,3.719 0.16,0.24 0.4,0.6 0.72,1.08 0.24,-0.24 0.48,-0.44 0.72,-0.6 0.24,-0.16 0.56,-0.36 0.96,-0.6 C -2.76,4.279 -1.64,3.24 -1.08,2.52 -0.52,1.799 -0.16,0.96 0,0 m -12.358,-0.72 c 0.16,-0.8 0.1,-1.66 -0.18,-2.579 -0.28,-0.92 -0.72,-1.96 -1.32,-3.12 -0.6,-1.16 -1.419,-2.22 -2.459,-3.179 -0.64,-0.64 -1.16,-0.96 -1.56,-0.96 -0.24,0 -0.78,0.36 -1.62,1.08 -0.84,0.72 -1.599,1.339 -2.279,1.859 -0.68,0.52 -1.26,1.02 -1.74,1.5 -0.48,0.48 -0.72,0.88 -0.72,1.2 0.48,1.039 0.84,1.84 1.08,2.399 0.8,1.76 1.4,3.04 1.799,3.84 0.72,1.2 1.44,2.439 2.16,3.719 0.16,0.24 0.4,0.6 0.72,1.08 0.24,-0.24 0.48,-0.44 0.72,-0.6 0.24,-0.16 0.56,-0.36 0.96,-0.6 1.68,-1.36 2.799,-2.399 3.359,-3.12 0.56,-0.719 0.92,-1.559 1.08,-2.519"
             style="fill:#4c2f92;fill-opacity:1;fill-rule:evenodd;stroke:none"
             id="path1008" /></g><g
           id="g1010"
           transform="translate(285.4763,288.3328)"><path
             d="M 0,0 C 0.24,0.48 0.6,1.08 1.08,1.8 1.16,1.96 1.36,2.2 1.68,2.52 1.92,2.12 2.039,1.8 2.039,1.56 L 1.44,-2.519 0.72,-9.238 -0.6,-19.916 c -0.32,-2.4 -0.7,-4.38 -1.14,-5.939 -0.44,-1.56 -1.019,-3.219 -1.739,-4.979 l -2.76,-5.759 c -1.2,-2.08 -2.059,-3.46 -2.579,-4.139 -0.52,-0.681 -0.98,-1.02 -1.38,-1.02 l -0.36,0.839 c 0.64,2.16 1.24,4.26 1.8,6.299 0.559,2.04 0.959,3.62 1.199,4.74 0.8,3.679 1.36,6.938 1.68,9.778 0.32,2.839 0.6,5.379 0.84,7.618 l 1.32,3.719 z"
             style="fill:#4c2f92;fill-opacity:1;fill-rule:evenodd;stroke:none"
             id="path1012" /></g><g
           id="g1014"
           transform="translate(252.0425,256.6587)"><path
             d="m 0,0 c 0.08,-0.32 0.12,-0.76 0.12,-1.32 0,-1.439 -0.48,-2.839 -1.44,-4.199 -1.919,-2.72 -3.319,-4.159 -4.199,-4.319 -0.16,0 -0.52,0.2 -1.079,0.6 -1.84,1.359 -2.8,2.079 -2.88,2.159 -0.8,0.48 -1.54,0.94 -2.219,1.38 -0.681,0.44 -1.06,0.94 -1.14,1.5 l 2.759,6.239 c 0.88,1.52 1.64,2.759 2.28,3.719 0.16,0.24 0.4,0.6 0.72,1.08 0.48,-0.24 0.94,-0.46 1.379,-0.66 0.44,-0.2 0.82,-0.42 1.14,-0.66 1.68,-1.28 2.84,-2.3 3.479,-3.059 C -0.44,1.7 -0.08,0.88 0,0 m 15.357,-6.239 c -0.399,-1.68 -0.7,-2.979 -0.899,-3.899 -0.2,-0.92 -0.5,-1.94 -0.9,-3.059 -0.88,-2.8 -2.12,-5.64 -3.72,-8.519 -1.599,-2.879 -3.439,-5.599 -5.518,-8.158 -3.2,-3.84 -6.6,-6.739 -10.199,-8.699 -3.599,-1.96 -7.598,-2.939 -11.997,-2.939 -5.039,0 -8.899,1.559 -11.578,4.679 -2.68,3.119 -4.019,7.159 -4.019,12.118 0,2.479 0.32,5.159 0.959,8.038 0.64,2.879 1.34,5.259 2.1,7.139 0.76,1.879 1.659,3.859 2.699,5.939 1.36,2.719 2.84,5.479 4.44,8.278 0.639,1.12 1.019,1.74 1.139,1.86 0.12,0.12 0.34,0.14 0.66,0.06 0.16,-0.08 0.18,-0.52 0.06,-1.32 -0.12,-0.8 -0.26,-1.48 -0.42,-2.039 l -3.959,-8.639 c -1.04,-2.639 -1.72,-4.439 -2.04,-5.399 -0.56,-1.76 -0.84,-3.559 -0.84,-5.399 0,-4.719 1.6,-8.118 4.8,-10.198 2.399,-1.6 5.438,-2.4 9.118,-2.4 2.639,0 4.959,0.22 6.959,0.66 1.999,0.44 4.119,1.28 6.358,2.52 2.24,1.24 4.239,2.819 5.999,4.739 1.2,1.28 2.6,3.119 4.199,5.519 0.96,1.599 1.68,3.099 2.16,4.499 0.48,1.4 0.72,3.139 0.72,5.219 l 0.24,8.638 c 0,1.44 0.16,2.76 0.48,3.96 0.32,1.2 0.84,2.719 1.56,4.559 l 2.399,4.679 c 0.48,0.88 0.78,1.42 0.9,1.62 0.12,0.2 0.34,0.5 0.66,0.899 0.4,-0.399 0.56,-0.919 0.48,-1.559 l -0.6,-4.199 -0.6,-5.999 c 0,-2.32 -0.14,-4.359 -0.42,-6.119 -0.28,-1.76 -0.74,-4.119 -1.38,-7.079"
             style="fill:#4c2f92;fill-opacity:1;fill-rule:evenodd;stroke:none"
             id="path1016" /></g><g
           id="g1018"
           transform="translate(198.5604,275.6151)"><path
             d="M 0,0 C 0,-0.96 -0.2,-2.559 -0.6,-4.799 -1,-7.038 -1.4,-8.998 -1.8,-10.678 l -1.439,-5.879 c -0.8,-2.239 -1.44,-3.879 -1.92,-4.919 -0.72,-1.52 -1.38,-2.759 -1.98,-3.719 -0.6,-0.96 -1.22,-1.7 -1.859,-2.22 -0.64,-0.52 -1.72,-1.18 -3.24,-1.98 l -4.319,-1.799 c -0.4,-0.16 -1.34,-0.4 -2.819,-0.72 -1.48,-0.32 -2.42,-0.48 -2.82,-0.48 -0.4,0 -0.64,0.14 -0.72,0.42 -0.08,0.28 0,0.62 0.24,1.02 0.4,0.72 1.42,1.72 3.06,2.999 1.639,1.28 3.259,2.52 4.859,3.72 1.84,1.679 3.199,2.999 4.079,3.959 1.28,1.36 2.48,3 3.599,4.919 0.24,0.4 0.58,1.22 1.02,2.46 0.44,1.239 1.14,3.259 2.1,6.058 l 1.439,4.319 c 0.16,0.64 0.4,1.42 0.72,2.34 0.32,0.92 0.72,1.38 1.2,1.38 C -0.2,0.64 0,0.24 0,0"
             style="fill:#4c2f92;fill-opacity:1;fill-rule:evenodd;stroke:none"
             id="path1020" /></g><g
           id="g1022"
           transform="translate(203.6392,302.2963)"><path
             d="m 0,0 c 0.16,-0.8 0.1,-1.66 -0.18,-2.58 -0.28,-0.919 -0.72,-1.959 -1.32,-3.119 -0.599,-1.16 -1.419,-2.22 -2.459,-3.179 -0.64,-0.64 -1.16,-0.96 -1.56,-0.96 -0.24,0 -0.779,0.36 -1.619,1.079 -0.84,0.72 -1.6,1.34 -2.28,1.86 -0.68,0.52 -1.26,1.02 -1.74,1.5 -0.48,0.48 -0.72,0.88 -0.72,1.2 0.48,1.039 0.84,1.839 1.08,2.399 0.8,1.76 1.4,3.04 1.8,3.839 0.72,1.2 1.439,2.44 2.159,3.72 0.16,0.24 0.4,0.6 0.72,1.08 0.24,-0.24 0.48,-0.44 0.72,-0.6 0.24,-0.16 0.56,-0.36 0.96,-0.6 1.68,-1.36 2.799,-2.4 3.359,-3.12 C -0.52,1.8 -0.16,0.96 0,0"
             style="fill:#4c2f92;fill-opacity:1;fill-rule:evenodd;stroke:none"
             id="path1024" /></g><g
           id="g1026"
           transform="translate(157.4286,272.1044)"><path
             d="M 0,0 C 0.64,0.4 1.22,0.88 1.74,1.44 2.26,2 2.8,2.68 3.36,3.48 l 2.759,4.799 c 1.68,3.119 2.8,4.679 3.36,4.679 0.239,0 0.439,-0.1 0.599,-0.3 0.16,-0.2 0.28,-0.34 0.36,-0.42 -0.24,-0.72 -0.44,-1.38 -0.599,-1.98 -0.161,-0.6 -0.241,-1.1 -0.241,-1.5 0,-2.479 0.96,-3.719 2.88,-3.719 0.16,0 0.6,0.7 1.319,2.1 0.72,1.4 1.2,2.099 1.44,2.099 0.64,-0.399 1.12,-0.759 1.44,-1.079 1.04,-1.12 1.56,-2.32 1.56,-3.6 0,-1.999 -0.6,-4.099 -1.8,-6.299 -1.2,-2.199 -2.519,-3.859 -3.959,-4.979 -0.96,-0.56 -1.64,-0.899 -2.04,-1.019 -0.4,-0.12 -0.92,-0.181 -1.559,-0.181 -0.88,0 -1.68,0.181 -2.4,0.54 -0.72,0.361 -1.34,0.82 -1.86,1.38 -0.52,0.56 -0.88,1.1 -1.079,1.62 -0.2,0.52 -0.38,0.98 -0.54,1.38 -0.32,0 -0.78,-0.42 -1.38,-1.26 -0.6,-0.84 -1.14,-1.5 -1.62,-1.98 z"
             style="fill:#4c2f92;fill-opacity:1;fill-rule:evenodd;stroke:none"
             id="path1028" /></g><g
           id="g1030"
           transform="translate(157.0694,265.8971)"><path
             d="m 0,0 c -0.72,-0.72 -1.42,-1.28 -2.1,-1.68 -0.68,-0.4 -1.539,-0.66 -2.579,-0.78 -1.04,-0.119 -1.68,-0.419 -1.919,-0.899 -0.241,-0.48 -0.48,-1.6 -0.72,-3.36 -0.241,-1.759 -0.48,-3.339 -0.72,-4.739 -0.24,-1.4 -0.48,-2.579 -0.72,-3.539 -0.24,-0.96 -0.52,-2.08 -0.84,-3.36 -0.64,-2.159 -1.76,-5.119 -3.359,-8.878 -2.88,-6.559 -6.599,-11.918 -11.158,-16.077 -5.36,-4.879 -11.238,-7.319 -17.637,-7.319 -5.439,0 -9.439,1.68 -11.998,5.039 -2.16,2.8 -3.239,6.719 -3.239,11.758 0,2.4 0.4,5.359 1.199,8.879 0.56,2.559 1.16,4.678 1.8,6.358 l 3.359,7.679 c 0.8,1.52 1.6,3.059 2.4,4.619 0.8,1.56 1.52,2.34 2.159,2.34 0.241,-0.64 0.36,-1.12 0.36,-1.44 -0.159,-0.72 -0.559,-1.8 -1.199,-3.239 -1.04,-2.32 -1.76,-3.92 -2.16,-4.8 -1.12,-2.639 -1.919,-4.719 -2.399,-6.239 -0.72,-2.479 -1.08,-4.798 -1.08,-6.958 0,-3.439 1.219,-6.219 3.659,-8.338 2.44,-2.12 5.779,-3.18 10.018,-3.18 4.799,0 9.059,1.04 12.778,3.119 3.719,2.08 6.859,5.119 9.418,9.119 2,3.119 3.42,6.179 4.259,9.178 0.84,2.999 1.26,6.339 1.26,10.018 l 0.12,7.199 c 0,1.44 0.5,2.699 1.5,3.779 1,1.08 2.18,1.5 3.539,1.26 h 2.04 c 1.759,0 3.079,0.24 3.959,0.72 0.24,-0.4 0.46,-0.86 0.66,-1.38 0.2,-0.52 0.3,-1.06 0.3,-1.619 C 0.96,2.6 0.76,1.76 0.36,0.72 0.36,0.56 0.24,0.32 0,0 m -23.516,-11.278 c 0,-1.76 -0.779,-3.659 -2.339,-5.699 -1.56,-2.04 -3.06,-3.059 -4.499,-3.059 -0.48,0.479 -0.84,0.88 -1.08,1.199 -0.96,1.04 -1.76,1.84 -2.4,2.4 -0.64,0.56 -1.259,1.12 -1.859,1.68 -0.6,0.559 -0.9,0.959 -0.9,1.2 0,0.159 0.24,0.679 0.72,1.559 0.24,0.4 0.999,1.68 2.279,3.839 1.04,1.76 2.04,3.2 3,4.32 0.08,0.16 0.24,0.4 0.48,0.719 1.439,-1.039 2.519,-1.879 3.239,-2.519 2.24,-2.08 3.359,-3.959 3.359,-5.639"
             style="fill:#4c2f92;fill-opacity:1;fill-rule:evenodd;stroke:none"
             id="path1032" /></g><g
           id="g1034"
           transform="translate(167.5474,217.4822)"><path
             d="m 0,0 c 0.16,-0.8 0.1,-1.66 -0.18,-2.579 -0.28,-0.92 -0.72,-1.96 -1.32,-3.12 -0.6,-1.16 -1.42,-2.22 -2.459,-3.18 -0.64,-0.639 -1.16,-0.96 -1.56,-0.96 -0.24,0 -0.78,0.36 -1.62,1.081 -0.84,0.719 -1.6,1.339 -2.279,1.859 -0.68,0.52 -1.26,1.02 -1.74,1.5 -0.48,0.48 -0.72,0.88 -0.72,1.2 0.48,1.039 0.84,1.839 1.08,2.399 0.8,1.76 1.4,3.04 1.799,3.84 0.72,1.2 1.44,2.439 2.16,3.719 0.16,0.24 0.4,0.6 0.72,1.08 0.24,-0.24 0.48,-0.44 0.72,-0.6 0.24,-0.16 0.56,-0.36 0.96,-0.6 C -2.759,4.279 -1.64,3.24 -1.08,2.52 -0.52,1.799 -0.16,0.96 0,0 m -12.358,-0.72 c 0.16,-0.8 0.1,-1.66 -0.18,-2.579 -0.28,-0.92 -0.72,-1.96 -1.319,-3.12 -0.6,-1.16 -1.42,-2.22 -2.46,-3.179 -0.64,-0.64 -1.16,-0.96 -1.56,-0.96 -0.24,0 -0.779,0.36 -1.619,1.079 -0.84,0.721 -1.6,1.34 -2.28,1.86 -0.68,0.52 -1.26,1.02 -1.74,1.5 -0.48,0.48 -0.72,0.88 -0.72,1.2 0.48,1.039 0.84,1.84 1.08,2.399 0.8,1.76 1.4,3.04 1.8,3.84 0.72,1.2 1.44,2.439 2.159,3.719 0.16,0.24 0.401,0.6 0.72,1.08 0.24,-0.24 0.48,-0.44 0.72,-0.6 0.24,-0.16 0.56,-0.36 0.96,-0.6 1.68,-1.36 2.8,-2.399 3.36,-3.12 0.559,-0.719 0.919,-1.559 1.079,-2.519"
             style="fill:#4c2f92;fill-opacity:1;fill-rule:evenodd;stroke:none"
             id="path1036" /></g></g></g></g></svg>
