<?xml version="1.0" encoding="UTF-8" standalone="no"?>
<svg
   xmlns:dc="http://purl.org/dc/elements/1.1/"
   xmlns:cc="http://creativecommons.org/ns#"
   xmlns:rdf="http://www.w3.org/1999/02/22-rdf-syntax-ns#"
   xmlns:svg="http://www.w3.org/2000/svg"
   xmlns="http://www.w3.org/2000/svg"
   version="1.1"
   id="svg88"
   xml:space="preserve"
   width="444.42667"
   height="538.69336"
   viewBox="0 0 444.42667 538.69336"><metadata
     id="metadata94"><rdf:RDF><cc:Work
         rdf:about=""><dc:format>image/svg+xml</dc:format><dc:type
           rdf:resource="http://purl.org/dc/dcmitype/StillImage" /><dc:title></dc:title></cc:Work></rdf:RDF></metadata><defs
     id="defs92"><linearGradient
       x1="0"
       y1="0"
       x2="1"
       y2="0"
       gradientUnits="userSpaceOnUse"
       gradientTransform="matrix(5182.07,-3365.27,-3365.27,-5182.07,-875.395,3662.88)"
       spreadMethod="pad"
       id="linearGradient106"><stop
         style="stop-opacity:1;stop-color:#b26d1e"
         offset="0"
         id="stop100" /><stop
         style="stop-opacity:1;stop-color:#edf283"
         offset="0.63"
         id="stop102" /><stop
         style="stop-opacity:1;stop-color:#b26d1e"
         offset="1"
         id="stop104" /></linearGradient></defs><g
     id="g96"
     transform="matrix(1.3333333,0,0,-1.3333333,0,538.69333)"><g
       id="g98"
       transform="scale(0.1)"><path
         d="m 1498.6,3823.7 -3.74,216.49 h 332.88 l -0.87,-215.63 224.37,0.03 0.49,-433.85 437.5,-0.14 233.49,-274.36 -121.2,-3.51 -114.83,-170.64 84.07,-1.08 0.46,-154.49 155.37,-1.4 0.77,-206.23 154.33,0.69 v -280.19 c 79.63,2.35 136.44,-25.17 165.11,-114.18 151.32,9.55 240.38,-174.75 286.41,-365.27 l -106.39,47.32 -362.82,1.69 -34.12,-70.19 155.45,0.87 1.58,-137.25 h 120.32 l 1.13,-157.25 -122.57,0.21 0.39,-102.77 -189.69,-2.17 -0.06,-66.68 -155.1,-1.71 -0.28,-778.678 -657.45,-0.48 -0.71,-310 -138.46,-0.063 L 1844.41,0.429688 1480.82,0 v 242.398 l -138.44,-0.109 0.1,310.973 -658.136,0.66 1.906,778.848 -156.195,0.23 2.195,68.78 -192.773,0.47 -0.875,104.02 -119.481,1.32 -0.535,154.63 120.012,-0.05 1.3,137.06 167.903,0.35 -31.867,71.01 -340.676,1.95 C 86.6758,1866.49 42.8984,1849.07 0,1816.34 c 25.2422,147.54 73.2891,352.97 282.813,368.88 17.929,65.32 59.554,121.87 161.726,116.99 l -1.851,277.43 157.628,-0.51 -0.656,206.87 154.242,0.95 0.59,138.13 85.031,0.44 -119.371,189.42 -119.414,0.44 241.121,259.91 h 431.211 l -0.43,447.12 225.96,1.29"
         style="fill:url(#linearGradient106);fill-opacity:1;fill-rule:evenodd;stroke:none"
         id="path108" /><path
         d="m 1635.82,2336.25 0.44,-174.8 -172.57,105.45 v 864.25 l -119.89,181.81 -1.75,424.2 225.5,0.05 -0.25,225.24 190.59,-0.88 -1.29,-227.03 h 226.61 v -421.58 l -120.74,-180.49 0.42,-864.7 -156.85,-104.6 1.86,173.88 49.57,55.45 1.76,1240.16 -190.8,0.43 -0.22,-1244.74 67.61,-52.1"
         style="fill:#212819;fill-opacity:1;fill-rule:evenodd;stroke:none"
         id="path110" /><path
         d="m 1635.82,2336.25 0.44,-174.8 -172.57,105.45 v 864.25 l -119.89,181.81 -1.75,424.2 225.5,0.05 -0.25,225.24 190.59,-0.88 -1.29,-227.03 h 226.61 v -421.58 l -120.74,-180.49 0.42,-864.7 -156.85,-104.6 1.86,173.88 49.57,55.45 1.76,1240.16 -190.8,0.43 -0.22,-1244.74 z"
         style="fill:none;stroke:#312e2f;stroke-width:2.16;stroke-linecap:butt;stroke-linejoin:miter;stroke-miterlimit:22.9256;stroke-dasharray:none;stroke-opacity:1"
         id="path112" /><path
         d="m 806.719,3218.51 51.851,68.92 431.67,0.2 104.09,-190.76 0.87,-897.6 223.57,-140.39 0.86,-604.41 h -259.61 l 0.43,570.44 -277.53,263.07 -0.87,670.12 -155.386,259.5 -119.945,0.91"
         style="fill:#212819;fill-opacity:1;fill-rule:evenodd;stroke:none"
         id="path114" /><path
         d="m 806.719,3218.51 51.851,68.92 431.67,0.2 104.09,-190.76 0.87,-897.6 223.57,-140.39 0.86,-604.41 h -259.61 l 0.43,570.44 -277.53,263.07 -0.87,670.12 -155.386,259.5 z"
         style="fill:none;stroke:#312e2f;stroke-width:2.16;stroke-linecap:butt;stroke-linejoin:miter;stroke-miterlimit:22.9256;stroke-dasharray:none;stroke-opacity:1"
         id="path116" /><path
         d="m 823.148,3113.61 71.176,0.02 121.996,-206.96 -1.35,-604.2 -68.427,-0.45 -0.887,605.15 -122.508,206.44"
         style="fill:#212819;fill-opacity:1;fill-rule:evenodd;stroke:none"
         id="path118" /><path
         d="m 823.148,3113.61 71.176,0.02 121.996,-206.96 -1.35,-604.2 -68.427,-0.45 -0.887,605.15 z"
         style="fill:none;stroke:#312e2f;stroke-width:2.16;stroke-linecap:butt;stroke-linejoin:miter;stroke-miterlimit:22.9256;stroke-dasharray:none;stroke-opacity:1"
         id="path120" /><path
         d="m 807.113,2474.13 67.828,-0.23 0.875,-171.99 -69.582,-0.66 0.879,172.88"
         style="fill:#212819;fill-opacity:1;fill-rule:evenodd;stroke:none"
         id="path122" /><path
         d="m 807.113,2474.13 67.828,-0.23 0.875,-171.99 -69.582,-0.66 z"
         style="fill:none;stroke:#312e2f;stroke-width:2.16;stroke-linecap:butt;stroke-linejoin:miter;stroke-miterlimit:22.9256;stroke-dasharray:none;stroke-opacity:1"
         id="path124" /><path
         d="m 149.309,1956.86 c 13.32,57.65 51.214,118.82 103.152,136.11 l 118.16,0.76 c -8.176,51.52 8.465,89.92 56.215,120.46 l 620.984,1.71 226.17,-226.1 -0.42,-536.72 -207.32,1.37 -329.145,500.44 -587.796,1.97"
         style="fill:#212819;fill-opacity:1;fill-rule:evenodd;stroke:none"
         id="path126" /><path
         d="m 149.309,1956.86 c 13.32,57.65 51.214,118.82 103.152,136.11 l 118.16,0.76 c -8.176,51.52 8.465,89.92 56.215,120.46 l 620.984,1.71 226.17,-226.1 -0.42,-536.72 -207.32,1.37 -329.145,500.44 z"
         style="fill:none;stroke:#312e2f;stroke-width:2.16;stroke-linecap:butt;stroke-linejoin:miter;stroke-miterlimit:22.9256;stroke-dasharray:none;stroke-opacity:1"
         id="path128" /><path
         d="m 580.516,1868.54 104.144,0.47 277.082,-413.66 -119.672,-1.32 -261.554,414.51"
         style="fill:#212819;fill-opacity:1;fill-rule:evenodd;stroke:none"
         id="path130" /><path
         d="m 580.516,1868.54 104.144,0.47 277.082,-413.66 -119.672,-1.32 z"
         style="fill:none;stroke:#312e2f;stroke-width:2.16;stroke-linecap:butt;stroke-linejoin:miter;stroke-miterlimit:22.9256;stroke-dasharray:none;stroke-opacity:1"
         id="path132" /><path
         d="m 529.535,1626.13 1.778,-66.69 154.191,-0.87 -53.527,68.47 -102.442,-0.91"
         style="fill:#212819;fill-opacity:1;fill-rule:evenodd;stroke:none"
         id="path134" /><path
         d="m 529.535,1626.13 1.778,-66.69 154.191,-0.87 -53.527,68.47 z"
         style="fill:none;stroke:#312e2f;stroke-width:2.16;stroke-linecap:butt;stroke-linejoin:miter;stroke-miterlimit:22.9256;stroke-dasharray:none;stroke-opacity:1"
         id="path136" /><path
         d="m 2517.65,3218.51 -51.86,68.92 -431.66,0.2 -104.09,-190.76 -0.87,-897.6 -223.57,-140.39 -0.86,-604.41 h 259.61 l -0.43,570.44 277.53,263.07 0.87,670.12 155.38,259.5 119.95,0.91"
         style="fill:#212819;fill-opacity:1;fill-rule:evenodd;stroke:none"
         id="path138" /><path
         d="m 2517.65,3218.51 -51.86,68.92 -431.66,0.2 -104.09,-190.76 -0.87,-897.6 -223.57,-140.39 -0.86,-604.41 h 259.61 l -0.43,570.44 277.53,263.07 0.87,670.12 155.38,259.5 z"
         style="fill:none;stroke:#312e2f;stroke-width:2.16;stroke-linecap:butt;stroke-linejoin:miter;stroke-miterlimit:22.9256;stroke-dasharray:none;stroke-opacity:1"
         id="path140" /><path
         d="m 3177.88,1958.17 c -13.32,57.66 -51.21,118.82 -103.15,136.12 l -118.16,0.76 c 8.18,51.52 -8.46,89.92 -56.21,120.46 l -620.99,1.71 -226.6,-227.65 0.85,-535.17 207.32,1.37 329.15,500.43 587.79,1.97"
         style="fill:#212819;fill-opacity:1;fill-rule:evenodd;stroke:none"
         id="path142" /><path
         d="m 3177.88,1958.17 c -13.32,57.66 -51.21,118.82 -103.15,136.12 l -118.16,0.76 c 8.18,51.52 -8.46,89.92 -56.21,120.46 l -620.99,1.71 -226.6,-227.65 0.85,-535.17 207.32,1.37 329.15,500.43 z"
         style="fill:none;stroke:#312e2f;stroke-width:2.16;stroke-linecap:butt;stroke-linejoin:miter;stroke-miterlimit:22.9256;stroke-dasharray:none;stroke-opacity:1"
         id="path144" /><path
         d="m 2750,1867.66 -104.15,0.47 -277.08,-413.65 119.67,-1.33 261.56,414.51"
         style="fill:#212819;fill-opacity:1;fill-rule:evenodd;stroke:none"
         id="path146" /><path
         d="m 2750,1867.66 -104.15,0.47 -277.08,-413.65 119.67,-1.33 z"
         style="fill:none;stroke:#312e2f;stroke-width:2.16;stroke-linecap:butt;stroke-linejoin:miter;stroke-miterlimit:22.9256;stroke-dasharray:none;stroke-opacity:1"
         id="path148" /><path
         d="m 2794.93,1625.73 1.09,-67.85 -153.93,-0.65 50.51,68.99 102.33,-0.49"
         style="fill:#212819;fill-opacity:1;fill-rule:evenodd;stroke:none"
         id="path150" /><path
         d="m 2794.93,1625.73 1.09,-67.85 -153.93,-0.65 50.51,68.99 z"
         style="fill:none;stroke:#312e2f;stroke-width:2.16;stroke-linecap:butt;stroke-linejoin:miter;stroke-miterlimit:22.9256;stroke-dasharray:none;stroke-opacity:1"
         id="path152" /><path
         d="m 1428.12,554.602 1.76,-225.442 138.3,-0.238 -0.88,-241.09 h 191.95 l -0.33,240.789 137.91,0.731 -1.02,224.207 H 1757.7 l -0.66,-135.5 -188.27,-1.2 -1.86,137.321 -138.79,0.422"
         style="fill:#212819;fill-opacity:1;fill-rule:evenodd;stroke:none"
         id="path154" /><path
         d="m 1428.12,554.602 1.76,-225.442 138.3,-0.238 -0.88,-241.09 h 191.95 l -0.33,240.789 137.91,0.731 -1.02,224.207 H 1757.7 l -0.66,-135.5 -188.27,-1.2 -1.86,137.321 z"
         style="fill:none;stroke:#312e2f;stroke-width:2.16;stroke-linecap:butt;stroke-linejoin:miter;stroke-miterlimit:22.9256;stroke-dasharray:none;stroke-opacity:1"
         id="path156" /><path
         d="m 754.461,1367.06 1.758,-725.251 1814.521,-0.329 -0.39,725.36 -1815.889,0.22"
         style="fill:#212819;fill-opacity:1;fill-rule:evenodd;stroke:none"
         id="path158" /><path
         d="m 754.461,1367.06 1.758,-725.251 1814.521,-0.329 -0.39,725.36 z"
         style="fill:none;stroke:#312e2f;stroke-width:2.16;stroke-linecap:butt;stroke-linejoin:miter;stroke-miterlimit:22.9256;stroke-dasharray:none;stroke-opacity:1"
         id="path160" /><path
         d="m 2449.49,2474.13 67.82,-0.23 0.88,-171.99 -69.58,-0.66 0.88,172.88"
         style="fill:#212819;fill-opacity:1;fill-rule:evenodd;stroke:none"
         id="path162" /><path
         d="m 2449.49,2474.13 67.82,-0.23 0.88,-171.99 -69.58,-0.66 z"
         style="fill:none;stroke:#312e2f;stroke-width:2.16;stroke-linecap:butt;stroke-linejoin:miter;stroke-miterlimit:22.9256;stroke-dasharray:none;stroke-opacity:1"
         id="path164" /><path
         d="m 2502.27,3113.61 -71.18,0.02 -121.99,-206.96 1.35,-604.2 68.42,-0.45 0.89,605.15 122.51,206.44"
         style="fill:#212819;fill-opacity:1;fill-rule:evenodd;stroke:none"
         id="path166" /><path
         d="m 2502.27,3113.61 -71.18,0.02 -121.99,-206.96 1.35,-604.2 68.42,-0.45 0.89,605.15 z"
         style="fill:none;stroke:#312e2f;stroke-width:2.16;stroke-linecap:butt;stroke-linejoin:miter;stroke-miterlimit:22.9256;stroke-dasharray:none;stroke-opacity:1"
         id="path168" /><path
         d="m 2237.39,897.762 v -8.692 c 0,-15.808 4.4,-26.8 13.22,-32.98 5.21,-3.469 11.42,-5.199 18.65,-5.199 5.6,0 10.62,5.98 15.04,17.941 0.79,2.688 1.7,5.77 2.7,9.25 1,3.469 2.3,5.207 3.9,5.207 2.01,0 3,-1.93 3,-5.777 0,-1.551 -0.3,-3.871 -0.89,-6.953 -0.6,-3.098 -1.1,-5.598 -1.5,-7.52 -5.21,-22.758 -11.84,-40.418 -19.85,-52.957 -8.02,-12.531 -16.23,-18.801 -24.65,-18.801 -13.24,0 -22.36,5.789 -27.37,17.348 -5.01,11.582 -7.51,26.25 -7.51,43.992 l 25.26,45.141"
         style="fill:#edf5b1;fill-opacity:1;fill-rule:evenodd;stroke:none"
         id="path170" /><path
         d="m 2284.7,705.988 c 0.79,-3.847 0.5,-7.996 -0.91,-12.437 -1.4,-4.43 -3.6,-9.449 -6.62,-15.039 -3,-5.59 -7.11,-10.723 -12.32,-15.34 -3.22,-3.09 -5.82,-4.641 -7.82,-4.641 -1.2,0 -3.9,1.75 -8.13,5.219 -4.2,3.48 -8.01,6.461 -11.42,8.969 -3.4,2.5 -6.31,4.922 -8.72,7.23 -2.41,2.313 -3.6,4.242 -3.6,5.789 2.39,5.012 4.2,8.871 5.4,11.563 4.01,8.5 7.03,14.679 9.03,18.531 3.61,5.789 7.21,11.77 10.82,17.938 0.82,1.16 2.01,2.89 3.62,5.199 1.2,-1.137 2.4,-2.11 3.59,-2.879 1.21,-0.781 2.81,-1.75 4.83,-2.891 8.41,-6.57 14.02,-11.578 16.83,-15.051 2.8,-3.468 4.61,-7.519 5.42,-12.16"
         style="fill:#edf5b1;fill-opacity:1;fill-rule:evenodd;stroke:none"
         id="path172" /><path
         d="m 2237.39,897.762 c -3.21,-10.043 -6.42,-19.871 -9.62,-29.512 -4.43,-10.43 -9.63,-15.629 -15.64,-15.629 0,4.629 2.2,24.789 6.61,60.469 4.4,35.699 8.02,62.98 10.83,81.89 0.39,1.54 3.59,9.45 9.62,23.73 6.02,14.27 10.82,25.07 14.43,32.4 0.8,0.39 1.6,0.78 2.41,1.16 0.4,-1.16 0.2,-4.25 -0.6,-9.27 l -2.42,-15.04 -10.23,-70.601 c -1.99,-14.269 -3.4,-26.621 -4.19,-37.027 -0.81,-10.434 -1.2,-17.941 -1.2,-22.57"
         style="fill:#edf5b1;fill-opacity:1;fill-rule:evenodd;stroke:none"
         id="path174" /><path
         d="m 2121.6,897.762 v -8.692 c 0,-15.808 4.41,-26.8 13.24,-32.98 5.21,-3.469 11.42,-5.199 18.64,-5.199 5.61,0 10.63,5.98 15.03,17.941 0.82,2.688 1.72,5.77 2.71,9.25 1,3.469 2.31,5.207 3.91,5.207 2.01,0 3,-1.93 3,-5.777 0,-1.551 -0.3,-3.871 -0.9,-6.953 -0.61,-3.098 -1.1,-5.598 -1.48,-7.52 -5.22,-22.758 -11.84,-40.418 -19.86,-52.957 -8.02,-12.531 -16.24,-18.801 -24.67,-18.801 -13.22,0 -22.35,5.789 -27.35,17.348 -5.01,11.582 -7.52,26.25 -7.52,43.992 l 25.25,45.141"
         style="fill:#edf5b1;fill-opacity:1;fill-rule:evenodd;stroke:none"
         id="path176" /><path
         d="m 2167.29,1154.78 c 0.78,-3.85 0.48,-8 -0.9,-12.43 -1.42,-4.45 -3.62,-9.47 -6.64,-15.07 -3,-5.58 -7.11,-10.7 -12.32,-15.32 -3.2,-3.08 -5.81,-4.64 -7.82,-4.64 -1.2,0 -3.9,1.74 -8.11,5.22 -4.21,3.48 -8.03,6.46 -11.43,8.96 -3.42,2.51 -6.32,4.91 -8.72,7.24 -2.42,2.31 -3.6,4.24 -3.6,5.79 2.4,5 4.19,8.86 5.4,11.57 4.01,8.49 7.01,14.65 9.02,18.51 3.62,5.8 7.21,11.77 10.82,17.95 0.82,1.15 2.01,2.88 3.62,5.21 1.2,-1.15 2.4,-2.12 3.61,-2.91 1.19,-0.75 2.79,-1.73 4.81,-2.88 8.42,-6.55 14.02,-11.57 16.83,-15.06 2.82,-3.46 4.61,-7.51 5.43,-12.14"
         style="fill:#edf5b1;fill-opacity:1;fill-rule:evenodd;stroke:none"
         id="path178" /><path
         d="m 2121.75,897.762 c -1.2,-4.633 -2.39,-9.461 -3.6,-14.473 -1.2,-5.019 -3.11,-10.32 -5.72,-15.91 -2.6,-5.59 -5.51,-9.75 -8.72,-12.449 -3.2,-2.692 -5.6,-3.461 -7.21,-2.309 0,8.871 0.71,19 2.11,30.371 1.4,11.387 2.3,18.817 2.7,22.289 l 0.6,6.36 c 0,1.16 -0.2,1.929 -0.6,2.308 -0.4,0.403 -1.21,0 -2.41,-1.148 -1.6,-1.922 -4.21,-5.403 -7.81,-10.41 -7.62,-10.032 -13.24,-17.36 -16.85,-22 -12.02,-14.661 -27.07,-28.34 -45.11,-41.082 -18.04,-12.727 -37.28,-22.75 -57.73,-30.09 -20.45,-7.34 -43.6,-13.59 -69.46,-18.809 -25.86,-5.199 -52.82,-7.82 -80.89,-7.82 h -9.02 c -17.23,0 -31.27,0.961 -42.1,2.91 -17.23,3.07 -28.96,8.191 -35.18,15.332 -6.21,7.137 -9.32,18.027 -9.32,32.699 0,12.34 0.91,25.071 2.71,38.18 1.8,13.109 4.31,19.668 7.52,19.668 1.21,0 2.11,-3.75 2.7,-11.277 0.6,-7.512 3.51,-14.18 8.72,-19.961 10.83,-11.571 37.08,-17.352 78.78,-17.352 22.85,0 41.11,0.57 54.73,1.731 65.75,5.402 119.48,20.64 161.18,45.722 19.63,11.188 35.08,24.496 46.3,39.918 8.43,11.961 15.04,26.238 19.86,42.832 l 8.4,32.978 c 0.82,3.47 5.22,13.31 13.24,29.52 5.22,10.41 8.62,17.06 10.23,19.96 1.6,2.9 3.6,5.49 6.01,7.81 0,-3.08 0,-5.99 0,-8.68 -2.01,-8.49 -3.41,-15.05 -4.2,-19.68 l -12.64,-60.759 c -2.4,-16.59 -4.22,-31.743 -5.4,-45.422 -1.2,-13.699 -1.82,-24.02 -1.82,-30.957"
         style="fill:#edf5b1;fill-opacity:1;fill-rule:evenodd;stroke:none"
         id="path180" /><path
         d="m 2170.33,1105.79 c 8.82,9.27 27.66,25.08 56.53,47.45 25.65,19.68 51.31,39.55 76.97,59.61 18.44,14.66 36.08,29.51 52.94,44.57 12.01,10.79 27.84,25.45 47.5,43.97 30.08,27.77 45.1,42.05 45.1,42.82 0,-1.93 -0.39,-3.67 -1.2,-5.2 -1.2,-5.41 -5.02,-13.51 -11.44,-24.32 -6.4,-10.8 -11.82,-18.9 -16.22,-24.3 -6.42,-8.1 -13.34,-16.1 -20.75,-24.01 -7.43,-7.92 -13.34,-13.99 -17.75,-18.23 -6,-5.79 -16.23,-14.85 -30.67,-27.2 -10.83,-9.26 -27.06,-22.76 -48.72,-40.51 -15.23,-12.35 -28.85,-22.95 -40.89,-31.83 -16.03,-11.95 -32.07,-23.71 -48.1,-35.29 l -41.5,-31.26 c -6.02,-4.62 -11.72,-8.97 -17.15,-13.01 -5.4,-4.05 -8.51,-5.51 -9.32,-4.35 3.2,8.5 6.82,16.21 10.82,23.16 4.02,6.95 8.63,12.93 13.85,17.93"
         style="fill:#edf5b1;fill-opacity:1;fill-rule:evenodd;stroke:none"
         id="path182" /><path
         d="m 1635.22,883.148 c 8.42,8.493 13.42,13.704 15.02,15.622 6.03,6.941 11.05,15.128 15.04,24.589 4.02,9.45 7.53,22.379 10.54,38.77 3,16.41 4.5,28.851 4.5,37.34 0,10.411 0.1,21.301 0.3,32.691 0.2,11.38 0.91,23.05 2.1,35.01 0.41,10.79 0.61,17.55 0.61,20.24 0,2.31 -0.2,3.87 -0.61,4.64 -1.19,-0.38 -2.19,-0.77 -3,-1.16 l -21.64,-51.5 c -1.6,-3.48 -2.62,-8.58 -3.01,-15.34 -0.4,-6.75 -0.61,-14.56 -0.61,-23.43 l 0.61,-38.78 c 0,-15.809 -2.01,-28.149 -6.01,-37.031 -2.02,-4.25 -4.32,-8 -6.92,-11.278 -2.6,-3.289 -4.91,-5.5 -6.92,-6.672 v -23.711"
         style="fill:#edf5b1;fill-opacity:1;fill-rule:evenodd;stroke:none"
         id="path184" /><path
         d="m 1707.23,1134 c 8.83,9.26 27.67,25.08 56.53,47.46 25.66,19.67 51.33,39.53 76.98,59.6 18.45,14.66 36.09,29.51 52.93,44.56 12.02,10.81 27.86,25.46 47.51,43.98 30.07,27.77 45.11,42.05 45.11,42.83 0,-1.94 -0.4,-3.67 -1.21,-5.22 -1.21,-5.4 -5.01,-13.49 -11.43,-24.3 -6.41,-10.8 -11.82,-18.91 -16.23,-24.32 -6.42,-8.09 -13.33,-16.1 -20.75,-24 -7.43,-7.91 -13.34,-13.98 -17.75,-18.23 -6,-5.79 -16.23,-14.85 -30.66,-27.19 -10.83,-9.26 -27.06,-22.78 -48.71,-40.51 -15.24,-12.36 -28.87,-22.97 -40.9,-31.84 -16.03,-11.95 -32.07,-23.72 -48.11,-35.29 l -41.5,-31.25 c -6.01,-4.63 -11.72,-8.97 -17.14,-13.02 -5.4,-4.05 -8.52,-5.5 -9.31,-4.34 3.2,8.48 6.8,16.19 10.82,23.14 4,6.95 8.62,12.93 13.82,17.94"
         style="fill:#edf5b1;fill-opacity:1;fill-rule:evenodd;stroke:none"
         id="path186" /><path
         d="m 1635.06,883.289 -3.6,-2.898 c -6.81,-3.469 -11.32,-5.672 -13.53,-6.649 -2.21,-0.961 -4.41,-2.312 -6.63,-4.051 -2.19,-1.73 -4.9,-4.152 -8.1,-7.23 -1.61,-1.16 -4.01,-1.93 -7.22,-2.32 -3.21,-0.391 -5.91,-1.25 -8.12,-2.61 -2.21,-1.34 -5.81,-4.14 -10.82,-8.39 -5.02,-4.231 -8.92,-6.762 -11.73,-7.512 -2.01,-0.399 -4.31,-0.488 -6.92,-0.277 -2.6,0.179 -5.5,0.457 -8.72,0.859 -6.81,0 -15.84,-8.5 -27.07,-25.469 -11.22,-16.98 -24.46,-25.461 -39.68,-25.461 -18.04,0 -30.68,10.219 -37.9,30.66 -1.2,3.09 -2.2,8.008 -2.99,14.77 -0.81,6.75 -1.21,12.059 -1.21,15.91 l 25.27,45.141 c 0,-12.364 2.19,-22.192 6.6,-29.512 7.23,-11.969 19.25,-17.941 36.09,-17.941 9.22,0 17.24,2.312 24.05,6.941 8.42,6.172 17.03,12.34 25.87,18.531 4.81,-0.781 10.23,-1.179 16.23,-1.179 4.82,0 9.62,2.32 14.44,6.949 2.39,2.699 5,5.41 7.81,8.109 1.6,-1.941 4.01,-2.32 7.22,-1.16 4.8,1.531 9.02,4.629 12.62,9.262 2,2.699 4.02,5.59 6.02,8.668 3.21,-1.149 6.01,-1.539 8.42,-1.149 1.6,0.778 2.81,1.348 3.6,1.739 0.81,-1.93 1.61,-3.961 2.42,-6.09 0.8,-2.11 1.19,-4.328 1.19,-6.641 0,-1.539 -0.39,-3.289 -1.19,-5.219 -0.81,-1.918 -1.61,-3.851 -2.42,-5.781"
         style="fill:#edf5b1;fill-opacity:1;fill-rule:evenodd;stroke:none"
         id="path188" /><path
         d="m 1576.68,1222.24 v 0 c -0.81,4.62 -2.62,8.67 -5.42,12.14 -2.79,3.49 -8.42,8.5 -16.84,15.06 -1.99,1.15 -3.6,2.12 -4.8,2.89 -1.21,0.77 -2.4,1.73 -3.61,2.9 -1.61,-2.32 -2.8,-4.06 -3.61,-5.22 -3.6,-6.17 -7.22,-12.14 -10.82,-17.95 -2,-3.84 -5.03,-10.01 -9.02,-18.51 -1.22,-2.69 -3.01,-6.57 -5.42,-11.57 0,-1.54 1.2,-3.47 3.6,-5.78 2.42,-2.31 5.32,-4.82 8.74,-7.52 3.4,-2.71 7.2,-5.69 11.42,-8.98 4.2,-3.28 6.92,-4.91 8.12,-4.91 2,0 4.6,1.54 7.82,4.63 5.22,4.62 9.32,9.74 12.32,15.32 3,5.6 5.21,10.62 6.62,15.06 1.4,4.43 1.7,8.58 0.9,12.44 z m 31.28,-71.76 v 0 c 0.8,-3.86 0.48,-8 -0.91,-12.45 -1.41,-4.43 -3.62,-9.43 -6.63,-15.04 -2.99,-5.59 -7.1,-10.71 -12.31,-15.32 -3.22,-3.1 -5.82,-4.64 -7.83,-4.64 -1.19,0 -3.91,1.74 -8.12,5.21 -4.19,3.47 -8.01,6.46 -11.42,8.97 -3.41,2.5 -6.32,4.93 -8.72,7.22 -2.4,2.32 -3.61,4.25 -3.61,5.79 2.41,5.02 4.21,8.89 5.42,11.58 4.01,8.49 7.02,14.66 9.01,18.52 3.62,5.78 7.22,11.75 10.84,17.93 0.79,1.17 1.99,2.9 3.6,5.22 1.19,-1.16 2.4,-2.12 3.6,-2.89 1.2,-0.78 2.81,-1.75 4.82,-2.91 8.42,-6.55 14.03,-11.57 16.84,-15.04 2.8,-3.47 4.61,-7.52 5.42,-12.15 z m -61.95,-3.47 c 0.79,-3.86 0.51,-8 -0.91,-12.45 -1.4,-4.43 -3.6,-9.45 -6.6,-15.04 -3.02,-5.59 -7.12,-10.71 -12.34,-15.33 -3.2,-3.09 -5.82,-4.63 -7.82,-4.63 -1.2,0 -3.9,1.73 -8.1,5.21 -4.22,3.47 -8.02,6.46 -11.44,8.96 -3.4,2.52 -6.32,4.92 -8.72,7.24 -2.4,2.32 -3.6,4.24 -3.6,5.78 2.39,5.02 4.2,8.88 5.4,11.57 4.01,8.5 7.02,14.67 9.02,18.52 3.61,5.79 7.22,11.77 10.83,17.95 0.8,1.14 2.01,2.88 3.61,5.21 1.2,-1.17 2.41,-2.13 3.62,-2.9 1.2,-0.77 2.8,-1.74 4.8,-2.89 8.42,-6.56 14.03,-11.58 16.83,-15.05 2.81,-3.46 4.61,-7.53 5.42,-12.15 v 0"
         style="fill:#edf5b1;fill-opacity:1;fill-rule:evenodd;stroke:none"
         id="path190" /><path
         d="m 1466.09,897.762 c -3.21,-10.043 -6.43,-19.871 -9.64,-29.512 -4.41,-10.43 -9.61,-15.629 -15.64,-15.629 0,4.629 2.21,24.789 6.63,60.469 4.41,35.699 8.02,62.98 10.82,81.89 0.4,1.54 3.61,9.45 9.63,23.73 6,14.27 10.82,25.07 14.42,32.4 0.81,0.39 1.6,0.78 2.42,1.16 0.39,-1.16 0.19,-4.25 -0.61,-9.27 l -2.42,-15.04 -10.22,-70.601 c -2,-14.269 -3.4,-26.621 -4.2,-37.027 -0.79,-10.434 -1.19,-17.941 -1.19,-22.57"
         style="fill:#edf5b1;fill-opacity:1;fill-rule:evenodd;stroke:none"
         id="path192" /><path
         d="m 1407.96,866.391 -8.42,-21.422 c -3.61,-7.707 -7.91,-14.93 -12.94,-21.688 -4.99,-6.761 -9.11,-11.179 -12.31,-13.312 -3.22,-2.117 -9.24,-4.719 -18.05,-7.817 -4.41,-1.543 -8.61,-3.082 -12.63,-4.621 -9.62,-3.082 -16.04,-5.211 -19.24,-6.371 -9.22,-2.691 -15.64,-4.051 -19.25,-4.051 l -2.41,1.172 c 0,2.688 7.23,8.469 21.66,17.348 l 23.45,16.203 c 4.01,2.699 8.42,5.977 13.23,9.84 4.81,3.848 9.91,8.68 15.34,14.469 5.39,5.781 9.12,11.757 11.12,17.941 0,0.758 0.19,1.93 0.6,3.457 l -15.64,-1.148 c -7.21,0 -13.22,2.218 -18.03,6.66 -4.82,4.429 -6.81,9.347 -6.02,14.75 0.41,3.078 1.4,6.75 3.01,11 1.61,4.238 5.22,11.949 10.82,23.148 3.61,7.321 7.22,13.5 10.82,18.512 5.21,6.949 10.24,10.418 15.04,10.418 8.04,0 15.04,-3.277 21.05,-9.828 6.02,-6.571 9.03,-14.481 9.03,-23.731 0,-4.629 -0.42,-9.261 -1.21,-13.89 -0.81,-4.629 -1.49,-8.68 -2.1,-12.149 -0.61,-3.48 -1.5,-7.621 -2.71,-12.461 -1.2,-4.82 -2.6,-8.961 -4.21,-12.429"
         style="fill:#edf5b1;fill-opacity:1;fill-rule:evenodd;stroke:none"
         id="path194" /><path
         d="m 1305.98,943.539 c 0,-4.629 -1,-12.348 -3,-23.16 -2.01,-10.789 -4.02,-20.25 -6.02,-28.348 l -7.21,-28.351 c -4.01,-10.801 -7.22,-18.719 -9.63,-23.739 -3.61,-7.32 -6.91,-13.3 -9.92,-17.929 -3.01,-4.633 -6.12,-8.192 -9.32,-10.711 -3.2,-2.5 -8.62,-5.692 -16.24,-9.551 l -21.66,-8.668 c -1.99,-0.781 -6.71,-1.934 -14.12,-3.473 -7.41,-1.55 -12.13,-2.32 -14.14,-2.32 -2.01,0 -3.21,0.672 -3.61,2.043 -0.4,1.34 0,2.969 1.21,4.887 2,3.48 7.11,8.312 15.32,14.48 8.23,6.16 16.35,12.153 24.37,17.942 9.22,8.097 16.05,14.468 20.45,19.109 6.42,6.539 12.42,14.449 18.04,23.711 1.2,1.93 2.91,5.879 5.12,11.859 2.2,5.981 5.7,15.731 10.51,29.231 l 7.22,20.828 c 0.81,3.09 2.02,6.851 3.61,11.293 1.61,4.418 3.61,6.648 6.02,6.648 2,-2.699 3,-4.64 3,-5.781"
         style="fill:#edf5b1;fill-opacity:1;fill-rule:evenodd;stroke:none"
         id="path196" /><path
         d="m 1189.29,939.102 c 0,-4.622 -0.99,-12.352 -2.99,-23.153 -2.01,-10.801 -4,-20.25 -6.02,-28.359 l -7.22,-28.34 c -4,-10.801 -7.21,-18.73 -9.61,-23.75 -3.61,-7.32 -6.91,-13.301 -9.93,-17.93 -3.01,-4.629 -6.1,-8.191 -9.33,-10.699 -3.2,-2.512 -8.61,-5.699 -16.22,-9.551 l -21.66,-8.679 c -2,-0.77 -6.71,-1.93 -14.14,-3.469 -7.41,-1.551 -12.11,-2.32 -14.13,-2.32 -2,0 -3.2,0.668 -3.61,2.039 -0.4,1.339 0,2.98 1.21,4.898 2,3.473 7.11,8.301 15.33,14.473 8.22,6.168 16.35,12.148 24.37,17.937 9.22,8.11 16.04,14.473 20.45,19.11 6.41,6.543 12.42,14.461 18.03,23.711 1.21,1.941 2.91,5.89 5.11,11.871 2.21,5.968 5.71,15.718 10.53,29.218 l 7.21,20.832 c 0.81,3.09 2.01,6.86 3.61,11.289 1.61,4.418 3.61,6.649 6.02,6.649 2,-2.688 2.99,-4.637 2.99,-5.777"
         style="fill:#edf5b1;fill-opacity:1;fill-rule:evenodd;stroke:none"
         id="path198" /><path
         d="m 1230.69,1070.07 c 0.8,-3.85 0.49,-8.01 -0.89,-12.44 -1.42,-4.44 -3.62,-9.45 -6.64,-15.06 -2.99,-5.58 -7.1,-10.7 -12.32,-15.32 -3.2,-3.08 -5.8,-4.64 -7.81,-4.64 -1.21,0 -3.9,1.74 -8.12,5.22 -4.21,3.47 -8.02,6.46 -11.43,8.97 -3.41,2.5 -6.31,4.91 -8.72,7.23 -2.41,2.31 -3.59,4.24 -3.59,5.79 2.39,5.01 4.2,8.87 5.39,11.57 4.03,8.49 7.01,14.65 9.03,18.51 3.61,5.8 7.21,11.78 10.82,17.94 0.81,1.16 2,2.9 3.61,5.22 1.21,-1.17 2.41,-2.12 3.6,-2.91 1.21,-0.76 2.8,-1.72 4.82,-2.88 8.43,-6.56 14.02,-11.57 16.84,-15.05 2.81,-3.47 4.61,-7.53 5.41,-12.15"
         style="fill:#edf5b1;fill-opacity:1;fill-rule:evenodd;stroke:none"
         id="path200" /><path
         d="m 1145.42,1119.63 c -0.8,-4.64 -2,-9.17 -3.61,-13.6 -1.59,-4.45 -4.3,-10.61 -8.11,-18.53 -3.81,-7.9 -6.1,-12.43 -6.92,-13.59 -3.2,-4.64 -6,-6.95 -8.41,-6.95 -1.61,1.16 -3.12,2.23 -4.52,3.19 -1.4,0.96 -2.7,1.45 -3.9,1.45 -4.82,0 -11.23,-1.95 -19.24,-5.8 -8.02,-3.84 -16.26,-9.64 -24.67,-17.35 -10.83,-9.26 -18.94,-17.56 -24.34,-24.88 -5.42,-7.34 -8.14,-12.34 -8.14,-15.06 0,-3.07 1.41,-6.36 4.21,-9.83 l 10.82,-5.211 c 2.82,-1.16 5.33,-2.117 7.53,-2.887 2.2,-0.781 4.31,-1.934 6.32,-3.461 6.41,-4.262 9.61,-12.742 9.61,-25.473 0,-17.367 -3.41,-37.328 -10.22,-59.906 -6.81,-22.57 -15.83,-42.133 -27.07,-58.73 -5.6,-7.711 -12.22,-15.43 -19.83,-23.153 -7.62,-7.707 -15.856,-14.257 -24.657,-19.668 -16.843,-10.8 -36.3,-16.199 -58.343,-16.199 -25.653,0 -44.297,8.09 -55.934,24.297 -6.004,8.109 -10.215,16.691 -12.621,25.75 -2.41,9.07 -3.621,17.652 -3.621,25.75 0,10.422 0.82,20.551 2.422,30.383 1.601,9.828 4.008,19.769 7.211,29.808 5.207,16.2 11.426,31.829 18.648,46.872 7.203,15.046 13.024,27.187 17.426,36.448 l 13.836,28.37 c 1.601,3.08 3.32,6.17 5.121,9.25 1.805,3.1 3.301,4.63 4.5,4.63 2.82,0 4.223,-1.73 4.223,-5.21 0,-2.69 -0.403,-4.82 -1.211,-6.36 -2.399,-5.78 -4.309,-10.51 -5.707,-14.18 -1.403,-3.66 -4.328,-9.94 -8.723,-18.81 -2.406,-4.619 -6.012,-12.342 -10.828,-23.131 -2.406,-5.41 -4.817,-10.82 -7.223,-16.211 -11.629,-29.316 -17.437,-51.308 -17.437,-65.968 0,-15.438 5.726,-27.688 17.14,-36.758 11.426,-9.063 27.559,-13.59 48.414,-13.59 17.247,0 33.879,3.848 49.918,11.566 12.026,5.793 22.056,12.832 30.066,21.122 8.03,8.289 14.15,16.109 18.35,23.441 4.22,7.328 6.3,13.891 6.3,19.68 0,3.461 -2.8,6.07 -8.41,7.808 -5.61,1.731 -9.62,2.891 -12.02,3.473 -2.41,0.578 -5.22,1.637 -8.42,3.168 -6.01,2.719 -10.63,6.191 -13.84,10.43 -3.21,4.25 -4.81,10.031 -4.81,17.359 0,11.191 3.81,25.371 11.42,42.531 7.63,17.17 18.26,34.05 31.88,50.63 11.22,13.52 21.45,24.51 30.68,32.99 4.8,4.25 11.02,9.16 18.64,14.76 7.6,5.59 15.03,10.32 22.26,14.17 8.8,5.02 15.83,7.92 21.04,8.68 2,-1.16 3.42,-2.3 4.2,-3.47 0.81,-1.15 1,-2.5 0.6,-4.04"
         style="fill:#edf5b1;fill-opacity:1;fill-rule:evenodd;stroke:none"
         id="path202" /></g></g></svg>
