<?xml version="1.0" encoding="UTF-8" standalone="no"?>
<svg
   xmlns:dc="http://purl.org/dc/elements/1.1/"
   xmlns:cc="http://creativecommons.org/ns#"
   xmlns:rdf="http://www.w3.org/1999/02/22-rdf-syntax-ns#"
   xmlns:svg="http://www.w3.org/2000/svg"
   xmlns="http://www.w3.org/2000/svg"
   xmlns:sodipodi="http://sodipodi.sourceforge.net/DTD/sodipodi-0.dtd"
   xmlns:inkscape="http://www.inkscape.org/namespaces/inkscape"
   version="1.1"
   id="svg1434"
   xml:space="preserve"
   width="816"
   height="1056"
   viewBox="0 0 816 1056"
   sodipodi:docname="maskan.svg"
   inkscape:version="1.0.1 (3bc2e813f5, 2020-09-07)"><sodipodi:namedview
     pagecolor="#ffffff"
     bordercolor="#666666"
     borderopacity="1"
     objecttolerance="10"
     gridtolerance="10"
     guidetolerance="10"
     inkscape:pageopacity="0"
     inkscape:pageshadow="2"
     inkscape:window-width="1848"
     inkscape:window-height="1009"
     id="namedview1006"
     showgrid="false"
     inkscape:zoom="0.66245342"
     inkscape:cx="408"
     inkscape:cy="528"
     inkscape:window-x="72"
     inkscape:window-y="34"
     inkscape:window-maximized="1"
     inkscape:current-layer="svg1434" /><metadata
     id="metadata1440"><rdf:RDF><cc:Work
         rdf:about=""><dc:format>image/svg+xml</dc:format><dc:type
           rdf:resource="http://purl.org/dc/dcmitype/StillImage" /><dc:title /></cc:Work></rdf:RDF></metadata><defs
     id="defs1438"><clipPath
       clipPathUnits="userSpaceOnUse"
       id="clipPath1456"><path
         d="M 0,792 H 612 V 0 H 0 Z"
         id="path1454" /></clipPath></defs><g
     id="g1442"
     transform="matrix(3.4331325,0,0,-3.4331325,-642.53791,1887.5216)"><path
       d="M 207.511,369.135 H 391.348 V 545.999 H 207.511 Z m 26.065,150.798 H 365.282 V 395.201 H 233.576 Z"
       style="fill:#e35732;fill-opacity:1;fill-rule:evenodd;stroke:none"
       id="path1444" /><g
       id="g1446"
       transform="translate(352.7631,435.6193)"><path
         d="M 0,0 V 29.797 L -55.142,49.383 -110.283,29.797 V 0 l 55.141,19.586 z"
         style="fill:#e35732;fill-opacity:1;fill-rule:evenodd;stroke:none"
         id="path1448" /></g><g
       id="g1450"><g
         id="g1452"
         clip-path="url(#clipPath1456)"><g
           id="g1458"
           transform="translate(392.5117,252.8371)"><path
             d="m 0,0 c 0.111,-0.556 0.07,-1.153 -0.125,-1.792 -0.194,-0.639 -0.5,-1.362 -0.917,-2.168 -0.417,-0.805 -0.986,-1.542 -1.709,-2.208 -0.444,-0.445 -0.806,-0.667 -1.083,-0.667 -0.167,0 -0.542,0.25 -1.125,0.75 -0.584,0.5 -1.111,0.931 -1.584,1.292 -0.472,0.361 -0.876,0.709 -1.209,1.042 -0.333,0.333 -0.5,0.612 -0.5,0.834 0.334,0.722 0.583,1.278 0.75,1.667 0.556,1.222 0.973,2.111 1.25,2.667 0.501,0.833 1.001,1.695 1.501,2.583 0.111,0.168 0.278,0.418 0.5,0.751 C -4.084,4.584 -3.917,4.446 -3.75,4.334 -3.584,4.223 -3.362,4.084 -3.084,3.917 -1.917,2.973 -1.139,2.25 -0.75,1.751 -0.361,1.25 -0.111,0.666 0,0 m -10.802,73.848 c -0.11,0.666 -0.361,1.25 -0.749,1.75 -0.389,0.5 -1.167,1.222 -2.335,2.167 -0.277,0.167 -0.499,0.305 -0.666,0.417 -0.167,0.112 -0.334,0.25 -0.501,0.417 -0.222,-0.334 -0.388,-0.584 -0.5,-0.751 -0.5,-0.888 -1,-1.75 -1.5,-2.583 -0.278,-0.556 -0.695,-1.446 -1.251,-2.667 -0.166,-0.389 -0.416,-0.945 -0.749,-1.667 0,-0.223 0.167,-0.501 0.499,-0.835 0.334,-0.332 0.737,-0.681 1.21,-1.041 0.472,-0.361 0.999,-0.793 1.583,-1.292 0.583,-0.501 0.959,-0.751 1.125,-0.751 0.278,0 0.64,0.222 1.084,0.667 0.722,0.667 1.292,1.404 1.709,2.209 0.417,0.806 0.722,1.528 0.916,2.168 0.195,0.638 0.237,1.236 0.125,1.792 m -10.88,-41.962 c -0.067,-0.156 -0.134,-0.354 -0.201,-0.596 v -0.654 c 0,-2.278 0.611,-3.862 1.834,-4.752 0.723,-0.5 1.584,-0.75 2.584,-0.75 0.777,0 1.473,0.862 2.084,2.585 0.11,0.389 0.235,0.832 0.375,1.333 0.139,0.501 0.319,0.75 0.541,0.75 0.279,0 0.417,-0.278 0.417,-0.833 0,-0.223 -0.041,-0.556 -0.125,-1 -0.083,-0.446 -0.153,-0.806 -0.208,-1.085 -0.723,-3.278 -1.639,-5.821 -2.751,-7.627 -1.111,-1.805 -2.251,-2.708 -3.417,-2.708 -1.834,0 -3.098,0.833 -3.792,2.5 -0.696,1.667 -1.043,3.779 -1.043,6.335 l 0.208,0.388 c 0.023,0.86 0.116,2.007 0.285,3.447 0.194,1.667 0.459,3.667 0.791,6.001 0.057,0.501 0.125,0.973 0.209,1.417 0.083,0.444 0.013,0.668 -0.209,0.668 -0.611,-1.057 -1.166,-1.918 -1.667,-2.585 -1.5,-2 -3.333,-3.779 -5.501,-5.334 -2.611,-1.946 -5.724,-3.752 -9.335,-5.419 -1.723,-0.833 -3.862,-1.722 -6.419,-2.667 -5.723,-2.168 -11.975,-3.862 -18.755,-5.085 -5.89,-1.055 -12.003,-1.834 -18.338,-2.333 -4.389,-0.334 -9.14,-0.501 -14.253,-0.501 -6.002,0 -10.67,0.222 -14.004,0.667 -1.444,0.167 -2.973,0.514 -4.585,1.042 -1.611,0.528 -2.722,1.654 -3.333,3.376 -0.389,1.055 -0.584,2.556 -0.584,4.501 0,1 0.029,1.792 0.084,2.375 0.055,0.584 0.166,0.876 0.333,0.876 0.056,0 0.625,-0.195 1.709,-0.584 1.084,-0.389 2.209,-0.722 3.375,-1 6.225,-1.556 13.532,-2.334 21.923,-2.334 6.835,0 14.031,0.361 21.588,1.084 7.558,0.722 14.421,1.889 20.589,3.5 3.445,0.89 6.613,1.862 9.503,2.918 4.501,1.667 8.474,3.639 11.919,5.919 1.834,1.222 3.279,2.555 4.334,4 0.778,1.056 1.501,2.417 2.168,4.084 l 1.417,5.002 c 0.389,0.834 0.861,1.876 1.417,3.126 0.556,1.25 1.14,2.431 1.751,3.542 0.333,0.5 0.597,0.723 0.791,0.667 0.195,-0.055 0.292,-0.194 0.292,-0.416 -0.723,-3.335 -1.445,-6.641 -2.167,-9.92 -1.223,-6.057 -1.834,-10.697 -1.834,-13.92 m 7.159,30.382 c 1.222,1.334 3.834,3.612 7.836,6.836 3.556,2.834 7.112,5.696 10.669,8.585 2.555,2.111 5.001,4.251 7.334,6.418 1.668,1.556 3.862,3.668 6.586,6.335 4.167,4.001 6.251,6.057 6.251,6.168 0,-0.278 -0.056,-0.527 -0.166,-0.75 C 23.82,95.082 23.292,93.915 22.403,92.359 21.513,90.803 20.764,89.636 20.152,88.858 19.264,87.692 18.304,86.539 17.276,85.399 16.248,84.26 15.429,83.385 14.818,82.774 13.984,81.94 12.567,80.634 10.567,78.856 9.067,77.522 6.816,75.577 3.815,73.021 1.704,71.243 -0.187,69.715 -1.853,68.436 -4.076,66.714 -6.299,65.019 -8.521,63.352 l -5.752,-4.502 c -0.834,-0.666 -1.625,-1.291 -2.376,-1.874 -0.749,-0.584 -1.18,-0.792 -1.292,-0.626 0.444,1.223 0.945,2.334 1.501,3.335 0.555,0.999 1.194,1.861 1.917,2.583 M -152.332,48.141 c 0,1.944 0.278,4.861 0.834,8.751 0.167,1.279 0.472,3.278 0.917,6.002 0,0.111 -0.111,0.222 -0.334,0.333 l -0.75,-1.001 c 0,-0.055 -0.222,-0.527 -0.667,-1.416 -0.444,-0.889 -0.778,-1.695 -1,-2.417 -0.501,-1.223 -0.819,-2.084 -0.958,-2.584 -0.14,-0.5 -0.265,-1.084 -0.376,-1.751 l -0.75,-7.752 -0.249,-3 -0.167,-1.667 -0.084,-1.334 c -0.111,-0.722 -0.263,-1.348 -0.458,-1.875 -0.195,-0.528 -0.514,-0.987 -0.958,-1.376 -0.779,-0.667 -1.751,-1.001 -2.918,-1.001 l -2.001,0.084 c -0.777,0 -1.473,-0.333 -2.084,-1 -0.389,-0.444 -0.639,-0.958 -0.75,-1.542 -0.111,-0.584 -0.166,-1.348 -0.166,-2.293 l -0.084,-3.667 c 0,-2.557 -0.292,-4.876 -0.876,-6.961 -0.582,-2.083 -1.569,-4.209 -2.959,-6.376 -1.777,-2.778 -3.959,-4.89 -6.542,-6.334 -2.585,-1.446 -5.544,-2.168 -8.878,-2.168 -2.945,0 -5.265,0.736 -6.96,2.209 -1.695,1.473 -2.543,3.404 -2.543,5.793 0,1.501 0.251,3.112 0.751,4.835 0.334,1.055 0.889,2.5 1.667,4.334 0.222,0.501 0.778,1.723 1.667,3.667 0.334,0.723 0.556,1.362 0.667,1.917 0,0.223 -0.084,0.556 -0.25,1.002 -0.389,0 -0.889,-0.556 -1.501,-1.668 -0.611,-1.111 -1.194,-2.195 -1.749,-3.251 l -2.251,-5.251 c -0.445,-1.112 -0.862,-2.557 -1.251,-4.335 -0.555,-2.445 -0.834,-4.529 -0.834,-6.251 0,-3.501 0.751,-6.224 2.251,-8.169 1.778,-2.334 4.557,-3.5 8.336,-3.5 4.445,0 8.53,1.694 12.253,5.084 3.168,2.89 5.751,6.613 7.752,11.169 1.111,2.557 1.889,4.613 2.333,6.168 0.167,0.835 0.362,1.667 0.584,2.5 l 1,5.586 c 0.112,0.833 0.222,1.487 0.334,1.959 0.11,0.472 0.319,0.736 0.625,0.791 0.306,0.056 0.792,0.154 1.459,0.292 0.666,0.139 1.361,0.57 2.083,1.292 0.723,0.723 1.362,1.529 1.918,2.417 0.553,0.886 1.08,1.689 1.579,2.411 1.021,-2.664 2.719,-3.995 5.098,-3.995 2.112,0 3.946,1.223 5.502,3.668 1.555,2.445 2.805,3.667 3.75,3.667 0.445,-0.055 0.848,-0.097 1.21,-0.125 0.36,-0.027 0.68,-0.013 0.958,0.042 0.389,0.111 0.931,0.472 1.625,1.084 0.694,0.611 1.195,1.014 1.501,1.208 0.305,0.195 0.681,0.32 1.124,0.376 0.446,0.055 0.778,0.166 1.001,0.333 0.445,0.445 0.82,0.792 1.125,1.042 0.306,0.25 0.612,0.444 0.917,0.583 0.307,0.14 0.931,0.459 1.876,0.959 l 0.5,0.416 c 0.083,0.211 0.171,0.42 0.255,0.631 l 1.261,1.433 c 0.111,0.11 0.472,0.666 1.084,1.667 0.388,0.611 0.777,1.069 1.166,1.375 0.389,0.306 0.89,0.403 1.5,0.291 0.556,-0.111 1.14,-0.194 1.751,-0.249 0.167,0 0.57,0.083 1.208,0.249 0.64,0.167 1.237,0.709 1.793,1.625 0.555,0.918 0.834,1.737 0.834,2.46 0,0.611 -0.153,1.264 -0.459,1.959 -0.306,0.694 -0.625,1.319 -0.958,1.875 -0.334,0.555 -0.723,1.014 -1.168,1.375 -0.444,0.362 -0.721,0.514 -0.833,0.459 -0.389,-0.611 -0.792,-1.334 -1.208,-2.167 -0.417,-0.834 -0.681,-1.335 -0.793,-1.5 -0.389,-0.39 -0.666,-0.696 -0.833,-0.918 -0.555,-0.666 -1.056,-1.333 -1.5,-2.001 l -2.001,-3.833 c -0.167,-0.222 -0.639,-0.668 -1.417,-1.334 V 49.31 c -0.055,-0.028 -0.118,-0.055 -0.182,-0.087 -0.334,-0.055 -0.723,0 -1.167,0.167 -0.279,-0.445 -0.556,-0.862 -0.834,-1.251 -0.5,-0.667 -1.084,-1.111 -1.75,-1.333 -0.445,-0.167 -0.779,-0.112 -1.001,0.167 -0.389,-0.389 -0.749,-0.778 -1.083,-1.167 -0.667,-0.667 -1.333,-1.001 -2.001,-1.001 -0.833,0 -1.583,0.056 -2.25,0.167 -1.223,-0.889 -2.417,-1.778 -3.584,-2.667 -0.945,-0.667 -2.056,-1.001 -3.335,-1.001 -2.333,0 -4,0.862 -5.001,2.585 -0.611,1.055 -0.917,2.473 -0.917,4.25 l -0.536,-0.994 z m -21.589,-23.674 c 0,-1.222 -0.541,-2.541 -1.625,-3.959 -1.084,-1.417 -2.125,-2.125 -3.126,-2.125 -0.333,0.333 -0.583,0.611 -0.75,0.833 -0.667,0.722 -1.223,1.278 -1.667,1.667 -0.444,0.389 -0.875,0.778 -1.292,1.166 -0.417,0.391 -0.625,0.668 -0.625,0.835 0,0.11 0.167,0.472 0.5,1.083 0.167,0.279 0.694,1.167 1.584,2.667 0.722,1.223 1.417,2.223 2.084,3.002 0.055,0.11 0.166,0.277 0.333,0.499 1.001,-0.722 1.75,-1.305 2.251,-1.75 1.555,-1.444 2.333,-2.751 2.333,-3.918 m 26.876,44.782 c 1.222,1.333 3.834,3.611 7.836,6.835 3.556,2.834 7.112,5.696 10.669,8.585 2.555,2.112 5.001,4.251 7.335,6.419 1.667,1.555 3.862,3.668 6.585,6.335 4.167,4 6.252,6.056 6.252,6.168 0,-0.278 -0.057,-0.528 -0.167,-0.751 -0.167,-0.777 -0.695,-1.944 -1.584,-3.5 -0.889,-1.557 -1.639,-2.723 -2.251,-3.501 -0.888,-1.167 -1.847,-2.32 -2.876,-3.46 -1.028,-1.138 -1.847,-2.014 -2.458,-2.625 -0.834,-0.834 -2.251,-2.139 -4.251,-3.918 -1.5,-1.333 -3.751,-3.278 -6.752,-5.835 -2.111,-1.777 -4.002,-3.306 -5.668,-4.584 -2.223,-1.723 -4.446,-3.418 -6.668,-5.085 l -5.752,-4.501 c -0.834,-0.667 -1.625,-1.292 -2.376,-1.875 -0.75,-0.584 -1.18,-0.792 -1.292,-0.625 0.445,1.223 0.945,2.333 1.501,3.334 0.556,1 1.194,1.861 1.917,2.584 M -5.732,31.886 v -1.25 c 0,-2.278 0.61,-3.862 1.834,-4.752 0.722,-0.5 1.583,-0.75 2.583,-0.75 0.778,0 1.473,0.862 2.084,2.585 0.111,0.389 0.236,0.832 0.376,1.333 0.138,0.501 0.319,0.75 0.541,0.75 0.278,0 0.417,-0.278 0.417,-0.833 0,-0.223 -0.042,-0.556 -0.125,-1 C 1.894,27.523 1.824,27.163 1.769,26.884 1.047,23.606 0.13,21.063 -0.981,19.257 c -1.112,-1.805 -2.251,-2.708 -3.418,-2.708 -1.834,0 -3.098,0.833 -3.792,2.5 -0.696,1.667 -1.043,3.779 -1.043,6.335 l 10e-4,0.001 c -0.008,0 -0.017,-0.001 -0.025,-0.001 0,0.667 0.306,3.571 0.917,8.711 0.612,5.14 1.111,9.071 1.5,11.794 0.057,0.222 0.5,1.362 1.334,3.418 0.834,2.056 1.5,3.612 2,4.668 0.112,0.055 0.223,0.111 0.334,0.167 0.055,-0.167 0.028,-0.612 -0.083,-1.334 L -3.59,50.641 -5.007,40.472 c -0.277,-2.056 -0.472,-3.835 -0.584,-5.335 -0.11,-1.501 -0.166,-2.584 -0.166,-3.251 -0.01,-0.033 -0.018,-0.065 -0.029,-0.099 z"
             style="fill:#e35732;fill-opacity:1;fill-rule:evenodd;stroke:none"
             id="path1460" /></g></g></g></g></svg>
