<?xml version="1.0" encoding="UTF-8" standalone="no"?>
<svg
   xmlns:dc="http://purl.org/dc/elements/1.1/"
   xmlns:cc="http://creativecommons.org/ns#"
   xmlns:rdf="http://www.w3.org/1999/02/22-rdf-syntax-ns#"
   xmlns:svg="http://www.w3.org/2000/svg"
   xmlns="http://www.w3.org/2000/svg"
   version="1.1"
   id="svg1082"
   xml:space="preserve"
   width="1587.4"
   height="1122.52"
   viewBox="0 0 1587.4 1122.52"><metadata
     id="metadata1088"><rdf:RDF><cc:Work
         rdf:about=""><dc:format>image/svg+xml</dc:format><dc:type
           rdf:resource="http://purl.org/dc/dcmitype/StillImage" /><dc:title></dc:title></cc:Work></rdf:RDF></metadata><defs
     id="defs1086"><clipPath
       clipPathUnits="userSpaceOnUse"
       id="clipPath1098"><path
         d="M 0,841.89 H 1190.551 V 0 H 0 Z"
         id="path1096" /></clipPath></defs><g
     id="g1090"
     transform="matrix(1.3333333,0,0,-1.3333333,0,1122.52)"><g
       id="g1092"
       transform="translate(-24.056083,-27.461856)"><g
         id="g1094"
         clip-path="url(#clipPath1098)"><g
           id="g1100"
           transform="translate(474.054,516.8336)"><path
             d="m 0,0 h 5.261 v -25.89 c 0,-4.338 -2.463,-6.946 -6.801,-6.946 h -6.694 c -4.367,0 -6.765,2.441 -6.765,6.801 v 8.44 c 0,4.391 2.361,6.801 6.765,6.801 h 5.971 v -5.357 h -5.971 c -1.079,0 -1.54,-0.461 -1.54,-1.541 v -8.198 c 0,-1.113 0.42,-1.54 1.54,-1.54 h 6.694 c 1.148,0 1.54,0.392 1.54,1.54 z"
             style="fill:#123c89;fill-opacity:1;fill-rule:evenodd;stroke:none"
             id="path1102" /></g><g
           id="g1104"
           transform="translate(870.2816,572.4528)"><path
             d="m 0,0 -90.556,-35.471 v -23.313 l 62.832,31.604 -62.832,-49.176 v -36.587 l 73.352,72.97 -50.313,-72.958 h 23.639 L 12.217,-17.69 C 6.223,-13.481 1.831,-7.214 0,0"
             style="fill:#ec684a;fill-opacity:1;fill-rule:evenodd;stroke:none"
             id="path1106" /></g><g
           id="g1108"
           transform="translate(884.2533,553.6168)"><path
             d="m 0,0 -39.634,-94.095 h 22.902 l 16.995,59.76 -4.387,-59.76 h 18.901 l 0.835,60.993 12.724,-60.993 H 46.843 L 22.981,-3.643 C 19.982,-4.342 16.828,-4.602 13.595,-4.352 8.614,-3.969 4.001,-2.422 0,0"
             style="fill:#ec684a;fill-opacity:1;fill-rule:evenodd;stroke:none"
             id="path1110" /></g><g
           id="g1112"
           transform="translate(909.5715,550.6177)"><path
             d="m 0,0 37.799,-90.723 0.16,-0.373 v 42.122 l -20.291,34.986 20.291,-18.824 v 14.447 L 25.263,-1.372 37.959,-7.685 V 3.436 L 18.113,15.305 C 14.36,8.021 7.817,2.487 0,0"
             style="fill:#ec684a;fill-opacity:1;fill-rule:evenodd;stroke:none"
             id="path1114" /></g><g
           id="g1116"
           transform="translate(928.6517,567.9844)"><path
             d="m 0,0 18.878,-7.929 v 10.95 l -8.784,3.252 8.784,0.343 v 8.16 l -11.12,2.13 11.12,3.013 v 8.138 L 0.239,23.549 C 1.949,19.29 2.734,14.583 2.357,9.698 2.093,6.264 1.275,3.005 0,0"
             style="fill:#ec684a;fill-opacity:1;fill-rule:evenodd;stroke:none"
             id="path1118" /></g><g
           id="g1120"
           transform="translate(928.1971,593.1307)"><path
             d="M 0,0 19.333,7.249 V 19.426 L -0.844,9.331 19.333,25.546 v 8.65 H 11.277 L -6.792,14.609 5.216,34.196 H -6.142 L -16.367,15.544 C -9.098,12.595 -3.273,6.984 0,0"
             style="fill:#ec684a;fill-opacity:1;fill-rule:evenodd;stroke:none"
             id="path1122" /></g><g
           id="g1124"
           transform="translate(910.3737,609.2228)"><path
             d="m 0,0 6.941,18.104 h -9.704 l -3.086,-9.963 0.601,9.963 h -8.275 l -0.291,-7.743 -2.085,7.743 h -9.007 l 4.389,-18.178 c 3.959,1.413 8.272,2.038 12.734,1.694 C -5.065,1.411 -2.459,0.854 0,0"
             style="fill:#ec684a;fill-opacity:1;fill-rule:evenodd;stroke:none"
             id="path1126" /></g><g
           id="g1128"
           transform="translate(888.2912,608.5432)"><path
             d="m 0,0 -7.356,18.784 h -10.678 l 3.913,-8.78 -7.066,8.78 h -14.106 l 11.66,-12.758 -17.986,12.758 h -27.794 l 54.828,-31.435 C -11.2,-6.995 -6.073,-2.549 0,0"
             style="fill:#ec684a;fill-opacity:1;fill-rule:evenodd;stroke:none"
             id="path1130" /></g><g
           id="g1132"
           transform="translate(872.7999,594.2722)"><path
             d="M 0,0 -72.996,33.055 H -93.075 V 16.57 l 63.012,-18.15 -63.012,8.184 v -17.671 l 58.897,-3.761 -58.897,-7.93 v -21.404 l 90.14,24.243 c -0.488,2.601 -0.647,5.308 -0.435,8.072 C -3.041,-7.576 -1.857,-3.576 0,0"
             style="fill:#ec684a;fill-opacity:1;fill-rule:evenodd;stroke:none"
             id="path1134" /></g><g
           id="g1136"
           transform="translate(499.0218,516.8336)"><path
             d="m 0,0 h 5.261 v -25.89 c 0,-4.338 -2.464,-6.946 -6.801,-6.946 h -6.693 c -4.368,0 -6.766,2.441 -6.766,6.801 v 8.44 c 0,4.391 2.361,6.801 6.766,6.801 h 5.97 v -5.357 h -5.97 c -1.08,0 -1.541,-0.461 -1.541,-1.541 v -8.198 c 0,-1.113 0.42,-1.54 1.541,-1.54 h 6.693 c 1.148,0 1.54,0.392 1.54,1.54 z"
             style="fill:#123c89;fill-opacity:1;fill-rule:evenodd;stroke:none"
             id="path1138" /></g><g
           id="g1140"
           transform="translate(651.1459,511.4261)"><path
             d="m 0,0 v -22.024 h 8.688 c 1.234,0 1.669,0.435 1.669,1.669 v 7.928 c 0,1.136 -0.297,1.669 -1.485,1.669 H 2.303 v 5.372 h 6.605 c 1.192,0 1.449,0.585 1.449,1.705 v 2.012 C 10.357,-0.438 9.918,0 8.688,0 Z m 14.128,-8.06 c 1.107,-1.179 1.636,-2.668 1.636,-4.367 v -7.928 c 0,-4.588 -2.488,-7.075 -7.076,-7.075 H -5.37 V 5.407 H 8.688 c 4.587,0 7.076,-2.488 7.076,-7.076 v -2.012 c 0,-1.701 -0.521,-3.202 -1.636,-4.379"
             style="fill:#123c89;fill-opacity:1;fill-rule:evenodd;stroke:none"
             id="path1142" /></g><g
           id="g1144"
           transform="translate(556.5112,511.3812)"><path
             d="m 0,0 v -5.341 h 13.949 v -5.346 H 0 v -11.284 h 14.481 v -5.414 H -5.266 V 5.452 h 19.57 V 0 Z"
             style="fill:#123c89;fill-opacity:1;fill-rule:evenodd;stroke:none"
             id="path1146" /></g><g
           id="g1148"
           transform="translate(673.0367,500.6945)"><path
             d="m 0,0 v 5.345 h 11.778 c 4.405,0 6.801,-2.483 6.801,-6.885 v -8.356 c 0,-4.399 -2.402,-6.801 -6.801,-6.801 H 5.119 c -4.213,0 -6.801,2.101 -6.801,6.45 v 0.772 c 0,4.34 2.623,6.38 6.801,6.38 h 5.895 V -8.356 H 5.119 c -0.879,0 -1.541,-0.125 -1.541,-1.119 v -0.619 c 0,-1.033 0.603,-1.19 1.541,-1.19 h 6.659 c 1.148,0 1.54,0.392 1.54,1.54 v 8.204 c 0,1.145 -0.398,1.54 -1.54,1.54 z"
             style="fill:#123c89;fill-opacity:1;fill-rule:evenodd;stroke:none"
             id="path1150" /></g><g
           id="g1152"
           transform="translate(701.7965,500.6895)"><path
             d="M 0,0 V -16.694 H -5.37 V 5.407 H 8.688 c 4.59,0 7.076,-2.484 7.076,-7.076 V -16.694 H 10.357 V -1.669 C 10.357,-0.434 9.922,0 8.688,0 Z"
             style="fill:#123c89;fill-opacity:1;fill-rule:evenodd;stroke:none"
             id="path1154" /></g><g
           id="g1156"
           transform="translate(727.8259,499.4314)"><path
             d="m 0,0 7.255,6.608 h 7.471 l -9.31,-8.541 h 2.24 c 4.593,0 7.075,-2.282 7.075,-6.874 v -6.629 H 9.325 v 6.629 c 0,1.239 -0.418,1.707 -1.669,1.707 H 0 v -8.336 H -5.37 V 17.402 H 0 Z"
             style="fill:#123c89;fill-opacity:1;fill-rule:evenodd;stroke:none"
             id="path1158" /></g><g
           id="g1160"
           transform="translate(429.8301,489.4101)"><path
             d="m 0,0 10.059,27.423 h 4.827 V -5.412 H 9.836 V 12.013 L 3.728,-5.412 h -7.636 l -6.145,17.426 V -5.412 h -5.05 v 32.835 h 4.824 z"
             style="fill:#123c89;fill-opacity:1;fill-rule:evenodd;stroke:none"
             id="path1162" /></g><path
           d="m 449.266,506.04 h 5.261 v -22.042 h -5.261 z"
           style="fill:#123c89;fill-opacity:1;fill-rule:evenodd;stroke:none"
           id="path1164" /><path
           d="m 454.502,511.381 h -5.226 v 5.452 h 5.226 z"
           style="fill:#123c89;fill-opacity:1;fill-rule:evenodd;stroke:none"
           id="path1166" /><path
           d="m 508.806,516.834 h 5.226 v -32.836 h -5.226 z"
           style="fill:#123c89;fill-opacity:1;fill-rule:evenodd;stroke:none"
           id="path1168" /><g
           id="g1170"
           transform="translate(538.7182,489.4104)"><path
             d="m 0,0 v -5.413 h -13.476 c -4.378,0 -6.766,2.585 -6.766,6.953 v 8.189 c 0,4.391 2.362,6.801 6.766,6.801 h 6.693 c 4.194,0 6.801,-2.124 6.801,-6.45 V 9.309 c 0,-4.289 -2.673,-6.381 -6.801,-6.381 h -5.945 v 5.261 h 5.945 c 0.893,0 1.541,0.112 1.541,1.12 v 0.771 c 0,1.02 -0.621,1.189 -1.541,1.189 h -6.693 c -1.103,0 -1.54,-0.438 -1.54,-1.54 V 1.54 c 0,-1.123 0.413,-1.54 1.54,-1.54 z"
             style="fill:#123c89;fill-opacity:1;fill-rule:evenodd;stroke:none"
             id="path1172" /></g><g
           id="g1174"
           transform="translate(576.8498,500.6797)"><path
             d="m 0,0 v 5.36 h 11.777 c 4.391,0 6.8,-2.414 6.8,-6.801 v -8.441 c 0,-4.368 -2.432,-6.8 -6.8,-6.8 H 5.118 c -4.196,0 -6.801,2.115 -6.801,6.45 v 0.772 c 0,4.34 2.625,6.38 6.801,6.38 h 5.92 v -5.261 h -5.92 c -0.848,0 -1.54,-0.152 -1.54,-1.119 v -0.657 c 0,-1.015 0.62,-1.189 1.54,-1.189 h 6.659 c 1.148,0 1.541,0.392 1.541,1.54 v 8.226 c 0,1.13 -0.413,1.54 -1.541,1.54 z"
             style="fill:#123c89;fill-opacity:1;fill-rule:evenodd;stroke:none"
             id="path1176" /></g><g
           id="g1178"
           transform="translate(615.7052,506.0398)"><path
             d="m 0,0 v -5.36 h -8.939 c -1.134,0 -1.54,-0.404 -1.54,-1.54 0,-1.149 0.392,-1.54 1.54,-1.54 h 3.961 c 4.408,0 6.801,-2.241 6.801,-6.649 0,-4.396 -2.409,-6.953 -6.801,-6.953 h -9.745 v 5.413 h 9.745 c 1.148,0 1.539,0.391 1.539,1.54 0,1.136 -0.406,1.388 -1.539,1.388 h -3.961 c -4.392,0 -6.8,2.505 -6.8,6.9 0,4.408 2.392,6.801 6.8,6.801 z"
             style="fill:#123c89;fill-opacity:1;fill-rule:evenodd;stroke:none"
             id="path1180" /></g><g
           id="g1182"
           transform="translate(623.6399,506.0398)"><path
             d="M 0,0 V 5.341 H 5.226 V 0 H 9.944 V -5.36 H 5.226 V -22.042 H 0 V -5.36 H -3.3 V 0 Z"
             style="fill:#123c89;fill-opacity:1;fill-rule:evenodd;stroke:none"
             id="path1184" /></g><g
           id="g1186"
           transform="translate(529.1147,558.5411)"><path
             d="m 0,0 v 13.005 h -11.17 c -1.098,0 -1.994,-0.491 -2.692,-1.329 -0.75,-0.9 -1.148,-1.918 -1.148,-3.091 V 0 Z m 9.604,-3.467 -0.002,-9.614 c 0.002,-4.009 -1.493,-7.665 -4.513,-10.504 -3.014,-2.834 -6.668,-4.228 -10.8,-4.228 h -18.777 v 8.636 h 20.647 c 1.105,0 1.993,0.487 2.691,1.328 0.737,0.886 1.149,1.934 1.149,3.092 v 6.083 H -24.484 V 6.908 c 0,4.121 1.69,7.858 4.685,10.695 2.994,2.837 6.376,4.038 10.498,4.038 H 9.616 Z"
             style="fill:#123c89;fill-opacity:1;fill-rule:evenodd;stroke:none"
             id="path1188" /></g><g
           id="g1190"
           transform="translate(316.8774,549.8672)"><path
             d="m 0,0 v 15.601 c 0,3.811 1.475,7.657 4.479,10.502 2.994,2.837 6.582,4.23 10.705,4.23 l 18.95,0.001 v -8.657 l -20.82,0.002 c -1.113,0 -1.985,-0.461 -2.692,-1.31 -0.75,-0.9 -1.148,-1.919 -1.148,-3.092 V 8.666 h 11.115 l 0.016,0.007 c 0.992,0.149 1.916,0.746 2.691,1.327 0.809,0.605 1.304,1.371 1.304,2.395 v 1.041 c -0.012,0.248 -0.018,0.495 -0.018,0.743 v 3.781 h 9.556 v -3.781 c 0,-0.248 -0.006,-0.495 -0.018,-0.743 v -1.041 c 0,-1.022 0.496,-1.792 1.303,-2.395 0.879,-0.659 1.976,-1.326 3.117,-1.326 l 9.36,0.001 c 1.107,0 1.992,0.364 2.691,1.205 0.742,0.893 1.15,1.928 1.15,3.092 v 17.363 h 9.473 V 14.649 C 61.214,10.903 59.731,6.983 56.736,4.146 53.759,1.326 50.128,0 46.03,0 l -6.214,0.002 c -4.013,0 -7.497,1.321 -10.371,4.119 C 27.112,1.85 23.426,0.528 20.224,0.137 19.531,0.076 18.897,0.025 18.138,0 Z"
             style="fill:#123c89;fill-opacity:1;fill-rule:evenodd;stroke:none"
             id="path1192" /></g><g
           id="g1194"
           transform="translate(593.551,549.8697)"><path
             d="m 0,0 v -0.019 h -30.143 c -4.12,0 -7.658,1.346 -10.651,4.182 -3.003,2.844 -4.533,6.418 -4.533,10.55 V 52.79 h 9.475 V 13.037 c 0,-1.172 0.399,-2.193 1.148,-3.092 0.707,-0.847 1.601,-1.276 2.717,-1.276 l 11.025,0.003 h 11.806 v 8.575 c 0,1.173 -0.399,2.191 -1.149,3.092 -0.701,0.841 -1.588,1.328 -2.691,1.328 h -13.859 v 8.636 h 11.989 c 4.122,0 7.538,-1.233 10.532,-4.069 3.004,-2.845 4.651,-6.53 4.651,-10.663 L 0.317,0 Z"
             style="fill:#123c89;fill-opacity:1;fill-rule:evenodd;stroke:none"
             id="path1196" /></g><g
           id="g1198"
           transform="translate(484.3006,540.6869)"><path
             d="m 0,0 c 0.736,0.906 1.121,1.929 1.121,3.097 v 36.398 h 9.604 V 4.773 C 10.725,0.625 9.212,-2.9 6.178,-5.732 3.156,-8.552 -0.458,-9.959 -4.589,-9.959 h -9.093 v 8.636 H -2.654 C -1.55,-1.323 -0.692,-0.852 0,0"
             style="fill:#123c89;fill-opacity:1;fill-rule:evenodd;stroke:none"
             id="path1200" /></g><g
           id="g1202"
           transform="translate(462.0719,571.5457)"><path
             d="m 0,0 h -14.555 l 0.012,-9.038 c 0.003,-2.046 2.577,-3.963 4.507,-3.963 l 13.875,-0.002 v 8.583 c 0,1.173 -0.398,2.191 -1.148,3.092 C 1.993,-0.49 1.098,0 0,0 m -52.223,-21.678 h -7 c -4.118,0 -7.696,1.378 -10.689,4.212 -3.001,2.844 -4.439,6.694 -4.478,10.503 v 38.076 h 9.474 V -8.608 c 0,-1.172 0.4,-2.194 1.149,-3.092 0.706,-0.847 1.502,-1.305 2.617,-1.305 l 5.391,0.006 h 4.686 c 0.387,0 0.759,0.084 1.112,0.217 0.562,0.233 1.024,0.617 1.411,1.082 0.744,0.894 1.206,1.91 1.206,3.077 l -10e-4,17.279 h 9.474 l 0.017,-17.279 c 10e-4,-1.21 0.195,-2.271 1.248,-3.058 1.605,-1.202 4.04,-1.305 6.002,-1.325 1.821,-0.019 3.6,0.113 5.162,1.281 0.807,0.604 1.303,1.372 1.303,2.395 V 8.656 h 22.291 c 4.122,0 7.71,-1.393 10.705,-4.23 2.837,-2.679 4.478,-6.369 4.478,-10.503 v -15.618 l -22.345,0.011 c -0.776,0.019 -1.365,0.051 -2.085,0.124 -3.203,0.392 -5.988,1.685 -8.32,3.955 -2.437,-2.352 -6.148,-3.719 -9.514,-4.09 h 0.027 c -1.026,-0.016 -2.798,0.002 -3.825,0 -3.49,0.33 -7.412,1.781 -9.927,4.204 -1.844,-1.796 -4.01,-3.036 -6.507,-3.652 -0.998,-0.272 -2.033,-0.463 -3.062,-0.535"
             style="fill:#123c89;fill-opacity:1;fill-rule:evenodd;stroke:none"
             id="path1204" /></g><g
           id="g1206"
           transform="translate(654.4891,558.5419)"><path
             d="M 0,0 C 3.224,-0.001 6.233,3.143 6.108,6.497 L -8.628,21.66 14.764,44.121 21.129,37.461 4.746,21.693 22.709,3.389 C 24.123,1.995 26.679,0.013 28.775,0 h 1.845 c 1.115,0 2.01,0.429 2.716,1.277 0.749,0.898 1.149,1.92 1.149,3.091 v 17.291 h 9.474 V 6.044 c 0,-7.691 -5.986,-13.949 -13.569,-14.658 -0.617,-0.046 -1.465,-0.058 -1.615,-0.052 -0.791,-0.002 -1.576,0.006 -2.048,0.028 -4.152,0.194 -7.274,2.342 -10.317,4.972 l -3.219,3.071 -0.675,-1.081 C 9.684,-5.692 6.03,-8.489 0.134,-8.659 L 0.089,-8.664 C -15.288,-8.673 -29.982,-8.675 -45.329,-8.675 V 6.928 c 0,4.133 1.475,7.657 4.479,10.502 2.994,2.836 6.582,4.23 10.704,4.23 h 5.62 v -8.636 h -7.49 c -1.103,0 -1.99,-0.486 -2.691,-1.328 -0.751,-0.901 -1.148,-1.919 -1.148,-3.092 V 0.029 Z"
             style="fill:#123c89;fill-opacity:1;fill-rule:evenodd;stroke:none"
             id="path1208" /></g><g
           id="g1210"
           transform="translate(405.9454,530.7333)"><path
             d="M 0,0 H -0.008 -8.789 V 8.646 H -0.008 0 8.781 V 0 Z"
             style="fill:#123c89;fill-opacity:1;fill-rule:evenodd;stroke:none"
             id="path1212" /></g><path
           d="m 698.463,587.342 h -9.489 v 8.66 h 9.489 z"
           style="fill:#123c89;fill-opacity:1;fill-rule:evenodd;stroke:none"
           id="path1214" /><path
           d="m 576.185,587.342 h -9.489 v 8.66 h 9.489 z"
           style="fill:#123c89;fill-opacity:1;fill-rule:evenodd;stroke:none"
           id="path1216" /><path
           d="m 730.126,530.719 h -9.489 v 8.66 h 9.489 z"
           style="fill:#123c89;fill-opacity:1;fill-rule:evenodd;stroke:none"
           id="path1218" /><path
           d="m 378.092,587.342 h -9.489 v 8.66 h 9.489 z"
           style="fill:#123c89;fill-opacity:1;fill-rule:evenodd;stroke:none"
           id="path1220" /><g
           id="g1222"
           transform="translate(722.2946,549.8672)"><path
             d="m 0,0 c -7.978,0.344 -14.415,6.716 -14.415,14.716 v 38.076 h 9.474 V 13.04 c 0,-1.172 0.4,-2.194 1.149,-3.092 0.706,-0.847 1.601,-1.277 2.717,-1.277 L 0,8.672 v 0.003 h 7.197 c 1.04,0.04 1.882,0.467 2.553,1.273 0.748,0.898 1.148,1.92 1.148,3.092 v 17.295 h 9.474 V 14.913 c 0,-8.194 -6.806,-14.93 -15.183,-14.93 L 0.769,0 Z"
             style="fill:#123c89;fill-opacity:1;fill-rule:evenodd;stroke:none"
             id="path1224" /></g><path
           d="m 291.915,418.996 h 475.3 V 251.179 h -475.3 z"
           style="fill:#123c89;fill-opacity:1;fill-rule:evenodd;stroke:none"
           id="path1226" /><g
           id="g1228"
           transform="translate(474.054,308.503)"><path
             d="m 0,0 h 5.261 v -25.89 c 0,-4.338 -2.463,-6.946 -6.801,-6.946 h -6.694 c -4.367,0 -6.765,2.441 -6.765,6.801 v 8.44 c 0,4.391 2.361,6.801 6.765,6.801 h 5.971 v -5.357 h -5.971 c -1.079,0 -1.54,-0.461 -1.54,-1.541 v -8.198 c 0,-1.113 0.42,-1.54 1.54,-1.54 h 6.694 c 1.148,0 1.54,0.392 1.54,1.54 z"
             style="fill:#ffffff;fill-opacity:1;fill-rule:evenodd;stroke:none"
             id="path1230" /></g><g
           id="g1232"
           transform="translate(870.2816,364.1222)"><path
             d="m 0,0 -90.556,-35.471 v -23.313 l 62.832,31.604 -62.832,-49.176 v -36.587 l 73.352,72.97 -50.313,-72.958 h 23.639 L 12.217,-17.69 C 6.223,-13.481 1.831,-7.215 0,0"
             style="fill:#ec684a;fill-opacity:1;fill-rule:evenodd;stroke:none"
             id="path1234" /></g><g
           id="g1236"
           transform="translate(884.2533,345.2862)"><path
             d="m 0,0 -39.634,-94.095 h 22.902 l 16.995,59.76 -4.387,-59.76 h 18.901 l 0.835,60.993 12.724,-60.993 H 46.843 L 22.981,-3.643 C 19.982,-4.342 16.828,-4.601 13.595,-4.352 8.614,-3.969 4.001,-2.422 0,0"
             style="fill:#ec684a;fill-opacity:1;fill-rule:evenodd;stroke:none"
             id="path1238" /></g><g
           id="g1240"
           transform="translate(909.5715,342.2872)"><path
             d="m 0,0 37.799,-90.723 0.16,-0.373 v 42.121 l -20.291,34.987 20.291,-18.824 v 14.447 L 25.263,-1.372 37.959,-7.685 V 3.436 L 18.113,15.305 C 14.36,8.021 7.817,2.487 0,0"
             style="fill:#ec684a;fill-opacity:1;fill-rule:evenodd;stroke:none"
             id="path1242" /></g><g
           id="g1244"
           transform="translate(928.6517,359.6539)"><path
             d="m 0,0 18.878,-7.929 v 10.95 l -8.784,3.252 8.784,0.343 v 8.16 l -11.12,2.13 11.12,3.013 v 8.138 L 0.239,23.549 C 1.949,19.29 2.734,14.583 2.357,9.698 2.093,6.264 1.275,3.005 0,0"
             style="fill:#ec684a;fill-opacity:1;fill-rule:evenodd;stroke:none"
             id="path1246" /></g><g
           id="g1248"
           transform="translate(928.1971,384.8)"><path
             d="M 0,0 19.333,7.249 V 19.426 L -0.844,9.331 19.333,25.546 v 8.65 H 11.277 L -6.792,14.609 5.216,34.196 H -6.142 L -16.367,15.544 C -9.098,12.595 -3.273,6.984 0,0"
             style="fill:#ec684a;fill-opacity:1;fill-rule:evenodd;stroke:none"
             id="path1250" /></g><g
           id="g1252"
           transform="translate(910.3737,400.8924)"><path
             d="m 0,0 6.941,18.104 h -9.704 l -3.086,-9.963 0.601,9.963 h -8.275 l -0.291,-7.743 -2.085,7.743 h -9.007 l 4.389,-18.178 c 3.959,1.413 8.272,2.038 12.734,1.694 C -5.065,1.411 -2.459,0.854 0,0"
             style="fill:#ec684a;fill-opacity:1;fill-rule:evenodd;stroke:none"
             id="path1254" /></g><g
           id="g1256"
           transform="translate(888.2912,400.2126)"><path
             d="m 0,0 -7.356,18.784 h -10.678 l 3.913,-8.78 -7.066,8.78 h -14.106 l 11.66,-12.757 -17.986,12.757 h -27.794 l 54.828,-31.435 C -11.2,-6.995 -6.073,-2.549 0,0"
             style="fill:#ec684a;fill-opacity:1;fill-rule:evenodd;stroke:none"
             id="path1258" /></g><g
           id="g1260"
           transform="translate(872.7999,385.9416)"><path
             d="M 0,0 -72.996,33.055 H -93.075 V 16.57 l 63.012,-18.15 -63.012,8.184 v -17.671 l 58.897,-3.761 -58.897,-7.93 v -21.404 l 90.14,24.243 c -0.488,2.601 -0.647,5.308 -0.435,8.072 C -3.041,-7.577 -1.857,-3.576 0,0"
             style="fill:#ec684a;fill-opacity:1;fill-rule:evenodd;stroke:none"
             id="path1262" /></g><g
           id="g1264"
           transform="translate(499.0218,308.503)"><path
             d="m 0,0 h 5.261 v -25.89 c 0,-4.338 -2.464,-6.946 -6.801,-6.946 h -6.693 c -4.368,0 -6.766,2.441 -6.766,6.801 v 8.44 c 0,4.391 2.361,6.801 6.766,6.801 h 5.97 v -5.357 h -5.97 c -1.08,0 -1.541,-0.461 -1.541,-1.541 v -8.198 c 0,-1.113 0.42,-1.54 1.541,-1.54 h 6.693 c 1.148,0 1.54,0.392 1.54,1.54 z"
             style="fill:#ffffff;fill-opacity:1;fill-rule:evenodd;stroke:none"
             id="path1266" /></g><g
           id="g1268"
           transform="translate(651.1459,303.0957)"><path
             d="m 0,0 v -22.024 h 8.688 c 1.234,0 1.669,0.434 1.669,1.669 v 7.928 c 0,1.135 -0.297,1.669 -1.485,1.669 H 2.303 v 5.372 h 6.605 c 1.192,0 1.449,0.585 1.449,1.705 v 2.012 C 10.357,-0.438 9.918,0 8.688,0 Z m 14.128,-8.06 c 1.107,-1.179 1.636,-2.668 1.636,-4.367 v -7.928 c 0,-4.588 -2.488,-7.076 -7.076,-7.076 H -5.37 V 5.407 H 8.688 c 4.587,0 7.076,-2.489 7.076,-7.076 v -2.012 c 0,-1.701 -0.521,-3.202 -1.636,-4.379"
             style="fill:#ffffff;fill-opacity:1;fill-rule:evenodd;stroke:none"
             id="path1270" /></g><g
           id="g1272"
           transform="translate(556.5112,303.0506)"><path
             d="m 0,0 v -5.341 h 13.949 v -5.346 H 0 v -11.284 h 14.481 v -5.414 H -5.266 V 5.452 h 19.57 V 0 Z"
             style="fill:#ffffff;fill-opacity:1;fill-rule:evenodd;stroke:none"
             id="path1274" /></g><g
           id="g1276"
           transform="translate(673.0367,292.364)"><path
             d="m 0,0 v 5.345 h 11.778 c 4.405,0 6.801,-2.483 6.801,-6.885 v -8.356 c 0,-4.399 -2.402,-6.801 -6.801,-6.801 H 5.119 c -4.213,0 -6.801,2.101 -6.801,6.45 v 0.772 c 0,4.34 2.623,6.38 6.801,6.38 h 5.895 V -8.356 H 5.119 c -0.879,0 -1.541,-0.125 -1.541,-1.119 v -0.619 c 0,-1.033 0.603,-1.19 1.541,-1.19 h 6.659 c 1.148,0 1.54,0.392 1.54,1.54 v 8.204 c 0,1.144 -0.398,1.54 -1.54,1.54 z"
             style="fill:#ffffff;fill-opacity:1;fill-rule:evenodd;stroke:none"
             id="path1278" /></g><g
           id="g1280"
           transform="translate(701.7965,292.3589)"><path
             d="M 0,0 V -16.694 H -5.37 V 5.407 H 8.688 c 4.59,0 7.076,-2.484 7.076,-7.076 V -16.694 H 10.357 V -1.669 C 10.357,-0.434 9.922,0 8.688,0 Z"
             style="fill:#ffffff;fill-opacity:1;fill-rule:evenodd;stroke:none"
             id="path1282" /></g><g
           id="g1284"
           transform="translate(727.8259,291.1009)"><path
             d="m 0,0 7.255,6.608 h 7.471 l -9.31,-8.541 h 2.24 c 4.593,0 7.075,-2.282 7.075,-6.874 v -6.629 H 9.325 v 6.629 c 0,1.239 -0.418,1.707 -1.669,1.707 H 0 v -8.336 H -5.37 V 17.402 H 0 Z"
             style="fill:#ffffff;fill-opacity:1;fill-rule:evenodd;stroke:none"
             id="path1286" /></g><g
           id="g1288"
           transform="translate(429.8301,281.0795)"><path
             d="m 0,0 10.059,27.423 h 4.827 V -5.412 H 9.836 V 12.013 L 3.728,-5.412 h -7.636 l -6.145,17.426 V -5.412 h -5.05 v 32.835 h 4.824 z"
             style="fill:#ffffff;fill-opacity:1;fill-rule:evenodd;stroke:none"
             id="path1290" /></g><path
           d="m 449.266,297.709 h 5.261 v -22.042 h -5.261 z"
           style="fill:#ffffff;fill-opacity:1;fill-rule:evenodd;stroke:none"
           id="path1292" /><path
           d="m 454.502,303.051 h -5.226 v 5.452 h 5.226 z"
           style="fill:#ffffff;fill-opacity:1;fill-rule:evenodd;stroke:none"
           id="path1294" /><path
           d="m 508.806,308.503 h 5.226 v -32.836 h -5.226 z"
           style="fill:#ffffff;fill-opacity:1;fill-rule:evenodd;stroke:none"
           id="path1296" /><g
           id="g1298"
           transform="translate(538.7182,281.0798)"><path
             d="m 0,0 v -5.413 h -13.476 c -4.378,0 -6.766,2.585 -6.766,6.953 v 8.189 c 0,4.391 2.362,6.801 6.766,6.801 h 6.693 c 4.194,0 6.801,-2.124 6.801,-6.45 V 9.309 c 0,-4.289 -2.673,-6.381 -6.801,-6.381 h -5.945 v 5.261 h 5.945 c 0.893,0 1.541,0.112 1.541,1.12 v 0.771 c 0,1.02 -0.621,1.189 -1.541,1.189 h -6.693 c -1.103,0 -1.54,-0.438 -1.54,-1.54 V 1.54 c 0,-1.122 0.413,-1.54 1.54,-1.54 z"
             style="fill:#ffffff;fill-opacity:1;fill-rule:evenodd;stroke:none"
             id="path1300" /></g><g
           id="g1302"
           transform="translate(576.8498,292.3492)"><path
             d="m 0,0 v 5.36 h 11.777 c 4.391,0 6.8,-2.415 6.8,-6.801 v -8.441 c 0,-4.368 -2.432,-6.8 -6.8,-6.8 H 5.118 c -4.196,0 -6.801,2.115 -6.801,6.45 v 0.772 c 0,4.34 2.625,6.38 6.801,6.38 h 5.92 v -5.261 h -5.92 c -0.848,0 -1.54,-0.152 -1.54,-1.119 v -0.657 c 0,-1.015 0.62,-1.189 1.54,-1.189 h 6.659 c 1.148,0 1.541,0.392 1.541,1.54 v 8.226 c 0,1.13 -0.413,1.54 -1.541,1.54 z"
             style="fill:#ffffff;fill-opacity:1;fill-rule:evenodd;stroke:none"
             id="path1304" /></g><g
           id="g1306"
           transform="translate(615.7052,297.7093)"><path
             d="m 0,0 v -5.36 h -8.939 c -1.134,0 -1.54,-0.405 -1.54,-1.54 0,-1.149 0.392,-1.54 1.54,-1.54 h 3.961 c 4.408,0 6.801,-2.241 6.801,-6.649 0,-4.396 -2.409,-6.953 -6.801,-6.953 h -9.745 v 5.413 h 9.745 c 1.148,0 1.539,0.391 1.539,1.54 0,1.135 -0.406,1.388 -1.539,1.388 h -3.961 c -4.392,0 -6.8,2.505 -6.8,6.9 0,4.408 2.392,6.801 6.8,6.801 z"
             style="fill:#ffffff;fill-opacity:1;fill-rule:evenodd;stroke:none"
             id="path1308" /></g><g
           id="g1310"
           transform="translate(623.6399,297.7093)"><path
             d="M 0,0 V 5.341 H 5.226 V 0 H 9.944 V -5.36 H 5.226 V -22.042 H 0 V -5.36 H -3.3 V 0 Z"
             style="fill:#ffffff;fill-opacity:1;fill-rule:evenodd;stroke:none"
             id="path1312" /></g><g
           id="g1314"
           transform="translate(529.1147,350.2106)"><path
             d="m 0,0 v 13.004 h -11.17 c -1.098,0 -1.994,-0.49 -2.692,-1.328 -0.75,-0.9 -1.148,-1.918 -1.148,-3.091 V 0 Z m 9.604,-3.467 -0.002,-9.614 c 0.002,-4.009 -1.493,-7.665 -4.513,-10.504 -3.014,-2.834 -6.668,-4.228 -10.8,-4.228 h -18.777 v 8.636 h 20.647 c 1.105,0 1.993,0.487 2.691,1.327 0.737,0.887 1.149,1.935 1.149,3.093 v 6.083 H -24.484 V 6.908 c 0,4.121 1.69,7.858 4.685,10.695 2.994,2.837 6.376,4.038 10.498,4.038 H 9.616 Z"
             style="fill:#ffffff;fill-opacity:1;fill-rule:evenodd;stroke:none"
             id="path1316" /></g><g
           id="g1318"
           transform="translate(316.8774,341.5366)"><path
             d="m 0,0 v 15.601 c 0,3.811 1.475,7.657 4.479,10.502 2.994,2.837 6.582,4.23 10.705,4.23 l 18.95,0.001 v -8.657 l -20.82,0.002 c -1.113,0 -1.985,-0.461 -2.692,-1.31 -0.75,-0.9 -1.148,-1.919 -1.148,-3.092 V 8.666 h 11.115 l 0.016,0.007 c 0.992,0.15 1.916,0.746 2.691,1.327 0.809,0.605 1.304,1.371 1.304,2.395 v 1.041 c -0.012,0.248 -0.018,0.495 -0.018,0.743 v 3.781 h 9.556 v -3.781 c 0,-0.248 -0.006,-0.495 -0.018,-0.743 v -1.041 c 0,-1.022 0.496,-1.792 1.303,-2.395 0.879,-0.659 1.976,-1.326 3.117,-1.326 l 9.36,0.001 c 1.107,0 1.992,0.364 2.691,1.205 0.742,0.893 1.15,1.929 1.15,3.092 v 17.363 h 9.473 V 14.649 C 61.214,10.903 59.731,6.983 56.736,4.146 53.759,1.326 50.128,0 46.03,0 l -6.214,0.002 c -4.013,0 -7.497,1.321 -10.371,4.119 C 27.112,1.85 23.426,0.528 20.224,0.137 19.531,0.076 18.897,0.026 18.138,0 Z"
             style="fill:#ffffff;fill-opacity:1;fill-rule:evenodd;stroke:none"
             id="path1320" /></g><g
           id="g1322"
           transform="translate(593.551,341.5391)"><path
             d="m 0,0 v -0.019 h -30.143 c -4.12,0 -7.658,1.346 -10.651,4.182 -3.003,2.844 -4.533,6.418 -4.533,10.551 V 52.79 h 9.475 V 13.037 c 0,-1.171 0.399,-2.193 1.148,-3.092 0.707,-0.847 1.601,-1.276 2.717,-1.276 l 11.025,0.003 h 11.806 v 8.575 c 0,1.173 -0.399,2.191 -1.149,3.092 -0.701,0.842 -1.588,1.328 -2.691,1.328 h -13.859 v 8.636 h 11.989 c 4.122,0 7.538,-1.233 10.532,-4.069 3.004,-2.845 4.651,-6.53 4.651,-10.663 L 0.317,0 Z"
             style="fill:#ffffff;fill-opacity:1;fill-rule:evenodd;stroke:none"
             id="path1324" /></g><g
           id="g1326"
           transform="translate(484.3006,332.3563)"><path
             d="m 0,0 c 0.736,0.906 1.121,1.929 1.121,3.097 v 36.398 h 9.604 V 4.773 C 10.725,0.625 9.212,-2.9 6.178,-5.732 3.156,-8.552 -0.458,-9.959 -4.589,-9.959 h -9.093 v 8.636 H -2.654 C -1.55,-1.323 -0.692,-0.852 0,0"
             style="fill:#ffffff;fill-opacity:1;fill-rule:evenodd;stroke:none"
             id="path1328" /></g><g
           id="g1330"
           transform="translate(462.0719,363.2151)"><path
             d="m 0,0 h -14.555 l 0.012,-9.038 c 0.003,-2.046 2.577,-3.963 4.507,-3.963 l 13.875,-0.002 v 8.583 c 0,1.174 -0.398,2.191 -1.148,3.092 C 1.993,-0.49 1.098,0 0,0 m -52.223,-21.678 h -7 c -4.118,0 -7.696,1.378 -10.689,4.212 -3.001,2.844 -4.439,6.694 -4.478,10.503 v 38.076 h 9.474 V -8.608 c 0,-1.172 0.4,-2.194 1.149,-3.092 0.706,-0.847 1.502,-1.305 2.617,-1.305 l 5.391,0.006 h 4.686 c 0.387,0 0.759,0.084 1.112,0.217 0.562,0.233 1.024,0.617 1.411,1.082 0.744,0.894 1.206,1.91 1.206,3.077 l -10e-4,17.279 h 9.474 l 0.017,-17.279 c 10e-4,-1.209 0.195,-2.271 1.248,-3.058 1.605,-1.202 4.04,-1.305 6.002,-1.325 1.821,-0.019 3.6,0.113 5.162,1.281 0.807,0.604 1.303,1.372 1.303,2.395 V 8.656 h 22.291 c 4.122,0 7.71,-1.393 10.705,-4.23 2.837,-2.679 4.478,-6.369 4.478,-10.503 v -15.618 l -22.345,0.011 c -0.776,0.019 -1.365,0.051 -2.085,0.124 -3.203,0.392 -5.988,1.685 -8.32,3.955 -2.437,-2.352 -6.148,-3.719 -9.514,-4.09 h 0.027 c -1.026,-0.016 -2.798,0.002 -3.825,0 -3.49,0.33 -7.412,1.781 -9.927,4.204 -1.844,-1.796 -4.01,-3.036 -6.507,-3.652 -0.998,-0.272 -2.033,-0.463 -3.062,-0.535"
             style="fill:#ffffff;fill-opacity:1;fill-rule:evenodd;stroke:none"
             id="path1332" /></g><g
           id="g1334"
           transform="translate(654.4891,350.2114)"><path
             d="M 0,0 C 3.224,-0.001 6.233,3.143 6.108,6.497 L -8.628,21.66 14.764,44.121 21.129,37.461 4.746,21.693 22.709,3.389 C 24.123,1.995 26.679,0.013 28.775,0 h 1.845 c 1.115,0 2.01,0.429 2.716,1.276 0.749,0.899 1.149,1.921 1.149,3.092 v 17.291 h 9.474 V 6.044 c 0,-7.691 -5.986,-13.95 -13.569,-14.658 -0.617,-0.046 -1.465,-0.058 -1.615,-0.052 -0.791,-0.002 -1.576,0.006 -2.048,0.028 -4.152,0.194 -7.274,2.342 -10.317,4.972 l -3.219,3.071 -0.675,-1.081 C 9.684,-5.692 6.03,-8.489 0.134,-8.659 L 0.089,-8.664 C -15.288,-8.673 -29.982,-8.675 -45.329,-8.675 V 6.928 c 0,4.133 1.475,7.657 4.479,10.502 2.994,2.836 6.582,4.23 10.704,4.23 h 5.62 v -8.636 h -7.49 c -1.103,0 -1.99,-0.486 -2.691,-1.328 -0.751,-0.901 -1.148,-1.919 -1.148,-3.092 V 0.029 Z"
             style="fill:#ffffff;fill-opacity:1;fill-rule:evenodd;stroke:none"
             id="path1336" /></g><g
           id="g1338"
           transform="translate(405.9454,322.4026)"><path
             d="M 0,0 H -0.008 -8.789 V 8.646 H -0.008 0 8.781 V 0 Z"
             style="fill:#ffffff;fill-opacity:1;fill-rule:evenodd;stroke:none"
             id="path1340" /></g><path
           d="m 698.463,379.011 h -9.489 v 8.66 h 9.489 z"
           style="fill:#ffffff;fill-opacity:1;fill-rule:evenodd;stroke:none"
           id="path1342" /><path
           d="m 576.185,379.011 h -9.489 v 8.66 h 9.489 z"
           style="fill:#ffffff;fill-opacity:1;fill-rule:evenodd;stroke:none"
           id="path1344" /><path
           d="m 730.126,322.388 h -9.489 v 8.66 h 9.489 z"
           style="fill:#ffffff;fill-opacity:1;fill-rule:evenodd;stroke:none"
           id="path1346" /><path
           d="m 378.092,379.011 h -9.489 v 8.66 h 9.489 z"
           style="fill:#ffffff;fill-opacity:1;fill-rule:evenodd;stroke:none"
           id="path1348" /><g
           id="g1350"
           transform="translate(722.2946,341.5366)"><path
             d="m 0,0 c -7.978,0.344 -14.415,6.716 -14.415,14.716 v 38.076 h 9.474 V 13.04 c 0,-1.172 0.4,-2.194 1.149,-3.092 0.706,-0.847 1.601,-1.277 2.717,-1.277 L 0,8.672 v 0.003 h 7.197 c 1.04,0.04 1.882,0.468 2.553,1.273 0.748,0.898 1.148,1.92 1.148,3.092 v 17.295 h 9.474 V 14.913 c 0,-8.193 -6.806,-14.93 -15.183,-14.93 L 0.769,0 Z"
             style="fill:#ffffff;fill-opacity:1;fill-rule:evenodd;stroke:none"
             id="path1352" /></g></g></g></g></svg>
