<?xml version="1.0" encoding="UTF-8" standalone="no"?>
<svg
   xmlns:dc="http://purl.org/dc/elements/1.1/"
   xmlns:cc="http://creativecommons.org/ns#"
   xmlns:rdf="http://www.w3.org/1999/02/22-rdf-syntax-ns#"
   xmlns:svg="http://www.w3.org/2000/svg"
   xmlns="http://www.w3.org/2000/svg"
   xmlns:sodipodi="http://sodipodi.sourceforge.net/DTD/sodipodi-0.dtd"
   xmlns:inkscape="http://www.inkscape.org/namespaces/inkscape"
   version="1.1"
   id="svg1506"
   xml:space="preserve"
   width="1056"
   height="816"
   viewBox="0 0 1056 816"
   sodipodi:docname="mehr-eghtesad.svg"
   inkscape:version="1.0.1 (3bc2e813f5, 2020-09-07)"><sodipodi:namedview
     pagecolor="#ffffff"
     bordercolor="#666666"
     borderopacity="1"
     objecttolerance="10"
     gridtolerance="10"
     guidetolerance="10"
     inkscape:pageopacity="0"
     inkscape:pageshadow="2"
     inkscape:window-width="1848"
     inkscape:window-height="1009"
     id="namedview2134"
     showgrid="false"
     inkscape:zoom="0.79307804"
     inkscape:cx="528"
     inkscape:cy="408"
     inkscape:window-x="72"
     inkscape:window-y="34"
     inkscape:window-maximized="1"
     inkscape:current-layer="svg1506" /><metadata
     id="metadata1512"><rdf:RDF><cc:Work
         rdf:about=""><dc:format>image/svg+xml</dc:format><dc:type
           rdf:resource="http://purl.org/dc/dcmitype/StillImage" /><dc:title /></cc:Work></rdf:RDF></metadata><defs
     id="defs1510"><clipPath
       clipPathUnits="userSpaceOnUse"
       id="clipPath1522"><path
         d="M 0,612 H 792 V 0 H 0 Z"
         id="path1520" /></clipPath></defs><g
     id="g1514"
     transform="matrix(2.2557824,0,0,-2.2557824,-367.43085,1104.5048)"><g
       id="g1516"><g
         id="g1518"
         clip-path="url(#clipPath1522)"><g
           id="g1524"
           transform="translate(205.6318,312.8262)"><path
             d="m 0,0 c 0,10.639 8.627,19.269 19.268,19.269 10.637,0 19.265,-8.63 19.265,-19.269 0,-10.642 -8.628,-19.262 -19.266,-19.262 C 8.627,-19.262 0,-10.637 0,0"
             style="fill:#f7941e;fill-opacity:1;fill-rule:evenodd;stroke:none"
             id="path1526" /></g><g
           id="g1528"
           transform="translate(225.1586,252.8051)"><path
             d="M 0,0 -13.245,13.242 19.97,46.594 c 9.765,9.807 26.406,5.756 32.713,-8.558 -6.608,0.59 -13.047,1.615 -18.521,-3.957 z"
             style="fill:#00a450;fill-opacity:1;fill-rule:evenodd;stroke:none"
             id="path1530" /></g><g
           id="g1532"
           transform="translate(165.1905,312.7301)"><path
             d="m 0,0 13.243,13.245 33.351,-33.216 c 9.808,-9.766 5.757,-26.406 -8.558,-32.713 0.59,6.608 1.616,13.047 -3.956,18.521 z"
             style="fill:#00a450;fill-opacity:1;fill-rule:evenodd;stroke:none"
             id="path1534" /></g><g
           id="g1536"
           transform="translate(225.3533,372.714)"><path
             d="m 0,0 13.243,-13.243 -33.216,-33.351 c -9.763,-9.807 -26.405,-5.756 -32.713,8.557 6.61,-0.589 13.049,-1.615 18.521,3.957 z"
             style="fill:#00a450;fill-opacity:1;fill-rule:evenodd;stroke:none"
             id="path1538" /></g><g
           id="g1540"
           transform="translate(285.2355,312.818)"><path
             d="M 0,0 -13.243,-13.245 -46.594,19.97 c -9.807,9.765 -5.756,26.407 8.557,32.713 -0.589,-6.607 -1.615,-13.047 3.957,-18.521 z"
             style="fill:#00a450;fill-opacity:1;fill-rule:evenodd;stroke:none"
             id="path1542" /></g><g
           id="g1544"
           transform="translate(538.4921,335.8129)"><path
             d="m 0,0 c -4.1,-5.358 -9.002,-15.576 -11.224,-19.395 -2.733,-4.7 -28.264,-17.661 -55.729,-22.033 -27.468,-4.371 -56.582,-1.404 -64.547,1.566 -7.963,2.969 -10.168,0.811 -11.989,-2.393 -2.335,-4.095 -8.844,-18.323 -13.023,-23.698 -4.172,-5.374 -8.991,-9.263 -6.694,-11.289 2.296,-2.025 8.312,3.29 11.833,9.723 3.521,6.431 7.514,14.97 7.514,14.97 0,0 12.174,-7.767 57.762,-4.413 41.226,3.033 76.62,28.137 86.097,34.533 v 7.601 c -0.518,-0.33 -1.02,-0.653 -1.494,-0.97 -2.936,-1.971 -6.484,-3.456 -6.484,-3.456 0,0 4.299,9.272 7.978,13.591 z m 0,-22.429 c 1.003,0.676 1.718,1.145 2.117,1.355 1.434,0.463 2.656,0.807 3.801,1.132 v 2.627 c -1.235,-0.442 -2.06,-0.696 -2.06,-0.696 0,0 0.86,1.506 2.06,3.446 v 4.169 C 4.216,-12.156 1.996,-13.554 0,-14.828 Z M 5.918,3.816 C 4.898,3.858 3.795,3.592 2.675,2.799 1.855,2.22 0.949,1.24 0,0 v -5.663 c 0.387,0.454 0.767,0.854 1.135,1.182 1.671,1.49 3.455,1.574 4.783,0.925 z m 0,-23.758 v 2.627 c 1.718,0.615 4.229,1.593 6.421,2.756 v -3.12 C 9.891,-18.8 8.036,-19.34 5.918,-19.942 M 12.339,3.112 C 12.108,2.769 11.892,2.428 11.687,2.087 11.53,1.825 11.134,0.998 11.134,0.998 c 0,0 -2.262,2.699 -5.216,2.818 V -3.556 C 7.667,-4.412 8.624,-6.54 7.482,-8.409 7.045,-9.122 6.513,-9.781 5.918,-10.396 v -4.169 c 1.369,2.212 3.18,4.988 4.663,6.738 0.549,0.647 1.141,1.259 1.758,1.807 z m 29.543,27.302 c -2.234,0.542 -9.196,1.158 -9.196,1.158 -3.191,-3.562 -4.797,-8.461 -6.777,-12.808 -0.883,-1.94 -0.575,-2.981 -0.575,-2.981 0,0 -0.027,-0.312 0.256,-0.441 0.288,-0.132 0.61,0 1.302,0.084 0.688,0.085 1.463,0.085 1.747,-0.084 0.287,-0.171 -0.245,-0.349 -0.245,-0.349 0,0 -4.224,-1.894 -8.773,-4.996 C 15.717,7.338 13.735,5.184 12.339,3.112 V -6.02 c 2.519,2.236 5.464,3.408 7.641,1.548 2.711,-2.314 -1.679,-6.133 -5.464,-8.777 -0.651,-0.455 -1.394,-0.894 -2.177,-1.31 v -3.12 c 1.096,0.501 2.31,1.119 3.722,1.912 6.273,3.519 9.293,7.178 9.219,13.366 -0.068,6.187 -9.872,4.086 -9.872,4.086 l 0.32,0.445 c 4.285,6.202 14.759,7.12 20.795,10.897 2.808,1.765 7.782,6.075 9.059,10.613 1.278,4.538 -1.461,6.23 -3.7,6.774"
             style="fill:#231f20;fill-opacity:1;fill-rule:evenodd;stroke:none"
             id="path1546" /></g><g
           id="g1548"
           transform="translate(592.877,286.953)"><path
             d="m 0,0 c -0.264,0 -0.546,-0.413 -0.841,-1.232 -0.297,-0.822 -0.658,-1.539 -1.086,-2.152 -0.43,-0.615 -1.044,-1.001 -1.841,-1.17 -0.799,-0.165 -1.594,0 -2.397,0.502 -1.325,0.919 -1.993,2.549 -1.993,4.886 v 1.212 c 0,1.003 0.074,2.535 0.222,4.597 0.148,2.311 1.065,7.533 2.749,15.666 0.148,0.806 0.37,1.783 0.665,2.922 0.059,0.502 -0.044,0.741 -0.311,0.711 -0.262,-0.027 -0.472,-0.222 -0.62,-0.582 -0.121,-0.224 -0.312,-0.588 -0.576,-1.088 -0.268,-0.503 -0.577,-1.129 -0.933,-1.88 -1.24,-2.313 -1.935,-3.758 -2.083,-4.345 l -1.241,-4.888 c -0.77,-2.563 -1.76,-4.665 -2.972,-6.309 -1.716,-2.312 -4.034,-4.274 -6.958,-5.89 -6.328,-3.73 -14.429,-5.987 -24.302,-6.768 -2.099,-0.167 -4.834,-0.252 -8.203,-0.252 -6.266,0 -10.227,0.851 -11.88,2.55 -0.802,0.865 -1.243,1.852 -1.332,2.965 -0.088,1.114 -0.223,1.671 -0.398,1.671 -0.596,0.252 -1.008,-0.651 -1.243,-2.713 -0.238,-2.061 -0.372,-4.011 -0.397,-5.849 0.056,-2.145 0.559,-3.747 1.506,-4.802 0.913,-1.087 2.672,-1.854 5.277,-2.299 1.83,-0.277 3.963,-0.419 6.384,-0.419 h 1.333 c 4.28,0 8.334,0.391 12.145,1.168 3.904,0.755 7.405,1.673 10.511,2.757 3.071,1.087 5.972,2.577 8.691,4.472 2.776,1.921 5.054,3.941 6.826,6.058 0.711,0.918 1.538,2.005 2.487,3.259 0.236,0.306 0.634,0.818 1.194,1.546 0.119,0.112 0.237,0.152 0.354,0.125 0.062,-0.029 0.091,-0.141 0.091,-0.335 -0.179,-1.197 -0.355,-2.59 -0.534,-4.177 -0.174,-1.55 -0.274,-3.016 -0.306,-4.408 0,-0.007 -0.002,-0.013 -0.004,-0.021 v -0.293 c -0.059,-2.562 0.31,-4.652 1.107,-6.266 0.888,-1.643 2.131,-2.493 3.726,-2.547 1.567,0.081 2.897,0.849 3.989,2.298 1.094,1.447 1.96,3.301 2.595,5.555 0.637,2.256 0.969,3.885 1,4.887 C 0.458,-0.293 0.325,0 0,0"
             style="fill:#231f20;fill-opacity:1;fill-rule:evenodd;stroke:none"
             id="path1550" /></g><g
           id="g1552"
           transform="translate(597.8927,307.5903)"><path
             d="m 0,0 c -1.242,1.183 -2.188,1.651 -2.84,1.399 -0.324,0 -1.04,-1.023 -2.149,-3.069 -1.11,-2.048 -1.662,-3.38 -1.662,-3.99 0,-0.307 0.222,-0.6 0.664,-0.879 0.503,-0.333 1.279,-0.83 2.329,-1.484 1.048,-0.655 1.66,-1.021 1.837,-1.107 0.475,0 1.228,0.835 2.264,2.51 1.034,1.67 1.551,2.95 1.551,3.841 C 1.905,-2.109 1.241,-1.183 0,0"
             style="fill:#231f20;fill-opacity:1;fill-rule:evenodd;stroke:none"
             id="path1554" /></g><g
           id="g1556"
           transform="translate(614.5051,286.953)"><path
             d="m 0,0 c -0.267,0 -0.548,-0.413 -0.842,-1.232 -0.297,-0.822 -0.657,-1.539 -1.087,-2.152 -0.43,-0.615 -1.044,-1.001 -1.841,-1.17 -0.797,-0.165 -1.596,0 -2.391,0.502 -1.335,0.919 -1.996,2.549 -1.996,4.886 v 1.294 c 0,0.166 0.07,1.139 0.219,2.923 0.149,1.781 0.548,5.066 1.198,9.853 0.65,4.788 1.022,8.033 1.109,9.732 0,0.222 -0.081,0.359 -0.247,0.415 -0.16,0.056 -0.316,-0.082 -0.463,-0.415 -1.448,-3.452 -2.411,-5.861 -2.881,-7.224 -0.919,-4.707 -1.605,-9 -2.062,-12.884 -0.457,-3.855 -0.699,-6.865 -0.731,-9.035 0,-0.002 -10e-4,-0.002 -10e-4,-0.005 v -0.293 c -0.059,-2.562 0.309,-4.652 1.106,-6.266 0.889,-1.643 2.133,-2.493 3.726,-2.547 1.565,0.081 2.897,0.849 3.989,2.298 1.098,1.447 1.96,3.301 2.597,5.555 0.635,2.256 0.969,3.885 0.997,4.887 C 0.46,-0.293 0.325,0 0,0"
             style="fill:#231f20;fill-opacity:1;fill-rule:evenodd;stroke:none"
             id="path1558" /></g><g
           id="g1560"
           transform="translate(608.6224,268.8183)"><path
             d="m 0,0 c -0.326,0 -1.043,-1.023 -2.152,-3.071 -1.108,-2.046 -1.661,-3.377 -1.661,-3.989 0,-0.307 0.221,-0.598 0.664,-0.876 0.504,-0.335 1.278,-0.829 2.327,-1.483 1.049,-0.654 1.666,-1.026 1.842,-1.108 0.472,0 1.226,0.833 2.26,2.505 1.036,1.673 1.556,2.954 1.556,3.843 C 4.745,-3.511 4.079,-2.582 2.837,-1.401 1.598,-0.216 0.65,0.251 0,0"
             style="fill:#231f20;fill-opacity:1;fill-rule:evenodd;stroke:none"
             id="path1562" /></g><g
           id="g1564"
           transform="translate(625.3816,351.2175)"><path
             d="M 0,0 C 3.561,3.856 5.453,5.87 5.678,6.054 6.019,6.22 6.139,6.019 6.032,5.452 5.513,4.439 4.875,3.151 4.133,1.59 3.459,0.259 2.689,-1 1.825,-2.172 0.858,-3.526 -0.104,-4.78 -1.059,-5.94 c -1.365,-1.603 -2.994,-3.358 -4.886,-5.263 -1.891,-1.908 -5.67,-5.381 -11.319,-10.415 -5.652,-5.032 -10.342,-9.113 -14.074,-12.241 -3.73,-3.126 -5.662,-4.607 -5.789,-4.45 -0.535,0.046 -0.15,1.205 1.171,3.478 0.606,1.018 1.311,1.96 2.11,2.829 1.374,1.463 4.032,3.998 7.982,7.599 1.815,1.554 5.689,5.048 11.624,10.474 z"
             style="fill:#231f20;fill-opacity:1;fill-rule:evenodd;stroke:none"
             id="path1566" /></g><g
           id="g1568"
           transform="translate(341.0128,295.0428)"><path
             d="m 0,0 v -2.749 c -0.448,-0.293 -0.866,-0.707 -1.255,-1.239 -0.823,-1.129 -1.447,-2.021 -1.871,-2.683 -0.427,-0.664 -0.901,-1.404 -1.43,-2.221 0.586,-0.027 1.408,0.065 2.464,0.274 0.7,0.141 1.397,0.384 2.092,0.728 v -5.924 c -0.69,-0.25 -1.153,-0.413 -1.387,-0.489 -0.242,-0.083 -0.514,-0.163 -0.796,-0.242 -1.419,-0.615 -2.897,-0.94 -4.444,-0.94 -1.556,0.027 -2.786,0.222 -3.696,0.571 -0.911,0.352 -1.614,0.697 -2.112,1.035 -0.237,0.057 -0.611,-0.253 -1.124,-0.93 -0.512,-0.676 -1.189,-1.661 -2.025,-2.959 -0.836,-1.295 -1.777,-2.276 -2.818,-2.939 -1.042,-0.66 -2.267,-0.991 -3.675,-0.991 -2.084,0.055 -3.686,0.851 -4.799,2.388 -1.117,1.536 -1.615,3.796 -1.498,6.782 -0.015,0.003 -0.029,0.001 -0.043,0.003 0.027,2.194 0.272,5.258 0.726,9.189 0.456,3.929 1.138,8.274 2.046,13.034 0.47,1.379 1.424,3.817 2.862,7.31 0.146,0.339 0.3,0.48 0.462,0.426 0.162,-0.058 0.244,-0.204 0.244,-0.426 -0.088,-1.719 -0.458,-4.999 -1.1,-9.845 -0.646,-4.845 -1.044,-8.168 -1.193,-9.972 -0.143,-1.799 -0.219,-2.781 -0.219,-2.956 0,-2.368 0.428,-4.155 1.278,-5.367 1.204,-1.691 2.758,-2.535 4.667,-2.535 1.143,0 2.103,0.19 2.883,0.568 0.777,0.383 1.446,1.037 2.002,1.967 0.558,0.93 1.147,1.755 1.763,2.473 0.617,0.719 1.26,0.964 1.935,0.739 0.528,-0.251 1.151,-0.471 1.871,-0.654 0.72,-0.183 1.301,-0.288 1.74,-0.318 0.293,0.227 0.851,1.006 1.674,2.345 0.819,1.34 1.65,2.629 2.487,3.87 C -1.621,-1.686 -0.857,-0.793 0,0 M 0,38.946 V 28.499 c -0.232,0.038 -0.543,0.218 -0.934,0.545 -0.416,0.336 -1.062,0.844 -1.935,1.521 -0.875,0.68 -1.311,1.101 -1.311,1.273 0,0.364 0.608,1.637 1.822,3.808 1.216,2.176 1.958,3.261 2.224,3.261 0.043,0.017 0.088,0.03 0.134,0.039 M -40.087,3.029 c 0.203,0.594 0.645,0.692 1.32,0.294 3.786,-2.195 5.677,-5.141 5.677,-8.832 -0.146,-2.761 -0.755,-5.177 -1.825,-7.248 -1.072,-2.071 -2.164,-3.642 -3.279,-4.714 -1.909,-1.859 -4.667,-3.225 -8.278,-4.099 -0.44,-0.086 -0.793,-0.129 -1.055,-0.129 -0.354,0 -0.529,0.086 -0.529,0.258 0,0.305 0.529,0.826 1.584,1.562 2.114,1.407 4.096,3.014 5.942,4.818 1.792,1.719 2.686,2.86 2.686,3.423 0,1.466 -1.673,3.508 -5.017,6.129 -0.618,0.478 -0.808,1.072 -0.574,1.775 0.88,1.634 1.997,3.889 3.348,6.763 m 54.046,37.278 c 0,0.364 0.607,1.635 1.822,3.808 1.216,2.173 1.958,3.259 2.224,3.259 0.504,0.199 1.238,-0.147 2.2,-1.036 0.964,-0.888 1.694,-1.672 2.203,-2.349 0.591,0.932 1.249,1.976 1.977,3.134 0.725,1.158 1.207,1.735 1.444,1.735 0.742,0 1.624,-0.517 2.645,-1.546 1.023,-1.03 1.564,-1.997 1.623,-2.901 0,-1.073 -0.549,-2.343 -1.645,-3.809 -1.068,-1.442 -1.852,-2.161 -2.355,-2.161 -0.328,0 -0.919,0.41 -1.779,1.228 -0.861,0.819 -1.616,1.453 -2.268,1.904 -1.599,-3.076 -2.875,-4.612 -3.823,-4.612 -0.238,0 -0.577,0.183 -1.022,0.549 -0.416,0.336 -1.059,0.848 -1.936,1.524 -0.873,0.68 -1.31,1.103 -1.31,1.273 M 0,28.499 v 10.447 c 0.496,0.097 1.185,-0.263 2.068,-1.075 0.961,-0.892 1.693,-1.674 2.2,-2.351 0.592,0.933 1.252,1.975 1.978,3.134 0.725,1.155 1.207,1.735 1.443,1.735 0.742,0 1.625,-0.515 2.646,-1.546 1.023,-1.031 1.563,-1.997 1.625,-2.901 0,-1.073 -0.551,-2.342 -1.646,-3.808 C 9.247,30.691 8.461,29.973 7.958,29.973 7.63,29.973 7.038,30.38 6.18,31.202 5.318,32.021 4.564,32.655 3.911,33.106 2.312,30.031 1.037,28.491 0.089,28.491 0.061,28.491 0.031,28.493 0,28.499 m 0,-42.313 v 5.924 c 0.354,0.175 0.706,0.377 1.058,0.605 1.04,0.677 1.883,1.36 2.531,2.05 0.643,0.69 0.967,1.175 0.967,1.46 -0.06,0.45 -0.404,0.822 -1.033,1.118 C 2.891,-2.363 2.251,-2.213 1.605,-2.213 1.034,-2.243 0.499,-2.422 0,-2.749 V 0 c 0.214,0.198 0.434,0.39 0.66,0.576 1.13,0.931 2.24,1.466 3.324,1.608 2.231,0.055 3.374,-0.946 3.434,-3.001 0,-2.502 -0.92,-5.057 -2.733,-7.673 0.716,0.415 1.372,0.842 1.939,1.29 1.558,1.156 2.908,2.422 4.051,3.805 0.91,1.07 1.513,1.732 1.805,1.986 0.676,0.646 1.25,0.973 1.718,0.973 0.147,0 0.616,-0.071 1.408,-0.214 0.734,-0.141 1.277,-0.211 1.63,-0.211 0.616,0 1.039,0.186 1.277,0.55 0.233,0.396 0.353,0.902 0.353,1.522 0,0.617 -0.267,1.31 -0.792,2.07 -0.209,0.226 -0.457,0.478 -0.749,0.761 -0.296,-0.196 -0.633,-0.351 -1.013,-0.465 -0.441,-0.142 -0.941,-0.21 -1.498,-0.21 -1.289,0 -2.129,0.237 -2.51,0.716 -0.439,0.509 -0.658,1.157 -0.658,1.947 0,0.279 0.249,1.014 0.745,2.197 0.237,0.592 0.442,1.098 0.618,1.522 0.176,0.423 0.324,0.774 0.439,1.057 0.589,1.155 1.103,2.013 1.542,2.578 0.645,0.76 1.467,1.14 2.466,1.14 1.027,0 2.126,-0.69 3.3,-2.071 1.38,-1.664 2.07,-3.72 2.07,-6.17 0,-0.874 -0.16,-1.861 -0.483,-2.958 -0.326,-1.214 -0.706,-2.299 -1.145,-3.256 -1.059,-2.338 -1.979,-3.958 -2.776,-4.86 -0.79,-0.9 -1.628,-1.353 -2.509,-1.353 -0.322,0 -0.746,0.083 -1.275,0.254 -0.528,0.166 -0.984,0.254 -1.365,0.254 h -10e-4 c -0.499,0 -0.881,-0.101 -1.144,-0.297 C 11.806,-6.158 11.322,-6.552 10.675,-7.115 9.913,-7.934 9.201,-8.652 8.54,-9.273 7.882,-9.889 7.184,-10.414 6.449,-10.836 4.337,-12.021 2.59,-12.865 1.21,-13.373 0.75,-13.542 0.346,-13.689 0,-13.814"
             style="fill:#231f20;fill-opacity:1;fill-rule:evenodd;stroke:none"
             id="path1570" /></g><g
           id="g1572"
           transform="translate(373.2887,302.3876)"><path
             d="m 0,0 c -0.058,-2.03 -0.106,-3.859 -0.132,-5.493 -0.028,-1.632 -0.117,-3.02 -0.264,-4.143 -0.236,-2.425 -0.72,-4.571 -1.455,-6.447 -0.735,-1.874 -1.314,-3.121 -1.738,-3.74 -0.427,-0.621 -0.775,-1.07 -1.035,-1.351 -0.327,-0.282 -0.574,-0.376 -0.75,-0.277 -0.176,0.099 -0.238,0.262 -0.176,0.486 0,0.055 0.176,0.91 0.529,2.559 0.35,1.648 0.573,3.246 0.657,4.794 0.09,1.551 0.104,3.74 0.045,6.575 -0.059,2.835 0.018,4.992 0.224,6.487 0.114,0.875 0.313,1.777 0.593,2.705 0.279,0.932 0.593,1.848 0.946,2.753 0.353,0.895 0.727,1.748 1.122,2.553 0.396,0.803 0.759,1.516 1.081,2.137 0.266,0.392 0.5,0.546 0.706,0.461 C 0.555,9.974 0.647,9.823 0.614,9.598 0.555,9.372 0.49,8.843 0.418,8.008 0.344,7.18 0.276,6.252 0.22,5.221 0.16,4.194 0.109,3.186 0.063,2.197 0.021,1.211 0,0.48 0,0"
             style="fill:#231f20;fill-opacity:1;fill-rule:evenodd;stroke:none"
             id="path1574" /></g></g></g></g></svg>
