<?xml version="1.0" encoding="UTF-8" standalone="no"?>
<svg
   xmlns:dc="http://purl.org/dc/elements/1.1/"
   xmlns:cc="http://creativecommons.org/ns#"
   xmlns:rdf="http://www.w3.org/1999/02/22-rdf-syntax-ns#"
   xmlns:svg="http://www.w3.org/2000/svg"
   xmlns="http://www.w3.org/2000/svg"
   xmlns:sodipodi="http://sodipodi.sourceforge.net/DTD/sodipodi-0.dtd"
   xmlns:inkscape="http://www.inkscape.org/namespaces/inkscape"
   version="1.1"
   id="svg590"
   xml:space="preserve"
   width="816"
   height="1056"
   viewBox="0 0 816 1056"
   sodipodi:docname="mehr-iran.svg"
   inkscape:version="1.0.1 (3bc2e813f5, 2020-09-07)"><sodipodi:namedview
     pagecolor="#ffffff"
     bordercolor="#666666"
     borderopacity="1"
     objecttolerance="10"
     gridtolerance="10"
     guidetolerance="10"
     inkscape:pageopacity="0"
     inkscape:pageshadow="2"
     inkscape:window-width="1848"
     inkscape:window-height="1009"
     id="namedview2248"
     showgrid="false"
     inkscape:zoom="0.75933946"
     inkscape:cx="408"
     inkscape:cy="528"
     inkscape:window-x="72"
     inkscape:window-y="34"
     inkscape:window-maximized="1"
     inkscape:current-layer="svg590" /><metadata
     id="metadata596"><rdf:RDF><cc:Work
         rdf:about=""><dc:format>image/svg+xml</dc:format><dc:type
           rdf:resource="http://purl.org/dc/dcmitype/StillImage" /><dc:title /></cc:Work></rdf:RDF></metadata><defs
     id="defs594"><clipPath
       clipPathUnits="userSpaceOnUse"
       id="clipPath606"><path
         d="M 0,792 H 612 V 0 H 0 Z"
         id="path604" /></clipPath></defs><g
     id="g598"
     transform="matrix(1.9544488,0,0,-1.9544488,-190.06134,1301.9614)"><g
       id="g600"><g
         id="g602"
         clip-path="url(#clipPath606)"><g
           id="g608"
           transform="translate(401.0596,501.6407)"><path
             d="m 0,0 c -15.273,-6.179 -29.312,-14.328 -40.146,-27.605 -23.523,-24.948 -39.782,-59.719 -49.045,-103.824 -0.187,-0.891 -2.129,0.522 -2.365,-0.367 -20.005,8.73 -34.665,36.369 -41.893,66.177 -2.368,9.767 -5.043,20.151 -9.159,29.897 16.115,4.437 33.199,-5.681 51.454,-33.365 4.422,15.275 34.571,59.895 34.571,59.895 l 0.319,1.183 c -14.626,13.074 -33.927,21.026 -55.084,21.026 -45.669,0 -82.706,-37.037 -82.706,-82.706 0,-45.67 37.037,-82.707 82.706,-82.707 55.752,0 76.227,40.594 90.535,84.47 C -13.876,-45.284 -8.268,-20.979 0,0"
             style="fill:#5d8d20;fill-opacity:1;fill-rule:evenodd;stroke:none"
             id="path610" /></g><g
           id="g612"
           transform="translate(502.4191,288.0573)"><path
             d="m 0,0 h -1.035 c -5.128,0 -7.687,2.679 -7.687,8.029 0,2.288 -0.084,5.281 -0.245,8.995 -0.175,3.924 -0.364,6.519 -0.553,7.792 -0.098,0.623 0.014,1.077 0.329,1.35 l 5.966,4.196 c 0.406,0.288 0.686,0.434 0.839,0.434 0.176,0 0.267,-0.16 0.267,-0.489 V 12.254 c 0,-1.827 0.74,-2.82 2.217,-2.973 H 4.63 c 0.805,0 1.21,0.224 1.21,0.679 0,0.231 -0.119,0.497 -0.349,0.797 -0.847,1.091 -1.938,2.232 -3.281,3.42 -0.203,0.189 -0.203,0.441 0,0.742 l 3.812,5.533 c 0.21,0.3 0.357,0.447 0.455,0.447 0.118,0 0.293,-0.14 0.51,-0.413 2.134,-2.622 3.197,-5.868 3.197,-9.75 C 10.184,6.938 9.645,4.259 8.568,2.707 7.309,0.888 4.987,-0.021 1.602,-0.021 H 0 Z m -14.45,27.495 -2.826,2.707 c -0.245,0.23 -0.476,0.23 -0.7,0 l -2.56,-2.603 c -0.272,-0.272 -0.293,-0.517 -0.063,-0.733 l 2.784,-2.693 c 0.203,-0.189 0.406,-0.189 0.595,0.006 l 2.77,2.721 c 0.209,0.21 0.209,0.406 0,0.595 m -7.827,-27.516 h -0.378 c -1.301,0 -2.728,0.503 -4.288,1.517 -1.335,0.875 -2.482,1.903 -3.44,3.092 -1.064,-2.147 -2.847,-3.616 -5.344,-4.406 -1.721,-0.546 -4.036,-0.818 -6.953,-0.818 h -1.35 -0.839 -0.434 c -4.029,0 -7.029,0.545 -9.016,1.643 -2.637,1.462 -3.952,4.036 -3.952,7.715 0,1.595 0.252,3.154 0.756,4.673 0.573,1.727 1.252,2.587 2.028,2.587 0.784,0 1.161,-0.699 1.154,-2.091 -0.013,-1.637 0.378,-2.812 1.183,-3.526 1.356,-1.203 4.077,-1.804 8.176,-1.804 4.728,0 7.855,0.231 9.386,0.699 0.357,0.106 0.532,0.266 0.532,0.469 0,0.161 -0.105,0.378 -0.329,0.636 -1.007,1.218 -3.189,3.575 -6.533,7.072 l 1.127,6.596 c 0.055,0.315 0.202,0.517 0.447,0.594 l 15.864,5.246 c 0.153,0.056 0.244,0.077 0.286,0.063 0.056,-0.014 0.07,-0.161 0.043,-0.448 l -0.679,-6.77 c -0.028,-0.259 -0.049,-0.413 -0.077,-0.469 -0.056,-0.098 -0.203,-0.189 -0.434,-0.266 l -9.323,-3.175 c 3.811,-4.372 5.875,-6.708 6.19,-7.009 1.762,-1.678 3.518,-2.518 5.267,-2.518 h 0.93 1.195 3.435 c 0.804,0 1.21,0.224 1.21,0.679 0,0.231 -0.118,0.497 -0.349,0.797 -0.847,1.091 -1.938,2.232 -3.281,3.42 -0.202,0.196 -0.202,0.441 0,0.742 l 3.812,5.533 c 0.21,0.3 0.357,0.447 0.455,0.447 0.118,0 0.293,-0.133 0.51,-0.406 2.134,-2.622 3.197,-5.875 3.197,-9.757 0,-3.798 -0.539,-6.477 -1.616,-8.029 -1.259,-1.819 -3.581,-2.728 -6.967,-2.728 h -0.406 z M 8.687,-6.008 c 0.217,-0.161 0.217,-0.35 0,-0.574 L 5.924,-9.324 c -0.195,-0.189 -0.391,-0.189 -0.595,0 l -2.79,2.708 C 2.308,-6.4 2.322,-6.148 2.588,-5.869 l 2.595,2.567 c 0.216,0.224 0.447,0.224 0.685,0.007 z"
             style="fill:#1a1a18;fill-opacity:1;fill-rule:evenodd;stroke:none"
             id="path614" /></g><g
           id="g616"
           transform="translate(428.6421,304.634)"><path
             d="m 0,0 c 0,0.434 -0.322,0.846 -0.965,1.231 -0.573,0.356 -1.098,0.532 -1.574,0.532 -0.468,0 -0.881,-0.12 -1.252,-0.35 -0.426,-0.259 -0.636,-0.616 -0.636,-1.063 0,-0.511 0.755,-0.763 2.273,-0.763 C -0.713,-0.413 0,-0.273 0,0 m -8.351,-16.619 h -1.126 c -0.56,0 -1.063,0.161 -1.511,0.49 v -1.798 c 0,-1.504 -0.42,-3.182 -1.252,-5.043 -0.72,-1.623 -1.517,-2.902 -2.378,-3.833 -0.3,-0.328 -0.713,-0.489 -1.245,-0.489 h -9.617 c -1.133,0 -1.7,0.461 -1.7,1.391 0,0.504 0.238,0.875 0.72,1.106 1.798,0.86 4.029,2.203 6.68,4.015 3.442,2.35 5.162,4.028 5.162,5.022 0,0.818 -1.539,2.664 -4.609,5.532 l 3.273,6.764 c 0.21,0.406 0.462,0.454 0.763,0.139 1.294,-1.349 2.196,-2.224 2.7,-2.622 1.146,-0.903 2.28,-1.35 3.406,-1.35 h 0.734 1.343 c 4.525,0 7.12,0.252 7.785,0.755 0.286,0.224 0.434,0.469 0.434,0.742 0,0.371 -0.189,0.552 -0.574,0.552 -0.126,0 -0.245,-0.028 -0.371,-0.084 -0.462,-0.203 -1.539,-0.307 -3.218,-0.307 -3.51,0 -5.266,1.412 -5.266,4.245 0,1.895 0.468,3.777 1.413,5.63 1.119,2.218 2.539,3.323 4.246,3.323 2.511,0 4.448,-1.532 5.798,-4.589 1.028,-2.322 1.538,-4.84 1.538,-7.539 0,-8.023 -3.916,-12.031 -11.743,-12.031 H -8.351 Z M 2.847,13.338 C 3.001,13.206 2.994,13.03 2.826,12.828 L 0.392,10.449 c -0.175,-0.175 -0.357,-0.175 -0.532,0 l -2.301,2.232 -2.28,-2.232 C -4.868,10.254 -5.05,10.247 -5.252,10.443 l -2.406,2.364 c -0.21,0.209 -0.196,0.426 0.034,0.657 l 2.239,2.273 c 0.202,0.203 0.412,0.203 0.629,0 l 2.315,-2.196 2.155,2.196 c 0.202,0.203 0.42,0.203 0.636,0 z"
             style="fill:#1a1a18;fill-opacity:1;fill-rule:evenodd;stroke:none"
             id="path618" /></g><g
           id="g620"
           transform="translate(399.6162,301.5777)"><path
             d="m 0,0 c 0,-3.644 -1.217,-6.792 -3.644,-9.443 -2.518,-2.735 -5.575,-4.099 -9.184,-4.099 -1.679,0 -3.21,0.301 -4.588,0.903 0,-7.519 -4.141,-11.275 -12.422,-11.275 -3.4,0 -6.078,0.65 -8.03,1.944 -2.336,1.546 -3.504,3.938 -3.504,7.176 0,1.588 0.322,3.435 0.965,5.554 0.762,2.518 1.616,3.77 2.56,3.77 0.574,0 0.944,-0.251 1.105,-0.755 0.084,-0.259 0.126,-0.756 0.126,-1.476 0,-0.343 -0.084,-0.881 -0.251,-1.623 -0.162,-0.734 -0.245,-1.287 -0.245,-1.657 0,-2.707 2.714,-4.057 8.134,-4.057 1.616,0 3.14,0.181 4.574,0.552 2.141,0.546 3.218,1.406 3.218,2.581 0,0.987 -1.378,2.581 -4.12,4.798 l 3.196,6.226 c 0.119,0.237 0.238,0.349 0.35,0.349 0.105,0 0.259,-0.112 0.448,-0.349 1.888,-2.211 3.021,-3.316 3.399,-3.316 0.098,0 0.833,0.825 2.197,2.476 3.896,4.7 7.336,7.05 10.33,7.05 1.511,0 2.791,-0.51 3.826,-1.524 C -0.518,2.784 0,1.518 0,0 m -5.246,-3.26 c 0,1.574 -0.938,2.357 -2.805,2.357 -1.818,0 -4.175,-1.426 -7.071,-4.28 0.588,-0.028 1.168,-0.042 1.742,-0.042 2.511,0 4.553,0.231 6.126,0.699 1.337,0.392 2.008,0.819 2.008,1.266 M -5.98,12.687 c 0.188,-0.181 0.181,-0.377 -0.014,-0.58 L -8.771,9.351 c -0.189,-0.196 -0.392,-0.196 -0.595,0 l -2.784,2.721 c -0.203,0.203 -0.189,0.44 0.063,0.7 l 2.56,2.622 c 0.231,0.231 0.469,0.231 0.714,0 z"
             style="fill:#1a1a18;fill-opacity:1;fill-rule:evenodd;stroke:none"
             id="path622" /></g><g
           id="g624"
           transform="translate(256.2313,297.1361)"><path
             d="M 0,0 -1.147,4.175 C -3.042,2.756 -3.994,1.762 -3.994,1.189 -3.994,0.546 -2.665,0.146 0,0 m 19.347,-9.1 h -0.35 c -1.966,0 -3.483,0.909 -4.567,2.728 C 13.366,-8.191 11.75,-9.1 9.576,-9.1 H 8.729 7.568 6.638 c -3.001,0 -4.931,1.609 -5.778,4.833 -0.587,-1.378 -1.223,-2.07 -1.902,-2.07 -1.273,0 -2.735,0.336 -4.386,1.007 -2.203,0.888 -3.301,2.043 -3.301,3.462 0,1.546 0.56,3.106 1.679,4.694 0.098,0.132 1.776,1.622 5.043,4.469 l -0.392,1.762 4.777,4.813 c 0.189,0.188 0.35,0.286 0.469,0.286 0.153,0 0.259,-0.174 0.329,-0.531 L 5.12,3.07 C 5.477,1.161 6.232,0.203 7.379,0.203 h 0.189 1.161 0.133 c 1.455,0 2.476,0.44 3.05,1.315 0.14,0.202 0.412,1 0.818,2.392 0.259,0.874 0.735,1.315 1.413,1.315 0.657,0 1.084,-0.441 1.273,-1.315 0.3,-1.336 0.524,-2.134 0.678,-2.392 0.518,-0.875 1.483,-1.315 2.903,-1.315 h 1.581 V 0.098 h 0.328 c 1.021,0 1.742,0.419 2.148,1.251 0.209,0.721 0.406,1.448 0.595,2.176 0.356,0.931 0.825,1.392 1.412,1.392 0.685,0 1.14,-0.42 1.357,-1.252 0.077,-0.315 0.273,-1.084 0.574,-2.316 0.328,-0.832 0.958,-1.251 1.881,-1.251 0.797,0 1.343,0.412 1.644,1.231 0.091,0.42 0.286,1.182 0.573,2.273 0.217,0.825 0.664,1.231 1.35,1.231 0.672,0 1.098,-0.406 1.294,-1.21 0.091,-0.42 0.259,-1.175 0.49,-2.252 0.286,-0.805 0.825,-1.21 1.615,-1.21 0.812,0 1.358,0.398 1.644,1.188 0.133,0.721 0.301,1.477 0.49,2.253 0.188,0.777 0.657,1.168 1.391,1.168 0.616,0 1.043,-0.399 1.274,-1.189 0.07,-0.287 0.259,-1.028 0.573,-2.232 0.343,-0.79 0.952,-1.188 1.826,-1.188 h 0.244 v 0.042 h 3.547 c 3.973,0 7.442,0.713 10.407,2.133 -3.539,1.07 -5.777,1.602 -6.722,1.602 -0.776,0 -1.566,-0.364 -2.378,-1.092 -0.804,-0.72 -1.398,-1.084 -1.783,-1.084 -0.776,0 -1.168,0.56 -1.168,1.679 0,1.231 0.531,2.777 1.581,4.63 1.349,2.392 3,3.588 4.938,3.588 1.245,0 3.392,-0.524 6.455,-1.573 3.057,-1.057 5.407,-1.581 7.051,-1.581 h 2.357 C 68.055,8.505 68.3,8.4 68.3,8.197 68.3,8.071 68.244,7.841 68.139,7.498 L 66.153,1.231 H 62.341 C 62.963,0.546 64.258,0.203 66.209,0.203 H 68.783 69.972 70 c 1.02,10e-4 1.738,0.07 2.14,0.202 0.671,0.224 1.007,0.693 1.007,1.413 0,1.127 -0.287,3.218 -0.86,6.295 -0.616,3.28 -1.287,6.218 -2.008,8.813 l 5.142,4.546 c 0.468,0.413 0.776,0.616 0.923,0.616 0.167,0 0.392,-0.315 0.678,-0.944 l 3.113,-6.925 c 0.16,-0.37 0.244,-0.664 0.244,-0.881 0,-0.301 -0.195,-0.454 -0.594,-0.454 -0.343,0 -0.895,0.119 -1.658,0.349 L 78.617,0.615 C 78.757,-2.854 78.099,-5.442 76.651,-7.134 75.533,-8.442 74.099,-9.1 72.35,-9.1 H 70 68.783 65.985 c -3.686,0 -6.092,2.105 -7.212,6.309 C 57.242,-4.798 55.248,-6.358 52.786,-7.484 50.423,-8.561 47.94,-9.1 45.331,-9.1 h -2.05 v 0.021 h -0.266 c -1.356,0 -2.643,0.888 -3.874,2.658 -1.308,-1.77 -2.504,-2.658 -3.588,-2.658 -0.706,0 -1.413,0.294 -2.106,0.881 -0.629,0.518 -1.112,1.141 -1.433,1.868 -1.245,-1.833 -2.385,-2.749 -3.428,-2.749 -1.553,0 -2.77,0.916 -3.644,2.749 -1.231,-1.874 -2.56,-2.812 -3.993,-2.812 h -1.602 z"
             style="fill:#1a1a18;fill-opacity:1;fill-rule:evenodd;stroke:none"
             id="path626" /></g><g
           id="g628"
           transform="translate(273.102,310.614)"><path
             d="M 0,0 C 0.175,-0.175 0.161,-0.356 -0.049,-0.56 L -2.77,-3.315 c -0.203,-0.203 -0.406,-0.203 -0.608,0 l -2.791,2.721 c -0.203,0.209 -0.175,0.44 0.084,0.699 l 2.56,2.623 c 0.216,0.217 0.447,0.217 0.678,0 z"
             style="fill:#1a1a18;fill-opacity:1;fill-rule:evenodd;stroke:none"
             id="path630" /></g><g
           id="g632"
           transform="translate(347.5219,298.7096)"><path
             d="m 0,0 c 0,-1.203 -0.182,-2.728 -0.553,-4.568 -0.384,-1.944 -0.804,-3.413 -1.273,-4.406 -0.573,-1.203 -1.112,-1.804 -1.615,-1.804 -0.546,0 -1.021,0.727 -1.413,2.189 -0.56,2.063 -1.749,9.176 -3.567,21.333 l 6.19,6.743 c 0.377,0.426 0.643,0.636 0.776,0.636 0.112,0 0.203,-0.189 0.287,-0.573 0.602,-2.722 0.972,-5.967 1.105,-9.737 C -0.021,8.666 0,5.4 0,0"
             style="fill:#1a1a18;fill-opacity:1;fill-rule:evenodd;stroke:none"
             id="path634" /></g><g
           id="g636"
           transform="translate(215.4614,298.8564)"><path
             d="m 0,0 c 0,0.804 -0.574,1.21 -1.721,1.21 -1.175,0 -2.315,-0.993 -3.42,-2.973 h 3.42 c 0.462,0 0.867,0.175 1.21,0.532 C -0.168,-0.875 0,-0.462 0,0 m -0.161,-12.38 c 0,0.455 -0.175,0.86 -0.525,1.231 -0.35,0.371 -0.748,0.553 -1.202,0.553 h -3.4 c 1.105,-1.966 2.238,-2.952 3.4,-2.952 1.153,0 1.727,0.392 1.727,1.168 m -9.708,1.539 h -1.126 c -0.56,0 -1.064,0.161 -1.511,0.489 v -1.797 c 0,-1.504 -0.42,-3.183 -1.252,-5.043 -0.721,-1.623 -1.518,-2.903 -2.379,-3.833 -0.3,-0.329 -0.713,-0.49 -1.244,-0.49 h -9.617 c -1.134,0 -1.7,0.462 -1.7,1.392 0,0.504 0.237,0.874 0.72,1.105 1.798,0.861 4.029,2.204 6.68,4.015 3.441,2.35 5.161,4.029 5.161,5.022 0,0.819 -1.538,2.665 -4.609,5.533 l 3.274,6.763 c 0.21,0.406 0.461,0.455 0.762,0.14 1.294,-1.35 2.196,-2.224 2.7,-2.623 1.147,-0.902 2.28,-1.35 3.406,-1.35 h 0.735 1.797 c 0.217,1.651 1.105,3.379 2.665,5.162 1.77,2.036 3.63,3.057 5.567,3.057 1.043,0 1.924,-0.364 2.644,-1.084 C 3.532,4.889 3.895,4.015 3.895,2.994 3.895,1.504 3.385,0 2.378,-1.518 h 2.231 0.678 c 1.714,0 2.609,0.539 2.679,1.616 0.084,1.441 0.483,2.693 1.21,3.77 1.092,1.644 2.721,2.462 4.876,2.462 2.601,0 4.546,-1.364 5.847,-4.099 0.944,-1.979 1.412,-4.189 1.412,-6.616 0,-1.791 -0.573,-3.323 -1.72,-4.595 -1.175,-1.322 -2.651,-1.987 -4.428,-1.987 -2.238,0 -4.063,1.077 -5.469,3.238 C 8.749,-9.792 7.49,-10.82 5.924,-10.82 H 5.861 4.609 2.518 c 0.713,-1.49 1.07,-2.63 1.07,-3.42 0,-1.273 -0.357,-2.274 -1.056,-3.015 -0.706,-0.735 -1.686,-1.105 -2.945,-1.105 -2.14,0 -4.015,0.951 -5.61,2.847 -1.272,1.517 -2.035,3.084 -2.294,4.693 h -1.552 z m 27.942,8.113 c 0,0.875 -0.238,1.819 -0.72,2.826 -0.574,1.217 -1.238,1.826 -2.008,1.826 -0.405,0 -0.748,-0.161 -1.021,-0.483 -0.272,-0.322 -0.412,-0.693 -0.412,-1.119 0,-1.035 0.223,-2.049 0.678,-3.029 0.573,-1.259 1.35,-1.888 2.336,-1.888 0.763,0 1.147,0.622 1.147,1.867"
             style="fill:#1a1a18;fill-opacity:1;fill-rule:evenodd;stroke:none"
             id="path638" /></g><g
           id="g640"
           transform="translate(176.8175,298.7096)"><path
             d="m 0,0 c 0,-1.203 -0.182,-2.728 -0.553,-4.568 -0.384,-1.944 -0.804,-3.413 -1.273,-4.406 -0.573,-1.203 -1.112,-1.804 -1.615,-1.804 -0.546,0 -1.021,0.727 -1.413,2.189 -0.56,2.063 -1.749,9.176 -3.567,21.333 l 6.189,6.743 c 0.378,0.426 0.644,0.636 0.777,0.636 0.112,0 0.203,-0.189 0.287,-0.573 0.601,-2.722 0.972,-5.967 1.105,-9.737 C -0.021,8.666 0,5.4 0,0"
             style="fill:#1a1a18;fill-opacity:1;fill-rule:evenodd;stroke:none"
             id="path642" /></g><g
           id="g644"
           transform="translate(155.4639,288.0153)"><path
             d="m 0,0 v 0.021 h 0.405 c 3.386,0 5.708,0.909 6.967,2.728 1.077,1.552 1.616,4.231 1.616,8.029 0,3.882 -1.064,7.128 -3.197,9.75 -0.217,0.274 -0.392,0.413 -0.51,0.413 -0.098,0 -0.245,-0.147 -0.455,-0.447 L 1.014,14.961 c -0.203,-0.301 -0.203,-0.552 0,-0.742 1.343,-1.188 2.434,-2.328 3.28,-3.42 0.231,-0.3 0.35,-0.566 0.35,-0.797 0,-0.455 -0.406,-0.679 -1.21,-0.679 H 0 -0.735 c -1.126,0 -2.259,0.448 -3.406,1.351 -0.504,0.398 -1.406,1.272 -2.7,2.622 -0.301,0.315 -0.552,0.266 -0.762,-0.14 l -3.274,-6.763 c 3.071,-2.868 4.61,-4.714 4.61,-5.533 0,-0.993 -1.721,-2.672 -5.162,-5.021 -2.651,-1.812 -4.882,-3.155 -6.68,-4.015 -0.483,-0.232 -0.72,-0.602 -0.72,-1.106 0,-0.93 0.567,-1.392 1.7,-1.392 h 9.617 c 0.531,0 0.944,0.161 1.245,0.49 0.86,0.93 1.658,2.21 2.378,3.833 0.832,1.861 1.252,3.539 1.252,5.043 V 0.49 C -2.189,0.161 -1.686,0 -1.126,0 Z m 10.526,-6.001 c 0.189,-0.154 0.182,-0.322 -0.021,-0.518 L 8.064,-8.911 c -0.175,-0.175 -0.357,-0.175 -0.531,0 L 5.238,-6.68 2.986,-8.911 c -0.182,-0.175 -0.357,-0.175 -0.531,0 L 0.014,-6.54 c -0.203,0.189 -0.182,0.406 0.07,0.651 l 2.245,2.28 c 0.203,0.203 0.406,0.203 0.615,0 l 2.301,-2.21 2.162,2.217 c 0.21,0.203 0.426,0.203 0.643,0 z"
             style="fill:#1a1a18;fill-opacity:1;fill-rule:evenodd;stroke:none"
             id="path646" /></g><g
           id="g648"
           transform="translate(134.8863,298.7096)"><path
             d="m 0,0 c 0,-1.203 -0.182,-2.728 -0.553,-4.568 -0.384,-1.944 -0.804,-3.413 -1.273,-4.406 -0.573,-1.203 -1.112,-1.804 -1.615,-1.804 -0.546,0 -1.022,0.727 -1.413,2.189 -0.56,2.063 -1.749,9.176 -3.567,21.333 l 6.19,6.743 c 0.377,0.426 0.643,0.636 0.776,0.636 0.112,0 0.203,-0.189 0.287,-0.573 0.601,-2.722 0.972,-5.967 1.105,-9.737 C -0.021,8.666 0,5.4 0,0"
             style="fill:#1a1a18;fill-opacity:1;fill-rule:evenodd;stroke:none"
             id="path650" /></g><g
           id="g652"
           transform="translate(113.2877,303.8363)"><path
             d="m 0,0 c 0.098,-0.098 0.147,-0.189 0.147,-0.273 0,-0.097 -0.056,-0.202 -0.161,-0.308 l -2.749,-2.741 c -0.195,-0.196 -0.391,-0.196 -0.601,-0.007 l -2.784,2.714 c -0.231,0.217 -0.21,0.461 0.063,0.734 l 2.581,2.602 c 0.224,0.217 0.447,0.217 0.678,0 z"
             style="fill:#1a1a18;fill-opacity:1;fill-rule:evenodd;stroke:none"
             id="path654" /></g><g
           id="g656"
           transform="translate(123.9469,290.715)"><path
             d="m 0,0 c 0,-5.148 -1.406,-8.757 -4.225,-10.82 -2.021,-1.49 -4.952,-2.231 -8.785,-2.231 -3.336,0 -6.007,0.678 -8.015,2.028 -2.35,1.574 -3.525,3.937 -3.525,7.092 0,1.888 0.272,3.819 0.818,5.799 0.7,2.532 1.588,3.791 2.665,3.791 0.874,0 1.315,-0.742 1.315,-2.232 0,-0.371 -0.084,-0.93 -0.237,-1.693 -0.162,-0.755 -0.238,-1.328 -0.238,-1.706 0,-2.804 2.692,-4.203 8.071,-4.203 5.519,0 8.282,1.014 8.282,3.035 0,0.448 -0.602,1.399 -1.805,2.847 -1.147,1.378 -2.043,2.28 -2.686,2.707 l 3.406,6.658 c 0.217,0.434 0.392,0.657 0.511,0.657 0.111,0 0.356,-0.202 0.741,-0.594 0.818,-0.867 1.595,-2.231 2.336,-4.099 C -0.454,4.694 0,2.35 0,0"
             style="fill:#1a1a18;fill-opacity:1;fill-rule:evenodd;stroke:none"
             id="path658" /></g></g></g></g></svg>
