<?xml version="1.0" encoding="UTF-8" standalone="no"?>
<svg
   xmlns:dc="http://purl.org/dc/elements/1.1/"
   xmlns:cc="http://creativecommons.org/ns#"
   xmlns:rdf="http://www.w3.org/1999/02/22-rdf-syntax-ns#"
   xmlns:svg="http://www.w3.org/2000/svg"
   xmlns="http://www.w3.org/2000/svg"
   xmlns:sodipodi="http://sodipodi.sourceforge.net/DTD/sodipodi-0.dtd"
   xmlns:inkscape="http://www.inkscape.org/namespaces/inkscape"
   version="1.1"
   id="svg2164"
   xml:space="preserve"
   width="816"
   height="1056"
   viewBox="0 0 816 1056"
   sodipodi:docname="melli.svg"
   inkscape:version="1.0.1 (3bc2e813f5, 2020-09-07)"><sodipodi:namedview
     pagecolor="#ffffff"
     bordercolor="#666666"
     borderopacity="1"
     objecttolerance="10"
     gridtolerance="10"
     guidetolerance="10"
     inkscape:pageopacity="0"
     inkscape:pageshadow="2"
     inkscape:window-width="1848"
     inkscape:window-height="1009"
     id="namedview2589"
     showgrid="false"
     inkscape:zoom="0.61580177"
     inkscape:cx="408"
     inkscape:cy="528"
     inkscape:window-x="72"
     inkscape:window-y="34"
     inkscape:window-maximized="1"
     inkscape:current-layer="svg2164" /><metadata
     id="metadata2170"><rdf:RDF><cc:Work
         rdf:about=""><dc:format>image/svg+xml</dc:format><dc:type
           rdf:resource="http://purl.org/dc/dcmitype/StillImage" /><dc:title /></cc:Work></rdf:RDF></metadata><defs
     id="defs2168"><clipPath
       clipPathUnits="userSpaceOnUse"
       id="clipPath2180"><path
         d="M 0,792 H 612 V 0 H 0 Z"
         id="path2178" /></clipPath></defs><g
     id="g2172"
     transform="matrix(3.2339439,0,0,-3.2339439,-581.58683,1810.023)"><g
       id="g2174"><g
         id="g2176"
         clip-path="url(#clipPath2180)"><g
           id="g2182"
           transform="translate(305.8447,503.0048)"><path
             d="m 0,0 c 39.223,0 71.214,-46.434 71.214,-103.367 0,-56.93 -31.991,-103.364 -71.214,-103.364 -39.226,0 -71.216,46.434 -71.216,103.364 C -71.216,-46.434 -39.226,0 0,0"
             style="fill:none;stroke:#2f2482;stroke-width:4.084;stroke-linecap:butt;stroke-linejoin:miter;stroke-miterlimit:22.926;stroke-dasharray:none;stroke-opacity:1"
             id="path2184" /></g><g
           id="g2186"
           transform="translate(254.3746,328.1329)"><path
             d="M 0,0 H 102.112"
             style="fill:none;stroke:#2f2482;stroke-width:4.083;stroke-linecap:butt;stroke-linejoin:miter;stroke-miterlimit:22.926;stroke-dasharray:none;stroke-opacity:1"
             id="path2188" /></g><g
           id="g2190"
           transform="translate(263.831,316.2334)"><path
             d="M 0,0 H 83.884"
             style="fill:none;stroke:#2f2482;stroke-width:4.083;stroke-linecap:butt;stroke-linejoin:miter;stroke-miterlimit:22.926;stroke-dasharray:none;stroke-opacity:1"
             id="path2192" /></g><g
           id="g2194"
           transform="translate(275.5658,306.1378)"><path
             d="M 0,0 H 60.451"
             style="fill:none;stroke:#2f2482;stroke-width:4.083;stroke-linecap:butt;stroke-linejoin:miter;stroke-miterlimit:22.926;stroke-dasharray:none;stroke-opacity:1"
             id="path2196" /></g><g
           id="g2198"
           transform="translate(329.7946,451.4411)"><path
             d="M 0,0 C 29.472,-0.861 47.595,-64.146 11.362,-81.661 33.545,-54.882 21.084,-13.686 0,0"
             style="fill:#ffffff;fill-opacity:1;fill-rule:evenodd;stroke:none"
             id="path2200" /></g><g
           id="g2202"
           transform="translate(322.6334,468.0017)"><path
             d="m 0,0 c 7.754,-10.462 -8.357,-19.856 -15.088,-9.378 -11.295,-12.94 -22.707,2.105 -16.373,8.359 -0.764,-6.967 7.836,-13.416 16.224,-1.9 C -12.276,-7.65 -3.651,-13.247 0,0"
             style="fill:#2f2482;fill-opacity:1;fill-rule:evenodd;stroke:none"
             id="path2204" /></g><g
           id="g2206"
           transform="translate(287.1133,450.635)"><path
             d="m 0,0 c -17.667,-6.382 -32.679,-60.525 6.161,-84.43 -10.861,-4.847 -21.098,-1.956 -23.173,-4.764 4.631,-1.336 21.683,-4.807 31.214,-2.669 l 4.192,-6.458 4.131,6.318 c 8.652,-1.747 22.342,0.949 29.951,1.755 -4.153,2.664 -15.608,1.158 -19.945,5.382 39.381,27.264 24.03,78.857 5.735,83.81 C 46.122,-18.772 56.01,-57.393 25.4,-74.063 l -0.385,71.576 -5.931,6.625 -8.353,-7.046 0.957,-70.948 C -9.817,-59.335 -13.622,-32.558 0,0"
             style="fill:#2f2482;fill-opacity:1;fill-rule:evenodd;stroke:none"
             id="path2208" /></g><g
           id="g2210"
           transform="translate(250.998,465.3119)"><path
             d="M 0,0 C -4.033,12.512 -15.806,11.992 -25.547,20.943 -7.256,39.436 -5.404,51.691 7.331,60.603 30.754,80.587 42.4,72.096 56.427,91.35 70.284,72.027 92.205,73.058 105.523,60.38 117.052,52.273 122.344,33.443 137.291,15.15 124.31,14.36 116.128,5.986 109.298,0.445"
             style="fill:none;stroke:#2f2482;stroke-width:4.083;stroke-linecap:butt;stroke-linejoin:miter;stroke-miterlimit:22.926;stroke-dasharray:none;stroke-opacity:1"
             id="path2212" /></g><g
           id="g2214"
           transform="translate(283.3047,283.4025)"><path
             d="m 0,0 c 0.082,4.009 8.164,6.465 12.877,4.303 0.708,1.816 6.77,7.306 11.265,7.354 4.323,-0.924 8.915,-4.031 9.478,-7.351 8.987,1.013 10.411,-1.337 11.624,-3.588"
             style="fill:none;stroke:#2f2482;stroke-width:2.722;stroke-linecap:butt;stroke-linejoin:miter;stroke-miterlimit:22.926;stroke-dasharray:none;stroke-opacity:1"
             id="path2216" /></g><g
           id="g2218"
           transform="translate(328.5485,284.1202)"><path
             d="m 0,0 v -9.686 l -16.811,-13.63"
             style="fill:none;stroke:#2f2482;stroke-width:2.722;stroke-linecap:butt;stroke-linejoin:miter;stroke-miterlimit:22.926;stroke-dasharray:none;stroke-opacity:1"
             id="path2220" /></g><g
           id="g2222"
           transform="translate(311.7379,260.8038)"><path
             d="M 0,0 C -3.934,0.001 -8.226,-0.177 -12.159,-0.178"
             style="fill:none;stroke:#2f2482;stroke-width:2.722;stroke-linecap:butt;stroke-linejoin:miter;stroke-miterlimit:22.926;stroke-dasharray:none;stroke-opacity:1"
             id="path2224" /></g><g
           id="g2226"
           transform="translate(299.579,260.6261)"><path
             d="m 0,0 -16.453,13.988 0.179,8.788"
             style="fill:none;stroke:#2f2482;stroke-width:2.722;stroke-linecap:butt;stroke-linejoin:miter;stroke-miterlimit:22.926;stroke-dasharray:none;stroke-opacity:1"
             id="path2228" /></g><g
           id="g2230"
           transform="translate(289.3861,283.0431)"><path
             d="m 0,0 10.371,-10.043 13.233,0.18 9.12,8.966"
             style="fill:none;stroke:#2f2482;stroke-width:2.722;stroke-linecap:butt;stroke-linejoin:miter;stroke-miterlimit:22.926;stroke-dasharray:none;stroke-opacity:1"
             id="path2232" /></g><g
           id="g2234"
           transform="translate(305.8379,282.1465)"><path
             d="m 0,0 c -4.332,-0.79 -7.459,-2.09 -10.372,-4.843 1.61,-1.612 3.576,-2.508 5.185,-4.124 4.591,-0.058 7.927,-0.118 12.518,-0.179 1.429,1.615 2.144,2.154 3.576,3.767 C 9.194,-3.321 6.466,-0.617 0,0"
             style="fill:none;stroke:#2f2482;stroke-width:2.722;stroke-linecap:butt;stroke-linejoin:miter;stroke-miterlimit:22.926;stroke-dasharray:none;stroke-opacity:1"
             id="path2236" /></g><g
           id="g2238"
           transform="translate(283.3237,451.4411)"><path
             d="M 0,0 C -29.471,-0.861 -47.594,-64.146 -11.362,-81.661 -33.544,-54.882 -21.083,-13.686 0,0"
             style="fill:#2f2482;fill-opacity:1;fill-rule:evenodd;stroke:none"
             id="path2240" /></g><g
           id="g2242"
           transform="translate(215.6573,473.6633)"><path
             d="m 0,0 c 3.194,-2.625 4.774,-4.206 6.394,-9.04 2.423,4.321 5.433,8.328 9.04,9.701 2.771,-3.965 2.236,-9.681 2.536,-14.552 2.616,2.751 6.307,6.115 9.811,5.622 C 24.68,-21.379 22.03,-30.328 15.32,-38.145 7.567,-38.407 -0.486,-36.001 -4.41,-34.506 -5.937,-22.024 -4.053,-11.596 0,0"
             style="fill:none;stroke:#2f2482;stroke-width:4.083;stroke-linecap:butt;stroke-linejoin:miter;stroke-miterlimit:22.926;stroke-dasharray:none;stroke-opacity:1"
             id="path2244" /></g><g
           id="g2246"
           transform="translate(217.6906,437.0131)"><path
             d="M 0,0 C -0.494,11.899 2.413,20.079 4.755,27.733"
             style="fill:none;stroke:#2f2482;stroke-width:2.722;stroke-linecap:butt;stroke-linejoin:miter;stroke-miterlimit:22.926;stroke-dasharray:none;stroke-opacity:1"
             id="path2248" /></g><g
           id="g2250"
           transform="translate(233.8934,459.9763)"><path
             d="M 0,0 C -4.808,-10.471 -5.891,-17.21 -9.16,-23.846"
             style="fill:none;stroke:#2f2482;stroke-width:2.722;stroke-linecap:butt;stroke-linejoin:miter;stroke-miterlimit:22.926;stroke-dasharray:none;stroke-opacity:1"
             id="path2252" /></g><g
           id="g2254"
           transform="translate(199.9964,435.0175)"><path
             d="m 0,0 c 3.792,-2.007 5.734,-3.278 8.468,-7.762 1.414,4.725 3.488,9.25 6.766,11.277 3.681,-3.411 4.472,-9.168 5.898,-13.933 1.971,3.207 4.872,7.221 8.48,7.383 -0.056,-13.55 -0.625,-22.9 -5.505,-31.88 C 18.184,-40.559 9.046,-38.423 3.594,-34.971 -0.819,-22.9 -1.356,-12.229 0,0"
             style="fill:none;stroke:#2f2482;stroke-width:4.083;stroke-linecap:butt;stroke-linejoin:miter;stroke-miterlimit:22.926;stroke-dasharray:none;stroke-opacity:1"
             id="path2256" /></g><g
           id="g2258"
           transform="translate(211.2012,397.5973)"><path
             d="M 0,0 C -3.248,11.686 -2.935,21.843 -2.372,29.852"
             style="fill:none;stroke:#2f2482;stroke-width:2.722;stroke-linecap:butt;stroke-linejoin:miter;stroke-miterlimit:22.926;stroke-dasharray:none;stroke-opacity:1"
             id="path2260" /></g><g
           id="g2262"
           transform="translate(221.3473,424.8507)"><path
             d="M 0,0 C -2.369,-11.256 -1.749,-20.477 -3.47,-27.652"
             style="fill:none;stroke:#2f2482;stroke-width:2.722;stroke-linecap:butt;stroke-linejoin:miter;stroke-miterlimit:22.926;stroke-dasharray:none;stroke-opacity:1"
             id="path2264" /></g><g
           id="g2266"
           transform="translate(197.4115,390.1022)"><path
             d="m 0,0 c 4.16,-1.052 6.347,-1.827 10.066,-5.537 0.255,4.927 1.199,9.813 3.903,12.559 4.384,-2.442 6.514,-7.849 9.029,-12.141 1.155,3.583 3.023,8.169 6.491,9.181 3.153,-13.178 4.813,-22.397 2.199,-32.276 -0.317,-3.83 -2.153,-11.77 -6.877,-12.753 -6.007,-1.249 -11.579,5.37 -13.04,7.841 C 4.626,-22.442 1.578,-12.202 0,0"
             style="fill:none;stroke:#2f2482;stroke-width:4.083;stroke-linecap:butt;stroke-linejoin:miter;stroke-miterlimit:22.926;stroke-dasharray:none;stroke-opacity:1"
             id="path2268" /></g><g
           id="g2270"
           transform="translate(222.1948,348.8604)"><path
             d="M 0,0 C -7.674,8.572 -13.917,27.081 -14.409,35.98"
             style="fill:none;stroke:#2f2482;stroke-width:2.722;stroke-linecap:butt;stroke-linejoin:miter;stroke-miterlimit:22.926;stroke-dasharray:none;stroke-opacity:1"
             id="path2272" /></g><g
           id="g2274"
           transform="translate(220.5624,385.2797)"><path
             d="M 0,0 C 0.363,-11.497 3.146,-28.573 3.172,-35.95"
             style="fill:none;stroke:#2f2482;stroke-width:2.722;stroke-linecap:butt;stroke-linejoin:miter;stroke-miterlimit:22.926;stroke-dasharray:none;stroke-opacity:1"
             id="path2276" /></g><g
           id="g2278"
           transform="translate(235.3311,349.5566)"><path
             d="M 0,0 C 10.839,-12.551 16.313,-25.552 16.428,-39.006"
             style="fill:none;stroke:#2f2482;stroke-width:4.083;stroke-linecap:butt;stroke-linejoin:miter;stroke-miterlimit:22.926;stroke-dasharray:none;stroke-opacity:1"
             id="path2280" /></g><g
           id="g2282"
           transform="translate(251.7588,310.5507)"><path
             d="M 0,0 -14.249,-12.104"
             style="fill:none;stroke:#2f2482;stroke-width:4.083;stroke-linecap:butt;stroke-linejoin:miter;stroke-miterlimit:22.926;stroke-dasharray:none;stroke-opacity:1"
             id="path2284" /></g><g
           id="g2286"
           transform="translate(237.5101,298.4462)"><path
             d="m 0,0 c -7.373,4.734 -24.024,4.851 -31.348,14.459 1.789,2.735 4.358,4.779 9.722,4.371 -5.979,5.408 -9.163,11.518 -11.566,17.821 3.689,1.689 7.543,2.926 12.572,1.01 -0.23,5.497 0.046,10.656 3.856,13.449 4.646,-1.896 7.327,-5.764 9.723,-9.918 1.001,2.75 1.614,6.736 4.862,9.918"
             style="fill:none;stroke:#2f2482;stroke-width:4.083;stroke-linecap:butt;stroke-linejoin:miter;stroke-miterlimit:22.926;stroke-dasharray:none;stroke-opacity:1"
             id="path2288" /></g><g
           id="g2290"
           transform="translate(248.9085,307.6943)"><path
             d="M 0,0 C -5.374,12.799 -13.654,22.803 -18.272,31.944"
             style="fill:none;stroke:#2f2482;stroke-width:2.722;stroke-linecap:butt;stroke-linejoin:miter;stroke-miterlimit:22.926;stroke-dasharray:none;stroke-opacity:1"
             id="path2292" /></g><g
           id="g2294"
           transform="translate(245.5566,304.8358)"><path
             d="M 0,0 C -12.567,8.406 -22.546,17.042 -28.667,31.439"
             style="fill:none;stroke:#2f2482;stroke-width:2.722;stroke-linecap:butt;stroke-linejoin:miter;stroke-miterlimit:22.926;stroke-dasharray:none;stroke-opacity:1"
             id="path2296" /></g><g
           id="g2298"
           transform="translate(215.0459,317.2762)"><path
             d="M 0,0 C 12.277,-4.064 20.663,-9.039 27.995,-14.459"
             style="fill:none;stroke:#2f2482;stroke-width:2.722;stroke-linecap:butt;stroke-linejoin:miter;stroke-miterlimit:22.926;stroke-dasharray:none;stroke-opacity:1"
             id="path2300" /></g><g
           id="g2302"
           transform="translate(246.4736,275.4709)"><path
             d="m 0,0 c -3.896,0.563 -10.22,4.562 -12.605,9.694 2.424,3.605 6.494,5.134 9.668,4.944 -0.641,3.539 -2.933,7.384 -1.802,12.451 3.916,0.219 8.844,-1.112 10.995,-2.661 -0.1,4.049 0.554,6.914 1.989,8.174 C 21.181,29.061 33.456,14.482 36.487,7.127 36.392,2.12 36.296,4.433 36.203,-0.57"
             style="fill:none;stroke:#2f2482;stroke-width:4.083;stroke-linecap:butt;stroke-linejoin:miter;stroke-miterlimit:22.926;stroke-dasharray:none;stroke-opacity:1"
             id="path2304" /></g><g
           id="g2306"
           transform="translate(282.6763,274.9005)"><path
             d="M 0,0 -36.203,0.57"
             style="fill:none;stroke:#2f2482;stroke-width:4.083;stroke-linecap:butt;stroke-linejoin:miter;stroke-miterlimit:22.926;stroke-dasharray:none;stroke-opacity:1"
             id="path2308" /></g><g
           id="g2310"
           transform="translate(252.4448,300.1836)"><path
             d="M 0,0 C 8.411,-9.02 17.263,-16.665 24.165,-25.189"
             style="fill:none;stroke:#2f2482;stroke-width:2.722;stroke-linecap:butt;stroke-linejoin:miter;stroke-miterlimit:22.926;stroke-dasharray:none;stroke-opacity:1"
             id="path2312" /></g><g
           id="g2314"
           transform="translate(243.5352,290.4883)"><path
             d="M 0,0 C 7.083,-6.641 14.939,-12.178 19.24,-15.017"
             style="fill:none;stroke:#2f2482;stroke-width:2.722;stroke-linecap:butt;stroke-linejoin:miter;stroke-miterlimit:22.926;stroke-dasharray:none;stroke-opacity:1"
             id="path2316" /></g><g
           id="g2318"
           transform="translate(263.7794,288.3966)"><path
             d="M 0,0 0.389,15.231"
             style="fill:none;stroke:#2f2482;stroke-width:2.722;stroke-linecap:butt;stroke-linejoin:miter;stroke-miterlimit:22.926;stroke-dasharray:none;stroke-opacity:1"
             id="path2320" /></g><g
           id="g2322"
           transform="translate(283.1264,274.9725)"><path
             d="m 0,0 c -12.099,0.058 -24.201,0.118 -36.301,0.179 -4.2,-0.596 -7.656,-1.788 -9.478,-4.303 4.177,-3.401 7.873,-5.673 11.088,-7.175 13.184,2.333 27.416,3.368 42.023,4.304"
             style="fill:none;stroke:#2f2482;stroke-width:2.722;stroke-linecap:butt;stroke-linejoin:miter;stroke-miterlimit:22.926;stroke-dasharray:none;stroke-opacity:1"
             id="path2324" /></g><g
           id="g2326"
           transform="translate(290.4585,267.9775)"><path
             d="M 0,0 -7.332,6.995"
             style="fill:none;stroke:#2f2482;stroke-width:2.722;stroke-linecap:butt;stroke-linejoin:miter;stroke-miterlimit:22.926;stroke-dasharray:none;stroke-opacity:1"
             id="path2328" /></g><g
           id="g2330"
           transform="translate(308.3409,261.1633)"><path
             d="M 0,0 -15.378,5.2"
             style="fill:none;stroke:#2f2482;stroke-width:4.083;stroke-linecap:butt;stroke-linejoin:miter;stroke-miterlimit:22.926;stroke-dasharray:none;stroke-opacity:1"
             id="path2332" /></g><g
           id="g2334"
           transform="translate(292.9629,266.3634)"><path
             d="M 0,0 C -15.021,-2.345 -28.491,-7.215 -39.7,-15.782"
             style="fill:none;stroke:#2f2482;stroke-width:4.083;stroke-linecap:butt;stroke-linejoin:miter;stroke-miterlimit:22.926;stroke-dasharray:none;stroke-opacity:1"
             id="path2336" /></g><g
           id="g2338"
           transform="translate(253.2626,250.581)"><path
             d="M 0,0 10.551,-3.586"
             style="fill:none;stroke:#2f2482;stroke-width:4.083;stroke-linecap:butt;stroke-linejoin:miter;stroke-miterlimit:22.926;stroke-dasharray:none;stroke-opacity:1"
             id="path2340" /></g><g
           id="g2342"
           transform="translate(263.8134,246.9951)"><path
             d="M 0,0 C 9.657,7.087 21.578,11.33 35.049,13.629 29.236,10.821 25.127,8.491 22.174,3.766"
             style="fill:none;stroke:#2f2482;stroke-width:4.083;stroke-linecap:butt;stroke-linejoin:miter;stroke-miterlimit:22.926;stroke-dasharray:none;stroke-opacity:1"
             id="path2344" /></g><g
           id="g2346"
           transform="translate(285.9871,250.7607)"><path
             d="M 0,0 10.015,-5.202"
             style="fill:none;stroke:#2f2482;stroke-width:4.083;stroke-linecap:butt;stroke-linejoin:miter;stroke-miterlimit:22.926;stroke-dasharray:none;stroke-opacity:1"
             id="path2348" /></g><g
           id="g2350"
           transform="translate(296.0019,245.5586)"><path
             d="M 0,0 C 6.42,4.204 10.617,9.557 12.339,15.605"
             style="fill:none;stroke:#2f2482;stroke-width:4.083;stroke-linecap:butt;stroke-linejoin:miter;stroke-miterlimit:22.926;stroke-dasharray:none;stroke-opacity:1"
             id="path2352" /></g><g
           id="g2354"
           transform="translate(264.5308,242.6893)"><path
             d="M 0,0 21.993,8.251"
             style="fill:none;stroke:#2f2482;stroke-width:4.083;stroke-linecap:butt;stroke-linejoin:miter;stroke-miterlimit:22.926;stroke-dasharray:none;stroke-opacity:1"
             id="path2356" /></g><g
           id="g2358"
           transform="translate(286.5234,250.9404)"><path
             d="m 0,0 c 2.33,-0.946 5.943,-2.652 11.625,-6.457 -5.839,-6.219 -15.214,-8.304 -23.784,-9.145"
             style="fill:none;stroke:#2f2482;stroke-width:4.083;stroke-linecap:butt;stroke-linejoin:miter;stroke-miterlimit:22.926;stroke-dasharray:none;stroke-opacity:1"
             id="path2360" /></g><g
           id="g2362"
           transform="translate(274.3642,235.338)"><path
             d="M 0,0 1.431,5.739 -9.833,7.351"
             style="fill:none;stroke:#2f2482;stroke-width:4.083;stroke-linecap:butt;stroke-linejoin:miter;stroke-miterlimit:22.926;stroke-dasharray:none;stroke-opacity:1"
             id="path2364" /></g><g
           id="g2366"
           transform="translate(328.6766,451.4411)"><path
             d="M 0,0 C 29.471,-0.861 47.594,-64.146 11.361,-81.661 33.544,-54.882 21.083,-13.686 0,0"
             style="fill:#2f2482;fill-opacity:1;fill-rule:evenodd;stroke:none"
             id="path2368" /></g><g
           id="g2370"
           transform="translate(396.3424,473.6633)"><path
             d="m 0,0 c -3.194,-2.625 -4.774,-4.206 -6.393,-9.04 -2.423,4.321 -5.434,8.328 -9.04,9.701 -2.772,-3.965 -2.237,-9.681 -2.537,-14.552 -2.615,2.751 -6.306,6.115 -9.811,5.622 3.102,-13.11 5.752,-22.059 12.462,-29.876 7.752,-0.262 15.806,2.144 19.729,3.639 C 5.937,-22.024 4.054,-11.596 0,0"
             style="fill:none;stroke:#2f2482;stroke-width:4.083;stroke-linecap:butt;stroke-linejoin:miter;stroke-miterlimit:22.926;stroke-dasharray:none;stroke-opacity:1"
             id="path2372" /></g><g
           id="g2374"
           transform="translate(394.3091,437.0131)"><path
             d="M 0,0 C 0.494,11.899 -2.413,20.079 -4.756,27.733"
             style="fill:none;stroke:#2f2482;stroke-width:2.722;stroke-linecap:butt;stroke-linejoin:miter;stroke-miterlimit:22.926;stroke-dasharray:none;stroke-opacity:1"
             id="path2376" /></g><g
           id="g2378"
           transform="translate(378.1063,459.9763)"><path
             d="M 0,0 C 4.808,-10.471 5.892,-17.21 9.16,-23.846"
             style="fill:none;stroke:#2f2482;stroke-width:2.722;stroke-linecap:butt;stroke-linejoin:miter;stroke-miterlimit:22.926;stroke-dasharray:none;stroke-opacity:1"
             id="path2380" /></g><g
           id="g2382"
           transform="translate(412.0036,435.0175)"><path
             d="m 0,0 c -3.793,-2.007 -5.733,-3.278 -8.468,-7.762 -1.415,4.725 -3.488,9.25 -6.766,11.277 -3.681,-3.411 -4.471,-9.168 -5.898,-13.933 -1.972,3.207 -4.872,7.221 -8.481,7.383 0.057,-13.55 0.627,-22.9 5.505,-31.88 5.924,-5.644 15.061,-3.508 20.513,-0.056 C 0.818,-22.9 1.355,-12.229 0,0"
             style="fill:none;stroke:#2f2482;stroke-width:4.083;stroke-linecap:butt;stroke-linejoin:miter;stroke-miterlimit:22.926;stroke-dasharray:none;stroke-opacity:1"
             id="path2384" /></g><g
           id="g2386"
           transform="translate(400.7985,397.5973)"><path
             d="M 0,0 C 3.248,11.686 2.935,21.843 2.372,29.852"
             style="fill:none;stroke:#2f2482;stroke-width:2.722;stroke-linecap:butt;stroke-linejoin:miter;stroke-miterlimit:22.926;stroke-dasharray:none;stroke-opacity:1"
             id="path2388" /></g><g
           id="g2390"
           transform="translate(390.653,424.8507)"><path
             d="M 0,0 C 2.368,-11.256 1.749,-20.477 3.47,-27.652"
             style="fill:none;stroke:#2f2482;stroke-width:2.722;stroke-linecap:butt;stroke-linejoin:miter;stroke-miterlimit:22.926;stroke-dasharray:none;stroke-opacity:1"
             id="path2392" /></g><g
           id="g2394"
           transform="translate(414.5885,390.1022)"><path
             d="m 0,0 c -4.16,-1.052 -6.348,-1.827 -10.065,-5.537 -0.256,4.927 -1.2,9.813 -3.905,12.559 -4.382,-2.442 -6.514,-7.849 -9.028,-12.141 -1.155,3.583 -3.024,8.169 -6.491,9.181 -3.153,-13.178 -4.814,-22.397 -2.198,-32.276 0.316,-3.83 2.152,-11.77 6.876,-12.753 6.006,-1.249 11.579,5.37 13.039,7.841 C -4.626,-22.442 -1.578,-12.202 0,0"
             style="fill:none;stroke:#2f2482;stroke-width:4.083;stroke-linecap:butt;stroke-linejoin:miter;stroke-miterlimit:22.926;stroke-dasharray:none;stroke-opacity:1"
             id="path2396" /></g><g
           id="g2398"
           transform="translate(389.8054,348.8604)"><path
             d="M 0,0 C 7.674,8.572 13.917,27.081 14.409,35.98"
             style="fill:none;stroke:#2f2482;stroke-width:2.722;stroke-linecap:butt;stroke-linejoin:miter;stroke-miterlimit:22.926;stroke-dasharray:none;stroke-opacity:1"
             id="path2400" /></g><g
           id="g2402"
           transform="translate(391.4371,385.2797)"><path
             d="M 0,0 C -0.363,-11.497 -3.145,-28.573 -3.172,-35.95"
             style="fill:none;stroke:#2f2482;stroke-width:2.722;stroke-linecap:butt;stroke-linejoin:miter;stroke-miterlimit:22.926;stroke-dasharray:none;stroke-opacity:1"
             id="path2404" /></g><g
           id="g2406"
           transform="translate(376.6686,349.5566)"><path
             d="M 0,0 C -10.839,-12.551 -16.313,-25.552 -16.428,-39.006"
             style="fill:none;stroke:#2f2482;stroke-width:4.083;stroke-linecap:butt;stroke-linejoin:miter;stroke-miterlimit:22.926;stroke-dasharray:none;stroke-opacity:1"
             id="path2408" /></g><g
           id="g2410"
           transform="translate(360.2409,310.5507)"><path
             d="M 0,0 14.249,-12.104"
             style="fill:none;stroke:#2f2482;stroke-width:4.083;stroke-linecap:butt;stroke-linejoin:miter;stroke-miterlimit:22.926;stroke-dasharray:none;stroke-opacity:1"
             id="path2412" /></g><g
           id="g2414"
           transform="translate(374.4899,298.4462)"><path
             d="m 0,0 c 7.373,4.734 24.024,4.851 31.348,14.459 -1.789,2.735 -4.359,4.779 -9.722,4.371 5.979,5.408 9.163,11.518 11.565,17.821 -3.688,1.689 -7.543,2.926 -12.571,1.01 0.23,5.497 -0.047,10.656 -3.856,13.449 C 12.117,49.214 9.438,45.346 7.041,41.192 6.04,43.942 5.427,47.928 2.179,51.11"
             style="fill:none;stroke:#2f2482;stroke-width:4.083;stroke-linecap:butt;stroke-linejoin:miter;stroke-miterlimit:22.926;stroke-dasharray:none;stroke-opacity:1"
             id="path2416" /></g><g
           id="g2418"
           transform="translate(363.0915,307.6943)"><path
             d="M 0,0 C 5.375,12.799 13.653,22.803 18.271,31.944"
             style="fill:none;stroke:#2f2482;stroke-width:2.722;stroke-linecap:butt;stroke-linejoin:miter;stroke-miterlimit:22.926;stroke-dasharray:none;stroke-opacity:1"
             id="path2420" /></g><g
           id="g2422"
           transform="translate(366.4431,304.8358)"><path
             d="M 0,0 C 12.566,8.406 22.546,17.042 28.667,31.439"
             style="fill:none;stroke:#2f2482;stroke-width:2.722;stroke-linecap:butt;stroke-linejoin:miter;stroke-miterlimit:22.926;stroke-dasharray:none;stroke-opacity:1"
             id="path2424" /></g><g
           id="g2426"
           transform="translate(396.9539,317.2762)"><path
             d="M 0,0 C -12.276,-4.064 -20.663,-9.039 -27.995,-14.459"
             style="fill:none;stroke:#2f2482;stroke-width:2.722;stroke-linecap:butt;stroke-linejoin:miter;stroke-miterlimit:22.926;stroke-dasharray:none;stroke-opacity:1"
             id="path2428" /></g><g
           id="g2430"
           transform="translate(365.5261,275.4709)"><path
             d="m 0,0 c 3.896,0.563 10.221,4.562 12.605,9.694 -2.424,3.605 -6.494,5.134 -9.667,4.944 0.64,3.539 2.932,7.384 1.801,12.451 -3.916,0.219 -8.843,-1.112 -10.994,-2.661 0.099,4.049 -0.555,6.914 -1.99,8.174 -12.936,-3.541 -25.211,-18.12 -28.241,-25.475 0.094,-5.007 0.19,-2.694 0.284,-7.697"
             style="fill:none;stroke:#2f2482;stroke-width:4.083;stroke-linecap:butt;stroke-linejoin:miter;stroke-miterlimit:22.926;stroke-dasharray:none;stroke-opacity:1"
             id="path2432" /></g><g
           id="g2434"
           transform="translate(329.324,274.9005)"><path
             d="M 0,0 36.202,0.57"
             style="fill:none;stroke:#2f2482;stroke-width:4.083;stroke-linecap:butt;stroke-linejoin:miter;stroke-miterlimit:22.926;stroke-dasharray:none;stroke-opacity:1"
             id="path2436" /></g><g
           id="g2438"
           transform="translate(359.5552,300.1836)"><path
             d="M 0,0 C -8.411,-9.02 -17.263,-16.665 -24.165,-25.189"
             style="fill:none;stroke:#2f2482;stroke-width:2.722;stroke-linecap:butt;stroke-linejoin:miter;stroke-miterlimit:22.926;stroke-dasharray:none;stroke-opacity:1"
             id="path2440" /></g><g
           id="g2442"
           transform="translate(368.4645,290.4883)"><path
             d="M 0,0 C -7.083,-6.641 -14.938,-12.178 -19.239,-15.017"
             style="fill:none;stroke:#2f2482;stroke-width:2.722;stroke-linecap:butt;stroke-linejoin:miter;stroke-miterlimit:22.926;stroke-dasharray:none;stroke-opacity:1"
             id="path2444" /></g><g
           id="g2446"
           transform="translate(348.2203,288.3966)"><path
             d="M 0,0 -0.389,15.231"
             style="fill:none;stroke:#2f2482;stroke-width:2.722;stroke-linecap:butt;stroke-linejoin:miter;stroke-miterlimit:22.926;stroke-dasharray:none;stroke-opacity:1"
             id="path2448" /></g><g
           id="g2450"
           transform="translate(328.8739,274.9725)"><path
             d="M 0,0 C 12.099,0.058 24.2,0.118 36.302,0.179 40.5,-0.417 43.957,-1.609 45.778,-4.124 41.601,-7.525 37.906,-9.797 34.691,-11.299 21.507,-8.966 7.274,-7.931 -7.332,-6.995"
             style="fill:none;stroke:#2f2482;stroke-width:3.292;stroke-linecap:butt;stroke-linejoin:miter;stroke-miterlimit:22.926;stroke-dasharray:none;stroke-opacity:1"
             id="path2452" /></g><g
           id="g2454"
           transform="translate(321.5418,267.9775)"><path
             d="M 0,0 7.332,6.995"
             style="fill:none;stroke:#2f2482;stroke-width:3.292;stroke-linecap:butt;stroke-linejoin:miter;stroke-miterlimit:22.926;stroke-dasharray:none;stroke-opacity:1"
             id="path2456" /></g><g
           id="g2458"
           transform="translate(303.6591,261.1633)"><path
             d="M 0,0 15.378,5.2"
             style="fill:none;stroke:#2f2482;stroke-width:4.083;stroke-linecap:butt;stroke-linejoin:miter;stroke-miterlimit:22.926;stroke-dasharray:none;stroke-opacity:1"
             id="path2460" /></g><g
           id="g2462"
           transform="translate(319.0368,266.3634)"><path
             d="M 0,0 C 15.02,-2.345 28.491,-7.215 39.7,-15.782"
             style="fill:none;stroke:#2f2482;stroke-width:4.083;stroke-linecap:butt;stroke-linejoin:miter;stroke-miterlimit:22.926;stroke-dasharray:none;stroke-opacity:1"
             id="path2464" /></g><g
           id="g2466"
           transform="translate(358.7369,250.581)"><path
             d="M 0,0 -10.551,-3.586"
             style="fill:none;stroke:#2f2482;stroke-width:4.083;stroke-linecap:butt;stroke-linejoin:miter;stroke-miterlimit:22.926;stroke-dasharray:none;stroke-opacity:1"
             id="path2468" /></g><g
           id="g2470"
           transform="translate(348.1863,246.9951)"><path
             d="m 0,0 c -9.656,7.087 -21.578,11.33 -35.049,13.629 5.813,-2.808 9.922,-5.138 12.875,-9.863"
             style="fill:none;stroke:#2f2482;stroke-width:4.083;stroke-linecap:butt;stroke-linejoin:miter;stroke-miterlimit:22.926;stroke-dasharray:none;stroke-opacity:1"
             id="path2472" /></g><g
           id="g2474"
           transform="translate(326.0123,250.7607)"><path
             d="M 0,0 -10.014,-5.202"
             style="fill:none;stroke:#2f2482;stroke-width:4.083;stroke-linecap:butt;stroke-linejoin:miter;stroke-miterlimit:22.926;stroke-dasharray:none;stroke-opacity:1"
             id="path2476" /></g><g
           id="g2478"
           transform="translate(315.9978,245.5586)"><path
             d="M 0,0 C -6.42,4.204 -10.617,9.557 -12.339,15.605"
             style="fill:none;stroke:#2f2482;stroke-width:4.083;stroke-linecap:butt;stroke-linejoin:miter;stroke-miterlimit:22.926;stroke-dasharray:none;stroke-opacity:1"
             id="path2480" /></g><g
           id="g2482"
           transform="translate(347.4694,242.6893)"><path
             d="M 0,0 -21.993,8.251"
             style="fill:none;stroke:#2f2482;stroke-width:4.083;stroke-linecap:butt;stroke-linejoin:miter;stroke-miterlimit:22.926;stroke-dasharray:none;stroke-opacity:1"
             id="path2484" /></g><g
           id="g2486"
           transform="translate(325.4763,250.9404)"><path
             d="m 0,0 c -2.33,-0.946 -5.943,-2.652 -11.625,-6.457 5.839,-6.219 15.214,-8.304 23.784,-9.145"
             style="fill:none;stroke:#2f2482;stroke-width:4.083;stroke-linecap:butt;stroke-linejoin:miter;stroke-miterlimit:22.926;stroke-dasharray:none;stroke-opacity:1"
             id="path2488" /></g><g
           id="g2490"
           transform="translate(337.6355,235.338)"><path
             d="M 0,0 -1.432,5.739 9.834,7.351"
             style="fill:none;stroke:#2f2482;stroke-width:4.083;stroke-linecap:butt;stroke-linejoin:miter;stroke-miterlimit:22.926;stroke-dasharray:none;stroke-opacity:1"
             id="path2492" /></g><g
           id="g2494"
           transform="translate(248.9522,459.9558)"><path
             d="M 0,0 C 22.069,56.748 89.871,55.607 110.42,5.397"
             style="fill:none;stroke:#2f2482;stroke-width:0.216;stroke-linecap:butt;stroke-linejoin:miter;stroke-miterlimit:22.926;stroke-dasharray:none;stroke-opacity:1"
             id="path2496" /></g><g
           id="g2498"
           transform="translate(225.5547,485.8773)"><path
             d="m 0,0 c -1.486,8.448 1.727,16.898 6.642,25.351 1.928,-4.982 4.555,-7.758 8.21,-7.311"
             style="fill:none;stroke:#2f2482;stroke-width:4.083;stroke-linecap:butt;stroke-linejoin:miter;stroke-miterlimit:22.926;stroke-dasharray:none;stroke-opacity:1"
             id="path2500" /></g><g
           id="g2502"
           transform="translate(388.0321,481.5136)"><path
             d="m 0,0 c 1.486,8.448 -1.727,16.899 -6.642,25.35 -1.929,-4.981 -4.554,-7.757 -8.21,-7.31"
             style="fill:none;stroke:#2f2482;stroke-width:4.083;stroke-linecap:butt;stroke-linejoin:miter;stroke-miterlimit:22.926;stroke-dasharray:none;stroke-opacity:1"
             id="path2504" /></g><g
           id="g2506"
           transform="translate(306.1103,272.9591)"><path
             d="m 0,0 c 3.58,0 6.498,-2.918 6.498,-6.497 0,-3.58 -2.918,-6.498 -6.498,-6.498 -3.58,0 -6.498,2.918 -6.498,6.498 C -6.498,-2.918 -3.58,0 0,0"
             style="fill:none;stroke:#2f2482;stroke-width:3.293;stroke-linecap:butt;stroke-linejoin:miter;stroke-miterlimit:22.926;stroke-dasharray:none;stroke-opacity:1"
             id="path2508" /></g><g
           id="g2510"
           transform="translate(347.8929,507.4288)"><path
             d="m 0,0 -0.23,-0.519 c -0.419,-0.945 -0.457,-1.715 -0.113,-2.309 0.208,-0.34 0.519,-0.603 0.935,-0.787 0.322,-0.143 0.769,0.087 1.34,0.69 0.117,0.141 0.25,0.302 0.401,0.484 0.149,0.182 0.27,0.253 0.362,0.212 0.116,-0.052 0.122,-0.192 0.02,-0.423 C 2.674,-2.744 2.595,-2.875 2.479,-3.044 2.362,-3.213 2.268,-3.35 2.193,-3.455 1.29,-4.683 0.443,-5.569 -0.351,-6.114 -1.144,-6.66 -1.783,-6.825 -2.267,-6.61 c -0.762,0.337 -1.132,0.916 -1.114,1.735 0.018,0.82 0.263,1.76 0.733,2.821 z"
             style="fill:#2f2482;fill-opacity:1;fill-rule:evenodd;stroke:none"
             id="path2512" /></g><g
           id="g2514"
           transform="translate(345.1473,494.8778)"><path
             d="m 0,0 c -0.056,-0.251 -0.183,-0.491 -0.381,-0.721 -0.198,-0.229 -0.458,-0.473 -0.779,-0.73 -0.321,-0.258 -0.694,-0.459 -1.116,-0.603 -0.266,-0.103 -0.457,-0.128 -0.572,-0.077 -0.069,0.03 -0.179,0.203 -0.329,0.518 -0.15,0.315 -0.29,0.591 -0.42,0.827 -0.129,0.237 -0.232,0.455 -0.31,0.655 -0.077,0.2 -0.095,0.346 -0.054,0.438 0.271,0.238 0.478,0.423 0.618,0.554 0.456,0.405 0.792,0.697 1.01,0.877 0.36,0.254 0.727,0.519 1.097,0.796 0.077,0.049 0.193,0.122 0.346,0.219 0.038,-0.1 0.082,-0.188 0.131,-0.264 0.049,-0.077 0.115,-0.176 0.2,-0.296 0.31,-0.607 0.5,-1.05 0.57,-1.329 C 0.08,0.585 0.077,0.297 0,0"
             style="fill:#2f2482;fill-opacity:1;fill-rule:evenodd;stroke:none"
             id="path2516" /></g><g
           id="g2518"
           transform="translate(347.9397,507.4081)"><path
             d="m 0,0 c -0.45,-0.518 -0.895,-1.024 -1.335,-1.519 -0.53,-0.51 -0.968,-0.689 -1.313,-0.535 0.122,0.276 0.783,1.425 1.982,3.446 1.199,2.02 2.13,3.56 2.792,4.618 0.064,0.082 0.457,0.473 1.182,1.173 0.724,0.7 1.287,1.223 1.688,1.569 C 5.053,8.754 5.109,8.758 5.166,8.76 5.158,8.681 5.064,8.501 4.886,8.222 L 4.349,7.384 1.89,3.425 C 1.397,2.622 0.989,1.92 0.667,1.318 0.345,0.716 0.122,0.276 0,0"
             style="fill:#2f2482;fill-opacity:1;fill-rule:evenodd;stroke:none"
             id="path2520" /></g><g
           id="g2522"
           transform="translate(341.191,510.3992)"><path
             d="m 0,0 -0.23,-0.519 c -0.419,-0.945 -0.457,-1.715 -0.113,-2.309 0.208,-0.34 0.519,-0.603 0.934,-0.786 0.323,-0.144 0.77,0.086 1.341,0.689 0.117,0.14 0.25,0.302 0.4,0.484 0.15,0.182 0.271,0.253 0.363,0.212 C 2.811,-2.28 2.817,-2.421 2.714,-2.652 2.674,-2.744 2.595,-2.875 2.479,-3.044 2.362,-3.213 2.267,-3.35 2.193,-3.455 1.29,-4.683 0.442,-5.569 -0.351,-6.114 -1.144,-6.66 -1.783,-6.825 -2.268,-6.61 c -0.76,0.337 -1.132,0.916 -1.114,1.735 0.019,0.82 0.263,1.76 0.733,2.821 z"
             style="fill:#2f2482;fill-opacity:1;fill-rule:evenodd;stroke:none"
             id="path2524" /></g><g
           id="g2526"
           transform="translate(349.9668,524.2776)"><path
             d="M 0,0 C -0.056,-0.251 -0.183,-0.492 -0.381,-0.721 -0.579,-0.95 -0.839,-1.194 -1.16,-1.452 -1.481,-1.709 -1.854,-1.91 -2.276,-2.054 c -0.266,-0.103 -0.457,-0.128 -0.572,-0.077 -0.069,0.03 -0.179,0.203 -0.329,0.518 -0.15,0.315 -0.29,0.59 -0.42,0.827 -0.13,0.237 -0.232,0.455 -0.31,0.655 -0.077,0.199 -0.095,0.346 -0.054,0.438 0.271,0.238 0.477,0.423 0.618,0.553 0.456,0.406 0.792,0.698 1.01,0.878 0.36,0.254 0.727,0.519 1.097,0.796 0.077,0.049 0.192,0.122 0.346,0.219 0.038,-0.1 0.082,-0.188 0.131,-0.264 0.049,-0.078 0.115,-0.176 0.2,-0.296 0.31,-0.607 0.5,-1.05 0.569,-1.329 C 0.08,0.585 0.077,0.297 0,0"
             style="fill:#2f2482;fill-opacity:1;fill-rule:evenodd;stroke:none"
             id="path2528" /></g><g
           id="g2530"
           transform="translate(341.2054,510.3927)"><path
             d="M 0,0 C -0.192,-0.246 -0.389,-0.504 -0.591,-0.773 -0.793,-1.042 -1.043,-1.31 -1.341,-1.578 -1.639,-1.846 -1.916,-2.02 -2.172,-2.1 c -0.256,-0.08 -0.415,-0.064 -0.477,0.046 0.235,0.53 0.544,1.117 0.926,1.762 0.383,0.644 0.631,1.065 0.746,1.263 l 0.204,0.365 c 0.03,0.069 0.039,0.12 0.026,0.154 C -0.76,1.523 -0.816,1.521 -0.916,1.482 -1.059,1.407 -1.301,1.266 -1.641,1.058 -2.345,0.653 -2.862,0.358 -3.192,0.173 -4.273,-0.397 -5.5,-0.832 -6.875,-1.133 c -1.375,-0.301 -2.748,-0.41 -4.118,-0.327 -1.37,0.083 -2.868,0.299 -4.493,0.647 -1.626,0.347 -3.246,0.879 -4.86,1.595 l -0.519,0.23 c -0.991,0.439 -1.773,0.855 -2.345,1.246 -0.908,0.623 -1.448,1.228 -1.616,1.813 -0.168,0.585 -0.058,1.315 0.33,2.192 0.327,0.738 0.716,1.476 1.168,2.214 0.451,0.738 0.769,1.066 0.953,0.984 0.069,-0.03 0.021,-0.279 -0.143,-0.743 -0.165,-0.465 -0.174,-0.937 -0.028,-1.416 0.317,-0.968 1.673,-1.983 4.071,-3.046 1.315,-0.582 2.379,-1.013 3.194,-1.291 3.925,-1.353 7.419,-1.812 10.481,-1.376 1.426,0.168 2.667,0.57 3.722,1.206 0.8,0.501 1.559,1.185 2.275,2.054 L 2.556,6.606 C 2.694,6.793 3.208,7.269 4.098,8.033 4.674,8.523 5.046,8.834 5.215,8.966 5.384,9.098 5.568,9.202 5.768,9.279 5.686,9.095 5.609,8.922 5.538,8.76 5.198,8.304 4.944,7.948 4.774,7.692 L 2.438,4.381 C 1.861,3.451 1.356,2.593 0.924,1.805 0.492,1.016 0.184,0.415 0,0"
             style="fill:#2f2482;fill-opacity:1;fill-rule:evenodd;stroke:none"
             id="path2532" /></g><g
           id="g2534"
           transform="translate(349.5246,521.583)"><path
             d="m 0,0 c 0.753,0.329 2.256,0.793 4.509,1.395 1.997,0.522 6.915,3.471 6.006,1.601 L 9.588,1.089 C 9.04,-0.038 7.319,0.453 6.392,0.229 5.153,-0.077 3.919,-0.371 2.69,-0.654 l -3.215,-0.81 c -0.468,-0.124 -0.912,-0.238 -1.33,-0.341 -0.419,-0.105 -0.636,-0.112 -0.651,-0.023 0.409,0.426 0.821,0.795 1.235,1.108 C -0.856,-0.407 -0.433,-0.167 0,0"
             style="fill:#2f2482;fill-opacity:1;fill-rule:evenodd;stroke:none"
             id="path2536" /></g><g
           id="g2538"
           transform="translate(287.1476,532.6764)"><path
             d="M 0,0 C -0.001,0.169 0.014,0.39 0.046,0.66 0.045,0.717 0.067,0.813 0.111,0.948 0.236,0.871 0.316,0.798 0.35,0.731 l 0.416,-1.232 0.76,-1.991 1.159,-3.189 c 0.254,-0.72 0.431,-1.33 0.531,-1.831 0.1,-0.501 0.175,-1.051 0.224,-1.649 l 0.05,-2.013 C 3.452,-11.93 3.408,-12.44 3.359,-12.706 3.311,-12.972 3.23,-13.133 3.118,-13.19 l -0.222,0.184 c -0.13,0.699 -0.262,1.374 -0.397,2.028 -0.135,0.653 -0.249,1.154 -0.342,1.503 -0.302,1.148 -0.612,2.144 -0.929,2.987 -0.317,0.844 -0.602,1.597 -0.856,2.261 L 0.21,-2.993 Z"
             style="fill:#2f2482;fill-opacity:1;fill-rule:evenodd;stroke:none"
             id="path2540" /></g><g
           id="g2542"
           transform="translate(284.7118,528.3337)"><path
             d="m 0,0 c 0.458,-2.23 0.424,-3.691 -0.101,-4.383 l -0.954,-1.294 c -0.089,-0.102 -0.192,-0.275 -0.308,-0.519 -0.117,-0.243 -0.192,-0.444 -0.224,-0.602 -0.065,-0.373 -0.077,-0.875 -0.039,-1.506 0.123,-1.184 0.192,-2.04 0.207,-2.57 0.03,-0.948 -0.234,-1.762 -0.793,-2.443 -0.212,-0.25 -0.601,-0.597 -1.168,-1.042 -0.565,-0.444 -0.995,-0.741 -1.287,-0.89 -0.258,-0.16 -0.472,-0.184 -0.642,-0.073 -0.069,0.078 -0.028,0.276 0.122,0.593 0.15,0.317 0.341,0.691 0.575,1.121 0.022,0.069 0.284,0.528 0.784,1.378 0.311,0.555 0.49,0.872 0.534,0.951 0.377,0.815 0.614,1.433 0.712,1.85 0.033,0.159 0.017,0.844 -0.05,2.056 -0.065,1.212 -0.061,2.035 0.015,2.47 0.075,0.436 0.28,0.936 0.614,1.503 0.067,0.091 0.306,0.426 0.719,1.004 0.301,0.408 0.496,0.72 0.585,0.935 0.089,0.216 0.145,0.605 0.168,1.169 0.024,0.564 0.087,0.858 0.188,0.881 C -0.219,0.625 -0.105,0.428 0,0"
             style="fill:#2f2482;fill-opacity:1;fill-rule:evenodd;stroke:none"
             id="path2544" /></g><g
           id="g2546"
           transform="translate(292.1255,512.2154)"><path
             d="M 0,0 C 0.159,-0.202 0.266,-0.452 0.319,-0.75 0.372,-1.049 0.397,-1.404 0.395,-1.816 0.393,-2.227 0.314,-2.643 0.16,-3.061 0.072,-3.332 -0.029,-3.497 -0.141,-3.554 c -0.067,-0.034 -0.27,-0.011 -0.61,0.071 -0.339,0.082 -0.641,0.147 -0.907,0.196 -0.265,0.048 -0.5,0.106 -0.703,0.172 -0.203,0.066 -0.328,0.144 -0.374,0.234 -0.014,0.361 -0.028,0.637 -0.041,0.828 -0.027,0.61 -0.042,1.055 -0.044,1.337 0.031,0.44 0.055,0.892 0.074,1.354 0.01,0.091 0.026,0.226 0.047,0.406 0.102,-0.032 0.198,-0.054 0.289,-0.065 0.09,-0.01 0.208,-0.021 0.355,-0.031 0.667,-0.141 1.13,-0.273 1.39,-0.395 C -0.404,0.431 -0.183,0.247 0,0 m -3.369,-1.972 c 0.16,-0.202 0.266,-0.452 0.319,-0.751 0.053,-0.298 0.079,-0.654 0.077,-1.065 -0.003,-0.412 -0.081,-0.828 -0.236,-1.246 -0.088,-0.271 -0.188,-0.436 -0.3,-0.493 -0.068,-0.034 -0.271,-0.011 -0.61,0.071 -0.339,0.082 -0.641,0.147 -0.907,0.196 -0.265,0.049 -0.5,0.106 -0.703,0.172 -0.204,0.066 -0.329,0.144 -0.374,0.234 -0.015,0.361 -0.028,0.637 -0.041,0.829 -0.027,0.609 -0.043,1.054 -0.045,1.336 0.031,0.44 0.055,0.892 0.074,1.354 0.011,0.091 0.026,0.226 0.048,0.407 0.102,-0.033 0.198,-0.055 0.288,-0.065 0.09,-0.011 0.209,-0.021 0.355,-0.032 0.667,-0.141 1.13,-0.272 1.391,-0.395 0.261,-0.122 0.482,-0.306 0.664,-0.552"
             style="fill:#2f2482;fill-opacity:1;fill-rule:evenodd;stroke:none"
             id="path2548" /></g><g
           id="g2550"
           transform="translate(273.6289,525.7817)"><path
             d="M 0,0 C -0.001,0.169 0.014,0.39 0.046,0.66 0.045,0.717 0.067,0.813 0.111,0.949 0.236,0.871 0.315,0.798 0.35,0.73 l 0.416,-1.231 0.76,-1.991 1.159,-3.189 c 0.254,-0.72 0.431,-1.33 0.531,-1.831 0.1,-0.502 0.174,-1.051 0.224,-1.649 l 0.05,-2.013 C 3.451,-11.93 3.408,-12.44 3.358,-12.706 3.31,-12.972 3.229,-13.133 3.117,-13.19 l -0.221,0.184 c -0.13,0.698 -0.262,1.374 -0.397,2.027 -0.135,0.653 -0.249,1.155 -0.342,1.504 -0.303,1.148 -0.612,2.144 -0.929,2.987 -0.317,0.843 -0.602,1.597 -0.856,2.261 L 0.21,-2.993 Z"
             style="fill:#2f2482;fill-opacity:1;fill-rule:evenodd;stroke:none"
             id="path2552" /></g><g
           id="g2554"
           transform="translate(268.5036,511.9554)"><path
             d="M 0,0 C -0.148,0.236 -0.367,0.414 -0.656,0.536 -0.944,0.658 -1.416,0.778 -2.072,0.897 -2.196,0.918 -2.334,0.926 -2.486,0.919 -2.638,0.912 -2.799,0.908 -2.969,0.907 -2.989,0.726 -3.005,0.591 -3.016,0.5 -3.058,0.139 -3.094,-0.318 -3.124,-0.871 l 0.119,-2.148 c 0.103,-0.146 0.281,-0.232 0.535,-0.258 0.254,-0.027 0.528,-0.049 0.822,-0.07 0.033,-0.011 0.406,-0.076 1.118,-0.194 0.214,-0.032 0.344,-0.037 0.389,-0.014 0.225,0.171 0.411,0.776 0.561,1.815 0.075,0.52 0.009,0.981 -0.197,1.386 C 0.143,-0.197 0.068,-0.079 0,0 M 5.208,0.448 C 5.336,-0.082 5.438,-0.49 5.514,-0.777 5.59,-1.064 5.651,-1.394 5.699,-1.765 5.853,-2.678 5.912,-3.653 5.875,-4.691 5.838,-5.729 5.711,-6.757 5.493,-7.774 5.145,-9.311 4.606,-10.613 3.875,-11.679 c -0.73,-1.066 -1.713,-1.914 -2.949,-2.544 -1.416,-0.723 -2.724,-0.837 -3.923,-0.345 -1.2,0.493 -2.155,1.436 -2.865,2.829 -0.355,0.696 -0.65,1.495 -0.882,2.395 -0.233,0.901 -0.378,1.67 -0.434,2.307 -0.056,0.636 -0.086,1.321 -0.092,2.055 -0.008,0.958 0.012,1.946 0.061,2.961 0.019,0.406 0.037,0.635 0.054,0.686 0.016,0.051 0.075,0.088 0.177,0.111 0.056,10e-4 0.125,-0.12 0.205,-0.362 0.081,-0.242 0.139,-0.452 0.175,-0.633 l 0.125,-2.994 c 0.086,-0.891 0.153,-1.493 0.201,-1.809 0.095,-0.575 0.274,-1.12 0.537,-1.637 0.676,-1.325 1.613,-2.051 2.81,-2.177 0.903,-0.106 1.872,0.105 2.905,0.632 0.741,0.378 1.362,0.773 1.86,1.182 0.499,0.411 0.974,0.95 1.426,1.619 0.451,0.67 0.787,1.4 1.006,2.191 0.154,0.531 0.283,1.249 0.389,2.153 0.04,0.586 0.028,1.11 -0.038,1.572 -0.066,0.463 -0.248,0.986 -0.546,1.57 L 2.907,2.544 C 2.701,2.949 2.556,3.342 2.475,3.725 2.392,4.108 2.321,4.609 2.259,5.229 L 2.263,6.887 C 2.272,7.203 2.279,7.398 2.284,7.472 2.289,7.545 2.308,7.661 2.341,7.819 2.51,7.764 2.629,7.64 2.699,7.45 L 3.132,6.184 3.823,4.413 C 4.155,3.761 4.408,3.168 4.581,2.633 4.755,2.099 4.964,1.37 5.208,0.448"
             style="fill:#2f2482;fill-opacity:1;fill-rule:evenodd;stroke:none"
             id="path2556" /></g><g
           id="g2558"
           transform="translate(309.0101,532.4153)"><path
             d="m 0,0 v -0.643 c 0,-0.807 0.164,-1.419 0.492,-1.835 0.328,-0.416 0.693,-0.624 1.097,-0.624 0.076,0.025 0.202,0.296 0.378,0.813 0.177,0.517 0.329,0.914 0.454,1.192 0.354,-0.076 0.612,-0.252 0.776,-0.53 0.164,-0.277 0.259,-0.555 0.284,-0.833 0,-0.932 -0.202,-1.841 -0.606,-2.723 -0.555,-1.186 -1.298,-1.779 -2.232,-1.779 -0.529,0 -1.009,0.271 -1.437,0.814 -0.429,0.542 -0.669,1.059 -0.719,1.551 -0.051,0.492 -0.076,0.801 -0.076,0.927 v 0.265 0.454 z"
             style="fill:#2f2482;fill-opacity:1;fill-rule:evenodd;stroke:none"
             id="path2560" /></g><g
           id="g2562"
           transform="translate(308.9809,532.4153)"><path
             d="m 0,0 -0.341,-2.421 c -0.126,-0.833 -0.258,-1.513 -0.397,-2.043 -0.139,-0.53 -0.271,-0.795 -0.397,-0.795 -0.101,0 -0.252,-0.176 -0.454,-0.529 -0.454,-0.757 -0.681,-1.236 -0.681,-1.438 0,-0.152 0.145,-0.334 0.435,-0.548 0.29,-0.215 0.485,-0.36 0.586,-0.436 0.353,-0.277 0.637,-0.574 0.852,-0.889 0.214,-0.315 0.321,-0.712 0.321,-1.192 0,-0.63 -0.176,-1.564 -0.53,-2.8 -0.454,-1.614 -1.065,-3.02 -1.835,-4.218 -0.769,-1.198 -1.658,-2.176 -2.667,-2.932 -1.261,-0.959 -2.598,-1.438 -4.01,-1.438 -1.59,0 -2.788,0.504 -3.595,1.513 -0.706,0.883 -1.059,2.056 -1.059,3.519 0,0.883 0.063,1.69 0.189,2.421 0.126,0.732 0.366,1.552 0.719,2.46 0.252,0.656 0.561,1.381 0.927,2.175 0.365,0.795 0.731,1.539 1.097,2.232 0.366,0.694 0.663,1.281 0.889,1.76 0.479,0.933 0.77,1.387 0.87,1.362 0.076,-0.051 0.114,-0.177 0.114,-0.379 0,-0.328 -0.088,-0.668 -0.265,-1.021 -0.908,-2.043 -1.564,-3.532 -1.967,-4.465 -0.707,-1.639 -1.059,-2.913 -1.059,-3.821 0,-1.236 0.403,-2.182 1.21,-2.838 0.731,-0.58 1.69,-0.87 2.875,-0.87 1.514,0 2.851,0.372 4.011,1.116 1.16,0.744 1.967,1.798 2.421,3.16 0.026,0.151 -0.056,0.321 -0.246,0.51 -0.189,0.19 -0.561,0.461 -1.116,0.814 -0.428,0.252 -0.68,0.416 -0.756,0.492 -0.379,0.328 -0.568,0.756 -0.568,1.286 0,0.303 0.151,0.832 0.454,1.589 l 1.173,2.346 c 0.303,0.555 0.53,0.984 0.681,1.286 0.277,0.555 0.442,0.971 0.492,1.249 l 0.038,0.832 0.113,1.967 c 0.076,0.707 0.183,1.4 0.322,2.081 0.139,0.682 0.258,1.211 0.36,1.59 0.201,0.656 0.352,1.11 0.453,1.362 0.202,0.504 0.505,1.097 0.908,1.778 C 0.668,5.902 0.75,5.921 0.813,5.884 0.876,5.846 0.857,5.675 0.757,5.373 0.58,4.314 0.454,3.506 0.378,2.951 0.126,1.287 0,0.303 0,0"
             style="fill:#2f2482;fill-opacity:1;fill-rule:evenodd;stroke:none"
             id="path2564" /></g><g
           id="g2566"
           transform="translate(311.5984,544.5887)"><path
             d="m 0,0 c 0.126,0 0.189,-0.139 0.189,-0.416 0,-0.303 -0.019,-0.568 -0.056,-0.794 -0.038,-0.227 -0.12,-0.442 -0.246,-0.644 -0.278,-0.58 -0.618,-0.87 -1.022,-0.87 -0.252,0 -0.454,0.126 -0.605,0.379 l -0.227,0.453 c -0.051,-0.1 -0.101,-0.176 -0.151,-0.226 -0.051,-0.051 -0.101,-0.101 -0.152,-0.152 -0.277,-0.479 -0.656,-0.719 -1.135,-0.719 -0.277,0 -0.523,0.133 -0.737,0.398 -0.215,0.264 -0.322,0.599 -0.322,1.002 0,0.404 0.044,0.782 0.132,1.135 0.088,0.353 0.221,0.53 0.397,0.53 0.026,0 0.045,-0.107 0.057,-0.321 0.013,-0.215 0.025,-0.392 0.038,-0.531 0.013,-0.138 0.057,-0.277 0.132,-0.415 0.076,-0.14 0.253,-0.209 0.53,-0.209 0.227,0 0.429,0.088 0.605,0.265 0.177,0.177 0.341,0.379 0.492,0.606 0.076,0.125 0.151,0.189 0.227,0.189 0.076,0 0.133,-0.076 0.17,-0.227 0.038,-0.152 0.082,-0.252 0.133,-0.303 0.152,-0.227 0.353,-0.34 0.605,-0.34 0.102,0 0.202,0.038 0.303,0.113 0.101,0.075 0.164,0.126 0.189,0.151 0.126,0.152 0.252,0.379 0.378,0.682 0,0.05 0.026,0.138 0.076,0.264"
             style="fill:#2f2482;fill-opacity:1;fill-rule:evenodd;stroke:none"
             id="path2568" /></g></g></g></g></svg>
