<?xml version="1.0" encoding="UTF-8" standalone="no"?>
<svg
   xmlns:dc="http://purl.org/dc/elements/1.1/"
   xmlns:cc="http://creativecommons.org/ns#"
   xmlns:rdf="http://www.w3.org/1999/02/22-rdf-syntax-ns#"
   xmlns:svg="http://www.w3.org/2000/svg"
   xmlns="http://www.w3.org/2000/svg"
   xmlns:sodipodi="http://sodipodi.sourceforge.net/DTD/sodipodi-0.dtd"
   xmlns:inkscape="http://www.inkscape.org/namespaces/inkscape"
   version="1.1"
   id="svg2614"
   xml:space="preserve"
   width="816"
   height="1056"
   viewBox="0 0 816 1056"
   sodipodi:docname="parsian.svg"
   inkscape:version="1.0.1 (3bc2e813f5, 2020-09-07)"><sodipodi:namedview
     pagecolor="#ffffff"
     bordercolor="#666666"
     borderopacity="1"
     objecttolerance="10"
     gridtolerance="10"
     guidetolerance="10"
     inkscape:pageopacity="0"
     inkscape:pageshadow="2"
     inkscape:window-width="1848"
     inkscape:window-height="1009"
     id="namedview2653"
     showgrid="false"
     inkscape:zoom="0.61580177"
     inkscape:cx="408"
     inkscape:cy="528"
     inkscape:window-x="72"
     inkscape:window-y="34"
     inkscape:window-maximized="1"
     inkscape:current-layer="svg2614" /><metadata
     id="metadata2620"><rdf:RDF><cc:Work
         rdf:about=""><dc:format>image/svg+xml</dc:format><dc:type
           rdf:resource="http://purl.org/dc/dcmitype/StillImage" /><dc:title /></cc:Work></rdf:RDF></metadata><defs
     id="defs2618"><clipPath
       clipPathUnits="userSpaceOnUse"
       id="clipPath2630"><path
         d="M 0,792 H 612 V 0 H 0 Z"
         id="path2628" /></clipPath></defs><g
     id="g2622"
     transform="matrix(2.6364773,0,0,-2.6364773,-398.762,1572.0454)"><g
       id="g2624"><g
         id="g2626"
         clip-path="url(#clipPath2630)"><g
           id="g2632"
           transform="translate(390.0455,536.6616)"><path
             d="m 0,0 c 0.509,-0.251 2.42,-1.375 2.909,-1.637 9.956,-5.325 15.851,-13.002 15.935,-24.041 v -172.753 l -80.212,-0.078 -19.866,0.072 v 71.161 c -0.073,25.642 3.1,47.386 11.019,63.434 0,0 8.203,-8.398 11.523,-23.436 3.19,8.723 9.244,15.625 18.164,20.702 5.895,-34.279 -7.908,-51.01 -30.663,-59.764 v -62.9 l 80.212,0.078 v 154.753 c -0.089,11.583 -6.574,19.463 -17.433,24.81 z"
             style="fill:#d43e33;fill-opacity:1;fill-rule:evenodd;stroke:none"
             id="path2634" /></g><g
           id="g2636"
           transform="translate(221.9539,536.6616)"><path
             d="m 0,0 c -0.509,-0.251 -2.42,-1.375 -2.91,-1.637 -9.955,-5.325 -15.85,-13.002 -15.934,-24.041 v -172.753 l 80.212,-0.078 19.866,0.072 v 71.161 c 0.073,25.642 -3.1,47.386 -11.019,63.434 0,0 -8.203,-8.398 -11.523,-23.436 -3.19,8.723 -9.244,15.625 -18.164,20.702 -5.895,-34.279 7.908,-51.01 30.663,-59.764 v -62.9 l -80.212,0.078 v 154.753 c 0.089,11.583 6.574,19.463 17.433,24.81 z"
             style="fill:#d43e33;fill-opacity:1;fill-rule:evenodd;stroke:none"
             id="path2638" /></g><g
           id="g2640"
           transform="translate(400.0969,551.5126)"><path
             d="m 0,0 c -22.306,-18.36 -36.889,-41.022 -39.144,-72.057 -0.888,-12.218 -3.103,-19.392 -6.16,-25.56 l -1.752,24.029 c -4.965,-1.668 -8.552,-4.254 -11.514,-7.259 -3.17,7.051 -11.096,8.553 -22.277,6.258 C -62.627,-29.358 -36.241,-3.18 0,0"
             style="fill:#1a1a18;fill-opacity:1;fill-rule:evenodd;stroke:none"
             id="path2642" /></g><g
           id="g2644"
           transform="translate(329.0173,507.5184)"><path
             d="M 0,0 C 5.274,8.494 11.439,16.098 18.907,22.401 15.695,33.858 14.24,46.017 13.769,58.571 8.837,43.757 1.233,31.391 -10.276,22.606 -7.946,14.522 -4.521,6.987 0,0"
             style="fill:#d43e33;fill-opacity:1;fill-rule:evenodd;stroke:none"
             id="path2646" /></g><g
           id="g2648"
           transform="translate(351.807,533.429)"><path
             d="m 0,0 c -3.504,8.56 -5.404,17.655 -3.774,27.927 2.284,11.67 36.748,2.858 25.691,-10.775 z"
             style="fill:#1a1a18;fill-opacity:1;fill-rule:evenodd;stroke:none"
             id="path2650" /></g><g
           id="g2652"
           transform="translate(317.0854,534.6434)"><path
             d="M 0,0 C 8.176,7.513 14.646,16.354 18.646,27.117 22.874,38.51 -6.612,43.553 -6.73,29.588 -6.82,19.258 -4.577,9.395 0,0"
             style="fill:#1a1a18;fill-opacity:1;fill-rule:evenodd;stroke:none"
             id="path2654" /></g><g
           id="g2656"
           transform="translate(210.2068,551.5126)"><path
             d="m 0,0 c 22.306,-18.36 36.889,-41.022 39.144,-72.057 0.888,-12.218 3.103,-19.392 6.16,-25.56 l 1.752,24.029 c 4.965,-1.668 8.552,-4.254 11.514,-7.259 3.17,7.051 11.096,8.553 22.277,6.258 C 62.627,-29.358 36.241,-3.18 0,0"
             style="fill:#1a1a18;fill-opacity:1;fill-rule:evenodd;stroke:none"
             id="path2658" /></g><g
           id="g2660"
           transform="translate(281.2864,507.5184)"><path
             d="m 0,0 c -5.274,8.494 -11.44,16.098 -18.907,22.401 3.212,11.457 4.667,23.616 5.138,36.17 C -8.837,43.757 -1.233,31.391 10.276,22.606 7.946,14.522 4.521,6.987 0,0"
             style="fill:#d43e33;fill-opacity:1;fill-rule:evenodd;stroke:none"
             id="path2662" /></g><g
           id="g2664"
           transform="translate(258.4967,533.429)"><path
             d="M 0,0 C 3.504,8.56 5.404,17.655 3.774,27.927 1.49,39.597 -32.974,30.785 -21.917,17.152 Z"
             style="fill:#1a1a18;fill-opacity:1;fill-rule:evenodd;stroke:none"
             id="path2666" /></g><g
           id="g2668"
           transform="translate(293.2183,534.6434)"><path
             d="M 0,0 C -8.176,7.513 -14.646,16.354 -18.645,27.117 -22.874,38.51 6.612,43.553 6.731,29.588 6.82,19.258 4.577,9.395 0,0"
             style="fill:#1a1a18;fill-opacity:1;fill-rule:evenodd;stroke:none"
             id="path2670" /></g><g
           id="g2672"
           transform="translate(304.8744,479.6617)"><path
             d="M 0,0 C 4.287,-1.653 6.976,-3.669 8.82,-6.048 12.036,3.881 15.779,13.75 21.168,23.436 10.516,42.65 4.596,63.44 0,84.672 -4.596,63.44 -10.516,42.65 -21.168,23.436 -15.779,13.75 -12.036,3.881 -8.82,-6.048 -6.976,-3.669 -4.287,-1.653 0,0"
             style="fill:#1a1a18;fill-opacity:1;fill-rule:evenodd;stroke:none"
             id="path2674" /></g><g
           id="g2676"
           transform="translate(427.6344,274.8767)"><path
             d="m 0,0 v -1.381 c 0,-2.517 0.675,-4.266 2.026,-5.248 0.797,-0.553 1.749,-0.829 2.854,-0.829 0.86,0 1.627,0.951 2.302,2.854 0.123,0.43 0.26,0.922 0.414,1.473 0.154,0.553 0.353,0.83 0.598,0.83 0.308,0 0.461,-0.308 0.461,-0.922 0,-0.245 -0.046,-0.613 -0.138,-1.105 -0.093,-0.49 -0.168,-0.889 -0.231,-1.196 -0.798,-3.622 -1.81,-6.43 -3.038,-8.425 -1.227,-1.995 -2.486,-2.992 -3.775,-2.992 -2.026,0 -3.422,0.92 -4.189,2.762 -0.767,1.842 -1.151,4.174 -1.151,6.997 z"
             style="fill:#000003;fill-opacity:1;fill-rule:evenodd;stroke:none"
             id="path2678" /></g><g
           id="g2680"
           transform="translate(428.2551,234.7311)"><path
             d="m 0,0 c 0.123,-0.614 0.077,-1.273 -0.138,-1.979 -0.215,-0.706 -0.552,-1.504 -1.013,-2.395 -0.46,-0.889 -1.09,-1.702 -1.888,-2.439 -0.49,-0.491 -0.889,-0.737 -1.197,-0.737 -0.184,0 -0.597,0.276 -1.242,0.829 -0.645,0.553 -1.228,1.028 -1.75,1.427 -0.522,0.399 -0.966,0.782 -1.335,1.151 -0.369,0.368 -0.552,0.675 -0.552,0.921 0.368,0.797 0.644,1.411 0.829,1.841 0.613,1.351 1.074,2.332 1.381,2.946 0.553,0.922 1.104,1.873 1.657,2.855 0.122,0.184 0.306,0.46 0.552,0.829 0.184,-0.184 0.368,-0.338 0.553,-0.461 0.184,-0.123 0.429,-0.276 0.737,-0.461 1.289,-1.043 2.148,-1.84 2.578,-2.393 C -0.398,1.381 -0.122,0.737 0,0"
             style="fill:#000003;fill-opacity:1;fill-rule:evenodd;stroke:none"
             id="path2682" /></g><g
           id="g2684"
           transform="translate(427.6332,274.8767)"><path
             d="m 0,0 c -0.492,-1.595 -0.983,-3.161 -1.473,-4.696 -0.676,-1.656 -1.474,-2.486 -2.395,-2.486 0,0.737 0.338,3.944 1.014,9.623 0.674,5.677 1.226,10.02 1.656,13.027 0.062,0.247 0.553,1.505 1.473,3.776 0.922,2.272 1.658,3.99 2.211,5.156 0.122,0.062 0.245,0.123 0.368,0.184 C 2.915,24.4 2.884,23.909 2.762,23.111 L 2.394,20.717 0.828,9.484 C 0.522,7.213 0.307,5.249 0.183,3.591 0.061,1.934 0,0.737 0,0"
             style="fill:#000003;fill-opacity:1;fill-rule:evenodd;stroke:none"
             id="path2686" /></g><g
           id="g2688"
           transform="translate(409.9093,274.8767)"><path
             d="m 0,0 v -1.381 c 0,-2.517 0.675,-4.266 2.026,-5.248 0.797,-0.553 1.749,-0.829 2.854,-0.829 0.86,0 1.627,0.951 2.302,2.854 0.123,0.43 0.26,0.922 0.415,1.473 0.153,0.553 0.352,0.83 0.597,0.83 0.308,0 0.461,-0.308 0.461,-0.922 0,-0.245 -0.046,-0.613 -0.138,-1.105 -0.092,-0.49 -0.168,-0.889 -0.231,-1.196 -0.798,-3.622 -1.81,-6.43 -3.038,-8.425 -1.227,-1.995 -2.486,-2.992 -3.775,-2.992 -2.026,0 -3.422,0.92 -4.189,2.762 -0.767,1.842 -1.151,4.174 -1.151,6.997 z"
             style="fill:#000003;fill-opacity:1;fill-rule:evenodd;stroke:none"
             id="path2690" /></g><g
           id="g2692"
           transform="translate(413.9986,315.3878)"><path
             d="m 0,0 c 0.123,-0.614 0.077,-1.273 -0.138,-1.979 -0.215,-0.706 -0.552,-1.504 -1.013,-2.395 -0.461,-0.889 -1.09,-1.702 -1.888,-2.439 -0.49,-0.491 -0.889,-0.736 -1.197,-0.736 -0.184,0 -0.597,0.275 -1.242,0.828 -0.645,0.553 -1.228,1.028 -1.75,1.427 -0.522,0.399 -0.966,0.782 -1.335,1.151 -0.369,0.368 -0.552,0.675 -0.552,0.921 0.368,0.797 0.644,1.411 0.829,1.841 0.613,1.351 1.074,2.332 1.38,2.946 0.553,0.922 1.105,1.873 1.658,2.855 0.122,0.184 0.306,0.46 0.552,0.829 0.184,-0.184 0.368,-0.337 0.553,-0.461 0.184,-0.123 0.429,-0.276 0.737,-0.461 1.289,-1.043 2.148,-1.84 2.578,-2.393 C -0.399,1.381 -0.122,0.737 0,0"
             style="fill:#000003;fill-opacity:1;fill-rule:evenodd;stroke:none"
             id="path2694" /></g><g
           id="g2696"
           transform="translate(409.9088,274.8767)"><path
             d="m 0,0 c -0.184,-0.736 -0.368,-1.503 -0.553,-2.301 -0.184,-0.799 -0.476,-1.643 -0.874,-2.532 -0.4,-0.89 -0.844,-1.551 -1.335,-1.98 -0.492,-0.43 -0.86,-0.553 -1.105,-0.369 0,1.412 0.107,3.024 0.321,4.835 0.216,1.81 0.354,2.992 0.415,3.544 l 0.092,1.013 c 0,0.185 -0.031,0.307 -0.092,0.368 -0.061,0.062 -0.184,0 -0.368,-0.183 -0.246,-0.308 -0.644,-0.861 -1.197,-1.658 -1.166,-1.596 -2.026,-2.762 -2.578,-3.499 -1.842,-2.333 -4.143,-4.512 -6.906,-6.537 -2.762,-2.026 -5.708,-3.621 -8.839,-4.788 -3.131,-1.167 -6.676,-2.163 -10.635,-2.993 -3.959,-0.828 -8.087,-1.243 -12.384,-1.243 h -1.381 c -2.64,0 -4.788,0.154 -6.446,0.461 -2.639,0.491 -4.434,1.304 -5.386,2.44 -0.951,1.135 -1.427,2.869 -1.427,5.202 0,1.965 0.138,3.99 0.415,6.077 0.276,2.087 0.66,3.13 1.15,3.13 0.185,0 0.323,-0.599 0.415,-1.795 0.092,-1.197 0.537,-2.256 1.335,-3.177 1.658,-1.841 5.678,-2.762 12.061,-2.762 3.5,0 6.293,0.092 8.379,0.276 10.067,0.859 18.293,3.284 24.676,7.274 3.009,1.78 5.372,3.898 7.09,6.354 1.29,1.903 2.303,4.173 3.039,6.813 l 1.289,5.248 c 0.123,0.553 0.798,2.118 2.026,4.696 0.798,1.658 1.32,2.716 1.565,3.177 0.246,0.46 0.553,0.874 0.92,1.243 V 24.953 C 3.376,23.602 3.161,22.559 3.038,21.822 L 1.105,12.154 C 0.736,9.514 0.461,7.106 0.276,4.927 0.092,2.747 0,1.105 0,0"
             style="fill:#000003;fill-opacity:1;fill-rule:evenodd;stroke:none"
             id="path2698" /></g><g
           id="g2700"
           transform="translate(417.4095,307.9777)"><path
             d="m 0,0 c 1.351,1.473 4.236,3.99 8.655,7.551 3.929,3.13 7.858,6.292 11.786,9.484 2.824,2.333 5.524,4.695 8.103,7.09 1.841,1.718 4.266,4.051 7.273,6.997 4.604,4.42 6.907,6.691 6.907,6.814 0,-0.307 -0.063,-0.583 -0.185,-0.829 C 42.355,36.248 41.772,34.958 40.79,33.239 39.807,31.521 38.979,30.232 38.304,29.373 37.322,28.084 36.263,26.81 35.127,25.552 33.991,24.293 33.086,23.326 32.411,22.651 31.49,21.73 29.925,20.288 27.715,18.324 26.057,16.851 23.572,14.703 20.257,11.878 17.924,9.914 15.837,8.226 13.996,6.815 11.54,4.912 9.085,3.039 6.63,1.198 L 0.276,-3.775 c -0.92,-0.735 -1.795,-1.427 -2.623,-2.071 -0.829,-0.645 -1.304,-0.875 -1.428,-0.691 0.491,1.35 1.044,2.578 1.658,3.683 C -1.503,-1.748 -0.797,-0.797 0,0"
             style="fill:#000003;fill-opacity:1;fill-rule:evenodd;stroke:none"
             id="path2702" /></g><g
           id="g2704"
           transform="translate(334.1769,274.8767)"><path
             d="m 0,0 v -1.381 c 0,-2.517 0.675,-4.266 2.026,-5.248 0.797,-0.553 1.749,-0.829 2.855,-0.829 0.859,0 1.626,0.951 2.301,2.854 0.123,0.43 0.26,0.922 0.414,1.473 0.154,0.553 0.353,0.83 0.598,0.83 0.308,0 0.461,-0.308 0.461,-0.922 0,-0.245 -0.046,-0.613 -0.138,-1.105 -0.092,-0.49 -0.168,-0.889 -0.231,-1.196 -0.798,-3.622 -1.81,-6.43 -3.038,-8.425 -1.227,-1.995 -2.486,-2.992 -3.775,-2.992 -2.026,0 -3.422,0.92 -4.189,2.762 -0.767,1.842 -1.151,4.174 -1.151,6.997 z"
             style="fill:#000003;fill-opacity:1;fill-rule:evenodd;stroke:none"
             id="path2706" /></g><g
           id="g2708"
           transform="translate(344.2371,237.4296)"><path
             d="m 0,0 c 0,-0.859 -0.076,-1.503 -0.23,-1.933 -0.154,-0.429 -0.476,-1.013 -0.967,-1.749 -1.412,-1.903 -2.546,-2.855 -3.407,-2.855 -0.183,0 -0.537,0.261 -1.059,0.782 -0.521,0.522 -0.997,1.029 -1.426,1.52 -1.474,1.289 -2.21,2.056 -2.21,2.302 0,0.246 0.368,1.013 1.105,2.302 0.553,0.92 0.951,1.596 1.197,2.026 0.613,1.104 1.012,1.811 1.196,2.117 0.614,0.92 1.014,1.381 1.197,1.381 0.123,0 0.354,-0.122 0.691,-0.368 C -3.575,5.279 -3.192,4.942 -2.762,4.512 -1.595,3.407 -0.843,2.548 -0.505,1.934 -0.168,1.32 0,0.675 0,0 m -9.115,0 c 0,-0.859 -0.077,-1.503 -0.23,-1.933 -0.153,-0.429 -0.476,-1.013 -0.967,-1.749 -1.412,-1.903 -2.547,-2.855 -3.407,-2.855 -0.184,0 -0.536,0.261 -1.058,0.782 -0.522,0.522 -0.998,1.029 -1.427,1.52 -1.473,1.289 -2.211,2.056 -2.211,2.302 0,0.246 0.369,1.013 1.105,2.302 0.553,0.92 0.951,1.596 1.197,2.026 0.614,1.104 1.013,1.811 1.198,2.117 0.614,0.92 1.012,1.381 1.196,1.381 0.123,0 0.353,-0.122 0.69,-0.368 0.338,-0.246 0.722,-0.583 1.152,-1.013 1.166,-1.105 1.918,-1.964 2.256,-2.578 C -9.284,1.32 -9.115,0.675 -9.115,0 m 4.236,-11.601 c 0,-0.86 -0.077,-1.503 -0.23,-1.933 -0.154,-0.43 -0.476,-1.014 -0.968,-1.75 -1.411,-1.903 -2.547,-2.854 -3.406,-2.854 -0.185,0 -0.537,0.26 -1.059,0.782 -0.522,0.522 -0.997,1.029 -1.427,1.519 -1.473,1.289 -2.21,2.056 -2.21,2.303 0,0.245 0.368,1.012 1.105,2.301 0.552,0.921 0.951,1.597 1.197,2.026 0.613,1.105 1.013,1.811 1.197,2.118 0.614,0.921 1.012,1.381 1.197,1.381 0.122,0 0.352,-0.122 0.69,-0.369 0.337,-0.245 0.722,-0.583 1.152,-1.012 1.165,-1.105 1.918,-1.964 2.255,-2.578 0.338,-0.614 0.507,-1.258 0.507,-1.934"
             style="fill:#000003;fill-opacity:1;fill-rule:evenodd;stroke:none"
             id="path2710" /></g><g
           id="g2712"
           transform="translate(334.1769,274.8767)"><path
             d="m 0,0 c -0.492,-1.595 -0.983,-3.161 -1.473,-4.696 -0.676,-1.656 -1.474,-2.486 -2.395,-2.486 0,0.737 0.338,3.944 1.014,9.623 0.675,5.677 1.226,10.02 1.656,13.027 0.062,0.247 0.553,1.505 1.473,3.776 0.922,2.272 1.658,3.99 2.211,5.156 0.122,0.062 0.245,0.123 0.368,0.184 C 2.915,24.4 2.884,23.909 2.762,23.111 L 2.394,20.717 0.828,9.484 C 0.522,7.213 0.306,5.249 0.183,3.591 0.061,1.934 0,0.737 0,0"
             style="fill:#000003;fill-opacity:1;fill-rule:evenodd;stroke:none"
             id="path2714" /></g><g
           id="g2716"
           transform="translate(323.248,282.7959)"><path
             d="m 0,0 c 0,-0.737 -0.153,-1.965 -0.461,-3.684 -0.306,-1.718 -0.614,-3.221 -0.92,-4.512 l -1.105,-4.51 c -0.613,-1.72 -1.105,-2.978 -1.473,-3.776 -0.553,-1.166 -1.059,-2.117 -1.519,-2.854 -0.461,-0.736 -0.937,-1.304 -1.427,-1.704 -0.492,-0.399 -1.32,-0.905 -2.487,-1.519 l -3.314,-1.381 c -0.308,-0.122 -1.029,-0.307 -2.164,-0.552 -1.136,-0.245 -1.857,-0.369 -2.164,-0.369 -0.307,0 -0.491,0.107 -0.552,0.323 -0.062,0.214 0,0.476 0.184,0.782 0.306,0.553 1.089,1.32 2.347,2.303 1.259,0.981 2.502,1.932 3.73,2.854 1.411,1.289 2.455,2.301 3.13,3.039 0.982,1.042 1.902,2.301 2.763,3.774 0.183,0.307 0.444,0.937 0.782,1.888 0.338,0.951 0.874,2.501 1.612,4.649 l 1.104,3.315 c 0.124,0.491 0.308,1.089 0.553,1.796 0.245,0.706 0.552,1.058 0.92,1.058 C -0.153,0.491 0,0.184 0,0"
             style="fill:#000003;fill-opacity:1;fill-rule:evenodd;stroke:none"
             id="path2718" /></g><g
           id="g2720"
           transform="translate(216.2991,240.4029)"><path
             d="m 0,0 c 0.123,-0.614 0.077,-1.274 -0.138,-1.98 -0.215,-0.706 -0.553,-1.503 -1.013,-2.394 -0.46,-0.89 -1.089,-1.703 -1.888,-2.439 -0.49,-0.492 -0.89,-0.738 -1.197,-0.738 -0.184,0 -0.598,0.277 -1.242,0.83 -0.645,0.552 -1.228,1.027 -1.75,1.427 -0.522,0.399 -0.966,0.782 -1.335,1.151 -0.369,0.368 -0.553,0.675 -0.553,0.92 0.369,0.798 0.645,1.412 0.829,1.842 0.614,1.35 1.074,2.332 1.382,2.946 0.551,0.921 1.104,1.872 1.657,2.855 0.122,0.184 0.306,0.46 0.552,0.828 0.184,-0.184 0.368,-0.337 0.553,-0.46 C -3.959,4.665 -3.714,4.512 -3.407,4.327 -2.118,3.284 -1.258,2.486 -0.828,1.934 -0.399,1.381 -0.123,0.736 0,0 m -9.483,-0.553 c 0.122,-0.614 0.076,-1.273 -0.139,-1.979 -0.215,-0.706 -0.552,-1.504 -1.013,-2.395 -0.46,-0.889 -1.09,-1.702 -1.887,-2.439 -0.492,-0.491 -0.89,-0.736 -1.197,-0.736 -0.184,0 -0.599,0.275 -1.244,0.828 -0.644,0.553 -1.227,1.028 -1.748,1.427 -0.522,0.399 -0.968,0.782 -1.335,1.151 -0.369,0.368 -0.553,0.675 -0.553,0.921 0.368,0.798 0.644,1.411 0.828,1.841 0.614,1.351 1.075,2.333 1.381,2.947 0.553,0.921 1.106,1.872 1.658,2.854 0.123,0.184 0.307,0.46 0.553,0.829 0.184,-0.184 0.368,-0.337 0.551,-0.461 0.184,-0.123 0.431,-0.276 0.737,-0.46 1.289,-1.044 2.149,-1.841 2.578,-2.394 0.43,-0.553 0.706,-1.197 0.83,-1.934"
             style="fill:#000003;fill-opacity:1;fill-rule:evenodd;stroke:none"
             id="path2722" /></g><g
           id="g2724"
           transform="translate(239.4499,265.504)"><path
             d="m 0,0 c 4.665,0 9.146,0.245 13.444,0.736 6.628,0.737 13.242,2.026 19.841,3.868 6.6,1.842 14.379,5.126 23.342,9.852 7.182,3.745 12.951,7.305 17.31,10.681 1.841,1.411 4.296,3.192 7.365,5.34 2.64,1.842 5.31,3.745 8.011,5.709 1.289,0.92 2.793,1.75 4.512,2.486 0.614,0.245 1.35,0.521 2.209,0.829 0.86,0.306 1.627,0.859 2.303,1.656 0.675,0.799 1.35,1.781 2.025,2.947 0.737,1.473 1.136,2.363 1.197,2.67 0.062,0.307 -0.061,0.46 -0.368,0.46 C 100.024,46.866 99.042,46.498 98.245,46.13 98.06,46.069 96.126,45.025 92.444,42.999 91.216,42.324 87.457,39.899 81.165,35.725 74.872,31.551 70.744,28.912 68.78,27.807 62.826,24.186 56.872,21.116 50.918,18.599 46.866,16.881 42.446,15.346 37.659,13.995 34.651,13.136 31.889,12.461 29.373,11.97 25.075,11.172 20.84,10.573 16.665,10.174 12.492,9.776 8.594,9.575 4.973,9.575 H 2.209 C 1.228,9.575 0.491,9.607 0,9.668 Z"
             style="fill:#000003;fill-opacity:1;fill-rule:evenodd;stroke:none"
             id="path2726" /></g><g
           id="g2728"
           transform="translate(239.453,265.5077)"><path
             d="m 0,0 c -3.682,0 -7.918,0.307 -12.706,0.92 -4.789,0.614 -7.826,1.412 -9.116,2.395 -0.797,0.552 -1.411,0.828 -1.841,0.828 -0.184,0 -0.538,-0.153 -1.06,-0.459 -0.521,-0.308 -1.088,-0.952 -1.702,-1.934 -0.798,-1.413 -1.473,-2.578 -2.026,-3.5 -1.166,-2.025 -1.934,-3.253 -2.301,-3.682 -1.106,-1.228 -2.425,-1.842 -3.96,-1.842 -2.394,0 -4.081,1.075 -5.064,3.223 -0.737,1.596 -1.105,3.866 -1.105,6.813 l 3.867,7.182 c 0.245,-2.578 0.828,-4.389 1.75,-5.432 0.92,-1.044 2.332,-1.566 4.235,-1.566 1.473,0 2.639,0.399 3.498,1.197 0.43,0.43 1.044,1.289 1.842,2.578 1.167,1.781 2.241,3.193 3.223,4.237 1.473,1.472 2.793,2.024 3.959,1.656 3.192,-0.921 6.184,-1.641 8.978,-2.163 C -6.736,9.929 -3.561,9.668 0,9.668 0.368,8.87 0.645,8.256 0.829,7.827 1.443,6.354 1.75,5.218 1.75,4.419 1.75,3.621 1.351,2.456 0.553,0.92 0.43,0.675 0.245,0.368 0,0"
             style="fill:#000003;fill-opacity:1;fill-rule:evenodd;stroke:none"
             id="path2730" /></g><g
           id="g2732"
           transform="translate(198.572,268.2697)"><path
             d="m 0,0 c 0.184,0.062 0.308,0.123 0.368,0.184 0.676,0.43 1.197,0.83 1.566,1.197 0.859,0.859 1.442,2.333 1.75,4.42 0,0.307 0.061,0.767 0.184,1.381 v 2.026 c 0,1.473 0.153,3.621 0.459,6.445 0,0.123 0.277,2.256 0.83,6.399 0.553,4.144 0.951,7.289 1.197,9.437 0.552,4.236 0.828,6.937 0.828,8.104 0.062,0.367 0.031,0.583 -0.091,0.644 C 6.968,40.176 6.876,40.115 6.814,40.052 L 3.038,30.293 1.75,21.086 1.014,13.904 C 0.706,10.711 0.461,8.103 0.276,6.077 0.092,4.051 0,2.026 0,0"
             style="fill:#000003;fill-opacity:1;fill-rule:evenodd;stroke:none"
             id="path2734" /></g><g
           id="g2736"
           transform="translate(177.5554,268.2479)"><path
             d="m 0,0 c 0.061,-0.245 0.092,-0.583 0.092,-1.012 0,-1.106 -0.369,-2.18 -1.104,-3.224 -1.474,-2.087 -2.549,-3.191 -3.223,-3.315 -0.123,0 -0.399,0.154 -0.829,0.461 -1.412,1.044 -2.149,1.596 -2.21,1.658 -0.614,0.367 -1.182,0.721 -1.704,1.058 -0.521,0.338 -0.813,0.721 -0.874,1.151 l 2.118,4.788 c 0.675,1.166 1.258,2.117 1.749,2.854 0.123,0.185 0.308,0.46 0.553,0.829 C -5.064,5.064 -4.711,4.895 -4.374,4.742 -4.036,4.588 -3.745,4.419 -3.498,4.235 -2.209,3.253 -1.32,2.471 -0.828,1.888 -0.338,1.304 -0.061,0.675 0,0 m 11.786,-4.788 c -0.308,-1.289 -0.537,-2.287 -0.691,-2.993 -0.153,-0.706 -0.384,-1.488 -0.69,-2.348 -0.675,-2.148 -1.627,-4.327 -2.855,-6.537 -1.228,-2.21 -2.64,-4.297 -4.235,-6.261 -2.456,-2.946 -5.065,-5.172 -7.827,-6.676 -2.762,-1.503 -5.831,-2.255 -9.207,-2.255 -3.868,0 -6.829,1.197 -8.885,3.59 -2.056,2.395 -3.085,5.495 -3.085,9.3 0,1.903 0.246,3.959 0.736,6.17 0.492,2.209 1.029,4.036 1.612,5.478 0.584,1.442 1.274,2.961 2.072,4.558 1.043,2.087 2.179,4.204 3.407,6.352 0.491,0.859 0.782,1.335 0.874,1.427 0.092,0.092 0.261,0.109 0.507,0.047 0.122,-0.062 0.138,-0.399 0.046,-1.013 -0.092,-0.614 -0.2,-1.136 -0.322,-1.565 l -3.039,-6.629 c -0.798,-2.027 -1.32,-3.408 -1.565,-4.143 -0.43,-1.352 -0.646,-2.733 -0.646,-4.145 0,-3.622 1.229,-6.23 3.684,-7.826 1.842,-1.228 4.175,-1.842 6.998,-1.842 2.026,0 3.805,0.17 5.34,0.507 1.535,0.338 3.162,0.982 4.88,1.933 1.719,0.953 3.253,2.164 4.604,3.638 0.921,0.982 1.995,2.393 3.222,4.235 0.737,1.228 1.29,2.379 1.658,3.453 0.368,1.074 0.552,2.409 0.552,4.005 l 0.185,6.629 c 0,1.105 0.122,2.118 0.368,3.039 0.246,0.92 0.644,2.087 1.197,3.499 l 1.841,3.591 c 0.368,0.675 0.599,1.089 0.691,1.242 0.092,0.155 0.26,0.384 0.507,0.692 0.306,-0.308 0.429,-0.706 0.367,-1.197 L 13.628,9.944 13.167,5.34 c 0,-1.78 -0.107,-3.345 -0.323,-4.696 -0.214,-1.35 -0.567,-3.161 -1.058,-5.432"
             style="fill:#000003;fill-opacity:1;fill-rule:evenodd;stroke:none"
             id="path2738" /></g></g></g></g></svg>
