<?xml version="1.0" encoding="UTF-8" standalone="no"?>
<svg
   xmlns:dc="http://purl.org/dc/elements/1.1/"
   xmlns:cc="http://creativecommons.org/ns#"
   xmlns:rdf="http://www.w3.org/1999/02/22-rdf-syntax-ns#"
   xmlns:svg="http://www.w3.org/2000/svg"
   xmlns="http://www.w3.org/2000/svg"
   xmlns:sodipodi="http://sodipodi.sourceforge.net/DTD/sodipodi-0.dtd"
   xmlns:inkscape="http://www.inkscape.org/namespaces/inkscape"
   version="1.1"
   id="svg3391"
   xml:space="preserve"
   width="1587.4"
   height="1122.52"
   viewBox="0 0 1587.4 1122.52"
   sodipodi:docname="postBank.svg"
   inkscape:version="1.0.1 (3bc2e813f5, 2020-09-07)"><sodipodi:namedview
     pagecolor="#ffffff"
     bordercolor="#666666"
     borderopacity="1"
     objecttolerance="10"
     gridtolerance="10"
     guidetolerance="10"
     inkscape:pageopacity="0"
     inkscape:pageshadow="2"
     inkscape:window-width="1848"
     inkscape:window-height="1009"
     id="namedview2997"
     showgrid="false"
     inkscape:zoom="0.54115914"
     inkscape:cx="793.70001"
     inkscape:cy="673.25129"
     inkscape:window-x="72"
     inkscape:window-y="34"
     inkscape:window-maximized="1"
     inkscape:current-layer="svg3391" /><metadata
     id="metadata3397"><rdf:RDF><cc:Work
         rdf:about=""><dc:format>image/svg+xml</dc:format><dc:type
           rdf:resource="http://purl.org/dc/dcmitype/StillImage" /><dc:title /></cc:Work></rdf:RDF></metadata><defs
     id="defs3395"><clipPath
       clipPathUnits="userSpaceOnUse"
       id="clipPath3407"><path
         d="M 0,841.89 H 1190.551 V 0 H 0 Z"
         id="path3405" /></clipPath></defs><g
     id="g3399"
     transform="matrix(2.6708995,0,0,-2.6708995,-796.21856,1686.3921)"><g
       id="g3401"><g
         id="g3403"
         clip-path="url(#clipPath3407)"><g
           id="g3409"
           transform="translate(595.2756,392.9191)"><path
             d="m 0,0 c 65.027,0 118.063,53.239 118.063,118.516 0,65.276 -53.036,118.516 -118.063,118.516 -65.026,0 -118.063,-53.24 -118.063,-118.516 C -118.063,53.239 -65.026,0 0,0"
             style="fill:#007f31;fill-opacity:1;fill-rule:evenodd;stroke:none"
             id="path3411" /></g><g
           id="g3413"
           transform="translate(500.3521,581.9106)"><path
             d="m 0,0 11.309,-14.618 c 0,0 1.309,-1.717 3.197,-3.661 8.019,-8.256 21.457,-9.905 21.457,-9.905 3.644,-0.629 19.563,-1.351 26.761,-7.442 3.296,-2.794 8.695,-9.72 16.149,-19.356 6.669,-8.624 21.699,-27.861 21.699,-27.861 l -17.901,-17.992 c 0,0 -36.002,48.152 -39.681,52.496 -4.013,4.751 -9.914,11.732 -25.342,11.009 0,0 -1.682,-0.132 -4.042,-0.239 -2.966,-0.136 -7.065,-0.183 -11.061,0.604 -0.906,0.176 -1.769,0.478 -2.638,0.829 -1.139,0.47 -2.754,1.444 -4.016,2.524 -1.379,1.196 -2.539,2.571 -2.539,2.571 l -0.355,0.438 -6.122,7.904 -0.014,0.019 C -9.591,-14.608 -5.172,-7.007 0,0 M 27.764,27 41.13,9.726 c 0,0 1.779,-2.374 8.125,-10.565 6.34,-8.197 9.41,-8.883 9.41,-8.883 7.103,-3.394 12.565,-3.515 18.485,-4.15 6.894,-0.733 13.658,0.078 21.259,-5.386 3.686,-2.656 8.687,-9.163 11.843,-13.332 6.449,-8.512 17.555,-22.875 17.555,-22.875 l -17.346,-17.449 c 0,0 -16.887,22.165 -19.039,24.95 -5.84,7.559 -7.19,9.417 -14.177,17.539 -5.824,6.773 -15.857,7.648 -34.23,10.968 0,0 -8.809,0.845 -15.044,7.092 -2.448,2.45 -3.77,4.25 -6.193,7.354 L 9.297,11.116 C 14.885,17.022 21.074,22.347 27.764,27 m 35.547,16.737 12.451,-16.095 4.655,-6.014 c 2.017,-2.61 3.677,-4.945 6.672,-8.236 6.266,-6.88 10.576,-9.191 23.838,-11.155 13.264,-1.966 18.435,-3.006 23.616,-6.388 3.276,-2.136 5.489,-4.2 6.777,-5.829 3.883,-4.927 13.878,-17.895 13.878,-17.895 l -17.36,-17.455 c 0,0 -11.255,14.697 -16.476,21.444 -3.457,4.471 -5.969,8.329 -10.776,11.965 -8.307,6.287 -17.91,5.639 -28.111,6.853 -6.428,0.759 -12.665,0.901 -22.312,13.266 l -6.697,8.761 -13.515,17.466 c -0.567,-0.3 -1.132,-0.602 -1.695,-0.909 7.852,4.32 16.247,7.769 25.055,10.221 m 46.48,3.37 c -4.87,0.615 -9.831,0.933 -14.868,0.933 -5.414,0 -10.74,-0.373 -15.961,-1.082 l 9.593,-12.403 3.01,-3.891 c 3.971,-4.836 7.513,-11.132 17.595,-15.641 12.134,-5.425 21.297,-4.153 29.603,-6.308 0,0 2.264,-0.552 4.755,-1.651 2.644,-1.171 4.363,-2.919 6.016,-4.792 2.747,-3.111 5.151,-6.144 5.701,-6.858 0.113,-0.141 10.298,-12.888 10.298,-12.888 l 17.157,17.242 c 0,0 -3.961,5.081 -7.103,9.069 -1.945,2.467 -2.791,3.356 -4.424,4.357 -1.291,0.789 -2.91,1.575 -5.095,2.094 -2.495,0.584 -5.9,1.017 -11.774,1.255 -15.469,0.618 -21.184,1.853 -31.028,13.687 l -7.303,8.894 z"
             style="fill:#ffffff;fill-opacity:1;fill-rule:evenodd;stroke:none"
             id="path3415" /></g><g
           id="g3417"
           transform="translate(793.9117,240.6306)"><path
             d="m 0,0 c 0,0 0.513,-0.113 -1.159,1.629 -1.797,1.867 -5.777,4.226 -8.468,5.338 0,0 -9.247,-10.069 -9.765,-10.937 -0.506,-0.868 0,-1.617 1.673,-2.231 1.671,-0.626 4.886,-2.987 5.522,-3.734 0.641,-0.752 2.055,-1.741 4.362,0.124 2.311,1.862 6.422,6.959 6.422,6.959 0,0 4.747,-0.495 9.243,-5.719 0,0 0.639,-1.113 3.332,1.245 0,0 5.519,5.348 6.417,7.464 0.904,2.104 1.444,4.11 -3.204,6.746 -3.851,2.194 -5.304,2.872 -5.304,2.872 z m -85.06,42.178 c 0,0 0.517,-0.116 -1.159,1.625 -1.795,1.862 -5.772,4.23 -8.477,5.345 0,0 -9.246,-10.067 -9.75,-10.932 -0.512,-0.879 0,-1.623 1.666,-2.248 1.671,-0.62 4.878,-2.978 5.518,-3.728 0.644,-0.747 2.056,-1.741 4.364,0.124 2.316,1.868 6.425,6.957 6.425,6.957 0,0 4.748,-0.496 9.24,-5.715 0,0 0.645,-1.121 3.343,1.246 0,0 5.512,5.347 6.418,7.463 0.899,2.111 1.431,4.111 -3.207,6.75 -3.867,2.182 -5.313,2.869 -5.313,2.869 z M -4.581,-24.52 c -3.037,2.107 -6.406,3.901 -6.716,4 l 9.17,10.676 c 0,0 0.514,1.099 1.442,0.796 0.925,-0.3 7.552,-2.678 8.961,-6.485 0,0 0.518,-0.901 -1.127,-2.887 -1.652,-2.003 -7.531,-9.709 -8.247,-8.982 -1.164,1.185 -3.483,2.882 -3.483,2.882 m -160.266,0.278 c -3.026,2.124 -6.409,3.912 -6.711,4.011 l 9.17,10.676 c 0,0 0.516,1.096 1.443,0.8 0.928,-0.298 7.554,-2.686 8.96,-6.483 0,0 0.517,-0.901 -1.128,-2.894 -1.653,-2.002 -7.533,-9.703 -8.242,-8.986 -1.175,1.184 -3.492,2.876 -3.492,2.876 m -48.855,93.728 c -3.035,2.116 -6.413,3.907 -6.718,4.011 l 9.173,10.67 c 0,0 0.508,1.103 1.44,0.797 0.93,-0.294 7.549,-2.68 8.964,-6.485 0,0 0.519,-0.896 -1.14,-2.89 -1.642,-1.995 -7.52,-9.699 -8.236,-8.979 -1.169,1.182 -3.483,2.876 -3.483,2.876 m 63.032,-48.027 c 0,0 -0.302,-5.862 -3.658,-13.287 -2.002,-4.466 -4.995,-8.073 -8.016,-9.056 -3.47,-1.127 -6.999,1.006 -8.659,6.022 -3.067,9.178 -0.16,27.405 0.9,36.671 1.07,9.256 6.475,23.065 7.229,24.242 0.761,1.173 2.021,1.022 0.212,-10.189 -1.737,-10.723 -4.799,-25.837 -2.857,-34.799 1.71,-7.902 6.942,-6.668 9.236,-5.339 2.578,1.498 3.535,7.5 4.612,8.242 1.054,0.733 1.001,-2.507 1.001,-2.507 m -39.313,43.701 c 0.615,2.434 11.226,8.481 14.838,10.376 3.606,1.896 32.024,15.898 47.805,23.446 16.692,7.988 18.646,17.665 17.929,18.361 -0.724,0.698 -0.928,-1.198 -9.481,-6.082 -8.447,-4.832 -32.972,-16.266 -51.937,-25.252 -18.336,-8.674 -20.812,-21.149 -20.812,-21.149 -2.879,-2.199 -4.325,-13.174 -7.622,-23.847 -3.651,-11.823 -11.023,-19.862 -40.594,-24.348 -29.46,-4.473 -45.981,-2.283 -51.936,-0.699 -5.972,1.59 -10.403,5.584 -10.915,9.174 -0.526,3.662 -0.824,3.499 -0.824,3.499 -1.44,0.802 -2.219,-4.849 -2.764,-11.789 -0.742,-9.502 3.931,-13.957 9.456,-15.654 6.188,-1.898 16.06,-3.67 41.209,-1.22 25.268,2.462 39.985,12.202 39.985,12.202 7.971,4.93 11.989,15.103 14.193,15.618 1.005,0.234 0.179,-3.496 0.179,-3.496 -0.914,-7.025 -1.352,-14.197 0.174,-19.214 1.763,-5.805 5.373,-7.343 8.732,-6.916 3.782,0.483 7.666,5.976 9.161,9.308 3.368,7.474 3.837,12.513 3.837,12.513 0,0 0.045,3.248 -1.016,2.51 -1.061,-0.733 -2.024,-6.736 -4.611,-8.241 -2.292,-1.328 -8.31,-2.135 -10.029,5.769 -1.937,8.965 1.921,23.649 3.654,34.376 0.89,5.505 1.05,9.458 1.389,10.755 m -131.472,-80.707 c 0,0 0.52,-0.11 -1.154,1.623 -1.8,1.876 -5.778,4.232 -8.47,5.353 0,0 -9.249,-10.07 -9.76,-10.938 -0.516,-0.876 0,-1.625 1.668,-2.242 1.674,-0.621 4.876,-2.984 5.524,-3.731 0.64,-0.747 2.055,-1.736 4.362,0.127 2.306,1.86 6.419,6.956 6.419,6.956 0,0 4.747,-0.495 9.241,-5.719 0,0 0.645,-1.113 3.344,1.248 0,0 5.52,5.339 6.411,7.467 0.898,2.107 1.438,4.107 -3.199,6.749 -3.862,2.183 -5.315,2.868 -5.315,2.868 z m 34.603,98.492 c 0,0 1.349,5.754 0.128,5.621 -1.209,-0.131 -4.043,-7.195 -5.404,-10.073 -1.349,-2.879 -3.102,-6.803 -3.507,-10.602 -0.407,-3.788 -0.678,-17.525 -1.755,-25.377 -1.084,-7.844 -0.811,-11.381 1.755,-6.93 2.567,4.45 5.675,14.782 6.488,28.125 0.812,13.35 2.295,19.236 2.295,19.236 m -42.579,-3.147 c 0,0 1.353,5.758 0.139,5.63 -1.219,-0.127 -4.062,-7.197 -5.409,-10.074 -1.348,-2.881 -3.104,-6.802 -3.506,-10.593 -0.413,-3.799 -0.677,-17.536 -1.763,-25.377 -1.081,-7.861 -0.804,-11.395 1.763,-6.94 2.565,4.444 5.671,14.781 6.48,28.13 0.813,13.342 2.296,19.224 2.296,19.224 m 21.894,-36.237 c 0,0 -1.046,-5.569 -3.11,-8.896 -3.247,-5.229 -4.59,-5.888 -10.944,-9.156 -6.347,-3.27 -6.974,-5.645 -9.185,-11.645 -2.024,-5.5 -6.351,-13.742 -12.832,-14.128 -6.49,-0.394 -8.785,-0.918 -12.702,-1.965 -0.784,-0.209 -1.547,1.077 0.135,3.011 1.008,1.163 3.077,2.488 5.81,4.056 3.447,1.978 13.373,6.541 16.611,13.734 3.248,7.202 5.409,11.514 9.06,14.266 3.645,2.746 11.482,5.887 13.372,8.629 0.809,1.185 1.891,4.973 2.971,5.628 1.083,0.651 0.814,-3.534 0.814,-3.534 m -76.549,-4.673 c -3.029,2.121 -6.527,3.598 -6.834,3.692 l 8.837,10.659 c 0,0 0.971,1.425 1.898,1.133 0.926,-0.301 7.967,-3.116 9.33,-6.409 0,0 0.385,-1.556 -0.793,-3.84 -1.925,-3.733 -7.028,-9.778 -8.273,-8.676 -1.258,1.102 -4.165,3.441 -4.165,3.441 m 33.936,31.493 c 0,0 0.568,5.58 -0.138,5.885 -0.876,0.381 -1.122,0.921 -2.477,-2.609 -1.347,-3.534 -4.544,-9.298 -4.544,-14.136 0,-4.835 0.96,-14.875 -0.675,-20.275 -2.03,-6.675 -10.137,-23.68 -35.534,-24.859 -7.849,-0.364 -16.479,4.058 -18.776,12.037 -2.163,7.494 1.145,15.272 2.159,17.792 1.896,4.711 4.873,11.553 3.375,12.035 -0.407,0.132 -4.314,-6.687 -7.019,-13.087 -2.164,-5.097 -13.241,-35.053 8.779,-43.042 21.601,-7.823 42.525,14.753 49.986,36.11 7.242,20.732 3.918,28.923 4.864,34.149 M 21.187,58.493 C 20.873,49.512 20.637,47.454 17.75,40.668 14.7,33.48 9.89,31.127 8.138,30.427 6.388,29.728 5.524,30.491 3.671,28.43 1.854,26.41 0.513,25.504 -2.205,25.531 c -1.543,0.022 -2.436,0.177 -4.834,-1.956 -2.304,-2.044 -3.018,-2.347 -6.388,-2.262 -2.616,0.058 -5.504,-0.799 -12.78,-6.653 -6.364,-5.113 -12.432,0.096 -13.26,0.603 -0.831,0.485 -1.382,1.987 -4.389,-1.336 -5.432,-5.987 -12.541,-8.747 -23.875,-11.34 -11.337,-2.595 -31.821,-4.821 -47.57,-3.697 -16.212,1.165 -20.063,4.463 -21.569,10.384 -1.65,6.458 0.62,14.595 1.442,17.497 0.828,2.89 1.508,-0.209 1.508,-0.209 0.552,-6.147 4.003,-14.409 40.053,-13.034 38.395,1.463 50.428,8.221 53.01,10.249 1.766,1.374 2.058,2.575 2.713,1.581 0.591,-0.895 -0.821,-4.045 -0.821,-4.045 1.184,-0.278 6.503,-0.291 10.389,0.934 4.218,1.326 10.613,6.131 10.613,6.131 5.362,3.291 8.133,0.991 10.004,1.543 2.011,0.594 2.969,2.38 3.488,3.375 0.512,1.002 1.229,3.022 1.959,1.823 0.628,-1.022 1.809,-0.986 1.809,-0.986 4.832,-0.077 6.034,3.361 6.752,4.744 0.721,1.402 1.023,0.978 1.736,0.372 0.777,-0.664 3.168,-0.143 4.476,0.711 1.096,0.718 1.639,2.165 1.71,3.171 0.08,1.003 -0.156,6.293 -0.156,7.219 0,0.928 -0.048,1.732 -0.048,1.732 -0.107,1.794 5.368,12.607 6.19,14.046 0,0 0.715,0.917 1.026,-0.774 0.306,-1.7 0.204,-6.861 0.204,-6.861"
             style="fill:#d2003a;fill-opacity:1;fill-rule:evenodd;stroke:none"
             id="path3419" /></g></g></g></g></svg>
