<?xml version="1.0" encoding="UTF-8" standalone="no"?>
<svg
   xmlns:dc="http://purl.org/dc/elements/1.1/"
   xmlns:cc="http://creativecommons.org/ns#"
   xmlns:rdf="http://www.w3.org/1999/02/22-rdf-syntax-ns#"
   xmlns:svg="http://www.w3.org/2000/svg"
   xmlns="http://www.w3.org/2000/svg"
   xmlns:sodipodi="http://sodipodi.sourceforge.net/DTD/sodipodi-0.dtd"
   xmlns:inkscape="http://www.inkscape.org/namespaces/inkscape"
   version="1.1"
   id="svg310"
   xml:space="preserve"
   width="1012"
   height="588"
   viewBox="0 0 1012 588"
   sodipodi:docname="refah.svg"
   inkscape:version="1.0.1 (3bc2e813f5, 2020-09-07)"><sodipodi:namedview
     pagecolor="#ffffff"
     bordercolor="#666666"
     borderopacity="1"
     objecttolerance="10"
     gridtolerance="10"
     guidetolerance="10"
     inkscape:pageopacity="0"
     inkscape:pageshadow="2"
     inkscape:window-width="1848"
     inkscape:window-height="1009"
     id="namedview428"
     showgrid="false"
     inkscape:zoom="1.0263363"
     inkscape:cx="506"
     inkscape:cy="294"
     inkscape:window-x="72"
     inkscape:window-y="34"
     inkscape:window-maximized="1"
     inkscape:current-layer="svg310" /><metadata
     id="metadata316"><rdf:RDF><cc:Work
         rdf:about=""><dc:format>image/svg+xml</dc:format><dc:type
           rdf:resource="http://purl.org/dc/dcmitype/StillImage" /><dc:title></dc:title></cc:Work></rdf:RDF></metadata><defs
     id="defs314" /><g
     id="g318"
     transform="matrix(1.6205849,0,0,-1.6205849,-110.20129,629.71849)"><g
       id="g320"
       transform="scale(0.1)"><path
         d="m 3176.6,3743.1 c 257.9,2.3 515.8,0.1 773.7,1.1 17.2,1.7 32.9,-5.4 48.2,-12.4 3.1,-15.8 9.6,-30.7 20,-43.2 68.4,-93.4 112.2,-201.3 149.2,-310.3 64.7,-250.7 29.3,-532.2 -118.7,-748.2 -17.3,-26 -32.1,-65.4 -68.9,-66.1 -238,1.6 -476,-0.9 -713.9,1.2 33,18.3 71.7,22.8 105,40.8 106,51.8 198.8,137.8 247.8,246.2 49.8,87.1 65.8,188.9 74,287.6 4.9,60.2 -7.6,120.2 -28.5,176.4 -34.8,80.1 -76.3,158.6 -135.1,223.9 -92.9,102.5 -221,166.5 -352.8,203 M 2808.5,3422 c 173.6,-0.1 347.5,-4.2 521.1,2.8 83.7,-1.7 167.4,5 251.2,0.5 -31.8,-19.6 -67.9,-30 -101.2,-46.4 -140.8,-69.8 -271,-175.6 -338.2,-320.7 -98.3,-208.6 -47.5,-478.6 126.9,-631.4 39.1,-44.4 86.9,-82.4 140,-108.5 302.6,-2.5 605.4,-0.2 908.1,-1.1 -0.9,6.2 -2.6,18.5 -3.5,24.7 1.5,-7 4.6,-20.9 6.2,-27.9 104.7,62.2 199.1,146.2 257.4,254.5 68.5,120.6 81.6,268.1 44.7,400.9 -43.6,166.5 -165.8,303.6 -313.3,387.9 -37.9,20.9 -75.1,45.1 -118,54.5 -3.6,3.7 -10.9,11.2 -14.5,14.9 161.5,0.4 323.3,-4.3 484.7,2.5 86.3,-1.4 172.5,5 258.9,2.2 48.4,-60.7 83,-130.3 123.3,-196.1 3.8,-15.2 9.4,-29.9 17.1,-43.6 41.1,-106.5 66,-219.1 71,-333.3 1.8,-173.5 -40.7,-349 -130.7,-498.1 -4.8,-13.1 -25.9,-27.9 -5.2,-40.3 -38.4,-4.4 -51.6,-49.6 -72.1,-77.4 -40.6,-6 -81.7,-3.1 -122.5,-3.5 -653.5,-0.2 -1306.9,0 -1960.3,-0.1 -160,178.8 -256.5,419.3 -245.1,660.7 3.4,119.2 43,234.4 96.1,340.1 33.7,64.1 69.7,127.7 117.9,182.2 m -6.6,-1174.6 c 5.6,-5 5.6,-5 0,0 m 801.5,-204.8 c 57.2,87.1 161.8,141.1 266.1,136.2 40,0.5 77.9,-13.2 116.3,-22.4 53.6,-30.8 104.9,-68.4 135.7,-123.5 41.2,-65.9 55.4,-147.9 38.9,-223.9 -3.6,-17.6 -9.9,-35.6 -4.7,-53.8 -26.4,-16.7 -33.8,-49.6 -53.7,-72.2 -53.8,-66.2 -133.6,-117.7 -221.5,-116 -81.7,-6.9 -166.3,20.4 -225.9,77.2 -114.5,94.2 -132.6,277.1 -51.2,398.4 m -1134,-952.5 c 63.2,23.9 117.2,66.9 177,98 -0.1,-4.4 -0.3,-13.1 -0.4,-17.5 -23.5,-19.6 -50.1,-35.3 -77,-49.8 -47.5,-25.4 -91.4,-56.9 -139.4,-81.4 -4.1,26.2 25.2,34.7 39.8,50.7 m -127,-125.901 c 103,57.101 200.9,122.901 304.5,178.801 0.4,-27.3 0.5,-54.8 -4.3,-81.9 -35,-9.6 -63.8,-32.5 -94.8,-50.4 -69.1,-40.501 -135.9,-84.7 -205.9,-123.598 0.2,25.699 0.4,51.398 0.5,77.097 m 922.8,0 c 102.7,58.701 202.8,121.901 305.9,180.001 -0.1,-24.1 -0.2,-48.3 -0.1,-72.5 -53.4,-30.5 -104.5,-64.7 -158.2,-94.598 -17.4,-9 -32.5,-21.903 -43.1,-38.5 -16.6,6.5 -28.6,-6.704 -41,-15.301 -19.8,-15.199 -43.2,-24.5 -66,-34.199 1.3,25.097 2.2,50.097 2.5,75.097 m 736.5,152.101 c 43,-0.3 86,0.6 129,0 9.2,2.1 17.6,-3 24.7,-8.2 -8.4,-52.3 -2.7,-105.5 -4.3,-158.202 1.4,-94.898 -3,-190 2.7,-284.796 50.7,-21 108.6,-27.204 161.8,-12 16.5,3.398 25.8,18.097 34.3,31.097 -45,-5.898 -91.3,-9.5 -134.5,7.301 2,51.602 -5.2,103.5 -0.1,154.898 45.6,56.801 120,72.903 189,79.5 10,-2 20.4,-3.296 30.7,-4.398 20.9,-4.898 41.2,-11.898 61.9,-17.5 -5.6,-74.602 -0.8,-149.5 -2.4,-224.301 3.1,-26.5 -25.3,-38.5 -42.6,-52.398 -70.3,-49.199 -161,-54.403 -242.9,-39.199 -35.7,6.296 -66.9,25.296 -96.5,45.097 -36.6,-18.898 -73.1,-38.199 -110.8,-54.801 -0.5,179.301 -0.7,358.602 0,537.902 m 278.6,-276.999 c -2,-39.199 -1.5,-78.403 -1.7,-117.699 21.4,-4.704 43.2,-2.903 64.8,-0.301 3.6,44.597 1.6,89.199 2,133.801 -22.3,-2.704 -44,-8.403 -65.1,-15.801 M 2964,1109.9 c 46.5,1.8 93,0.8 139.5,1.1 -0.5,-143.398 0.7,-286.801 -0.5,-430.199 32.4,-32.102 83.8,-43.903 126.6,-27.699 14.6,6.398 29.9,18.699 29.2,36.398 4.9,56.398 3.1,113.102 2.6,169.5 46.5,24.102 90.7,52.398 135.3,79.699 3.5,-69.597 -0.1,-139.301 4.3,-208.801 -0.1,-25.597 4,-54.898 -13.8,-76.199 -28.6,-35.801 -69.8,-64.898 -116.6,-68.301 -67.5,-12 -144.7,1.704 -191.1,56.102 -37,-22.102 -76.5,-39.102 -115.9,-56.301 1.6,174.903 0.8,349.801 0.4,524.701 m 1369.9,-4.6 c 45.5,23 105.9,-14.6 104.9,-65.4 3.6,-31.6 -20.7,-54.9 -41.9,-74.298 -19,-2.102 -37.8,-4.602 -56.6,-6.602 -24.6,22 -48.7,46.3 -53.4,80.5 8.6,25.8 18.5,56.1 47,65.8 m 1587.5,5.9 c 44.3,0 88.6,-0.5 132.9,0.7 4,-147.201 -2.9,-294.599 3.5,-441.701 35.7,-25.699 86.9,-30.898 121.3,0.199 -2.9,62.903 -1,126 -1.1,188.903 49.5,-0.301 99.1,1.199 148.7,-1.301 -2.4,-64.199 3.1,-129 -2.6,-192.898 -33.2,-50.602 -93,-84.102 -154.2,-78.903 -53.8,-3 -115.3,8 -149.3,53.801 -33.9,-18.398 -64.8,-42.699 -100.3,-57.602 -260,-1.796 -520.2,-0.097 -780.3,-0.699 -47.7,-2.199 -101.2,37 -94.6,88.602 1.7,64.801 4.2,129.597 2.9,194.5 48.1,-0.102 96.3,-0.102 144.6,-0.102 0,-65 -0.1,-130.097 0,-195.199 241.9,-0.801 483.8,-0.398 725.7,-0.199 5.7,147.301 -0.8,294.597 2.8,441.899 m 253.7,-71.9 c 8.2,24.5 19.9,47.6 34.5,68.9 33.4,1 76.3,11.5 98.9,-21.1 43.1,-41 10.2,-123.498 -49.9,-122.401 -45.1,-6.5 -75.9,35 -83.5,74.601 m 271.9,71.8 c 45.7,0.1 91.5,0 137.3,0.1 -0.8,-145.001 1.2,-290.001 -1.1,-435.001 32.1,-35 87.1,-36.199 123.8,-7.5 -1.5,63.403 0.4,126.699 -0.8,190 48.9,1.199 97.8,0.5 146.8,0.602 0.3,-63.699 2.1,-127.5 -0.5,-191.102 -21.4,-39.5 -64.1,-65.5 -106,-79.597 -68.5,-6.801 -150.4,-7.704 -198.1,51.097 -33.9,-20.097 -67,-41.5 -102.3,-59.097 1.3,176.898 -0.4,353.699 0.9,530.498 M 1675.8,1104 c 46,0.2 92,0.4 138.1,-0.1 0.3,-145.099 0,-290.099 0.2,-435.201 -44.3,-34.898 -91.5,-65.597 -138.1,-97.301 -0.9,177.5 -0.5,355.102 -0.2,532.602 m 3862,-80.3 c 40.3,0.5 81.3,-4.2 121,4.9 3.1,-3.2 9.2,-9.5 12.3,-12.7 -7.1,-9.6 -14,-19.298 -20.9,-29.002 -19.7,-0.296 -39.5,-0.597 -59.1,-1.398 -9.4,-24.398 -7.2,-59.199 -30.4,-75 -41.1,-3.199 -82.4,-0.398 -123.6,-1 3,12.5 5.9,25 9,37.398 20.5,1.102 42.4,-3.597 62,3.801 8.6,17.403 10.4,37 14,55.801 3.9,4.3 11.8,12.9 15.7,17.2 m -4456,-112.598 c 7.5,57.796 85.3,92.898 132.7,56.296 34.2,-18.398 40.3,-58.398 43.3,-93.296 -17,-25.403 -35.1,-54.403 -66.6,-62.903 -57.6,-20.898 -124.4,40.301 -109.4,99.903 m 1256.6,-52.903 c 48.5,25.699 95,54.903 143.3,81.102 1.5,-89.903 -0.5,-179.903 1.1,-269.903 -56.9,-96 -183.9,-114.398 -284.2,-89.699 -26.6,8.903 -59.8,13.903 -71.3,43.801 -13,-42.102 -54.5,-63.801 -95.2,-71 -58.8,-15.699 -125.4,-5.301 -172.9,34 47.8,2.898 115.6,7.301 130.7,63.301 10,60.898 0.6,123.398 4.6,184.898 -3.5,4.301 -10.5,12.699 -14,16.903 54.3,18.5 118.1,-11.801 167.8,19.699 l -19.6,-19.5 c 6,1.097 18.2,3.398 24.3,4.597 -21.1,-15.097 -19.7,-43.597 -20,-66.699 1.2,-43 -2.3,-86.301 2.3,-129.097 40.1,-48.5 117,-51.5 169.9,-23.602 20.6,8.699 32.4,30.801 32.5,52.5 1.5,56.199 -0.8,112.5 0.7,168.699 m -956.5,57.199 c 48,-0.097 95.9,-0.097 143.9,0 0.9,-81.898 -3.8,-164 2.8,-245.699 -117.3,-87.199 -269.4,-126.898 -414.1,-103 -57.4,3.199 -107.4,33.602 -161.301,49.699 C 950,620.301 943.5,628.199 940.301,632.102 896.102,619 858.301,588.199 813,579.301 c 0.5,92.597 -0.199,185.199 0.199,277.801 46.602,0.296 93.199,0.796 139.801,-0.403 -0.699,-59.199 0,-118.301 -0.5,-177.5 106.3,-67.5 240.6,-66.597 358.8,-35.898 23.4,6.597 45.4,17.097 66.7,28.5 -0.4,81.199 -2.1,162.5 3.9,243.597 M 4673.7,864.5 c 49.9,0.398 99.8,0.301 149.6,0 -1.6,-72.5 2.9,-145.301 -1.9,-217.5 -61,-83.699 -203,-90.102 -269.4,-9.602 39.2,4.602 89,-8.296 119.8,22 4.1,68.204 0.1,136.801 1.9,205.102 m -2008.9,-6.398 c 50.1,-6.801 100.8,-2.301 151.2,-4 0.5,-80 -0.2,-160 0.4,-240.102 -41.7,-46.5 -103.7,-74.5 -166.6,-69.102 -37.7,0.403 -89.8,6.903 -106.8,44.301 36.5,17.801 91.8,-6 121.1,31.801 13.2,31.301 6,66.602 7.8,99.5 -2.4,45.801 6.4,93 -7.1,137.602 M 3633.9,793 c 46.1,45.5 109.8,77.801 176,71.102 32.4,-4.102 65.6,-7.704 96.6,-18.801 8,-23.5 1.3,-50.5 3,-75.301 -2.3,-55 4.1,-111 -2.5,-165.398 -64.6,-20.903 -133.3,-29.403 -201.1,-29.102 -4.2,-8.5 -8.3,-17.102 -12.4,-25.699 -0.6,7.597 -1.9,22.898 -2.5,30.597 -17.4,5.801 -52.3,-4.5 -56.9,19.403 -0.2,64.398 1.4,128.801 -0.2,193.199 m 60.8,-21.602 c -2.7,-49.398 0.2,-99.097 -1,-148.597 22.5,0 45.1,1 67.2,5.801 -0.4,57.199 -0.1,114.296 0.1,171.5 -22.2,-5.403 -56.1,-3.801 -66.3,-28.704 M 6597.9,459.301 c -3.8,39.801 32.4,79 72.5,77.097 18.8,0.602 35.9,-8.296 53.3,-14.296 9.6,-17.602 18.3,-35.903 24.9,-55 -2,-11.602 -3.7,-23.204 -5.2,-35 -23,-36 -67.3,-53.403 -107.9,-36.704 -2.8,-2.898 -8.3,-8.699 -11.1,-11.597 -0.3,28.199 -27.7,47.398 -26.5,75.5"
         style="fill:#004b7f;fill-opacity:1;fill-rule:nonzero;stroke:none"
         id="path322" /></g></g></svg>
