<?xml version="1.0" encoding="UTF-8" standalone="no"?>
<svg
   xmlns:dc="http://purl.org/dc/elements/1.1/"
   xmlns:cc="http://creativecommons.org/ns#"
   xmlns:rdf="http://www.w3.org/1999/02/22-rdf-syntax-ns#"
   xmlns:svg="http://www.w3.org/2000/svg"
   xmlns="http://www.w3.org/2000/svg"
   xmlns:sodipodi="http://sodipodi.sourceforge.net/DTD/sodipodi-0.dtd"
   xmlns:inkscape="http://www.inkscape.org/namespaces/inkscape"
   version="1.1"
   id="svg3465"
   xml:space="preserve"
   width="816"
   height="1056"
   viewBox="0 0 816 1056"
   sodipodi:docname="saderat.svg"
   inkscape:version="1.0.1 (3bc2e813f5, 2020-09-07)"><sodipodi:namedview
     pagecolor="#ffffff"
     bordercolor="#666666"
     borderopacity="1"
     objecttolerance="10"
     gridtolerance="10"
     guidetolerance="10"
     inkscape:pageopacity="0"
     inkscape:pageshadow="2"
     inkscape:window-width="1848"
     inkscape:window-height="1009"
     id="namedview3056"
     showgrid="false"
     inkscape:zoom="0.75933946"
     inkscape:cx="408"
     inkscape:cy="528"
     inkscape:window-x="72"
     inkscape:window-y="34"
     inkscape:window-maximized="1"
     inkscape:current-layer="svg3465" /><metadata
     id="metadata3471"><rdf:RDF><cc:Work
         rdf:about=""><dc:format>image/svg+xml</dc:format><dc:type
           rdf:resource="http://purl.org/dc/dcmitype/StillImage" /><dc:title /></cc:Work></rdf:RDF></metadata><defs
     id="defs3469"><clipPath
       clipPathUnits="userSpaceOnUse"
       id="clipPath3481"><path
         d="M 0,792 H 612 V 0 H 0 Z"
         id="path3479" /></clipPath></defs><g
     id="g3473"
     transform="matrix(1.6835981,0,0,-1.6835981,-107.74784,1203.5149)"><g
       id="g3475"><g
         id="g3477"
         clip-path="url(#clipPath3481)"><g
           id="g3483"
           transform="translate(363.7709,331.0413)"><path
             d="M 0,0 H 112.802 V 288.622 C 73.36,382.461 -66.696,344.83 -76.702,306.764 -42.062,326.241 -13.234,330.18 0,299.271 Z"
             style="fill:#2f2482;fill-opacity:1;fill-rule:evenodd;stroke:none"
             id="path3485" /></g><g
           id="g3487"
           transform="translate(251.4657,678.4571)"><path
             d="M 0,0 H -112.802 V -288.622 C -73.36,-382.461 66.696,-344.83 76.702,-306.764 42.063,-326.241 13.234,-330.179 0,-299.271 Z"
             style="fill:#2f2482;fill-opacity:1;fill-rule:evenodd;stroke:none"
             id="path3489" /></g><g
           id="g3491"
           transform="translate(307.6183,449.4991)"><path
             d="M 0,0 C 30.431,0 55.25,24.819 55.25,55.25 55.25,85.681 30.431,110.5 0,110.5 -30.43,110.5 -55.25,85.681 -55.25,55.25 -55.25,24.819 -30.43,0 0,0"
             style="fill:#2f2482;fill-opacity:1;fill-rule:evenodd;stroke:none"
             id="path3493" /></g><g
           id="g3495"
           transform="translate(505.9568,218.1393)"><path
             d="m 0,0 v -1.801 c 0,-3.283 0.88,-5.564 2.642,-6.845 1.041,-0.721 2.281,-1.081 3.723,-1.081 1.121,0 2.122,1.241 3.002,3.723 0.161,0.56 0.341,1.2 0.541,1.921 0.2,0.721 0.46,1.081 0.78,1.081 0.401,0 0.601,-0.4 0.601,-1.201 0,-0.32 -0.06,-0.801 -0.18,-1.441 -0.12,-0.641 -0.221,-1.161 -0.301,-1.561 -1.04,-4.724 -2.362,-8.387 -3.963,-10.989 -1.601,-2.602 -3.242,-3.903 -4.924,-3.903 -2.642,0 -4.463,1.201 -5.464,3.603 -1.001,2.401 -1.501,5.444 -1.501,9.127 z"
             style="fill:#000003;fill-opacity:1;fill-rule:evenodd;stroke:none"
             id="path3497" /></g><g
           id="g3499"
           transform="translate(511.6099,174.1893)"><path
             d="m 0,0 c 0.16,-0.801 0.1,-1.661 -0.18,-2.582 -0.28,-0.921 -0.721,-1.962 -1.321,-3.122 -0.601,-1.162 -1.421,-2.223 -2.462,-3.183 -0.641,-0.641 -1.161,-0.961 -1.561,-0.961 -0.24,0 -0.781,0.36 -1.622,1.081 -0.84,0.721 -1.601,1.341 -2.281,1.861 -0.681,0.521 -1.261,1.021 -1.742,1.502 -0.48,0.48 -0.72,0.88 -0.72,1.201 0.48,1.04 0.84,1.841 1.08,2.402 0.801,1.761 1.402,3.042 1.802,3.843 0.721,1.2 1.441,2.441 2.162,3.722 0.16,0.241 0.4,0.601 0.72,1.081 0.24,-0.24 0.481,-0.44 0.721,-0.6 0.24,-0.16 0.56,-0.361 0.961,-0.601 C -2.762,4.283 -1.641,3.242 -1.081,2.522 -0.52,1.801 -0.16,0.961 0,0"
             style="fill:#000003;fill-opacity:1;fill-rule:evenodd;stroke:none"
             id="path3501" /></g><g
           id="g3503"
           transform="translate(506.0083,218.1393)"><path
             d="m 0,0 c -0.641,-2.081 -1.281,-4.123 -1.921,-6.124 -0.881,-2.162 -1.922,-3.243 -3.123,-3.243 0,0.961 0.44,5.144 1.321,12.55 0.881,7.406 1.601,13.07 2.162,16.993 0.08,0.32 0.721,1.962 1.921,4.924 1.201,2.962 2.162,5.204 2.883,6.725 0.16,0.08 0.32,0.161 0.48,0.241 0.08,-0.241 0.04,-0.881 -0.12,-1.922 L 3.122,27.022 1.081,12.37 C 0.681,9.408 0.4,6.846 0.24,4.684 0.08,2.522 0,0.961 0,0"
             style="fill:#000003;fill-opacity:1;fill-rule:evenodd;stroke:none"
             id="path3505" /></g><g
           id="g3507"
           transform="translate(482.6886,218.1393)"><path
             d="m 0,0 v -1.801 c 0,-3.283 0.881,-5.564 2.642,-6.845 1.041,-0.721 2.282,-1.081 3.723,-1.081 1.121,0 2.122,1.241 3.003,3.723 0.159,0.56 0.339,1.2 0.54,1.921 0.2,0.721 0.46,1.081 0.78,1.081 0.401,0 0.601,-0.4 0.601,-1.201 0,-0.32 -0.06,-0.801 -0.18,-1.441 -0.12,-0.641 -0.22,-1.161 -0.3,-1.561 -1.041,-4.724 -2.362,-8.387 -3.964,-10.989 -1.601,-2.602 -3.242,-3.903 -4.924,-3.903 -2.642,0 -4.463,1.201 -5.464,3.603 -1.001,2.401 -1.501,5.444 -1.501,9.127 z"
             style="fill:#000003;fill-opacity:1;fill-rule:evenodd;stroke:none"
             id="path3509" /></g><g
           id="g3511"
           transform="translate(490.4031,275.3875)"><path
             d="m 0,0 c 0.16,-0.801 0.1,-1.661 -0.18,-2.582 -0.28,-0.921 -0.721,-1.962 -1.321,-3.122 -0.601,-1.162 -1.421,-2.223 -2.462,-3.183 -0.641,-0.641 -1.161,-0.961 -1.561,-0.961 -0.241,0 -0.781,0.36 -1.622,1.081 -0.84,0.721 -1.601,1.341 -2.281,1.861 -0.681,0.521 -1.261,1.021 -1.741,1.502 -0.481,0.48 -0.721,0.881 -0.721,1.201 0.48,1.04 0.84,1.841 1.08,2.402 0.801,1.761 1.402,3.042 1.802,3.843 0.72,1.201 1.441,2.441 2.162,3.723 0.16,0.24 0.4,0.6 0.72,1.08 0.241,-0.24 0.481,-0.44 0.721,-0.6 0.24,-0.16 0.56,-0.361 0.961,-0.601 C -2.762,4.283 -1.641,3.243 -1.081,2.522 -0.52,1.801 -0.16,0.961 0,0"
             style="fill:#000003;fill-opacity:1;fill-rule:evenodd;stroke:none"
             id="path3513" /></g><g
           id="g3515"
           transform="translate(482.6679,217.5024)"><path
             d="m 0,0 c -0.24,-0.961 -0.48,-1.962 -0.721,-3.003 -0.24,-1.04 -0.62,-2.141 -1.14,-3.302 -0.521,-1.161 -1.101,-2.021 -1.742,-2.582 -0.64,-0.56 -1.121,-0.72 -1.441,-0.48 0,1.841 0.14,3.943 0.42,6.304 0.281,2.362 0.461,3.904 0.541,4.624 l 0.12,1.321 c 0,0.241 -0.04,0.401 -0.12,0.481 -0.08,0.08 -0.24,0 -0.48,-0.24 -0.321,-0.401 -0.841,-1.121 -1.562,-2.162 -1.521,-2.082 -2.642,-3.603 -3.363,-4.564 -2.401,-3.042 -5.404,-5.885 -9.006,-8.527 -3.603,-2.642 -7.446,-4.723 -11.53,-6.244 -4.083,-1.522 -8.706,-2.823 -13.871,-3.903 -5.164,-1.081 -10.548,-1.622 -16.152,-1.622 h -1.802 c -3.442,0 -6.245,0.2 -8.406,0.601 -3.443,0.64 -5.785,1.701 -7.026,3.182 -1.241,1.481 -1.861,3.743 -1.861,6.786 0,2.561 0.18,5.204 0.54,7.926 0.36,2.722 0.861,4.083 1.501,4.083 0.24,0 0.421,-0.781 0.541,-2.342 0.12,-1.561 0.7,-2.942 1.741,-4.143 2.162,-2.402 7.406,-3.603 15.733,-3.603 4.563,0 8.206,0.12 10.928,0.36 13.13,1.121 23.859,4.284 32.186,9.488 3.923,2.321 7.005,5.084 9.247,8.286 1.681,2.482 3.002,5.445 3.963,8.887 l 1.681,6.846 c 0.16,0.72 1.041,2.762 2.642,6.124 1.041,2.162 1.722,3.543 2.042,4.144 0.32,0.6 0.72,1.141 1.201,1.621 V 32.545 C 4.403,30.784 4.123,29.423 3.963,28.462 L 1.441,15.852 C 0.961,12.41 0.601,9.267 0.36,6.425 0.12,3.583 0,1.441 0,0"
             style="fill:#000003;fill-opacity:1;fill-rule:evenodd;stroke:none"
             id="path3517" /></g><g
           id="g3519"
           transform="translate(492.3899,261.3132)"><path
             d="m 0,0 c 1.761,1.922 5.524,5.204 11.289,9.848 5.124,4.083 10.248,8.207 15.372,12.37 3.683,3.042 7.206,6.124 10.568,9.247 2.402,2.242 5.565,5.284 9.488,9.127 6.004,5.765 9.007,8.727 9.007,8.887 0,-0.4 -0.081,-0.76 -0.24,-1.081 C 55.243,47.277 54.483,45.596 53.202,43.354 51.921,41.113 50.84,39.431 49.959,38.31 48.678,36.629 47.297,34.968 45.816,33.326 44.335,31.685 43.154,30.424 42.273,29.544 41.072,28.342 39.031,26.461 36.148,23.899 33.987,21.977 30.744,19.175 26.421,15.492 23.378,12.931 20.656,10.729 18.254,8.887 15.052,6.405 11.849,3.963 8.647,1.562 L 0.36,-4.924 c -1.201,-0.96 -2.342,-1.861 -3.422,-2.702 -1.081,-0.841 -1.702,-1.141 -1.862,-0.901 0.64,1.762 1.361,3.363 2.162,4.804 0.8,1.441 1.721,2.682 2.762,3.723"
             style="fill:#000003;fill-opacity:1;fill-rule:evenodd;stroke:none"
             id="path3521" /></g><g
           id="g3523"
           transform="translate(390.1459,221.7937)"><path
             d="m 0,0 c 0,0.641 -0.44,1.161 -1.321,1.561 -0.881,0.401 -1.761,0.601 -2.642,0.601 -1.281,0 -2.762,-1.121 -4.444,-3.363 l -3.603,-5.644 c 0.801,-0.161 1.882,-0.12 3.243,0.12 1.361,0.24 2.622,0.74 3.783,1.501 1.161,0.761 2.282,1.721 3.363,2.882 C -0.54,-1.181 0,-0.4 0,0 m -38.79,-2.762 c 0,-3.283 0.56,-5.765 1.681,-7.446 1.601,-2.322 3.683,-3.483 6.245,-3.483 1.521,0 2.802,0.261 3.843,0.781 1.041,0.52 1.961,1.421 2.762,2.702 0.801,1.281 1.401,2.162 1.801,2.642 1.041,1.361 2.042,1.962 3.003,1.802 0.72,-0.321 1.561,-0.641 2.522,-0.961 0.96,-0.321 1.721,-0.36 2.282,-0.12 0.4,0.32 1.24,1.561 2.521,3.722 0.801,1.362 1.641,2.763 2.522,4.204 1.442,2.001 2.943,3.683 4.504,5.044 1.561,1.361 3.022,2.041 4.383,2.041 3.043,0 4.564,-1.361 4.564,-4.083 0,-4.163 -1.761,-8.446 -5.284,-12.85 -4.003,-4.964 -8.487,-7.446 -13.451,-7.446 -2.081,0 -3.702,0.261 -4.864,0.781 -1.161,0.52 -2.101,0.98 -2.822,1.381 -0.32,0.08 -0.82,-0.34 -1.501,-1.261 -0.681,-0.921 -1.461,-2.102 -2.342,-3.543 -1.361,-2.162 -2.662,-3.702 -3.903,-4.624 -1.241,-0.92 -2.942,-1.38 -5.104,-1.38 -2.962,0 -5.104,1.221 -6.425,3.662 -1.321,2.442 -1.982,5.465 -1.982,9.068 0.881,2.241 1.562,3.882 2.042,4.923 1.041,1.442 2.042,2.923 3.003,4.444"
             style="fill:#000003;fill-opacity:1;fill-rule:evenodd;stroke:none"
             id="path3525" /></g><g
           id="g3527"
           transform="translate(351.2455,218.1393)"><path
             d="m 0,0 c -0.64,-2.081 -1.281,-4.123 -1.921,-6.124 -0.881,-2.162 -1.922,-3.243 -3.123,-3.243 0,0.961 0.44,5.144 1.321,12.55 0.881,7.406 1.601,13.07 2.162,16.993 0.08,0.32 0.721,1.962 1.921,4.924 1.201,2.962 2.162,5.204 2.883,6.725 0.16,0.08 0.32,0.161 0.48,0.241 0.08,-0.241 0.04,-0.881 -0.12,-1.922 L 3.122,27.022 1.081,12.37 C 0.681,9.408 0.401,6.846 0.24,4.684 0.08,2.522 0,0.961 0,0"
             style="fill:#000003;fill-opacity:1;fill-rule:evenodd;stroke:none"
             id="path3529" /></g><g
           id="g3531"
           transform="translate(321.5302,225.3453)"><path
             d="M 0,0 C 0,0.24 0.02,0.46 0.06,0.66 0.1,0.861 0.521,1.801 1.321,3.483 l 3.243,7.085 c 0.08,0.08 0.36,0.521 0.84,1.321 0.08,0.16 0.241,0.401 0.481,0.721 0.56,-0.481 1,-0.841 1.321,-1.081 1.121,-0.961 1.881,-1.681 2.282,-2.162 1.12,-1.041 2.001,-2.282 2.642,-3.723 0.801,-1.361 1.301,-2.842 1.501,-4.443 0.2,-1.601 0.3,-2.522 0.3,-2.762 0,-1.521 -0.22,-3.383 -0.661,-5.585 -0.44,-2.202 -1.2,-4.443 -2.281,-6.725 -1.081,-2.282 -2.242,-4.243 -3.483,-5.885 -1.241,-1.641 -2.502,-3.062 -3.783,-4.263 -1.121,-0.801 -2.002,-1.441 -2.642,-1.921 -1.201,-0.881 -2.282,-1.522 -3.242,-1.922 -1.362,-0.961 -2.282,-1.281 -2.763,-0.961 l 0.12,1.081 c 0.161,0.4 0.801,1.201 1.922,2.402 0.64,0.72 1.241,1.361 1.801,1.921 l 3.723,3.844 2.522,3.362 c 0.561,0.961 1.061,2.002 1.501,3.123 0.441,1.12 0.661,2.081 0.661,2.882 0,0.881 -0.24,1.801 -0.721,2.762 -0.48,0.961 -1.121,1.901 -1.921,2.822 -0.801,0.921 -1.441,1.601 -1.922,2.042 -0.48,0.44 -0.961,0.86 -1.441,1.261 -0.48,0.4 -0.821,0.66 -1.021,0.78 C 0.1,-0.42 0,-0.24 0,0 m -6.845,-8.527 -2.042,-5.644 c -0.72,-1.521 -1.401,-2.842 -2.041,-3.963 -0.641,-1.122 -1.281,-2.042 -1.922,-2.762 -0.961,-1.121 -1.901,-2.042 -2.822,-2.763 -0.921,-0.72 -2.182,-1.541 -3.783,-2.462 -1.601,-0.92 -3.203,-1.741 -4.804,-2.462 -1.601,-0.72 -2.842,-1.16 -3.723,-1.321 -0.32,-0.16 -0.62,-0.24 -0.9,-0.24 h -0.901 c 0.08,0.321 0.2,0.661 0.36,1.021 0.16,0.36 0.4,0.7 0.721,1.021 0.32,0.32 1.04,0.96 2.161,1.921 1.121,0.961 2.162,1.762 3.123,2.402 l 6.605,5.765 c 2.001,1.921 3.082,2.962 3.242,3.122 0.641,0.721 1.402,1.682 2.282,2.882 l 2.522,4.444 c 1.041,1.601 1.721,2.402 2.042,2.402 0.24,0 0.32,-0.4 0.24,-1.201 -0.08,-0.801 -0.2,-1.521 -0.36,-2.162"
             style="fill:#000003;fill-opacity:1;fill-rule:evenodd;stroke:none"
             id="path3533" /></g><g
           id="g3535"
           transform="translate(294.2663,241.1974)"><path
             d="m 0,0 c 0.24,0.481 0.601,1.081 1.081,1.802 0.08,0.16 0.28,0.4 0.6,0.72 0.241,-0.4 0.361,-0.72 0.361,-0.96 L 1.441,-2.522 0.72,-9.247 -0.6,-19.935 c -0.32,-2.403 -0.701,-4.384 -1.141,-5.945 -0.441,-1.561 -1.021,-3.223 -1.741,-4.984 l -2.763,-5.765 c -1.201,-2.081 -2.061,-3.463 -2.582,-4.143 -0.52,-0.68 -0.98,-1.02 -1.381,-1.02 l -0.36,0.84 c 0.64,2.162 1.241,4.263 1.801,6.305 0.561,2.042 0.961,3.623 1.201,4.744 0.801,3.683 1.361,6.945 1.682,9.788 0.32,2.842 0.6,5.384 0.84,7.625 l 1.321,3.723 z"
             style="fill:#000003;fill-opacity:1;fill-rule:evenodd;stroke:none"
             id="path3537" /></g><g
           id="g3539"
           transform="translate(217.5151,209.973)"><path
             d="m 0,0 c 2.402,-0.56 4.764,-0.901 7.086,-1.021 2.321,-0.12 4.883,-0.18 7.685,-0.18 3.363,0 7.126,0.16 11.289,0.48 4.164,0.321 8.147,0.901 11.95,1.742 3.803,0.841 7.245,1.901 10.328,3.182 3.083,1.281 5.464,2.683 7.146,4.204 0.72,0.64 1.321,1.281 1.801,1.921 0.08,0.08 0.42,0.601 1.021,1.562 0.6,0.96 1.021,1.44 1.261,1.44 0.24,-0.56 0.36,-1 0.36,-1.321 -0.16,-1.28 -0.68,-2.962 -1.561,-5.043 C 57.245,4.243 56.124,2.082 55.003,0.48 53.882,-1.121 52.521,-2.482 50.92,-3.603 48.678,-5.124 46.116,-6.525 43.234,-7.806 40.752,-8.847 38.03,-9.768 35.068,-10.568 30.504,-11.769 26.02,-12.63 21.617,-13.15 c -4.404,-0.521 -8.687,-0.781 -12.85,-0.781 -4.804,0 -8.487,0.2 -11.049,0.601 -4.163,0.64 -7.126,1.881 -8.887,3.722 -1.601,1.442 -2.402,3.403 -2.402,5.885 0,0.961 0.141,2.342 0.421,4.144 0.28,1.801 0.6,3.602 0.96,5.404 0.361,1.801 0.641,2.982 0.841,3.543 0.2,0.56 0.5,0.84 0.901,0.84 0.4,0 0.64,-0.34 0.72,-1.021 0.08,-0.68 0.18,-1.761 0.301,-3.242 0.12,-1.481 1.261,-2.822 3.422,-4.023 C -5.044,1.441 -3.042,0.801 0,0"
             style="fill:#000003;fill-opacity:1;fill-rule:evenodd;stroke:none"
             id="path3541" /></g><g
           id="g3543"
           transform="translate(250.4066,233.9561)"><path
             d="m 0,0 c 0.16,-0.801 0.1,-1.661 -0.18,-2.582 -0.28,-0.921 -0.721,-1.961 -1.321,-3.122 -0.601,-1.161 -1.421,-2.222 -2.462,-3.183 -0.641,-0.641 -1.161,-0.961 -1.562,-0.961 -0.24,0 -0.78,0.361 -1.621,1.081 -0.84,0.721 -1.601,1.341 -2.282,1.862 -0.68,0.52 -1.261,1.02 -1.741,1.501 -0.48,0.48 -0.72,0.881 -0.72,1.201 0.48,1.04 0.84,1.841 1.08,2.402 0.801,1.761 1.402,3.042 1.802,3.843 0.72,1.201 1.441,2.442 2.162,3.723 0.159,0.24 0.4,0.6 0.72,1.081 0.241,-0.241 0.48,-0.441 0.721,-0.601 0.24,-0.16 0.56,-0.36 0.96,-0.601 C -2.762,4.283 -1.642,3.243 -1.081,2.522 -0.52,1.801 -0.16,0.961 0,0 m -12.37,-0.721 c 0.16,-0.8 0.101,-1.661 -0.18,-2.582 -0.28,-0.92 -0.72,-1.961 -1.321,-3.122 -0.6,-1.161 -1.421,-2.222 -2.462,-3.182 -0.641,-0.641 -1.161,-0.961 -1.561,-0.961 -0.24,0 -0.781,0.36 -1.621,1.081 -0.841,0.72 -1.602,1.341 -2.282,1.861 -0.681,0.52 -1.261,1.021 -1.742,1.501 -0.48,0.481 -0.72,0.881 -0.72,1.201 0.48,1.041 0.841,1.842 1.081,2.402 0.8,1.761 1.401,3.042 1.801,3.843 0.721,1.201 1.441,2.442 2.162,3.723 0.16,0.24 0.4,0.6 0.72,1.081 0.241,-0.24 0.481,-0.44 0.721,-0.601 0.24,-0.159 0.561,-0.36 0.961,-0.6 1.681,-1.361 2.802,-2.402 3.362,-3.123 0.561,-0.72 0.921,-1.561 1.081,-2.522"
             style="fill:#000003;fill-opacity:1;fill-rule:evenodd;stroke:none"
             id="path3545" /></g><g
           id="g3547"
           transform="translate(188.6978,241.1974)"><path
             d="m 0,0 c 0.24,0.481 0.601,1.081 1.081,1.802 0.08,0.16 0.28,0.4 0.6,0.72 0.241,-0.4 0.361,-0.72 0.361,-0.96 L 1.441,-2.522 0.721,-9.247 -0.6,-19.935 c -0.321,-2.403 -0.701,-4.384 -1.141,-5.945 -0.441,-1.561 -1.021,-3.223 -1.742,-4.984 l -2.762,-5.765 c -1.201,-2.081 -2.061,-3.463 -2.582,-4.143 -0.52,-0.68 -0.981,-1.02 -1.381,-1.02 l -0.36,0.84 c 0.64,2.162 1.241,4.263 1.801,6.305 0.561,2.042 0.961,3.623 1.201,4.744 0.801,3.683 1.361,6.945 1.681,9.788 0.321,2.842 0.601,5.384 0.841,7.625 l 1.321,3.723 z"
             style="fill:#000003;fill-opacity:1;fill-rule:evenodd;stroke:none"
             id="path3549" /></g><g
           id="g3551"
           transform="translate(175.5476,232.4307)"><path
             d="m 0,0 c -1.921,-6.965 -4.123,-11.049 -6.605,-12.25 l -4.564,-2.281 c -0.4,-0.161 -0.94,-0.501 -1.621,-1.021 -0.68,-0.521 -1.181,-0.981 -1.501,-1.381 -0.721,-0.961 -1.481,-2.362 -2.282,-4.203 -1.361,-3.523 -2.402,-6.045 -3.122,-7.566 -1.281,-2.723 -3.203,-4.644 -5.765,-5.765 -0.961,-0.4 -2.562,-0.821 -4.803,-1.261 -2.242,-0.44 -3.884,-0.661 -4.925,-0.661 -0.96,-0.079 -1.601,0.161 -1.921,0.721 -0.08,0.32 0.32,0.821 1.201,1.501 0.881,0.681 1.961,1.462 3.242,2.342 0.161,0.16 1.562,1.081 4.204,2.762 1.681,1.121 2.642,1.762 2.882,1.922 2.242,1.761 3.803,3.162 4.684,4.203 0.32,0.4 1.261,2.362 2.822,5.885 1.561,3.522 2.762,5.844 3.603,6.965 0.841,1.121 2.141,2.242 3.903,3.363 0.32,0.16 1.481,0.76 3.483,1.801 1.441,0.721 2.442,1.322 3.002,1.802 0.56,0.48 1.281,1.501 2.162,3.062 0.88,1.561 1.481,2.302 1.801,2.222 C 0.28,2.082 0.32,1.361 0,0"
             style="fill:#000003;fill-opacity:1;fill-rule:evenodd;stroke:none"
             id="path3553" /></g><g
           id="g3555"
           transform="translate(172.2212,174.4109)"><path
             d="m 0,0 c 0.16,-0.801 0.1,-1.661 -0.18,-2.582 -0.28,-0.921 -0.721,-1.962 -1.321,-3.122 -0.601,-1.161 -1.421,-2.222 -2.462,-3.183 -0.641,-0.64 -1.161,-0.961 -1.561,-0.961 -0.241,0 -0.781,0.36 -1.622,1.081 -0.84,0.721 -1.601,1.341 -2.281,1.861 -0.681,0.521 -1.262,1.021 -1.742,1.502 -0.48,0.48 -0.72,0.881 -0.72,1.201 0.48,1.04 0.84,1.841 1.08,2.402 0.801,1.761 1.402,3.042 1.802,3.843 0.72,1.201 1.441,2.441 2.162,3.723 0.16,0.24 0.4,0.6 0.72,1.08 0.241,-0.24 0.48,-0.44 0.721,-0.6 0.24,-0.16 0.56,-0.361 0.96,-0.601 C -2.762,4.283 -1.641,3.243 -1.081,2.522 -0.52,1.801 -0.16,0.961 0,0 m -12.37,-0.721 c 0.16,-0.8 0.1,-1.661 -0.18,-2.582 -0.28,-0.92 -0.72,-1.961 -1.321,-3.122 -0.6,-1.161 -1.421,-2.222 -2.462,-3.182 -0.64,-0.641 -1.161,-0.961 -1.561,-0.961 -0.24,0 -0.781,0.36 -1.621,1.08 -0.841,0.721 -1.602,1.342 -2.282,1.862 -0.681,0.52 -1.261,1.021 -1.742,1.501 -0.48,0.481 -0.72,0.881 -0.72,1.201 0.48,1.041 0.841,1.842 1.081,2.402 0.8,1.762 1.401,3.042 1.801,3.843 0.721,1.201 1.441,2.442 2.162,3.723 0.16,0.24 0.4,0.6 0.72,1.081 0.241,-0.241 0.481,-0.44 0.721,-0.601 0.24,-0.16 0.561,-0.36 0.961,-0.6 1.681,-1.361 2.802,-2.402 3.362,-3.123 0.561,-0.72 0.921,-1.561 1.081,-2.522"
             style="fill:#000003;fill-opacity:1;fill-rule:evenodd;stroke:none"
             id="path3557" /></g><g
           id="g3559"
           transform="translate(138.4078,241.1974)"><path
             d="m 0,0 c 0.24,0.481 0.601,1.081 1.081,1.802 0.08,0.16 0.28,0.4 0.601,0.72 0.24,-0.4 0.36,-0.72 0.36,-0.96 L 1.441,-2.522 0.721,-9.247 -0.6,-19.935 c -0.321,-2.403 -0.701,-4.384 -1.141,-5.945 -0.44,-1.561 -1.021,-3.223 -1.742,-4.984 l -2.762,-5.765 c -1.201,-2.081 -2.061,-3.463 -2.582,-4.143 -0.52,-0.68 -0.981,-1.02 -1.381,-1.02 l -0.36,0.84 c 0.64,2.162 1.241,4.263 1.801,6.305 0.561,2.042 0.961,3.623 1.201,4.744 0.801,3.683 1.361,6.945 1.681,9.788 0.321,2.842 0.601,5.384 0.841,7.625 l 1.321,3.723 z"
             style="fill:#000003;fill-opacity:1;fill-rule:evenodd;stroke:none"
             id="path3561" /></g><g
           id="g3563"
           transform="translate(100.6296,209.4928)"><path
             d="m 0,0 c -0.08,0.881 -0.441,1.701 -1.081,2.462 -0.64,0.76 -1.801,1.781 -3.483,3.062 -0.32,0.24 -0.7,0.461 -1.141,0.661 -0.44,0.2 -0.9,0.42 -1.381,0.66 -0.32,-0.48 -0.56,-0.84 -0.72,-1.081 -0.641,-0.96 -1.402,-2.201 -2.282,-3.722 l -2.762,-6.245 c 0.08,-0.561 0.46,-1.061 1.141,-1.501 0.68,-0.441 1.421,-0.901 2.221,-1.382 0.08,-0.08 1.041,-0.8 2.883,-2.161 0.56,-0.401 0.92,-0.601 1.08,-0.601 0.881,0.16 2.282,1.601 4.204,4.324 0.961,1.361 1.441,2.762 1.441,4.203 C 0.12,-0.76 0.08,-0.32 0,0 m 15.372,-6.245 c -0.401,-1.681 -0.701,-2.982 -0.901,-3.903 -0.2,-0.921 -0.5,-1.941 -0.9,-3.062 -0.881,-2.803 -2.122,-5.645 -3.723,-8.527 -1.602,-2.882 -3.443,-5.605 -5.525,-8.167 -3.202,-3.842 -6.605,-6.745 -10.208,-8.706 -3.603,-1.962 -7.606,-2.943 -12.009,-2.943 -5.044,0 -8.907,1.561 -11.589,4.684 -2.682,3.123 -4.024,7.166 -4.024,12.129 0,2.482 0.321,5.164 0.961,8.047 0.641,2.882 1.341,5.264 2.102,7.145 0.76,1.882 1.661,3.863 2.702,5.945 1.361,2.722 2.842,5.484 4.443,8.287 0.641,1.121 1.021,1.741 1.141,1.861 0.121,0.12 0.341,0.14 0.661,0.06 0.16,-0.08 0.18,-0.52 0.06,-1.321 -0.12,-0.8 -0.26,-1.481 -0.42,-2.041 l -3.964,-8.647 c -1.04,-2.642 -1.721,-4.444 -2.041,-5.405 -0.56,-1.761 -0.841,-3.562 -0.841,-5.404 0,-4.723 1.601,-8.126 4.804,-10.208 2.402,-1.601 5.444,-2.402 9.127,-2.402 2.642,0 4.964,0.22 6.966,0.661 2.001,0.44 4.123,1.281 6.365,2.522 2.241,1.241 4.243,2.822 6.004,4.744 1.201,1.281 2.602,3.122 4.204,5.524 0.96,1.601 1.681,3.102 2.161,4.503 0.481,1.401 0.721,3.143 0.721,5.224 l 0.24,8.647 c 0,1.442 0.16,2.762 0.481,3.964 0.32,1.2 0.84,2.721 1.561,4.563 l 2.402,4.684 c 0.48,0.88 0.78,1.421 0.9,1.621 0.12,0.2 0.341,0.501 0.661,0.901 0.4,-0.4 0.56,-0.921 0.48,-1.561 l -0.6,-4.204 -0.601,-6.004 c 0,-2.323 -0.14,-4.364 -0.42,-6.126 -0.28,-1.761 -0.741,-4.123 -1.381,-7.085"
             style="fill:#000003;fill-opacity:1;fill-rule:evenodd;stroke:none"
             id="path3565" /></g></g></g></g></svg>
