<?xml version="1.0" encoding="UTF-8" standalone="no"?>
<svg
   xmlns:dc="http://purl.org/dc/elements/1.1/"
   xmlns:cc="http://creativecommons.org/ns#"
   xmlns:rdf="http://www.w3.org/1999/02/22-rdf-syntax-ns#"
   xmlns:svg="http://www.w3.org/2000/svg"
   xmlns="http://www.w3.org/2000/svg"
   xmlns:sodipodi="http://sodipodi.sourceforge.net/DTD/sodipodi-0.dtd"
   xmlns:inkscape="http://www.inkscape.org/namespaces/inkscape"
   version="1.1"
   id="svg3611"
   xml:space="preserve"
   width="1122.52"
   height="793.70135"
   viewBox="0 0 1122.52 793.70135"
   sodipodi:docname="saman.svg"
   inkscape:version="1.0.1 (3bc2e813f5, 2020-09-07)"><sodipodi:namedview
     pagecolor="#ffffff"
     bordercolor="#666666"
     borderopacity="1"
     objecttolerance="10"
     gridtolerance="10"
     guidetolerance="10"
     inkscape:pageopacity="0"
     inkscape:pageshadow="2"
     inkscape:window-width="1848"
     inkscape:window-height="1009"
     id="namedview3158"
     showgrid="false"
     inkscape:zoom="0.76508705"
     inkscape:cx="561.26001"
     inkscape:cy="396.85068"
     inkscape:window-x="72"
     inkscape:window-y="34"
     inkscape:window-maximized="1"
     inkscape:current-layer="svg3611" /><metadata
     id="metadata3617"><rdf:RDF><cc:Work
         rdf:about=""><dc:format>image/svg+xml</dc:format><dc:type
           rdf:resource="http://purl.org/dc/dcmitype/StillImage" /><dc:title /></cc:Work></rdf:RDF></metadata><defs
     id="defs3615"><clipPath
       clipPathUnits="userSpaceOnUse"
       id="clipPath3627"><path
         d="M 0,595.276 H 841.89 V 0 H 0 Z"
         id="path3625" /></clipPath></defs><g
     id="g3619"
     transform="matrix(3.1302758,0,0,-3.1302758,-756.4136,1328.5397)"><g
       id="g3621"><g
         id="g3623"
         clip-path="url(#clipPath3627)"><g
           id="g3629"
           transform="translate(489.147,251.837)"><path
             d="m 0,0 h -15.652 c -5.745,0 -10.445,4.7 -10.445,10.445 V 31.89 l 6.485,3.673 V 10.908 c 0,-2.165 1.795,-3.96 3.96,-3.96 L 0,6.948 Z"
             style="fill:#1a1a18;fill-opacity:1;fill-rule:evenodd;stroke:none"
             id="path3631" /></g><g
           id="g3633"
           transform="translate(262.4513,251.837)"><path
             d="m 0,0 h 7.319 c 6.84,0.415 12.52,6.287 12.293,12.338 V 30.037 L 13.127,26.299 V 13.019 C 12.484,8.674 10.824,7.515 6.297,6.948 H 0 -9.167 c -2.165,0 -3.96,1.795 -3.96,3.96 v 15.391 l -6.485,-3.673 V 10.445 C -19.612,4.7 -14.904,0 -9.167,0 Z"
             style="fill:#1a1a18;fill-opacity:1;fill-rule:evenodd;stroke:none"
             id="path3635" /></g><g
           id="g3637"
           transform="translate(459.5017,251.837)"><path
             d="m 0,0 h -18.895 c -3.784,0 -7.116,2.042 -8.949,5.078 C -29.954,2.042 -33.69,0 -37.468,0 h -33.254 v 6.948 h 34.643 c 2.926,0 5.677,3.068 6.74,6.062 v 18.88 l 6.484,3.673 V 10.908 c 0,-2.165 1.795,-3.96 3.96,-3.96 L 0,6.948 Z"
             style="fill:#1a1a18;fill-opacity:1;fill-rule:evenodd;stroke:none"
             id="path3639" /></g><g
           id="g3641"
           transform="translate(382.0037,251.837)"><path
             d="m 0,0 h -37.423 c -5.739,0 -10.445,4.7 -10.445,10.445 V 31.89 l 6.485,3.673 V 10.908 c 0,-2.165 1.795,-3.96 3.96,-3.96 L 0,6.948 Z"
             style="fill:#1a1a18;fill-opacity:1;fill-rule:evenodd;stroke:none"
             id="path3643" /></g><g
           id="g3645"
           transform="translate(311.6582,257.1182)"><path
             d="m 0,0 c -1.273,-2.373 -5.797,-5.281 -8.855,-5.281 h -4.692 c -5.729,0 -10.445,4.7 -10.445,10.445 v 22.371 l 6.485,3.673 V 5.627 c 0,-2.165 1.795,-3.96 3.96,-3.96 h 3.74 c 2.289,0.23 3.568,2.039 5.021,3.492 l 7.233,7.233 c 2.721,2.721 7.172,2.721 9.893,0 l 4.888,-4.888 c 2.721,-2.721 2.721,-7.172 0,-9.892 l -2.473,-2.474 c -2.721,-2.721 -7.172,-2.721 -9.893,0 z m 4.199,4.973 5.248,-5.249 c 0.19,-0.19 0.532,-0.19 0.722,-0.001 l 2.474,2.474 c 0.189,0.19 0.189,0.532 -0.001,0.722 L 7.755,7.806 C 7.565,7.996 7.223,7.997 7.033,7.807 Z"
             style="fill:#1a1a18;fill-opacity:1;fill-rule:evenodd;stroke:none"
             id="path3647" /></g><g
           id="g3649"
           transform="translate(257.5945,273.9784)"><path
             d="M 0,0 5.084,-5.085 10.169,0 5.084,5.084 Z"
             style="fill:#1a1a18;fill-opacity:1;fill-rule:evenodd;stroke:none"
             id="path3651" /></g><g
           id="g3653"
           transform="translate(444.2224,273.9784)"><path
             d="M 0,0 5.085,-5.085 10.169,0 5.085,5.084 Z"
             style="fill:#1a1a18;fill-opacity:1;fill-rule:evenodd;stroke:none"
             id="path3655" /></g><g
           id="g3657"
           transform="translate(472.902,243.0386)"><path
             d="M 0,0 5.084,-5.084 10.169,0 5.084,5.084 Z"
             style="fill:#1a1a18;fill-opacity:1;fill-rule:evenodd;stroke:none"
             id="path3659" /></g><g
           id="g3661"
           transform="translate(412.5705,281.4514)"><path
             d="m 0,0 -7.058,-4.498 -0.043,-2.768 3.734,-2.192 -3.114,-1.615 -0.009,-3.622 6.929,3.277 v 4.036 l -3.576,2.076 3.114,1.615 z"
             style="fill:#1a1a18;fill-opacity:1;fill-rule:evenodd;stroke:none"
             id="path3663" /></g><g
           id="g3665"
           transform="translate(514.5738,293.0987)"><path
             d="M 0,0 16.269,7.402 C 23.507,29.68 16.096,45.317 -2.933,50.256 -12.344,31.508 -14.055,12.23 0,0"
             style="fill:#8bcff2;fill-opacity:1;fill-rule:evenodd;stroke:none"
             id="path3667" /></g><g
           id="g3669"
           transform="translate(511.8364,286.0591)"><path
             d="M 0,0 12.906,3.813 12.124,15.644 C 8.474,36.381 -3.194,40.08 -19.359,34.221 -19.726,15.237 -13.713,3.341 0,0"
             style="fill:#8bcff2;fill-opacity:1;fill-rule:evenodd;stroke:none"
             id="path3671" /></g><g
           id="g3673"
           transform="translate(512.4229,279.2149)"><path
             d="M 0,0 8.114,9.415 5.475,18.382 C -6.421,31.507 -17.176,30.09 -26.986,16.621 -21.526,2.241 -12.76,-3.87 0,0"
             style="fill:#8bcff2;fill-opacity:1;fill-rule:evenodd;stroke:none"
             id="path3675" /></g><g
           id="g3677"
           transform="translate(516.1382,274.5218)"><path
             d="M 0,0 8.589,14.08 -3.715,18.968 C -19.05,20.125 -26.643,12.922 -28.941,0 -20.435,-7.987 -11.114,-10.268 0,0"
             style="fill:#8bcff2;fill-opacity:1;fill-rule:evenodd;stroke:none"
             id="path3679" /></g><g
           id="g3681"
           transform="translate(522.7869,271.9797)"><path
             d="m 0,0 0.669,14.538 -10.852,0.531 C -25.546,8.824 -29.55,-2.098 -27.181,-15.644 -15.102,-18.79 -5.3,-15.629 0,0"
             style="fill:#8bcff2;fill-opacity:1;fill-rule:evenodd;stroke:none"
             id="path3683" /></g><g
           id="g3685"
           transform="translate(530.4132,273.3483)"><path
             d="M 0,0 -4.106,11.964 -15.279,9.955 C -29.189,-3.695 -27.682,-16.986 -19.164,-30.114 -5.613,-27.106 0.74,-17.255 0,0"
             style="fill:#8bcff2;fill-opacity:1;fill-rule:evenodd;stroke:none"
             id="path3687" /></g><g
           id="g3689"
           transform="translate(535.875,280.7246)"><path
             d="M 0,0 -12.419,5.793 -19.737,-6.203 C -23.056,-23.006 -14.042,-35.07 -2.333,-42.77 10.666,-31.203 12.683,-13.393 0,0"
             style="fill:#8bcff2;fill-opacity:1;fill-rule:evenodd;stroke:none"
             id="path3691" /></g><g
           id="g3693"
           transform="translate(539.7704,288.688)"><path
             d="m 0,0 -12.722,-0.57 -4.262,-16.138 C -13.83,-31.872 2.547,-42.415 23.495,-44.085 27.529,-24.142 23.088,-7.948 0,0"
             style="fill:#8bcff2;fill-opacity:1;fill-rule:evenodd;stroke:none"
             id="path3695" /></g><g
           id="g3697"
           transform="translate(538.4307,297.4008)"><path
             d="m 0,0 -13.688,-7.529 5.671,-16.523 C 1.263,-35.708 27.092,-38.34 52.016,-25.421 42.76,-1.825 21.51,7.626 0,0"
             style="fill:#8bcff2;fill-opacity:1;fill-rule:evenodd;stroke:none"
             id="path3699" /></g><g
           id="g3701"
           transform="translate(527.2843,294.8587)"><path
             d="M 0,0 1.956,-11.929 C 28.562,-23.103 56.697,-5.968 71.766,19.75 45.75,34.433 12.85,24.036 0,0"
             style="fill:#8bcff2;fill-opacity:1;fill-rule:evenodd;stroke:none"
             id="path3703" /></g><g
           id="g3705"
           transform="translate(520.2448,293.2943)"><path
             d="M 0,0 8.995,-6.844 C 38.337,-3.934 57.937,24.272 59.251,57.491 29.339,49.67 7.487,32.854 0,0"
             style="fill:#8bcff2;fill-opacity:1;fill-rule:evenodd;stroke:none"
             id="path3707" /></g><g
           id="g3709"
           transform="translate(517.8983,297.5964)"><path
             d="M 0,0 14.861,-4.302 C 37.48,18.018 39.566,42.424 24.639,59.725 6.404,45.439 -5.101,21 0,0"
             style="fill:#8bcff2;fill-opacity:1;fill-rule:evenodd;stroke:none"
             id="path3711" /></g><g
           id="g3713"
           transform="translate(528.5806,286.9518)"><path
             d="M 0,0 0.659,-0.502 C 20.707,1.487 36.204,15.285 44.431,34.421 25.559,34.346 7.468,24.3 -1.296,7.907 Z"
             style="fill:#3794cb;fill-opacity:1;fill-rule:evenodd;stroke:none"
             id="path3715" /></g><g
           id="g3717"
           transform="translate(517.8983,297.5964)"><path
             d="m 0,0 4.01,-1.161 8.935,4.065 C 18.152,18.932 15.778,31.521 6.949,39.163 -0.047,26.884 -3.11,12.803 0,0"
             style="fill:#3794cb;fill-opacity:1;fill-rule:evenodd;stroke:none"
             id="path3719" /></g><g
           id="g3721"
           transform="translate(521.083,296.6743)"><path
             d="M 0,0 11.677,-3.38 C 27.141,11.881 33.005,28.117 30.398,42.39 15.864,33.174 5.236,19.596 0,0"
             style="fill:#3794cb;fill-opacity:1;fill-rule:evenodd;stroke:none"
             id="path3723" /></g><g
           id="g3725"
           transform="translate(514.5738,293.0987)"><path
             d="M 0,0 9.665,4.397 9.386,8.604 C 6.746,23.608 -0.093,29.691 -9.795,29.689 -11.461,18.255 -8.874,7.722 0,0"
             style="fill:#3794cb;fill-opacity:1;fill-rule:evenodd;stroke:none"
             id="path3727" /></g><g
           id="g3729"
           transform="translate(511.8364,286.0591)"><path
             d="m 0,0 8.701,2.57 -2.639,8.967 c -8.49,9.367 -16.398,11.325 -23.796,6.786 C -15.128,8.543 -9.357,2.28 0,0"
             style="fill:#3794cb;fill-opacity:1;fill-rule:evenodd;stroke:none"
             id="path3731" /></g><g
           id="g3733"
           transform="translate(512.4229,279.2149)"><path
             d="M 0,0 8.114,9.415 7.569,11.268 0,14.275 C -10.341,15.055 -17.161,12.033 -21.211,6.02 -15.951,-0.513 -8.96,-2.717 0,0"
             style="fill:#3794cb;fill-opacity:1;fill-rule:evenodd;stroke:none"
             id="path3735" /></g><g
           id="g3737"
           transform="translate(516.1382,274.5218)"><path
             d="M 0,0 7.318,11.996 -3.535,12.527 C -13.801,8.354 -18.993,2.092 -20.603,-5.645 -14.365,-8.175 -7.602,-7.024 0,0"
             style="fill:#3794cb;fill-opacity:1;fill-rule:evenodd;stroke:none"
             id="path3739" /></g><g
           id="g3741"
           transform="translate(522.7869,271.9797)"><path
             d="M 0,0 0.59,12.806 -7.652,11.324 C -17.3,1.858 -19.529,-7.437 -17.15,-16.623 -9.715,-15.842 -3.738,-11.022 0,0"
             style="fill:#3794cb;fill-opacity:1;fill-rule:evenodd;stroke:none"
             id="path3743" /></g><g
           id="g3745"
           transform="translate(530.4132,273.3483)"><path
             d="M 0,0 -4.055,11.816 -4.298,11.929 -8.134,11.24 -14.275,1.173 c -2.091,-10.583 0.713,-19.287 6,-26.204 C -2.248,-19.962 0.501,-11.677 0,0"
             style="fill:#3794cb;fill-opacity:1;fill-rule:evenodd;stroke:none"
             id="path3747" /></g><g
           id="g3749"
           transform="translate(535.875,280.7246)"><path
             d="m 0,0 -9.597,4.477 -3.491,-13.222 c 1.981,-9.526 9.182,-17.228 19.455,-22.053 C 10.532,-20.788 8.83,-9.325 0,0"
             style="fill:#3794cb;fill-opacity:1;fill-rule:evenodd;stroke:none"
             id="path3751" /></g><g
           id="g3753"
           transform="translate(539.7704,288.688)"><path
             d="m 0,0 -12.722,-0.57 -0.741,-2.806 4.106,-11.964 C -3.418,-22.798 9.298,-26.562 24.217,-24.919 22.224,-13.924 15.101,-5.198 0,0"
             style="fill:#3794cb;fill-opacity:1;fill-rule:evenodd;stroke:none"
             id="path3755" /></g><g
           id="g3757"
           transform="translate(538.4307,297.4008)"><path
             d="m 0,0 -10.607,-5.834 1.416,-8.637 C 7.596,-21.521 24.99,-17.299 39.328,-6.766 28.682,2.556 14.4,5.105 0,0"
             style="fill:#3794cb;fill-opacity:1;fill-rule:evenodd;stroke:none"
             id="path3759" /></g><g
           id="g3761"
           transform="translate(548.4005,315.3447)"><path
             d="m 0,0 c -8.866,-4.575 -16.355,-11.59 -21.106,-20.468 l 5.465,-1.582 C -8.309,-14.815 -3.136,-7.361 0,0"
             style="fill:#0067a8;fill-opacity:1;fill-rule:evenodd;stroke:none"
             id="path3763" /></g><g
           id="g3765"
           transform="translate(517.8983,297.5964)"><path
             d="M 0,0 4.009,-1.161 H 4.01 l 2.33,1.06 -0.278,4.207 C 4.817,11.181 2.638,16.271 -0.334,19.676 -1.566,13.054 -1.547,6.369 0,0"
             style="fill:#0067a8;fill-opacity:1;fill-rule:evenodd;stroke:none"
             id="path3767" /></g><g
           id="g3769"
           transform="translate(521.083,296.6743)"><path
             d="M 0,0 0.825,-0.239 9.76,3.827 c 2.65,8.158 3.336,15.424 2.206,21.602 C 6.715,18.362 2.661,9.958 0,0"
             style="fill:#0067a8;fill-opacity:1;fill-rule:evenodd;stroke:none"
             id="path3771" /></g><g
           id="g3773"
           transform="translate(514.5738,293.0987)"><path
             d="M 0,0 4.099,1.865 3.325,4.498 c -4.15,4.578 -8.161,7.385 -12.041,8.53 C -7.139,8.168 -4.312,3.752 0,0"
             style="fill:#0067a8;fill-opacity:1;fill-rule:evenodd;stroke:none"
             id="path3775" /></g><g
           id="g3777"
           transform="translate(511.8364,286.0591)"><path
             d="M 0,0 8.701,2.57 8.155,4.424 0.587,7.431 C -4.066,7.781 -8.005,7.363 -11.301,6.248 -8.377,3.229 -4.627,1.127 0,0"
             style="fill:#0067a8;fill-opacity:1;fill-rule:evenodd;stroke:none"
             id="path3779" /></g><g
           id="g3781"
           transform="translate(512.4229,279.2149)"><path
             d="M 0,0 6.486,7.525 0.18,7.834 C -5.242,5.629 -9.25,2.841 -12.061,-0.439 -8.519,-1.488 -4.509,-1.368 0,0"
             style="fill:#0067a8;fill-opacity:1;fill-rule:evenodd;stroke:none"
             id="path3783" /></g><g
           id="g3785"
           transform="translate(516.1382,274.5218)"><path
             d="M 0,0 6.141,10.066 -1.004,8.782 C -6.188,3.695 -9.23,-1.343 -10.565,-6.341 -7.219,-5.456 -3.709,-3.427 0,0"
             style="fill:#0067a8;fill-opacity:1;fill-rule:evenodd;stroke:none"
             id="path3787" /></g><g
           id="g3789"
           transform="translate(522.7869,271.9797)"><path
             d="M 0,0 0.59,12.806 -0.508,12.608 -6.649,2.542 C -7.659,-2.575 -7.526,-7.253 -6.521,-11.501 -3.923,-8.844 -1.723,-5.082 0,0"
             style="fill:#0067a8;fill-opacity:1;fill-rule:evenodd;stroke:none"
             id="path3791" /></g><g
           id="g3793"
           transform="translate(530.4132,273.3483)"><path
             d="m 0,0 -4.055,11.816 -0.08,0.037 -3.491,-13.222 C -6.667,-5.98 -4.486,-10.163 -1.324,-13.8 -0.214,-9.886 0.227,-5.291 0,0"
             style="fill:#0067a8;fill-opacity:1;fill-rule:evenodd;stroke:none"
             id="path3795" /></g><g
           id="g3797"
           transform="translate(535.875,280.7246)"><path
             d="M 0,0 -9.517,4.439 -5.462,-7.376 C -2.46,-11.146 2.273,-13.97 8.145,-15.632 7.208,-10.181 4.551,-4.806 0,0"
             style="fill:#0067a8;fill-opacity:1;fill-rule:evenodd;stroke:none"
             id="path3799" /></g><g
           id="g3801"
           transform="translate(539.7704,288.688)"><path
             d="m 0,0 -11.391,-0.51 0.861,-5.248 C -1.978,-9.349 6.731,-10.014 15.114,-8.411 11.363,-5.038 6.398,-2.202 0,0"
             style="fill:#0067a8;fill-opacity:1;fill-rule:evenodd;stroke:none"
             id="path3803" /></g><g
           id="g3805"
           transform="translate(538.4307,297.4008)"><path
             d="m 0,0 -10.607,-5.834 0.757,-4.615 0.659,-0.502 C 1.978,-9.843 11.733,-5.069 19.607,2.251 13.331,3.087 6.678,2.367 0,0"
             style="fill:#0067a8;fill-opacity:1;fill-rule:evenodd;stroke:none"
             id="path3807" /></g><g
           id="g3809"
           transform="translate(524.6393,307.2053)"><path
             d="m 0,0 c -1.772,-2.936 -2.827,-6.129 -3.287,-9.536 -1.635,2.1 -3.603,3.866 -5.801,5.402 -0.105,-3.021 0.299,-6 1.318,-8.928 -2.459,0.749 -4.919,1.015 -7.38,1.106 1.229,-2.369 2.839,-4.357 4.91,-5.882 -2.552,-0.723 -4.882,-1.724 -7.061,-2.917 2.151,-1.062 4.418,-1.947 6.942,-2.445 -2.004,-2.166 -3.528,-4.394 -4.784,-6.656 2.395,1.075 5.233,1.617 7.347,3.443 -0.754,-2.999 -1.636,-5.365 -1.547,-8.647 1.949,1.799 3.816,3.622 5.104,5.61 0.592,-2.956 1.635,-5.46 2.881,-7.758 1.221,2.452 2.16,4.986 2.725,7.626 1.629,-2.15 3.493,-4.132 5.778,-5.813 0.331,2.887 0.194,5.732 -0.505,8.524 2.71,-1.235 5.419,-1.999 8.129,-2.293 -2.104,2.741 -4.476,5.254 -7.235,7.431 3.508,0.301 6.81,1.116 9.943,2.355 -2.896,1.187 -5.89,2.2 -9.161,2.729 3.05,2.591 5.608,5.45 7.626,8.604 -3.559,-0.786 -6.883,-2.09 -9.973,-3.911 1.672,3.684 2.676,7.471 3.129,11.342 C 5.995,-3.037 3.339,-5.818 1.174,-8.993 1.411,-5.947 0.981,-2.952 0,0"
             style="fill:#ffffff;fill-opacity:1;fill-rule:evenodd;stroke:none"
             id="path3811" /></g></g></g></g></svg>
