<?xml version="1.0" encoding="UTF-8" standalone="no"?>
<svg
   xmlns:dc="http://purl.org/dc/elements/1.1/"
   xmlns:cc="http://creativecommons.org/ns#"
   xmlns:rdf="http://www.w3.org/1999/02/22-rdf-syntax-ns#"
   xmlns:svg="http://www.w3.org/2000/svg"
   xmlns="http://www.w3.org/2000/svg"
   xmlns:sodipodi="http://sodipodi.sourceforge.net/DTD/sodipodi-0.dtd"
   xmlns:inkscape="http://www.inkscape.org/namespaces/inkscape"
   version="1.1"
   id="svg3849"
   xml:space="preserve"
   width="793.33331"
   height="1122.6667"
   viewBox="0 0 793.33331 1122.6667"
   sodipodi:docname="sanat&amp;madan.svg"
   inkscape:version="1.0.1 (3bc2e813f5, 2020-09-07)"><sodipodi:namedview
     pagecolor="#ffffff"
     bordercolor="#666666"
     borderopacity="1"
     objecttolerance="10"
     gridtolerance="10"
     guidetolerance="10"
     inkscape:pageopacity="0"
     inkscape:pageshadow="2"
     inkscape:window-width="1848"
     inkscape:window-height="1009"
     id="namedview3172"
     showgrid="false"
     inkscape:zoom="0.71424799"
     inkscape:cx="396.66666"
     inkscape:cy="771.11497"
     inkscape:window-x="72"
     inkscape:window-y="34"
     inkscape:window-maximized="1"
     inkscape:current-layer="svg3849" /><metadata
     id="metadata3855"><rdf:RDF><cc:Work
         rdf:about=""><dc:format>image/svg+xml</dc:format><dc:type
           rdf:resource="http://purl.org/dc/dcmitype/StillImage" /><dc:title /></cc:Work></rdf:RDF></metadata><defs
     id="defs3853"><clipPath
       clipPathUnits="userSpaceOnUse"
       id="clipPath3869"><path
         d="M 0,842 H 595 V 0 H 0 Z"
         id="path3867" /></clipPath></defs><g
     id="g3857"
     transform="matrix(3.1883594,0,0,-3.1883594,-550.94311,1903.6326)"><g
       id="g3859"
       transform="translate(299.8005,420.2321)"><path
         d="M 0,0 15.965,15.966 9.164,22.767 0,13.602 -9.165,22.767 h -13.602 l -9.618,-9.619 h 19.237 z m -23.221,55.152 h -9.164 v -64.77 h 64.77 v 64.77 H 23.221 L 6.801,38.732 13.148,32.385 H 32.385 L 22.767,22.767 H 22.766 9.164 L 0,31.931 l -9.164,-9.164 -6.802,6.801 9.165,9.164 z M 19.237,64.77 H 42.003 V -19.237 H -42.003 V 64.77 h 22.767 L 0,45.533 Z"
         style="fill:#a6884c;fill-opacity:1;fill-rule:evenodd;stroke:none"
         id="path3861" /></g><g
       id="g3863"><g
         id="g3865"
         clip-path="url(#clipPath3869)"><g
           id="g3871"
           transform="translate(280.0447,381.3708)"><path
             d="m 0,0 c 1.424,0 2.577,-1.154 2.577,-2.577 0,-1.424 -1.153,-2.577 -2.577,-2.577 -1.423,0 -2.577,1.153 -2.577,2.577 C -2.577,-1.154 -1.423,0 0,0 m 5.562,0 c 1.424,0 2.577,-1.154 2.577,-2.577 0,-1.424 -1.153,-2.577 -2.577,-2.577 -1.423,0 -2.577,1.153 -2.577,2.577 C 2.985,-1.154 4.139,0 5.562,0 m -92.446,-14.729 v 9.196 l -4.434,-10e-4 -0.023,-7.58 c -0.025,-8.114 -9.795,-7.238 -9.795,-0.845 v 5.861 h -4.463 v -5.948 c 0,-12.611 17.896,-12.086 18.715,-0.683 m 28.455,5.332 c -0.072,0.13 -0.166,0.245 -0.274,0.346 h -10e-4 c -0.189,0.176 -0.42,0.315 -0.657,0.422 -0.586,0.268 -1.316,0.409 -2.045,0.424 -0.732,0.014 -1.458,-0.099 -2.027,-0.341 -0.25,-0.107 -0.554,-0.28 -0.807,-0.493 -0.136,-0.114 -0.255,-0.238 -0.339,-0.367 0.264,-0.254 0.528,-0.509 0.791,-0.764 0.746,-0.721 1.492,-1.443 2.262,-2.147 z m -7.343,-3.965 c -0.859,0.799 -1.718,1.608 -2.577,2.417 l -0.528,0.497 -0.081,0.077 v 0.111 c 0,1.026 0.302,1.91 0.815,2.662 0.571,0.838 1.402,1.507 2.362,2.026 1.471,0.795 3.204,1.145 4.897,1.036 1.656,-0.107 3.278,-0.654 4.582,-1.652 0.703,-0.538 1.243,-1.102 1.617,-1.76 0.375,-0.663 0.578,-1.414 0.603,-2.322 l 0.003,-0.127 -0.097,-0.08 c -1.115,-0.911 -2.131,-1.881 -3.16,-2.863 l -0.033,-0.031 9.272,-0.008 c -2.131,2.704 -0.801,7.773 2.336,9.386 0.632,0.276 1.49,0.711 3.52,0.711 h 3.481 c 0.44,0 0.818,-0.157 1.129,-0.468 0.311,-0.311 0.467,-0.69 0.467,-1.13 l -0.009,-6.776 c 0,-0.168 -0.006,-0.335 -0.014,-0.491 -0.102,-1.815 -0.803,-3.09 -1.881,-3.952 -1.366,-1.092 -3.331,-1.499 -5.463,-1.499 h -13.95 c -0.53,0 -1.073,0.086 -1.605,0.22 -0.477,0.121 -0.946,0.282 -1.387,0.455 -0.644,-0.334 -1.217,-0.505 -1.796,-0.591 -0.6,-0.09 -1.202,-0.086 -1.897,-0.082 l -18.626,-0.001 v 4.218 h 7.288 l 0.02,2.895 h -0.001 c 0,1.104 -0.864,2.348 -2.04,2.388 l -2.251,-0.003 v 4.466 c 4.054,-0.023 7.309,-0.58 8.491,-4.95 0.205,-0.755 0.307,-1.561 0.307,-2.389 v -2.384 z m 23.59,6.723 c -1.284,-0.06 -2.255,-0.393 -2.771,-1.789 -0.439,-1.187 -0.432,-2.71 0.085,-3.88 0.436,-0.985 1.324,-1.23 3.243,-0.702 v 2.072 3.768 c 0,0.151 -0.056,0.281 -0.165,0.385 -0.109,0.104 -0.241,0.153 -0.392,0.146 m 75.021,-2.758 -3.097,-2.92 c -0.769,0.704 -1.516,1.426 -2.262,2.147 -0.263,0.255 -0.527,0.51 -0.791,0.764 0.084,0.129 0.204,0.253 0.339,0.367 0.253,0.213 0.558,0.386 0.808,0.493 0.569,0.242 1.294,0.355 2.026,0.341 0.729,-0.015 1.459,-0.156 2.046,-0.424 0.236,-0.107 0.468,-0.246 0.656,-0.422 h 10e-4 c 0.108,-0.101 0.202,-0.216 0.274,-0.346 m -7.325,-3.982 h -7.196 c -1.099,0 -1.338,0.615 -1.338,1.606 v 4.45 h -4.459 l 10e-4,-4.45 c 0,-0.973 -0.328,-1.606 -1.382,-1.606 H -5.586 c -3.647,0 -3.216,5.541 -1.209,7.846 l -4.136,0.001 c -0.431,-0.751 -0.767,-1.486 -0.987,-2.245 -0.232,-0.794 -0.357,-1.629 -0.357,-2.551 0,-2.043 0.576,-3.944 1.741,-5.29 1.054,-1.219 2.581,-1.98 4.586,-1.98 h 17.859 c 0.526,0 1.052,0.056 1.562,0.187 0.454,0.117 0.89,0.292 1.298,0.541 0.415,-0.253 0.86,-0.429 1.32,-0.545 0.516,-0.129 1.05,-0.183 1.583,-0.183 1.11,0 1.739,-0.009 2.69,-0.019 2.198,-0.021 4.413,-0.043 6.567,0.036 l 0.071,0.003 c 1.05,0.039 1.864,0.068 2.797,0.644 0.436,-0.17 0.897,-0.327 1.367,-0.446 0.529,-0.133 1.07,-0.218 1.597,-0.218 h 9.164 c 0.537,0 1.067,0.063 1.577,0.201 0.42,0.115 0.828,0.282 1.216,0.51 0.385,-0.23 0.8,-0.396 1.229,-0.509 0.54,-0.142 1.099,-0.202 1.652,-0.202 h 20.278 c 4.16,0.135 6.746,1.793 6.948,5.78 v 1.919 c 0,1.992 -0.851,3.441 -2.14,4.432 -1.536,1.181 -3.69,1.696 -5.744,1.696 -4.392,0 -8.474,-3.688 -11.091,-6.91 l 0.001,3.358 h -4.459 v -4.128 -0.002 c -0.005,-0.594 -0.027,-1.109 -0.21,-1.448 -0.162,-0.299 -0.487,-0.478 -1.12,-0.478 h -1.736 c -0.519,0 -0.852,0.126 -1.047,0.365 -0.205,0.25 -0.285,0.644 -0.285,1.159 v 4.532 h -4.493 v -4.532 c 0,-1.002 -0.274,-1.524 -1.347,-1.524 h -7.265 l 0.041,0.039 c 1.029,0.982 2.046,1.952 3.16,2.863 l 0.097,0.08 -0.003,0.127 c -0.025,0.908 -0.228,1.659 -0.603,2.322 -0.373,0.658 -0.913,1.222 -1.617,1.76 -1.304,0.998 -2.925,1.545 -4.582,1.652 -1.693,0.109 -3.426,-0.241 -4.897,-1.036 -0.96,-0.519 -1.79,-1.188 -2.361,-2.026 C 22.613,-8.35 22.31,-9.234 22.31,-10.26 v -0.135 l 0.609,-0.55 c 0.865,-0.814 1.73,-1.629 2.595,-2.434 m 44.821,3.021 c 0,0.426 -0.072,0.792 -0.217,1.1 -0.142,0.301 -0.355,0.55 -0.639,0.748 -0.23,0.159 -0.507,0.291 -0.831,0.396 -3.504,1.129 -6.421,-1.141 -8.464,-3.773 -0.034,0.026 -0.974,-1.361 -1.052,-1.492 h 9.597 1.606 z m -166.564,7.079 c 1.423,0 2.577,-1.154 2.577,-2.578 0,-1.423 -1.154,-2.577 -2.577,-2.577 -1.424,0 -2.577,1.154 -2.577,2.577 0,1.424 1.153,2.578 2.577,2.578 m 215.047,2.975 c -1.423,0 -2.577,-1.154 -2.577,-2.577 0,-1.423 1.154,-2.577 2.577,-2.577 1.424,0 2.578,1.154 2.578,2.577 0,1.423 -1.154,2.577 -2.578,2.577 m 13.457,-18.914 c 1.423,0 2.577,-1.154 2.577,-2.578 0,-1.423 -1.154,-2.577 -2.577,-2.577 -1.424,0 -2.577,1.154 -2.577,2.577 0,1.424 1.153,2.578 2.577,2.578 m -87.52,18.914 c 1.423,0 2.577,-1.154 2.577,-2.577 0,-1.423 -1.154,-2.577 -2.577,-2.577 -1.424,0 -2.577,1.154 -2.577,2.577 0,1.423 1.153,2.577 2.577,2.577 m -68.179,-6.32 c -0.446,-0.001 -0.889,-0.027 -1.313,-0.202 -0.315,-0.131 -0.591,-0.328 -0.829,-0.59 -0.394,-0.437 -0.641,-0.971 -0.791,-1.54 -0.404,-1.531 -0.35,-4.353 1.789,-4.414 0.556,-0.015 1.157,0.121 1.677,0.281 v 5.933 c 0,0.146 -0.053,0.273 -0.156,0.376 -0.104,0.104 -0.23,0.156 -0.377,0.156 m 4.996,-7.674 c 0,-6.617 -5.224,-8.662 -11.248,-8.782 v 3.95 c 0.671,0.032 5.591,0.272 6.571,2.419 -1.253,-0.262 -2.483,-0.365 -3.578,-0.04 -4.833,1.432 -5.111,10.411 0.371,13.054 0.77,0.269 1.623,0.415 2.556,0.415 h 3.732 c 0.879,0 1.596,-0.717 1.596,-1.596 z m 116.722,6.975 v 4.039 l 5.116,5.162 5.402,-10e-4 -5.048,-5.159 h 0.019 c 0.836,0 2.324,-0.461 3.076,-0.826 1.035,-0.503 1.88,-1.229 2.459,-2.151 0.552,-0.879 0.861,-1.933 0.861,-3.137 v -3.983 h 5.021 c 1.08,0 1.377,0.504 1.377,1.524 v 4.532 h 4.478 v -5.235 c 0,-3.109 -2.048,-5.04 -5.128,-5.04 H 87.285 c -1.985,0 -3.51,0.741 -4.565,1.939 -1.152,1.308 -1.733,3.157 -1.733,5.175 0,1.799 0.501,3.269 1.405,4.808 l 0.085,0.143 h 0.164 4.158 c -2.404,-2.081 -2.677,-7.846 0.889,-7.846 h 18.042 v 3.48 c 0,0.851 -0.326,1.487 -0.98,1.908 -0.695,0.446 -1.758,0.669 -3.187,0.669 z m 36.117,-10.275 h -4.595 c -3.407,0 -5.67,1.566 -5.67,5.157 V 1.877 h 4.517 v -13.65 c 0,-0.971 0.218,-1.606 1.308,-1.606 h 3.714 c 1.079,0 1.376,0.504 1.376,1.524 l 0.001,4.532 h 4.448 v -4.754 c 0,-3.395 -1.55,-5.521 -5.099,-5.521"
             style="fill:#4e7180;fill-opacity:1;fill-rule:evenodd;stroke:none"
             id="path3873" /></g></g></g></g></svg>
