<?xml version="1.0" encoding="UTF-8" standalone="no"?>
<svg
   xmlns:dc="http://purl.org/dc/elements/1.1/"
   xmlns:cc="http://creativecommons.org/ns#"
   xmlns:rdf="http://www.w3.org/1999/02/22-rdf-syntax-ns#"
   xmlns:svg="http://www.w3.org/2000/svg"
   xmlns="http://www.w3.org/2000/svg"
   xmlns:sodipodi="http://sodipodi.sourceforge.net/DTD/sodipodi-0.dtd"
   xmlns:inkscape="http://www.inkscape.org/namespaces/inkscape"
   version="1.1"
   id="svg4181"
   xml:space="preserve"
   width="816"
   height="1056"
   viewBox="0 0 816 1056"
   sodipodi:docname="sarmayeh.svg"
   inkscape:version="1.0.1 (3bc2e813f5, 2020-09-07)"><sodipodi:namedview
     pagecolor="#ffffff"
     bordercolor="#666666"
     borderopacity="1"
     objecttolerance="10"
     gridtolerance="10"
     guidetolerance="10"
     inkscape:pageopacity="0"
     inkscape:pageshadow="2"
     inkscape:window-width="1848"
     inkscape:window-height="1009"
     id="namedview3254"
     showgrid="false"
     inkscape:zoom="0.66245342"
     inkscape:cx="408"
     inkscape:cy="528"
     inkscape:window-x="72"
     inkscape:window-y="34"
     inkscape:window-maximized="1"
     inkscape:current-layer="svg4181" /><metadata
     id="metadata4187"><rdf:RDF><cc:Work
         rdf:about=""><dc:format>image/svg+xml</dc:format><dc:type
           rdf:resource="http://purl.org/dc/dcmitype/StillImage" /><dc:title /></cc:Work></rdf:RDF></metadata><defs
     id="defs4185"><clipPath
       clipPathUnits="userSpaceOnUse"
       id="clipPath4197"><path
         d="M 0,792 H 612 V 0 H 0 Z"
         id="path4195" /></clipPath></defs><g
     id="g4189"
     transform="matrix(2.2984228,0,0,-2.2984228,-283.8967,1436.935)"><g
       id="g4191"><g
         id="g4193"
         clip-path="url(#clipPath4197)"><g
           id="g4199"
           transform="translate(388.1303,376.3931)"><path
             d="m 0,0 v 46.713 c 33.174,1.071 62.549,21.901 89.664,54.498 l 0.128,-53.46 C 59.86,12.015 29.93,0.566 0,0"
             style="fill:#1c1561;fill-opacity:1;fill-rule:evenodd;stroke:none"
             id="path4201" /></g><g
           id="g4203"
           transform="translate(431.7025,321.0948)"><path
             d="m 0,0 c 11.069,0 20.098,9.028 20.098,20.098 0,11.069 -9.029,20.097 -20.098,20.097 -11.069,0 -20.098,-9.028 -20.098,-20.097 C -20.098,9.028 -11.069,0 0,0"
             style="fill:#1c1561;fill-opacity:1;fill-rule:evenodd;stroke:none"
             id="path4205" /></g><g
           id="g4207"
           transform="translate(450.9341,419.6081)"><path
             d="m 0,0 v -46.713 c -33.174,-1.072 -62.55,-21.901 -89.664,-54.498 l -0.128,53.46 C -59.86,-12.015 -29.93,-0.566 0,0"
             style="fill:#b5b8b8;fill-opacity:1;fill-rule:evenodd;stroke:none"
             id="path4209" /></g><g
           id="g4211"
           transform="translate(337.2365,345.9804)"><path
             d="m 0,0 c 0.118,-0.587 0.073,-1.218 -0.131,-1.893 -0.207,-0.675 -0.529,-1.439 -0.97,-2.291 -0.44,-0.851 -1.042,-1.63 -1.805,-2.334 -0.471,-0.47 -0.852,-0.705 -1.146,-0.705 -0.176,0 -0.573,0.265 -1.189,0.793 -0.616,0.528 -1.173,0.983 -1.674,1.365 -0.499,0.381 -0.925,0.749 -1.277,1.102 -0.352,0.351 -0.528,0.645 -0.528,0.88 0.352,0.763 0.616,1.35 0.793,1.761 0.587,1.292 1.028,2.232 1.321,2.819 0.528,0.881 1.057,1.792 1.586,2.731 0.117,0.176 0.293,0.44 0.528,0.793 C -4.316,4.844 -4.14,4.699 -3.964,4.58 -3.788,4.463 -3.553,4.316 -3.259,4.14 -2.026,3.142 -1.204,2.378 -0.792,1.85 -0.381,1.321 -0.117,0.705 0,0"
             style="fill:#1c1561;fill-opacity:1;fill-rule:evenodd;stroke:none"
             id="path4213" /></g><g
           id="g4215"
           transform="translate(321.5385,406.8669)"><path
             d="m 0,0 c 1.292,1.41 4.053,3.817 8.281,7.224 3.758,2.994 7.517,6.019 11.275,9.073 2.701,2.231 5.285,4.492 7.751,6.782 1.761,1.644 4.081,3.876 6.959,6.694 4.403,4.228 6.605,6.402 6.605,6.518 0,-0.292 -0.057,-0.557 -0.176,-0.792 -0.176,-0.822 -0.733,-2.055 -1.672,-3.7 C 38.082,30.154 37.29,28.922 36.644,28.1 35.704,26.867 34.692,25.648 33.605,24.444 32.518,23.24 31.652,22.316 31.006,21.67 30.126,20.789 28.628,19.409 26.514,17.53 24.929,16.121 22.55,14.065 19.379,11.364 17.148,9.485 15.151,7.87 13.39,6.52 11.041,4.699 8.692,2.908 6.343,1.146 L 0.265,-3.611 c -0.88,-0.704 -1.718,-1.365 -2.511,-1.981 -0.792,-0.617 -1.247,-0.837 -1.365,-0.661 0.47,1.292 0.998,2.467 1.586,3.524 C -1.438,-1.673 -0.763,-0.763 0,0"
             style="fill:#1c1561;fill-opacity:1;fill-rule:evenodd;stroke:none"
             id="path4217" /></g><g
           id="g4219"
           transform="translate(322.7792,417.5626)"><path
             d="m 0,0 c 0.118,-0.587 0.074,-1.218 -0.131,-1.894 -0.206,-0.675 -0.529,-1.438 -0.97,-2.29 -0.44,-0.851 -1.042,-1.63 -1.805,-2.334 -0.47,-0.471 -0.851,-0.705 -1.146,-0.705 -0.176,0 -0.573,0.265 -1.188,0.793 -0.617,0.528 -1.174,0.982 -1.675,1.365 -0.499,0.381 -0.924,0.749 -1.276,1.101 -0.353,0.352 -0.529,0.646 -0.529,0.881 0.352,0.763 0.617,1.35 0.793,1.761 0.587,1.292 1.028,2.232 1.321,2.819 0.528,0.881 1.058,1.791 1.586,2.731 0.117,0.176 0.293,0.44 0.528,0.793 C -4.316,4.845 -4.14,4.698 -3.964,4.58 -3.787,4.463 -3.552,4.316 -3.258,4.14 -2.026,3.141 -1.203,2.378 -0.792,1.849 -0.381,1.321 -0.117,0.705 0,0"
             style="fill:#1c1561;fill-opacity:1;fill-rule:evenodd;stroke:none"
             id="path4221" /></g><g
           id="g4223"
           transform="translate(331.6466,375.2005)"><path
             d="M 0,0 C -0.002,-0.006 -0.003,-0.012 -0.005,-0.018 V -1.32 c 0,-2.408 0.645,-4.082 1.938,-5.022 0.763,-0.528 1.672,-0.793 2.73,-0.793 0.822,0 1.557,0.91 2.202,2.731 0.118,0.411 0.25,0.881 0.397,1.409 0.146,0.529 0.337,0.793 0.573,0.793 0.293,0 0.44,-0.293 0.44,-0.881 0,-0.234 -0.044,-0.588 -0.132,-1.057 C 8.055,-4.61 7.981,-4.991 7.923,-5.285 7.159,-8.75 6.19,-11.437 5.015,-13.344 c -1.174,-1.909 -2.378,-2.863 -3.612,-2.863 -1.937,0 -3.274,0.881 -4.007,2.642 -0.734,1.762 -1.101,3.994 -1.101,6.695 l 0.007,0.012 c 0.004,0.726 0.326,3.788 0.967,9.193 0.647,5.431 1.176,9.586 1.587,12.464 0.058,0.234 0.528,1.438 1.408,3.611 0.882,2.173 1.587,3.818 2.114,4.932 0.118,0.06 0.236,0.118 0.353,0.176 C 2.79,23.342 2.761,22.873 2.643,22.11 L 2.29,19.82 0.793,9.073 C 0.499,6.9 0.294,5.021 0.176,3.436 0.06,1.85 0,0.705 0,0"
             style="fill:#1c1561;fill-opacity:1;fill-rule:evenodd;stroke:none"
             id="path4225" /></g><g
           id="g4227"
           transform="translate(314.5912,375.2005)"><path
             d="M 0,0 C -0.006,-0.023 -0.01,-0.046 -0.016,-0.069 V -1.32 c 0,-2.408 0.645,-4.082 1.937,-5.022 0.764,-0.528 1.673,-0.793 2.731,-0.793 0.822,0 1.557,0.91 2.202,2.731 0.118,0.411 0.25,0.881 0.397,1.409 0.146,0.529 0.337,0.793 0.572,0.793 0.293,0 0.441,-0.293 0.441,-0.881 C 8.264,-3.317 8.22,-3.671 8.132,-4.14 8.043,-4.61 7.97,-4.991 7.911,-5.285 7.148,-8.75 6.178,-11.437 5.004,-13.344 3.83,-15.253 2.626,-16.207 1.392,-16.207 c -1.937,0 -3.273,0.881 -4.007,2.642 -0.734,1.762 -1.101,3.994 -1.101,6.695 l 0.017,0.03 c 10e-4,1.343 0.103,2.875 0.308,4.594 0.205,1.733 0.338,2.863 0.396,3.392 l 0.088,0.968 c 0,0.176 -0.029,0.294 -0.088,0.352 -0.058,0.059 -0.176,0 -0.352,-0.176 -0.235,-0.293 -0.617,-0.821 -1.145,-1.585 -1.116,-1.526 -1.939,-2.643 -2.467,-3.347 -1.762,-2.231 -3.964,-4.316 -6.606,-6.254 -2.644,-1.938 -5.462,-3.464 -8.456,-4.58 -2.996,-1.116 -6.386,-2.07 -10.174,-2.863 -3.788,-0.793 -7.736,-1.189 -11.847,-1.189 h -1.321 c -2.526,0 -4.581,0.146 -6.167,0.439 -2.525,0.471 -4.242,1.248 -5.153,2.335 -0.91,1.087 -1.365,2.746 -1.365,4.977 0,1.879 0.133,3.816 0.397,5.814 0.264,1.996 0.631,2.995 1.1,2.995 0.176,0 0.308,-0.573 0.397,-1.719 0.088,-1.144 0.514,-2.157 1.278,-3.038 1.584,-1.762 5.431,-2.642 11.538,-2.642 3.347,0 6.02,0.088 8.016,0.264 9.63,0.822 17.499,3.142 23.607,6.959 2.877,1.703 5.138,3.729 6.782,6.078 1.233,1.82 2.203,3.992 2.906,6.517 l 1.234,5.021 c 0.118,0.528 0.763,2.026 1.938,4.492 0.763,1.586 1.262,2.599 1.498,3.039 0.235,0.441 0.527,0.838 0.88,1.19 V 23.871 C 3.23,22.579 3.024,21.581 2.906,20.876 L 1.056,11.628 C 0.704,9.102 0.44,6.798 0.264,4.713 0.088,2.628 0,1.058 0,0"
             style="fill:#1c1561;fill-opacity:1;fill-rule:evenodd;stroke:none"
             id="path4229" /></g><g
           id="g4231"
           transform="translate(135.2094,371.1739)"><path
             d="M 0,0 C 0.529,0.294 1.058,0.617 1.585,0.97 2.584,1.498 3.494,1.762 4.316,1.762 5.021,1.527 5.873,1.409 6.871,1.409 c 0.822,0 1.526,0.162 2.113,0.485 0.588,0.322 1.174,0.807 1.763,1.454 0.351,0.527 0.733,1.072 1.144,1.629 0.411,0.557 0.706,0.837 0.882,0.837 0.234,0 0.352,-0.236 0.352,-0.705 0,-1.057 -0.646,-2.848 -1.939,-5.373 C 10.541,-1.674 9.808,-2.877 8.984,-3.875 7.81,-5.226 6.46,-6.166 4.933,-6.694 4.522,-6.87 3.905,-6.958 3.083,-6.958 c -0.411,0 -0.969,0.058 -1.675,0.176 -0.703,0.118 -1.232,0.176 -1.584,0.176 -1.469,0 -2.789,-0.499 -3.964,-1.498 -0.411,-0.352 -0.823,-0.69 -1.234,-1.013 -0.41,-0.323 -0.733,-0.454 -0.968,-0.396 -0.294,0.118 -0.278,0.617 0.044,1.497 0.323,0.882 0.807,1.762 1.454,2.642 0.88,1.234 1.702,2.276 2.466,3.128 C -1.615,-1.394 -0.822,-0.645 0,0"
             style="fill:#1c1561;fill-opacity:1;fill-rule:evenodd;stroke:none"
             id="path4233" /></g><g
           id="g4235"
           transform="translate(151.3557,343.6702)"><path
             d="m 0,0 c 0.118,-0.587 0.073,-1.22 -0.131,-1.895 -0.207,-0.675 -0.529,-1.439 -0.97,-2.29 -0.44,-0.851 -1.042,-1.629 -1.805,-2.334 -0.471,-0.47 -0.852,-0.705 -1.146,-0.705 -0.176,0 -0.573,0.266 -1.188,0.792 -0.617,0.53 -1.174,0.984 -1.675,1.367 -0.499,0.381 -0.924,0.748 -1.276,1.1 -0.353,0.353 -0.529,0.647 -0.529,0.882 0.352,0.763 0.617,1.35 0.793,1.761 0.587,1.292 1.028,2.232 1.321,2.819 0.529,0.881 1.057,1.791 1.586,2.731 0.117,0.176 0.293,0.44 0.528,0.793 C -4.316,4.844 -4.14,4.697 -3.964,4.58 -3.787,4.463 -3.553,4.316 -3.258,4.14 -2.026,3.141 -1.203,2.378 -0.792,1.85 -0.381,1.32 -0.117,0.704 0,0 m -9.072,-0.529 c 0.117,-0.587 0.073,-1.219 -0.133,-1.894 -0.205,-0.675 -0.528,-1.438 -0.968,-2.29 -0.44,-0.851 -1.042,-1.629 -1.805,-2.334 -0.471,-0.47 -0.852,-0.705 -1.146,-0.705 -0.176,0 -0.573,0.264 -1.189,0.794 -0.616,0.526 -1.175,0.982 -1.674,1.364 -0.499,0.381 -0.925,0.75 -1.277,1.102 -0.352,0.351 -0.528,0.645 -0.528,0.88 0.352,0.763 0.616,1.35 0.792,1.762 0.588,1.291 1.029,2.231 1.322,2.818 0.528,0.882 1.056,1.791 1.584,2.731 0.119,0.176 0.295,0.441 0.529,0.793 0.177,-0.176 0.353,-0.323 0.529,-0.44 0.176,-0.119 0.411,-0.265 0.705,-0.441 1.233,-0.998 2.054,-1.761 2.467,-2.291 0.411,-0.528 0.675,-1.144 0.792,-1.849"
             style="fill:#1c1561;fill-opacity:1;fill-rule:evenodd;stroke:none"
             id="path4237" /></g><g
           id="g4239"
           transform="translate(191.9334,364.1273)"><path
             d="m 0,0 h -0.131 c -4.064,0.007 -8.073,0.315 -12.024,0.925 -3.993,0.616 -6.842,1.247 -8.544,1.894 l -1.41,0.529 c -0.293,0.058 -0.542,-0.045 -0.749,-0.309 -0.205,-0.264 -0.454,-0.661 -0.749,-1.189 -2.172,-4.346 -3.845,-7.4 -5.02,-9.161 -0.646,-0.94 -1.336,-1.747 -2.071,-2.422 -0.733,-0.676 -1.629,-1.13 -2.686,-1.365 -0.234,-0.06 -0.527,-0.088 -0.88,-0.088 -0.94,0 -1.41,0.381 -1.41,1.144 0,0.998 0.911,2.378 2.731,4.14 0.881,0.823 1.732,1.703 2.554,2.642 0.823,0.94 1.601,1.983 2.335,3.128 0.734,1.145 1.424,2.304 2.069,3.48 0.882,1.584 1.821,3.434 2.819,5.548 0.529,0.94 1.116,1.704 1.761,2.291 0.882,0.763 1.821,1.145 2.82,1.145 0.41,0 0.704,-0.03 0.88,-0.088 3.465,-0.998 6.563,-1.747 9.294,-2.246 2.688,-0.492 5.449,-0.742 8.28,-0.749 H 0 C 0.002,9.243 0.002,9.237 0.004,9.232 0.469,9.184 1.13,9.161 1.983,9.161 h 2.643 c 3.464,0 7.193,0.19 11.187,0.573 3.992,0.381 8.045,0.954 12.155,1.717 2.408,0.47 5.051,1.116 7.928,1.938 4.58,1.292 8.808,2.76 12.684,4.404 5.695,2.408 11.392,5.345 17.088,8.808 1.88,1.057 5.829,3.583 11.848,7.576 6.02,3.994 9.616,6.312 10.79,6.959 3.523,1.937 5.374,2.935 5.55,2.994 0.763,0.352 1.702,0.704 2.818,1.058 0.293,0 0.412,-0.147 0.352,-0.442 -0.059,-0.292 -0.44,-1.144 -1.144,-2.554 C 95.235,41.077 94.59,40.137 93.943,39.374 93.297,38.609 92.564,38.083 91.741,37.788 90.919,37.495 90.214,37.23 89.627,36.995 87.983,36.291 86.545,35.498 85.311,34.617 82.728,32.738 80.174,30.918 77.647,29.156 74.712,27.1 72.363,25.398 70.601,24.047 66.431,20.817 60.911,17.411 54.041,13.829 45.467,9.307 38.024,6.165 31.712,4.404 25.399,2.642 19.072,1.409 12.73,0.705 8.659,0.239 4.415,0.005 0,0"
             style="fill:#1c1561;fill-opacity:1;fill-rule:evenodd;stroke:none"
             id="path4241" /></g><g
           id="g4243"
           transform="translate(153.8139,380.3344)"><path
             d="m 0,0 c -0.009,-0.028 -0.015,-0.055 -0.024,-0.083 v -1.414 c 0,-1.879 0.383,-3.304 1.146,-4.272 0.763,-0.969 1.615,-1.454 2.554,-1.454 0.176,0.06 0.47,0.691 0.88,1.894 0.412,1.204 0.764,2.129 1.058,2.775 0.822,-0.176 1.424,-0.587 1.806,-1.233 0.381,-0.647 0.601,-1.292 0.66,-1.938 0,-2.173 -0.469,-4.287 -1.409,-6.342 -1.292,-2.76 -3.024,-4.14 -5.197,-4.14 -1.233,0 -2.349,0.631 -3.346,1.893 -0.999,1.263 -1.557,2.467 -1.675,3.613 -0.117,1.144 -0.175,1.863 -0.175,2.157 v 0.617 1.057 l 0.024,0.045 c 0.013,0.782 0.334,3.833 0.967,9.16 0.647,5.431 1.175,9.586 1.586,12.464 0.058,0.234 0.529,1.438 1.409,3.611 0.881,2.173 1.586,3.818 2.114,4.932 0.118,0.06 0.236,0.118 0.353,0.177 C 2.789,23.342 2.76,22.873 2.643,22.11 L 2.29,19.82 0.793,9.073 C 0.499,6.9 0.294,5.022 0.176,3.436 0.059,1.85 0,0.706 0,0"
             style="fill:#1c1561;fill-opacity:1;fill-rule:evenodd;stroke:none"
             id="path4245" /></g><g
           id="g4247"
           transform="translate(131.9534,333.0023)"><path
             d="m 0,0 c -0.701,0.361 -1.869,0.743 -3.42,0.743 -3.228,0 -5.289,-1.932 -5.289,-4.503 0,-2.209 1.636,-3.674 4.057,-4.651 1.933,-0.808 2.762,-1.657 2.762,-3.038 0,-1.465 -1.084,-2.464 -3.017,-2.464 -1.338,0 -2.655,0.425 -3.526,0.956 l -0.552,-2.06 c 0.786,-0.531 2.4,-0.977 3.93,-0.977 3.653,0 5.671,2.039 5.671,4.758 0,2.23 -1.253,3.653 -3.866,4.8 -2.06,0.892 -2.974,1.572 -2.974,2.953 0,1.04 0.808,2.166 2.74,2.166 1.339,0 2.358,-0.425 2.889,-0.722 z"
             style="fill:#bcbec0;fill-opacity:1;fill-rule:evenodd;stroke:none"
             id="path4249" /></g><g
           id="g4251"
           transform="translate(146.6545,321.1926)"><path
             d="m 0,0 c 0,-1.359 -1.105,-2.379 -2.443,-2.379 -0.913,0 -1.72,0.573 -1.72,1.869 0,2.082 2.23,2.443 4.163,2.443 z m 2.4,3.25 c 0,2.485 -0.956,4.758 -4.397,4.758 -1.572,0 -2.952,-0.446 -3.781,-0.978 l 0.51,-1.635 c 0.744,0.489 1.806,0.807 2.846,0.807 2.358,0 2.358,-1.742 2.358,-2.612 -4.014,0 -6.542,-1.445 -6.542,-4.355 0,-1.805 1.253,-3.42 3.441,-3.42 1.466,0 2.613,0.68 3.271,1.594 H 0.17 l 0.17,-1.36 H 2.57 C 2.421,-3.186 2.4,-2.167 2.4,-1.168 Z"
             style="fill:#bcbec0;fill-opacity:1;fill-rule:evenodd;stroke:none"
             id="path4253" /></g><g
           id="g4255"
           transform="translate(163.8192,329.1364)"><path
             d="m 0,0 c -0.212,0.043 -0.382,0.064 -0.616,0.064 -1.274,0 -2.506,-0.913 -3.037,-2.4 h -0.085 l -0.085,2.145 h -2.146 c 0.064,-1.083 0.085,-2.209 0.085,-3.569 v -8.135 h 2.464 v 6.202 c 0,2.04 1.041,3.399 2.698,3.399 0.276,0 0.51,-0.021 0.722,-0.064 z"
             style="fill:#bcbec0;fill-opacity:1;fill-rule:evenodd;stroke:none"
             id="path4257" /></g><g
           id="g4259"
           transform="translate(187.5686,324.315)"><path
             d="m 0,0 c 0,3.696 -1.912,4.885 -3.653,4.885 -1.678,0 -2.825,-0.849 -3.611,-2.145 h -0.043 c -0.488,1.317 -1.614,2.145 -3.101,2.145 -1.784,0 -2.846,-0.998 -3.42,-1.975 h -0.064 l -0.127,1.72 h -2.124 c 0.042,-0.998 0.085,-1.975 0.085,-3.292 v -8.411 h 2.421 v 7.094 c 0,1.848 1.254,2.846 2.358,2.846 1.423,0 2.039,-1.253 2.039,-2.888 v -7.052 h 2.422 v 7.221 c 0,1.7 1.147,2.719 2.273,2.719 1.486,0 2.124,-1.295 2.124,-3.249 V -7.073 H 0 Z"
             style="fill:#bcbec0;fill-opacity:1;fill-rule:evenodd;stroke:none"
             id="path4261" /></g><g
           id="g4263"
           transform="translate(202.2274,321.1926)"><path
             d="m 0,0 c 0,-1.359 -1.105,-2.379 -2.443,-2.379 -0.913,0 -1.72,0.573 -1.72,1.869 0,2.082 2.23,2.443 4.163,2.443 z m 2.4,3.25 c 0,2.485 -0.956,4.758 -4.397,4.758 -1.571,0 -2.952,-0.446 -3.781,-0.978 l 0.51,-1.635 c 0.744,0.489 1.806,0.807 2.846,0.807 2.358,0 2.358,-1.742 2.358,-2.612 -4.014,0 -6.542,-1.445 -6.542,-4.355 0,-1.805 1.253,-3.42 3.441,-3.42 1.466,0 2.612,0.68 3.271,1.594 H 0.17 l 0.17,-1.36 H 2.57 C 2.421,-3.186 2.4,-2.167 2.4,-1.168 Z"
             style="fill:#bcbec0;fill-opacity:1;fill-rule:evenodd;stroke:none"
             id="path4265" /></g><g
           id="g4267"
           transform="translate(220.1781,328.9454)"><path
             d="M 0,0 -1.89,-6.585 C -2.103,-7.371 -2.337,-8.242 -2.506,-8.921 H -2.57 c -0.17,0.679 -0.404,1.572 -0.637,2.336 L -5.331,0 h -2.698 l 4.015,-10.79 c 0.106,-0.234 0.127,-0.383 0.127,-0.51 0,-0.319 -0.914,-2.698 -3.462,-3.611 l 0.637,-2.082 c 0.573,0.128 1.657,0.531 2.719,1.508 1.401,1.36 2.379,3.526 3.759,7.371 L 2.591,0 Z"
             style="fill:#bcbec0;fill-opacity:1;fill-rule:evenodd;stroke:none"
             id="path4269" /></g><g
           id="g4271"
           transform="translate(231.9691,324.2937)"><path
             d="M 0,0 C 0.127,1.359 0.892,3.144 2.697,3.144 4.588,3.144 5.161,1.402 5.14,0 Z M 6.478,-4.843 C 5.714,-5.162 4.822,-5.395 3.526,-5.395 c -1.848,0 -3.484,0.998 -3.547,3.632 h 7.434 c 0.042,0.297 0.064,0.637 0.064,1.041 0,2.889 -1.317,5.628 -4.61,5.628 -3.313,0 -5.267,-2.782 -5.267,-6.265 0,-3.569 2.039,-5.927 5.565,-5.927 1.593,0 2.889,0.319 3.717,0.701 z"
             style="fill:#bcbec0;fill-opacity:1;fill-rule:evenodd;stroke:none"
             id="path4273" /></g><g
           id="g4275"
           transform="translate(257.2694,324.315)"><path
             d="m 0,0 c 0,3.696 -2.039,4.885 -3.802,4.885 -1.275,0 -2.591,-0.637 -3.356,-1.848 H -7.201 V 9.962 H -9.665 V -7.073 h 2.464 v 7.158 c 0,1.763 1.296,2.761 2.507,2.761 1.656,0 2.23,-1.402 2.23,-3.08 V -7.073 H 0 Z"
             style="fill:#bcbec0;fill-opacity:1;fill-rule:evenodd;stroke:none"
             id="path4277" /></g><g
           id="g4279"
           transform="translate(279.2583,324.8884)"><path
             d="m 0,0 h 1.423 c 1.89,0 3.739,-0.786 3.739,-2.931 0,-2.146 -1.7,-2.974 -3.675,-2.974 C 0.85,-5.905 0.361,-5.884 0,-5.82 Z M 0,1.827 V 6.733 C 0.297,6.797 0.786,6.861 1.593,6.861 3.122,6.861 4.694,6.372 4.694,4.418 4.694,2.91 3.462,1.827 1.508,1.827 Z M 4.482,1.126 c 1.699,0.637 2.676,1.996 2.676,3.547 0,1.636 -0.849,4.057 -5.799,4.057 -1.444,0 -2.888,-0.149 -3.802,-0.34 V -7.604 c 0.701,-0.085 1.785,-0.192 3.229,-0.192 2.676,0 4.46,0.489 5.544,1.53 0.594,0.552 1.402,1.551 1.402,3.271 0,2.273 -1.551,3.632 -3.25,4.057 z"
             style="fill:#bcbec0;fill-opacity:1;fill-rule:evenodd;stroke:none"
             id="path4281" /></g><g
           id="g4283"
           transform="translate(301.054,321.1926)"><path
             d="m 0,0 c 0,-1.359 -1.105,-2.379 -2.443,-2.379 -0.913,0 -1.72,0.573 -1.72,1.869 0,2.082 2.23,2.443 4.163,2.443 z m 2.4,3.25 c 0,2.485 -0.956,4.758 -4.397,4.758 -1.572,0 -2.952,-0.446 -3.781,-0.978 l 0.51,-1.635 c 0.744,0.489 1.806,0.807 2.846,0.807 2.358,0 2.358,-1.742 2.358,-2.612 -4.014,0 -6.542,-1.445 -6.542,-4.355 0,-1.805 1.253,-3.42 3.441,-3.42 1.466,0 2.612,0.68 3.271,1.594 H 0.17 l 0.17,-1.36 H 2.57 C 2.421,-3.186 2.4,-2.167 2.4,-1.168 Z"
             style="fill:#bcbec0;fill-opacity:1;fill-rule:evenodd;stroke:none"
             id="path4285" /></g><g
           id="g4287"
           transform="translate(321.9998,324.3997)"><path
             d="m 0,0 c 0,3.611 -2.039,4.801 -3.866,4.801 -1.763,0 -2.995,-0.999 -3.547,-1.997 H -7.477 L -7.604,4.546 H -9.75 c 0.043,-0.999 0.085,-1.997 0.085,-3.293 v -8.411 h 2.464 v 7.052 c 0,1.869 1.296,2.868 2.506,2.868 1.679,0 2.231,-1.403 2.231,-3.059 V -7.158 H 0 Z"
             style="fill:#bcbec0;fill-opacity:1;fill-rule:evenodd;stroke:none"
             id="path4289" /></g><g
           id="g4291"
           transform="translate(335.9785,324.1236)"><path
             d="M 0,0 4.121,4.822 H 1.211 L -1.699,0.913 C -1.997,0.51 -2.315,0 -2.591,-0.446 H -2.634 V 10.153 H -5.098 V -6.882 h 2.464 v 4.206 l 0.956,1.168 3.356,-5.374 h 2.974 z"
             style="fill:#bcbec0;fill-opacity:1;fill-rule:evenodd;stroke:none"
             id="path4293" /></g><g
           id="g4295"
           transform="translate(131.9534,333.0023)"><path
             d="m 0,0 c -0.701,0.361 -1.869,0.743 -3.42,0.743 -3.228,0 -5.289,-1.932 -5.289,-4.503 0,-2.209 1.636,-3.674 4.057,-4.651 1.933,-0.808 2.762,-1.657 2.762,-3.038 0,-1.465 -1.084,-2.464 -3.017,-2.464 -1.338,0 -2.655,0.425 -3.526,0.956 l -0.552,-2.06 c 0.786,-0.531 2.4,-0.977 3.93,-0.977 3.653,0 5.671,2.039 5.671,4.758 0,2.23 -1.253,3.653 -3.866,4.8 -2.06,0.892 -2.974,1.572 -2.974,2.953 0,1.04 0.808,2.166 2.74,2.166 1.339,0 2.358,-0.425 2.889,-0.722 z"
             style="fill:none;stroke:#bcbec0;stroke-width:0.216;stroke-linecap:butt;stroke-linejoin:miter;stroke-miterlimit:22.926;stroke-dasharray:none;stroke-opacity:1"
             id="path4297" /></g><g
           id="g4299"
           transform="translate(146.6545,321.1926)"><path
             d="m 0,0 c 0,-1.359 -1.105,-2.379 -2.443,-2.379 -0.913,0 -1.72,0.573 -1.72,1.869 0,2.082 2.23,2.443 4.163,2.443 z m 2.4,3.25 c 0,2.485 -0.956,4.758 -4.397,4.758 -1.572,0 -2.952,-0.446 -3.781,-0.978 l 0.51,-1.635 c 0.744,0.489 1.806,0.807 2.846,0.807 2.358,0 2.358,-1.742 2.358,-2.612 -4.014,0 -6.542,-1.445 -6.542,-4.355 0,-1.805 1.253,-3.42 3.441,-3.42 1.466,0 2.613,0.68 3.271,1.594 H 0.17 l 0.17,-1.36 H 2.57 C 2.421,-3.186 2.4,-2.167 2.4,-1.168 Z"
             style="fill:none;stroke:#bcbec0;stroke-width:0.216;stroke-linecap:butt;stroke-linejoin:miter;stroke-miterlimit:22.926;stroke-dasharray:none;stroke-opacity:1"
             id="path4301" /></g><g
           id="g4303"
           transform="translate(163.8192,329.1364)"><path
             d="m 0,0 c -0.212,0.043 -0.382,0.064 -0.616,0.064 -1.274,0 -2.506,-0.913 -3.037,-2.4 h -0.085 l -0.085,2.145 h -2.146 c 0.064,-1.083 0.085,-2.209 0.085,-3.569 v -8.135 h 2.464 v 6.202 c 0,2.04 1.041,3.399 2.698,3.399 0.276,0 0.51,-0.021 0.722,-0.064 z"
             style="fill:none;stroke:#bcbec0;stroke-width:0.216;stroke-linecap:butt;stroke-linejoin:miter;stroke-miterlimit:22.926;stroke-dasharray:none;stroke-opacity:1"
             id="path4305" /></g><g
           id="g4307"
           transform="translate(187.5686,324.315)"><path
             d="m 0,0 c 0,3.696 -1.912,4.885 -3.653,4.885 -1.678,0 -2.825,-0.849 -3.611,-2.145 h -0.043 c -0.488,1.317 -1.614,2.145 -3.101,2.145 -1.784,0 -2.846,-0.998 -3.42,-1.975 h -0.064 l -0.127,1.72 h -2.124 c 0.042,-0.998 0.085,-1.975 0.085,-3.292 v -8.411 h 2.421 v 7.094 c 0,1.848 1.254,2.846 2.358,2.846 1.423,0 2.039,-1.253 2.039,-2.888 v -7.052 h 2.422 v 7.221 c 0,1.7 1.147,2.719 2.273,2.719 1.486,0 2.124,-1.295 2.124,-3.249 V -7.073 H 0 Z"
             style="fill:none;stroke:#bcbec0;stroke-width:0.216;stroke-linecap:butt;stroke-linejoin:miter;stroke-miterlimit:22.926;stroke-dasharray:none;stroke-opacity:1"
             id="path4309" /></g><g
           id="g4311"
           transform="translate(202.2274,321.1926)"><path
             d="m 0,0 c 0,-1.359 -1.105,-2.379 -2.443,-2.379 -0.913,0 -1.72,0.573 -1.72,1.869 0,2.082 2.23,2.443 4.163,2.443 z m 2.4,3.25 c 0,2.485 -0.956,4.758 -4.397,4.758 -1.571,0 -2.952,-0.446 -3.781,-0.978 l 0.51,-1.635 c 0.744,0.489 1.806,0.807 2.846,0.807 2.358,0 2.358,-1.742 2.358,-2.612 -4.014,0 -6.542,-1.445 -6.542,-4.355 0,-1.805 1.253,-3.42 3.441,-3.42 1.466,0 2.612,0.68 3.271,1.594 H 0.17 l 0.17,-1.36 H 2.57 C 2.421,-3.186 2.4,-2.167 2.4,-1.168 Z"
             style="fill:none;stroke:#bcbec0;stroke-width:0.216;stroke-linecap:butt;stroke-linejoin:miter;stroke-miterlimit:22.926;stroke-dasharray:none;stroke-opacity:1"
             id="path4313" /></g><g
           id="g4315"
           transform="translate(220.1781,328.9454)"><path
             d="M 0,0 -1.89,-6.585 C -2.103,-7.371 -2.337,-8.242 -2.506,-8.921 H -2.57 c -0.17,0.679 -0.404,1.572 -0.637,2.336 L -5.331,0 h -2.698 l 4.015,-10.79 c 0.106,-0.234 0.127,-0.383 0.127,-0.51 0,-0.319 -0.914,-2.698 -3.462,-3.611 l 0.637,-2.082 c 0.573,0.128 1.657,0.531 2.719,1.508 1.401,1.36 2.379,3.526 3.759,7.371 L 2.591,0 Z"
             style="fill:none;stroke:#bcbec0;stroke-width:0.216;stroke-linecap:butt;stroke-linejoin:miter;stroke-miterlimit:22.926;stroke-dasharray:none;stroke-opacity:1"
             id="path4317" /></g><g
           id="g4319"
           transform="translate(231.9691,324.2937)"><path
             d="M 0,0 C 0.127,1.359 0.892,3.144 2.697,3.144 4.588,3.144 5.161,1.402 5.14,0 Z M 6.478,-4.843 C 5.714,-5.162 4.822,-5.395 3.526,-5.395 c -1.848,0 -3.484,0.998 -3.547,3.632 h 7.434 c 0.042,0.297 0.064,0.637 0.064,1.041 0,2.889 -1.317,5.628 -4.61,5.628 -3.313,0 -5.267,-2.782 -5.267,-6.265 0,-3.569 2.039,-5.927 5.565,-5.927 1.593,0 2.889,0.319 3.717,0.701 z"
             style="fill:none;stroke:#bcbec0;stroke-width:0.216;stroke-linecap:butt;stroke-linejoin:miter;stroke-miterlimit:22.926;stroke-dasharray:none;stroke-opacity:1"
             id="path4321" /></g><g
           id="g4323"
           transform="translate(257.2694,324.315)"><path
             d="m 0,0 c 0,3.696 -2.039,4.885 -3.802,4.885 -1.275,0 -2.591,-0.637 -3.356,-1.848 H -7.201 V 9.962 H -9.665 V -7.073 h 2.464 v 7.158 c 0,1.763 1.296,2.761 2.507,2.761 1.656,0 2.23,-1.402 2.23,-3.08 V -7.073 H 0 Z"
             style="fill:none;stroke:#bcbec0;stroke-width:0.216;stroke-linecap:butt;stroke-linejoin:miter;stroke-miterlimit:22.926;stroke-dasharray:none;stroke-opacity:1"
             id="path4325" /></g><g
           id="g4327"
           transform="translate(279.2583,324.8884)"><path
             d="m 0,0 h 1.423 c 1.89,0 3.739,-0.786 3.739,-2.931 0,-2.146 -1.7,-2.974 -3.675,-2.974 C 0.85,-5.905 0.361,-5.884 0,-5.82 Z M 0,1.827 V 6.733 C 0.297,6.797 0.786,6.861 1.593,6.861 3.122,6.861 4.694,6.372 4.694,4.418 4.694,2.91 3.462,1.827 1.508,1.827 Z M 4.482,1.126 c 1.699,0.637 2.676,1.996 2.676,3.547 0,1.636 -0.849,4.057 -5.799,4.057 -1.444,0 -2.888,-0.149 -3.802,-0.34 V -7.604 c 0.701,-0.085 1.785,-0.192 3.229,-0.192 2.676,0 4.46,0.489 5.544,1.53 0.594,0.552 1.402,1.551 1.402,3.271 0,2.273 -1.551,3.632 -3.25,4.057 z"
             style="fill:none;stroke:#bcbec0;stroke-width:0.216;stroke-linecap:butt;stroke-linejoin:miter;stroke-miterlimit:22.926;stroke-dasharray:none;stroke-opacity:1"
             id="path4329" /></g><g
           id="g4331"
           transform="translate(301.054,321.1926)"><path
             d="m 0,0 c 0,-1.359 -1.105,-2.379 -2.443,-2.379 -0.913,0 -1.72,0.573 -1.72,1.869 0,2.082 2.23,2.443 4.163,2.443 z m 2.4,3.25 c 0,2.485 -0.956,4.758 -4.397,4.758 -1.572,0 -2.952,-0.446 -3.781,-0.978 l 0.51,-1.635 c 0.744,0.489 1.806,0.807 2.846,0.807 2.358,0 2.358,-1.742 2.358,-2.612 -4.014,0 -6.542,-1.445 -6.542,-4.355 0,-1.805 1.253,-3.42 3.441,-3.42 1.466,0 2.612,0.68 3.271,1.594 H 0.17 l 0.17,-1.36 H 2.57 C 2.421,-3.186 2.4,-2.167 2.4,-1.168 Z"
             style="fill:none;stroke:#bcbec0;stroke-width:0.216;stroke-linecap:butt;stroke-linejoin:miter;stroke-miterlimit:22.926;stroke-dasharray:none;stroke-opacity:1"
             id="path4333" /></g><g
           id="g4335"
           transform="translate(321.9998,324.3997)"><path
             d="m 0,0 c 0,3.611 -2.039,4.801 -3.866,4.801 -1.763,0 -2.995,-0.999 -3.547,-1.997 H -7.477 L -7.604,4.546 H -9.75 c 0.043,-0.999 0.085,-1.997 0.085,-3.293 v -8.411 h 2.464 v 7.052 c 0,1.869 1.296,2.868 2.506,2.868 1.679,0 2.231,-1.403 2.231,-3.059 V -7.158 H 0 Z"
             style="fill:none;stroke:#bcbec0;stroke-width:0.216;stroke-linecap:butt;stroke-linejoin:miter;stroke-miterlimit:22.926;stroke-dasharray:none;stroke-opacity:1"
             id="path4337" /></g><g
           id="g4339"
           transform="translate(335.9785,324.1236)"><path
             d="M 0,0 4.121,4.822 H 1.211 L -1.699,0.913 C -1.997,0.51 -2.315,0 -2.591,-0.446 H -2.634 V 10.153 H -5.098 V -6.882 h 2.464 v 4.206 l 0.956,1.168 3.356,-5.374 h 2.974 z"
             style="fill:none;stroke:#bcbec0;stroke-width:0.216;stroke-linecap:butt;stroke-linejoin:miter;stroke-miterlimit:22.926;stroke-dasharray:none;stroke-opacity:1"
             id="path4341" /></g></g></g></g></svg>
