<?xml version="1.0" encoding="UTF-8" standalone="no"?>
<svg
   xmlns:dc="http://purl.org/dc/elements/1.1/"
   xmlns:cc="http://creativecommons.org/ns#"
   xmlns:rdf="http://www.w3.org/1999/02/22-rdf-syntax-ns#"
   xmlns:svg="http://www.w3.org/2000/svg"
   xmlns="http://www.w3.org/2000/svg"
   xmlns:sodipodi="http://sodipodi.sourceforge.net/DTD/sodipodi-0.dtd"
   xmlns:inkscape="http://www.inkscape.org/namespaces/inkscape"
   version="1.1"
   id="svg28"
   xml:space="preserve"
   width="1332"
   height="1502.6667"
   viewBox="0 0 1332 1502.6667"
   sodipodi:docname="sepah.svg"
   inkscape:version="1.0.1 (3bc2e813f5, 2020-09-07)"><sodipodi:namedview
     pagecolor="#ffffff"
     bordercolor="#666666"
     borderopacity="1"
     objecttolerance="10"
     gridtolerance="10"
     guidetolerance="10"
     inkscape:pageopacity="0"
     inkscape:pageshadow="2"
     inkscape:window-width="1848"
     inkscape:window-height="1009"
     id="namedview3263"
     showgrid="false"
     inkscape:zoom="0.53362628"
     inkscape:cx="666"
     inkscape:cy="731.34087"
     inkscape:window-x="72"
     inkscape:window-y="34"
     inkscape:window-maximized="1"
     inkscape:current-layer="svg28" /><metadata
     id="metadata34"><rdf:RDF><cc:Work
         rdf:about=""><dc:format>image/svg+xml</dc:format><dc:type
           rdf:resource="http://purl.org/dc/dcmitype/StillImage" /><dc:title /></cc:Work></rdf:RDF></metadata><defs
     id="defs32" /><g
     id="g36"
     transform="matrix(1.6222453,0,0,-1.6222453,-144.25854,1665.508)"><g
       id="g38"
       transform="scale(0.1)"><path
         d="m 4178.9,10006.2 c 282.3,63.7 572.1,92 861.1,93.9 238.5,-10.6 477.3,-31.6 711.2,-81.9 193.2,-42.5 386.5,-86.8 573.7,-151.7 171.8,-56.8 335.9,-133.2 498.8,-211.1 258,-136 500.3,-300.8 726.7,-484.6 247.5,-201.6 467.8,-436.4 655,-695 106.1,-146.6 210.7,-295.5 295.1,-455.9 168.4,-305.1 290.4,-635.3 365.6,-975.5 79.3,-315.1 115.9,-640.4 115.8,-965.1 -12.8,-269.5 -44.7,-539 -110.5,-801.2 -66.2,-302.2 -166.6,-597.4 -306.4,-873.6 -139.8,-280.6 -319.6,-539.6 -517.9,-781.7 52.2,-38.8 110.4,-71.9 151.5,-123.5 65.9,-85.3 133.1,-175.3 154.3,-283.4 6.7,-45.3 31.7,-90.8 18.1,-137 -13.1,-46.6 -17,-96.6 -40.8,-139.5 C 8147,2601 7995.6,2247 7828.8,1900.6 c -64.2,-138.8 -142.2,-271.8 -240.2,-389.5 -40.9,-46.7 -94.3,-80.1 -145.1,-114.9 -179.6,-92.9 -378.2,-139.6 -575,-180.1 -103.3,-16.4 -210.2,-36.4 -313.6,-9.4 -119.3,29.7 -247,45.9 -350.2,118.2 -53.4,39.1 -112.1,73.9 -152.2,127.8 -35.8,49.1 -74.8,96.8 -98.5,153.3 -109.7,42 -221.3,79.7 -335.4,107.9 -347.4,74 -710.3,73.1 -1057.7,-0.3 -138.3,-34.7 -273.4,-81.4 -405.5,-135.2 -29,-50.5 -64.3,-97 -99,-143.8 -44.7,-59.9 -108.9,-99.9 -168.7,-142.9 -52.9,-37.2 -114.7,-59.2 -177.5,-72.5 -109.7,-24.3 -221.4,-60 -334.8,-41.4 -154.3,20.1 -306.2,56.9 -455.2,101.4 -73.5,26.9 -153.5,43.9 -216,93.6 -56.4,39.9 -111.2,82.6 -160,131.6 -84.7,97.7 -137.4,216.9 -202.2,327.6 -188.9,338.1 -378.3,676.1 -567,1014.4 -20.7,43.5 -25.3,92.4 -38.2,138.4 -11.3,37.1 0.5,74.9 9,111 14.3,57.3 24.4,116.2 48.5,170.5 26.1,62.5 69.8,115 109,169.4 29.6,40.9 71.4,70.1 112.2,98.8 -106.1,118.7 -203,245.2 -294.6,375.3 -285.8,396.9 -490.1,851.9 -596.6,1329.2 -58.3,233.2 -98.2,471.3 -109.9,711.4 -23.099,203.5 -1.4,408.4 18,611.3 22.1,210.7 70.7,417.3 121.9,622.5 89.9,346 230.5,678.9 417.6,983.5 168.1,268.1 359,523.5 582.9,747.8 196.3,200 419.5,371.3 651.2,528 299.5,200.1 628.7,355.3 973.1,460.7 131.4,40.8 265.8,70.9 399.8,102 m 501.9,-81.5 c -274.9,-21.8 -546.2,-78.9 -810.7,-156 -344.5,-103.1 -674.2,-256.3 -974.4,-454.4 -251,-166.4 -486.7,-357.1 -693.1,-576.8 -206.2,-218.9 -386,-462.5 -537.6,-722 -181.1,-312.8 -313.6,-653.2 -394.4,-1005.4 -42.7,-177.3 -73.7,-357.6 -89,-539.4 -14,-170.4 -29.6,-342.3 -9.4,-512.7 13.8,-293.5 69.7,-583.6 149.6,-865.8 174.3,-609.5 517.1,-1165.5 963.9,-1613 -66.7,-12.5 -133.2,-33.2 -186.5,-76.9 -122.7,-87.7 -192.9,-235.1 -209,-382.7 3.6,-45.3 16.3,-90.4 41,-129 215.2,-384.7 430.5,-769.4 645.3,-1154.4 29.2,-54.6 62.2,-109.1 110.4,-149.3 46.9,-39.6 92.8,-82.4 148.1,-110.1 183.6,-73.9 377.4,-122.7 574.1,-144.6 97.6,-6.8 193.3,19.5 287,43.2 148.8,47 268.5,165.3 332.6,305.9 6.4,24.3 33,28.5 52.5,37.6 187,75 379.6,139.5 579,172 337.9,57.5 687.3,47.3 1020.7,-32.7 136.8,-34.8 270.8,-80.1 401.3,-133.8 33.8,-139.8 148,-247.3 276.6,-303.6 68,-29.2 141.1,-43.2 213,-59.2 88.5,-20.6 179.5,-4.8 267.8,8 176.8,30.6 351.1,80.4 513.5,157.4 59,31.2 111.2,75.4 150.5,129.3 71.7,93 127.1,197.1 177.7,302.6 155.3,321.8 297,650.2 462.4,967 29.4,59.1 70.6,115.4 74,183.6 -6.2,48.2 -21.1,95.1 -41.6,139 -52.2,108.8 -134.6,208.1 -247.2,257 -54.1,19.1 -110.8,30.8 -167.8,36.2 132,135.1 251.4,282.2 360.9,436 178.2,247.4 325.5,517 436.7,800.9 106.9,274.2 178.7,561.5 223.5,852.1 22,138.9 28.9,279.5 41.1,419.4 2.2,318.5 -29.9,638.2 -104.7,948.2 -74.9,331.8 -195.7,653.5 -360,951.4 -29.7,64.1 -70.5,121.7 -106.9,181.9 -189.5,298.5 -414.7,575.5 -678.4,811.7 -223.5,199 -467.5,376 -730.1,520.1 -55.5,37.6 -118.1,61.8 -177.8,91.3 -326.4,161.9 -679.2,264.7 -1037.1,328.6 -187.5,34.3 -377.9,46.9 -567.8,58.2 -126.8,3.2 -253.4,-7.2 -379.7,-16.8"
         style="fill:#e8651d;fill-opacity:1;fill-rule:nonzero;stroke:none"
         id="path40" /><path
         d="m 4255.6,9725.9 c 231.8,48.2 468.4,68.3 704.6,77.5 110.4,3 220.3,-8.6 330.2,-15.9 589.1,-45.4 1165.2,-237.3 1666,-550.2 509.1,-318.5 940.3,-761.5 1240.2,-1282.1 152.3,-261.7 269.9,-543.5 351.7,-835 96,-341.2 137.5,-696.5 136.8,-1050.4 -11.6,-177.4 -24,-355.2 -55.8,-530.4 -103.8,-609.7 -370.1,-1189.9 -760.9,-1669 -213.3,-262.3 -462.6,-495.3 -738.7,-690.5 -44.4,-32.1 -92.5,-59.1 -133.4,-95.9 98.7,1.7 193.9,29.8 289.2,52.3 81.3,21.7 161.5,47.2 241.1,74.4 24.1,47.6 46.2,96.3 71,143.5 5.9,14.5 22.7,17.5 35.5,23.2 82.2,30.7 178.6,35.7 257.7,-6.6 84.8,-44 139.7,-128.4 175,-214.7 7.8,-21.8 21.6,-46.8 6.7,-69 -167.3,-309.5 -309.8,-631.5 -459.3,-949.8 -49.5,-102.7 -96.4,-207 -155.4,-304.7 -43.8,-70 -91.5,-145.1 -168.1,-182.6 -176.1,-82 -365,-138.3 -558.8,-156.4 -104.9,-13.5 -210.8,11.6 -308,50.1 -96,38.7 -183.7,115.2 -209.2,218.8 -8.6,25.5 -6.4,63.4 -38,72.3 -284,121.1 -586.8,200.6 -894.9,224 -462.4,36.8 -927.4,-65.8 -1349,-253.4 -30.4,-76.1 -66.8,-152.5 -128.3,-208.7 -95.6,-93.1 -233.8,-123.7 -363,-127.1 -182.9,10.3 -361.7,59.5 -531.8,126 -52.7,20.7 -92.2,62.9 -134.6,98.7 -39.8,33.1 -60.8,81.4 -85.8,125.3 -193.2,346.3 -387.1,692.3 -580.4,1038.6 -25.4,50.9 -61.2,97.2 -79.2,151.3 1.2,69.3 32.2,135.1 67.9,193.2 52.2,82.9 143.9,141.9 242.8,145.7 47.8,3.1 94.3,-10.8 138.9,-26.5 13.5,-43.2 27.8,-86.2 43.2,-128.8 123.9,-43.6 247.9,-86.4 371.7,-130.3 29.2,-10 57.8,-22.4 88.3,-28.2 20.3,3.8 38.3,14.7 56.5,24 -506.2,317 -937,754.9 -1238.3,1271 -278.1,473.9 -446.7,1012 -484.9,1560.3 -2.5,47.7 -6.1,95.3 -11.4,142.7 -7.3,140.7 3.3,281.3 15.1,421.4 50.3,612.9 262.9,1211.1 608.2,1719.7 323.8,479.8 763.3,880.1 1269.1,1161.2 330.5,183.5 689.3,315.8 1059.8,391 m 235.1,-80.1 C 3929,9568.1 3387.7,9352 2925.1,9024.4 c -391.6,-276.3 -727,-632 -978.7,-1040.1 -304.3,-490.4 -483.1,-1057.8 -515.6,-1634 0.1,-103.3 -14,-206.4 -3.8,-309.6 11.7,-406 96.9,-809.7 248.2,-1186.6 236.2,-590 636.6,-1112 1141.7,-1497.2 109.7,-85.9 228.2,-159.4 344.6,-235.7 15.4,5 30.8,10 46.3,14.7 -0.8,8.6 -1.6,17.1 -2.3,25.5 -106.8,58 -205.5,129.3 -303.6,200.6 -274.6,205.3 -520,450.1 -724.2,725.6 -409.2,551 -651.4,1226 -674.7,1912.6 -4.2,76.9 -7.9,154.2 -0.6,231 10.8,485.6 130.3,967.8 342.8,1404.3 267.7,552.9 686.3,1030.8 1196.1,1373.1 521.7,352 1139.9,559.5 1768.6,591.4 93.1,1.5 186.3,12.6 279.4,3.1 340,-5.7 678.6,-65.5 1001.8,-170.8 C 6952.6,9154.1 7694.8,8527 8111.5,7723 8482.3,7018.5 8593.1,6182.4 8422,5405.2 8354.5,5090.5 8240.6,4786 8087.4,4503 7801.9,3973.9 7376.2,3522.7 6867.2,3203.1 c 11.1,-10.8 22.3,-21.7 33.6,-32.7 225.4,141.4 434.7,308.2 623.1,496 422.7,419.5 736.8,947.5 902.3,1519.6 91.4,319.5 136.5,651.7 136.5,983.8 -7.1,120.1 -6.1,240.8 -21.9,360.3 -59.8,551.7 -254.9,1087.7 -561.7,1550 -337.4,509.5 -808.1,929.1 -1352,1207.5 -652.6,336 -1410,462.7 -2136.4,358.2 m -477.8,-198.1 c -582.4,-169.6 -1117.2,-496.6 -1536.5,-934.6 -450.2,-467.8 -767,-1064.5 -893.5,-1701.9 -92.7,-463.5 -90.5,-946.4 11.8,-1408 72.6,-328.5 193.3,-646.4 358.2,-939.7 298.7,-532.7 741.1,-983.1 1266.3,-1294.3 18.5,-11.7 40.9,-12 62.1,-14.9 2.4,22.5 17.8,49 2.1,69.4 -22.7,30 -59.2,43.8 -92.4,58.6 -66.9,27.8 -123.8,73.8 -181.6,116.5 -98.2,72.9 -198.6,142.6 -297.9,213.8 6.3,18.4 11.5,37.2 15.9,56 -68.9,39.3 -137.2,80.1 -200,128.6 -73.3,56.9 -122.8,138.5 -156.5,223.8 -15.6,41.2 -49,71.1 -79,101.7 -66.7,67.3 -138.6,129.8 -199.6,202.6 19.6,11.5 39.5,23.8 62.3,27.5 25.1,6.1 54.6,3.1 73.3,24.5 -81.6,65.3 -152.4,143.8 -207.4,232.8 -104,164.3 -162.2,351.4 -245.3,526 -20.3,43.5 -45.9,84.4 -64.7,128.6 38.4,2.8 76.9,2.1 115.4,1.2 -24.9,50.4 -62.4,93.3 -87,143.7 -31.6,77.5 -52.7,159 -69.2,240.9 -42.1,209.3 -29.6,423.9 -30.8,636 13.5,-4.3 27,-8.8 40.6,-13.3 14,112 7,224.9 2,337.2 -1.3,40.8 -5.4,82.8 7.6,122.3 37.1,122.8 84.9,242.3 115.6,367 15.8,53.4 -0.5,115.6 41.7,159.1 16.4,-3.7 32.9,-7.4 49.4,-11.1 10.2,119.5 26.2,241 75.2,351.6 47.1,105.8 121.1,196.5 196.2,283.6 22.2,24.1 35.1,54.4 51.3,82.5 30,-0.6 60,0.1 89.8,3.4 -1.1,13.6 -2.3,27.2 -3.4,40.7 11.4,7.1 26.1,12.5 27.2,28.2 16.5,61.4 41,120.8 76.3,173.8 101.7,156.8 257.2,270 355.7,429.3 18.8,-0.8 37.7,-1.6 56.6,-2.5 19.3,-56.7 36.2,-114.1 55.6,-170.7 45.2,36.9 83.2,81.6 129,117.9 69.8,57.5 152.6,107.5 246.1,107 14,-80.7 -21.6,-160.5 -73.6,-220.5 -33.6,-44.3 -83.6,-80 -95.4,-137.3 59.2,-0.5 121.1,0.8 173.4,-31.7 -41.6,-39.1 -99.7,-58.1 -132.5,-106.5 -98.3,-135.9 -207,-264.6 -328,-380.8 -35,-27.8 -30.3,-76.7 -47.1,-114.4 -41.4,-102.2 -101,-195.9 -163.6,-286.2 -69.7,-97.8 -141.6,-194.8 -225.9,-280.7 4.4,-15.1 9.3,-30.2 14.8,-45.1 -55.3,-151.7 -85.9,-310.7 -120.6,-468 -20.4,-101.3 -44.7,-202 -59.5,-304.3 8.2,-1.4 24.7,-4.3 32.9,-5.7 -29.5,-133.5 -23.3,-270.9 -9,-405.9 16,-153.2 29.7,-307 21.3,-461.1 13.6,-6.8 37.9,-4.4 39.6,-24.6 90.5,-337.6 216.3,-672.4 428,-953.9 45.9,-66.5 105.8,-122.5 145.7,-193.2 48,-80 94.8,-163.1 164.5,-226.6 116.4,-101.6 259.7,-169.7 365,-284.5 119.6,-118.4 219.1,-256.8 291.8,-408.7 122.3,22.6 235.5,78.6 356.5,107.2 328,74.8 663.4,122.8 1000.3,124.4 374.6,5.6 748.1,-42.8 1114.2,-119.8 79.8,129.7 205.1,221 297.1,340.9 45.1,6.7 92.7,14.4 130,42.8 41.5,30.2 66.1,76.5 89.4,120.9 26,-4.5 51.8,-13.9 78.6,-12.2 67.2,41.1 93,122.4 150.4,174 28.5,28.7 66.8,43.7 105.1,54.4 14.1,114.2 116.9,192.1 129.8,306.6 14.8,-0.5 29.8,-1.1 44.9,-1.8 0.8,-7.1 2.5,-21.3 3.3,-28.5 4.7,-3.8 14.1,-11.5 18.7,-15.4 52.5,58.9 92.4,129.6 107.5,207.5 15.4,6.8 40.7,3.4 44.5,24.5 33.7,96.5 84.2,188.2 98.1,290.7 23.7,20.1 46.3,42.3 60.1,70.6 40,78.4 65.7,163.1 90.7,247.3 51.3,184 93.1,371.2 114,561.2 8.5,1 25.5,3 34,3.9 2.5,78.1 -15.6,154.2 -28.4,230.6 15.7,3.5 31.5,6.8 47.4,9.9 -4.7,112.7 -37.9,224.4 -19.1,337.1 -12,146.1 -47.8,290.2 -101.4,426.5 12.8,4.6 25.6,9.1 38.6,13.6 0.2,71.4 -49,125.9 -92.3,176.8 18.8,5 37.6,9.9 56.6,14.8 -70.6,179.6 -181,339.9 -279.2,505 7.2,14.5 14.5,28.8 21.9,43.1 -72.7,57.1 -132.6,128.1 -188.2,201.5 6.9,9.2 13.9,18.4 20.9,27.5 -70.9,92.6 -170.7,156.8 -265,223.1 -5.6,28.3 -8.4,59.6 -28.8,82 -32.7,36.9 -79,57 -118.1,85.8 -1,22.1 6.4,47.5 -9.5,66 -51.3,72.5 -132.6,113.8 -208.3,155.9 3.8,5.5 11.3,16.4 15,21.8 -48.8,58.1 -119.9,88.4 -189.7,113 0,9.4 0.2,18.8 0.5,28.1 30.2,19.3 60.1,39.1 89.1,60.3 -22.4,84.6 -110.6,131.4 -128.1,218.4 76.8,4 150.1,-21.6 224.1,-37.9 -8.8,47.1 -16.9,94.4 -20.6,142.2 84.8,-15.3 148.8,-76 220.1,-119.2 14.1,22.7 26.9,46.3 39.2,70.1 25.1,-14.3 49.4,-30.2 70.2,-50.3 104.8,-99.1 196.3,-210.9 290.4,-319.9 17.8,-26.9 52.2,-18.7 79.6,-20.2 39.2,-89.4 96.9,-182.3 195.8,-212.5 33.4,-89.7 83.8,-171.2 131.5,-253.7 18.8,-3.9 37.6,-7.5 56.6,-11.1 27.5,-91.9 52,-206.4 150.8,-247.1 15.3,-93.2 49.9,-182.1 95.4,-264.5 18.6,-1.1 37.3,-2.3 56.1,-3.4 30.3,-80.7 61.7,-161.4 79.1,-246.1 17.5,-1.1 35.2,-2.3 52.9,-3.4 -0.3,-99.8 6.4,-199.9 26.4,-297.8 14.2,-1.2 28.6,-2.5 43,-3.7 11.7,-101.5 19.8,-203.3 27.4,-305.2 15.3,-0.8 30.8,-1.6 46.3,-2.5 0.3,-104.8 -0.4,-209.7 0.4,-314.5 17.4,-2.9 35.1,-5.9 52.7,-8.9 -9.2,-115.9 -28.7,-230.7 -38.5,-346.5 12.9,-2.9 25.9,-5.9 39,-8.9 -18.7,-97.9 -45.3,-194.2 -57.7,-293.2 6.7,-2.6 20.1,-7.8 26.8,-10.4 -9.2,-38.4 -22.5,-75.5 -35.4,-112.7 -25.6,-74.3 -42.5,-151.1 -61.2,-227.3 12.4,-4.1 25,-8.2 37.7,-12.4 -20.4,-96.5 -62.9,-187.2 -113.7,-271.2 -27.7,-38.5 -8.6,-89 -24.7,-131.6 -43.1,-127.3 -119.6,-239.2 -189.8,-352.5 -52.1,-81.3 -108,-162.1 -136.4,-255.5 6.1,-4.2 18.2,-12.5 24.2,-16.7 -129.6,-170.8 -262,-340.9 -416.9,-489.8 -16.6,-13.4 -1.1,-33.7 0.3,-50.3 -61.6,-82.3 -149.5,-139.7 -243.2,-179.3 7.3,-18.2 16.2,-35.9 23.2,-54.4 -66.9,-47.7 -145.3,-76.8 -212.1,-124.4 -12.7,-21.9 -7.2,-51.3 -10.8,-76.4 -59.9,-41.1 -121.8,-79.5 -188.1,-109.5 11.4,-12 21.9,-25.3 36.1,-34.7 35.4,-2.7 72.9,12.1 105.1,-9.8 385.7,238.4 720.9,556.7 985.9,924.1 391.2,542.3 618.8,1201.6 640.9,1870.1 13.6,369.4 -32.5,741.3 -138,1095.8 -181.4,616.9 -542.8,1178.3 -1024.3,1603.9 -479,426.2 -1077.4,716 -1708.9,826.9 -530,93.4 -1082.1,64.6 -1598.3,-88.8 m 2617.3,-493.2 c 2.5,-58 12.4,-126.4 71.3,-154.3 10.1,14.4 4.3,50.9 27.1,49.8 27.7,-27.5 47.5,-62.7 79.9,-85.7 -4.6,96.9 -89.6,167.7 -178.3,190.2 m -204.7,-95 c 27.7,-82.2 94.8,-144.2 170.6,-182.7 14.9,-9.8 32.8,-3.8 49.3,-3.4 -44.5,48.5 -102.8,81.2 -148.5,128.4 63.5,-5.5 119.3,-37.6 178.1,-58.9 17.3,-7.4 36.2,-7.5 54.7,-5.5 -72,90.3 -192.8,124 -304.2,122.1 m 427.3,3.2 c 1.2,-59.3 13.1,-118.6 38,-172.6 5,-15.5 20.7,-22 32.9,-31.2 -7.5,37.9 -18.8,75.1 -23.6,113.5 36,-34.2 56.5,-86.5 104.9,-105.7 -1.3,22.9 2.4,47.8 -9,68.8 -31,57.9 -86.9,96.6 -143.2,127.2 m -141.3,-172 c -3.7,-110.6 94.5,-188 182,-237 -23.5,63.4 -60.1,120.4 -92,179.5 44.7,-23.5 90.8,-53.9 144,-48.2 -26.3,43.6 -66.6,80.4 -116.2,94.6 -38.5,9.7 -78.5,9.6 -117.8,11.1 m 346.2,-33.4 c -2.1,-57.5 -4.5,-115.1 -3.1,-172.7 14.4,-1.9 29,-3.7 43.6,-5.6 -1.2,32 -2.1,64 -1.9,96 45.3,-30.8 61.9,-90.9 112.1,-114.6 -13,80.1 -73.1,138.5 -122.3,198.4 -9.6,-0.4 -19,-0.9 -28.4,-1.5 m -569.4,-35.5 c -0.1,-14.3 -0.2,-28.7 -0.1,-43.2 36.3,-19.7 66.5,-62.5 112,-55.2 19.7,1.3 38.7,7.2 57.8,12.4 -29.1,19.8 -63.7,28.3 -94.9,43.8 33.6,12.7 68.1,22.7 102,34.7 -52.3,37.8 -122.4,45.3 -176.8,7.5 m -3490,-116.4 c 43.4,18.8 85,41.5 129.7,57.4 -20.2,-54.3 -56.3,-100.4 -78.2,-153.9 94.3,35.1 137.3,134.7 158.8,225.7 -77.2,-27.1 -172.4,-47.4 -210.3,-129.2 m -282.4,-0.8 c -98,-108.6 -206.5,-209.5 -284.7,-334.3 -30.5,-47.3 -52.1,-99.9 -64.7,-154.7 4.6,-0.4 14,-1.2 18.7,-1.7 4.7,21.2 9.3,42.3 14.1,63.4 17.5,-1.6 35.1,-3.2 52.7,-4.8 43.4,51.6 87.5,102.7 132.2,153.2 67.9,75.7 149.2,139.3 239.9,185.3 -1.6,55.6 4.2,120.8 -34.1,165.9 -31.7,-15.6 -50.5,-47.3 -74.1,-72.3 m 3956.8,-24 c -2.5,-8.7 -7.6,-26 -10.2,-34.7 65.6,-56.1 127.2,-123.2 211.5,-150.7 32.3,-11.5 67.3,-7.1 97.2,8.8 -49.9,46.3 -114.9,69.1 -172.6,103.4 30.4,4.5 61.1,8.3 91.1,15.6 -33.2,26.3 -69.1,51.3 -110.7,62 -35.1,9.5 -71.3,1.1 -106.3,-4.4 m 286.8,-1.7 c 12.4,-35.8 26.6,-71.2 44.8,-104.5 17.2,-33.9 40.4,-70.7 83,-72.7 -13.9,38 -41.3,68.2 -64,100.9 46.8,-28.1 86.4,-66.2 131,-97.6 18.2,-14.6 42.1,-15.5 64.2,-19.3 -3.3,36.5 -18,72.3 -47.5,95.4 -60.8,49.4 -134.5,83.2 -211.5,97.8 m 292.6,-186.6 c 6.8,-19.5 29.4,-24.1 44.9,-34.4 -2.8,34.6 -9.4,68.7 -17.1,102.4 11.7,-0.6 23.4,-1.2 35.3,-1.9 30.5,-50.7 44,-114.1 90.7,-153.2 2.7,80.4 -33.5,156.7 -80.9,219.6 -16.4,23 -41.2,37.3 -66.1,49.3 -9.4,-59.3 -32.5,-123.4 -6.8,-181.8 m -4518.7,14.4 c -88.4,-78.1 -173.4,-162.6 -236.1,-263.2 -21.8,-33.8 -36.6,-71.6 -44.7,-110.9 33,13.2 66.1,27.5 94.2,49.6 96.6,74.6 147.9,192.4 244.7,266.6 14.8,12.9 35.9,7.2 53.7,9.5 -42.4,-61 -100.4,-108.4 -148.9,-164.2 -73.8,-82.4 -152.4,-171.8 -168.8,-285.4 56.3,20.6 105.7,55.6 152.3,92.7 53,40.9 81.2,104.3 129,150.2 67.5,61 104.5,146.9 137,229.9 19.1,51.8 37,105 38.2,160.8 -97.3,-12.7 -177.5,-74.8 -250.6,-135.6 m 268.7,-17.1 c -33.4,-62.3 -71.8,-121.8 -109.8,-181.3 -42.1,-67.9 -87.5,-136.5 -104.6,-215.8 18.1,11.4 35.4,24 51.1,38.6 99.3,91.5 179.2,200.9 266.1,303.6 14.3,16.5 24.7,35.8 33.2,55.8 -45.3,4.1 -90.8,3.1 -136,-0.9 m 3865.4,-44 c 27.9,-69.3 94.4,-114.4 163,-137.2 22.2,-9.7 42.3,4.9 59.5,17.3 -39,32.4 -85.8,52.7 -131.2,74.3 45.9,2.5 91.9,-0.4 137.9,-1.2 -15.7,24.8 -35.8,46.2 -55.7,67.6 -58.1,-4.5 -115.6,-14.4 -173.5,-20.8 m 300,-1.4 c 10.6,-89.1 65.4,-163.9 124.3,-228.2 20.4,60.8 -36.8,105 -59.2,155.3 51.7,-16 86.4,-58.4 119.8,-98.3 11.4,0.1 22.8,0.2 34.3,0.2 -18.8,40 -39.1,81.1 -73.6,110 -41.2,34.7 -95.1,46.8 -145.6,61 m 290.4,-6.8 c -3.6,-51.1 -2.2,-102.3 4,-153.1 7.5,1.9 22.4,5.9 29.9,7.9 39.8,-24.7 48.3,-75.8 78.4,-109.5 4.8,19.1 11.3,38.9 5.4,58.5 -13.4,63.3 -46.1,120.6 -80.2,174.8 -6.8,14.9 -24.6,15.8 -37.5,21.4 m -407.5,-176.8 c 36.6,-100.5 131.7,-157.9 214.8,-216.3 21.3,-17.6 49.8,-11.4 75.2,-10.9 -48.1,50.5 -113.7,78.9 -165.3,125.4 54.7,-3.2 102.5,-30.8 150.4,-54.3 1.1,19.3 15.6,43.6 -2,59 -75.3,64.3 -172.7,104.9 -273.1,97.1 m 327.4,-57.9 c 8.8,-58 25.9,-116.5 62.7,-163.2 8.5,-11.7 22.8,-16 35.2,-22.4 -11.1,41.4 -34.3,77.8 -51.3,116.7 45.1,-23.6 69.8,-75.1 121.8,-87.3 -3.5,89.4 -89.6,140.7 -168.4,156.2 m 246.2,-19.2 c -20.5,-73.9 -33.1,-158.5 8.5,-227.9 9,25.7 15,52.1 19.4,78.9 6.2,-0.2 18.5,-0.4 24.6,-0.5 5.4,-29.5 13.5,-59.7 37.6,-79.9 6.8,83.5 -14.6,181.8 -90.1,229.4 M 2081.4,7719.3 c -65,-127.6 -116.2,-264.2 -136,-406.6 22.2,1.5 44.3,3.1 66.5,4.6 49.4,149.1 154.1,270.1 219.5,411.5 28.5,59.7 37.5,127.1 33.7,192.7 -89.6,-35.1 -139.6,-122.3 -183.7,-202.2 m 319.5,100.1 c -111,-104.3 -208.7,-223.7 -284.6,-355.9 -37.8,-71.5 -79.4,-150.7 -64.5,-234.2 4.8,-15.4 5.6,-40.1 26.7,-40.7 105,151.8 150.8,336.1 253.1,489.7 7.9,11.9 19.2,20.7 30,29.7 14.1,-65.9 -7.6,-132.2 -40.6,-188.8 -57.5,-100.6 -123.5,-198.4 -155.2,-311 -3.6,-36.4 1.1,-73.1 8.4,-108.9 58.6,34.6 89.9,97.2 121,154.9 77.2,150.2 131.8,310.9 177.1,473.2 15.4,53.1 25.4,107.7 28.3,163 -36.5,-18.6 -70.3,-42.4 -99.7,-71 m 4866.2,-20.9 c 26.7,-73.6 85.8,-128.8 146.2,-175.8 17.9,-16.4 42.6,-16.1 65.5,-16.6 -42,50.5 -100.4,83.7 -142.4,134.1 60.8,-14.6 101.9,-72.5 167.3,-75.4 1.6,31.5 -6.8,65.4 -33.7,84.5 -57.8,43.7 -134,43.4 -202.9,49.2 m 277.4,-16.9 c -2.6,-81.7 19.4,-163.8 63.3,-232.9 8.4,-14.1 21.7,-23.8 34.5,-33.9 6.1,59.3 -23.2,111.8 -46.6,163.8 57.3,-11.1 66.3,-88.4 119,-102.8 -31.7,84.3 -88.1,164.3 -170.2,205.8 m 228.5,-47.7 c -12.5,-88.4 -6.5,-178.3 -1.1,-267.1 8.6,-3.5 25.9,-10.4 34.5,-13.9 -1.1,32.8 -2.2,65.6 -3.2,98.4 12.1,0 24.3,0 36.7,-0.1 4,-33.8 7.5,-67.6 14.6,-100.9 4.6,13 12.9,25.5 12.2,39.9 -1.7,67.2 -32,128.8 -56.9,189.8 -7.7,20.8 -22,37.9 -36.8,53.9 m -5248.8,-48.1 c -48.1,-48.8 -34.8,-125 -66.8,-182.1 -41,-73.9 -86.5,-148.7 -94.3,-235 15.8,-5.1 31.6,-10.2 47.4,-15.2 113,142.1 192.7,307.1 266.9,471.8 -51.5,-8.4 -109.5,-7 -153.2,-39.5 m 4901.1,-132.3 c 14.9,-70.2 60.5,-129.4 117.9,-170.9 38,-26.2 76.3,-59.3 125.1,-59.5 -22.2,63.7 -85.2,96.5 -128.1,144.3 33.4,-3.4 66.6,-9.4 100.2,-12.8 -23.5,35.2 -57.3,61.9 -93.1,83.5 -36.7,21.8 -81.3,17.5 -122,15.4 m 288,-79.6 c -1.7,-82 14,-167.1 58.1,-237.3 13.8,54.9 -12.3,108.7 -17.5,162.9 10.3,8.3 20.7,16.5 31.2,24.8 -21.6,19.7 -45.4,36.9 -71.8,49.6 m 208.6,3.2 c -14,-68 -24.4,-137.9 -14.3,-207.3 18.4,14.2 37.1,28.1 56.1,41.5 0.9,-33.6 1.3,-67.2 3.3,-100.8 7.1,4.1 21.2,12.2 28.3,16.3 16.1,83.9 -11.5,168.4 -41.4,246.1 -8,1.1 -24,3.2 -32,4.2 M 7787,7391.3 c 2.8,-17.6 6,-35.3 9.5,-52.9 14,3.6 28.1,7.2 42.3,10.7 -16.8,14.7 -34,28.9 -51.8,42.2 m -210.5,-83.9 c 26.4,-108.8 89.5,-224.1 199,-266.2 3.9,83.5 -79.1,125.6 -126.4,181.5 27.5,-8.1 54,-19.2 79.9,-31.6 5,2.4 14.9,7.1 19.9,9.5 -23.1,34.5 -42.4,77 -82.4,94.8 -29.5,7.3 -60.1,8.3 -90,12 M 1866.8,7199.5 c -23.2,-197.2 -110.3,-379.2 -144.2,-574.1 -18.5,-119.4 -17.8,-249.6 45.3,-356.8 12.6,117.1 1.9,235 6.1,352.4 0.2,36.3 20.4,67.7 35.3,99.5 55.8,114 115,230.9 127.3,359.1 6.3,50.5 -20.1,103.1 -69.8,119.9 M 7986,7002.4 c 9.5,3.6 28.7,10.9 38.3,14.5 11.8,-16.6 24.5,-32.8 38.7,-47.6 10,74.5 -3.4,150.1 -26.3,221.1 -44.3,-52.1 -54,-121.9 -50.7,-188 m -155.2,171.5 c -4.5,-83.3 -5.3,-168.1 16.7,-249.3 8.8,0.3 26.5,0.9 35.3,1.2 -3.3,51.6 -10.8,102.8 -13.8,154.4 13.9,5.6 27.7,11.3 41.7,17 -11.3,38.7 -41.3,66.5 -79.9,76.7 M 1965.6,6996.2 c -65.1,-104.9 -101.2,-225.3 -121,-346.5 -20.4,-133.3 -31.3,-270.1 -4.7,-403.4 12.7,5.1 25.4,10 38.1,14.9 3,215.2 66.6,422.5 122.5,628.4 1,20.5 22.9,23 37.4,30.9 9.1,-96.9 -16.1,-191.8 -34.8,-286 -25.1,-121.1 -51.1,-243.7 -45.7,-368.1 65.5,23.8 90.5,95.8 111,156 43.5,155.4 52.1,318 56.9,478.5 5.7,79.8 6.1,159.9 6.9,239.9 -72.1,-24.5 -127.1,-81.3 -166.6,-144.6 m 5690.1,37.2 c 8.1,-19.7 11.8,-44.1 30.4,-57.5 32.3,-23.4 70.8,-35.8 108.1,-48.9 -5.3,34.5 -8,76.3 -39.4,98.1 -31,13.7 -66.3,7.4 -99.1,8.3 m 255.6,-7.7 c 7.6,-30.4 9.8,-65.4 36.8,-86.1 -1.3,28.7 -5.2,57.1 -9.8,85.4 -6.7,0.2 -20.2,0.5 -27,0.7 m -5690,-26.5 c -17.7,-11.6 -42.1,-23.2 -40.5,-48.3 -13.5,-131.1 -30.4,-261.8 -45,-392.8 -6.6,-64.8 -17.4,-129.5 -14.3,-194.9 15.9,12.4 33.2,25.1 40.2,44.9 33.6,81.1 51.1,167.6 70.3,253 25.7,122.1 48,244.9 67,368.2 -26.6,-7.9 -53.8,-15.4 -77.7,-30.1 M 7718,6902.7 c 4.8,-13 9.2,-26.5 15.7,-39 8.6,-21 35.3,-13.9 53.2,-17.7 -13,17.7 -26.5,34.9 -40,52 -7.2,1.2 -21.7,3.5 -28.9,4.7 m 337.2,-202.1 c 12.2,15.8 24,32 35.9,48.2 10,-1.8 20.1,-3.6 30.4,-5.4 -0.2,-27 0,-54.1 3.5,-81 7.5,11.2 16.7,22.7 15.3,37.2 0.7,71.7 3.3,145.3 -17.3,214.8 -46.8,-58.9 -90.6,-136.5 -67.8,-213.8 m -345.5,113.3 c 3.4,-73.1 25.7,-144.1 62.2,-207.4 9.2,0.8 27.5,2.4 36.7,3.2 -14.6,40.6 -35.2,78.6 -57.6,115.3 9.8,0.1 29.4,0.2 39.2,0.2 12.7,-19.6 24.5,-40 39.6,-58.1 22.9,7.4 27.5,31.2 33.7,51.3 -39.5,48 -96.1,76 -153.8,95.5 M 7904,6532.4 c 9.2,9 22.6,16 23.8,30.4 13.2,57.7 10.1,117.4 11.6,176.1 6.5,-3 19.7,-8.9 26.3,-11.9 20.9,-43.5 32.3,-91 49.3,-136.1 6.1,0.9 18.3,2.8 24.4,3.8 1.4,15 6.9,30.3 2.3,45.1 -17.3,71.2 -62.6,132.1 -116.7,180 -26.7,-92.8 -48.4,-192.1 -21,-287.4 m 174.3,-139.3 c 11.3,-4.4 22.6,-8.9 34,-13.4 3.3,9.8 6.7,19.5 10.3,29.2 10.6,-3.3 21.4,-6.7 32.2,-10.1 -0.6,-26.2 -0.9,-52.5 0.1,-78.8 56.7,81.5 44.1,184.8 39.5,278.2 -80.6,-32.8 -106.5,-126.6 -116.1,-205.1 M 7940,6278 c 34.8,35.7 50.1,83.8 53.7,132.5 13.2,4.3 26.2,8.6 39.6,12.6 -8.3,47.4 -17.2,102.8 -65.9,125.9 -11.6,-90 -21.7,-180.3 -27.4,-271 m -161.4,252.4 c 1.8,-27.1 -1.6,-55.8 9.2,-81.5 36,-9.3 69.6,-25 100.8,-45.3 -0.1,17.5 -0.1,35.1 -0.1,52.5 -34,28.6 -69.4,55.7 -109.9,74.3 m 13.8,-96 c 10,-39.6 16.7,-88.8 56.2,-110.6 3.4,43.3 -9.8,96.2 -56.2,110.6 m -4.8,-127.3 c 4.9,-62.7 11.9,-125.5 23.1,-187.5 2.2,-17.4 10.1,-33.2 19.4,-48 9.7,41.3 6.2,83.7 2.7,125.4 39.2,-7 45.7,-51.2 67,-78.2 8.7,9.4 17.4,18.8 26.2,28.2 -10.8,75.4 -67.3,136.2 -138.4,160.1 m 323.1,-127.5 c -19.5,-28.5 -27,-67.3 -6.5,-97.4 13.9,21 26.3,43 38.5,65.1 13.3,1.6 26.8,3.1 40.3,4.5 -5.9,-44.4 -11.8,-88.9 -11.4,-133.9 47.1,78.8 60.6,175 39.5,264.1 -43.3,-22.7 -73.6,-62.8 -100.4,-102.4 M 1674.3,6230 c -3.4,-123.5 4.2,-246.9 9.1,-370.4 11,-170.3 46.8,-340.7 124.2,-493.8 5.9,-0.7 17.7,-1.9 23.6,-2.6 -14.1,61.6 -28.6,123.2 -37.6,185.7 -26,160.2 -10.8,323.4 15,482.5 2.9,22.3 8.4,46 -0.6,67.5 -23.5,59.4 -62.8,125.9 -133.7,131.1 m 234.8,-5.9 c -37.4,-169.6 -93.2,-338.4 -88.6,-514.1 -2.2,-137 42.2,-269.6 97.9,-393.1 3.6,-16.2 21.6,-16 34,-21.7 44.4,224.8 -46.4,446.7 -41.6,671.9 7.5,0 22.5,0 30.1,0 17.1,-151.9 10.1,-305.6 29.5,-457.5 6.4,-44.9 20.7,-88.8 44.3,-127.7 33.4,33.6 37.4,83.8 45.1,128.2 12.7,129.8 -4.3,260.5 -26.8,388.3 -19,110.6 -44.7,220.6 -88,324.3 -9,0.4 -26.9,1.1 -35.9,1.4 m 215.2,-19.5 c -26.9,-48.1 -46.8,-100.2 -55.5,-154.8 -21.5,-125.6 -18.1,-257.2 18.9,-379.7 14.6,-40.4 25,-89 66.2,-111.1 -9.7,-70.3 -19,-140.7 -24.4,-211.6 6.6,0.9 19.8,2.7 26.4,3.6 26,83.7 39.9,171 42.3,258.6 7.4,201.1 -37.6,399.2 -43,599.7 -10.3,-1.5 -20.7,-3.1 -30.9,-4.7 m 5867.1,9.4 c -11.1,-28.4 -20,-57.7 -22.8,-88.2 17.3,-9 34.8,-18 52.4,-27 7.4,-57.3 15.7,-114.6 27.8,-171.3 31,19.1 35.8,54.1 39.8,87.1 -4.4,3.4 -13.3,10.1 -17.7,13.4 -13.6,66.2 -22,141.5 -79.5,186 m -32.1,-130 c -11,-35.8 -10.7,-73.9 -11.4,-111.1 5.3,3.5 15.8,10.5 21.1,14 7.5,36.3 7.2,74 9.2,110.9 -4.8,-3.4 -14.2,-10.3 -18.9,-13.8 m -188.8,-41.1 c 6.7,-81.2 16.2,-162.5 33.7,-242.2 2.2,-17.6 14.8,-30.4 27.5,-41.9 0.3,44.2 -7.3,87.9 -11.3,131.8 11.7,-0.6 23.5,-1.3 35.4,-2.1 12.8,-31.3 25.5,-62.6 39.6,-93.4 16.5,20.9 37.6,45.7 26.1,74.2 -25.8,73.8 -84.2,134.6 -151,173.6 m 296.7,-271.4 c 46.3,20.7 69.9,66.7 90.4,110.1 8.5,-0.8 25.5,-2.4 34,-3.2 -17.7,-67 -61.1,-124.4 -71.7,-193.6 26.3,18.6 50,42.2 62.2,72.6 24.6,60.2 38.2,124.7 44.6,189.4 -83.1,-17.6 -158.5,-86.1 -159.5,-175.3 m -111.5,-19 c 12,-4.7 24.2,-9.4 36.4,-14.2 3.9,-46.5 0.4,-93.3 5,-139.9 15.7,18.9 35.4,36.9 40.2,62.1 12.8,72.3 -4.7,145 -14.2,216.5 -11.7,3.4 -23.2,6.7 -34.7,9.8 -27.1,-39.5 -32.7,-87.5 -32.7,-134.3 m -178.7,-6.8 c -34.9,-88.5 -75,-186.1 -42,-281.6 5.3,0.5 15.9,1.7 21.2,2.3 2.6,47.7 -1,95.5 -9.2,142.5 15.7,3 31.4,5.9 47.2,8.7 9.5,-42.9 11,-89.3 34.4,-127.7 11.1,12.3 26.3,22.1 32.9,37.9 0.5,80 -31.2,158.5 -84.5,217.9 m 249.5,-221.8 c -14.8,-16.1 -9.2,-38 -7.6,-57.5 23,36.5 59.4,61.1 100.2,73.9 -10.4,-55.3 -31.7,-108 -40.3,-163.7 53.9,77.6 85.3,168.8 99.6,261.8 -72.6,3.4 -115.9,-61.7 -151.9,-114.5 m -90.6,36 c -56.3,-82.7 -106.1,-172.9 -122.7,-272.8 49.5,37.5 80.2,92.1 109.8,145.3 18.7,0.4 37.5,0.8 56.4,1.3 -7.4,26 -18.4,50.8 -24.6,77 5.1,12.5 12.8,23.6 19.6,35.1 -12.9,4.9 -25.7,9.6 -38.5,14.1 M 7657,5446.5 c -1.6,-98 -0.5,-199.2 34.4,-292.3 27.5,53.3 12.8,114.4 -2.9,168.8 8.1,0.1 24.2,0.3 32.3,0.5 10.8,-22.4 21.5,-44.8 32.2,-67.3 9.6,7.4 19.4,14.8 29.2,22.1 -10.4,45.9 -18.5,95.8 -52.3,131.1 -18.5,21.6 -46.7,29.6 -72.9,37.1 m 275.4,-47.2 c -2.9,-33.3 -6.6,-66.7 -8.6,-100.2 45,17.8 37,73.6 53.3,110.9 -15,-3.5 -29.9,-7 -44.7,-10.7 m -5748.6,-82.1 c -10.9,-35 -6.3,-73.1 1.9,-108.3 41.6,-144.9 139.8,-264.8 188.3,-407 11.7,1.5 23.4,2.5 35.2,2.8 31.6,-25.5 35.3,-69 55.3,-102.2 -28.4,233.9 -179,430.9 -221,661.5 -22.8,-10.8 -51,-20.2 -59.7,-46.8 m 5787,-83.7 c -63.5,3 -127,1.6 -190.5,2.7 -22.5,0.2 -45.3,3.9 -67.2,-2.7 84.9,-0.5 170.1,3.9 255.1,-1.2 -26.1,-36.9 -47.3,-78.1 -49.6,-124.2 25,19.7 45.9,43.7 67.8,66.6 12.6,14.2 34.5,7.8 51.1,12 -16.4,-32.6 -34.7,-64.2 -51.8,-96.3 4.6,-6.2 14,-18.4 18.6,-24.5 19.2,17.5 36.8,37.2 47.3,61.3 29.3,64.7 53.3,132.2 66.9,202 -56.2,-19.7 -105.9,-53.7 -147.7,-95.7 m -5960.2,47.2 c -5.1,-80.2 -2.9,-160.7 4.9,-240.6 13.3,-160.3 60.6,-323.8 166.5,-448.3 35.9,-40.5 73.3,-83.1 123.6,-106.1 0.2,20.7 4,42.9 -7.2,61.6 -72.6,139.5 -147.3,279.9 -189.3,432.3 -14.1,50.9 -16.2,104.4 -9.8,156.6 23.1,-54.1 41.3,-110 62.9,-164.7 56.1,-146.3 125.5,-286.9 189.3,-429.9 7.8,-1.2 23.5,-3.7 31.3,-5 7.9,143.6 -43.7,281.9 -109.2,407.1 -70,132.5 -153.9,257.3 -242.8,377.7 -12.1,-10.6 -22.2,-23.6 -20.2,-40.7 m -226.1,-52 c 8.9,-36.6 20.4,-72.5 34.2,-107.6 69.7,-178.4 156.5,-349.4 246.1,-518.5 6.7,-1.1 20,-3.1 26.7,-4.1 -59.5,149.7 -63.1,314.1 -116.7,465.3 -28,84.8 -103,147.9 -190.3,164.9 m 6049.3,-29.9 c -73,-88.1 -151,-187.6 -147.4,-308.5 24.7,19.4 47.2,41.4 66.2,66.4 -1.8,36.2 14.5,68.6 31.6,99.3 12.6,1.9 25.3,3.7 38.1,5.4 -3.7,-40.7 -7.7,-81.6 -6.2,-122.7 68.6,68.5 57.7,172.7 57.8,261.3 -13.5,-0.3 -26.9,-0.7 -40.1,-1.2 m -224.7,-30 c -22.6,-107.9 -61.2,-214.9 -60.6,-326.2 17.6,41.8 23.9,86.9 34.4,130.6 19.8,-3.8 39.6,-8.5 60,-10 65.3,50.3 32,141.1 2,202.1 -12,1.2 -23.9,2.4 -35.8,3.5 m 189,-368.3 c 29.6,7.3 59,15.8 88.2,25.1 -16.5,-47.5 -41.5,-91.6 -53.4,-140.7 89.8,78.4 132.3,193.8 168.3,304.1 -95,-22.8 -170.2,-97.9 -203.1,-188.5 m -412.7,-164 c 28.2,27.8 66.8,37.3 104.1,46.2 8.4,61.1 10.1,122.9 7,184.4 -6.9,2.3 -20.5,6.8 -27.4,9 -32.4,-78.1 -77.9,-153.2 -83.7,-239.6 m 222.3,105.8 c -25.3,-37 -63.5,-69.9 -64.5,-118.1 24.1,11.9 48.4,25.4 65.3,46.9 22.4,24.8 37.3,60.6 73.5,68 -0.5,-30 -1.6,-60 -0.3,-90.1 9.8,10.3 24.3,17.7 29.3,31.9 21.5,55.8 32.9,115.2 37.5,174.8 -59,-20 -105.2,-63.7 -140.8,-113.4 m 95.8,-154.9 c -44.8,-31 -79,-77.5 -86.6,-132.4 34.8,25.8 68.1,55.9 111.7,65.7 -22.7,-49.4 -59.2,-92.4 -70.7,-146.6 24.3,14.2 48.1,29.9 67.3,50.7 62.1,66.1 113.3,143.5 143.7,229.3 -60.1,-6.5 -117,-31.1 -165.4,-66.7 M 2556.6,4574 c -2.2,-58.2 -3.5,-117.8 14,-174.1 17.1,-58.8 55.1,-108.3 94.8,-153.9 54.9,-63.1 110.7,-125.8 156.4,-196.2 6.4,-0.1 19.3,-0.4 25.8,-0.6 -10.5,24 -18.2,49.2 -22.4,75 21.9,-22.3 39.8,-48.2 55.9,-74.9 -66.5,154.8 -138.2,308.9 -235.7,446.9 -22.2,33.4 -52.6,60.4 -88.8,77.8 m 4845.7,-214.2 c 34,47.6 64.7,103.7 124.4,122.5 -27.5,-60.7 -62.5,-120.3 -66.2,-188.6 74.1,70.1 120.3,168.4 124.3,270.6 -89.6,-31.8 -176.1,-103.1 -182.5,-204.5 m -199,-27.7 c 14.5,0.4 29.1,0.7 43.8,0.9 4.9,28.1 9.9,56.1 15.2,84 13.2,1.9 26.5,3.8 39.9,5.5 -10,-39.5 -20.1,-79 -23.4,-119.8 39,5 50,46.7 60.4,78.2 17,54.1 5.4,114 -29.3,158.6 -34.7,-69.6 -73.4,-137.1 -106.6,-207.4 m -5027.4,180.5 c 24.2,-23.5 50.3,-44.9 76.5,-66.1 9.1,7.4 18.1,14.6 27,22 -33.9,16.1 -67.8,32.5 -103.5,44.1 m 190.7,-70.8 c 21.4,-130 58.5,-261 134.8,-370.2 75.3,-109.8 180.2,-194.2 284.8,-274.5 18.4,-17.2 44.3,-16.1 67.6,-18.5 -107.7,137.3 -224.1,267.6 -330.7,405.8 -10,13.9 -16.1,30.4 -23.1,45.6 21.3,-11 42.3,-23.3 59.5,-40.2 121.7,-118.6 210.7,-266.5 335.5,-382.2 6.3,16.3 15.4,33.4 9.7,51.1 -13.7,54.7 -49.3,100.3 -81.4,145.4 -93,121.7 -199.7,232.7 -313.5,335.1 -44.6,38.1 -87.2,81.4 -143.2,102.6 m 4749,-117.4 c -21,-30.1 -27.4,-67.1 -29.8,-103 12.2,-17.9 19.5,-38.3 22,-59.9 16.9,23.3 37.7,43.9 51.3,69.3 17.2,38.2 14.2,81.3 14.6,122.1 -19.5,-8.4 -46.7,-7.7 -58.1,-28.5 m -4966.7,-6.3 c 58.2,-87 155.8,-137 219.4,-219.3 42.7,-65.8 71.5,-139.7 115.5,-204.9 38.6,-60 91.1,-110.7 151.7,-148.2 36.6,-22 74.8,-45.9 118.9,-47 -53.9,52.5 -120,91.3 -169,149.3 56.4,-21 89.4,-76.8 144.6,-99.8 26.1,-12 55.3,-13.9 83.7,-15.2 -24.5,46 -73.8,67.8 -113.8,97.5 -45.9,33.5 -98.4,60.2 -134.8,104.8 -90.6,113.3 -154.9,247.9 -262.4,347.4 -40.2,36.8 -101.9,69.4 -153.8,35.4 m 5243.5,-161.9 c 41,17.5 83.1,34.1 128.1,37.4 -37.7,-32.6 -86.1,-59.9 -97.8,-112.6 116,41.7 181.1,152.7 262.1,237.9 -116.7,17.5 -264.5,-35.9 -292.4,-162.7 m -207.2,-2.3 c -21,-16.2 -30,-41.6 -37.4,-66.1 28.9,2.2 59.1,4.7 84.5,20.2 63.7,36.8 119.5,94.4 136.8,167.9 -66.3,-32.3 -128.2,-73.8 -183.9,-122 m 115.3,-3.1 c -21.5,-31.9 -37.8,-67.2 -45.3,-105.1 35.7,25.3 65.3,59.1 78.6,101.4 -8.3,0.9 -25,2.7 -33.3,3.7 m -389.3,-61.5 c -71.3,-67.8 -142.3,-151.5 -142.9,-255.5 40.4,38.8 68.1,87.9 91.4,138.2 10.7,3.9 21.5,7.7 32.4,11.4 -9.9,-41.7 -20.1,-83.4 -24.8,-126.1 12.2,5 24.6,9.8 37.1,14.2 44.4,68.7 62,151.1 60.2,232.1 -17.8,-4.1 -39.7,0.1 -53.4,-14.3 m 319.4,-110.7 c -0.4,-7.8 -1.3,-23.5 -1.7,-31.4 38.3,14.5 77.8,25.7 118.8,28.7 -41.4,-45.7 -99.5,-78.5 -121.3,-139.4 99.3,39.3 166.4,126.6 237.7,201.8 -83.2,12.9 -163.1,-18.7 -233.5,-59.7 M 6981.9,3917 c 9,-6.4 18.1,-12.9 27.4,-19.4 22.4,27.9 46.4,59.2 86.8,55.9 -20.9,-51.9 -55,-97.8 -70.9,-151.9 91.8,39.4 151.1,130.1 169.1,226.2 -82.5,-9.1 -148.4,-63.1 -212.4,-110.8 m -3945.4,63.2 c 7.4,-85 24.9,-181.2 97.9,-235.5 71.3,-51.8 158.5,-74.1 236.4,-113.7 27.4,-17.8 56.3,0.2 82.3,11.1 -72.2,75.4 -149.8,145.3 -229,213.2 -57.6,48.4 -116.8,97.2 -187.6,124.9 m 3500,-299.1 c 18.7,20.6 34.7,43.4 48.8,67.3 12,1.8 24,3.5 36.1,5.1 0.9,-17.9 2,-35.9 3.3,-53.9 27,13.8 53.8,30.2 72.1,55.1 8,38.3 -7.7,76.9 -18.5,113.3 -91.8,-8.5 -137.7,-104.8 -141.8,-186.9 m 593.3,117.5 c -52.9,-14.9 -104,-36.5 -158.7,-44.1 0,-6.3 -0.1,-18.9 -0.2,-25.2 54,4.4 107.4,14.8 161.5,18.8 -48.5,-32.7 -102.6,-55.3 -154.7,-81.3 3.3,-11.4 6.8,-22.8 10.4,-34.4 67.1,17.3 137.7,32.1 194,75.3 33.5,26.6 75.5,53.6 80.4,100.2 -44.3,2.2 -89.7,3.1 -132.7,-9.3 m -404.5,-83.8 c -17.2,-18.5 -43.3,-35.2 -45,-62.7 33,-11.5 57.5,18.7 81.4,35.9 23.1,21.1 51.8,34.3 81.8,42.2 -27.8,-53.4 -65.2,-101.1 -92.2,-155 31.8,10.1 57.9,31.4 70.7,62.6 26.4,16.9 55.5,31 76.7,54.6 8.6,16.4 6.7,36.2 12.9,53.3 9.6,13 21.4,24.2 32.5,35.9 -25.9,13.2 -54.7,26.4 -84.3,17.8 -52.5,-12.9 -94.4,-50.3 -134.5,-84.6 M 2918,3769.7 c 30.1,-114.4 110.5,-204.8 192.3,-286.3 -99.5,60.8 -204.9,117.9 -321.9,134.6 -0.1,-8.8 -0.2,-26.4 -0.2,-35.3 146.4,-94.8 282.2,-206.6 438.1,-286.4 35.1,-17.2 71.2,-41 112.3,-31.2 -16.4,33.1 -40.4,61 -64.3,88.7 43.3,-26.9 85.9,-55.4 131.2,-78.8 44.1,-21.2 94.5,-6.3 138.7,7 -5.8,14.2 -7.2,32.2 -22.5,39.8 -138.4,89.1 -277.2,178.7 -404.7,283.2 24.3,-6 48.6,-13.8 69.5,-28.1 81.5,-54.3 154.9,-119.7 236.4,-174 50.7,-32.8 108.1,-71.7 171.7,-55.4 -127.7,142.1 -261.8,291.8 -444.2,362.7 -75.1,27.5 -151.9,55.2 -232.4,59.5 m 3418.2,-245.5 c 16.3,18.2 27,40 37.4,61.8 22,0.1 40.1,-7.1 46.1,-30.6 20.3,10.5 40.5,21.6 60.1,33.5 5.7,44.4 9.3,89.5 2.9,134 -92.8,-13.7 -138.7,-114.8 -146.5,-198.7 m 475.1,43.9 c -26.4,-17.2 -58.9,-30 -71.1,-61.7 35.7,3.2 74.5,17.4 108,-2.6 -27.3,-12.1 -56,-20.5 -84.5,-29 -0.6,-7.1 -1.8,-21.3 -2.5,-28.4 111.1,9.9 208.2,73.8 284.9,151.3 -44.2,11 -89.6,24.1 -135.5,17.2 -36.7,-6.2 -67.9,-28.2 -99.3,-46.8 m -361.1,-37.4 c -51.2,-25.4 -82.5,-77.1 -99.5,-129.9 67.1,16.8 110.1,79.2 178,93.8 -19,-49.9 -61.1,-87.7 -72.6,-140.9 45.3,7.1 94.3,18.6 125.7,54.8 37.8,45.3 52.9,104.3 63.5,161.1 -66.1,-4.3 -134.7,-9.2 -195.1,-38.9 m -208.1,-5.1 c -7,-14.1 -13.9,-28.3 -20.6,-42.6 -7.6,0.5 -22.8,1.6 -30.4,2.1 -1.1,-10.1 -2.1,-20.3 -3,-30.7 10.5,4 21.1,8 31.8,11.8 19.8,23.9 54.3,29.6 69.9,57.4 -16,1.1 -31.9,1.6 -47.7,2 M 4191.2,3375.3 C 3863.5,3298.1 3543,3184.5 3247,3023.2 c -101,-57.6 -203.7,-115.4 -293.2,-189.7 6.8,-81.5 49.7,-153.8 81.2,-227.7 143.6,-297.8 313.4,-582 478.2,-868.3 47,15 84.6,47.9 127.4,71 307.4,176.1 651.1,282.5 1000,337 374.1,56.4 759.2,55.1 1129.5,-26.4 254,-56.4 502,-152.7 714.9,-304.1 28.7,-19.4 53.7,-44.4 85,-59.9 29.7,-2.2 56.3,17.8 74.6,39.5 12.4,23.9 12.9,51.8 21.7,77 24,73.6 68.1,138.3 110.7,202.2 17,23.9 23.7,52.8 34.5,79.6 1.4,17.7 1.7,36.5 13.2,51.1 27.5,40.5 57.4,79.8 77.4,124.8 -3.7,8 -7.4,15.9 -11,23.7 64.1,53.2 79.2,139.7 120.9,208.3 0.3,6.7 0.8,20.1 1.1,26.7 5.2,0.8 15.7,2.3 20.9,3 34.2,67 51.7,141.8 96.2,203.5 -196,224.1 -453.7,387.7 -728.9,497.1 -281.1,111.4 -581.2,170.2 -881.9,193.8 -445,33.5 -894.4,-7.5 -1328.2,-110.1 m 2404.5,17.1 c 0.2,-9 0.6,-26.9 0.7,-35.9 33,6.2 66.2,10.3 99.7,12.7 -22,-15.8 -44.7,-30.9 -67,-46.2 -0.4,-8.8 -1.3,-26.4 -1.7,-35.2 92.5,9.6 198.8,39.2 244,129 -92.5,3.4 -184.7,-8.5 -275.7,-24.4 m 600.8,-1437.1 c 65.1,-10 116.9,-54.9 180.2,-69.5 185.4,403.9 372.5,807 558.3,1210.6 23.4,48.9 17.6,116.8 -29.3,149.8 -62.1,43.3 -140.2,48.5 -212.5,60.6 -164.3,-451 -334.4,-899.8 -496.7,-1351.5 M 2131.4,3038.9 c 16.6,-46.1 45.3,-86.8 66.8,-130.7 186.1,-344.9 369.9,-691.1 557.4,-1035.3 59.1,34.2 119,70.1 187.2,82.5 -15.4,45.1 -36.8,87.7 -56.3,131 -172.4,377.8 -346,755.1 -516.9,1133.6 -109.7,0.5 -194.8,-88.1 -238.2,-181.1 m 5278.9,11.3 c -35.6,-44.9 -55.4,-99.5 -80.3,-150.5 -198.4,-431.1 -400.8,-860.3 -596.6,-1292.6 41.6,-25.2 91.5,-16.2 137.3,-11.3 106.9,14.6 208.2,53.7 309.9,88.1 2,6.8 6.1,20.6 8.1,27.5 -59.7,32.2 -128.4,67.9 -152,136.3 -14.5,55.4 21.2,105.8 40.3,155.3 79.4,195.9 152.6,394.2 230.3,590.8 46.3,93.3 72,194.6 107.3,292.2 19,61.5 45.8,121.1 55.6,185.1 -20.7,-4.1 -47.2,-0.2 -59.9,-20.9 m -4825.6,10.4 c 15.5,-53.3 39.7,-103.4 61.1,-154.5 143.8,-337.4 300.9,-669 444.7,-1006.4 23.4,-42.3 0,-90.2 -22.4,-127.6 -32.4,-51 -89.9,-75.8 -144.9,-94 11.3,-13.6 22.9,-28.2 40.5,-33.9 89.5,-36.3 181.8,-67 276.7,-85.9 53.4,-11 107.5,9 149.3,41.8 -217.8,442.1 -433.7,885.1 -651.3,1327.3 -29.9,63.3 -82.9,119 -153.7,133.2 M 2813,1788.3 c 0.7,-19.8 1.4,-39.6 2.2,-59.6 52.1,5.7 107.3,13.6 150.5,45.9 32.5,26.5 29.9,72.7 31.9,110.5 -72.6,-4 -137.3,-43.3 -184.6,-96.8 m 4333,89.3 c -0.2,-17.3 0,-34.6 0.1,-52.2 23.5,-19.9 47.4,-41.6 78,-49.6 37.4,-8.5 76.9,-2.4 111.8,12.8 -13.1,32.8 -29.2,68.1 -62.1,85.1 -39.8,19.8 -86,10.1 -127.8,3.9 M 4399.4,8231.7 c 10.9,24.1 40,16.8 60.3,12.1 5.6,-49.4 23.2,-98.9 60.7,-133.2 84.7,-84.2 236.4,-86.7 323.5,-4.9 23.3,20.2 39.8,50.2 71.9,57.6 46.5,-56.8 106,-116.7 184.8,-117.1 60.1,-4.6 116.1,25.5 159.2,65.1 46.6,39.9 81.5,90.6 119.5,138.3 12.5,-0.1 25.1,-0.3 37.7,-0.6 23.2,-111.8 11.4,-247.5 -81.3,-325.8 -84.7,-66.9 -204.3,-52.1 -298.6,-15.4 -43.3,15.7 -68.4,70.9 -118.3,66.6 -39.4,-24.2 -62.8,-68.1 -104.6,-89.4 -76.6,-39.8 -173.4,-30.8 -246.8,12.2 -73.3,39.4 -145.7,97.3 -168.8,180.8 -12.5,50 -13.3,104.1 0.8,153.7 m 484.8,-375.3 c 15.8,9.7 35.3,30 52.6,11.6 70.6,-49.5 139.5,-101.5 209.2,-152.2 23.1,-13.5 27.1,-41.7 27.1,-66.1 -0.8,-813.1 -3.3,-1626.2 -0.7,-2439.3 252.7,228.7 476.3,496.3 620.8,807 155.2,330.9 212.9,716.9 114.8,1072.8 -26.6,111.3 -89.3,208.4 -137.3,311 -77.6,157.8 -159.6,313.5 -234,472.8 268.2,-228.4 486.6,-521.8 602.3,-856.3 122.8,-348.9 125.8,-739.1 5.3,-1089.1 -108.4,-320.7 -312.4,-604.5 -566.7,-826 -76.7,-67.4 -159.3,-127.8 -243.3,-185.7 39.9,-50.1 107.2,-60.1 166.2,-71.9 122,-20 245.9,-25.3 369.3,-29.5 83.3,-3.7 167.1,3.2 249.9,-8.5 -168.6,-89 -361,-121.1 -549.9,-126 -142.4,-10.1 -284.9,6.3 -427.2,10.6 -41,-70.7 -83.2,-140.6 -123.6,-211.7 -7.5,-22.2 -43.8,-27.2 -55.7,-7.2 -51.8,72.9 -92.9,153 -146.3,224.6 -48.7,3.3 -97.3,-9.7 -146.1,-11.3 -182.1,-18.2 -368.1,-14.4 -546.3,29.8 -85.3,21.1 -169,49 -249.5,84.1 192.9,-14.4 389,-15.2 579.3,24 55.5,11 111.6,28.6 155,66.6 -141.5,79.1 -271,178.8 -386.2,292.7 -14.8,15 -28.3,31.3 -41.5,47.6 155.8,8.8 311.9,0.3 467.8,4.3 -157.7,-1 -315.6,4 -473.2,-2.8 -239,261.2 -406.3,588.5 -473.1,936.5 -66.9,343.9 -31.3,710.2 119.3,1028.1 117.7,253.1 305.7,469.7 528.1,636.7 -171.3,-285.6 -299.1,-602.6 -333.3,-935.9 -40.2,-373.2 43.4,-756.5 227.3,-1083.1 130.9,-235.5 307,-443.5 504.5,-625.7 1.6,163.8 -10.3,327.2 -11.6,490.9 -9.5,123.2 -3.2,246.9 -13.3,370 -3,273.8 -19.2,547.4 -21.7,821.3 -14.8,277.8 -14.7,556.1 -28.9,834 67.7,53.8 141.2,99.8 210.6,151.3 m 809.6,-4.3 c 336.5,-57.9 651.4,-235.7 872.9,-495.8 196.8,-230.5 317.7,-523.8 342.3,-825.8 20.5,-228.8 -14.1,-461.3 -91.7,-677.1 -27.1,-78.4 -60.3,-155.5 -108.1,-223.7 -88.3,-134.3 -189.3,-261.2 -308.7,-369.3 -83.3,-73.4 -174.4,-139.8 -277.7,-182.2 -0.7,8.3 -2.1,24.8 -2.8,33 209,264.2 350.7,583.3 394.4,918.1 53.7,388.4 -23.5,792.1 -209,1136.8 -146.4,272.6 -359.3,507.7 -611.6,686 M 4004,7795.9 c 51.4,17.7 104.1,44.2 159.9,31 -12.8,-17.2 -27.3,-33.1 -43.6,-47 -229.4,-197.9 -427.9,-436.4 -558.9,-710.9 -95.7,-199.8 -153.5,-417.5 -167.2,-638.7 -27.4,-417.1 103.3,-829.8 305.2,-1190.8 33.1,-65.4 91.3,-114.4 120.2,-182.4 -138.5,53.5 -260.8,142.7 -364.6,247.9 -131.3,131.2 -235.5,287.6 -316,454.4 -34.5,71 -67.9,143.3 -86.9,220.2 -43.9,186.5 -59,380 -41.7,570.9 24.2,267.4 123.7,528 287.7,740.9 179.3,232.8 431.6,403.2 705.9,504.5 m 921.7,-4752.1 c 128.2,89.7 240.7,198.8 353,307 15.4,-0.8 30.9,-1.6 46.4,-2.7 -6.6,-40.3 -7.2,-92.2 -47.5,-115.2 -71.2,-43.5 -129,-104.4 -190.5,-160 C 4974.8,2966.5 4857.5,2863.6 4723.8,2784.6 4570.7,2694 4397.3,2634 4219,2624.2 c -123.7,-3.9 -247.3,-0.3 -371,0.3 -18,-45.4 -34.7,-98 -80.5,-123.1 -41.7,-25.4 -92.3,-17.3 -138.6,-20.1 -27.1,-0.3 -48.5,-19.1 -70.4,-32.6 -7.4,6.9 -14.7,13.6 -22,20.3 18,61.7 42.6,130 102.4,162.6 41.6,26.5 92.9,11.1 138.2,22.2 51.6,23.1 82.3,74 107.1,122.3 189.2,-3.9 383.6,-17 567.1,39.4 167.8,53.1 330.7,125.8 474.4,228.3 m 1257.8,-96.9 c 108.4,78.4 238.2,129 372.3,136.7 -109.1,-83.2 -248.9,-110.5 -359.4,-190.7 -87.4,-65.6 -118.5,-176.6 -132.6,-280 29.7,-2.3 59.6,-3.4 89.5,-4.4 -3.6,-41.1 -20.1,-82.7 -55.2,-106.9 -29.6,-25.2 -69.4,-28.4 -106.5,-30.5 -21.1,18.3 -51.3,36.5 -46.8,69 3.9,51 38.3,92.5 51.6,140.9 -75.4,-27.3 -154.7,-43.4 -234.9,-47.2 -151.5,-7.2 -306.3,0.8 -451.7,47.1 -70,23.4 -146.6,59.5 -177.4,131.3 -25.2,60.2 12.4,121 43.6,170.8 16.4,0.3 33,0.4 49.5,0.6 8.3,-76.6 71,-131.1 138.3,-159.4 161.8,-69.3 341.5,-80.4 515.5,-75.3 48.7,4.1 105.2,2.1 143,38.4 55.3,51.6 99.6,114.7 161.2,159.6 m -575.1,55.2 c 21.4,27.2 58.7,10.8 86.8,6.9 -13.2,-31.4 -28.9,-61.7 -44.2,-92.1 -35.4,-5 -70.9,-8.6 -106.6,-9.3 9.5,38.2 39.8,65.3 64,94.5 m 616.5,-162 c 35.2,29 74.1,70.3 124.5,59.4 22.6,-16.1 25.3,-46.2 33.4,-70.7 -31.1,-21 -62.4,-51.3 -102.9,-47.8 -23.3,14.4 -39.2,37.5 -55,59.1 m 190.2,-155.7 c 46.1,61.8 97.9,124.3 171.2,154.4 -35.6,-85.6 -101.7,-154.7 -134,-242.1 -16.2,-38.6 -21,-80.5 -21.9,-122.1 29.2,-0.3 58.3,0 87.6,0 -28.2,-62.6 -74.4,-120.7 -139.4,-147 -24.5,-9.6 -49.1,9.7 -61.8,29.3 -21.5,31.8 -19.2,72.6 -10.9,108.2 19,80.4 61.2,153 109.2,219.3 m -2535.8,-294 c 15.7,25.5 29.5,52.7 51,74 37.7,5.2 81.9,-15.5 93.4,-53.7 -8.2,-32.1 -26.6,-60.1 -41.8,-89.3 -35.8,-3.4 -71.1,4.2 -105.8,12.5 -1.4,-10.1 -2.8,-20.4 -4.2,-30.8 33.6,-10.1 67.9,-17.8 102.2,-25.1 -2.5,-37.7 -4.4,-77 -21.7,-111.6 -3.2,-11.6 -10.8,-16.3 -22.6,-13.9 -24.3,3.2 -46.8,13.9 -69.7,22.1 5,24 10.3,47.9 16,71.6 -42.2,6.5 -83.2,18.1 -123.1,32.6 5,44.4 24.8,84.5 47.1,122.4 26.4,-3.2 52.8,-6.8 79.2,-10.8 m 2374.4,-130.7 c 17.9,-1.6 36,-3.3 54.1,-5.2 10.2,-29.7 15.7,-60.7 17.1,-92.2 -32.4,-15.4 -65.7,-28.8 -99.7,-40.1 -24.1,21.7 -45.5,46.8 -56.4,77.8 30.2,17 59.1,36.4 84.9,59.7"
         style="fill:#4f4f4f;fill-opacity:1;fill-rule:nonzero;stroke:none"
         id="path42" /></g></g></svg>
