<?xml version="1.0" encoding="UTF-8" standalone="no"?>
<svg
   xmlns:dc="http://purl.org/dc/elements/1.1/"
   xmlns:cc="http://creativecommons.org/ns#"
   xmlns:rdf="http://www.w3.org/1999/02/22-rdf-syntax-ns#"
   xmlns:svg="http://www.w3.org/2000/svg"
   xmlns="http://www.w3.org/2000/svg"
   xmlns:sodipodi="http://sodipodi.sourceforge.net/DTD/sodipodi-0.dtd"
   xmlns:inkscape="http://www.inkscape.org/namespaces/inkscape"
   version="1.1"
   id="svg4387"
   xml:space="preserve"
   width="1398.6667"
   height="793.33331"
   viewBox="0 0 1398.6667 793.33331"
   sodipodi:docname="shahr.svg"
   inkscape:version="1.0.1 (3bc2e813f5, 2020-09-07)"><sodipodi:namedview
     pagecolor="#ffffff"
     bordercolor="#666666"
     borderopacity="1"
     objecttolerance="10"
     gridtolerance="10"
     guidetolerance="10"
     inkscape:pageopacity="0"
     inkscape:pageshadow="2"
     inkscape:window-width="1848"
     inkscape:window-height="1009"
     id="namedview3315"
     showgrid="false"
     inkscape:zoom="0.76508705"
     inkscape:cx="699.33337"
     inkscape:cy="396.66666"
     inkscape:window-x="72"
     inkscape:window-y="34"
     inkscape:window-maximized="1"
     inkscape:current-layer="svg4387" /><metadata
     id="metadata4393"><rdf:RDF><cc:Work
         rdf:about=""><dc:format>image/svg+xml</dc:format><dc:type
           rdf:resource="http://purl.org/dc/dcmitype/StillImage" /><dc:title /></cc:Work></rdf:RDF></metadata><defs
     id="defs4391"><clipPath
       clipPathUnits="userSpaceOnUse"
       id="clipPath4403"><path
         d="M 0,595 H 1049 V 0 H 0 Z"
         id="path4401" /></clipPath></defs><g
     id="g4395"
     transform="matrix(1.7934728,0,0,-1.7934728,-215.01802,936.13054)"><g
       id="g4397"><g
         id="g4399"
         clip-path="url(#clipPath4403)"><g
           id="g4405"
           transform="translate(830.7489,388.5632)"><path
             d="m 0,0 c 9.113,0 16.51,-7.394 16.51,-16.515 0,-9.122 -7.398,-16.516 -16.51,-16.516 -9.127,0 -16.524,7.394 -16.524,16.516 C -16.524,-7.394 -9.127,0 0,0 m 38.442,10.84 c 9.129,0 16.521,-7.395 16.521,-16.516 10e-4,-9.123 -7.392,-16.517 -16.522,-16.517 -9.114,0 -16.511,7.394 -16.511,16.517 0,9.121 7.397,16.516 16.511,16.516 z m -73.671,-27.739 c 9.122,0 16.517,-7.396 16.517,-16.521 0,-9.119 -7.395,-16.516 -16.517,-16.516 -9.122,0 -16.519,7.397 -16.519,16.516 0,9.125 7.397,16.521 16.519,16.521 m 34.875,-103.317 0.252,26.098 c 1.094,0.051 12.106,0.48 18.876,-2.896 2.479,-1.234 2.735,-2.826 2.73,-4.511 -0.004,-7.836 -21.395,-19.023 -23.498,-20.084 -27.088,-13.674 -65.287,-15.999 -65.287,-15.999 l 0.359,-28.691 c 16.343,2.242 45.831,5.54 81.414,24.613 17.6,9.436 36.648,24.967 33.096,47.197 C 44.154,-73.043 21.452,-67 0.073,-67.926 l -0.252,-26.099 c -1.082,-0.053 -12.103,-0.483 -18.873,2.892 -2.481,1.234 -2.73,2.826 -2.73,4.512 0.002,7.837 21.39,19.024 23.495,20.082 27.091,13.678 65.285,16.003 65.285,16.003 l -0.358,28.69 c -16.349,-2.245 -45.832,-5.54 -81.413,-24.613 -17.602,-9.434 -36.645,-24.967 -33.088,-47.197 3.432,-21.451 26.133,-27.489 47.507,-26.56"
             style="fill:#ed1c24;fill-opacity:1;fill-rule:evenodd;stroke:none"
             id="path4407" /></g><g
           id="g4409"
           transform="translate(333.6946,236.4592)"><path
             d="M 0,0 C 0.545,0.404 1.072,0.79 1.59,1.146 2.11,1.508 2.545,1.915 2.905,2.364 3.262,2.811 3.57,3.297 3.819,3.81 4.062,4.331 4.181,5.043 4.181,5.939 4.182,6.75 4.044,7.561 3.75,8.368 3.453,9.186 3.041,9.911 2.507,10.563 c -0.552,0.654 -1.21,1.191 -1.998,1.622 -0.789,0.428 -1.656,0.642 -2.603,0.642 H -18.02 v -27.005 h 15.187 c 2.248,0 4.121,0.654 5.603,1.962 1.44,1.301 2.16,3.014 2.16,5.128 C 4.93,-3.713 3.29,-1.351 0,0 m -8.165,-2.799 c 0.266,-0.029 0.573,-0.06 0.91,-0.103 0.342,-0.045 0.686,-0.1 1.051,-0.171 0.36,-0.067 0.692,-0.145 1.011,-0.233 0.673,-0.228 1.233,-0.552 1.681,-0.98 0.455,-0.428 0.678,-1.047 0.678,-1.853 10e-4,-0.183 -0.054,-0.466 -0.163,-0.849 -0.116,-0.381 -0.329,-0.752 -0.642,-1.113 -0.089,-0.133 -0.217,-0.236 -0.377,-0.305 -0.155,-0.069 -0.316,-0.136 -0.471,-0.202 -0.161,-0.067 -0.349,-0.124 -0.571,-0.166 h -5.538 V 7.423 h 5.538 c 0.222,-0.088 0.41,-0.157 0.571,-0.202 0.156,-0.045 0.316,-0.114 0.471,-0.2 0.16,-0.09 0.288,-0.192 0.377,-0.304 0.086,-0.115 0.166,-0.229 0.232,-0.34 0.066,-0.11 0.144,-0.234 0.235,-0.366 0.181,-0.272 0.284,-0.522 0.308,-0.743 0.022,-0.225 0.03,-0.385 0.03,-0.475 C -2.833,3.982 -3.058,3.363 -3.512,2.932 -3.96,2.507 -4.52,2.181 -5.193,1.959 -5.512,1.819 -5.844,1.72 -6.204,1.653 -6.569,1.591 -6.913,1.532 -7.255,1.484 -7.592,1.441 -7.899,1.422 -8.165,1.422 h -0.611 v -1.893 -2.295 c 0.135,0 0.339,-0.015 0.611,-0.033"
             style="fill:#ed1c24;fill-opacity:1;fill-rule:evenodd;stroke:none"
             id="path4411" /></g><g
           id="g4413"
           transform="translate(359.7462,249.2863)"><path
             d="m 0,0 h -3.785 l -10.057,-27.005 h 7.965 l 5.877,15.46 2.425,-7.561 1.489,-4.724 1.011,-3.175 h 8.639 L 3.77,0 Z"
             style="fill:#ed1c24;fill-opacity:1;fill-rule:evenodd;stroke:none"
             id="path4415" /></g><g
           id="g4417"
           transform="translate(400.6172,237.0656)"><path
             d="m 0,0 -8.644,12.221 h -7.423 v -27.005 h 7.562 V -2.899 L 0.137,-14.784 H 7.558 V 12.221 H 0 Z"
             style="fill:#ed1c24;fill-opacity:1;fill-rule:evenodd;stroke:none"
             id="path4419" /></g><g
           id="g4421"
           transform="translate(446.562,249.2863)"><path
             d="m 0,0 h -8.78 l -8.773,-10.529 V 0 h -7.424 v -27.005 h 7.291 v 13.502 l 9.588,-13.502 h 9.45 l -10.403,15.258 z"
             style="fill:#ed1c24;fill-opacity:1;fill-rule:evenodd;stroke:none"
             id="path4423" /></g><g
           id="g4425"
           transform="translate(489.7617,237.8054)"><path
             d="m 0,0 c -1.529,0.678 -3.151,1.175 -4.863,1.487 -0.853,0.18 -1.676,0.362 -2.458,0.54 -0.786,0.18 -1.544,0.361 -2.262,0.544 -0.225,0.043 -0.392,0.121 -0.515,0.233 -0.104,0.11 -0.187,0.259 -0.228,0.44 -0.044,0.176 -0.059,0.357 -0.037,0.54 0.029,0.176 0.037,0.34 0.037,0.476 0,0.45 0.078,0.818 0.228,1.111 0.169,0.293 0.39,0.528 0.683,0.706 0.289,0.181 0.626,0.305 1.01,0.374 0.385,0.064 0.802,0.102 1.25,0.102 1.035,0 1.868,-0.157 2.498,-0.476 0.631,-0.316 1.24,-1.037 1.822,-2.155 H 4.658 L 4.589,4.528 c 0,1.48 -0.378,2.698 -1.147,3.642 -0.76,0.944 -1.729,1.668 -2.903,2.162 -1.169,0.495 -2.443,0.818 -3.812,0.98 -1.374,0.157 -2.648,0.233 -3.814,0.233 -1.347,0 -2.733,-0.099 -4.151,-0.302 -1.417,-0.202 -2.695,-0.587 -3.843,-1.146 -1.147,-0.564 -2.094,-1.354 -2.837,-2.364 -0.743,-1.012 -1.113,-2.283 -1.113,-3.811 0,-1.217 0.232,-2.233 0.709,-3.042 0.465,-0.804 1.076,-1.494 1.819,-2.058 0.741,-0.563 1.608,-1.034 2.601,-1.415 0.987,-0.385 1.973,-0.708 2.969,-0.982 1.437,-0.316 2.757,-0.651 3.948,-1.013 1.194,-0.359 2.195,-0.766 3.003,-1.213 0.812,-0.45 1.213,-1.104 1.213,-1.96 0.001,-0.447 -0.136,-0.83 -0.434,-1.146 -0.297,-0.315 -0.644,-0.573 -1.044,-0.776 -0.409,-0.205 -0.862,-0.354 -1.354,-0.437 -0.494,-0.091 -0.921,-0.137 -1.284,-0.137 -1.213,0 -2.253,0.291 -3.103,0.879 -0.857,0.584 -1.446,1.325 -1.759,2.229 h -7.559 c 0.049,-1.577 0.443,-2.893 1.183,-3.954 0.746,-1.058 1.712,-1.922 2.901,-2.597 1.196,-0.673 2.511,-1.159 3.951,-1.449 1.437,-0.297 2.901,-0.435 4.386,-0.435 1.399,0 2.811,0.152 4.253,0.469 1.437,0.314 2.745,0.816 3.918,1.517 1.169,0.697 2.137,1.575 2.904,2.631 0.762,1.058 1.142,2.357 1.142,3.884 0,1.798 -0.516,3.261 -1.551,4.386 C 2.789,-1.572 1.53,-0.673 0,0"
             style="fill:#ed1c24;fill-opacity:1;fill-rule:evenodd;stroke:none"
             id="path4427" /></g><g
           id="g4429"
           transform="translate(522.8715,238.1453)"><path
             d="M 0,0 H -1.215 -5.87 -6.208 V -4.726 H -5.531 0 V -15.864 H 7.561 V 11.141 H 0 Z"
             style="fill:#ed1c24;fill-opacity:1;fill-rule:evenodd;stroke:none"
             id="path4431" /></g><g
           id="g4433"
           transform="translate(506.8064,222.2812)"><path
             d="M 0,0 H 7.56 V 13.369 27.005 H 0 Z"
             style="fill:#ed1c24;fill-opacity:1;fill-rule:evenodd;stroke:none"
             id="path4435" /></g><g
           id="g4437"
           transform="translate(555.2429,249.2863)"><path
             d="m 0,0 h -3.778 l -10.059,-27.005 h 7.967 l 5.87,15.46 2.426,-7.561 1.491,-4.724 1.012,-3.175 h 8.637 L 3.778,0 Z"
             style="fill:#ed1c24;fill-opacity:1;fill-rule:evenodd;stroke:none"
             id="path4439" /></g><g
           id="g4441"
           transform="translate(575.8258,222.2812)"><path
             d="M 0,0 H 7.565 V 13.369 27.005 H 0 Z"
             style="fill:#ed1c24;fill-opacity:1;fill-rule:evenodd;stroke:none"
             id="path4443" /></g><g
           id="g4445"
           transform="translate(591.8914,238.1453)"><path
             d="M 0,0 H -1.218 -5.872 -6.209 V -4.726 H -5.531 0 V -15.864 H 7.559 V 11.141 H 0 Z"
             style="fill:#ed1c24;fill-opacity:1;fill-rule:evenodd;stroke:none"
             id="path4447" /></g><g
           id="g4449"
           transform="translate(631.4472,238.2785)"><path
             d="M 0,0 C 0.497,0.497 0.899,1.085 1.218,1.758 1.53,2.436 1.714,3.263 1.756,4.256 1.715,5.159 1.513,6.011 1.149,6.822 0.792,7.628 0.307,8.336 -0.304,8.95 c -0.605,0.602 -1.325,1.099 -2.156,1.482 -0.837,0.381 -1.722,0.576 -2.672,0.576 h -16.871 v -27.005 h 7.086 V 5.604 h 5.603 c 0.678,0 1.135,-0.055 1.386,-0.169 0.247,-0.109 0.48,-0.302 0.704,-0.573 0.227,-0.269 0.404,-0.626 0.543,-1.075 0.137,-0.455 0.2,-0.747 0.2,-0.878 0,-0.72 -0.234,-1.308 -0.709,-1.755 C -7.662,0.702 -8.22,0.314 -8.87,0 c -0.658,-0.312 -1.347,-0.473 -2.058,-0.473 h -1.628 v -4.724 c 0.093,-0.043 0.239,-0.093 0.442,-0.131 0.204,-0.043 0.459,-0.092 0.779,-0.135 0.577,-0.093 1.076,-0.183 1.486,-0.269 0.759,-0.364 1.366,-0.837 1.816,-1.42 0.451,-0.585 0.805,-1.308 1.046,-2.162 0.25,-0.856 0.394,-1.843 0.443,-2.968 0.046,-1.126 0.063,-2.362 0.063,-3.715 H 1.69 c 0,1.31 -0.037,2.647 -0.104,4.019 -0.064,1.37 -0.263,2.664 -0.607,3.879 -0.338,1.218 -0.874,2.32 -1.62,3.309 -0.744,0.991 -1.785,1.758 -3.137,2.295 0.716,0.405 1.406,0.801 2.061,1.183 0.645,0.38 1.225,0.82 1.717,1.312"
             style="fill:#ed1c24;fill-opacity:1;fill-rule:evenodd;stroke:none"
             id="path4451" /></g><g
           id="g4453"
           transform="translate(687.8152,253.4816)"><path
             d="m 0,0 c -8.768,0 -15.892,-6.98 -15.892,-15.607 0,-8.616 7.124,-15.61 15.891,-15.61 8.778,0 15.895,6.994 15.895,15.61 C 15.894,-6.98 8.777,0 0,0"
             style="fill:#ed1c24;fill-opacity:1;fill-rule:evenodd;stroke:none"
             id="path4455" /></g><g
           id="g4457"
           transform="translate(617.7083,356.9079)"><path
             d="m 0,0 c -8.78,0 -15.883,-6.987 -15.883,-15.612 0,-8.608 7.103,-15.596 15.883,-15.596 8.775,0 15.892,6.988 15.892,15.596 C 15.892,-6.987 8.775,0 0,0"
             style="fill:#ed1c24;fill-opacity:1;fill-rule:evenodd;stroke:none"
             id="path4459" /></g><g
           id="g4461"
           transform="translate(441.8304,356.858)"><path
             d="m 0,0 c -8.78,0 -15.883,-6.987 -15.883,-15.612 0,-8.609 7.103,-15.596 15.883,-15.596 8.775,0 15.892,6.987 15.892,15.596 C 15.892,-6.987 8.775,0 0,0"
             style="fill:#ed1c24;fill-opacity:1;fill-rule:evenodd;stroke:none"
             id="path4463" /></g><g
           id="g4465"
           transform="translate(398.2381,356.858)"><path
             d="m 0,0 c -8.78,0 -15.882,-6.987 -15.882,-15.612 0,-8.609 7.102,-15.596 15.882,-15.596 8.775,0 15.892,6.987 15.892,15.596 C 15.892,-6.987 8.775,0 0,0"
             style="fill:#ed1c24;fill-opacity:1;fill-rule:evenodd;stroke:none"
             id="path4467" /></g><g
           id="g4469"
           transform="translate(353.3237,356.858)"><path
             d="m 0,0 c -8.78,0 -15.882,-6.987 -15.882,-15.612 0,-8.609 7.102,-15.596 15.882,-15.596 8.775,0 15.892,6.987 15.892,15.596 C 15.892,-6.987 8.775,0 0,0"
             style="fill:#ed1c24;fill-opacity:1;fill-rule:evenodd;stroke:none"
             id="path4471" /></g><g
           id="g4473"
           transform="translate(311.791,313.4417)"><path
             d="m 0,0 c -12.295,0 -22.547,-5.914 -30.274,-17.345 -7.188,-10.456 -5.534,-18.457 -9.544,-34.742 -2.654,-10.825 -13.965,4.33 -21.035,15.87 -1.739,2.529 -3.27,5.699 -4.567,9.096 8.087,1.576 13.489,3.377 13.626,3.416 11.587,6.121 17.375,17.724 17.375,34.812 0,8.642 -3.043,19.244 -9.114,31.801 -5.12,10.189 -9.001,18.105 -16.189,12.951 C -83.203,39.058 -86.235,21.482 -86.235,0 h -6.245 v 0.008 h -0.817 c -10.367,0 -21.439,8.525 -33.601,25.39 -1.372,1.134 -2.273,1.134 -2.7,0 0,0 -14.418,-19.339 -12.845,-26.551 1.218,-5.629 7.678,-9.479 13.683,-14.023 0.994,-0.751 1.87,-1.477 2.67,-2.169 5.701,-5.058 6.167,-8.657 6.167,-12.201 0,-3.555 -0.285,-7.945 -1.92,-12.674 -2.177,-6.245 -6.763,-13.046 -16.32,-19.147 -16.995,-10.846 -27.956,-11.159 -48.643,-16.134 -0.847,-0.205 -1.216,-0.724 -1.224,-1.344 -0.012,-1.034 0.982,-2.349 2.446,-2.958 11.202,-4.179 29.679,-13.023 48.91,-6.268 1.926,0.668 10.994,5.769 15.994,11.816 5.247,6.358 9.37,12.723 11.851,22.068 1.713,6.416 2.647,14.234 2.647,24.399 0,0 -0.072,1.943 0,2.379 l 0.016,-0.009 c 0.515,-0.121 1.015,-0.236 1.535,-0.35 7.57,-1.671 15.345,-1.924 23.06,-1.465 3.623,-14.521 7.955,-24.599 7.955,-24.599 11.313,-21.764 28.658,-47.658 53.18,-35.011 6.807,3.522 3.353,14.347 -0.448,21.062 -6.745,11.958 -7.824,17.733 -6.999,24.665 0.543,4.724 4.512,8.688 10.454,10.078 2.618,0.562 8.495,0.929 17.618,0.929 l 61.179,-0.036 h 6.796 l 77.773,0.036 V 0 Z m -70.511,0 c -1.006,0.015 -1.629,0 -1.629,0 0,0 -1.734,18.88 8.727,31.115 0.5,0.604 0.808,0.917 0.808,0.917 0,0 12.376,-10.307 13.47,-28.451 0,0 -12.346,-3.888 -21.376,-3.581"
             style="fill:#ed1c24;fill-opacity:1;fill-rule:evenodd;stroke:none"
             id="path4475" /></g><g
           id="g4477"
           transform="translate(711.8931,281.3323)"><path
             d="m 0,0 v 32.109 h -28.447 c -13.294,0 -19.93,6.004 -19.93,17.885 l 0.212,64.693 c -0.135,1.953 -0.35,3.07 -0.622,3.351 h -0.212 c -1.129,-0.28 -2.597,-1.197 -4.408,-2.735 L -70.622,98.518 c -0.823,-0.705 -0.673,-2.184 -0.414,-4.607 2.795,-25.636 3.394,-35.973 2.517,-52.092 C -69.318,27.012 -64.456,15.936 -56.762,8.668 -50.895,3.06 -43.865,0 -35.889,0 Z"
             style="fill:#ed1c24;fill-opacity:1;fill-rule:evenodd;stroke:none"
             id="path4479" /></g><g
           id="g4481"
           transform="translate(617.1634,313.4411)"><path
             d="m 0,0 h -7.356 c -13.299,0 -19.931,6.003 -19.931,17.885 l 0.211,64.693 c -0.132,1.951 -0.354,3.07 -0.627,3.352 h -0.216 c -1.112,-0.282 -2.581,-1.199 -4.403,-2.734 L -49.535,66.411 c -0.832,-0.708 -0.975,-2.235 -0.413,-4.607 2.411,-32.616 4.169,-29.978 2.482,-48.243 C -48.601,4.525 -54.76,0 -65.32,0 h -7.148 -6.503 -67.689 v -32.109 h 67.689 6.503 7.357 c 4.462,0 9.015,1.578 13.632,4.718 4.462,3.046 7.946,6.579 10.452,10.593 0.436,-0.708 0.873,-1.406 1.36,-2.073 1.632,-3.039 4.275,-5.761 7.917,-8.2 5.171,-3.35 10.488,-5.038 15.949,-5.038 H 16.437 V 0 H 3.924 Z"
             style="fill:#ed1c24;fill-opacity:1;fill-rule:evenodd;stroke:none"
             id="path4483" /></g><g
           id="g4485"
           transform="translate(540.4449,338.7077)"><path
             d="M 0,0 C 1.183,0.167 1.121,2.693 1.24,5.193 1.466,7.588 1.466,9.325 1.216,10.387 -1.638,9.55 -4.268,8.762 -6.656,8.038 -9.512,6.831 -12.262,6.237 -14.887,6.221 c -3.226,0 -5.879,1.062 -7.972,3.201 -2.11,2.154 -3.151,4.236 -3.167,6.27 0,1.544 1.13,2.869 3.4,3.946 1.908,0.958 3.697,1.455 5.367,1.455 1.434,0 3.339,-0.475 5.73,-1.43 2.397,-0.949 4.006,-1.415 4.852,-1.415 2.274,0.008 3.393,1.447 3.386,4.308 -0.129,1.803 -1.436,3.586 -3.964,5.363 -2.506,1.792 -5.078,2.678 -7.699,2.668 -4.552,-0.256 -9.105,-2.708 -13.688,-7.377 -4.582,-4.673 -6.873,-8.798 -6.863,-12.382 0,-2.396 1.062,-4.776 3.155,-7.163 2.099,-2.381 3.8,-3.811 5.128,-4.278 -3.699,-1.929 -6.981,-3.665 -9.844,-5.232 0,0 -3.633,-3 0.016,-7.701 C -27.091,-26.323 -28.574,-4.133 0,0"
             style="fill:#ed1c24;fill-opacity:1;fill-rule:evenodd;stroke:none"
             id="path4487" /></g></g></g></g></svg>
