<?xml version="1.0" encoding="UTF-8" standalone="no"?>
<svg
   xmlns:dc="http://purl.org/dc/elements/1.1/"
   xmlns:cc="http://creativecommons.org/ns#"
   xmlns:rdf="http://www.w3.org/1999/02/22-rdf-syntax-ns#"
   xmlns:svg="http://www.w3.org/2000/svg"
   xmlns="http://www.w3.org/2000/svg"
   xmlns:sodipodi="http://sodipodi.sourceforge.net/DTD/sodipodi-0.dtd"
   xmlns:inkscape="http://www.inkscape.org/namespaces/inkscape"
   version="1.1"
   id="svg4533"
   xml:space="preserve"
   width="816"
   height="1056"
   viewBox="0 0 816 1056"
   sodipodi:docname="sina.svg"
   inkscape:version="1.0.1 (3bc2e813f5, 2020-09-07)"><sodipodi:namedview
     pagecolor="#ffffff"
     bordercolor="#666666"
     borderopacity="1"
     objecttolerance="10"
     gridtolerance="10"
     guidetolerance="10"
     inkscape:pageopacity="0"
     inkscape:pageshadow="2"
     inkscape:window-width="1848"
     inkscape:window-height="1009"
     id="namedview3357"
     showgrid="false"
     inkscape:zoom="0.66245342"
     inkscape:cx="408"
     inkscape:cy="528"
     inkscape:window-x="72"
     inkscape:window-y="34"
     inkscape:window-maximized="1"
     inkscape:current-layer="svg4533" /><metadata
     id="metadata4539"><rdf:RDF><cc:Work
         rdf:about=""><dc:format>image/svg+xml</dc:format><dc:type
           rdf:resource="http://purl.org/dc/dcmitype/StillImage" /><dc:title /></cc:Work></rdf:RDF></metadata><defs
     id="defs4537"><clipPath
       clipPathUnits="userSpaceOnUse"
       id="clipPath4557"><path
         d="M 0,792 H 612 V 0 H 0 Z"
         id="path4555" /></clipPath></defs><g
     id="g4541"
     transform="matrix(2.1189664,0,0,-2.1189664,-245.53569,1317.7786)"><g
       id="g4543"
       transform="translate(211.5286,313.3295)"><path
         d="m 0,0 9.93,-5.917 76.875,-44.385 76.877,44.385 76.875,44.385 v 88.768 88.77 l -55.772,32.954 -86.44,-51.566 54.988,-31.747 V 88.826 Z"
         style="fill:#008ad1;fill-opacity:1;fill-rule:evenodd;stroke:none"
         id="path4545" /></g><g
       id="g4547"
       transform="translate(385.7207,569.571)"><path
         d="m 0,0 -9.93,5.917 -76.875,44.385 -76.877,-44.385 -76.875,-44.385 v -88.768 -88.77 l 55.772,-32.953 86.441,51.565 -54.989,31.748 v 76.82 z"
         style="fill:#008ad1;fill-opacity:1;fill-rule:evenodd;stroke:none"
         id="path4549" /></g><g
       id="g4551"><g
         id="g4553"
         clip-path="url(#clipPath4557)"><g
           id="g4559"
           transform="translate(295.8259,391.7792)"><path
             d="m 0,0 c 27.513,0 49.953,22.44 49.953,49.954 0,27.513 -22.44,49.953 -49.953,49.953 -27.514,0 -49.954,-22.44 -49.954,-49.953 C -49.954,22.44 -27.514,0 0,0"
             style="fill:#e6b500;fill-opacity:1;fill-rule:evenodd;stroke:none"
             id="path4561" /></g><g
           id="g4563"
           transform="translate(437.8388,186.2853)"><path
             d="m 0,0 v -2.003 c 0,-3.65 0.979,-6.185 2.938,-7.61 1.156,-0.802 2.536,-1.201 4.14,-1.201 1.246,0 2.358,1.38 3.337,4.139 0.179,0.623 0.379,1.335 0.601,2.136 0.222,0.801 0.511,1.201 0.867,1.201 0.446,0 0.668,-0.444 0.668,-1.334 0,-0.358 -0.067,-0.89 -0.2,-1.604 -0.134,-0.711 -0.244,-1.289 -0.334,-1.735 -1.156,-5.252 -2.626,-9.324 -4.407,-12.217 -1.779,-2.893 -3.604,-4.34 -5.473,-4.34 -2.939,0 -4.963,1.335 -6.076,4.006 -1.112,2.671 -1.668,6.053 -1.668,10.147 z"
             style="fill:#000003;fill-opacity:1;fill-rule:evenodd;stroke:none"
             id="path4565" /></g><g
           id="g4567"
           transform="translate(445.2619,138.9521)"><path
             d="m 0,0 c 0.179,-0.89 0.112,-1.846 -0.2,-2.87 -0.311,-1.024 -0.8,-2.181 -1.469,-3.473 -0.668,-1.289 -1.58,-2.468 -2.737,-3.538 -0.712,-0.711 -1.29,-1.067 -1.736,-1.067 -0.267,0 -0.867,0.399 -1.802,1.201 -0.934,0.802 -1.781,1.492 -2.537,2.07 -0.757,0.578 -1.402,1.134 -1.937,1.669 -0.534,0.534 -0.799,0.979 -0.799,1.336 0.532,1.156 0.933,2.046 1.2,2.669 0.891,1.959 1.559,3.383 2.003,4.273 0.802,1.336 1.602,2.716 2.404,4.139 0.177,0.267 0.444,0.668 0.802,1.203 0.265,-0.268 0.533,-0.49 0.8,-0.668 C -5.741,6.765 -5.385,6.543 -4.939,6.275 -3.07,4.762 -1.824,3.606 -1.201,2.804 -0.578,2.003 -0.177,1.069 0,0"
             style="fill:#000003;fill-opacity:1;fill-rule:evenodd;stroke:none"
             id="path4569" /></g><g
           id="g4571"
           transform="translate(437.7336,186.2853)"><path
             d="m 0,0 c -0.713,-2.314 -1.425,-4.584 -2.136,-6.809 -0.979,-2.403 -2.137,-3.606 -3.473,-3.606 0,1.069 0.489,5.719 1.47,13.954 0.979,8.234 1.779,14.531 2.404,18.892 0.088,0.356 0.8,2.18 2.136,5.474 1.335,3.294 2.402,5.786 3.204,7.478 0.178,0.089 0.356,0.177 0.534,0.267 0.089,-0.267 0.044,-0.98 -0.133,-2.136 L 3.471,30.042 1.201,13.754 C 0.757,10.46 0.445,7.612 0.267,5.208 0.089,2.804 0,1.069 0,0"
             style="fill:#000003;fill-opacity:1;fill-rule:evenodd;stroke:none"
             id="path4573" /></g><g
           id="g4575"
           transform="translate(411.9681,186.2853)"><path
             d="m 0,0 v -2.003 c 0,-3.65 0.979,-6.185 2.938,-7.61 1.156,-0.802 2.536,-1.201 4.14,-1.201 1.246,0 2.358,1.38 3.337,4.139 0.179,0.623 0.379,1.335 0.601,2.136 0.222,0.801 0.511,1.201 0.867,1.201 0.446,0 0.668,-0.444 0.668,-1.334 0,-0.358 -0.067,-0.89 -0.2,-1.604 -0.134,-0.711 -0.244,-1.289 -0.334,-1.735 -1.156,-5.252 -2.626,-9.324 -4.406,-12.217 -1.779,-2.893 -3.605,-4.34 -5.474,-4.34 -2.939,0 -4.963,1.335 -6.075,4.006 -1.113,2.671 -1.669,6.053 -1.669,10.147 z"
             style="fill:#000003;fill-opacity:1;fill-rule:evenodd;stroke:none"
             id="path4577" /></g><g
           id="g4579"
           transform="translate(428.762,208.7167)"><path
             d="m 0,0 c 0.179,-0.89 0.112,-1.846 -0.2,-2.87 -0.311,-1.024 -0.8,-2.181 -1.469,-3.472 -0.668,-1.29 -1.58,-2.469 -2.737,-3.538 -0.712,-0.712 -1.29,-1.067 -1.736,-1.067 -0.267,0 -0.867,0.399 -1.802,1.201 -0.934,0.801 -1.781,1.491 -2.537,2.069 -0.757,0.578 -1.402,1.134 -1.937,1.669 -0.534,0.534 -0.799,0.978 -0.799,1.336 0.532,1.156 0.933,2.046 1.2,2.669 0.891,1.96 1.559,3.383 2.003,4.273 0.802,1.336 1.602,2.716 2.404,4.139 0.177,0.267 0.444,0.668 0.802,1.203 0.265,-0.268 0.532,-0.489 0.8,-0.668 C -5.741,6.765 -5.385,6.543 -4.939,6.276 -3.07,4.762 -1.824,3.606 -1.201,2.805 -0.578,2.003 -0.177,1.069 0,0"
             style="fill:#000003;fill-opacity:1;fill-rule:evenodd;stroke:none"
             id="path4581" /></g><g
           id="g4583"
           transform="translate(411.8681,186.2853)"><path
             d="M 0,0 C -0.266,-1.068 -0.533,-2.18 -0.8,-3.338 -1.068,-4.495 -1.49,-5.719 -2.07,-7.009 -2.648,-8.3 -3.293,-9.257 -4.006,-9.88 c -0.711,-0.623 -1.246,-0.802 -1.602,-0.535 0,2.048 0.156,4.385 0.468,7.011 0.311,2.626 0.511,4.339 0.601,5.141 l 0.134,1.468 c 0,0.268 -0.045,0.445 -0.134,0.535 -0.09,0.088 -0.267,0 -0.534,-0.267 -0.356,-0.446 -0.935,-1.246 -1.736,-2.404 -1.692,-2.315 -2.938,-4.006 -3.739,-5.075 -2.67,-3.382 -6.009,-6.543 -10.014,-9.479 -4.006,-2.938 -8.279,-5.252 -12.819,-6.944 -4.54,-1.69 -9.68,-3.137 -15.421,-4.339 -5.742,-1.201 -11.729,-1.803 -17.959,-1.803 h -2.003 c -3.828,0 -6.944,0.222 -9.348,0.669 -3.826,0.711 -6.43,1.89 -7.81,3.538 -1.38,1.646 -2.07,4.16 -2.07,7.543 0,2.849 0.201,5.786 0.601,8.813 0.402,3.026 0.958,4.54 1.669,4.54 0.268,0 0.468,-0.867 0.602,-2.605 0.133,-1.735 0.778,-3.27 1.936,-4.605 2.403,-2.67 8.233,-4.007 17.49,-4.007 5.075,0 9.125,0.134 12.152,0.401 14.599,1.246 26.527,4.762 35.784,10.548 4.362,2.583 7.789,5.653 10.281,9.214 1.869,2.76 3.338,6.053 4.407,9.879 l 1.869,7.611 c 0.179,0.801 1.158,3.071 2.938,6.809 1.156,2.404 1.913,3.94 2.27,4.607 0.354,0.668 0.798,1.269 1.333,1.802 V 36.183 C 4.896,34.226 4.583,32.712 4.405,31.643 L 1.603,17.624 C 1.069,13.799 0.668,10.305 0.401,7.144 0.133,3.984 0,1.604 0,0"
             style="fill:#000003;fill-opacity:1;fill-rule:evenodd;stroke:none"
             id="path4585" /></g><g
           id="g4587"
           transform="translate(422.3662,234.2883)"><path
             d="m 0,0 c 1.96,2.136 6.144,5.784 12.551,10.947 5.698,4.541 11.396,9.126 17.091,13.754 4.096,3.383 8.013,6.81 11.751,10.281 2.671,2.493 6.188,5.875 10.549,10.148 6.676,6.409 10.014,9.703 10.014,9.882 0,-0.446 -0.089,-0.847 -0.268,-1.203 C 61.421,52.563 60.576,50.694 59.153,48.202 57.728,45.71 56.525,43.84 55.547,42.592 54.123,40.723 52.587,38.878 50.94,37.052 49.293,35.228 47.98,33.825 47.001,32.846 45.666,31.511 43.396,29.418 40.191,26.57 37.789,24.434 34.182,21.319 29.377,17.223 25.993,14.375 22.968,11.928 20.297,9.88 16.735,7.121 13.176,4.405 9.615,1.735 L 0.401,-5.476 c -1.335,-1.067 -2.604,-2.069 -3.805,-3.003 -1.201,-0.935 -1.891,-1.269 -2.07,-1.002 0.712,1.958 1.514,3.738 2.404,5.34 C -2.18,-2.537 -1.156,-1.158 0,0"
             style="fill:#000003;fill-opacity:1;fill-rule:evenodd;stroke:none"
             id="path4589" /></g><g
           id="g4591"
           transform="translate(208.7413,174.4021)"><path
             d="m 0,0 c 10.415,0 20.696,1.113 30.844,3.338 7.566,1.692 14.821,3.917 21.764,6.676 2.671,1.069 6.321,2.759 10.95,5.075 6.23,3.115 13.129,7.032 20.695,11.747 2.048,1.246 5.873,3.695 11.483,7.345 6.586,4.361 10.859,7.209 12.818,8.545 3.026,2.048 5.652,3.471 7.877,4.273 1.247,0.356 2.493,0.757 3.739,1.201 1.157,1.425 2.048,2.492 2.67,3.206 1.87,2.313 3.006,3.917 3.405,4.805 0.401,0.89 0.601,1.47 0.601,1.737 0,0.712 -0.534,0.934 -1.602,0.667 -3.917,-0.979 -7.211,-2.136 -9.88,-3.471 -2.671,-1.335 -7.099,-4.094 -13.286,-8.279 C 95.891,42.681 91.374,39.788 88.526,38.186 82.296,34.536 74.418,30.62 64.892,26.437 57.327,23.145 49.226,20.429 40.592,18.292 28.575,15.356 16.468,13.886 4.273,13.886 L 0,14.019 Z"
             style="fill:#000003;fill-opacity:1;fill-rule:evenodd;stroke:none"
             id="path4593" /></g><g
           id="g4595"
           transform="translate(177.6008,181.9137)"><path
             d="M 0,0 C -0.535,0 -1.246,-0.623 -2.137,-1.869 -3.027,-3.115 -3.74,-4.05 -4.273,-4.673 -5.163,-5.652 -6.008,-6.364 -6.81,-6.81 -7.256,-6.989 -8.013,-6.943 -9.08,-6.676 v 7.744 l 3.203,-0.533 c 1.07,0 2.005,0.422 2.805,1.268 0.802,0.845 1.826,2.158 3.072,3.938 2.313,3.473 4.54,5.208 6.676,5.208 0.801,0 2.137,-0.312 4.006,-0.935 2.936,-0.979 6.142,-1.735 9.613,-2.27 3.473,-0.535 5.941,-0.89 7.411,-1.067 1.469,-0.179 3.404,-0.268 5.808,-0.268 0.535,-0.89 0.891,-1.601 1.067,-2.136 0.802,-1.959 1.203,-3.605 1.203,-4.941 0,-1.513 -0.356,-3.115 -1.069,-4.807 -0.177,-0.533 -0.578,-1.246 -1.201,-2.137 l -8.412,0.134 c -2.225,0 -4.294,0.112 -6.209,0.334 -1.914,0.222 -4.095,0.556 -6.543,1.002 C 9.902,-5.697 7.899,-5.141 6.342,-4.473 4.784,-3.805 3.65,-3.205 2.936,-2.671 2.225,-2.136 1.624,-1.558 1.134,-0.935 0.645,-0.312 0.267,0 0,0"
             style="fill:#000003;fill-opacity:1;fill-rule:evenodd;stroke:none"
             id="path4597" /></g><g
           id="g4599"
           transform="translate(187.5881,140.775)"><path
             d="m 0,0 c 0.179,-0.89 0.112,-1.847 -0.2,-2.871 -0.311,-1.024 -0.801,-2.18 -1.469,-3.471 -0.668,-1.291 -1.58,-2.471 -2.737,-3.538 -0.712,-0.713 -1.29,-1.069 -1.736,-1.069 -0.267,0 -0.867,0.401 -1.802,1.202 -0.936,0.801 -1.781,1.491 -2.537,2.07 -0.757,0.578 -1.402,1.134 -1.936,1.669 -0.535,0.534 -0.802,0.979 -0.802,1.334 0.534,1.158 0.935,2.048 1.202,2.671 0.891,1.958 1.557,3.383 2.003,4.273 0.802,1.335 1.602,2.715 2.404,4.139 0.177,0.268 0.444,0.668 0.8,1.201 C -6.543,7.345 -6.276,7.121 -6.008,6.944 -5.741,6.765 -5.385,6.543 -4.939,6.276 -3.07,4.762 -1.824,3.605 -1.201,2.805 -0.578,2.003 -0.177,1.068 0,0 m -13.752,-0.802 c 0.177,-0.89 0.11,-1.845 -0.2,-2.869 -0.313,-1.024 -0.802,-2.182 -1.469,-3.473 -0.666,-1.29 -1.578,-2.469 -2.736,-3.538 -0.713,-0.712 -1.291,-1.067 -1.735,-1.067 -0.268,0 -0.869,0.399 -1.804,1.201 -0.934,0.801 -1.779,1.491 -2.536,2.069 -0.757,0.578 -1.403,1.135 -1.936,1.669 -0.534,0.534 -0.802,0.979 -0.802,1.336 0.535,1.156 0.934,2.046 1.201,2.669 0.89,1.96 1.559,3.383 2.003,4.273 0.802,1.337 1.604,2.716 2.404,4.14 0.178,0.267 0.446,0.668 0.801,1.202 0.268,-0.267 0.535,-0.489 0.802,-0.668 0.266,-0.179 0.623,-0.401 1.068,-0.668 1.869,-1.513 3.115,-2.669 3.736,-3.471 0.623,-0.802 1.024,-1.736 1.203,-2.805"
             style="fill:#000003;fill-opacity:1;fill-rule:evenodd;stroke:none"
             id="path4601" /></g><g
           id="g4603"
           transform="translate(169.0483,175.3376)"><path
             d="m 0,0 c -1.423,0.177 -2.403,0.177 -2.936,0 -2.227,-0.713 -4.564,-3.16 -7.011,-7.345 -2.449,-4.184 -5.275,-6.275 -8.479,-6.275 -3.205,0 -5.652,1.379 -7.344,4.139 -1.691,2.76 -2.536,6.098 -2.536,10.014 l 5.608,10.415 c 0,-4.362 1.067,-7.522 3.203,-9.48 1.604,-1.425 3.473,-2.136 5.61,-2.136 2.936,0 5.385,1.291 7.342,3.872 1.425,1.869 2.65,3.138 3.674,3.805 C -1.847,7.677 -0.89,7.923 0,7.744 0.09,7.565 0.134,7.388 0.134,7.209 0.58,5.786 0.802,4.672 0.802,3.872 0.802,3.07 0.714,2.358 0.535,1.735 0.356,1.113 0.179,0.533 0,0"
             style="fill:#000003;fill-opacity:1;fill-rule:evenodd;stroke:none"
             id="path4605" /></g><g
           id="g4607"
           transform="translate(172.5613,246.6624)"><path
             d="m 0,0 c 0.179,-0.89 0.112,-1.846 -0.2,-2.87 -0.311,-1.024 -0.801,-2.181 -1.469,-3.473 -0.668,-1.289 -1.58,-2.468 -2.737,-3.537 -0.712,-0.712 -1.29,-1.068 -1.736,-1.068 -0.267,0 -0.867,0.399 -1.802,1.201 -0.934,0.802 -1.781,1.492 -2.538,2.07 -0.756,0.578 -1.401,1.134 -1.936,1.669 -0.534,0.534 -0.8,0.979 -0.8,1.336 0.533,1.156 0.934,2.046 1.201,2.669 0.891,1.959 1.559,3.383 2.003,4.273 0.802,1.336 1.602,2.716 2.404,4.139 0.177,0.267 0.444,0.668 0.801,1.203 0.266,-0.268 0.533,-0.49 0.801,-0.669 0.267,-0.178 0.623,-0.4 1.069,-0.668 C -3.07,4.762 -1.824,3.606 -1.201,2.804 -0.578,2.003 -0.177,1.069 0,0"
             style="fill:#000003;fill-opacity:1;fill-rule:evenodd;stroke:none"
             id="path4609" /></g><g
           id="g4611"
           transform="translate(146.3715,186.2853)"><path
             d="m 0,0 c -0.713,-2.314 -1.425,-4.584 -2.136,-6.809 -0.979,-2.403 -2.137,-3.606 -3.473,-3.606 0,1.069 0.489,5.719 1.47,13.954 0.979,8.234 1.779,14.531 2.404,18.892 0.088,0.356 0.799,2.18 2.136,5.474 1.335,3.294 2.402,5.786 3.204,7.478 0.178,0.089 0.356,0.177 0.534,0.267 0.089,-0.267 0.044,-0.98 -0.133,-2.136 L 3.471,30.042 1.201,13.754 C 0.757,10.46 0.444,7.612 0.267,5.208 0.089,2.804 0,1.069 0,0"
             style="fill:#000003;fill-opacity:1;fill-rule:evenodd;stroke:none"
             id="path4613" /></g></g></g></g></svg>
