<?xml version="1.0" encoding="UTF-8" standalone="no"?>
<svg
   xmlns:dc="http://purl.org/dc/elements/1.1/"
   xmlns:cc="http://creativecommons.org/ns#"
   xmlns:rdf="http://www.w3.org/1999/02/22-rdf-syntax-ns#"
   xmlns:svg="http://www.w3.org/2000/svg"
   xmlns="http://www.w3.org/2000/svg"
   xmlns:sodipodi="http://sodipodi.sourceforge.net/DTD/sodipodi-0.dtd"
   xmlns:inkscape="http://www.inkscape.org/namespaces/inkscape"
   version="1.1"
   id="svg4659"
   xml:space="preserve"
   width="816"
   height="1056"
   viewBox="0 0 816 1056"
   sodipodi:docname="tejarat.svg"
   inkscape:version="1.0.1 (3bc2e813f5, 2020-09-07)"><sodipodi:namedview
     pagecolor="#ffffff"
     bordercolor="#666666"
     borderopacity="1"
     objecttolerance="10"
     gridtolerance="10"
     guidetolerance="10"
     inkscape:pageopacity="0"
     inkscape:pageshadow="2"
     inkscape:window-width="1848"
     inkscape:window-height="1009"
     id="namedview5954"
     showgrid="false"
     inkscape:zoom="0.66245342"
     inkscape:cx="408"
     inkscape:cy="580.20044"
     inkscape:window-x="72"
     inkscape:window-y="34"
     inkscape:window-maximized="1"
     inkscape:current-layer="svg4659" /><metadata
     id="metadata4665"><rdf:RDF><cc:Work
         rdf:about=""><dc:format>image/svg+xml</dc:format><dc:type
           rdf:resource="http://purl.org/dc/dcmitype/StillImage" /><dc:title /></cc:Work></rdf:RDF></metadata><defs
     id="defs4663"><clipPath
       clipPathUnits="userSpaceOnUse"
       id="clipPath4679"><path
         d="M 0,792 H 612 V 0 H 0 Z"
         id="path4677" /></clipPath></defs><g
     id="g4667"
     transform="matrix(2.6643763,0,0,-2.6643763,-407.29928,1582.76)"><g
       id="g4669"
       transform="translate(404.9561,285.1685)"><path
         d="m 0,0 10.857,-13.829 -215.897,-5.086 -1.557,4.882 12.469,11.522"
         style="fill:none;stroke:#6057a1;stroke-width:1;stroke-linecap:butt;stroke-linejoin:miter;stroke-miterlimit:22.926;stroke-dasharray:none;stroke-opacity:1"
         id="path4671" /></g><g
       id="g4673"><g
         id="g4675"
         clip-path="url(#clipPath4679)"><g
           id="g4681"
           transform="translate(309.0351,548.5207)"><path
             d="m 0,0 -7.034,-285.268 -6.997,284.903 c 3.633,0.263 7.298,0.403 10.996,0.403 C -2.02,0.038 -1.01,0.02 0,0"
             style="fill:#6057a1;fill-opacity:1;fill-rule:evenodd;stroke:none"
             id="path4683" /></g><g
           id="g4685"
           transform="translate(338.6551,544.9881)"><path
             d="M 0,0 -36.653,-281.738 -13.827,2.397 C -9.15,1.81 -4.538,1.005 0,0"
             style="fill:#6057a1;fill-opacity:1;fill-rule:evenodd;stroke:none"
             id="path4687" /></g><g
           id="g4689"
           transform="translate(366.9667,535.6817)"><path
             d="M 0,0 -64.965,-272.434 -13.064,5.079 C -8.614,3.585 -4.257,1.886 0,0"
             style="fill:#6057a1;fill-opacity:1;fill-rule:evenodd;stroke:none"
             id="path4691" /></g><g
           id="g4693"
           transform="translate(392.8414,521.0209)"><path
             d="M 0,0 -90.84,-257.777 -11.785,7.524 C -7.735,5.196 -3.806,2.681 0,0"
             style="fill:#6057a1;fill-opacity:1;fill-rule:evenodd;stroke:none"
             id="path4695" /></g><g
           id="g4697"
           transform="translate(415.2895,501.6943)"><path
             d="M 0,0 -113.289,-238.453 -10.064,9.612 C -6.565,6.562 -3.206,3.354 0,0"
             style="fill:#6057a1;fill-opacity:1;fill-rule:evenodd;stroke:none"
             id="path4699" /></g><g
           id="g4701"
           transform="translate(433.4888,478.5474)"><path
             d="M 0,0 -131.489,-215.308 -7.98,11.288 C -5.157,7.652 -2.489,3.888 0,0"
             style="fill:#6057a1;fill-opacity:1;fill-rule:evenodd;stroke:none"
             id="path4703" /></g><g
           id="g4705"
           transform="translate(446.794,452.5359)"><path
             d="M 0,0 -144.795,-189.299 -5.614,12.508 C -3.563,8.438 -1.684,4.268 0,0"
             style="fill:#6057a1;fill-opacity:1;fill-rule:evenodd;stroke:none"
             id="path4707" /></g><g
           id="g4709"
           transform="translate(454.7614,424.7073)"><path
             d="M 0,0 -152.764,-161.473 -3.063,13.228 C -1.85,8.893 -0.826,4.481 0,0"
             style="fill:#6057a1;fill-opacity:1;fill-rule:evenodd;stroke:none"
             id="path4711" /></g><g
           id="g4713"
           transform="translate(457.2513,396.2438)"><path
             d="M 0,0 -155.255,-133.012 -0.492,13.376 C -0.162,9.31 0.013,5.2 0.013,1.051 0.013,0.699 0.003,0.351 0,0"
             style="fill:#6057a1;fill-opacity:1;fill-rule:evenodd;stroke:none"
             id="path4715" /></g><g
           id="g4717"
           transform="translate(454.4694,368.367)"><path
             d="M 0,0 -152.476,-105.137 1.951,12.96 C 1.485,8.583 0.831,4.261 0,0"
             style="fill:#6057a1;fill-opacity:1;fill-rule:evenodd;stroke:none"
             id="path4719" /></g><g
           id="g4721"
           transform="translate(446.8334,342.1576)"><path
             d="M 0,0 -144.842,-78.929 4.149,12.04 C 2.929,7.954 1.549,3.935 0,0"
             style="fill:#6057a1;fill-opacity:1;fill-rule:evenodd;stroke:none"
             id="path4723" /></g><g
           id="g4725"
           transform="translate(435.0835,318.5943)"><path
             d="M 0,0 -133.094,-55.367 5.961,10.681 C 4.115,7.035 2.126,3.471 0,0"
             style="fill:#6057a1;fill-opacity:1;fill-rule:evenodd;stroke:none"
             id="path4727" /></g><g
           id="g4729"
           transform="translate(420.3819,298.4922)"><path
             d="M 0,0 -118.395,-35.267 7.186,8.974 C 4.901,5.892 2.506,2.897 0,0"
             style="fill:#6057a1;fill-opacity:1;fill-rule:evenodd;stroke:none"
             id="path4731" /></g><g
           id="g4733"
           transform="translate(404.0881,282.3094)"><path
             d="M 0,0 -102.103,-19.085 7.75,7.099 C 5.249,4.646 2.665,2.278 0,0"
             style="fill:#6057a1;fill-opacity:1;fill-rule:evenodd;stroke:none"
             id="path4735" /></g><g
           id="g4737"
           transform="translate(279.2982,546.192)"><path
             d="M 0,0 22.703,-282.937 -13.673,-3.128 C -9.193,-1.883 -4.635,-0.831 0,0"
             style="fill:#6057a1;fill-opacity:1;fill-rule:evenodd;stroke:none"
             id="path4739" /></g><g
           id="g4741"
           transform="translate(250.6371,538.0421)"><path
             d="M 0,0 51.363,-274.784 -12.763,-5.755 C -8.613,-3.649 -4.357,-1.723 0,0"
             style="fill:#6057a1;fill-opacity:1;fill-rule:evenodd;stroke:none"
             id="path4743" /></g><g
           id="g4745"
           transform="translate(224.2026,524.4299)"><path
             d="M 0,0 77.796,-261.17 -11.358,-8.099 C -7.703,-5.231 -3.913,-2.529 0,0"
             style="fill:#6057a1;fill-opacity:1;fill-rule:evenodd;stroke:none"
             id="path4747" /></g><g
           id="g4749"
           transform="translate(201.0129,506.0115)"><path
             d="M 0,0 100.985,-242.749 -9.531,-10.075 C -6.509,-6.572 -3.326,-3.213 0,0"
             style="fill:#6057a1;fill-opacity:1;fill-rule:evenodd;stroke:none"
             id="path4751" /></g><g
           id="g4753"
           transform="translate(181.9157,483.622)"><path
             d="M 0,0 120.08,-220.357 -7.365,-11.625 C -5.084,-7.633 -2.624,-3.756 0,0"
             style="fill:#6057a1;fill-opacity:1;fill-rule:evenodd;stroke:none"
             id="path4755" /></g><g
           id="g4757"
           transform="translate(167.5837,458.1955)"><path
             d="M 0,0 134.41,-194.929 -4.952,-12.696 C -3.49,-8.373 -1.832,-4.14 0,0"
             style="fill:#6057a1;fill-opacity:1;fill-rule:evenodd;stroke:none"
             id="path4759" /></g><g
           id="g4761"
           transform="translate(158.4865,430.7732)"><path
             d="M 0,0 143.505,-167.505 -2.392,-13.259 C -1.787,-8.776 -0.99,-4.353 0,0"
             style="fill:#6057a1;fill-opacity:1;fill-rule:evenodd;stroke:none"
             id="path4763" /></g><g
           id="g4765"
           transform="translate(154.8349,402.4888)"><path
             d="M 0,0 147.155,-139.219 0.115,-13.22 c -0.14,2.659 -0.214,5.333 -0.214,8.026 0,1.739 0.04,3.469 0.099,5.194"
             style="fill:#6057a1;fill-opacity:1;fill-rule:evenodd;stroke:none"
             id="path4767" /></g><g
           id="g4769"
           transform="translate(156.443,374.599)"><path
             d="M 0,0 145.544,-111.327 2.489,-12.665 C 1.486,-8.505 0.649,-4.283 0,0"
             style="fill:#6057a1;fill-opacity:1;fill-rule:evenodd;stroke:none"
             id="path4771" /></g><g
           id="g4773"
           transform="translate(162.9471,348.1835)"><path
             d="M 0,0 139.038,-84.911 4.559,-11.612 C 2.887,-7.819 1.361,-3.947 0,0"
             style="fill:#6057a1;fill-opacity:1;fill-rule:evenodd;stroke:none"
             id="path4775" /></g><g
           id="g4777"
           transform="translate(173.6184,324.2597)"><path
             d="M 0,0 128.364,-60.986 6.149,-10.13 C 3.972,-6.84 1.92,-3.462 0,0"
             style="fill:#6057a1;fill-opacity:1;fill-rule:evenodd;stroke:none"
             id="path4779" /></g><g
           id="g4781"
           transform="translate(187.3332,303.6756)"><path
             d="M 0,0 114.647,-40.401 7.117,-8.359 C 4.647,-5.66 2.272,-2.872 0,0"
             style="fill:#6057a1;fill-opacity:1;fill-rule:evenodd;stroke:none"
             id="path4783" /></g><g
           id="g4785"
           transform="translate(202.7381,286.9393)"><path
             d="M 0,0 99.239,-23.665 7.376,-6.484 C 4.846,-4.403 2.389,-2.237 0,0"
             style="fill:#6057a1;fill-opacity:1;fill-rule:evenodd;stroke:none"
             id="path4787" /></g><path
           d="m 198.332,243.441 h 217.669 v 27.565 H 198.332 Z"
           style="fill:#ffffff;fill-opacity:1;fill-rule:evenodd;stroke:#6057a1;stroke-width:1;stroke-linecap:butt;stroke-linejoin:miter;stroke-miterlimit:22.926;stroke-dasharray:none;stroke-opacity:1"
           id="path4789" /><g
           id="g4791"
           transform="translate(207.4584,483.4457)"><path
             d="m 0,0 6.21,-3.884 9.385,-0.313 9.699,9.386 4.693,-0.313 V -4.51 l 7.195,-8.447 19.084,-10.637 14.392,-3.754 13.452,-0.625 10.95,-0.313 3.441,2.502 6.883,9.699 6.57,4.067 8.447,0.626 9.699,-0.313 9.385,-5.006 12.514,-7.821 10.012,-4.693 5.005,-7.821 c 0,0 0.626,-4.067 0.939,-8.447 0.313,-4.38 -1.251,-8.135 -1.251,-8.135 l -2.191,-8.134 v -5.318 l -0.938,-12.514 3.848,-9.607 3.206,-8.762 1.069,-4.275 5.343,-1.282 5.129,-0.428 2.351,-4.915 -1.497,-4.702 -3.419,-4.06 -3.206,-4.488 -1.71,-2.992 0.214,-8.549 3.633,-4.702 6.198,-6.198 4.702,-2.564 5.984,-0.428 3.42,-4.915 -0.214,-9.19 -1.496,-4.061 -4.916,-2.778 -7.907,-6.412 -2.992,-3.847 -15.766,-8.057 -22.917,11.691 -7.052,6.625 -4.212,3.705 -5.218,2.066 -0.615,-0.091 -3.199,2.482 1.019,-3.184 -4.569,-1.864 -7.689,-4.385 -9.649,0.366 -8.825,4.111 -5.978,-1.373 -11.609,3.949 -11.548,5.924 -9.166,13.279 -4.229,12.629 -7.148,0.022 -0.697,2.555 -8.087,2.833 -3.302,2.711 -4.061,3.847 -3.633,7.48 -2.138,5.557 -1.495,7.694 -6.198,8.762 -8.976,8.549 -1.283,9.19 v 9.189 l 1.71,7.48 0.427,4.702 v 3.847 l -6.197,6.625 -2.565,4.916 -1.71,2.992 c -0.123,2.023 -0.023,20.796 0.753,29.606 C -4.019,3.231 -3.928,2.455 0,0"
             style="fill:#ffffff;fill-opacity:1;fill-rule:evenodd;stroke:none"
             id="path4793" /></g><g
           id="g4795"
           transform="translate(207.4584,483.4457)"><path
             d="m 0,0 6.21,-3.884 9.385,-0.313 9.699,9.386 4.693,-0.313 V -4.51 l 7.195,-8.447 19.084,-10.637 14.392,-3.754 13.452,-0.625 10.95,-0.313 3.441,2.502 6.883,9.699 6.57,4.067 8.447,0.626 9.699,-0.313 9.385,-5.006 12.514,-7.821 10.012,-4.693 5.005,-7.821 c 0,0 0.626,-4.067 0.939,-8.447 0.313,-4.38 -1.251,-8.135 -1.251,-8.135 l -2.191,-8.134 v -5.318 l -0.938,-12.514 3.848,-9.607 3.206,-8.762 1.069,-4.275 5.343,-1.282 5.129,-0.428 2.351,-4.915 -1.497,-4.702 -3.419,-4.06 -3.206,-4.488 -1.71,-2.992 0.214,-8.549 3.633,-4.702 6.198,-6.198 4.702,-2.564 5.984,-0.428 3.42,-4.915 -0.214,-9.19 -1.496,-4.061 -4.916,-2.778 -7.907,-6.412 -2.992,-3.847 -15.766,-8.057 -22.917,11.691 -7.052,6.625 -4.212,3.705 -5.218,2.066 -0.615,-0.091 -3.199,2.482 1.019,-3.184 -4.569,-1.864 -7.689,-4.385 -9.649,0.366 -8.825,4.111 -5.978,-1.373 -11.609,3.949 -11.548,5.924 -9.166,13.279 -4.229,12.629 -7.148,0.022 -0.697,2.555 -8.087,2.833 -3.302,2.711 -4.061,3.847 -3.633,7.48 -2.138,5.557 -1.495,7.694 -6.198,8.762 -8.976,8.549 -1.283,9.19 v 9.189 l 1.71,7.48 0.427,4.702 v 3.847 l -6.197,6.625 -2.565,4.916 -1.71,2.992 c -0.123,2.023 -0.023,20.796 0.753,29.606 C -4.019,3.231 -3.928,2.455 0,0 Z"
             style="fill:none;stroke:#6057a1;stroke-width:1;stroke-linecap:butt;stroke-linejoin:miter;stroke-miterlimit:22.926;stroke-dasharray:none;stroke-opacity:1"
             id="path4797" /></g><g
           id="g4799"
           transform="translate(229.9893,350.248)"><path
             d="m 0,0 3.31,4.564 5.397,4.223 3.754,2.816 h 5.632 l 3.754,-0.704 2.816,-3.285 4.927,-5.397 1.173,-5.162 5.162,-5.631 5.397,-6.335 4.928,-4.224 6.569,-3.754 5.866,-4.458 6.57,-2.581 9.151,-2.581 7.04,-1.174 6.1,1.408 5.397,3.52 5.162,3.285 h 6.101 l 4.458,-3.285 4.927,-5.866 7.274,-6.805 8.916,-3.285 8.917,-0.469 12.201,-0.704 h 7.978 l 2.346,-7.509 1.642,-4.223 v -3.05 l -21.586,-0.235 -4.928,0.704 c 0,0 -2.346,2.112 -3.519,2.346 -1.173,0.235 -7.274,0.47 -7.274,0.47 h -3.52 l -3.754,-3.051 -3.52,-0.234 -3.989,2.815 -1.173,4.458 -1.877,5.163 -0.469,6.335 -0.704,2.816 -2.581,3.989 -2.346,1.877 -3.755,-0.47 -4.458,-6.1 -3.285,-5.632 c 0,0 -3.989,-4.223 -4.692,-5.396 -0.705,-1.174 -3.989,-3.754 -3.989,-3.754 l -3.52,-2.347 -4.224,-2.581 -4.927,-0.704 -8.682,-0.235 H 52.35 l -1.877,4.459 -0.704,4.458 -2.112,3.754 -1.642,1.877 -4.928,0.235 -3.05,-2.581 -3.754,-0.939 -2.112,2.112 -0.469,3.519 -0.235,6.805 v 3.754 l -2.581,5.397 -4.693,4.223 -5.396,3.755 -6.101,4.223 -5.866,4.693 -4.224,5.162 c 0,0 -3.157,4.766 -2.606,5.526"
             style="fill:#ffffff;fill-opacity:1;fill-rule:evenodd;stroke:none"
             id="path4801" /></g><g
           id="g4803"
           transform="translate(229.9893,350.248)"><path
             d="m 0,0 3.31,4.564 5.397,4.223 3.754,2.816 h 5.632 l 3.754,-0.704 2.816,-3.285 4.927,-5.397 1.173,-5.162 5.162,-5.631 5.397,-6.335 4.928,-4.224 6.569,-3.754 5.866,-4.458 6.57,-2.581 9.151,-2.581 7.04,-1.174 6.1,1.408 5.397,3.52 5.162,3.285 h 6.101 l 4.458,-3.285 4.927,-5.866 7.274,-6.805 8.916,-3.285 8.917,-0.469 12.201,-0.704 h 7.978 l 2.346,-7.509 1.642,-4.223 v -3.05 l -21.586,-0.235 -4.928,0.704 c 0,0 -2.346,2.112 -3.519,2.346 -1.173,0.235 -7.274,0.47 -7.274,0.47 h -3.52 l -3.754,-3.051 -3.52,-0.234 -3.989,2.815 -1.173,4.458 -1.877,5.163 -0.469,6.335 -0.704,2.816 -2.581,3.989 -2.346,1.877 -3.755,-0.47 -4.458,-6.1 -3.285,-5.632 c 0,0 -3.989,-4.223 -4.692,-5.396 -0.705,-1.174 -3.989,-3.754 -3.989,-3.754 l -3.52,-2.347 -4.224,-2.581 -4.927,-0.704 -8.682,-0.235 H 52.35 l -1.877,4.459 -0.704,4.458 -2.112,3.754 -1.642,1.877 -4.928,0.235 -3.05,-2.581 -3.754,-0.939 -2.112,2.112 -0.469,3.519 -0.235,6.805 v 3.754 l -2.581,5.397 -4.693,4.223 -5.396,3.755 -6.101,4.223 -5.866,4.693 -4.224,5.162 c 0,0 -3.157,4.766 -2.606,5.526 z"
             style="fill:none;stroke:#6057a1;stroke-width:1;stroke-linecap:butt;stroke-linejoin:miter;stroke-miterlimit:22.926;stroke-dasharray:none;stroke-opacity:1"
             id="path4805" /></g><g
           id="g4807"
           transform="translate(245.3471,474.3411)"><path
             d="m 0,0 3.891,2.834 1.592,4.43 v 4.43 l -0.708,3.012 v 2.126 l 1.769,1.063 3.184,1.949 27.061,0.354 3.714,0.355 4.775,-4.253 3.891,-1.949 2.653,-0.354 1.946,-1.595 -0.531,-6.91 1.062,-6.555 2.653,-4.962 4.775,-7.972 -0.884,-4.253 -2.476,-3.012 -4.953,-0.886 h -9.551 l -4.598,-1.24 -4.422,-2.48 -9.551,0.708 -4.422,4.784 -4.244,1.417 -6.898,0.532 -6.367,1.24 C -0.063,-10.772 0.122,-7.185 0,0"
             style="fill:#ffffff;fill-opacity:1;fill-rule:evenodd;stroke:none"
             id="path4809" /></g><g
           id="g4811"
           transform="translate(245.3471,474.3411)"><path
             d="m 0,0 3.891,2.834 1.592,4.43 v 4.43 l -0.708,3.012 v 2.126 l 1.769,1.063 3.184,1.949 27.061,0.354 3.714,0.355 4.775,-4.253 3.891,-1.949 2.653,-0.354 1.946,-1.595 -0.531,-6.91 1.062,-6.555 2.653,-4.962 4.775,-7.972 -0.884,-4.253 -2.476,-3.012 -4.953,-0.886 h -9.551 l -4.598,-1.24 -4.422,-2.48 -9.551,0.708 -4.422,4.784 -4.244,1.417 -6.898,0.532 -6.367,1.24 C -0.063,-10.772 0.122,-7.185 0,0 Z"
             style="fill:none;stroke:#6057a1;stroke-width:1;stroke-linecap:butt;stroke-linejoin:miter;stroke-miterlimit:22.926;stroke-dasharray:none;stroke-opacity:1"
             id="path4813" /></g><g
           id="g4815"
           transform="translate(295.5291,423.6707)"><path
             d="m 0,0 7.174,7.174 c 1.973,1.973 5.201,1.973 7.174,0 L 21.522,0 c 0.5,-0.5 0.872,-1.079 1.119,-1.699 0.606,0.256 1.271,0.398 1.968,0.398 h 10.146 c 2.791,0 5.072,-2.281 5.072,-5.072 v -10.145 c 0,-0.707 -0.147,-1.381 -0.412,-1.994 0.611,-0.246 1.182,-0.616 1.675,-1.109 l 7.175,-7.175 c 1.973,-1.973 1.973,-5.2 0,-7.173 l -7.174,-7.174 c -0.5,-0.5 -1.081,-0.872 -1.701,-1.118 0.257,-0.606 0.4,-1.272 0.4,-1.969 v -10.146 c 0,-2.79 -2.282,-5.072 -5.073,-5.072 H 24.572 c -0.707,0 -1.381,0.148 -1.994,0.411 -0.247,-0.61 -0.616,-1.181 -1.109,-1.674 l -7.174,-7.174 c -1.973,-1.974 -5.2,-1.974 -7.173,0 l -7.175,7.174 c -0.499,0.499 -0.872,1.08 -1.118,1.7 -0.605,-0.257 -1.272,-0.4 -1.969,-0.4 h -10.145 c -2.791,0 -5.073,2.282 -5.073,5.073 v 10.145 c 0,0.707 0.148,1.381 0.411,1.994 -0.609,0.247 -1.181,0.616 -1.674,1.109 l -7.174,7.174 c -1.973,1.973 -1.973,5.2 0,7.174 l 7.174,7.174 c 0.5,0.499 1.08,0.873 1.7,1.12 -0.256,0.605 -0.399,1.27 -0.399,1.967 v 10.145 c 0,2.791 2.281,5.073 5.072,5.073 h 10.146 c 0.706,0 1.381,-0.146 1.994,-0.41 0.246,0.61 0.615,1.18 1.108,1.673"
             style="fill:#6057a1;fill-opacity:1;fill-rule:evenodd;stroke:none"
             id="path4817" /></g><g
           id="g4819"
           transform="translate(253.6435,449.5938)"><path
             d="m 0,0 -10.316,-9.651 11.98,-14.642 c -15.124,-101.233 60.397,-86.729 73.877,-80.2 l -8.985,11.98 c -2.231,-1.229 -4.409,-2.147 -6.53,-2.793 l -3.383,-3.384 c -2.229,-2.23 -5.876,-2.23 -8.106,0 l -3.235,3.235 c -4.041,1.218 -7.737,3.442 -11.039,6.342 h -8.787 c -3.153,0 -5.732,2.579 -5.732,5.732 v 11.466 c 0,0.798 0.167,1.56 0.464,2.253 -0.688,0.279 -1.334,0.696 -1.891,1.253 l -8.108,8.107 c -2.23,2.23 -2.23,5.876 0,8.106 l 6.272,6.272 c 0.235,2.168 0.726,4.087 1.489,5.658 l -0.332,20.299 C 17.638,-19.967 0.333,0.333 0,0"
             style="fill:#6057a1;fill-opacity:1;fill-rule:evenodd;stroke:none"
             id="path4821" /></g><g
           id="g4823"
           transform="translate(359.1729,337.4816)"><path
             d="m 0,0 10.316,9.651 -11.98,14.642 c 15.124,101.233 -60.397,86.729 -73.877,80.2 l 8.985,-11.98 c 2.231,1.228 4.409,2.147 6.53,2.793 l 3.383,3.384 c 2.229,2.23 5.876,2.23 8.106,0 l 3.235,-3.235 c 4.041,-1.218 7.738,-3.442 11.039,-6.343 h 8.787 c 3.153,0 5.732,-2.578 5.732,-5.732 V 71.915 c 0,-0.798 -0.167,-1.56 -0.464,-2.253 0.688,-0.279 1.334,-0.696 1.891,-1.253 l 8.108,-8.108 c 2.23,-2.229 2.23,-5.875 0,-8.105 l -6.272,-6.272 c -0.235,-2.168 -0.726,-4.087 -1.489,-5.658 l 0.333,-20.299 c 0,0 17.304,-20.3 17.637,-19.967"
             style="fill:#6057a1;fill-opacity:1;fill-rule:evenodd;stroke:none"
             id="path4825" /></g><g
           id="g4827"
           transform="translate(303.8973,413.0994)"><path
             d="m 0,0 h 4.806 v -9.819 c 0.846,0.492 1.532,1.233 1.95,2.123 0.29,-0.618 0.454,-1.307 0.454,-2.033 0,-1.773 -0.969,-3.324 -2.404,-4.158 v -8.376 c 2.399,0.698 4.373,2.411 5.419,4.64 0.522,-1.112 0.816,-2.35 0.816,-3.655 0,-3.923 -2.641,-7.248 -6.235,-8.294 v -5.049 c 3.543,0.761 6.489,3.163 7.995,6.368 0.694,-1.477 1.084,-3.123 1.084,-4.858 0,-6.323 -5.158,-11.481 -11.482,-11.481 -6.324,0 -11.482,5.158 -11.482,11.481 0,1.735 0.391,3.381 1.084,4.858 1.507,-3.205 4.451,-5.608 7.995,-6.368 v 5.049 c -3.594,1.045 -6.234,4.37 -6.234,8.294 0,1.305 0.294,2.543 0.816,3.655 1.046,-2.229 3.019,-3.942 5.418,-4.64 v 8.376 c -1.435,0.832 -2.403,2.385 -2.403,4.158 0,0.726 0.163,1.415 0.454,2.033 0.418,-0.89 1.102,-1.632 1.949,-2.124 z"
             style="fill:#ffffff;fill-opacity:1;fill-rule:evenodd;stroke:none"
             id="path4829" /></g><g
           id="g4831"
           transform="translate(244.3728,252.2931)"><path
             d="m 0,0 h 3.168 c 0.545,0 0.927,0.021 1.149,0.062 0.385,0.068 0.71,0.184 0.971,0.346 0.26,0.163 0.473,0.4 0.642,0.711 0.169,0.311 0.252,0.669 0.252,1.075 0,0.476 -0.121,0.888 -0.367,1.24 C 5.572,3.787 5.235,4.032 4.802,4.175 4.373,4.317 3.751,4.388 2.943,4.388 H 0 Z m 0,5.88 h 2.751 c 0.746,0 1.281,0.05 1.604,0.148 0.429,0.127 0.752,0.34 0.968,0.637 C 5.54,6.96 5.649,7.331 5.649,7.778 5.649,8.201 5.548,8.574 5.344,8.894 5.143,9.217 4.853,9.438 4.477,9.557 4.101,9.675 3.455,9.735 2.543,9.735 H 0 Z m -1.687,-7.372 v 12.719 h 4.772 c 0.971,0 1.75,-0.128 2.339,-0.385 C 6.01,10.584 6.469,10.188 6.801,9.652 7.135,9.119 7.301,8.559 7.301,7.973 7.301,7.431 7.153,6.919 6.86,6.439 6.567,5.96 6.123,5.572 5.528,5.276 6.298,5.051 6.889,4.666 7.301,4.121 7.715,3.579 7.923,2.937 7.923,2.197 7.923,1.599 7.795,1.045 7.544,0.533 7.292,0.021 6.981,-0.373 6.611,-0.651 6.241,-0.927 5.776,-1.137 5.22,-1.279 4.66,-1.421 3.976,-1.492 3.165,-1.492 Z"
             style="fill:#6057a1;fill-opacity:1;fill-rule:evenodd;stroke:none"
             id="path4833" /></g><g
           id="g4835"
           transform="translate(256.8696,256.0235)"><path
             d="M 0,0 H 4.335 L 3.008,3.526 C 2.608,4.598 2.307,5.483 2.096,6.182 1.922,5.353 1.688,4.539 1.395,3.733 Z M -3.659,-5.223 1.22,7.496 H 3.07 L 8.249,-5.223 H 6.333 l -1.472,3.855 h -5.355 l -1.38,-3.855 z"
             style="fill:#6057a1;fill-opacity:1;fill-rule:evenodd;stroke:none"
             id="path4837" /></g><g
           id="g4839"
           transform="translate(266.4357,250.8009)"><path
             d="M 0,0 V 12.719 H 1.729 L 8.402,2.736 v 9.983 h 1.617 L 10.019,0 H 8.29 L 1.616,9.983 V 0 Z"
             style="fill:#6057a1;fill-opacity:1;fill-rule:evenodd;stroke:none"
             id="path4841" /></g><g
           id="g4843"
           transform="translate(279.2109,250.8009)"><path
             d="M 0,0 V 12.719 H 1.687 V 6.413 l 6.319,6.306 h 2.279 L 4.95,7.561 10.516,0 H 8.296 L 3.769,6.419 1.687,4.405 V 0 Z"
             style="fill:#6057a1;fill-opacity:1;fill-rule:evenodd;stroke:none"
             id="path4845" /></g><g
           id="g4847"
           transform="translate(298.9791,250.8009)"><path
             d="m 0,0 v 11.227 h -4.192 v 1.492 H 5.88 V 11.227 H 1.687 V 0 Z"
             style="fill:#6057a1;fill-opacity:1;fill-rule:evenodd;stroke:none"
             id="path4849" /></g><g
           id="g4851"
           transform="translate(306.6324,250.8009)"><path
             d="M 0,0 V 12.719 H 9.184 V 11.227 H 1.687 V 7.319 H 8.704 V 5.827 H 1.687 V 1.492 H 9.486 V 0 Z"
             style="fill:#6057a1;fill-opacity:1;fill-rule:evenodd;stroke:none"
             id="path4853" /></g><g
           id="g4855"
           transform="translate(317.5926,254.4129)"><path
             d="m 0,0 1.51,0.207 c 0.041,-0.974 0.222,-1.64 0.545,-2.001 0.322,-0.358 0.773,-0.539 1.344,-0.539 0.42,0 0.784,0.098 1.089,0.29 0.305,0.196 0.519,0.459 0.634,0.791 0.115,0.331 0.172,0.864 0.172,1.592 V 9.107 H 6.981 V 0.441 C 6.981,-0.622 6.854,-1.445 6.596,-2.031 6.339,-2.614 5.933,-3.058 5.374,-3.366 4.817,-3.671 4.163,-3.825 3.414,-3.825 c -1.117,0 -1.969,0.32 -2.561,0.962 C 0.26,-2.22 -0.024,-1.267 0,0"
             style="fill:#6057a1;fill-opacity:1;fill-rule:evenodd;stroke:none"
             id="path4857" /></g><g
           id="g4859"
           transform="translate(329.5922,256.0235)"><path
             d="M 0,0 H 4.334 L 3.008,3.526 C 2.608,4.598 2.306,5.483 2.096,6.182 1.922,5.353 1.688,4.539 1.395,3.733 Z M -3.659,-5.223 1.22,7.496 H 3.07 L 8.249,-5.223 H 6.333 l -1.472,3.855 h -5.355 l -1.38,-3.855 z"
             style="fill:#6057a1;fill-opacity:1;fill-rule:evenodd;stroke:none"
             id="path4861" /></g><g
           id="g4863"
           transform="translate(340.899,257.9066)"><path
             d="m 0,0 h 3.612 c 0.77,0 1.368,0.08 1.8,0.24 0.433,0.157 0.761,0.411 0.983,0.763 0.225,0.35 0.338,0.729 0.338,1.141 0,0.601 -0.217,1.098 -0.652,1.486 C 5.646,4.018 4.959,4.21 4.021,4.21 H 0 Z M -1.687,-7.106 V 5.613 H 3.949 C 5.083,5.613 5.945,5.498 6.534,5.27 7.124,5.042 7.594,4.639 7.946,4.062 8.299,3.485 8.473,2.845 8.473,2.146 8.473,1.243 8.18,0.482 7.597,-0.136 7.014,-0.755 6.114,-1.146 4.894,-1.315 5.341,-1.528 5.679,-1.741 5.909,-1.948 6.401,-2.398 6.866,-2.964 7.301,-3.642 l 2.2,-3.464 H 7.399 l -1.682,2.647 c -0.488,0.767 -0.894,1.35 -1.211,1.756 -0.32,0.406 -0.604,0.687 -0.855,0.85 -0.249,0.16 -0.507,0.272 -0.767,0.337 -0.19,0.039 -0.501,0.059 -0.936,0.059 H 0 v -5.649 z"
             style="fill:#6057a1;fill-opacity:1;fill-rule:evenodd;stroke:none"
             id="path4865" /></g><g
           id="g4867"
           transform="translate(354.2692,256.0235)"><path
             d="M 0,0 H 4.335 L 3.008,3.526 C 2.608,4.598 2.306,5.483 2.096,6.182 1.922,5.353 1.688,4.539 1.395,3.733 Z M -3.659,-5.223 1.22,7.496 H 3.07 L 8.249,-5.223 H 6.333 l -1.472,3.855 h -5.355 l -1.38,-3.855 z"
             style="fill:#6057a1;fill-opacity:1;fill-rule:evenodd;stroke:none"
             id="path4869" /></g><g
           id="g4871"
           transform="translate(365.7685,250.8009)"><path
             d="m 0,0 v 11.227 h -4.192 v 1.492 H 5.88 V 11.227 H 1.687 V 0 Z"
             style="fill:#6057a1;fill-opacity:1;fill-rule:evenodd;stroke:none"
             id="path4873" /></g></g></g></g></svg>
