<?xml version="1.0" encoding="UTF-8" standalone="no"?>
<svg
   xmlns:dc="http://purl.org/dc/elements/1.1/"
   xmlns:cc="http://creativecommons.org/ns#"
   xmlns:rdf="http://www.w3.org/1999/02/22-rdf-syntax-ns#"
   xmlns:svg="http://www.w3.org/2000/svg"
   xmlns="http://www.w3.org/2000/svg"
   xmlns:sodipodi="http://sodipodi.sourceforge.net/DTD/sodipodi-0.dtd"
   xmlns:inkscape="http://www.inkscape.org/namespaces/inkscape"
   version="1.1"
   id="svg4919"
   xml:space="preserve"
   width="1056"
   height="816"
   viewBox="0 0 1056 816"
   sodipodi:docname="TOSEE..svg"
   inkscape:version="1.0.1 (3bc2e813f5, 2020-09-07)"><sodipodi:namedview
     pagecolor="#ffffff"
     bordercolor="#666666"
     borderopacity="1"
     objecttolerance="10"
     gridtolerance="10"
     guidetolerance="10"
     inkscape:pageopacity="0"
     inkscape:pageshadow="2"
     inkscape:window-width="1848"
     inkscape:window-height="1009"
     id="namedview5991"
     showgrid="false"
     inkscape:zoom="0.79307804"
     inkscape:cx="528"
     inkscape:cy="450.84919"
     inkscape:window-x="72"
     inkscape:window-y="34"
     inkscape:window-maximized="1"
     inkscape:current-layer="svg4919" /><metadata
     id="metadata4925"><rdf:RDF><cc:Work
         rdf:about=""><dc:format>image/svg+xml</dc:format><dc:type
           rdf:resource="http://purl.org/dc/dcmitype/StillImage" /><dc:title /></cc:Work></rdf:RDF></metadata><defs
     id="defs4923"><clipPath
       clipPathUnits="userSpaceOnUse"
       id="clipPath4935"><path
         d="M 0,612 H 792 V 0 H 0 Z"
         id="path4933" /></clipPath></defs><g
     id="g4927"
     transform="matrix(2.5070494,0,0,-2.5070494,-464.79175,1175.1572)"><g
       id="g4929"><g
         id="g4931"
         clip-path="url(#clipPath4935)"><g
           id="g4937"
           transform="translate(569.4077,304.0625)"><path
             d="m 0,0 c -19.34,0 -35.114,15.774 -35.114,35.114 0,19.339 15.774,35.113 35.114,35.113 19.34,0 35.114,-15.774 35.114,-35.113 C 35.114,15.774 19.34,0 0,0 m -0.228,24.476 v 20.49 L -42.731,77.223 -85.233,44.966 v -20.49 l 42.502,32.257 z m -105.903,-77.249 h 126.8 v 76.67 H 0.027 V -32.427 H -85.49 v 56.324 h -20.641 z"
             style="fill:#a31b06;fill-opacity:1;fill-rule:evenodd;stroke:none"
             id="path4939" /></g><g
           id="g4941"
           transform="translate(319.5743,331.5334)"><path
             d="M 0,0 C 0,0.896 -0.236,1.57 -0.694,2.014 L -3.646,4.945 C -4.785,3.875 -5.501,3.153 -5.785,2.785 -6.501,1.868 -6.862,0.937 -6.862,0 c 0,-0.952 0.319,-1.722 0.959,-2.313 0.639,-0.59 1.437,-0.882 2.403,-0.882 0.93,0 1.75,0.299 2.451,0.903 C -0.354,-1.688 0,-0.924 0,0 m 40.684,-6.271 c -0.674,0.046 -1.161,0.116 -1.458,0.208 -0.951,0.257 -1.674,0.819 -2.16,1.687 -1.125,-1.576 -2.535,-2.361 -4.229,-2.361 -1.709,0 -3.39,0.806 -5.029,2.424 -1.423,-1.618 -3.202,-2.424 -5.334,-2.424 -1.979,0 -3.611,0.855 -4.903,2.57 -0.798,-1.049 -2.16,-1.709 -4.084,-1.979 -0.619,-0.086 -1.625,-0.142 -3.014,-0.167 v -0.014 c -0.168,0 -0.332,0.002 -0.491,0.007 C 9.589,-6.325 9.17,-6.327 8.723,-6.327 v 0.106 C 7.991,-6.12 7.409,-5.945 6.98,-5.695 6.612,-5.479 5.333,-4.362 3.153,-2.34 1.771,-5.271 -0.465,-6.737 -3.542,-6.737 c -2.021,0 -3.688,0.66 -5.008,1.973 -1.312,1.319 -1.972,2.986 -1.972,5.007 0,2.118 1.417,4.591 4.251,7.431 l -1.035,1.181 2.458,2.48 10.967,-11.662 c 0.965,-1.013 1.583,-1.604 1.854,-1.77 0.514,-0.313 1.347,-0.5 2.5,-0.57 h 1.32 c 1.347,0 2.278,0.174 2.812,0.514 0.688,0.445 1.035,1.334 1.035,2.66 v 4.66 h 3.584 v -5.431 c 0,-0.854 0.313,-1.556 0.938,-2.104 0.618,-0.549 1.361,-0.827 2.215,-0.827 1.667,0 2.5,0.757 2.5,2.279 v 6.083 h 3.605 v -5.389 c 0,-0.855 0.319,-1.569 0.958,-2.14 0.597,-0.555 1.327,-0.833 2.195,-0.833 1.702,0 2.549,0.757 2.549,2.279 v 6.083 h 3.618 v -5.611 c 0,-0.855 0.437,-1.487 1.32,-1.896 0.257,-0.118 1.243,-0.23 2.952,-0.327 h 3.006 c 1.695,0 2.542,0.91 2.542,2.729 v 5.105 h 3.605 V -0.25 c 0,-0.875 0.312,-1.59 0.937,-2.146 0.625,-0.563 1.376,-0.841 2.258,-0.841 1.667,0 2.5,0.765 2.5,2.293 v 6.111 h 3.562 V -0.25 c 0,-0.861 0.306,-1.57 0.924,-2.139 0.619,-0.563 1.362,-0.848 2.222,-0.848 1.709,0 2.563,0.765 2.563,2.293 v 6.111 h 3.584 v -5.619 c 0,-1.812 -0.417,-3.277 -1.243,-4.396 -0.917,-1.256 -2.264,-1.889 -4.029,-1.889 -1.722,0 -3.368,0.82 -4.944,2.466 -1.396,-1.646 -2.883,-2.466 -4.452,-2.466 -1.653,0 -3.32,0.98 -4.987,2.931 -1.465,-1.681 -3.056,-2.521 -4.778,-2.521 h -3.27 -1.39 z"
             style="fill:#a31b06;fill-opacity:1;fill-rule:evenodd;stroke:none"
             id="path4943" /></g><g
           id="g4945"
           transform="translate(421.5419,332.2902)"><path
             d="m 0,0 c 0,2.64 -1.049,3.959 -3.153,3.959 -2.139,0 -3.209,-1.368 -3.209,-4.105 0,-2.535 1.07,-3.799 3.209,-3.799 C -1.049,-3.945 0,-2.632 0,0 m -18.363,-3.424 v 3.48 c 0,1.021 -0.243,1.896 -0.729,2.625 -0.556,0.827 -1.327,1.243 -2.299,1.243 -1.167,0 -1.959,-0.396 -2.361,-1.181 -0.285,-0.569 -0.431,-1.514 -0.431,-2.826 0,-1.549 0.646,-2.542 1.931,-2.973 0.694,-0.243 1.993,-0.368 3.889,-0.368 m 21.558,3.216 c 0,-2.098 -0.521,-3.82 -1.57,-5.168 -1.139,-1.478 -2.729,-2.215 -4.778,-2.215 -1.563,0 -2.938,0.459 -4.132,1.382 -0.992,-0.434 -2.623,-0.71 -4.89,-0.827 v -0.048 h -1.313 -1.111 c 0,-2.688 -0.896,-4.903 -2.694,-6.646 -1.799,-1.743 -4.042,-2.611 -6.744,-2.611 h -4.723 l -0.507,3.659 h 4.619 c 1.736,0 3.181,0.5 4.333,1.508 1.153,1 1.764,2.368 1.834,4.09 -3.028,0 -5.251,0.41 -6.675,1.236 -1.86,1.091 -2.791,3.035 -2.791,5.841 0,3.07 0.736,5.216 2.215,6.452 0.854,0.729 2.306,1.097 4.341,1.097 2.917,0 4.869,-1.208 5.855,-3.618 0.57,-1.416 0.882,-3.862 0.937,-7.348 h 1.111 c 2.077,0 3.293,0.202 3.647,0.611 0.104,0.132 0.18,1.07 0.222,2.806 0.125,5.035 2.313,7.549 6.57,7.549 2.035,0 3.618,-0.812 4.758,-2.437 C 2.702,3.681 3.195,1.91 3.195,-0.208"
             style="fill:#a31b06;fill-opacity:1;fill-rule:evenodd;stroke:none"
             id="path4947" /></g><g
           id="g4949"
           transform="translate(210.7936,325.387)"><path
             d="m 0,0 c 0,-3.591 -1.292,-6.237 -3.882,-7.931 -1.536,-1.007 -3.23,-1.507 -5.091,-1.507 h -5.675 c -2.507,0 -4.597,0.958 -6.264,2.868 -1.604,1.833 -2.403,4.021 -2.403,6.57 v 7.57 h 3.438 v -7.973 c 0,-1.625 0.597,-2.959 1.792,-3.986 1.139,-0.979 2.528,-1.466 4.167,-1.466 h 4.723 c 1.437,0 2.722,0.466 3.861,1.403 1.222,0.979 1.833,2.167 1.833,3.584 0,1.201 -0.833,2 -2.5,2.375 -0.451,0.097 -0.756,0.146 -0.917,0.146 h -5.09 v 6.285 c 0,1.882 0.604,3.438 1.813,4.667 1.208,1.23 2.764,1.841 4.66,1.841 h 4.396 l 0.146,-3.438 h -4.396 c -1.313,0 -2.223,-0.583 -2.73,-1.75 -0.229,-0.57 -0.375,-1.959 -0.445,-4.168 2.89,0 4.813,-0.18 5.779,-0.534 C -0.931,3.855 0,2.333 0,0"
             style="fill:#a31b06;fill-opacity:1;fill-rule:evenodd;stroke:none"
             id="path4951" /></g><g
           id="g4953"
           transform="translate(227.6493,325.8383)"><path
             d="m 0,0 c 0,-2.701 -0.84,-5.007 -2.521,-6.917 -1.75,-1.979 -3.959,-2.972 -6.633,-2.972 h -4.882 l -0.59,3.764 h 4.132 c 1.757,0 3.271,0.423 4.535,1.263 1.466,0.973 2.195,2.313 2.195,4.008 V 10.862 H 0 Z"
             style="fill:#a31b06;fill-opacity:1;fill-rule:evenodd;stroke:none"
             id="path4955" /></g><g
           id="g4957"
           transform="translate(238.9833,325.2376)"><path
             d="m 0,0 c -2.475,0.137 -4.263,0.724 -5.355,1.761 -0.84,0.771 -1.264,2.041 -1.264,3.806 v 17.314 h 3.661 V 7.171 c 0,-1.695 0.284,-2.729 0.854,-3.112 0.348,-0.225 1.409,-0.37 3.191,-0.427 3.108,0.016 4.878,0.104 5.303,0.261 0.812,0.284 1.222,1.375 1.222,3.278 v 2.146 2.146 h 3.723 V 6.434 c 0,-1.194 0.409,-1.986 1.222,-2.375 0.486,-0.236 1.437,-0.375 2.848,-0.43 h 5.264 c 1.021,0 1.722,0.208 2.118,0.618 0.396,0.417 0.59,1.146 0.59,2.187 v 5.029 h 3.681 V 6.434 c 0,-1.201 0.278,-2 0.834,-2.375 0.431,-0.28 1.279,-0.426 2.55,-0.43 h 0.061 3.605 c -0.757,1.75 -1.139,3.32 -1.139,4.702 0,1.382 0.403,2.618 1.208,3.701 0.813,1.084 1.868,1.813 3.188,2.174 0.909,0.257 1.923,0.389 3.049,0.389 1.951,0 3.834,-0.902 5.639,-2.701 L 44.241,9.046 c -1.924,1.465 -3.563,2.194 -4.904,2.194 -1.924,0 -2.889,-1.173 -2.889,-3.52 0,-1.014 0.237,-1.918 0.715,-2.709 0.556,-0.924 1.313,-1.382 2.279,-1.382 h 7.278 l 0.59,-3.66 H 30.503 c -0.271,-0.003 -0.529,-0.003 -0.775,0 h -0.829 v 0.019 C 28.172,0.015 27.587,0.07 27.142,0.149 26.517,0.406 25.885,0.823 25.252,1.393 24.086,0.441 22.926,-0.031 21.773,-0.031 h -6.368 -1.139 -0.39 v 0.006 C 11.99,0.031 10.537,0.502 9.522,1.393 8.3,0.441 7.133,-0.031 6.022,-0.031 H 1.174 0 Z"
             style="fill:#a31b06;fill-opacity:1;fill-rule:evenodd;stroke:none"
             id="path4959" /></g><g
           id="g4961"
           transform="translate(245.7408,318.5739)"><path
             d="m 0,0 c 0,-0.716 -0.243,-1.32 -0.736,-1.806 -0.486,-0.493 -1.09,-0.736 -1.806,-0.736 -1.833,0 -2.75,0.847 -2.75,2.542 0,1.451 0.875,2.181 2.625,2.181 C -0.889,2.181 0,1.451 0,0"
             style="fill:#a31b06;fill-opacity:1;fill-rule:evenodd;stroke:none"
             id="path4963" /></g><g
           id="g4965"
           transform="translate(268.403,342.7637)"><path
             d="m 0,0 c 0,-0.632 -0.222,-1.16 -0.674,-1.563 -0.444,-0.41 -0.979,-0.611 -1.604,-0.611 -1.723,0 -2.584,0.722 -2.584,2.174 0,1.354 0.778,2.035 2.341,2.035 C -0.84,2.035 0,1.354 0,0"
             style="fill:#a31b06;fill-opacity:1;fill-rule:evenodd;stroke:none"
             id="path4967" /></g><g
           id="g4969"
           transform="translate(261.3815,342.7637)"><path
             d="m 0,0 c 0,-0.632 -0.223,-1.16 -0.674,-1.563 -0.444,-0.41 -0.979,-0.611 -1.604,-0.611 -1.722,0 -2.584,0.722 -2.584,2.174 0,1.354 0.778,2.035 2.341,2.035 C -0.84,2.035 0,1.354 0,0"
             style="fill:#a31b06;fill-opacity:1;fill-rule:evenodd;stroke:none"
             id="path4971" /></g><path
           d="m 294.697,325.206 h -3.563 v 23.481 h 3.563 z"
           style="fill:#a31b06;fill-opacity:1;fill-rule:evenodd;stroke:none"
           id="path4973" /><g
           id="g4975"
           transform="translate(264.443,276.5237)"><path
             d="m 0,0 c 0,0.778 -0.497,1.442 -1.508,1.989 -0.845,0.48 -1.673,0.728 -2.518,0.728 H -17.96 l 9.561,-10.04 C -2.8,-4.473 0,-2.037 0,0 m -51.675,-8.632 c 0,2.138 -0.564,3.744 -1.657,4.806 l -7.041,6.99 c -2.718,-2.551 -4.424,-4.273 -5.104,-5.152 -1.706,-2.187 -2.567,-4.407 -2.567,-6.644 0,-2.27 0.762,-4.108 2.287,-5.517 1.524,-1.408 3.429,-2.104 5.732,-2.104 2.22,0 4.175,0.713 5.848,2.155 1.657,1.44 2.502,3.262 2.502,5.466 m 61.632,-15.05 c -3.689,0.101 -6.374,0.383 -8.068,0.836 -2.982,0.729 -6.279,2.567 -9.908,5.467 -3.644,-3 -7.29,-4.938 -10.918,-5.815 -0.672,-0.159 -3.254,-0.297 -7.754,-0.429 v -0.102 c -0.679,0 -1.327,0.016 -1.941,0.048 l -1.903,-0.048 v 0.209 c -1.903,0.234 -3.401,0.666 -4.489,1.299 -0.878,0.514 -3.927,3.18 -9.129,8.002 -3.298,-6.991 -8.632,-10.488 -15.972,-10.488 -4.821,0 -8.798,1.574 -11.945,4.706 -3.131,3.147 -4.705,7.124 -4.705,11.945 0,5.053 3.379,10.952 10.14,17.728 l -2.469,2.816 5.864,5.915 26.161,-27.817 c 2.302,-2.419 3.777,-3.828 4.424,-4.225 1.109,-0.674 2.84,-1.104 5.195,-1.303 6.349,0.241 10.442,1.268 12.267,3.092 L -27.336,0.1 c 1.888,3.362 3.842,7.057 5.881,11.067 H -2.717 C 3.264,11.167 7.057,9.063 8.681,4.855 9.196,3.462 9.46,2.353 9.46,1.507 c 0,-3.562 -0.994,-6.494 -2.965,-8.78 -1.26,-1.457 -3.762,-3.363 -7.522,-5.732 3.462,-1.326 8.234,-1.988 14.33,-1.988 h 7.141 c 4.044,0 6.064,2.17 6.064,6.51 V 3.695 h 8.6 V -9.228 c 0,-2.088 0.745,-3.794 2.236,-5.119 1.491,-1.342 3.281,-2.006 5.385,-2.006 3.976,0 5.964,1.824 5.964,5.468 v 14.58 h 8.499 V -9.228 c 0,-2.055 0.729,-3.745 2.204,-5.103 1.475,-1.342 3.247,-2.022 5.301,-2.022 4.076,0 6.113,1.824 6.113,5.468 v 14.58 h 8.55 V -9.708 c 0,-4.325 -0.994,-7.82 -2.966,-10.488 -2.187,-2.998 -5.401,-4.507 -9.61,-4.507 -4.108,0 -8.035,1.956 -11.796,5.882 -3.329,-3.926 -6.875,-5.882 -10.619,-5.882 -3.943,0 -7.92,2.337 -11.896,6.992 -3.495,-4.01 -7.29,-6.014 -11.398,-6.014 H 13.303 9.957 Z"
             style="fill:#a31b06;fill-opacity:1;fill-rule:evenodd;stroke:none"
             id="path4977" /></g><g
           id="g4979"
           transform="translate(424.7365,294.351)"><path
             d="m 0,0 c 0,-1.491 -0.547,-2.735 -1.624,-3.728 -1.093,-1.011 -2.386,-1.507 -3.909,-1.507 -1.69,0 -3.099,0.431 -4.275,1.308 -1.259,1.01 -1.888,2.32 -1.888,3.927 0,3.197 1.871,4.804 5.632,4.804 C -2.021,4.804 0,3.197 0,0"
             style="fill:#a31b06;fill-opacity:1;fill-rule:evenodd;stroke:none"
             id="path4981" /></g><g
           id="g4983"
           transform="translate(407.9869,294.351)"><path
             d="m 0,0 c 0,-1.491 -0.547,-2.735 -1.624,-3.728 -1.094,-1.011 -2.386,-1.507 -3.909,-1.507 -1.691,0 -3.099,0.431 -4.276,1.308 -1.259,1.01 -1.888,2.32 -1.888,3.927 0,3.197 1.872,4.804 5.633,4.804 C -2.022,4.804 0,3.197 0,0"
             style="fill:#a31b06;fill-opacity:1;fill-rule:evenodd;stroke:none"
             id="path4985" /></g><g
           id="g4987"
           transform="translate(376.789,261.5306)"><path
             d="m 0,0 v 8.3 c 0,2.436 -0.58,4.523 -1.739,6.262 -1.325,1.972 -3.165,2.966 -5.484,2.966 -2.784,0 -4.673,-0.944 -5.633,-2.817 -0.68,-1.358 -1.028,-3.611 -1.028,-6.742 0,-3.695 1.541,-6.065 4.607,-7.092 C -7.621,0.298 -4.523,0 0,0 m 42.945,5.483 c 0,-3.777 -1.111,-7.041 -3.348,-9.791 -2.402,-2.949 -5.433,-4.424 -9.128,-4.424 H 14.762 11.78 8.979 c 0,-6.412 -2.136,-11.696 -6.428,-15.855 -4.29,-4.158 -9.641,-6.229 -16.087,-6.229 h -11.265 l -1.21,8.73 h 11.018 c 4.141,0 7.588,1.193 10.338,3.596 2.75,2.386 4.208,5.649 4.373,9.758 -7.223,0 -12.525,0.978 -15.922,2.95 -4.439,2.6 -6.659,7.239 -6.659,13.932 0,7.323 1.757,12.444 5.285,15.393 2.038,1.739 5.5,2.617 10.355,2.617 6.958,0 11.614,-2.883 13.966,-8.632 C 8.102,14.149 8.848,8.316 8.979,0 h 2.801 2.982 12.99 c 2.435,0 4.108,0.497 5.053,1.473 0.944,0.995 1.408,2.735 1.408,5.219 v 11.996 h 8.732 z"
             style="fill:#a31b06;fill-opacity:1;fill-rule:evenodd;stroke:none"
             id="path4989" /></g></g></g></g></svg>
